%TF.GenerationSoftware,KiCad,Pcbnew,7.0.6*%
%TF.CreationDate,2023-07-13T14:42:11+02:00*%
%TF.ProjectId,RH_BreakLever_FreeJoy,52485f42-7265-4616-9b4c-657665725f46,rev?*%
%TF.SameCoordinates,Original*%
%TF.FileFunction,Drillmap*%
%TF.FilePolarity,Positive*%
%FSLAX45Y45*%
G04 Gerber Fmt 4.5, Leading zero omitted, Abs format (unit mm)*
G04 Created by KiCad (PCBNEW 7.0.6) date 2023-07-13 14:42:11*
%MOMM*%
%LPD*%
G01*
G04 APERTURE LIST*
%ADD10C,0.100000*%
%ADD11C,0.200000*%
%ADD12C,0.220000*%
G04 APERTURE END LIST*
D10*
X7017000Y-3705000D02*
X3576500Y-3705000D01*
X7117000Y-2170000D02*
G75*
G03*
X7017000Y-2070000I-100000J0D01*
G01*
X3576500Y-2070000D02*
X7017000Y-2070000D01*
X3576500Y-2070000D02*
G75*
G03*
X3476500Y-2170000I0J-100000D01*
G01*
X3476500Y-3605000D02*
G75*
G03*
X3576500Y-3705000I100000J0D01*
G01*
X7117000Y-2170000D02*
X7117000Y-3605000D01*
X7017000Y-3705000D02*
G75*
G03*
X7117000Y-3605000I0J100000D01*
G01*
X3476500Y-2170000D02*
X3476500Y-3605000D01*
D11*
D12*
X5897000Y-3180000D02*
X6117000Y-3400000D01*
X6117000Y-3180000D02*
X5897000Y-3400000D01*
X6497000Y-2880000D02*
X6717000Y-3100000D01*
X6717000Y-2880000D02*
X6497000Y-3100000D01*
D11*
X3732277Y-4021484D02*
X3732277Y-3821484D01*
X3732277Y-3821484D02*
X3779896Y-3821484D01*
X3779896Y-3821484D02*
X3808467Y-3831008D01*
X3808467Y-3831008D02*
X3827515Y-3850055D01*
X3827515Y-3850055D02*
X3837039Y-3869103D01*
X3837039Y-3869103D02*
X3846562Y-3907198D01*
X3846562Y-3907198D02*
X3846562Y-3935769D01*
X3846562Y-3935769D02*
X3837039Y-3973865D01*
X3837039Y-3973865D02*
X3827515Y-3992912D01*
X3827515Y-3992912D02*
X3808467Y-4011960D01*
X3808467Y-4011960D02*
X3779896Y-4021484D01*
X3779896Y-4021484D02*
X3732277Y-4021484D01*
X3932277Y-4021484D02*
X3932277Y-3888150D01*
X3932277Y-3926246D02*
X3941801Y-3907198D01*
X3941801Y-3907198D02*
X3951324Y-3897674D01*
X3951324Y-3897674D02*
X3970372Y-3888150D01*
X3970372Y-3888150D02*
X3989420Y-3888150D01*
X4056086Y-4021484D02*
X4056086Y-3888150D01*
X4056086Y-3821484D02*
X4046562Y-3831008D01*
X4046562Y-3831008D02*
X4056086Y-3840531D01*
X4056086Y-3840531D02*
X4065610Y-3831008D01*
X4065610Y-3831008D02*
X4056086Y-3821484D01*
X4056086Y-3821484D02*
X4056086Y-3840531D01*
X4179896Y-4021484D02*
X4160848Y-4011960D01*
X4160848Y-4011960D02*
X4151324Y-3992912D01*
X4151324Y-3992912D02*
X4151324Y-3821484D01*
X4284658Y-4021484D02*
X4265610Y-4011960D01*
X4265610Y-4011960D02*
X4256086Y-3992912D01*
X4256086Y-3992912D02*
X4256086Y-3821484D01*
X4513229Y-4021484D02*
X4513229Y-3821484D01*
X4513229Y-3821484D02*
X4579896Y-3964341D01*
X4579896Y-3964341D02*
X4646563Y-3821484D01*
X4646563Y-3821484D02*
X4646563Y-4021484D01*
X4827515Y-4021484D02*
X4827515Y-3916722D01*
X4827515Y-3916722D02*
X4817991Y-3897674D01*
X4817991Y-3897674D02*
X4798944Y-3888150D01*
X4798944Y-3888150D02*
X4760848Y-3888150D01*
X4760848Y-3888150D02*
X4741801Y-3897674D01*
X4827515Y-4011960D02*
X4808467Y-4021484D01*
X4808467Y-4021484D02*
X4760848Y-4021484D01*
X4760848Y-4021484D02*
X4741801Y-4011960D01*
X4741801Y-4011960D02*
X4732277Y-3992912D01*
X4732277Y-3992912D02*
X4732277Y-3973865D01*
X4732277Y-3973865D02*
X4741801Y-3954817D01*
X4741801Y-3954817D02*
X4760848Y-3945293D01*
X4760848Y-3945293D02*
X4808467Y-3945293D01*
X4808467Y-3945293D02*
X4827515Y-3935769D01*
X4922753Y-3888150D02*
X4922753Y-4088150D01*
X4922753Y-3897674D02*
X4941801Y-3888150D01*
X4941801Y-3888150D02*
X4979896Y-3888150D01*
X4979896Y-3888150D02*
X4998944Y-3897674D01*
X4998944Y-3897674D02*
X5008467Y-3907198D01*
X5008467Y-3907198D02*
X5017991Y-3926246D01*
X5017991Y-3926246D02*
X5017991Y-3983388D01*
X5017991Y-3983388D02*
X5008467Y-4002436D01*
X5008467Y-4002436D02*
X4998944Y-4011960D01*
X4998944Y-4011960D02*
X4979896Y-4021484D01*
X4979896Y-4021484D02*
X4941801Y-4021484D01*
X4941801Y-4021484D02*
X4922753Y-4011960D01*
X5103705Y-4002436D02*
X5113229Y-4011960D01*
X5113229Y-4011960D02*
X5103705Y-4021484D01*
X5103705Y-4021484D02*
X5094182Y-4011960D01*
X5094182Y-4011960D02*
X5103705Y-4002436D01*
X5103705Y-4002436D02*
X5103705Y-4021484D01*
X5103705Y-3897674D02*
X5113229Y-3907198D01*
X5113229Y-3907198D02*
X5103705Y-3916722D01*
X5103705Y-3916722D02*
X5094182Y-3907198D01*
X5094182Y-3907198D02*
X5103705Y-3897674D01*
X5103705Y-3897674D02*
X5103705Y-3916722D01*
X3271500Y-4250000D02*
X3471500Y-4450000D01*
X3471500Y-4250000D02*
X3271500Y-4450000D01*
X3722753Y-4260531D02*
X3732277Y-4251008D01*
X3732277Y-4251008D02*
X3751324Y-4241484D01*
X3751324Y-4241484D02*
X3798943Y-4241484D01*
X3798943Y-4241484D02*
X3817991Y-4251008D01*
X3817991Y-4251008D02*
X3827515Y-4260531D01*
X3827515Y-4260531D02*
X3837039Y-4279579D01*
X3837039Y-4279579D02*
X3837039Y-4298627D01*
X3837039Y-4298627D02*
X3827515Y-4327198D01*
X3827515Y-4327198D02*
X3713229Y-4441484D01*
X3713229Y-4441484D02*
X3837039Y-4441484D01*
X3922753Y-4422436D02*
X3932277Y-4431960D01*
X3932277Y-4431960D02*
X3922753Y-4441484D01*
X3922753Y-4441484D02*
X3913229Y-4431960D01*
X3913229Y-4431960D02*
X3922753Y-4422436D01*
X3922753Y-4422436D02*
X3922753Y-4441484D01*
X4008467Y-4260531D02*
X4017991Y-4251008D01*
X4017991Y-4251008D02*
X4037039Y-4241484D01*
X4037039Y-4241484D02*
X4084658Y-4241484D01*
X4084658Y-4241484D02*
X4103705Y-4251008D01*
X4103705Y-4251008D02*
X4113229Y-4260531D01*
X4113229Y-4260531D02*
X4122753Y-4279579D01*
X4122753Y-4279579D02*
X4122753Y-4298627D01*
X4122753Y-4298627D02*
X4113229Y-4327198D01*
X4113229Y-4327198D02*
X3998943Y-4441484D01*
X3998943Y-4441484D02*
X4122753Y-4441484D01*
X4246563Y-4241484D02*
X4265610Y-4241484D01*
X4265610Y-4241484D02*
X4284658Y-4251008D01*
X4284658Y-4251008D02*
X4294182Y-4260531D01*
X4294182Y-4260531D02*
X4303705Y-4279579D01*
X4303705Y-4279579D02*
X4313229Y-4317674D01*
X4313229Y-4317674D02*
X4313229Y-4365293D01*
X4313229Y-4365293D02*
X4303705Y-4403389D01*
X4303705Y-4403389D02*
X4294182Y-4422436D01*
X4294182Y-4422436D02*
X4284658Y-4431960D01*
X4284658Y-4431960D02*
X4265610Y-4441484D01*
X4265610Y-4441484D02*
X4246563Y-4441484D01*
X4246563Y-4441484D02*
X4227515Y-4431960D01*
X4227515Y-4431960D02*
X4217991Y-4422436D01*
X4217991Y-4422436D02*
X4208467Y-4403389D01*
X4208467Y-4403389D02*
X4198944Y-4365293D01*
X4198944Y-4365293D02*
X4198944Y-4317674D01*
X4198944Y-4317674D02*
X4208467Y-4279579D01*
X4208467Y-4279579D02*
X4217991Y-4260531D01*
X4217991Y-4260531D02*
X4227515Y-4251008D01*
X4227515Y-4251008D02*
X4246563Y-4241484D01*
X4437039Y-4241484D02*
X4456086Y-4241484D01*
X4456086Y-4241484D02*
X4475134Y-4251008D01*
X4475134Y-4251008D02*
X4484658Y-4260531D01*
X4484658Y-4260531D02*
X4494182Y-4279579D01*
X4494182Y-4279579D02*
X4503705Y-4317674D01*
X4503705Y-4317674D02*
X4503705Y-4365293D01*
X4503705Y-4365293D02*
X4494182Y-4403389D01*
X4494182Y-4403389D02*
X4484658Y-4422436D01*
X4484658Y-4422436D02*
X4475134Y-4431960D01*
X4475134Y-4431960D02*
X4456086Y-4441484D01*
X4456086Y-4441484D02*
X4437039Y-4441484D01*
X4437039Y-4441484D02*
X4417991Y-4431960D01*
X4417991Y-4431960D02*
X4408467Y-4422436D01*
X4408467Y-4422436D02*
X4398944Y-4403389D01*
X4398944Y-4403389D02*
X4389420Y-4365293D01*
X4389420Y-4365293D02*
X4389420Y-4317674D01*
X4389420Y-4317674D02*
X4398944Y-4279579D01*
X4398944Y-4279579D02*
X4408467Y-4260531D01*
X4408467Y-4260531D02*
X4417991Y-4251008D01*
X4417991Y-4251008D02*
X4437039Y-4241484D01*
X4589420Y-4441484D02*
X4589420Y-4308150D01*
X4589420Y-4327198D02*
X4598944Y-4317674D01*
X4598944Y-4317674D02*
X4617991Y-4308150D01*
X4617991Y-4308150D02*
X4646563Y-4308150D01*
X4646563Y-4308150D02*
X4665610Y-4317674D01*
X4665610Y-4317674D02*
X4675134Y-4336722D01*
X4675134Y-4336722D02*
X4675134Y-4441484D01*
X4675134Y-4336722D02*
X4684658Y-4317674D01*
X4684658Y-4317674D02*
X4703705Y-4308150D01*
X4703705Y-4308150D02*
X4732277Y-4308150D01*
X4732277Y-4308150D02*
X4751325Y-4317674D01*
X4751325Y-4317674D02*
X4760848Y-4336722D01*
X4760848Y-4336722D02*
X4760848Y-4441484D01*
X4856086Y-4441484D02*
X4856086Y-4308150D01*
X4856086Y-4327198D02*
X4865610Y-4317674D01*
X4865610Y-4317674D02*
X4884658Y-4308150D01*
X4884658Y-4308150D02*
X4913229Y-4308150D01*
X4913229Y-4308150D02*
X4932277Y-4317674D01*
X4932277Y-4317674D02*
X4941801Y-4336722D01*
X4941801Y-4336722D02*
X4941801Y-4441484D01*
X4941801Y-4336722D02*
X4951325Y-4317674D01*
X4951325Y-4317674D02*
X4970372Y-4308150D01*
X4970372Y-4308150D02*
X4998944Y-4308150D01*
X4998944Y-4308150D02*
X5017991Y-4317674D01*
X5017991Y-4317674D02*
X5027515Y-4336722D01*
X5027515Y-4336722D02*
X5027515Y-4441484D01*
X5417991Y-4231960D02*
X5246563Y-4489103D01*
X5675134Y-4241484D02*
X5694182Y-4241484D01*
X5694182Y-4241484D02*
X5713229Y-4251008D01*
X5713229Y-4251008D02*
X5722753Y-4260531D01*
X5722753Y-4260531D02*
X5732277Y-4279579D01*
X5732277Y-4279579D02*
X5741801Y-4317674D01*
X5741801Y-4317674D02*
X5741801Y-4365293D01*
X5741801Y-4365293D02*
X5732277Y-4403389D01*
X5732277Y-4403389D02*
X5722753Y-4422436D01*
X5722753Y-4422436D02*
X5713229Y-4431960D01*
X5713229Y-4431960D02*
X5694182Y-4441484D01*
X5694182Y-4441484D02*
X5675134Y-4441484D01*
X5675134Y-4441484D02*
X5656086Y-4431960D01*
X5656086Y-4431960D02*
X5646563Y-4422436D01*
X5646563Y-4422436D02*
X5637039Y-4403389D01*
X5637039Y-4403389D02*
X5627515Y-4365293D01*
X5627515Y-4365293D02*
X5627515Y-4317674D01*
X5627515Y-4317674D02*
X5637039Y-4279579D01*
X5637039Y-4279579D02*
X5646563Y-4260531D01*
X5646563Y-4260531D02*
X5656086Y-4251008D01*
X5656086Y-4251008D02*
X5675134Y-4241484D01*
X5827515Y-4422436D02*
X5837039Y-4431960D01*
X5837039Y-4431960D02*
X5827515Y-4441484D01*
X5827515Y-4441484D02*
X5817991Y-4431960D01*
X5817991Y-4431960D02*
X5827515Y-4422436D01*
X5827515Y-4422436D02*
X5827515Y-4441484D01*
X5960848Y-4241484D02*
X5979896Y-4241484D01*
X5979896Y-4241484D02*
X5998944Y-4251008D01*
X5998944Y-4251008D02*
X6008467Y-4260531D01*
X6008467Y-4260531D02*
X6017991Y-4279579D01*
X6017991Y-4279579D02*
X6027515Y-4317674D01*
X6027515Y-4317674D02*
X6027515Y-4365293D01*
X6027515Y-4365293D02*
X6017991Y-4403389D01*
X6017991Y-4403389D02*
X6008467Y-4422436D01*
X6008467Y-4422436D02*
X5998944Y-4431960D01*
X5998944Y-4431960D02*
X5979896Y-4441484D01*
X5979896Y-4441484D02*
X5960848Y-4441484D01*
X5960848Y-4441484D02*
X5941801Y-4431960D01*
X5941801Y-4431960D02*
X5932277Y-4422436D01*
X5932277Y-4422436D02*
X5922753Y-4403389D01*
X5922753Y-4403389D02*
X5913229Y-4365293D01*
X5913229Y-4365293D02*
X5913229Y-4317674D01*
X5913229Y-4317674D02*
X5922753Y-4279579D01*
X5922753Y-4279579D02*
X5932277Y-4260531D01*
X5932277Y-4260531D02*
X5941801Y-4251008D01*
X5941801Y-4251008D02*
X5960848Y-4241484D01*
X6141801Y-4327198D02*
X6122753Y-4317674D01*
X6122753Y-4317674D02*
X6113229Y-4308150D01*
X6113229Y-4308150D02*
X6103706Y-4289103D01*
X6103706Y-4289103D02*
X6103706Y-4279579D01*
X6103706Y-4279579D02*
X6113229Y-4260531D01*
X6113229Y-4260531D02*
X6122753Y-4251008D01*
X6122753Y-4251008D02*
X6141801Y-4241484D01*
X6141801Y-4241484D02*
X6179896Y-4241484D01*
X6179896Y-4241484D02*
X6198944Y-4251008D01*
X6198944Y-4251008D02*
X6208467Y-4260531D01*
X6208467Y-4260531D02*
X6217991Y-4279579D01*
X6217991Y-4279579D02*
X6217991Y-4289103D01*
X6217991Y-4289103D02*
X6208467Y-4308150D01*
X6208467Y-4308150D02*
X6198944Y-4317674D01*
X6198944Y-4317674D02*
X6179896Y-4327198D01*
X6179896Y-4327198D02*
X6141801Y-4327198D01*
X6141801Y-4327198D02*
X6122753Y-4336722D01*
X6122753Y-4336722D02*
X6113229Y-4346246D01*
X6113229Y-4346246D02*
X6103706Y-4365293D01*
X6103706Y-4365293D02*
X6103706Y-4403389D01*
X6103706Y-4403389D02*
X6113229Y-4422436D01*
X6113229Y-4422436D02*
X6122753Y-4431960D01*
X6122753Y-4431960D02*
X6141801Y-4441484D01*
X6141801Y-4441484D02*
X6179896Y-4441484D01*
X6179896Y-4441484D02*
X6198944Y-4431960D01*
X6198944Y-4431960D02*
X6208467Y-4422436D01*
X6208467Y-4422436D02*
X6217991Y-4403389D01*
X6217991Y-4403389D02*
X6217991Y-4365293D01*
X6217991Y-4365293D02*
X6208467Y-4346246D01*
X6208467Y-4346246D02*
X6198944Y-4336722D01*
X6198944Y-4336722D02*
X6179896Y-4327198D01*
X6389420Y-4241484D02*
X6351325Y-4241484D01*
X6351325Y-4241484D02*
X6332277Y-4251008D01*
X6332277Y-4251008D02*
X6322753Y-4260531D01*
X6322753Y-4260531D02*
X6303706Y-4289103D01*
X6303706Y-4289103D02*
X6294182Y-4327198D01*
X6294182Y-4327198D02*
X6294182Y-4403389D01*
X6294182Y-4403389D02*
X6303706Y-4422436D01*
X6303706Y-4422436D02*
X6313229Y-4431960D01*
X6313229Y-4431960D02*
X6332277Y-4441484D01*
X6332277Y-4441484D02*
X6370372Y-4441484D01*
X6370372Y-4441484D02*
X6389420Y-4431960D01*
X6389420Y-4431960D02*
X6398944Y-4422436D01*
X6398944Y-4422436D02*
X6408467Y-4403389D01*
X6408467Y-4403389D02*
X6408467Y-4355770D01*
X6408467Y-4355770D02*
X6398944Y-4336722D01*
X6398944Y-4336722D02*
X6389420Y-4327198D01*
X6389420Y-4327198D02*
X6370372Y-4317674D01*
X6370372Y-4317674D02*
X6332277Y-4317674D01*
X6332277Y-4317674D02*
X6313229Y-4327198D01*
X6313229Y-4327198D02*
X6303706Y-4336722D01*
X6303706Y-4336722D02*
X6294182Y-4355770D01*
X6579896Y-4241484D02*
X6541801Y-4241484D01*
X6541801Y-4241484D02*
X6522753Y-4251008D01*
X6522753Y-4251008D02*
X6513229Y-4260531D01*
X6513229Y-4260531D02*
X6494182Y-4289103D01*
X6494182Y-4289103D02*
X6484658Y-4327198D01*
X6484658Y-4327198D02*
X6484658Y-4403389D01*
X6484658Y-4403389D02*
X6494182Y-4422436D01*
X6494182Y-4422436D02*
X6503706Y-4431960D01*
X6503706Y-4431960D02*
X6522753Y-4441484D01*
X6522753Y-4441484D02*
X6560848Y-4441484D01*
X6560848Y-4441484D02*
X6579896Y-4431960D01*
X6579896Y-4431960D02*
X6589420Y-4422436D01*
X6589420Y-4422436D02*
X6598944Y-4403389D01*
X6598944Y-4403389D02*
X6598944Y-4355770D01*
X6598944Y-4355770D02*
X6589420Y-4336722D01*
X6589420Y-4336722D02*
X6579896Y-4327198D01*
X6579896Y-4327198D02*
X6560848Y-4317674D01*
X6560848Y-4317674D02*
X6522753Y-4317674D01*
X6522753Y-4317674D02*
X6503706Y-4327198D01*
X6503706Y-4327198D02*
X6494182Y-4336722D01*
X6494182Y-4336722D02*
X6484658Y-4355770D01*
X6675134Y-4241484D02*
X6675134Y-4279579D01*
X6751325Y-4241484D02*
X6751325Y-4279579D01*
X7046563Y-4517674D02*
X7037039Y-4508150D01*
X7037039Y-4508150D02*
X7017991Y-4479579D01*
X7017991Y-4479579D02*
X7008468Y-4460531D01*
X7008468Y-4460531D02*
X6998944Y-4431960D01*
X6998944Y-4431960D02*
X6989420Y-4384341D01*
X6989420Y-4384341D02*
X6989420Y-4346246D01*
X6989420Y-4346246D02*
X6998944Y-4298627D01*
X6998944Y-4298627D02*
X7008468Y-4270055D01*
X7008468Y-4270055D02*
X7017991Y-4251008D01*
X7017991Y-4251008D02*
X7037039Y-4222436D01*
X7037039Y-4222436D02*
X7046563Y-4212912D01*
X7113229Y-4260531D02*
X7122753Y-4251008D01*
X7122753Y-4251008D02*
X7141801Y-4241484D01*
X7141801Y-4241484D02*
X7189420Y-4241484D01*
X7189420Y-4241484D02*
X7208468Y-4251008D01*
X7208468Y-4251008D02*
X7217991Y-4260531D01*
X7217991Y-4260531D02*
X7227515Y-4279579D01*
X7227515Y-4279579D02*
X7227515Y-4298627D01*
X7227515Y-4298627D02*
X7217991Y-4327198D01*
X7217991Y-4327198D02*
X7103706Y-4441484D01*
X7103706Y-4441484D02*
X7227515Y-4441484D01*
X7465610Y-4441484D02*
X7465610Y-4241484D01*
X7551325Y-4441484D02*
X7551325Y-4336722D01*
X7551325Y-4336722D02*
X7541801Y-4317674D01*
X7541801Y-4317674D02*
X7522753Y-4308150D01*
X7522753Y-4308150D02*
X7494182Y-4308150D01*
X7494182Y-4308150D02*
X7475134Y-4317674D01*
X7475134Y-4317674D02*
X7465610Y-4327198D01*
X7675134Y-4441484D02*
X7656087Y-4431960D01*
X7656087Y-4431960D02*
X7646563Y-4422436D01*
X7646563Y-4422436D02*
X7637039Y-4403389D01*
X7637039Y-4403389D02*
X7637039Y-4346246D01*
X7637039Y-4346246D02*
X7646563Y-4327198D01*
X7646563Y-4327198D02*
X7656087Y-4317674D01*
X7656087Y-4317674D02*
X7675134Y-4308150D01*
X7675134Y-4308150D02*
X7703706Y-4308150D01*
X7703706Y-4308150D02*
X7722753Y-4317674D01*
X7722753Y-4317674D02*
X7732277Y-4327198D01*
X7732277Y-4327198D02*
X7741801Y-4346246D01*
X7741801Y-4346246D02*
X7741801Y-4403389D01*
X7741801Y-4403389D02*
X7732277Y-4422436D01*
X7732277Y-4422436D02*
X7722753Y-4431960D01*
X7722753Y-4431960D02*
X7703706Y-4441484D01*
X7703706Y-4441484D02*
X7675134Y-4441484D01*
X7856087Y-4441484D02*
X7837039Y-4431960D01*
X7837039Y-4431960D02*
X7827515Y-4412912D01*
X7827515Y-4412912D02*
X7827515Y-4241484D01*
X8008468Y-4431960D02*
X7989420Y-4441484D01*
X7989420Y-4441484D02*
X7951325Y-4441484D01*
X7951325Y-4441484D02*
X7932277Y-4431960D01*
X7932277Y-4431960D02*
X7922753Y-4412912D01*
X7922753Y-4412912D02*
X7922753Y-4336722D01*
X7922753Y-4336722D02*
X7932277Y-4317674D01*
X7932277Y-4317674D02*
X7951325Y-4308150D01*
X7951325Y-4308150D02*
X7989420Y-4308150D01*
X7989420Y-4308150D02*
X8008468Y-4317674D01*
X8008468Y-4317674D02*
X8017991Y-4336722D01*
X8017991Y-4336722D02*
X8017991Y-4355770D01*
X8017991Y-4355770D02*
X7922753Y-4374817D01*
X8094182Y-4431960D02*
X8113230Y-4441484D01*
X8113230Y-4441484D02*
X8151325Y-4441484D01*
X8151325Y-4441484D02*
X8170372Y-4431960D01*
X8170372Y-4431960D02*
X8179896Y-4412912D01*
X8179896Y-4412912D02*
X8179896Y-4403389D01*
X8179896Y-4403389D02*
X8170372Y-4384341D01*
X8170372Y-4384341D02*
X8151325Y-4374817D01*
X8151325Y-4374817D02*
X8122753Y-4374817D01*
X8122753Y-4374817D02*
X8103706Y-4365293D01*
X8103706Y-4365293D02*
X8094182Y-4346246D01*
X8094182Y-4346246D02*
X8094182Y-4336722D01*
X8094182Y-4336722D02*
X8103706Y-4317674D01*
X8103706Y-4317674D02*
X8122753Y-4308150D01*
X8122753Y-4308150D02*
X8151325Y-4308150D01*
X8151325Y-4308150D02*
X8170372Y-4317674D01*
X8246563Y-4517674D02*
X8256087Y-4508150D01*
X8256087Y-4508150D02*
X8275134Y-4479579D01*
X8275134Y-4479579D02*
X8284658Y-4460531D01*
X8284658Y-4460531D02*
X8294182Y-4431960D01*
X8294182Y-4431960D02*
X8303706Y-4384341D01*
X8303706Y-4384341D02*
X8303706Y-4346246D01*
X8303706Y-4346246D02*
X8294182Y-4298627D01*
X8294182Y-4298627D02*
X8284658Y-4270055D01*
X8284658Y-4270055D02*
X8275134Y-4251008D01*
X8275134Y-4251008D02*
X8256087Y-4222436D01*
X8256087Y-4222436D02*
X8246563Y-4212912D01*
X8608468Y-4517674D02*
X8598944Y-4508150D01*
X8598944Y-4508150D02*
X8579896Y-4479579D01*
X8579896Y-4479579D02*
X8570373Y-4460531D01*
X8570373Y-4460531D02*
X8560849Y-4431960D01*
X8560849Y-4431960D02*
X8551325Y-4384341D01*
X8551325Y-4384341D02*
X8551325Y-4346246D01*
X8551325Y-4346246D02*
X8560849Y-4298627D01*
X8560849Y-4298627D02*
X8570373Y-4270055D01*
X8570373Y-4270055D02*
X8579896Y-4251008D01*
X8579896Y-4251008D02*
X8598944Y-4222436D01*
X8598944Y-4222436D02*
X8608468Y-4212912D01*
X8684658Y-4308150D02*
X8684658Y-4441484D01*
X8684658Y-4327198D02*
X8694182Y-4317674D01*
X8694182Y-4317674D02*
X8713230Y-4308150D01*
X8713230Y-4308150D02*
X8741801Y-4308150D01*
X8741801Y-4308150D02*
X8760849Y-4317674D01*
X8760849Y-4317674D02*
X8770373Y-4336722D01*
X8770373Y-4336722D02*
X8770373Y-4441484D01*
X8894182Y-4441484D02*
X8875134Y-4431960D01*
X8875134Y-4431960D02*
X8865611Y-4422436D01*
X8865611Y-4422436D02*
X8856087Y-4403389D01*
X8856087Y-4403389D02*
X8856087Y-4346246D01*
X8856087Y-4346246D02*
X8865611Y-4327198D01*
X8865611Y-4327198D02*
X8875134Y-4317674D01*
X8875134Y-4317674D02*
X8894182Y-4308150D01*
X8894182Y-4308150D02*
X8922754Y-4308150D01*
X8922754Y-4308150D02*
X8941801Y-4317674D01*
X8941801Y-4317674D02*
X8951325Y-4327198D01*
X8951325Y-4327198D02*
X8960849Y-4346246D01*
X8960849Y-4346246D02*
X8960849Y-4403389D01*
X8960849Y-4403389D02*
X8951325Y-4422436D01*
X8951325Y-4422436D02*
X8941801Y-4431960D01*
X8941801Y-4431960D02*
X8922754Y-4441484D01*
X8922754Y-4441484D02*
X8894182Y-4441484D01*
X9017992Y-4308150D02*
X9094182Y-4308150D01*
X9046563Y-4241484D02*
X9046563Y-4412912D01*
X9046563Y-4412912D02*
X9056087Y-4431960D01*
X9056087Y-4431960D02*
X9075134Y-4441484D01*
X9075134Y-4441484D02*
X9094182Y-4441484D01*
X9313230Y-4308150D02*
X9313230Y-4508150D01*
X9313230Y-4317674D02*
X9332277Y-4308150D01*
X9332277Y-4308150D02*
X9370373Y-4308150D01*
X9370373Y-4308150D02*
X9389420Y-4317674D01*
X9389420Y-4317674D02*
X9398944Y-4327198D01*
X9398944Y-4327198D02*
X9408468Y-4346246D01*
X9408468Y-4346246D02*
X9408468Y-4403389D01*
X9408468Y-4403389D02*
X9398944Y-4422436D01*
X9398944Y-4422436D02*
X9389420Y-4431960D01*
X9389420Y-4431960D02*
X9370373Y-4441484D01*
X9370373Y-4441484D02*
X9332277Y-4441484D01*
X9332277Y-4441484D02*
X9313230Y-4431960D01*
X9522754Y-4441484D02*
X9503706Y-4431960D01*
X9503706Y-4431960D02*
X9494182Y-4412912D01*
X9494182Y-4412912D02*
X9494182Y-4241484D01*
X9684658Y-4441484D02*
X9684658Y-4336722D01*
X9684658Y-4336722D02*
X9675135Y-4317674D01*
X9675135Y-4317674D02*
X9656087Y-4308150D01*
X9656087Y-4308150D02*
X9617992Y-4308150D01*
X9617992Y-4308150D02*
X9598944Y-4317674D01*
X9684658Y-4431960D02*
X9665611Y-4441484D01*
X9665611Y-4441484D02*
X9617992Y-4441484D01*
X9617992Y-4441484D02*
X9598944Y-4431960D01*
X9598944Y-4431960D02*
X9589420Y-4412912D01*
X9589420Y-4412912D02*
X9589420Y-4393865D01*
X9589420Y-4393865D02*
X9598944Y-4374817D01*
X9598944Y-4374817D02*
X9617992Y-4365293D01*
X9617992Y-4365293D02*
X9665611Y-4365293D01*
X9665611Y-4365293D02*
X9684658Y-4355770D01*
X9751325Y-4308150D02*
X9827515Y-4308150D01*
X9779896Y-4241484D02*
X9779896Y-4412912D01*
X9779896Y-4412912D02*
X9789420Y-4431960D01*
X9789420Y-4431960D02*
X9808468Y-4441484D01*
X9808468Y-4441484D02*
X9827515Y-4441484D01*
X9970373Y-4431960D02*
X9951325Y-4441484D01*
X9951325Y-4441484D02*
X9913230Y-4441484D01*
X9913230Y-4441484D02*
X9894182Y-4431960D01*
X9894182Y-4431960D02*
X9884658Y-4412912D01*
X9884658Y-4412912D02*
X9884658Y-4336722D01*
X9884658Y-4336722D02*
X9894182Y-4317674D01*
X9894182Y-4317674D02*
X9913230Y-4308150D01*
X9913230Y-4308150D02*
X9951325Y-4308150D01*
X9951325Y-4308150D02*
X9970373Y-4317674D01*
X9970373Y-4317674D02*
X9979896Y-4336722D01*
X9979896Y-4336722D02*
X9979896Y-4355770D01*
X9979896Y-4355770D02*
X9884658Y-4374817D01*
X10151325Y-4441484D02*
X10151325Y-4241484D01*
X10151325Y-4431960D02*
X10132277Y-4441484D01*
X10132277Y-4441484D02*
X10094182Y-4441484D01*
X10094182Y-4441484D02*
X10075135Y-4431960D01*
X10075135Y-4431960D02*
X10065611Y-4422436D01*
X10065611Y-4422436D02*
X10056087Y-4403389D01*
X10056087Y-4403389D02*
X10056087Y-4346246D01*
X10056087Y-4346246D02*
X10065611Y-4327198D01*
X10065611Y-4327198D02*
X10075135Y-4317674D01*
X10075135Y-4317674D02*
X10094182Y-4308150D01*
X10094182Y-4308150D02*
X10132277Y-4308150D01*
X10132277Y-4308150D02*
X10151325Y-4317674D01*
X10227516Y-4517674D02*
X10237039Y-4508150D01*
X10237039Y-4508150D02*
X10256087Y-4479579D01*
X10256087Y-4479579D02*
X10265611Y-4460531D01*
X10265611Y-4460531D02*
X10275135Y-4431960D01*
X10275135Y-4431960D02*
X10284658Y-4384341D01*
X10284658Y-4384341D02*
X10284658Y-4346246D01*
X10284658Y-4346246D02*
X10275135Y-4298627D01*
X10275135Y-4298627D02*
X10265611Y-4270055D01*
X10265611Y-4270055D02*
X10256087Y-4251008D01*
X10256087Y-4251008D02*
X10237039Y-4222436D01*
X10237039Y-4222436D02*
X10227516Y-4212912D01*
M02*
