%TF.GenerationSoftware,KiCad,Pcbnew,7.0.6*%
%TF.CreationDate,2023-08-28T10:43:41+02:00*%
%TF.ProjectId,RH_BreakLever_FreeJoy,52485f42-7265-4616-9b4c-657665725f46,rev?*%
%TF.SameCoordinates,Original*%
%TF.FileFunction,Drillmap*%
%TF.FilePolarity,Positive*%
%FSLAX45Y45*%
G04 Gerber Fmt 4.5, Leading zero omitted, Abs format (unit mm)*
G04 Created by KiCad (PCBNEW 7.0.6) date 2023-08-28 10:43:41*
%MOMM*%
%LPD*%
G01*
G04 APERTURE LIST*
%ADD10C,0.100000*%
%ADD11C,0.200000*%
%ADD12C,0.068000*%
%ADD13C,0.095000*%
G04 APERTURE END LIST*
D10*
X7017000Y-3705000D02*
X3576500Y-3705000D01*
X7117000Y-2170000D02*
G75*
G03*
X7017000Y-2070000I-100000J0D01*
G01*
X3576500Y-2070000D02*
X7017000Y-2070000D01*
X3576500Y-2070000D02*
G75*
G03*
X3476500Y-2170000I0J-100000D01*
G01*
X3476500Y-3605000D02*
G75*
G03*
X3576500Y-3705000I100000J0D01*
G01*
X7117000Y-2170000D02*
X7117000Y-3605000D01*
X7017000Y-3705000D02*
G75*
G03*
X7117000Y-3605000I0J100000D01*
G01*
X3476500Y-2170000D02*
X3476500Y-3605000D01*
D11*
D12*
X6323000Y-2469000D02*
X6391000Y-2537000D01*
X6391000Y-2469000D02*
X6323000Y-2537000D01*
X6573000Y-2469000D02*
X6641000Y-2537000D01*
X6641000Y-2469000D02*
X6573000Y-2537000D01*
X6823000Y-2469000D02*
X6891000Y-2537000D01*
X6891000Y-2469000D02*
X6823000Y-2537000D01*
D13*
X3911500Y-2380000D02*
G75*
G03*
X3911500Y-2380000I-47500J0D01*
G01*
X3911500Y-2630000D02*
G75*
G03*
X3911500Y-2630000I-47500J0D01*
G01*
X3911500Y-2880000D02*
G75*
G03*
X3911500Y-2880000I-47500J0D01*
G01*
X3911500Y-3130000D02*
G75*
G03*
X3911500Y-3130000I-47500J0D01*
G01*
X3911500Y-3380000D02*
G75*
G03*
X3911500Y-3380000I-47500J0D01*
G01*
D11*
X3732277Y-4021484D02*
X3732277Y-3821484D01*
X3732277Y-3821484D02*
X3779896Y-3821484D01*
X3779896Y-3821484D02*
X3808467Y-3831008D01*
X3808467Y-3831008D02*
X3827515Y-3850055D01*
X3827515Y-3850055D02*
X3837039Y-3869103D01*
X3837039Y-3869103D02*
X3846562Y-3907198D01*
X3846562Y-3907198D02*
X3846562Y-3935769D01*
X3846562Y-3935769D02*
X3837039Y-3973865D01*
X3837039Y-3973865D02*
X3827515Y-3992912D01*
X3827515Y-3992912D02*
X3808467Y-4011960D01*
X3808467Y-4011960D02*
X3779896Y-4021484D01*
X3779896Y-4021484D02*
X3732277Y-4021484D01*
X3932277Y-4021484D02*
X3932277Y-3888150D01*
X3932277Y-3926246D02*
X3941801Y-3907198D01*
X3941801Y-3907198D02*
X3951324Y-3897674D01*
X3951324Y-3897674D02*
X3970372Y-3888150D01*
X3970372Y-3888150D02*
X3989420Y-3888150D01*
X4056086Y-4021484D02*
X4056086Y-3888150D01*
X4056086Y-3821484D02*
X4046562Y-3831008D01*
X4046562Y-3831008D02*
X4056086Y-3840531D01*
X4056086Y-3840531D02*
X4065610Y-3831008D01*
X4065610Y-3831008D02*
X4056086Y-3821484D01*
X4056086Y-3821484D02*
X4056086Y-3840531D01*
X4179896Y-4021484D02*
X4160848Y-4011960D01*
X4160848Y-4011960D02*
X4151324Y-3992912D01*
X4151324Y-3992912D02*
X4151324Y-3821484D01*
X4284658Y-4021484D02*
X4265610Y-4011960D01*
X4265610Y-4011960D02*
X4256086Y-3992912D01*
X4256086Y-3992912D02*
X4256086Y-3821484D01*
X4513229Y-4021484D02*
X4513229Y-3821484D01*
X4513229Y-3821484D02*
X4579896Y-3964341D01*
X4579896Y-3964341D02*
X4646563Y-3821484D01*
X4646563Y-3821484D02*
X4646563Y-4021484D01*
X4827515Y-4021484D02*
X4827515Y-3916722D01*
X4827515Y-3916722D02*
X4817991Y-3897674D01*
X4817991Y-3897674D02*
X4798944Y-3888150D01*
X4798944Y-3888150D02*
X4760848Y-3888150D01*
X4760848Y-3888150D02*
X4741801Y-3897674D01*
X4827515Y-4011960D02*
X4808467Y-4021484D01*
X4808467Y-4021484D02*
X4760848Y-4021484D01*
X4760848Y-4021484D02*
X4741801Y-4011960D01*
X4741801Y-4011960D02*
X4732277Y-3992912D01*
X4732277Y-3992912D02*
X4732277Y-3973865D01*
X4732277Y-3973865D02*
X4741801Y-3954817D01*
X4741801Y-3954817D02*
X4760848Y-3945293D01*
X4760848Y-3945293D02*
X4808467Y-3945293D01*
X4808467Y-3945293D02*
X4827515Y-3935769D01*
X4922753Y-3888150D02*
X4922753Y-4088150D01*
X4922753Y-3897674D02*
X4941801Y-3888150D01*
X4941801Y-3888150D02*
X4979896Y-3888150D01*
X4979896Y-3888150D02*
X4998944Y-3897674D01*
X4998944Y-3897674D02*
X5008467Y-3907198D01*
X5008467Y-3907198D02*
X5017991Y-3926246D01*
X5017991Y-3926246D02*
X5017991Y-3983388D01*
X5017991Y-3983388D02*
X5008467Y-4002436D01*
X5008467Y-4002436D02*
X4998944Y-4011960D01*
X4998944Y-4011960D02*
X4979896Y-4021484D01*
X4979896Y-4021484D02*
X4941801Y-4021484D01*
X4941801Y-4021484D02*
X4922753Y-4011960D01*
X5103705Y-4002436D02*
X5113229Y-4011960D01*
X5113229Y-4011960D02*
X5103705Y-4021484D01*
X5103705Y-4021484D02*
X5094182Y-4011960D01*
X5094182Y-4011960D02*
X5103705Y-4002436D01*
X5103705Y-4002436D02*
X5103705Y-4021484D01*
X5103705Y-3897674D02*
X5113229Y-3907198D01*
X5113229Y-3907198D02*
X5103705Y-3916722D01*
X5103705Y-3916722D02*
X5094182Y-3907198D01*
X5094182Y-3907198D02*
X5103705Y-3897674D01*
X5103705Y-3897674D02*
X5103705Y-3916722D01*
D12*
X3403500Y-4316000D02*
X3471500Y-4384000D01*
X3471500Y-4316000D02*
X3403500Y-4384000D01*
D11*
X3770372Y-4241484D02*
X3789420Y-4241484D01*
X3789420Y-4241484D02*
X3808467Y-4251008D01*
X3808467Y-4251008D02*
X3817991Y-4260531D01*
X3817991Y-4260531D02*
X3827515Y-4279579D01*
X3827515Y-4279579D02*
X3837039Y-4317674D01*
X3837039Y-4317674D02*
X3837039Y-4365293D01*
X3837039Y-4365293D02*
X3827515Y-4403389D01*
X3827515Y-4403389D02*
X3817991Y-4422436D01*
X3817991Y-4422436D02*
X3808467Y-4431960D01*
X3808467Y-4431960D02*
X3789420Y-4441484D01*
X3789420Y-4441484D02*
X3770372Y-4441484D01*
X3770372Y-4441484D02*
X3751324Y-4431960D01*
X3751324Y-4431960D02*
X3741801Y-4422436D01*
X3741801Y-4422436D02*
X3732277Y-4403389D01*
X3732277Y-4403389D02*
X3722753Y-4365293D01*
X3722753Y-4365293D02*
X3722753Y-4317674D01*
X3722753Y-4317674D02*
X3732277Y-4279579D01*
X3732277Y-4279579D02*
X3741801Y-4260531D01*
X3741801Y-4260531D02*
X3751324Y-4251008D01*
X3751324Y-4251008D02*
X3770372Y-4241484D01*
X3922753Y-4422436D02*
X3932277Y-4431960D01*
X3932277Y-4431960D02*
X3922753Y-4441484D01*
X3922753Y-4441484D02*
X3913229Y-4431960D01*
X3913229Y-4431960D02*
X3922753Y-4422436D01*
X3922753Y-4422436D02*
X3922753Y-4441484D01*
X4103705Y-4241484D02*
X4065610Y-4241484D01*
X4065610Y-4241484D02*
X4046562Y-4251008D01*
X4046562Y-4251008D02*
X4037039Y-4260531D01*
X4037039Y-4260531D02*
X4017991Y-4289103D01*
X4017991Y-4289103D02*
X4008467Y-4327198D01*
X4008467Y-4327198D02*
X4008467Y-4403389D01*
X4008467Y-4403389D02*
X4017991Y-4422436D01*
X4017991Y-4422436D02*
X4027515Y-4431960D01*
X4027515Y-4431960D02*
X4046562Y-4441484D01*
X4046562Y-4441484D02*
X4084658Y-4441484D01*
X4084658Y-4441484D02*
X4103705Y-4431960D01*
X4103705Y-4431960D02*
X4113229Y-4422436D01*
X4113229Y-4422436D02*
X4122753Y-4403389D01*
X4122753Y-4403389D02*
X4122753Y-4355770D01*
X4122753Y-4355770D02*
X4113229Y-4336722D01*
X4113229Y-4336722D02*
X4103705Y-4327198D01*
X4103705Y-4327198D02*
X4084658Y-4317674D01*
X4084658Y-4317674D02*
X4046562Y-4317674D01*
X4046562Y-4317674D02*
X4027515Y-4327198D01*
X4027515Y-4327198D02*
X4017991Y-4336722D01*
X4017991Y-4336722D02*
X4008467Y-4355770D01*
X4237039Y-4327198D02*
X4217991Y-4317674D01*
X4217991Y-4317674D02*
X4208467Y-4308150D01*
X4208467Y-4308150D02*
X4198944Y-4289103D01*
X4198944Y-4289103D02*
X4198944Y-4279579D01*
X4198944Y-4279579D02*
X4208467Y-4260531D01*
X4208467Y-4260531D02*
X4217991Y-4251008D01*
X4217991Y-4251008D02*
X4237039Y-4241484D01*
X4237039Y-4241484D02*
X4275134Y-4241484D01*
X4275134Y-4241484D02*
X4294182Y-4251008D01*
X4294182Y-4251008D02*
X4303705Y-4260531D01*
X4303705Y-4260531D02*
X4313229Y-4279579D01*
X4313229Y-4279579D02*
X4313229Y-4289103D01*
X4313229Y-4289103D02*
X4303705Y-4308150D01*
X4303705Y-4308150D02*
X4294182Y-4317674D01*
X4294182Y-4317674D02*
X4275134Y-4327198D01*
X4275134Y-4327198D02*
X4237039Y-4327198D01*
X4237039Y-4327198D02*
X4217991Y-4336722D01*
X4217991Y-4336722D02*
X4208467Y-4346246D01*
X4208467Y-4346246D02*
X4198944Y-4365293D01*
X4198944Y-4365293D02*
X4198944Y-4403389D01*
X4198944Y-4403389D02*
X4208467Y-4422436D01*
X4208467Y-4422436D02*
X4217991Y-4431960D01*
X4217991Y-4431960D02*
X4237039Y-4441484D01*
X4237039Y-4441484D02*
X4275134Y-4441484D01*
X4275134Y-4441484D02*
X4294182Y-4431960D01*
X4294182Y-4431960D02*
X4303705Y-4422436D01*
X4303705Y-4422436D02*
X4313229Y-4403389D01*
X4313229Y-4403389D02*
X4313229Y-4365293D01*
X4313229Y-4365293D02*
X4303705Y-4346246D01*
X4303705Y-4346246D02*
X4294182Y-4336722D01*
X4294182Y-4336722D02*
X4275134Y-4327198D01*
X4437039Y-4241484D02*
X4456086Y-4241484D01*
X4456086Y-4241484D02*
X4475134Y-4251008D01*
X4475134Y-4251008D02*
X4484658Y-4260531D01*
X4484658Y-4260531D02*
X4494182Y-4279579D01*
X4494182Y-4279579D02*
X4503705Y-4317674D01*
X4503705Y-4317674D02*
X4503705Y-4365293D01*
X4503705Y-4365293D02*
X4494182Y-4403389D01*
X4494182Y-4403389D02*
X4484658Y-4422436D01*
X4484658Y-4422436D02*
X4475134Y-4431960D01*
X4475134Y-4431960D02*
X4456086Y-4441484D01*
X4456086Y-4441484D02*
X4437039Y-4441484D01*
X4437039Y-4441484D02*
X4417991Y-4431960D01*
X4417991Y-4431960D02*
X4408467Y-4422436D01*
X4408467Y-4422436D02*
X4398944Y-4403389D01*
X4398944Y-4403389D02*
X4389420Y-4365293D01*
X4389420Y-4365293D02*
X4389420Y-4317674D01*
X4389420Y-4317674D02*
X4398944Y-4279579D01*
X4398944Y-4279579D02*
X4408467Y-4260531D01*
X4408467Y-4260531D02*
X4417991Y-4251008D01*
X4417991Y-4251008D02*
X4437039Y-4241484D01*
X4589420Y-4441484D02*
X4589420Y-4308150D01*
X4589420Y-4327198D02*
X4598944Y-4317674D01*
X4598944Y-4317674D02*
X4617991Y-4308150D01*
X4617991Y-4308150D02*
X4646563Y-4308150D01*
X4646563Y-4308150D02*
X4665610Y-4317674D01*
X4665610Y-4317674D02*
X4675134Y-4336722D01*
X4675134Y-4336722D02*
X4675134Y-4441484D01*
X4675134Y-4336722D02*
X4684658Y-4317674D01*
X4684658Y-4317674D02*
X4703705Y-4308150D01*
X4703705Y-4308150D02*
X4732277Y-4308150D01*
X4732277Y-4308150D02*
X4751325Y-4317674D01*
X4751325Y-4317674D02*
X4760848Y-4336722D01*
X4760848Y-4336722D02*
X4760848Y-4441484D01*
X4856086Y-4441484D02*
X4856086Y-4308150D01*
X4856086Y-4327198D02*
X4865610Y-4317674D01*
X4865610Y-4317674D02*
X4884658Y-4308150D01*
X4884658Y-4308150D02*
X4913229Y-4308150D01*
X4913229Y-4308150D02*
X4932277Y-4317674D01*
X4932277Y-4317674D02*
X4941801Y-4336722D01*
X4941801Y-4336722D02*
X4941801Y-4441484D01*
X4941801Y-4336722D02*
X4951325Y-4317674D01*
X4951325Y-4317674D02*
X4970372Y-4308150D01*
X4970372Y-4308150D02*
X4998944Y-4308150D01*
X4998944Y-4308150D02*
X5017991Y-4317674D01*
X5017991Y-4317674D02*
X5027515Y-4336722D01*
X5027515Y-4336722D02*
X5027515Y-4441484D01*
X5417991Y-4231960D02*
X5246563Y-4489103D01*
X5675134Y-4241484D02*
X5694182Y-4241484D01*
X5694182Y-4241484D02*
X5713229Y-4251008D01*
X5713229Y-4251008D02*
X5722753Y-4260531D01*
X5722753Y-4260531D02*
X5732277Y-4279579D01*
X5732277Y-4279579D02*
X5741801Y-4317674D01*
X5741801Y-4317674D02*
X5741801Y-4365293D01*
X5741801Y-4365293D02*
X5732277Y-4403389D01*
X5732277Y-4403389D02*
X5722753Y-4422436D01*
X5722753Y-4422436D02*
X5713229Y-4431960D01*
X5713229Y-4431960D02*
X5694182Y-4441484D01*
X5694182Y-4441484D02*
X5675134Y-4441484D01*
X5675134Y-4441484D02*
X5656086Y-4431960D01*
X5656086Y-4431960D02*
X5646563Y-4422436D01*
X5646563Y-4422436D02*
X5637039Y-4403389D01*
X5637039Y-4403389D02*
X5627515Y-4365293D01*
X5627515Y-4365293D02*
X5627515Y-4317674D01*
X5627515Y-4317674D02*
X5637039Y-4279579D01*
X5637039Y-4279579D02*
X5646563Y-4260531D01*
X5646563Y-4260531D02*
X5656086Y-4251008D01*
X5656086Y-4251008D02*
X5675134Y-4241484D01*
X5827515Y-4422436D02*
X5837039Y-4431960D01*
X5837039Y-4431960D02*
X5827515Y-4441484D01*
X5827515Y-4441484D02*
X5817991Y-4431960D01*
X5817991Y-4431960D02*
X5827515Y-4422436D01*
X5827515Y-4422436D02*
X5827515Y-4441484D01*
X5960848Y-4241484D02*
X5979896Y-4241484D01*
X5979896Y-4241484D02*
X5998944Y-4251008D01*
X5998944Y-4251008D02*
X6008467Y-4260531D01*
X6008467Y-4260531D02*
X6017991Y-4279579D01*
X6017991Y-4279579D02*
X6027515Y-4317674D01*
X6027515Y-4317674D02*
X6027515Y-4365293D01*
X6027515Y-4365293D02*
X6017991Y-4403389D01*
X6017991Y-4403389D02*
X6008467Y-4422436D01*
X6008467Y-4422436D02*
X5998944Y-4431960D01*
X5998944Y-4431960D02*
X5979896Y-4441484D01*
X5979896Y-4441484D02*
X5960848Y-4441484D01*
X5960848Y-4441484D02*
X5941801Y-4431960D01*
X5941801Y-4431960D02*
X5932277Y-4422436D01*
X5932277Y-4422436D02*
X5922753Y-4403389D01*
X5922753Y-4403389D02*
X5913229Y-4365293D01*
X5913229Y-4365293D02*
X5913229Y-4317674D01*
X5913229Y-4317674D02*
X5922753Y-4279579D01*
X5922753Y-4279579D02*
X5932277Y-4260531D01*
X5932277Y-4260531D02*
X5941801Y-4251008D01*
X5941801Y-4251008D02*
X5960848Y-4241484D01*
X6103706Y-4260531D02*
X6113229Y-4251008D01*
X6113229Y-4251008D02*
X6132277Y-4241484D01*
X6132277Y-4241484D02*
X6179896Y-4241484D01*
X6179896Y-4241484D02*
X6198944Y-4251008D01*
X6198944Y-4251008D02*
X6208467Y-4260531D01*
X6208467Y-4260531D02*
X6217991Y-4279579D01*
X6217991Y-4279579D02*
X6217991Y-4298627D01*
X6217991Y-4298627D02*
X6208467Y-4327198D01*
X6208467Y-4327198D02*
X6094182Y-4441484D01*
X6094182Y-4441484D02*
X6217991Y-4441484D01*
X6389420Y-4241484D02*
X6351325Y-4241484D01*
X6351325Y-4241484D02*
X6332277Y-4251008D01*
X6332277Y-4251008D02*
X6322753Y-4260531D01*
X6322753Y-4260531D02*
X6303706Y-4289103D01*
X6303706Y-4289103D02*
X6294182Y-4327198D01*
X6294182Y-4327198D02*
X6294182Y-4403389D01*
X6294182Y-4403389D02*
X6303706Y-4422436D01*
X6303706Y-4422436D02*
X6313229Y-4431960D01*
X6313229Y-4431960D02*
X6332277Y-4441484D01*
X6332277Y-4441484D02*
X6370372Y-4441484D01*
X6370372Y-4441484D02*
X6389420Y-4431960D01*
X6389420Y-4431960D02*
X6398944Y-4422436D01*
X6398944Y-4422436D02*
X6408467Y-4403389D01*
X6408467Y-4403389D02*
X6408467Y-4355770D01*
X6408467Y-4355770D02*
X6398944Y-4336722D01*
X6398944Y-4336722D02*
X6389420Y-4327198D01*
X6389420Y-4327198D02*
X6370372Y-4317674D01*
X6370372Y-4317674D02*
X6332277Y-4317674D01*
X6332277Y-4317674D02*
X6313229Y-4327198D01*
X6313229Y-4327198D02*
X6303706Y-4336722D01*
X6303706Y-4336722D02*
X6294182Y-4355770D01*
X6522753Y-4327198D02*
X6503706Y-4317674D01*
X6503706Y-4317674D02*
X6494182Y-4308150D01*
X6494182Y-4308150D02*
X6484658Y-4289103D01*
X6484658Y-4289103D02*
X6484658Y-4279579D01*
X6484658Y-4279579D02*
X6494182Y-4260531D01*
X6494182Y-4260531D02*
X6503706Y-4251008D01*
X6503706Y-4251008D02*
X6522753Y-4241484D01*
X6522753Y-4241484D02*
X6560848Y-4241484D01*
X6560848Y-4241484D02*
X6579896Y-4251008D01*
X6579896Y-4251008D02*
X6589420Y-4260531D01*
X6589420Y-4260531D02*
X6598944Y-4279579D01*
X6598944Y-4279579D02*
X6598944Y-4289103D01*
X6598944Y-4289103D02*
X6589420Y-4308150D01*
X6589420Y-4308150D02*
X6579896Y-4317674D01*
X6579896Y-4317674D02*
X6560848Y-4327198D01*
X6560848Y-4327198D02*
X6522753Y-4327198D01*
X6522753Y-4327198D02*
X6503706Y-4336722D01*
X6503706Y-4336722D02*
X6494182Y-4346246D01*
X6494182Y-4346246D02*
X6484658Y-4365293D01*
X6484658Y-4365293D02*
X6484658Y-4403389D01*
X6484658Y-4403389D02*
X6494182Y-4422436D01*
X6494182Y-4422436D02*
X6503706Y-4431960D01*
X6503706Y-4431960D02*
X6522753Y-4441484D01*
X6522753Y-4441484D02*
X6560848Y-4441484D01*
X6560848Y-4441484D02*
X6579896Y-4431960D01*
X6579896Y-4431960D02*
X6589420Y-4422436D01*
X6589420Y-4422436D02*
X6598944Y-4403389D01*
X6598944Y-4403389D02*
X6598944Y-4365293D01*
X6598944Y-4365293D02*
X6589420Y-4346246D01*
X6589420Y-4346246D02*
X6579896Y-4336722D01*
X6579896Y-4336722D02*
X6560848Y-4327198D01*
X6675134Y-4241484D02*
X6675134Y-4279579D01*
X6751325Y-4241484D02*
X6751325Y-4279579D01*
X7046563Y-4517674D02*
X7037039Y-4508150D01*
X7037039Y-4508150D02*
X7017991Y-4479579D01*
X7017991Y-4479579D02*
X7008468Y-4460531D01*
X7008468Y-4460531D02*
X6998944Y-4431960D01*
X6998944Y-4431960D02*
X6989420Y-4384341D01*
X6989420Y-4384341D02*
X6989420Y-4346246D01*
X6989420Y-4346246D02*
X6998944Y-4298627D01*
X6998944Y-4298627D02*
X7008468Y-4270055D01*
X7008468Y-4270055D02*
X7017991Y-4251008D01*
X7017991Y-4251008D02*
X7037039Y-4222436D01*
X7037039Y-4222436D02*
X7046563Y-4212912D01*
X7103706Y-4241484D02*
X7227515Y-4241484D01*
X7227515Y-4241484D02*
X7160848Y-4317674D01*
X7160848Y-4317674D02*
X7189420Y-4317674D01*
X7189420Y-4317674D02*
X7208468Y-4327198D01*
X7208468Y-4327198D02*
X7217991Y-4336722D01*
X7217991Y-4336722D02*
X7227515Y-4355770D01*
X7227515Y-4355770D02*
X7227515Y-4403389D01*
X7227515Y-4403389D02*
X7217991Y-4422436D01*
X7217991Y-4422436D02*
X7208468Y-4431960D01*
X7208468Y-4431960D02*
X7189420Y-4441484D01*
X7189420Y-4441484D02*
X7132277Y-4441484D01*
X7132277Y-4441484D02*
X7113229Y-4431960D01*
X7113229Y-4431960D02*
X7103706Y-4422436D01*
X7465610Y-4441484D02*
X7465610Y-4241484D01*
X7551325Y-4441484D02*
X7551325Y-4336722D01*
X7551325Y-4336722D02*
X7541801Y-4317674D01*
X7541801Y-4317674D02*
X7522753Y-4308150D01*
X7522753Y-4308150D02*
X7494182Y-4308150D01*
X7494182Y-4308150D02*
X7475134Y-4317674D01*
X7475134Y-4317674D02*
X7465610Y-4327198D01*
X7675134Y-4441484D02*
X7656087Y-4431960D01*
X7656087Y-4431960D02*
X7646563Y-4422436D01*
X7646563Y-4422436D02*
X7637039Y-4403389D01*
X7637039Y-4403389D02*
X7637039Y-4346246D01*
X7637039Y-4346246D02*
X7646563Y-4327198D01*
X7646563Y-4327198D02*
X7656087Y-4317674D01*
X7656087Y-4317674D02*
X7675134Y-4308150D01*
X7675134Y-4308150D02*
X7703706Y-4308150D01*
X7703706Y-4308150D02*
X7722753Y-4317674D01*
X7722753Y-4317674D02*
X7732277Y-4327198D01*
X7732277Y-4327198D02*
X7741801Y-4346246D01*
X7741801Y-4346246D02*
X7741801Y-4403389D01*
X7741801Y-4403389D02*
X7732277Y-4422436D01*
X7732277Y-4422436D02*
X7722753Y-4431960D01*
X7722753Y-4431960D02*
X7703706Y-4441484D01*
X7703706Y-4441484D02*
X7675134Y-4441484D01*
X7856087Y-4441484D02*
X7837039Y-4431960D01*
X7837039Y-4431960D02*
X7827515Y-4412912D01*
X7827515Y-4412912D02*
X7827515Y-4241484D01*
X8008468Y-4431960D02*
X7989420Y-4441484D01*
X7989420Y-4441484D02*
X7951325Y-4441484D01*
X7951325Y-4441484D02*
X7932277Y-4431960D01*
X7932277Y-4431960D02*
X7922753Y-4412912D01*
X7922753Y-4412912D02*
X7922753Y-4336722D01*
X7922753Y-4336722D02*
X7932277Y-4317674D01*
X7932277Y-4317674D02*
X7951325Y-4308150D01*
X7951325Y-4308150D02*
X7989420Y-4308150D01*
X7989420Y-4308150D02*
X8008468Y-4317674D01*
X8008468Y-4317674D02*
X8017991Y-4336722D01*
X8017991Y-4336722D02*
X8017991Y-4355770D01*
X8017991Y-4355770D02*
X7922753Y-4374817D01*
X8094182Y-4431960D02*
X8113230Y-4441484D01*
X8113230Y-4441484D02*
X8151325Y-4441484D01*
X8151325Y-4441484D02*
X8170372Y-4431960D01*
X8170372Y-4431960D02*
X8179896Y-4412912D01*
X8179896Y-4412912D02*
X8179896Y-4403389D01*
X8179896Y-4403389D02*
X8170372Y-4384341D01*
X8170372Y-4384341D02*
X8151325Y-4374817D01*
X8151325Y-4374817D02*
X8122753Y-4374817D01*
X8122753Y-4374817D02*
X8103706Y-4365293D01*
X8103706Y-4365293D02*
X8094182Y-4346246D01*
X8094182Y-4346246D02*
X8094182Y-4336722D01*
X8094182Y-4336722D02*
X8103706Y-4317674D01*
X8103706Y-4317674D02*
X8122753Y-4308150D01*
X8122753Y-4308150D02*
X8151325Y-4308150D01*
X8151325Y-4308150D02*
X8170372Y-4317674D01*
X8246563Y-4517674D02*
X8256087Y-4508150D01*
X8256087Y-4508150D02*
X8275134Y-4479579D01*
X8275134Y-4479579D02*
X8284658Y-4460531D01*
X8284658Y-4460531D02*
X8294182Y-4431960D01*
X8294182Y-4431960D02*
X8303706Y-4384341D01*
X8303706Y-4384341D02*
X8303706Y-4346246D01*
X8303706Y-4346246D02*
X8294182Y-4298627D01*
X8294182Y-4298627D02*
X8284658Y-4270055D01*
X8284658Y-4270055D02*
X8275134Y-4251008D01*
X8275134Y-4251008D02*
X8256087Y-4222436D01*
X8256087Y-4222436D02*
X8246563Y-4212912D01*
D13*
X3471500Y-4614000D02*
G75*
G03*
X3471500Y-4614000I-47500J0D01*
G01*
D11*
X3770372Y-4505484D02*
X3789420Y-4505484D01*
X3789420Y-4505484D02*
X3808467Y-4515008D01*
X3808467Y-4515008D02*
X3817991Y-4524531D01*
X3817991Y-4524531D02*
X3827515Y-4543579D01*
X3827515Y-4543579D02*
X3837039Y-4581674D01*
X3837039Y-4581674D02*
X3837039Y-4629293D01*
X3837039Y-4629293D02*
X3827515Y-4667389D01*
X3827515Y-4667389D02*
X3817991Y-4686436D01*
X3817991Y-4686436D02*
X3808467Y-4695960D01*
X3808467Y-4695960D02*
X3789420Y-4705484D01*
X3789420Y-4705484D02*
X3770372Y-4705484D01*
X3770372Y-4705484D02*
X3751324Y-4695960D01*
X3751324Y-4695960D02*
X3741801Y-4686436D01*
X3741801Y-4686436D02*
X3732277Y-4667389D01*
X3732277Y-4667389D02*
X3722753Y-4629293D01*
X3722753Y-4629293D02*
X3722753Y-4581674D01*
X3722753Y-4581674D02*
X3732277Y-4543579D01*
X3732277Y-4543579D02*
X3741801Y-4524531D01*
X3741801Y-4524531D02*
X3751324Y-4515008D01*
X3751324Y-4515008D02*
X3770372Y-4505484D01*
X3922753Y-4686436D02*
X3932277Y-4695960D01*
X3932277Y-4695960D02*
X3922753Y-4705484D01*
X3922753Y-4705484D02*
X3913229Y-4695960D01*
X3913229Y-4695960D02*
X3922753Y-4686436D01*
X3922753Y-4686436D02*
X3922753Y-4705484D01*
X4027515Y-4705484D02*
X4065610Y-4705484D01*
X4065610Y-4705484D02*
X4084658Y-4695960D01*
X4084658Y-4695960D02*
X4094182Y-4686436D01*
X4094182Y-4686436D02*
X4113229Y-4657865D01*
X4113229Y-4657865D02*
X4122753Y-4619770D01*
X4122753Y-4619770D02*
X4122753Y-4543579D01*
X4122753Y-4543579D02*
X4113229Y-4524531D01*
X4113229Y-4524531D02*
X4103705Y-4515008D01*
X4103705Y-4515008D02*
X4084658Y-4505484D01*
X4084658Y-4505484D02*
X4046562Y-4505484D01*
X4046562Y-4505484D02*
X4027515Y-4515008D01*
X4027515Y-4515008D02*
X4017991Y-4524531D01*
X4017991Y-4524531D02*
X4008467Y-4543579D01*
X4008467Y-4543579D02*
X4008467Y-4591198D01*
X4008467Y-4591198D02*
X4017991Y-4610246D01*
X4017991Y-4610246D02*
X4027515Y-4619770D01*
X4027515Y-4619770D02*
X4046562Y-4629293D01*
X4046562Y-4629293D02*
X4084658Y-4629293D01*
X4084658Y-4629293D02*
X4103705Y-4619770D01*
X4103705Y-4619770D02*
X4113229Y-4610246D01*
X4113229Y-4610246D02*
X4122753Y-4591198D01*
X4303705Y-4505484D02*
X4208467Y-4505484D01*
X4208467Y-4505484D02*
X4198944Y-4600722D01*
X4198944Y-4600722D02*
X4208467Y-4591198D01*
X4208467Y-4591198D02*
X4227515Y-4581674D01*
X4227515Y-4581674D02*
X4275134Y-4581674D01*
X4275134Y-4581674D02*
X4294182Y-4591198D01*
X4294182Y-4591198D02*
X4303705Y-4600722D01*
X4303705Y-4600722D02*
X4313229Y-4619770D01*
X4313229Y-4619770D02*
X4313229Y-4667389D01*
X4313229Y-4667389D02*
X4303705Y-4686436D01*
X4303705Y-4686436D02*
X4294182Y-4695960D01*
X4294182Y-4695960D02*
X4275134Y-4705484D01*
X4275134Y-4705484D02*
X4227515Y-4705484D01*
X4227515Y-4705484D02*
X4208467Y-4695960D01*
X4208467Y-4695960D02*
X4198944Y-4686436D01*
X4437039Y-4505484D02*
X4456086Y-4505484D01*
X4456086Y-4505484D02*
X4475134Y-4515008D01*
X4475134Y-4515008D02*
X4484658Y-4524531D01*
X4484658Y-4524531D02*
X4494182Y-4543579D01*
X4494182Y-4543579D02*
X4503705Y-4581674D01*
X4503705Y-4581674D02*
X4503705Y-4629293D01*
X4503705Y-4629293D02*
X4494182Y-4667389D01*
X4494182Y-4667389D02*
X4484658Y-4686436D01*
X4484658Y-4686436D02*
X4475134Y-4695960D01*
X4475134Y-4695960D02*
X4456086Y-4705484D01*
X4456086Y-4705484D02*
X4437039Y-4705484D01*
X4437039Y-4705484D02*
X4417991Y-4695960D01*
X4417991Y-4695960D02*
X4408467Y-4686436D01*
X4408467Y-4686436D02*
X4398944Y-4667389D01*
X4398944Y-4667389D02*
X4389420Y-4629293D01*
X4389420Y-4629293D02*
X4389420Y-4581674D01*
X4389420Y-4581674D02*
X4398944Y-4543579D01*
X4398944Y-4543579D02*
X4408467Y-4524531D01*
X4408467Y-4524531D02*
X4417991Y-4515008D01*
X4417991Y-4515008D02*
X4437039Y-4505484D01*
X4589420Y-4705484D02*
X4589420Y-4572150D01*
X4589420Y-4591198D02*
X4598944Y-4581674D01*
X4598944Y-4581674D02*
X4617991Y-4572150D01*
X4617991Y-4572150D02*
X4646563Y-4572150D01*
X4646563Y-4572150D02*
X4665610Y-4581674D01*
X4665610Y-4581674D02*
X4675134Y-4600722D01*
X4675134Y-4600722D02*
X4675134Y-4705484D01*
X4675134Y-4600722D02*
X4684658Y-4581674D01*
X4684658Y-4581674D02*
X4703705Y-4572150D01*
X4703705Y-4572150D02*
X4732277Y-4572150D01*
X4732277Y-4572150D02*
X4751325Y-4581674D01*
X4751325Y-4581674D02*
X4760848Y-4600722D01*
X4760848Y-4600722D02*
X4760848Y-4705484D01*
X4856086Y-4705484D02*
X4856086Y-4572150D01*
X4856086Y-4591198D02*
X4865610Y-4581674D01*
X4865610Y-4581674D02*
X4884658Y-4572150D01*
X4884658Y-4572150D02*
X4913229Y-4572150D01*
X4913229Y-4572150D02*
X4932277Y-4581674D01*
X4932277Y-4581674D02*
X4941801Y-4600722D01*
X4941801Y-4600722D02*
X4941801Y-4705484D01*
X4941801Y-4600722D02*
X4951325Y-4581674D01*
X4951325Y-4581674D02*
X4970372Y-4572150D01*
X4970372Y-4572150D02*
X4998944Y-4572150D01*
X4998944Y-4572150D02*
X5017991Y-4581674D01*
X5017991Y-4581674D02*
X5027515Y-4600722D01*
X5027515Y-4600722D02*
X5027515Y-4705484D01*
X5417991Y-4495960D02*
X5246563Y-4753103D01*
X5675134Y-4505484D02*
X5694182Y-4505484D01*
X5694182Y-4505484D02*
X5713229Y-4515008D01*
X5713229Y-4515008D02*
X5722753Y-4524531D01*
X5722753Y-4524531D02*
X5732277Y-4543579D01*
X5732277Y-4543579D02*
X5741801Y-4581674D01*
X5741801Y-4581674D02*
X5741801Y-4629293D01*
X5741801Y-4629293D02*
X5732277Y-4667389D01*
X5732277Y-4667389D02*
X5722753Y-4686436D01*
X5722753Y-4686436D02*
X5713229Y-4695960D01*
X5713229Y-4695960D02*
X5694182Y-4705484D01*
X5694182Y-4705484D02*
X5675134Y-4705484D01*
X5675134Y-4705484D02*
X5656086Y-4695960D01*
X5656086Y-4695960D02*
X5646563Y-4686436D01*
X5646563Y-4686436D02*
X5637039Y-4667389D01*
X5637039Y-4667389D02*
X5627515Y-4629293D01*
X5627515Y-4629293D02*
X5627515Y-4581674D01*
X5627515Y-4581674D02*
X5637039Y-4543579D01*
X5637039Y-4543579D02*
X5646563Y-4524531D01*
X5646563Y-4524531D02*
X5656086Y-4515008D01*
X5656086Y-4515008D02*
X5675134Y-4505484D01*
X5827515Y-4686436D02*
X5837039Y-4695960D01*
X5837039Y-4695960D02*
X5827515Y-4705484D01*
X5827515Y-4705484D02*
X5817991Y-4695960D01*
X5817991Y-4695960D02*
X5827515Y-4686436D01*
X5827515Y-4686436D02*
X5827515Y-4705484D01*
X5960848Y-4505484D02*
X5979896Y-4505484D01*
X5979896Y-4505484D02*
X5998944Y-4515008D01*
X5998944Y-4515008D02*
X6008467Y-4524531D01*
X6008467Y-4524531D02*
X6017991Y-4543579D01*
X6017991Y-4543579D02*
X6027515Y-4581674D01*
X6027515Y-4581674D02*
X6027515Y-4629293D01*
X6027515Y-4629293D02*
X6017991Y-4667389D01*
X6017991Y-4667389D02*
X6008467Y-4686436D01*
X6008467Y-4686436D02*
X5998944Y-4695960D01*
X5998944Y-4695960D02*
X5979896Y-4705484D01*
X5979896Y-4705484D02*
X5960848Y-4705484D01*
X5960848Y-4705484D02*
X5941801Y-4695960D01*
X5941801Y-4695960D02*
X5932277Y-4686436D01*
X5932277Y-4686436D02*
X5922753Y-4667389D01*
X5922753Y-4667389D02*
X5913229Y-4629293D01*
X5913229Y-4629293D02*
X5913229Y-4581674D01*
X5913229Y-4581674D02*
X5922753Y-4543579D01*
X5922753Y-4543579D02*
X5932277Y-4524531D01*
X5932277Y-4524531D02*
X5941801Y-4515008D01*
X5941801Y-4515008D02*
X5960848Y-4505484D01*
X6094182Y-4505484D02*
X6217991Y-4505484D01*
X6217991Y-4505484D02*
X6151325Y-4581674D01*
X6151325Y-4581674D02*
X6179896Y-4581674D01*
X6179896Y-4581674D02*
X6198944Y-4591198D01*
X6198944Y-4591198D02*
X6208467Y-4600722D01*
X6208467Y-4600722D02*
X6217991Y-4619770D01*
X6217991Y-4619770D02*
X6217991Y-4667389D01*
X6217991Y-4667389D02*
X6208467Y-4686436D01*
X6208467Y-4686436D02*
X6198944Y-4695960D01*
X6198944Y-4695960D02*
X6179896Y-4705484D01*
X6179896Y-4705484D02*
X6122753Y-4705484D01*
X6122753Y-4705484D02*
X6103706Y-4695960D01*
X6103706Y-4695960D02*
X6094182Y-4686436D01*
X6284658Y-4505484D02*
X6417991Y-4505484D01*
X6417991Y-4505484D02*
X6332277Y-4705484D01*
X6579896Y-4572150D02*
X6579896Y-4705484D01*
X6532277Y-4495960D02*
X6484658Y-4638817D01*
X6484658Y-4638817D02*
X6608467Y-4638817D01*
X6675134Y-4505484D02*
X6675134Y-4543579D01*
X6751325Y-4505484D02*
X6751325Y-4543579D01*
X7046563Y-4781674D02*
X7037039Y-4772150D01*
X7037039Y-4772150D02*
X7017991Y-4743579D01*
X7017991Y-4743579D02*
X7008468Y-4724531D01*
X7008468Y-4724531D02*
X6998944Y-4695960D01*
X6998944Y-4695960D02*
X6989420Y-4648341D01*
X6989420Y-4648341D02*
X6989420Y-4610246D01*
X6989420Y-4610246D02*
X6998944Y-4562627D01*
X6998944Y-4562627D02*
X7008468Y-4534055D01*
X7008468Y-4534055D02*
X7017991Y-4515008D01*
X7017991Y-4515008D02*
X7037039Y-4486436D01*
X7037039Y-4486436D02*
X7046563Y-4476912D01*
X7217991Y-4505484D02*
X7122753Y-4505484D01*
X7122753Y-4505484D02*
X7113229Y-4600722D01*
X7113229Y-4600722D02*
X7122753Y-4591198D01*
X7122753Y-4591198D02*
X7141801Y-4581674D01*
X7141801Y-4581674D02*
X7189420Y-4581674D01*
X7189420Y-4581674D02*
X7208468Y-4591198D01*
X7208468Y-4591198D02*
X7217991Y-4600722D01*
X7217991Y-4600722D02*
X7227515Y-4619770D01*
X7227515Y-4619770D02*
X7227515Y-4667389D01*
X7227515Y-4667389D02*
X7217991Y-4686436D01*
X7217991Y-4686436D02*
X7208468Y-4695960D01*
X7208468Y-4695960D02*
X7189420Y-4705484D01*
X7189420Y-4705484D02*
X7141801Y-4705484D01*
X7141801Y-4705484D02*
X7122753Y-4695960D01*
X7122753Y-4695960D02*
X7113229Y-4686436D01*
X7465610Y-4705484D02*
X7465610Y-4505484D01*
X7551325Y-4705484D02*
X7551325Y-4600722D01*
X7551325Y-4600722D02*
X7541801Y-4581674D01*
X7541801Y-4581674D02*
X7522753Y-4572150D01*
X7522753Y-4572150D02*
X7494182Y-4572150D01*
X7494182Y-4572150D02*
X7475134Y-4581674D01*
X7475134Y-4581674D02*
X7465610Y-4591198D01*
X7675134Y-4705484D02*
X7656087Y-4695960D01*
X7656087Y-4695960D02*
X7646563Y-4686436D01*
X7646563Y-4686436D02*
X7637039Y-4667389D01*
X7637039Y-4667389D02*
X7637039Y-4610246D01*
X7637039Y-4610246D02*
X7646563Y-4591198D01*
X7646563Y-4591198D02*
X7656087Y-4581674D01*
X7656087Y-4581674D02*
X7675134Y-4572150D01*
X7675134Y-4572150D02*
X7703706Y-4572150D01*
X7703706Y-4572150D02*
X7722753Y-4581674D01*
X7722753Y-4581674D02*
X7732277Y-4591198D01*
X7732277Y-4591198D02*
X7741801Y-4610246D01*
X7741801Y-4610246D02*
X7741801Y-4667389D01*
X7741801Y-4667389D02*
X7732277Y-4686436D01*
X7732277Y-4686436D02*
X7722753Y-4695960D01*
X7722753Y-4695960D02*
X7703706Y-4705484D01*
X7703706Y-4705484D02*
X7675134Y-4705484D01*
X7856087Y-4705484D02*
X7837039Y-4695960D01*
X7837039Y-4695960D02*
X7827515Y-4676912D01*
X7827515Y-4676912D02*
X7827515Y-4505484D01*
X8008468Y-4695960D02*
X7989420Y-4705484D01*
X7989420Y-4705484D02*
X7951325Y-4705484D01*
X7951325Y-4705484D02*
X7932277Y-4695960D01*
X7932277Y-4695960D02*
X7922753Y-4676912D01*
X7922753Y-4676912D02*
X7922753Y-4600722D01*
X7922753Y-4600722D02*
X7932277Y-4581674D01*
X7932277Y-4581674D02*
X7951325Y-4572150D01*
X7951325Y-4572150D02*
X7989420Y-4572150D01*
X7989420Y-4572150D02*
X8008468Y-4581674D01*
X8008468Y-4581674D02*
X8017991Y-4600722D01*
X8017991Y-4600722D02*
X8017991Y-4619770D01*
X8017991Y-4619770D02*
X7922753Y-4638817D01*
X8094182Y-4695960D02*
X8113230Y-4705484D01*
X8113230Y-4705484D02*
X8151325Y-4705484D01*
X8151325Y-4705484D02*
X8170372Y-4695960D01*
X8170372Y-4695960D02*
X8179896Y-4676912D01*
X8179896Y-4676912D02*
X8179896Y-4667389D01*
X8179896Y-4667389D02*
X8170372Y-4648341D01*
X8170372Y-4648341D02*
X8151325Y-4638817D01*
X8151325Y-4638817D02*
X8122753Y-4638817D01*
X8122753Y-4638817D02*
X8103706Y-4629293D01*
X8103706Y-4629293D02*
X8094182Y-4610246D01*
X8094182Y-4610246D02*
X8094182Y-4600722D01*
X8094182Y-4600722D02*
X8103706Y-4581674D01*
X8103706Y-4581674D02*
X8122753Y-4572150D01*
X8122753Y-4572150D02*
X8151325Y-4572150D01*
X8151325Y-4572150D02*
X8170372Y-4581674D01*
X8246563Y-4781674D02*
X8256087Y-4772150D01*
X8256087Y-4772150D02*
X8275134Y-4743579D01*
X8275134Y-4743579D02*
X8284658Y-4724531D01*
X8284658Y-4724531D02*
X8294182Y-4695960D01*
X8294182Y-4695960D02*
X8303706Y-4648341D01*
X8303706Y-4648341D02*
X8303706Y-4610246D01*
X8303706Y-4610246D02*
X8294182Y-4562627D01*
X8294182Y-4562627D02*
X8284658Y-4534055D01*
X8284658Y-4534055D02*
X8275134Y-4515008D01*
X8275134Y-4515008D02*
X8256087Y-4486436D01*
X8256087Y-4486436D02*
X8246563Y-4476912D01*
M02*
