%TF.GenerationSoftware,KiCad,Pcbnew,7.0.6*%
%TF.CreationDate,2023-07-13T14:42:16+02:00*%
%TF.ProjectId,RH_BreakLever_FreeJoy,52485f42-7265-4616-9b4c-657665725f46,rev?*%
%TF.SameCoordinates,Original*%
%TF.FileFunction,Legend,Bot*%
%TF.FilePolarity,Positive*%
%FSLAX46Y46*%
G04 Gerber Fmt 4.6, Leading zero omitted, Abs format (unit mm)*
G04 Created by KiCad (PCBNEW 7.0.6) date 2023-07-13 14:42:16*
%MOMM*%
%LPD*%
G01*
G04 APERTURE LIST*
G04 Aperture macros list*
%AMRoundRect*
0 Rectangle with rounded corners*
0 $1 Rounding radius*
0 $2 $3 $4 $5 $6 $7 $8 $9 X,Y pos of 4 corners*
0 Add a 4 corners polygon primitive as box body*
4,1,4,$2,$3,$4,$5,$6,$7,$8,$9,$2,$3,0*
0 Add four circle primitives for the rounded corners*
1,1,$1+$1,$2,$3*
1,1,$1+$1,$4,$5*
1,1,$1+$1,$6,$7*
1,1,$1+$1,$8,$9*
0 Add four rect primitives between the rounded corners*
20,1,$1+$1,$2,$3,$4,$5,0*
20,1,$1+$1,$4,$5,$6,$7,0*
20,1,$1+$1,$6,$7,$8,$9,0*
20,1,$1+$1,$8,$9,$2,$3,0*%
G04 Aperture macros list end*
%ADD10C,0.150000*%
%ADD11C,0.100000*%
%ADD12R,1.030000X1.030000*%
%ADD13C,1.030000*%
%ADD14C,2.200000*%
%ADD15RoundRect,0.250000X0.725000X-0.600000X0.725000X0.600000X-0.725000X0.600000X-0.725000X-0.600000X0*%
%ADD16O,1.950000X1.700000*%
%ADD17R,2.000000X0.600000*%
G04 APERTURE END LIST*
D10*
X53241541Y-32729819D02*
X53241541Y-31729819D01*
X53241541Y-31729819D02*
X52670113Y-32729819D01*
X52670113Y-32729819D02*
X52670113Y-31729819D01*
X52051065Y-32729819D02*
X52146303Y-32682200D01*
X52146303Y-32682200D02*
X52193922Y-32634580D01*
X52193922Y-32634580D02*
X52241541Y-32539342D01*
X52241541Y-32539342D02*
X52241541Y-32253628D01*
X52241541Y-32253628D02*
X52193922Y-32158390D01*
X52193922Y-32158390D02*
X52146303Y-32110771D01*
X52146303Y-32110771D02*
X52051065Y-32063152D01*
X52051065Y-32063152D02*
X51908208Y-32063152D01*
X51908208Y-32063152D02*
X51812970Y-32110771D01*
X51812970Y-32110771D02*
X51765351Y-32158390D01*
X51765351Y-32158390D02*
X51717732Y-32253628D01*
X51717732Y-32253628D02*
X51717732Y-32539342D01*
X51717732Y-32539342D02*
X51765351Y-32634580D01*
X51765351Y-32634580D02*
X51812970Y-32682200D01*
X51812970Y-32682200D02*
X51908208Y-32729819D01*
X51908208Y-32729819D02*
X52051065Y-32729819D01*
X51289160Y-32729819D02*
X51289160Y-31729819D01*
X51289160Y-31729819D02*
X50908208Y-31729819D01*
X50908208Y-31729819D02*
X50812970Y-31777438D01*
X50812970Y-31777438D02*
X50765351Y-31825057D01*
X50765351Y-31825057D02*
X50717732Y-31920295D01*
X50717732Y-31920295D02*
X50717732Y-32063152D01*
X50717732Y-32063152D02*
X50765351Y-32158390D01*
X50765351Y-32158390D02*
X50812970Y-32206009D01*
X50812970Y-32206009D02*
X50908208Y-32253628D01*
X50908208Y-32253628D02*
X51289160Y-32253628D01*
X50146303Y-32729819D02*
X50241541Y-32682200D01*
X50241541Y-32682200D02*
X50289160Y-32586961D01*
X50289160Y-32586961D02*
X50289160Y-31729819D01*
X49336779Y-32729819D02*
X49336779Y-32206009D01*
X49336779Y-32206009D02*
X49384398Y-32110771D01*
X49384398Y-32110771D02*
X49479636Y-32063152D01*
X49479636Y-32063152D02*
X49670112Y-32063152D01*
X49670112Y-32063152D02*
X49765350Y-32110771D01*
X49336779Y-32682200D02*
X49432017Y-32729819D01*
X49432017Y-32729819D02*
X49670112Y-32729819D01*
X49670112Y-32729819D02*
X49765350Y-32682200D01*
X49765350Y-32682200D02*
X49812969Y-32586961D01*
X49812969Y-32586961D02*
X49812969Y-32491723D01*
X49812969Y-32491723D02*
X49765350Y-32396485D01*
X49765350Y-32396485D02*
X49670112Y-32348866D01*
X49670112Y-32348866D02*
X49432017Y-32348866D01*
X49432017Y-32348866D02*
X49336779Y-32301247D01*
X48860588Y-32063152D02*
X48860588Y-32729819D01*
X48860588Y-32158390D02*
X48812969Y-32110771D01*
X48812969Y-32110771D02*
X48717731Y-32063152D01*
X48717731Y-32063152D02*
X48574874Y-32063152D01*
X48574874Y-32063152D02*
X48479636Y-32110771D01*
X48479636Y-32110771D02*
X48432017Y-32206009D01*
X48432017Y-32206009D02*
X48432017Y-32729819D01*
X47955826Y-32729819D02*
X47955826Y-31729819D01*
X47955826Y-31729819D02*
X47384398Y-32729819D01*
X47384398Y-32729819D02*
X47384398Y-31729819D01*
X46765350Y-32729819D02*
X46860588Y-32682200D01*
X46860588Y-32682200D02*
X46908207Y-32634580D01*
X46908207Y-32634580D02*
X46955826Y-32539342D01*
X46955826Y-32539342D02*
X46955826Y-32253628D01*
X46955826Y-32253628D02*
X46908207Y-32158390D01*
X46908207Y-32158390D02*
X46860588Y-32110771D01*
X46860588Y-32110771D02*
X46765350Y-32063152D01*
X46765350Y-32063152D02*
X46622493Y-32063152D01*
X46622493Y-32063152D02*
X46527255Y-32110771D01*
X46527255Y-32110771D02*
X46479636Y-32158390D01*
X46479636Y-32158390D02*
X46432017Y-32253628D01*
X46432017Y-32253628D02*
X46432017Y-32539342D01*
X46432017Y-32539342D02*
X46479636Y-32634580D01*
X46479636Y-32634580D02*
X46527255Y-32682200D01*
X46527255Y-32682200D02*
X46622493Y-32729819D01*
X46622493Y-32729819D02*
X46765350Y-32729819D01*
X46003445Y-32729819D02*
X46003445Y-32063152D01*
X46003445Y-32158390D02*
X45955826Y-32110771D01*
X45955826Y-32110771D02*
X45860588Y-32063152D01*
X45860588Y-32063152D02*
X45717731Y-32063152D01*
X45717731Y-32063152D02*
X45622493Y-32110771D01*
X45622493Y-32110771D02*
X45574874Y-32206009D01*
X45574874Y-32206009D02*
X45574874Y-32729819D01*
X45574874Y-32206009D02*
X45527255Y-32110771D01*
X45527255Y-32110771D02*
X45432017Y-32063152D01*
X45432017Y-32063152D02*
X45289160Y-32063152D01*
X45289160Y-32063152D02*
X45193921Y-32110771D01*
X45193921Y-32110771D02*
X45146302Y-32206009D01*
X45146302Y-32206009D02*
X45146302Y-32729819D01*
X44241541Y-32729819D02*
X44241541Y-32206009D01*
X44241541Y-32206009D02*
X44289160Y-32110771D01*
X44289160Y-32110771D02*
X44384398Y-32063152D01*
X44384398Y-32063152D02*
X44574874Y-32063152D01*
X44574874Y-32063152D02*
X44670112Y-32110771D01*
X44241541Y-32682200D02*
X44336779Y-32729819D01*
X44336779Y-32729819D02*
X44574874Y-32729819D01*
X44574874Y-32729819D02*
X44670112Y-32682200D01*
X44670112Y-32682200D02*
X44717731Y-32586961D01*
X44717731Y-32586961D02*
X44717731Y-32491723D01*
X44717731Y-32491723D02*
X44670112Y-32396485D01*
X44670112Y-32396485D02*
X44574874Y-32348866D01*
X44574874Y-32348866D02*
X44336779Y-32348866D01*
X44336779Y-32348866D02*
X44241541Y-32301247D01*
X43336779Y-32729819D02*
X43336779Y-31729819D01*
X43336779Y-32682200D02*
X43432017Y-32729819D01*
X43432017Y-32729819D02*
X43622493Y-32729819D01*
X43622493Y-32729819D02*
X43717731Y-32682200D01*
X43717731Y-32682200D02*
X43765350Y-32634580D01*
X43765350Y-32634580D02*
X43812969Y-32539342D01*
X43812969Y-32539342D02*
X43812969Y-32253628D01*
X43812969Y-32253628D02*
X43765350Y-32158390D01*
X43765350Y-32158390D02*
X43717731Y-32110771D01*
X43717731Y-32110771D02*
X43622493Y-32063152D01*
X43622493Y-32063152D02*
X43432017Y-32063152D01*
X43432017Y-32063152D02*
X43336779Y-32110771D01*
X57146305Y-33816009D02*
X57479638Y-33816009D01*
X57479638Y-34339819D02*
X57479638Y-33339819D01*
X57479638Y-33339819D02*
X57003448Y-33339819D01*
X56479638Y-34339819D02*
X56574876Y-34292200D01*
X56574876Y-34292200D02*
X56622495Y-34196961D01*
X56622495Y-34196961D02*
X56622495Y-33339819D01*
X55670114Y-34339819D02*
X55670114Y-33816009D01*
X55670114Y-33816009D02*
X55717733Y-33720771D01*
X55717733Y-33720771D02*
X55812971Y-33673152D01*
X55812971Y-33673152D02*
X56003447Y-33673152D01*
X56003447Y-33673152D02*
X56098685Y-33720771D01*
X55670114Y-34292200D02*
X55765352Y-34339819D01*
X55765352Y-34339819D02*
X56003447Y-34339819D01*
X56003447Y-34339819D02*
X56098685Y-34292200D01*
X56098685Y-34292200D02*
X56146304Y-34196961D01*
X56146304Y-34196961D02*
X56146304Y-34101723D01*
X56146304Y-34101723D02*
X56098685Y-34006485D01*
X56098685Y-34006485D02*
X56003447Y-33958866D01*
X56003447Y-33958866D02*
X55765352Y-33958866D01*
X55765352Y-33958866D02*
X55670114Y-33911247D01*
X55193923Y-33673152D02*
X55193923Y-34339819D01*
X55193923Y-33768390D02*
X55146304Y-33720771D01*
X55146304Y-33720771D02*
X55051066Y-33673152D01*
X55051066Y-33673152D02*
X54908209Y-33673152D01*
X54908209Y-33673152D02*
X54812971Y-33720771D01*
X54812971Y-33720771D02*
X54765352Y-33816009D01*
X54765352Y-33816009D02*
X54765352Y-34339819D01*
X54289161Y-34339819D02*
X54289161Y-33339819D01*
X54193923Y-33958866D02*
X53908209Y-34339819D01*
X53908209Y-33673152D02*
X54289161Y-34054104D01*
X53098685Y-34292200D02*
X53193923Y-34339819D01*
X53193923Y-34339819D02*
X53384399Y-34339819D01*
X53384399Y-34339819D02*
X53479637Y-34292200D01*
X53479637Y-34292200D02*
X53527256Y-34196961D01*
X53527256Y-34196961D02*
X53527256Y-33816009D01*
X53527256Y-33816009D02*
X53479637Y-33720771D01*
X53479637Y-33720771D02*
X53384399Y-33673152D01*
X53384399Y-33673152D02*
X53193923Y-33673152D01*
X53193923Y-33673152D02*
X53098685Y-33720771D01*
X53098685Y-33720771D02*
X53051066Y-33816009D01*
X53051066Y-33816009D02*
X53051066Y-33911247D01*
X53051066Y-33911247D02*
X53527256Y-34006485D01*
X52622494Y-34339819D02*
X52622494Y-33673152D01*
X52622494Y-33863628D02*
X52574875Y-33768390D01*
X52574875Y-33768390D02*
X52527256Y-33720771D01*
X52527256Y-33720771D02*
X52432018Y-33673152D01*
X52432018Y-33673152D02*
X52336780Y-33673152D01*
X50670113Y-34339819D02*
X51003446Y-33863628D01*
X51241541Y-34339819D02*
X51241541Y-33339819D01*
X51241541Y-33339819D02*
X50860589Y-33339819D01*
X50860589Y-33339819D02*
X50765351Y-33387438D01*
X50765351Y-33387438D02*
X50717732Y-33435057D01*
X50717732Y-33435057D02*
X50670113Y-33530295D01*
X50670113Y-33530295D02*
X50670113Y-33673152D01*
X50670113Y-33673152D02*
X50717732Y-33768390D01*
X50717732Y-33768390D02*
X50765351Y-33816009D01*
X50765351Y-33816009D02*
X50860589Y-33863628D01*
X50860589Y-33863628D02*
X51241541Y-33863628D01*
X50241541Y-34339819D02*
X50241541Y-33673152D01*
X50241541Y-33339819D02*
X50289160Y-33387438D01*
X50289160Y-33387438D02*
X50241541Y-33435057D01*
X50241541Y-33435057D02*
X50193922Y-33387438D01*
X50193922Y-33387438D02*
X50241541Y-33339819D01*
X50241541Y-33339819D02*
X50241541Y-33435057D01*
X49336780Y-33673152D02*
X49336780Y-34482676D01*
X49336780Y-34482676D02*
X49384399Y-34577914D01*
X49384399Y-34577914D02*
X49432018Y-34625533D01*
X49432018Y-34625533D02*
X49527256Y-34673152D01*
X49527256Y-34673152D02*
X49670113Y-34673152D01*
X49670113Y-34673152D02*
X49765351Y-34625533D01*
X49336780Y-34292200D02*
X49432018Y-34339819D01*
X49432018Y-34339819D02*
X49622494Y-34339819D01*
X49622494Y-34339819D02*
X49717732Y-34292200D01*
X49717732Y-34292200D02*
X49765351Y-34244580D01*
X49765351Y-34244580D02*
X49812970Y-34149342D01*
X49812970Y-34149342D02*
X49812970Y-33863628D01*
X49812970Y-33863628D02*
X49765351Y-33768390D01*
X49765351Y-33768390D02*
X49717732Y-33720771D01*
X49717732Y-33720771D02*
X49622494Y-33673152D01*
X49622494Y-33673152D02*
X49432018Y-33673152D01*
X49432018Y-33673152D02*
X49336780Y-33720771D01*
X48860589Y-34339819D02*
X48860589Y-33339819D01*
X48432018Y-34339819D02*
X48432018Y-33816009D01*
X48432018Y-33816009D02*
X48479637Y-33720771D01*
X48479637Y-33720771D02*
X48574875Y-33673152D01*
X48574875Y-33673152D02*
X48717732Y-33673152D01*
X48717732Y-33673152D02*
X48812970Y-33720771D01*
X48812970Y-33720771D02*
X48860589Y-33768390D01*
X48098684Y-33673152D02*
X47717732Y-33673152D01*
X47955827Y-33339819D02*
X47955827Y-34196961D01*
X47955827Y-34196961D02*
X47908208Y-34292200D01*
X47908208Y-34292200D02*
X47812970Y-34339819D01*
X47812970Y-34339819D02*
X47717732Y-34339819D01*
X46622493Y-34339819D02*
X46622493Y-33339819D01*
X46622493Y-33816009D02*
X46051065Y-33816009D01*
X46051065Y-34339819D02*
X46051065Y-33339819D01*
X45146303Y-34339819D02*
X45146303Y-33816009D01*
X45146303Y-33816009D02*
X45193922Y-33720771D01*
X45193922Y-33720771D02*
X45289160Y-33673152D01*
X45289160Y-33673152D02*
X45479636Y-33673152D01*
X45479636Y-33673152D02*
X45574874Y-33720771D01*
X45146303Y-34292200D02*
X45241541Y-34339819D01*
X45241541Y-34339819D02*
X45479636Y-34339819D01*
X45479636Y-34339819D02*
X45574874Y-34292200D01*
X45574874Y-34292200D02*
X45622493Y-34196961D01*
X45622493Y-34196961D02*
X45622493Y-34101723D01*
X45622493Y-34101723D02*
X45574874Y-34006485D01*
X45574874Y-34006485D02*
X45479636Y-33958866D01*
X45479636Y-33958866D02*
X45241541Y-33958866D01*
X45241541Y-33958866D02*
X45146303Y-33911247D01*
X44670112Y-33673152D02*
X44670112Y-34339819D01*
X44670112Y-33768390D02*
X44622493Y-33720771D01*
X44622493Y-33720771D02*
X44527255Y-33673152D01*
X44527255Y-33673152D02*
X44384398Y-33673152D01*
X44384398Y-33673152D02*
X44289160Y-33720771D01*
X44289160Y-33720771D02*
X44241541Y-33816009D01*
X44241541Y-33816009D02*
X44241541Y-34339819D01*
X43336779Y-34339819D02*
X43336779Y-33339819D01*
X43336779Y-34292200D02*
X43432017Y-34339819D01*
X43432017Y-34339819D02*
X43622493Y-34339819D01*
X43622493Y-34339819D02*
X43717731Y-34292200D01*
X43717731Y-34292200D02*
X43765350Y-34244580D01*
X43765350Y-34244580D02*
X43812969Y-34149342D01*
X43812969Y-34149342D02*
X43812969Y-33863628D01*
X43812969Y-33863628D02*
X43765350Y-33768390D01*
X43765350Y-33768390D02*
X43717731Y-33720771D01*
X43717731Y-33720771D02*
X43622493Y-33673152D01*
X43622493Y-33673152D02*
X43432017Y-33673152D01*
X43432017Y-33673152D02*
X43336779Y-33720771D01*
X52717734Y-35426009D02*
X53051067Y-35426009D01*
X53051067Y-35949819D02*
X53051067Y-34949819D01*
X53051067Y-34949819D02*
X52574877Y-34949819D01*
X51908210Y-34949819D02*
X51908210Y-35664104D01*
X51908210Y-35664104D02*
X51955829Y-35806961D01*
X51955829Y-35806961D02*
X52051067Y-35902200D01*
X52051067Y-35902200D02*
X52193924Y-35949819D01*
X52193924Y-35949819D02*
X52289162Y-35949819D01*
X50336781Y-35426009D02*
X50193924Y-35473628D01*
X50193924Y-35473628D02*
X50146305Y-35521247D01*
X50146305Y-35521247D02*
X50098686Y-35616485D01*
X50098686Y-35616485D02*
X50098686Y-35759342D01*
X50098686Y-35759342D02*
X50146305Y-35854580D01*
X50146305Y-35854580D02*
X50193924Y-35902200D01*
X50193924Y-35902200D02*
X50289162Y-35949819D01*
X50289162Y-35949819D02*
X50670114Y-35949819D01*
X50670114Y-35949819D02*
X50670114Y-34949819D01*
X50670114Y-34949819D02*
X50336781Y-34949819D01*
X50336781Y-34949819D02*
X50241543Y-34997438D01*
X50241543Y-34997438D02*
X50193924Y-35045057D01*
X50193924Y-35045057D02*
X50146305Y-35140295D01*
X50146305Y-35140295D02*
X50146305Y-35235533D01*
X50146305Y-35235533D02*
X50193924Y-35330771D01*
X50193924Y-35330771D02*
X50241543Y-35378390D01*
X50241543Y-35378390D02*
X50336781Y-35426009D01*
X50336781Y-35426009D02*
X50670114Y-35426009D01*
X49670114Y-35949819D02*
X49670114Y-35283152D01*
X49670114Y-35473628D02*
X49622495Y-35378390D01*
X49622495Y-35378390D02*
X49574876Y-35330771D01*
X49574876Y-35330771D02*
X49479638Y-35283152D01*
X49479638Y-35283152D02*
X49384400Y-35283152D01*
X48670114Y-35902200D02*
X48765352Y-35949819D01*
X48765352Y-35949819D02*
X48955828Y-35949819D01*
X48955828Y-35949819D02*
X49051066Y-35902200D01*
X49051066Y-35902200D02*
X49098685Y-35806961D01*
X49098685Y-35806961D02*
X49098685Y-35426009D01*
X49098685Y-35426009D02*
X49051066Y-35330771D01*
X49051066Y-35330771D02*
X48955828Y-35283152D01*
X48955828Y-35283152D02*
X48765352Y-35283152D01*
X48765352Y-35283152D02*
X48670114Y-35330771D01*
X48670114Y-35330771D02*
X48622495Y-35426009D01*
X48622495Y-35426009D02*
X48622495Y-35521247D01*
X48622495Y-35521247D02*
X49098685Y-35616485D01*
X47765352Y-35949819D02*
X47765352Y-35426009D01*
X47765352Y-35426009D02*
X47812971Y-35330771D01*
X47812971Y-35330771D02*
X47908209Y-35283152D01*
X47908209Y-35283152D02*
X48098685Y-35283152D01*
X48098685Y-35283152D02*
X48193923Y-35330771D01*
X47765352Y-35902200D02*
X47860590Y-35949819D01*
X47860590Y-35949819D02*
X48098685Y-35949819D01*
X48098685Y-35949819D02*
X48193923Y-35902200D01*
X48193923Y-35902200D02*
X48241542Y-35806961D01*
X48241542Y-35806961D02*
X48241542Y-35711723D01*
X48241542Y-35711723D02*
X48193923Y-35616485D01*
X48193923Y-35616485D02*
X48098685Y-35568866D01*
X48098685Y-35568866D02*
X47860590Y-35568866D01*
X47860590Y-35568866D02*
X47765352Y-35521247D01*
X47289161Y-35949819D02*
X47289161Y-34949819D01*
X47193923Y-35568866D02*
X46908209Y-35949819D01*
X46908209Y-35283152D02*
X47289161Y-35664104D01*
X46336780Y-35949819D02*
X46432018Y-35902200D01*
X46432018Y-35902200D02*
X46479637Y-35806961D01*
X46479637Y-35806961D02*
X46479637Y-34949819D01*
X45574875Y-35902200D02*
X45670113Y-35949819D01*
X45670113Y-35949819D02*
X45860589Y-35949819D01*
X45860589Y-35949819D02*
X45955827Y-35902200D01*
X45955827Y-35902200D02*
X46003446Y-35806961D01*
X46003446Y-35806961D02*
X46003446Y-35426009D01*
X46003446Y-35426009D02*
X45955827Y-35330771D01*
X45955827Y-35330771D02*
X45860589Y-35283152D01*
X45860589Y-35283152D02*
X45670113Y-35283152D01*
X45670113Y-35283152D02*
X45574875Y-35330771D01*
X45574875Y-35330771D02*
X45527256Y-35426009D01*
X45527256Y-35426009D02*
X45527256Y-35521247D01*
X45527256Y-35521247D02*
X46003446Y-35616485D01*
X45193922Y-35283152D02*
X44955827Y-35949819D01*
X44955827Y-35949819D02*
X44717732Y-35283152D01*
X43955827Y-35902200D02*
X44051065Y-35949819D01*
X44051065Y-35949819D02*
X44241541Y-35949819D01*
X44241541Y-35949819D02*
X44336779Y-35902200D01*
X44336779Y-35902200D02*
X44384398Y-35806961D01*
X44384398Y-35806961D02*
X44384398Y-35426009D01*
X44384398Y-35426009D02*
X44336779Y-35330771D01*
X44336779Y-35330771D02*
X44241541Y-35283152D01*
X44241541Y-35283152D02*
X44051065Y-35283152D01*
X44051065Y-35283152D02*
X43955827Y-35330771D01*
X43955827Y-35330771D02*
X43908208Y-35426009D01*
X43908208Y-35426009D02*
X43908208Y-35521247D01*
X43908208Y-35521247D02*
X44384398Y-35616485D01*
X43479636Y-35949819D02*
X43479636Y-35283152D01*
X43479636Y-35473628D02*
X43432017Y-35378390D01*
X43432017Y-35378390D02*
X43384398Y-35330771D01*
X43384398Y-35330771D02*
X43289160Y-35283152D01*
X43289160Y-35283152D02*
X43193922Y-35283152D01*
D11*
X41467068Y-26631585D02*
X41502782Y-26667300D01*
X41502782Y-26667300D02*
X41609925Y-26703014D01*
X41609925Y-26703014D02*
X41681353Y-26703014D01*
X41681353Y-26703014D02*
X41788496Y-26667300D01*
X41788496Y-26667300D02*
X41859925Y-26595871D01*
X41859925Y-26595871D02*
X41895639Y-26524442D01*
X41895639Y-26524442D02*
X41931353Y-26381585D01*
X41931353Y-26381585D02*
X41931353Y-26274442D01*
X41931353Y-26274442D02*
X41895639Y-26131585D01*
X41895639Y-26131585D02*
X41859925Y-26060157D01*
X41859925Y-26060157D02*
X41788496Y-25988728D01*
X41788496Y-25988728D02*
X41681353Y-25953014D01*
X41681353Y-25953014D02*
X41609925Y-25953014D01*
X41609925Y-25953014D02*
X41502782Y-25988728D01*
X41502782Y-25988728D02*
X41467068Y-26024442D01*
X41145639Y-26310157D02*
X40895639Y-26310157D01*
X40788496Y-26703014D02*
X41145639Y-26703014D01*
X41145639Y-26703014D02*
X41145639Y-25953014D01*
X41145639Y-25953014D02*
X40788496Y-25953014D01*
X42395639Y-24203014D02*
X42395639Y-23453014D01*
X42395639Y-23453014D02*
X42145639Y-23988728D01*
X42145639Y-23988728D02*
X41895639Y-23453014D01*
X41895639Y-23453014D02*
X41895639Y-24203014D01*
X41538496Y-24203014D02*
X41538496Y-23453014D01*
X41217067Y-24167300D02*
X41109925Y-24203014D01*
X41109925Y-24203014D02*
X40931353Y-24203014D01*
X40931353Y-24203014D02*
X40859925Y-24167300D01*
X40859925Y-24167300D02*
X40824210Y-24131585D01*
X40824210Y-24131585D02*
X40788496Y-24060157D01*
X40788496Y-24060157D02*
X40788496Y-23988728D01*
X40788496Y-23988728D02*
X40824210Y-23917300D01*
X40824210Y-23917300D02*
X40859925Y-23881585D01*
X40859925Y-23881585D02*
X40931353Y-23845871D01*
X40931353Y-23845871D02*
X41074210Y-23810157D01*
X41074210Y-23810157D02*
X41145639Y-23774442D01*
X41145639Y-23774442D02*
X41181353Y-23738728D01*
X41181353Y-23738728D02*
X41217067Y-23667300D01*
X41217067Y-23667300D02*
X41217067Y-23595871D01*
X41217067Y-23595871D02*
X41181353Y-23524442D01*
X41181353Y-23524442D02*
X41145639Y-23488728D01*
X41145639Y-23488728D02*
X41074210Y-23453014D01*
X41074210Y-23453014D02*
X40895639Y-23453014D01*
X40895639Y-23453014D02*
X40788496Y-23488728D01*
X40324210Y-23453014D02*
X40181353Y-23453014D01*
X40181353Y-23453014D02*
X40109924Y-23488728D01*
X40109924Y-23488728D02*
X40038496Y-23560157D01*
X40038496Y-23560157D02*
X40002781Y-23703014D01*
X40002781Y-23703014D02*
X40002781Y-23953014D01*
X40002781Y-23953014D02*
X40038496Y-24095871D01*
X40038496Y-24095871D02*
X40109924Y-24167300D01*
X40109924Y-24167300D02*
X40181353Y-24203014D01*
X40181353Y-24203014D02*
X40324210Y-24203014D01*
X40324210Y-24203014D02*
X40395639Y-24167300D01*
X40395639Y-24167300D02*
X40467067Y-24095871D01*
X40467067Y-24095871D02*
X40502781Y-23953014D01*
X40502781Y-23953014D02*
X40502781Y-23703014D01*
X40502781Y-23703014D02*
X40467067Y-23560157D01*
X40467067Y-23560157D02*
X40395639Y-23488728D01*
X40395639Y-23488728D02*
X40324210Y-23453014D01*
X41502782Y-33488728D02*
X41574211Y-33453014D01*
X41574211Y-33453014D02*
X41681353Y-33453014D01*
X41681353Y-33453014D02*
X41788496Y-33488728D01*
X41788496Y-33488728D02*
X41859925Y-33560157D01*
X41859925Y-33560157D02*
X41895639Y-33631585D01*
X41895639Y-33631585D02*
X41931353Y-33774442D01*
X41931353Y-33774442D02*
X41931353Y-33881585D01*
X41931353Y-33881585D02*
X41895639Y-34024442D01*
X41895639Y-34024442D02*
X41859925Y-34095871D01*
X41859925Y-34095871D02*
X41788496Y-34167300D01*
X41788496Y-34167300D02*
X41681353Y-34203014D01*
X41681353Y-34203014D02*
X41609925Y-34203014D01*
X41609925Y-34203014D02*
X41502782Y-34167300D01*
X41502782Y-34167300D02*
X41467068Y-34131585D01*
X41467068Y-34131585D02*
X41467068Y-33881585D01*
X41467068Y-33881585D02*
X41609925Y-33881585D01*
X41145639Y-34203014D02*
X41145639Y-33453014D01*
X41145639Y-33453014D02*
X40717068Y-34203014D01*
X40717068Y-34203014D02*
X40717068Y-33453014D01*
X40359925Y-34203014D02*
X40359925Y-33453014D01*
X40359925Y-33453014D02*
X40181354Y-33453014D01*
X40181354Y-33453014D02*
X40074211Y-33488728D01*
X40074211Y-33488728D02*
X40002782Y-33560157D01*
X40002782Y-33560157D02*
X39967068Y-33631585D01*
X39967068Y-33631585D02*
X39931354Y-33774442D01*
X39931354Y-33774442D02*
X39931354Y-33881585D01*
X39931354Y-33881585D02*
X39967068Y-34024442D01*
X39967068Y-34024442D02*
X40002782Y-34095871D01*
X40002782Y-34095871D02*
X40074211Y-34167300D01*
X40074211Y-34167300D02*
X40181354Y-34203014D01*
X40181354Y-34203014D02*
X40359925Y-34203014D01*
X41467068Y-29131585D02*
X41502782Y-29167300D01*
X41502782Y-29167300D02*
X41609925Y-29203014D01*
X41609925Y-29203014D02*
X41681353Y-29203014D01*
X41681353Y-29203014D02*
X41788496Y-29167300D01*
X41788496Y-29167300D02*
X41859925Y-29095871D01*
X41859925Y-29095871D02*
X41895639Y-29024442D01*
X41895639Y-29024442D02*
X41931353Y-28881585D01*
X41931353Y-28881585D02*
X41931353Y-28774442D01*
X41931353Y-28774442D02*
X41895639Y-28631585D01*
X41895639Y-28631585D02*
X41859925Y-28560157D01*
X41859925Y-28560157D02*
X41788496Y-28488728D01*
X41788496Y-28488728D02*
X41681353Y-28453014D01*
X41681353Y-28453014D02*
X41609925Y-28453014D01*
X41609925Y-28453014D02*
X41502782Y-28488728D01*
X41502782Y-28488728D02*
X41467068Y-28524442D01*
X40788496Y-29203014D02*
X41145639Y-29203014D01*
X41145639Y-29203014D02*
X41145639Y-28453014D01*
X40538496Y-29203014D02*
X40538496Y-28453014D01*
X40109925Y-29203014D02*
X40431353Y-28774442D01*
X40109925Y-28453014D02*
X40538496Y-28881585D01*
X42002782Y-30953014D02*
X41752782Y-31703014D01*
X41752782Y-31703014D02*
X41502782Y-30953014D01*
X40824211Y-31631585D02*
X40859925Y-31667300D01*
X40859925Y-31667300D02*
X40967068Y-31703014D01*
X40967068Y-31703014D02*
X41038496Y-31703014D01*
X41038496Y-31703014D02*
X41145639Y-31667300D01*
X41145639Y-31667300D02*
X41217068Y-31595871D01*
X41217068Y-31595871D02*
X41252782Y-31524442D01*
X41252782Y-31524442D02*
X41288496Y-31381585D01*
X41288496Y-31381585D02*
X41288496Y-31274442D01*
X41288496Y-31274442D02*
X41252782Y-31131585D01*
X41252782Y-31131585D02*
X41217068Y-31060157D01*
X41217068Y-31060157D02*
X41145639Y-30988728D01*
X41145639Y-30988728D02*
X41038496Y-30953014D01*
X41038496Y-30953014D02*
X40967068Y-30953014D01*
X40967068Y-30953014D02*
X40859925Y-30988728D01*
X40859925Y-30988728D02*
X40824211Y-31024442D01*
X40074211Y-31631585D02*
X40109925Y-31667300D01*
X40109925Y-31667300D02*
X40217068Y-31703014D01*
X40217068Y-31703014D02*
X40288496Y-31703014D01*
X40288496Y-31703014D02*
X40395639Y-31667300D01*
X40395639Y-31667300D02*
X40467068Y-31595871D01*
X40467068Y-31595871D02*
X40502782Y-31524442D01*
X40502782Y-31524442D02*
X40538496Y-31381585D01*
X40538496Y-31381585D02*
X40538496Y-31274442D01*
X40538496Y-31274442D02*
X40502782Y-31131585D01*
X40502782Y-31131585D02*
X40467068Y-31060157D01*
X40467068Y-31060157D02*
X40395639Y-30988728D01*
X40395639Y-30988728D02*
X40288496Y-30953014D01*
X40288496Y-30953014D02*
X40217068Y-30953014D01*
X40217068Y-30953014D02*
X40109925Y-30988728D01*
X40109925Y-30988728D02*
X40074211Y-31024442D01*
D10*
X53436904Y-24854819D02*
X53436904Y-25664342D01*
X53436904Y-25664342D02*
X53389285Y-25759580D01*
X53389285Y-25759580D02*
X53341666Y-25807200D01*
X53341666Y-25807200D02*
X53246428Y-25854819D01*
X53246428Y-25854819D02*
X53055952Y-25854819D01*
X53055952Y-25854819D02*
X52960714Y-25807200D01*
X52960714Y-25807200D02*
X52913095Y-25759580D01*
X52913095Y-25759580D02*
X52865476Y-25664342D01*
X52865476Y-25664342D02*
X52865476Y-24854819D01*
X52436904Y-24950057D02*
X52389285Y-24902438D01*
X52389285Y-24902438D02*
X52294047Y-24854819D01*
X52294047Y-24854819D02*
X52055952Y-24854819D01*
X52055952Y-24854819D02*
X51960714Y-24902438D01*
X51960714Y-24902438D02*
X51913095Y-24950057D01*
X51913095Y-24950057D02*
X51865476Y-25045295D01*
X51865476Y-25045295D02*
X51865476Y-25140533D01*
X51865476Y-25140533D02*
X51913095Y-25283390D01*
X51913095Y-25283390D02*
X52484523Y-25854819D01*
X52484523Y-25854819D02*
X51865476Y-25854819D01*
X54750000Y-27475000D02*
X54750000Y-27330000D01*
X54750000Y-27475000D02*
X50600000Y-27475000D01*
X54750000Y-22375000D02*
X56150000Y-22375000D01*
X54750000Y-22325000D02*
X54750000Y-22375000D01*
X54750000Y-22325000D02*
X50600000Y-22325000D01*
X50600000Y-27475000D02*
X50600000Y-27330000D01*
X50600000Y-22325000D02*
X50600000Y-22470000D01*
%LPC*%
D12*
X68570000Y-25030001D03*
D13*
X66070000Y-25030001D03*
X63570000Y-25030001D03*
D14*
X60070000Y-32900001D03*
X66070000Y-29900001D03*
D15*
X38640000Y-33800000D03*
D16*
X38640000Y-31300000D03*
X38640000Y-28800000D03*
X38640000Y-26300000D03*
X38640000Y-23800000D03*
D17*
X55400000Y-22995000D03*
X55400000Y-24265000D03*
X55400000Y-25535000D03*
X55400000Y-26805000D03*
X49950000Y-26805000D03*
X49950000Y-25535000D03*
X49950000Y-24265000D03*
X49950000Y-22995000D03*
%LPD*%
M02*
