%TF.GenerationSoftware,KiCad,Pcbnew,7.0.6*%
%TF.CreationDate,2023-07-13T14:43:26+02:00*%
%TF.ProjectId,LH_BreakLever_FreeJoy,4c485f42-7265-4616-9b4c-657665725f46,rev?*%
%TF.SameCoordinates,Original*%
%TF.FileFunction,Copper,L2,Bot*%
%TF.FilePolarity,Positive*%
%FSLAX46Y46*%
G04 Gerber Fmt 4.6, Leading zero omitted, Abs format (unit mm)*
G04 Created by KiCad (PCBNEW 7.0.6) date 2023-07-13 14:43:26*
%MOMM*%
%LPD*%
G01*
G04 APERTURE LIST*
G04 Aperture macros list*
%AMRoundRect*
0 Rectangle with rounded corners*
0 $1 Rounding radius*
0 $2 $3 $4 $5 $6 $7 $8 $9 X,Y pos of 4 corners*
0 Add a 4 corners polygon primitive as box body*
4,1,4,$2,$3,$4,$5,$6,$7,$8,$9,$2,$3,0*
0 Add four circle primitives for the rounded corners*
1,1,$1+$1,$2,$3*
1,1,$1+$1,$4,$5*
1,1,$1+$1,$6,$7*
1,1,$1+$1,$8,$9*
0 Add four rect primitives between the rounded corners*
20,1,$1+$1,$2,$3,$4,$5,0*
20,1,$1+$1,$4,$5,$6,$7,0*
20,1,$1+$1,$6,$7,$8,$9,0*
20,1,$1+$1,$8,$9,$2,$3,0*%
G04 Aperture macros list end*
%TA.AperFunction,ComponentPad*%
%ADD10R,1.030000X1.030000*%
%TD*%
%TA.AperFunction,ComponentPad*%
%ADD11C,1.030000*%
%TD*%
%TA.AperFunction,ComponentPad*%
%ADD12RoundRect,0.250000X0.725000X-0.600000X0.725000X0.600000X-0.725000X0.600000X-0.725000X-0.600000X0*%
%TD*%
%TA.AperFunction,ComponentPad*%
%ADD13O,1.950000X1.700000*%
%TD*%
G04 APERTURE END LIST*
D10*
X63570000Y-25030001D03*
D11*
X66070000Y-25030001D03*
X68570000Y-25030001D03*
D12*
X39080000Y-33790000D03*
D13*
X39080000Y-31290000D03*
X39080000Y-28790000D03*
X39080000Y-26290000D03*
X39080000Y-23790000D03*
%TA.AperFunction,Conductor*%
G36*
X70173514Y-21208895D02*
G01*
X70265268Y-21219234D01*
X70292766Y-21225510D01*
X70369858Y-21252486D01*
X70395265Y-21264721D01*
X70464431Y-21308181D01*
X70486484Y-21325769D01*
X70544230Y-21383515D01*
X70561819Y-21405569D01*
X70605276Y-21474730D01*
X70617515Y-21500146D01*
X70644487Y-21577228D01*
X70650766Y-21604735D01*
X70661104Y-21696483D01*
X70661500Y-21703543D01*
X70661500Y-36046456D01*
X70661104Y-36053516D01*
X70650766Y-36145264D01*
X70644487Y-36172771D01*
X70617515Y-36249853D01*
X70605273Y-36275275D01*
X70561822Y-36344426D01*
X70544230Y-36366484D01*
X70486484Y-36424230D01*
X70464425Y-36441822D01*
X70395272Y-36485274D01*
X70369853Y-36497515D01*
X70292771Y-36524487D01*
X70265264Y-36530766D01*
X70208418Y-36537171D01*
X70173513Y-36541104D01*
X70166456Y-36541500D01*
X35768544Y-36541500D01*
X35761486Y-36541104D01*
X35713854Y-36535737D01*
X35669735Y-36530766D01*
X35642228Y-36524487D01*
X35565146Y-36497515D01*
X35539730Y-36485276D01*
X35470569Y-36441819D01*
X35448515Y-36424230D01*
X35390769Y-36366484D01*
X35373181Y-36344431D01*
X35329721Y-36275265D01*
X35317486Y-36249858D01*
X35290510Y-36172766D01*
X35284234Y-36145268D01*
X35273895Y-36053514D01*
X35273500Y-36046456D01*
X35273500Y-34440516D01*
X37597000Y-34440516D01*
X37607605Y-34544318D01*
X37607606Y-34544321D01*
X37663342Y-34712525D01*
X37756365Y-34863339D01*
X37756370Y-34863345D01*
X37881654Y-34988629D01*
X37881660Y-34988634D01*
X38032474Y-35081657D01*
X38200678Y-35137393D01*
X38200681Y-35137394D01*
X38304483Y-35147999D01*
X38304483Y-35148000D01*
X38953000Y-35148000D01*
X38953000Y-34251624D01*
X39046025Y-34265000D01*
X39113975Y-34265000D01*
X39206999Y-34251624D01*
X39207000Y-35148000D01*
X39855517Y-35148000D01*
X39855516Y-35147999D01*
X39959318Y-35137394D01*
X39959321Y-35137393D01*
X40127525Y-35081657D01*
X40278339Y-34988634D01*
X40278345Y-34988629D01*
X40403629Y-34863345D01*
X40403634Y-34863339D01*
X40496657Y-34712525D01*
X40552393Y-34544321D01*
X40552394Y-34544318D01*
X40562999Y-34440516D01*
X40563000Y-34440516D01*
X40563000Y-33917000D01*
X39537763Y-33917000D01*
X39555000Y-33858295D01*
X39555000Y-33721705D01*
X39537763Y-33663000D01*
X40563000Y-33663000D01*
X40563000Y-33139483D01*
X40552394Y-33035681D01*
X40552393Y-33035678D01*
X40507435Y-32900000D01*
X58714341Y-32900000D01*
X58734937Y-33135412D01*
X58796096Y-33363662D01*
X58796098Y-33363666D01*
X58895966Y-33577833D01*
X59031498Y-33771393D01*
X59031502Y-33771398D01*
X59031505Y-33771402D01*
X59198599Y-33938496D01*
X59198603Y-33938499D01*
X59198607Y-33938502D01*
X59392167Y-34074034D01*
X59392166Y-34074034D01*
X59456982Y-34104258D01*
X59606337Y-34173904D01*
X59834592Y-34235064D01*
X60011034Y-34250501D01*
X60011035Y-34250501D01*
X60128965Y-34250501D01*
X60128966Y-34250501D01*
X60305408Y-34235064D01*
X60533663Y-34173904D01*
X60747829Y-34074036D01*
X60941401Y-33938496D01*
X61108495Y-33771402D01*
X61244035Y-33577831D01*
X61343903Y-33363664D01*
X61405063Y-33135409D01*
X61425659Y-32900001D01*
X61405063Y-32664593D01*
X61343903Y-32436338D01*
X61244035Y-32222172D01*
X61244034Y-32222170D01*
X61244033Y-32222168D01*
X61108501Y-32028608D01*
X61108497Y-32028603D01*
X61108495Y-32028600D01*
X60941401Y-31861506D01*
X60941397Y-31861503D01*
X60941392Y-31861499D01*
X60747832Y-31725967D01*
X60747833Y-31725967D01*
X60533665Y-31626099D01*
X60533661Y-31626097D01*
X60305411Y-31564938D01*
X60152751Y-31551582D01*
X60128966Y-31549501D01*
X60011034Y-31549501D01*
X59987249Y-31551582D01*
X59834588Y-31564938D01*
X59606338Y-31626097D01*
X59606334Y-31626099D01*
X59392167Y-31725967D01*
X59198607Y-31861499D01*
X59198596Y-31861508D01*
X59031507Y-32028597D01*
X59031502Y-32028603D01*
X58895965Y-32222170D01*
X58796098Y-32436335D01*
X58796096Y-32436339D01*
X58734937Y-32664589D01*
X58714341Y-32900000D01*
X40507435Y-32900000D01*
X40496657Y-32867474D01*
X40403634Y-32716660D01*
X40403629Y-32716654D01*
X40278345Y-32591370D01*
X40278339Y-32591365D01*
X40127525Y-32498342D01*
X39959321Y-32442606D01*
X39959318Y-32442605D01*
X39886036Y-32435118D01*
X39820301Y-32408296D01*
X39779503Y-32350193D01*
X39776594Y-32279256D01*
X39812498Y-32218007D01*
X39820941Y-32210739D01*
X39970659Y-32093000D01*
X40108792Y-31933587D01*
X40214259Y-31750913D01*
X40283248Y-31551580D01*
X40313267Y-31342793D01*
X40303231Y-31132098D01*
X40253501Y-30927110D01*
X40165876Y-30735238D01*
X40043522Y-30563416D01*
X39890862Y-30417855D01*
X39890859Y-30417853D01*
X39890857Y-30417851D01*
X39713413Y-30303816D01*
X39603848Y-30259953D01*
X39517589Y-30225420D01*
X39517586Y-30225419D01*
X39517585Y-30225419D01*
X39310471Y-30185500D01*
X39310467Y-30185500D01*
X38902387Y-30185500D01*
X38902369Y-30185500D01*
X38745030Y-30200525D01*
X38745015Y-30200528D01*
X38542629Y-30259953D01*
X38355148Y-30356607D01*
X38355141Y-30356611D01*
X38189347Y-30486994D01*
X38189334Y-30487006D01*
X38051212Y-30646407D01*
X38051206Y-30646415D01*
X37945743Y-30829083D01*
X37945739Y-30829092D01*
X37876753Y-31028417D01*
X37876750Y-31028425D01*
X37846732Y-31237205D01*
X37856768Y-31447893D01*
X37856769Y-31447904D01*
X37906498Y-31652886D01*
X37906498Y-31652888D01*
X37906499Y-31652890D01*
X37994124Y-31844762D01*
X38116478Y-32016584D01*
X38269138Y-32162145D01*
X38269140Y-32162146D01*
X38269142Y-32162148D01*
X38333276Y-32203364D01*
X38379769Y-32257019D01*
X38389874Y-32327293D01*
X38360381Y-32391874D01*
X38300655Y-32430258D01*
X38277964Y-32434709D01*
X38200681Y-32442605D01*
X38200678Y-32442606D01*
X38032474Y-32498342D01*
X37881660Y-32591365D01*
X37881654Y-32591370D01*
X37756370Y-32716654D01*
X37756365Y-32716660D01*
X37663342Y-32867474D01*
X37607606Y-33035678D01*
X37607605Y-33035681D01*
X37597000Y-33139483D01*
X37597000Y-33663000D01*
X38622237Y-33663000D01*
X38605000Y-33721705D01*
X38605000Y-33858295D01*
X38622237Y-33917000D01*
X37597000Y-33917000D01*
X37597000Y-34440516D01*
X35273500Y-34440516D01*
X35273500Y-29900001D01*
X64714341Y-29900001D01*
X64734937Y-30135412D01*
X64796096Y-30363662D01*
X64796098Y-30363666D01*
X64895966Y-30577833D01*
X65031498Y-30771393D01*
X65031502Y-30771398D01*
X65031505Y-30771402D01*
X65198599Y-30938496D01*
X65198603Y-30938499D01*
X65198607Y-30938502D01*
X65392167Y-31074034D01*
X65392166Y-31074034D01*
X65468304Y-31109538D01*
X65606337Y-31173904D01*
X65834592Y-31235064D01*
X66011034Y-31250501D01*
X66011035Y-31250501D01*
X66128965Y-31250501D01*
X66128966Y-31250501D01*
X66305408Y-31235064D01*
X66533663Y-31173904D01*
X66747829Y-31074036D01*
X66941401Y-30938496D01*
X67108495Y-30771402D01*
X67244035Y-30577831D01*
X67343903Y-30363664D01*
X67405063Y-30135409D01*
X67425659Y-29900001D01*
X67405063Y-29664593D01*
X67343903Y-29436338D01*
X67244035Y-29222172D01*
X67244034Y-29222170D01*
X67244033Y-29222168D01*
X67108501Y-29028608D01*
X67108497Y-29028603D01*
X67108495Y-29028600D01*
X66941401Y-28861506D01*
X66941397Y-28861503D01*
X66941392Y-28861499D01*
X66747832Y-28725967D01*
X66747833Y-28725967D01*
X66546530Y-28632098D01*
X66533663Y-28626098D01*
X66533661Y-28626097D01*
X66305411Y-28564938D01*
X66173076Y-28553360D01*
X66128966Y-28549501D01*
X66011034Y-28549501D01*
X65975745Y-28552588D01*
X65834588Y-28564938D01*
X65606338Y-28626097D01*
X65606334Y-28626099D01*
X65392167Y-28725967D01*
X65198607Y-28861499D01*
X65198596Y-28861508D01*
X65031507Y-29028597D01*
X65031502Y-29028603D01*
X64895965Y-29222170D01*
X64796098Y-29436335D01*
X64796096Y-29436339D01*
X64734937Y-29664589D01*
X64714341Y-29900001D01*
X35273500Y-29900001D01*
X35273500Y-28737205D01*
X37846732Y-28737205D01*
X37856768Y-28947893D01*
X37856769Y-28947904D01*
X37906498Y-29152886D01*
X37906498Y-29152888D01*
X37906499Y-29152890D01*
X37994124Y-29344762D01*
X38116478Y-29516584D01*
X38269138Y-29662145D01*
X38269140Y-29662146D01*
X38269142Y-29662148D01*
X38272947Y-29664593D01*
X38446587Y-29776184D01*
X38642411Y-29854580D01*
X38849533Y-29894500D01*
X38849537Y-29894500D01*
X39257613Y-29894500D01*
X39257630Y-29894499D01*
X39414969Y-29879474D01*
X39414969Y-29879473D01*
X39414979Y-29879473D01*
X39617368Y-29820047D01*
X39804854Y-29723391D01*
X39970659Y-29593000D01*
X40108792Y-29433587D01*
X40214259Y-29250913D01*
X40283248Y-29051580D01*
X40286552Y-29028600D01*
X40313267Y-28842794D01*
X40313267Y-28842793D01*
X40303231Y-28632098D01*
X40253501Y-28427110D01*
X40165876Y-28235238D01*
X40043522Y-28063416D01*
X39890862Y-27917855D01*
X39890859Y-27917853D01*
X39890857Y-27917851D01*
X39713413Y-27803816D01*
X39603848Y-27759953D01*
X39517589Y-27725420D01*
X39517586Y-27725419D01*
X39517585Y-27725419D01*
X39310471Y-27685500D01*
X39310467Y-27685500D01*
X38902387Y-27685500D01*
X38902369Y-27685500D01*
X38745030Y-27700525D01*
X38745015Y-27700528D01*
X38542629Y-27759953D01*
X38355148Y-27856607D01*
X38355141Y-27856611D01*
X38189347Y-27986994D01*
X38189334Y-27987006D01*
X38051212Y-28146407D01*
X38051206Y-28146415D01*
X37945743Y-28329083D01*
X37945739Y-28329092D01*
X37876753Y-28528417D01*
X37876750Y-28528425D01*
X37846732Y-28737205D01*
X35273500Y-28737205D01*
X35273500Y-26237205D01*
X37846732Y-26237205D01*
X37856768Y-26447893D01*
X37856769Y-26447904D01*
X37906498Y-26652886D01*
X37906498Y-26652888D01*
X37906499Y-26652890D01*
X37994124Y-26844762D01*
X38116478Y-27016584D01*
X38269138Y-27162145D01*
X38269140Y-27162146D01*
X38269142Y-27162148D01*
X38364434Y-27223388D01*
X38446587Y-27276184D01*
X38642411Y-27354580D01*
X38849533Y-27394500D01*
X38849537Y-27394500D01*
X39257613Y-27394500D01*
X39257630Y-27394499D01*
X39414969Y-27379474D01*
X39414969Y-27379473D01*
X39414979Y-27379473D01*
X39617368Y-27320047D01*
X39804854Y-27223391D01*
X39970659Y-27093000D01*
X40108792Y-26933587D01*
X40214259Y-26750913D01*
X40283248Y-26551580D01*
X40313267Y-26342793D01*
X40303231Y-26132098D01*
X40253501Y-25927110D01*
X40165876Y-25735238D01*
X40048256Y-25570064D01*
X62800500Y-25570064D01*
X62800501Y-25570074D01*
X62815265Y-25644301D01*
X62871516Y-25728485D01*
X62955697Y-25784734D01*
X62955699Y-25784735D01*
X63029933Y-25799501D01*
X64110066Y-25799500D01*
X64110069Y-25799499D01*
X64110073Y-25799499D01*
X64159326Y-25789702D01*
X64184301Y-25784735D01*
X64268484Y-25728485D01*
X64324734Y-25644302D01*
X64339500Y-25570068D01*
X64339500Y-25030004D01*
X65042050Y-25030004D01*
X65061800Y-25230537D01*
X65120298Y-25423380D01*
X65215291Y-25601099D01*
X65262171Y-25658222D01*
X65756802Y-25163591D01*
X65771009Y-25202623D01*
X65848081Y-25294474D01*
X65934967Y-25344638D01*
X65441777Y-25837827D01*
X65498904Y-25884711D01*
X65676620Y-25979702D01*
X65869463Y-26038200D01*
X66069997Y-26057951D01*
X66070003Y-26057951D01*
X66270536Y-26038200D01*
X66463379Y-25979702D01*
X66641093Y-25884712D01*
X66641098Y-25884709D01*
X66698222Y-25837828D01*
X66698222Y-25837827D01*
X66205032Y-25344637D01*
X66291919Y-25294474D01*
X66368991Y-25202624D01*
X66383196Y-25163593D01*
X66877826Y-25658223D01*
X66877827Y-25658223D01*
X66924708Y-25601099D01*
X66924711Y-25601094D01*
X67019701Y-25423380D01*
X67078199Y-25230537D01*
X67097950Y-25030004D01*
X67097950Y-25030001D01*
X67795631Y-25030001D01*
X67815046Y-25202314D01*
X67850563Y-25303816D01*
X67872318Y-25365987D01*
X67872319Y-25365989D01*
X67964573Y-25512812D01*
X68087188Y-25635427D01*
X68211299Y-25713410D01*
X68234014Y-25727683D01*
X68397687Y-25784955D01*
X68570000Y-25804370D01*
X68742313Y-25784955D01*
X68905986Y-25727683D01*
X69052811Y-25635427D01*
X69175426Y-25512812D01*
X69267682Y-25365987D01*
X69324954Y-25202314D01*
X69344369Y-25030001D01*
X69324954Y-24857688D01*
X69267682Y-24694015D01*
X69231619Y-24636621D01*
X69175426Y-24547189D01*
X69052811Y-24424574D01*
X68905988Y-24332320D01*
X68905986Y-24332319D01*
X68903691Y-24331516D01*
X68742313Y-24275047D01*
X68570000Y-24255632D01*
X68397687Y-24275047D01*
X68397684Y-24275047D01*
X68397684Y-24275048D01*
X68234013Y-24332319D01*
X68234011Y-24332320D01*
X68087188Y-24424574D01*
X67964573Y-24547189D01*
X67872319Y-24694012D01*
X67872318Y-24694014D01*
X67815154Y-24857378D01*
X67815046Y-24857688D01*
X67795631Y-25030001D01*
X67097950Y-25030001D01*
X67097950Y-25029997D01*
X67078199Y-24829464D01*
X67019701Y-24636621D01*
X66924710Y-24458905D01*
X66877826Y-24401778D01*
X66383196Y-24896408D01*
X66368991Y-24857379D01*
X66291919Y-24765528D01*
X66205031Y-24715363D01*
X66698222Y-24222172D01*
X66641098Y-24175292D01*
X66463379Y-24080299D01*
X66270536Y-24021801D01*
X66070003Y-24002051D01*
X66069997Y-24002051D01*
X65869463Y-24021801D01*
X65676620Y-24080299D01*
X65498904Y-24175290D01*
X65441776Y-24222173D01*
X65934967Y-24715364D01*
X65848081Y-24765528D01*
X65771009Y-24857378D01*
X65756803Y-24896408D01*
X65262172Y-24401777D01*
X65215289Y-24458905D01*
X65120298Y-24636621D01*
X65061800Y-24829464D01*
X65042050Y-25029997D01*
X65042050Y-25030004D01*
X64339500Y-25030004D01*
X64339499Y-24489935D01*
X64339498Y-24489931D01*
X64339498Y-24489927D01*
X64324734Y-24415700D01*
X64277334Y-24344762D01*
X64268484Y-24331517D01*
X64268483Y-24331516D01*
X64184302Y-24275267D01*
X64110067Y-24260501D01*
X63029936Y-24260501D01*
X63029926Y-24260502D01*
X62955699Y-24275266D01*
X62871515Y-24331517D01*
X62815266Y-24415698D01*
X62800500Y-24489931D01*
X62800500Y-25570064D01*
X40048256Y-25570064D01*
X40043522Y-25563416D01*
X39890862Y-25417855D01*
X39890859Y-25417853D01*
X39890857Y-25417851D01*
X39713413Y-25303816D01*
X39603848Y-25259953D01*
X39517589Y-25225420D01*
X39517586Y-25225419D01*
X39517585Y-25225419D01*
X39310471Y-25185500D01*
X39310467Y-25185500D01*
X38902387Y-25185500D01*
X38902369Y-25185500D01*
X38745030Y-25200525D01*
X38745015Y-25200528D01*
X38542629Y-25259953D01*
X38355148Y-25356607D01*
X38355141Y-25356611D01*
X38189347Y-25486994D01*
X38189334Y-25487006D01*
X38051212Y-25646407D01*
X38051206Y-25646415D01*
X37945743Y-25829083D01*
X37945739Y-25829092D01*
X37876753Y-26028417D01*
X37876750Y-26028425D01*
X37846732Y-26237205D01*
X35273500Y-26237205D01*
X35273500Y-23737205D01*
X37846732Y-23737205D01*
X37856768Y-23947893D01*
X37856769Y-23947904D01*
X37906498Y-24152886D01*
X37906498Y-24152888D01*
X37906499Y-24152890D01*
X37994124Y-24344762D01*
X38116478Y-24516584D01*
X38269138Y-24662145D01*
X38269140Y-24662146D01*
X38269142Y-24662148D01*
X38312483Y-24690001D01*
X38446587Y-24776184D01*
X38642411Y-24854580D01*
X38849533Y-24894500D01*
X38849537Y-24894500D01*
X39257613Y-24894500D01*
X39257630Y-24894499D01*
X39414969Y-24879474D01*
X39414969Y-24879473D01*
X39414979Y-24879473D01*
X39617368Y-24820047D01*
X39804854Y-24723391D01*
X39970659Y-24593000D01*
X40108792Y-24433587D01*
X40214259Y-24250913D01*
X40283248Y-24051580D01*
X40313267Y-23842793D01*
X40303231Y-23632098D01*
X40253501Y-23427110D01*
X40165876Y-23235238D01*
X40043522Y-23063416D01*
X39890862Y-22917855D01*
X39890859Y-22917853D01*
X39890857Y-22917851D01*
X39713413Y-22803816D01*
X39603848Y-22759953D01*
X39517589Y-22725420D01*
X39517586Y-22725419D01*
X39517585Y-22725419D01*
X39310471Y-22685500D01*
X39310467Y-22685500D01*
X38902387Y-22685500D01*
X38902369Y-22685500D01*
X38745030Y-22700525D01*
X38745015Y-22700528D01*
X38542629Y-22759953D01*
X38355148Y-22856607D01*
X38355141Y-22856611D01*
X38189347Y-22986994D01*
X38189334Y-22987006D01*
X38051212Y-23146407D01*
X38051206Y-23146415D01*
X37945743Y-23329083D01*
X37945739Y-23329092D01*
X37876753Y-23528417D01*
X37876750Y-23528425D01*
X37846732Y-23737205D01*
X35273500Y-23737205D01*
X35273500Y-21703542D01*
X35273896Y-21696483D01*
X35284234Y-21604729D01*
X35290510Y-21577235D01*
X35317488Y-21500137D01*
X35329719Y-21474737D01*
X35373184Y-21405563D01*
X35390765Y-21383519D01*
X35448519Y-21325765D01*
X35470563Y-21308184D01*
X35539737Y-21264719D01*
X35565137Y-21252488D01*
X35642235Y-21225510D01*
X35669731Y-21219234D01*
X35761485Y-21208895D01*
X35768544Y-21208500D01*
X35831945Y-21208500D01*
X70103055Y-21208500D01*
X70166456Y-21208500D01*
X70173514Y-21208895D01*
G37*
%TD.AperFunction*%
M02*
