%TF.GenerationSoftware,KiCad,Pcbnew,7.0.6*%
%TF.CreationDate,2023-07-13T14:43:26+02:00*%
%TF.ProjectId,LH_BreakLever_FreeJoy,4c485f42-7265-4616-9b4c-657665725f46,rev?*%
%TF.SameCoordinates,Original*%
%TF.FileFunction,Legend,Top*%
%TF.FilePolarity,Positive*%
%FSLAX46Y46*%
G04 Gerber Fmt 4.6, Leading zero omitted, Abs format (unit mm)*
G04 Created by KiCad (PCBNEW 7.0.6) date 2023-07-13 14:43:26*
%MOMM*%
%LPD*%
G01*
G04 APERTURE LIST*
G04 Aperture macros list*
%AMRoundRect*
0 Rectangle with rounded corners*
0 $1 Rounding radius*
0 $2 $3 $4 $5 $6 $7 $8 $9 X,Y pos of 4 corners*
0 Add a 4 corners polygon primitive as box body*
4,1,4,$2,$3,$4,$5,$6,$7,$8,$9,$2,$3,0*
0 Add four circle primitives for the rounded corners*
1,1,$1+$1,$2,$3*
1,1,$1+$1,$4,$5*
1,1,$1+$1,$6,$7*
1,1,$1+$1,$8,$9*
0 Add four rect primitives between the rounded corners*
20,1,$1+$1,$2,$3,$4,$5,0*
20,1,$1+$1,$4,$5,$6,$7,0*
20,1,$1+$1,$6,$7,$8,$9,0*
20,1,$1+$1,$8,$9,$2,$3,0*%
G04 Aperture macros list end*
%ADD10C,0.150000*%
%ADD11C,0.100000*%
%ADD12C,2.200000*%
%ADD13R,2.000000X0.600000*%
%ADD14R,1.030000X1.030000*%
%ADD15C,1.030000*%
%ADD16RoundRect,0.250000X0.725000X-0.600000X0.725000X0.600000X-0.725000X0.600000X-0.725000X-0.600000X0*%
%ADD17O,1.950000X1.700000*%
G04 APERTURE END LIST*
D10*
X43096779Y-32719819D02*
X43096779Y-31719819D01*
X43096779Y-31719819D02*
X43668207Y-32719819D01*
X43668207Y-32719819D02*
X43668207Y-31719819D01*
X44287255Y-32719819D02*
X44192017Y-32672200D01*
X44192017Y-32672200D02*
X44144398Y-32624580D01*
X44144398Y-32624580D02*
X44096779Y-32529342D01*
X44096779Y-32529342D02*
X44096779Y-32243628D01*
X44096779Y-32243628D02*
X44144398Y-32148390D01*
X44144398Y-32148390D02*
X44192017Y-32100771D01*
X44192017Y-32100771D02*
X44287255Y-32053152D01*
X44287255Y-32053152D02*
X44430112Y-32053152D01*
X44430112Y-32053152D02*
X44525350Y-32100771D01*
X44525350Y-32100771D02*
X44572969Y-32148390D01*
X44572969Y-32148390D02*
X44620588Y-32243628D01*
X44620588Y-32243628D02*
X44620588Y-32529342D01*
X44620588Y-32529342D02*
X44572969Y-32624580D01*
X44572969Y-32624580D02*
X44525350Y-32672200D01*
X44525350Y-32672200D02*
X44430112Y-32719819D01*
X44430112Y-32719819D02*
X44287255Y-32719819D01*
X45049160Y-32719819D02*
X45049160Y-31719819D01*
X45049160Y-31719819D02*
X45430112Y-31719819D01*
X45430112Y-31719819D02*
X45525350Y-31767438D01*
X45525350Y-31767438D02*
X45572969Y-31815057D01*
X45572969Y-31815057D02*
X45620588Y-31910295D01*
X45620588Y-31910295D02*
X45620588Y-32053152D01*
X45620588Y-32053152D02*
X45572969Y-32148390D01*
X45572969Y-32148390D02*
X45525350Y-32196009D01*
X45525350Y-32196009D02*
X45430112Y-32243628D01*
X45430112Y-32243628D02*
X45049160Y-32243628D01*
X46192017Y-32719819D02*
X46096779Y-32672200D01*
X46096779Y-32672200D02*
X46049160Y-32576961D01*
X46049160Y-32576961D02*
X46049160Y-31719819D01*
X47001541Y-32719819D02*
X47001541Y-32196009D01*
X47001541Y-32196009D02*
X46953922Y-32100771D01*
X46953922Y-32100771D02*
X46858684Y-32053152D01*
X46858684Y-32053152D02*
X46668208Y-32053152D01*
X46668208Y-32053152D02*
X46572970Y-32100771D01*
X47001541Y-32672200D02*
X46906303Y-32719819D01*
X46906303Y-32719819D02*
X46668208Y-32719819D01*
X46668208Y-32719819D02*
X46572970Y-32672200D01*
X46572970Y-32672200D02*
X46525351Y-32576961D01*
X46525351Y-32576961D02*
X46525351Y-32481723D01*
X46525351Y-32481723D02*
X46572970Y-32386485D01*
X46572970Y-32386485D02*
X46668208Y-32338866D01*
X46668208Y-32338866D02*
X46906303Y-32338866D01*
X46906303Y-32338866D02*
X47001541Y-32291247D01*
X47477732Y-32053152D02*
X47477732Y-32719819D01*
X47477732Y-32148390D02*
X47525351Y-32100771D01*
X47525351Y-32100771D02*
X47620589Y-32053152D01*
X47620589Y-32053152D02*
X47763446Y-32053152D01*
X47763446Y-32053152D02*
X47858684Y-32100771D01*
X47858684Y-32100771D02*
X47906303Y-32196009D01*
X47906303Y-32196009D02*
X47906303Y-32719819D01*
X48382494Y-32719819D02*
X48382494Y-31719819D01*
X48382494Y-31719819D02*
X48953922Y-32719819D01*
X48953922Y-32719819D02*
X48953922Y-31719819D01*
X49572970Y-32719819D02*
X49477732Y-32672200D01*
X49477732Y-32672200D02*
X49430113Y-32624580D01*
X49430113Y-32624580D02*
X49382494Y-32529342D01*
X49382494Y-32529342D02*
X49382494Y-32243628D01*
X49382494Y-32243628D02*
X49430113Y-32148390D01*
X49430113Y-32148390D02*
X49477732Y-32100771D01*
X49477732Y-32100771D02*
X49572970Y-32053152D01*
X49572970Y-32053152D02*
X49715827Y-32053152D01*
X49715827Y-32053152D02*
X49811065Y-32100771D01*
X49811065Y-32100771D02*
X49858684Y-32148390D01*
X49858684Y-32148390D02*
X49906303Y-32243628D01*
X49906303Y-32243628D02*
X49906303Y-32529342D01*
X49906303Y-32529342D02*
X49858684Y-32624580D01*
X49858684Y-32624580D02*
X49811065Y-32672200D01*
X49811065Y-32672200D02*
X49715827Y-32719819D01*
X49715827Y-32719819D02*
X49572970Y-32719819D01*
X50334875Y-32719819D02*
X50334875Y-32053152D01*
X50334875Y-32148390D02*
X50382494Y-32100771D01*
X50382494Y-32100771D02*
X50477732Y-32053152D01*
X50477732Y-32053152D02*
X50620589Y-32053152D01*
X50620589Y-32053152D02*
X50715827Y-32100771D01*
X50715827Y-32100771D02*
X50763446Y-32196009D01*
X50763446Y-32196009D02*
X50763446Y-32719819D01*
X50763446Y-32196009D02*
X50811065Y-32100771D01*
X50811065Y-32100771D02*
X50906303Y-32053152D01*
X50906303Y-32053152D02*
X51049160Y-32053152D01*
X51049160Y-32053152D02*
X51144399Y-32100771D01*
X51144399Y-32100771D02*
X51192018Y-32196009D01*
X51192018Y-32196009D02*
X51192018Y-32719819D01*
X52096779Y-32719819D02*
X52096779Y-32196009D01*
X52096779Y-32196009D02*
X52049160Y-32100771D01*
X52049160Y-32100771D02*
X51953922Y-32053152D01*
X51953922Y-32053152D02*
X51763446Y-32053152D01*
X51763446Y-32053152D02*
X51668208Y-32100771D01*
X52096779Y-32672200D02*
X52001541Y-32719819D01*
X52001541Y-32719819D02*
X51763446Y-32719819D01*
X51763446Y-32719819D02*
X51668208Y-32672200D01*
X51668208Y-32672200D02*
X51620589Y-32576961D01*
X51620589Y-32576961D02*
X51620589Y-32481723D01*
X51620589Y-32481723D02*
X51668208Y-32386485D01*
X51668208Y-32386485D02*
X51763446Y-32338866D01*
X51763446Y-32338866D02*
X52001541Y-32338866D01*
X52001541Y-32338866D02*
X52096779Y-32291247D01*
X53001541Y-32719819D02*
X53001541Y-31719819D01*
X53001541Y-32672200D02*
X52906303Y-32719819D01*
X52906303Y-32719819D02*
X52715827Y-32719819D01*
X52715827Y-32719819D02*
X52620589Y-32672200D01*
X52620589Y-32672200D02*
X52572970Y-32624580D01*
X52572970Y-32624580D02*
X52525351Y-32529342D01*
X52525351Y-32529342D02*
X52525351Y-32243628D01*
X52525351Y-32243628D02*
X52572970Y-32148390D01*
X52572970Y-32148390D02*
X52620589Y-32100771D01*
X52620589Y-32100771D02*
X52715827Y-32053152D01*
X52715827Y-32053152D02*
X52906303Y-32053152D01*
X52906303Y-32053152D02*
X53001541Y-32100771D01*
X43430112Y-33806009D02*
X43096779Y-33806009D01*
X43096779Y-34329819D02*
X43096779Y-33329819D01*
X43096779Y-33329819D02*
X43572969Y-33329819D01*
X44096779Y-34329819D02*
X44001541Y-34282200D01*
X44001541Y-34282200D02*
X43953922Y-34186961D01*
X43953922Y-34186961D02*
X43953922Y-33329819D01*
X44906303Y-34329819D02*
X44906303Y-33806009D01*
X44906303Y-33806009D02*
X44858684Y-33710771D01*
X44858684Y-33710771D02*
X44763446Y-33663152D01*
X44763446Y-33663152D02*
X44572970Y-33663152D01*
X44572970Y-33663152D02*
X44477732Y-33710771D01*
X44906303Y-34282200D02*
X44811065Y-34329819D01*
X44811065Y-34329819D02*
X44572970Y-34329819D01*
X44572970Y-34329819D02*
X44477732Y-34282200D01*
X44477732Y-34282200D02*
X44430113Y-34186961D01*
X44430113Y-34186961D02*
X44430113Y-34091723D01*
X44430113Y-34091723D02*
X44477732Y-33996485D01*
X44477732Y-33996485D02*
X44572970Y-33948866D01*
X44572970Y-33948866D02*
X44811065Y-33948866D01*
X44811065Y-33948866D02*
X44906303Y-33901247D01*
X45382494Y-33663152D02*
X45382494Y-34329819D01*
X45382494Y-33758390D02*
X45430113Y-33710771D01*
X45430113Y-33710771D02*
X45525351Y-33663152D01*
X45525351Y-33663152D02*
X45668208Y-33663152D01*
X45668208Y-33663152D02*
X45763446Y-33710771D01*
X45763446Y-33710771D02*
X45811065Y-33806009D01*
X45811065Y-33806009D02*
X45811065Y-34329819D01*
X46287256Y-34329819D02*
X46287256Y-33329819D01*
X46382494Y-33948866D02*
X46668208Y-34329819D01*
X46668208Y-33663152D02*
X46287256Y-34044104D01*
X47477732Y-34282200D02*
X47382494Y-34329819D01*
X47382494Y-34329819D02*
X47192018Y-34329819D01*
X47192018Y-34329819D02*
X47096780Y-34282200D01*
X47096780Y-34282200D02*
X47049161Y-34186961D01*
X47049161Y-34186961D02*
X47049161Y-33806009D01*
X47049161Y-33806009D02*
X47096780Y-33710771D01*
X47096780Y-33710771D02*
X47192018Y-33663152D01*
X47192018Y-33663152D02*
X47382494Y-33663152D01*
X47382494Y-33663152D02*
X47477732Y-33710771D01*
X47477732Y-33710771D02*
X47525351Y-33806009D01*
X47525351Y-33806009D02*
X47525351Y-33901247D01*
X47525351Y-33901247D02*
X47049161Y-33996485D01*
X47953923Y-34329819D02*
X47953923Y-33663152D01*
X47953923Y-33853628D02*
X48001542Y-33758390D01*
X48001542Y-33758390D02*
X48049161Y-33710771D01*
X48049161Y-33710771D02*
X48144399Y-33663152D01*
X48144399Y-33663152D02*
X48239637Y-33663152D01*
X49811066Y-34329819D02*
X49334876Y-34329819D01*
X49334876Y-34329819D02*
X49334876Y-33329819D01*
X50525352Y-34282200D02*
X50430114Y-34329819D01*
X50430114Y-34329819D02*
X50239638Y-34329819D01*
X50239638Y-34329819D02*
X50144400Y-34282200D01*
X50144400Y-34282200D02*
X50096781Y-34186961D01*
X50096781Y-34186961D02*
X50096781Y-33806009D01*
X50096781Y-33806009D02*
X50144400Y-33710771D01*
X50144400Y-33710771D02*
X50239638Y-33663152D01*
X50239638Y-33663152D02*
X50430114Y-33663152D01*
X50430114Y-33663152D02*
X50525352Y-33710771D01*
X50525352Y-33710771D02*
X50572971Y-33806009D01*
X50572971Y-33806009D02*
X50572971Y-33901247D01*
X50572971Y-33901247D02*
X50096781Y-33996485D01*
X50858686Y-33663152D02*
X51239638Y-33663152D01*
X51001543Y-34329819D02*
X51001543Y-33472676D01*
X51001543Y-33472676D02*
X51049162Y-33377438D01*
X51049162Y-33377438D02*
X51144400Y-33329819D01*
X51144400Y-33329819D02*
X51239638Y-33329819D01*
X51430115Y-33663152D02*
X51811067Y-33663152D01*
X51572972Y-33329819D02*
X51572972Y-34186961D01*
X51572972Y-34186961D02*
X51620591Y-34282200D01*
X51620591Y-34282200D02*
X51715829Y-34329819D01*
X51715829Y-34329819D02*
X51811067Y-34329819D01*
X52906306Y-34329819D02*
X52906306Y-33329819D01*
X52906306Y-33806009D02*
X53477734Y-33806009D01*
X53477734Y-34329819D02*
X53477734Y-33329819D01*
X54382496Y-34329819D02*
X54382496Y-33806009D01*
X54382496Y-33806009D02*
X54334877Y-33710771D01*
X54334877Y-33710771D02*
X54239639Y-33663152D01*
X54239639Y-33663152D02*
X54049163Y-33663152D01*
X54049163Y-33663152D02*
X53953925Y-33710771D01*
X54382496Y-34282200D02*
X54287258Y-34329819D01*
X54287258Y-34329819D02*
X54049163Y-34329819D01*
X54049163Y-34329819D02*
X53953925Y-34282200D01*
X53953925Y-34282200D02*
X53906306Y-34186961D01*
X53906306Y-34186961D02*
X53906306Y-34091723D01*
X53906306Y-34091723D02*
X53953925Y-33996485D01*
X53953925Y-33996485D02*
X54049163Y-33948866D01*
X54049163Y-33948866D02*
X54287258Y-33948866D01*
X54287258Y-33948866D02*
X54382496Y-33901247D01*
X54858687Y-33663152D02*
X54858687Y-34329819D01*
X54858687Y-33758390D02*
X54906306Y-33710771D01*
X54906306Y-33710771D02*
X55001544Y-33663152D01*
X55001544Y-33663152D02*
X55144401Y-33663152D01*
X55144401Y-33663152D02*
X55239639Y-33710771D01*
X55239639Y-33710771D02*
X55287258Y-33806009D01*
X55287258Y-33806009D02*
X55287258Y-34329819D01*
X56192020Y-34329819D02*
X56192020Y-33329819D01*
X56192020Y-34282200D02*
X56096782Y-34329819D01*
X56096782Y-34329819D02*
X55906306Y-34329819D01*
X55906306Y-34329819D02*
X55811068Y-34282200D01*
X55811068Y-34282200D02*
X55763449Y-34234580D01*
X55763449Y-34234580D02*
X55715830Y-34139342D01*
X55715830Y-34139342D02*
X55715830Y-33853628D01*
X55715830Y-33853628D02*
X55763449Y-33758390D01*
X55763449Y-33758390D02*
X55811068Y-33710771D01*
X55811068Y-33710771D02*
X55906306Y-33663152D01*
X55906306Y-33663152D02*
X56096782Y-33663152D01*
X56096782Y-33663152D02*
X56192020Y-33710771D01*
X43430112Y-35416009D02*
X43096779Y-35416009D01*
X43096779Y-35939819D02*
X43096779Y-34939819D01*
X43096779Y-34939819D02*
X43572969Y-34939819D01*
X44239636Y-34939819D02*
X44239636Y-35654104D01*
X44239636Y-35654104D02*
X44192017Y-35796961D01*
X44192017Y-35796961D02*
X44096779Y-35892200D01*
X44096779Y-35892200D02*
X43953922Y-35939819D01*
X43953922Y-35939819D02*
X43858684Y-35939819D01*
X45811065Y-35416009D02*
X45953922Y-35463628D01*
X45953922Y-35463628D02*
X46001541Y-35511247D01*
X46001541Y-35511247D02*
X46049160Y-35606485D01*
X46049160Y-35606485D02*
X46049160Y-35749342D01*
X46049160Y-35749342D02*
X46001541Y-35844580D01*
X46001541Y-35844580D02*
X45953922Y-35892200D01*
X45953922Y-35892200D02*
X45858684Y-35939819D01*
X45858684Y-35939819D02*
X45477732Y-35939819D01*
X45477732Y-35939819D02*
X45477732Y-34939819D01*
X45477732Y-34939819D02*
X45811065Y-34939819D01*
X45811065Y-34939819D02*
X45906303Y-34987438D01*
X45906303Y-34987438D02*
X45953922Y-35035057D01*
X45953922Y-35035057D02*
X46001541Y-35130295D01*
X46001541Y-35130295D02*
X46001541Y-35225533D01*
X46001541Y-35225533D02*
X45953922Y-35320771D01*
X45953922Y-35320771D02*
X45906303Y-35368390D01*
X45906303Y-35368390D02*
X45811065Y-35416009D01*
X45811065Y-35416009D02*
X45477732Y-35416009D01*
X46477732Y-35939819D02*
X46477732Y-35273152D01*
X46477732Y-35463628D02*
X46525351Y-35368390D01*
X46525351Y-35368390D02*
X46572970Y-35320771D01*
X46572970Y-35320771D02*
X46668208Y-35273152D01*
X46668208Y-35273152D02*
X46763446Y-35273152D01*
X47477732Y-35892200D02*
X47382494Y-35939819D01*
X47382494Y-35939819D02*
X47192018Y-35939819D01*
X47192018Y-35939819D02*
X47096780Y-35892200D01*
X47096780Y-35892200D02*
X47049161Y-35796961D01*
X47049161Y-35796961D02*
X47049161Y-35416009D01*
X47049161Y-35416009D02*
X47096780Y-35320771D01*
X47096780Y-35320771D02*
X47192018Y-35273152D01*
X47192018Y-35273152D02*
X47382494Y-35273152D01*
X47382494Y-35273152D02*
X47477732Y-35320771D01*
X47477732Y-35320771D02*
X47525351Y-35416009D01*
X47525351Y-35416009D02*
X47525351Y-35511247D01*
X47525351Y-35511247D02*
X47049161Y-35606485D01*
X48382494Y-35939819D02*
X48382494Y-35416009D01*
X48382494Y-35416009D02*
X48334875Y-35320771D01*
X48334875Y-35320771D02*
X48239637Y-35273152D01*
X48239637Y-35273152D02*
X48049161Y-35273152D01*
X48049161Y-35273152D02*
X47953923Y-35320771D01*
X48382494Y-35892200D02*
X48287256Y-35939819D01*
X48287256Y-35939819D02*
X48049161Y-35939819D01*
X48049161Y-35939819D02*
X47953923Y-35892200D01*
X47953923Y-35892200D02*
X47906304Y-35796961D01*
X47906304Y-35796961D02*
X47906304Y-35701723D01*
X47906304Y-35701723D02*
X47953923Y-35606485D01*
X47953923Y-35606485D02*
X48049161Y-35558866D01*
X48049161Y-35558866D02*
X48287256Y-35558866D01*
X48287256Y-35558866D02*
X48382494Y-35511247D01*
X48858685Y-35939819D02*
X48858685Y-34939819D01*
X48953923Y-35558866D02*
X49239637Y-35939819D01*
X49239637Y-35273152D02*
X48858685Y-35654104D01*
X49811066Y-35939819D02*
X49715828Y-35892200D01*
X49715828Y-35892200D02*
X49668209Y-35796961D01*
X49668209Y-35796961D02*
X49668209Y-34939819D01*
X50572971Y-35892200D02*
X50477733Y-35939819D01*
X50477733Y-35939819D02*
X50287257Y-35939819D01*
X50287257Y-35939819D02*
X50192019Y-35892200D01*
X50192019Y-35892200D02*
X50144400Y-35796961D01*
X50144400Y-35796961D02*
X50144400Y-35416009D01*
X50144400Y-35416009D02*
X50192019Y-35320771D01*
X50192019Y-35320771D02*
X50287257Y-35273152D01*
X50287257Y-35273152D02*
X50477733Y-35273152D01*
X50477733Y-35273152D02*
X50572971Y-35320771D01*
X50572971Y-35320771D02*
X50620590Y-35416009D01*
X50620590Y-35416009D02*
X50620590Y-35511247D01*
X50620590Y-35511247D02*
X50144400Y-35606485D01*
X50953924Y-35273152D02*
X51192019Y-35939819D01*
X51192019Y-35939819D02*
X51430114Y-35273152D01*
X52192019Y-35892200D02*
X52096781Y-35939819D01*
X52096781Y-35939819D02*
X51906305Y-35939819D01*
X51906305Y-35939819D02*
X51811067Y-35892200D01*
X51811067Y-35892200D02*
X51763448Y-35796961D01*
X51763448Y-35796961D02*
X51763448Y-35416009D01*
X51763448Y-35416009D02*
X51811067Y-35320771D01*
X51811067Y-35320771D02*
X51906305Y-35273152D01*
X51906305Y-35273152D02*
X52096781Y-35273152D01*
X52096781Y-35273152D02*
X52192019Y-35320771D01*
X52192019Y-35320771D02*
X52239638Y-35416009D01*
X52239638Y-35416009D02*
X52239638Y-35511247D01*
X52239638Y-35511247D02*
X51763448Y-35606485D01*
X52668210Y-35939819D02*
X52668210Y-35273152D01*
X52668210Y-35463628D02*
X52715829Y-35368390D01*
X52715829Y-35368390D02*
X52763448Y-35320771D01*
X52763448Y-35320771D02*
X52858686Y-35273152D01*
X52858686Y-35273152D02*
X52953924Y-35273152D01*
X53438095Y-24354819D02*
X53438095Y-25164342D01*
X53438095Y-25164342D02*
X53485714Y-25259580D01*
X53485714Y-25259580D02*
X53533333Y-25307200D01*
X53533333Y-25307200D02*
X53628571Y-25354819D01*
X53628571Y-25354819D02*
X53819047Y-25354819D01*
X53819047Y-25354819D02*
X53914285Y-25307200D01*
X53914285Y-25307200D02*
X53961904Y-25259580D01*
X53961904Y-25259580D02*
X54009523Y-25164342D01*
X54009523Y-25164342D02*
X54009523Y-24354819D01*
X54438095Y-24450057D02*
X54485714Y-24402438D01*
X54485714Y-24402438D02*
X54580952Y-24354819D01*
X54580952Y-24354819D02*
X54819047Y-24354819D01*
X54819047Y-24354819D02*
X54914285Y-24402438D01*
X54914285Y-24402438D02*
X54961904Y-24450057D01*
X54961904Y-24450057D02*
X55009523Y-24545295D01*
X55009523Y-24545295D02*
X55009523Y-24640533D01*
X55009523Y-24640533D02*
X54961904Y-24783390D01*
X54961904Y-24783390D02*
X54390476Y-25354819D01*
X54390476Y-25354819D02*
X55009523Y-25354819D01*
D11*
X36252931Y-26621585D02*
X36217217Y-26657300D01*
X36217217Y-26657300D02*
X36110074Y-26693014D01*
X36110074Y-26693014D02*
X36038646Y-26693014D01*
X36038646Y-26693014D02*
X35931503Y-26657300D01*
X35931503Y-26657300D02*
X35860074Y-26585871D01*
X35860074Y-26585871D02*
X35824360Y-26514442D01*
X35824360Y-26514442D02*
X35788646Y-26371585D01*
X35788646Y-26371585D02*
X35788646Y-26264442D01*
X35788646Y-26264442D02*
X35824360Y-26121585D01*
X35824360Y-26121585D02*
X35860074Y-26050157D01*
X35860074Y-26050157D02*
X35931503Y-25978728D01*
X35931503Y-25978728D02*
X36038646Y-25943014D01*
X36038646Y-25943014D02*
X36110074Y-25943014D01*
X36110074Y-25943014D02*
X36217217Y-25978728D01*
X36217217Y-25978728D02*
X36252931Y-26014442D01*
X36574360Y-26300157D02*
X36824360Y-26300157D01*
X36931503Y-26693014D02*
X36574360Y-26693014D01*
X36574360Y-26693014D02*
X36574360Y-25943014D01*
X36574360Y-25943014D02*
X36931503Y-25943014D01*
X35324360Y-24193014D02*
X35324360Y-23443014D01*
X35324360Y-23443014D02*
X35574360Y-23978728D01*
X35574360Y-23978728D02*
X35824360Y-23443014D01*
X35824360Y-23443014D02*
X35824360Y-24193014D01*
X36181503Y-24193014D02*
X36181503Y-23443014D01*
X36502932Y-24157300D02*
X36610075Y-24193014D01*
X36610075Y-24193014D02*
X36788646Y-24193014D01*
X36788646Y-24193014D02*
X36860075Y-24157300D01*
X36860075Y-24157300D02*
X36895789Y-24121585D01*
X36895789Y-24121585D02*
X36931503Y-24050157D01*
X36931503Y-24050157D02*
X36931503Y-23978728D01*
X36931503Y-23978728D02*
X36895789Y-23907300D01*
X36895789Y-23907300D02*
X36860075Y-23871585D01*
X36860075Y-23871585D02*
X36788646Y-23835871D01*
X36788646Y-23835871D02*
X36645789Y-23800157D01*
X36645789Y-23800157D02*
X36574360Y-23764442D01*
X36574360Y-23764442D02*
X36538646Y-23728728D01*
X36538646Y-23728728D02*
X36502932Y-23657300D01*
X36502932Y-23657300D02*
X36502932Y-23585871D01*
X36502932Y-23585871D02*
X36538646Y-23514442D01*
X36538646Y-23514442D02*
X36574360Y-23478728D01*
X36574360Y-23478728D02*
X36645789Y-23443014D01*
X36645789Y-23443014D02*
X36824360Y-23443014D01*
X36824360Y-23443014D02*
X36931503Y-23478728D01*
X37395789Y-23443014D02*
X37538646Y-23443014D01*
X37538646Y-23443014D02*
X37610075Y-23478728D01*
X37610075Y-23478728D02*
X37681503Y-23550157D01*
X37681503Y-23550157D02*
X37717218Y-23693014D01*
X37717218Y-23693014D02*
X37717218Y-23943014D01*
X37717218Y-23943014D02*
X37681503Y-24085871D01*
X37681503Y-24085871D02*
X37610075Y-24157300D01*
X37610075Y-24157300D02*
X37538646Y-24193014D01*
X37538646Y-24193014D02*
X37395789Y-24193014D01*
X37395789Y-24193014D02*
X37324361Y-24157300D01*
X37324361Y-24157300D02*
X37252932Y-24085871D01*
X37252932Y-24085871D02*
X37217218Y-23943014D01*
X37217218Y-23943014D02*
X37217218Y-23693014D01*
X37217218Y-23693014D02*
X37252932Y-23550157D01*
X37252932Y-23550157D02*
X37324361Y-23478728D01*
X37324361Y-23478728D02*
X37395789Y-23443014D01*
X36217217Y-33478728D02*
X36145789Y-33443014D01*
X36145789Y-33443014D02*
X36038646Y-33443014D01*
X36038646Y-33443014D02*
X35931503Y-33478728D01*
X35931503Y-33478728D02*
X35860074Y-33550157D01*
X35860074Y-33550157D02*
X35824360Y-33621585D01*
X35824360Y-33621585D02*
X35788646Y-33764442D01*
X35788646Y-33764442D02*
X35788646Y-33871585D01*
X35788646Y-33871585D02*
X35824360Y-34014442D01*
X35824360Y-34014442D02*
X35860074Y-34085871D01*
X35860074Y-34085871D02*
X35931503Y-34157300D01*
X35931503Y-34157300D02*
X36038646Y-34193014D01*
X36038646Y-34193014D02*
X36110074Y-34193014D01*
X36110074Y-34193014D02*
X36217217Y-34157300D01*
X36217217Y-34157300D02*
X36252931Y-34121585D01*
X36252931Y-34121585D02*
X36252931Y-33871585D01*
X36252931Y-33871585D02*
X36110074Y-33871585D01*
X36574360Y-34193014D02*
X36574360Y-33443014D01*
X36574360Y-33443014D02*
X37002931Y-34193014D01*
X37002931Y-34193014D02*
X37002931Y-33443014D01*
X37360074Y-34193014D02*
X37360074Y-33443014D01*
X37360074Y-33443014D02*
X37538645Y-33443014D01*
X37538645Y-33443014D02*
X37645788Y-33478728D01*
X37645788Y-33478728D02*
X37717217Y-33550157D01*
X37717217Y-33550157D02*
X37752931Y-33621585D01*
X37752931Y-33621585D02*
X37788645Y-33764442D01*
X37788645Y-33764442D02*
X37788645Y-33871585D01*
X37788645Y-33871585D02*
X37752931Y-34014442D01*
X37752931Y-34014442D02*
X37717217Y-34085871D01*
X37717217Y-34085871D02*
X37645788Y-34157300D01*
X37645788Y-34157300D02*
X37538645Y-34193014D01*
X37538645Y-34193014D02*
X37360074Y-34193014D01*
X36252931Y-29121585D02*
X36217217Y-29157300D01*
X36217217Y-29157300D02*
X36110074Y-29193014D01*
X36110074Y-29193014D02*
X36038646Y-29193014D01*
X36038646Y-29193014D02*
X35931503Y-29157300D01*
X35931503Y-29157300D02*
X35860074Y-29085871D01*
X35860074Y-29085871D02*
X35824360Y-29014442D01*
X35824360Y-29014442D02*
X35788646Y-28871585D01*
X35788646Y-28871585D02*
X35788646Y-28764442D01*
X35788646Y-28764442D02*
X35824360Y-28621585D01*
X35824360Y-28621585D02*
X35860074Y-28550157D01*
X35860074Y-28550157D02*
X35931503Y-28478728D01*
X35931503Y-28478728D02*
X36038646Y-28443014D01*
X36038646Y-28443014D02*
X36110074Y-28443014D01*
X36110074Y-28443014D02*
X36217217Y-28478728D01*
X36217217Y-28478728D02*
X36252931Y-28514442D01*
X36931503Y-29193014D02*
X36574360Y-29193014D01*
X36574360Y-29193014D02*
X36574360Y-28443014D01*
X37181503Y-29193014D02*
X37181503Y-28443014D01*
X37610074Y-29193014D02*
X37288646Y-28764442D01*
X37610074Y-28443014D02*
X37181503Y-28871585D01*
X35717217Y-30943014D02*
X35967217Y-31693014D01*
X35967217Y-31693014D02*
X36217217Y-30943014D01*
X36895788Y-31621585D02*
X36860074Y-31657300D01*
X36860074Y-31657300D02*
X36752931Y-31693014D01*
X36752931Y-31693014D02*
X36681503Y-31693014D01*
X36681503Y-31693014D02*
X36574360Y-31657300D01*
X36574360Y-31657300D02*
X36502931Y-31585871D01*
X36502931Y-31585871D02*
X36467217Y-31514442D01*
X36467217Y-31514442D02*
X36431503Y-31371585D01*
X36431503Y-31371585D02*
X36431503Y-31264442D01*
X36431503Y-31264442D02*
X36467217Y-31121585D01*
X36467217Y-31121585D02*
X36502931Y-31050157D01*
X36502931Y-31050157D02*
X36574360Y-30978728D01*
X36574360Y-30978728D02*
X36681503Y-30943014D01*
X36681503Y-30943014D02*
X36752931Y-30943014D01*
X36752931Y-30943014D02*
X36860074Y-30978728D01*
X36860074Y-30978728D02*
X36895788Y-31014442D01*
X37645788Y-31621585D02*
X37610074Y-31657300D01*
X37610074Y-31657300D02*
X37502931Y-31693014D01*
X37502931Y-31693014D02*
X37431503Y-31693014D01*
X37431503Y-31693014D02*
X37324360Y-31657300D01*
X37324360Y-31657300D02*
X37252931Y-31585871D01*
X37252931Y-31585871D02*
X37217217Y-31514442D01*
X37217217Y-31514442D02*
X37181503Y-31371585D01*
X37181503Y-31371585D02*
X37181503Y-31264442D01*
X37181503Y-31264442D02*
X37217217Y-31121585D01*
X37217217Y-31121585D02*
X37252931Y-31050157D01*
X37252931Y-31050157D02*
X37324360Y-30978728D01*
X37324360Y-30978728D02*
X37431503Y-30943014D01*
X37431503Y-30943014D02*
X37502931Y-30943014D01*
X37502931Y-30943014D02*
X37610074Y-30978728D01*
X37610074Y-30978728D02*
X37645788Y-31014442D01*
D10*
X56275000Y-27975000D02*
X56275000Y-27925000D01*
X56275000Y-27975000D02*
X52125000Y-27975000D01*
X56275000Y-27925000D02*
X57675000Y-27925000D01*
X56275000Y-22825000D02*
X56275000Y-22970000D01*
X56275000Y-22825000D02*
X52125000Y-22825000D01*
X52125000Y-27975000D02*
X52125000Y-27830000D01*
X52125000Y-22825000D02*
X52125000Y-22970000D01*
%LPC*%
D12*
X60070000Y-32900001D03*
D13*
X56925000Y-27305000D03*
X56925000Y-26035000D03*
X56925000Y-24765000D03*
X56925000Y-23495000D03*
X51475000Y-23495000D03*
X51475000Y-24765000D03*
X51475000Y-26035000D03*
X51475000Y-27305000D03*
D12*
X66070000Y-29900001D03*
D14*
X63570000Y-25030001D03*
D15*
X66070000Y-25030001D03*
X68570000Y-25030001D03*
D16*
X39080000Y-33790000D03*
D17*
X39080000Y-31290000D03*
X39080000Y-28790000D03*
X39080000Y-26290000D03*
X39080000Y-23790000D03*
%LPD*%
M02*
