%TF.GenerationSoftware,KiCad,Pcbnew,7.0.6*%
%TF.CreationDate,2023-07-13T14:43:25+02:00*%
%TF.ProjectId,LH_BreakLever_FreeJoy,4c485f42-7265-4616-9b4c-657665725f46,rev?*%
%TF.SameCoordinates,Original*%
%TF.FileFunction,Copper,L1,Top*%
%TF.FilePolarity,Positive*%
%FSLAX46Y46*%
G04 Gerber Fmt 4.6, Leading zero omitted, Abs format (unit mm)*
G04 Created by KiCad (PCBNEW 7.0.6) date 2023-07-13 14:43:25*
%MOMM*%
%LPD*%
G01*
G04 APERTURE LIST*
G04 Aperture macros list*
%AMRoundRect*
0 Rectangle with rounded corners*
0 $1 Rounding radius*
0 $2 $3 $4 $5 $6 $7 $8 $9 X,Y pos of 4 corners*
0 Add a 4 corners polygon primitive as box body*
4,1,4,$2,$3,$4,$5,$6,$7,$8,$9,$2,$3,0*
0 Add four circle primitives for the rounded corners*
1,1,$1+$1,$2,$3*
1,1,$1+$1,$4,$5*
1,1,$1+$1,$6,$7*
1,1,$1+$1,$8,$9*
0 Add four rect primitives between the rounded corners*
20,1,$1+$1,$2,$3,$4,$5,0*
20,1,$1+$1,$4,$5,$6,$7,0*
20,1,$1+$1,$6,$7,$8,$9,0*
20,1,$1+$1,$8,$9,$2,$3,0*%
G04 Aperture macros list end*
%TA.AperFunction,SMDPad,CuDef*%
%ADD10R,2.000000X0.600000*%
%TD*%
%TA.AperFunction,ComponentPad*%
%ADD11R,1.030000X1.030000*%
%TD*%
%TA.AperFunction,ComponentPad*%
%ADD12C,1.030000*%
%TD*%
%TA.AperFunction,ComponentPad*%
%ADD13RoundRect,0.250000X0.725000X-0.600000X0.725000X0.600000X-0.725000X0.600000X-0.725000X-0.600000X0*%
%TD*%
%TA.AperFunction,ComponentPad*%
%ADD14O,1.950000X1.700000*%
%TD*%
%TA.AperFunction,Conductor*%
%ADD15C,0.508000*%
%TD*%
G04 APERTURE END LIST*
D10*
X56925000Y-27305000D03*
X56925000Y-26035000D03*
X56925000Y-24765000D03*
X56925000Y-23495000D03*
X51475000Y-23495000D03*
X51475000Y-24765000D03*
X51475000Y-26035000D03*
X51475000Y-27305000D03*
D11*
X63570000Y-25030001D03*
D12*
X66070000Y-25030001D03*
X68570000Y-25030001D03*
D13*
X39080000Y-33790000D03*
D14*
X39080000Y-31290000D03*
X39080000Y-28790000D03*
X39080000Y-26290000D03*
X39080000Y-23790000D03*
D15*
X44400000Y-31300000D02*
X39090000Y-31300000D01*
X48395000Y-27305000D02*
X44400000Y-31300000D01*
X63570000Y-25030001D02*
X61295001Y-27305000D01*
X61295001Y-27305000D02*
X56925000Y-27305000D01*
X51475000Y-27305000D02*
X56925000Y-27305000D01*
X51475000Y-27305000D02*
X48395000Y-27305000D01*
X39090000Y-31300000D02*
X39080000Y-31290000D01*
X44200000Y-28800000D02*
X39090000Y-28800000D01*
X46965000Y-26035000D02*
X44200000Y-28800000D01*
X39090000Y-28800000D02*
X39080000Y-28790000D01*
X51475000Y-26035000D02*
X46965000Y-26035000D01*
X39090000Y-26300000D02*
X39080000Y-26290000D01*
X51475000Y-23495000D02*
X47205000Y-23495000D01*
X44400000Y-26300000D02*
X39090000Y-26300000D01*
X47205000Y-23495000D02*
X44400000Y-26300000D01*
X42900000Y-23800000D02*
X44500000Y-22200000D01*
X54200000Y-24000000D02*
X53435000Y-24765000D01*
X53435000Y-24765000D02*
X51475000Y-24765000D01*
X53200000Y-22200000D02*
X54200000Y-23200000D01*
X39090000Y-23800000D02*
X42900000Y-23800000D01*
X39080000Y-23790000D02*
X39090000Y-23800000D01*
X44500000Y-22200000D02*
X53200000Y-22200000D01*
X54200000Y-23200000D02*
X54200000Y-24000000D01*
X66839999Y-23300000D02*
X62300000Y-23300000D01*
X59565000Y-26035000D02*
X56925000Y-26035000D01*
X68570000Y-25030001D02*
X66839999Y-23300000D01*
X62300000Y-23300000D02*
X59565000Y-26035000D01*
%TA.AperFunction,Conductor*%
G36*
X70173514Y-21208895D02*
G01*
X70265268Y-21219234D01*
X70292766Y-21225510D01*
X70369858Y-21252486D01*
X70395265Y-21264721D01*
X70464431Y-21308181D01*
X70486484Y-21325769D01*
X70544230Y-21383515D01*
X70561819Y-21405569D01*
X70605276Y-21474730D01*
X70617515Y-21500146D01*
X70644487Y-21577228D01*
X70650766Y-21604735D01*
X70660542Y-21691500D01*
X70661104Y-21696483D01*
X70661500Y-21703543D01*
X70661500Y-36046456D01*
X70661104Y-36053516D01*
X70650766Y-36145264D01*
X70644487Y-36172771D01*
X70617515Y-36249853D01*
X70605273Y-36275275D01*
X70561822Y-36344426D01*
X70544230Y-36366484D01*
X70486484Y-36424230D01*
X70464425Y-36441822D01*
X70395272Y-36485274D01*
X70369853Y-36497515D01*
X70292771Y-36524487D01*
X70265264Y-36530766D01*
X70208418Y-36537171D01*
X70173513Y-36541104D01*
X70166456Y-36541500D01*
X35768544Y-36541500D01*
X35761486Y-36541104D01*
X35713854Y-36535737D01*
X35669735Y-36530766D01*
X35642228Y-36524487D01*
X35565146Y-36497515D01*
X35539730Y-36485276D01*
X35470569Y-36441819D01*
X35448515Y-36424230D01*
X35390769Y-36366484D01*
X35373181Y-36344431D01*
X35329721Y-36275265D01*
X35317486Y-36249858D01*
X35290510Y-36172766D01*
X35284234Y-36145268D01*
X35273895Y-36053514D01*
X35273500Y-36046456D01*
X35273500Y-34440516D01*
X37597000Y-34440516D01*
X37607605Y-34544318D01*
X37607606Y-34544321D01*
X37663342Y-34712525D01*
X37756365Y-34863339D01*
X37756370Y-34863345D01*
X37881654Y-34988629D01*
X37881660Y-34988634D01*
X38032474Y-35081657D01*
X38200678Y-35137393D01*
X38200681Y-35137394D01*
X38304483Y-35147999D01*
X38304483Y-35148000D01*
X38953000Y-35148000D01*
X38953000Y-34251624D01*
X39046025Y-34265000D01*
X39113975Y-34265000D01*
X39206999Y-34251624D01*
X39207000Y-35148000D01*
X39855517Y-35148000D01*
X39855516Y-35147999D01*
X39959318Y-35137394D01*
X39959321Y-35137393D01*
X40127525Y-35081657D01*
X40278339Y-34988634D01*
X40278345Y-34988629D01*
X40403629Y-34863345D01*
X40403634Y-34863339D01*
X40496657Y-34712525D01*
X40552393Y-34544321D01*
X40552394Y-34544318D01*
X40562999Y-34440516D01*
X40563000Y-34440516D01*
X40563000Y-33917000D01*
X39537763Y-33917000D01*
X39555000Y-33858295D01*
X39555000Y-33721705D01*
X39537763Y-33663000D01*
X40563000Y-33663000D01*
X40563000Y-33139483D01*
X40552394Y-33035681D01*
X40552393Y-33035678D01*
X40507435Y-32900000D01*
X58714341Y-32900000D01*
X58734937Y-33135412D01*
X58796096Y-33363662D01*
X58796098Y-33363666D01*
X58895966Y-33577833D01*
X59031498Y-33771393D01*
X59031502Y-33771398D01*
X59031505Y-33771402D01*
X59198599Y-33938496D01*
X59198603Y-33938499D01*
X59198607Y-33938502D01*
X59392167Y-34074034D01*
X59392166Y-34074034D01*
X59456982Y-34104258D01*
X59606337Y-34173904D01*
X59834592Y-34235064D01*
X60011034Y-34250501D01*
X60011035Y-34250501D01*
X60128965Y-34250501D01*
X60128966Y-34250501D01*
X60305408Y-34235064D01*
X60533663Y-34173904D01*
X60747829Y-34074036D01*
X60941401Y-33938496D01*
X61108495Y-33771402D01*
X61244035Y-33577831D01*
X61343903Y-33363664D01*
X61405063Y-33135409D01*
X61425659Y-32900001D01*
X61405063Y-32664593D01*
X61343903Y-32436338D01*
X61244035Y-32222172D01*
X61244034Y-32222170D01*
X61244033Y-32222168D01*
X61108501Y-32028608D01*
X61108497Y-32028603D01*
X61108495Y-32028600D01*
X60941401Y-31861506D01*
X60941397Y-31861503D01*
X60941392Y-31861499D01*
X60747832Y-31725967D01*
X60747833Y-31725967D01*
X60533665Y-31626099D01*
X60533661Y-31626097D01*
X60305411Y-31564938D01*
X60173076Y-31553360D01*
X60128966Y-31549501D01*
X60011034Y-31549501D01*
X59975745Y-31552588D01*
X59834588Y-31564938D01*
X59606338Y-31626097D01*
X59606334Y-31626099D01*
X59392167Y-31725967D01*
X59198607Y-31861499D01*
X59198596Y-31861508D01*
X59031507Y-32028597D01*
X59031502Y-32028603D01*
X58895965Y-32222170D01*
X58796098Y-32436335D01*
X58796096Y-32436339D01*
X58734937Y-32664589D01*
X58714341Y-32900000D01*
X40507435Y-32900000D01*
X40496657Y-32867474D01*
X40403634Y-32716660D01*
X40403629Y-32716654D01*
X40278345Y-32591370D01*
X40278339Y-32591365D01*
X40127525Y-32498342D01*
X39959321Y-32442606D01*
X39959318Y-32442605D01*
X39886036Y-32435118D01*
X39820301Y-32408296D01*
X39779503Y-32350193D01*
X39776594Y-32279256D01*
X39812498Y-32218007D01*
X39820941Y-32210739D01*
X39970659Y-32093000D01*
X40108792Y-31933587D01*
X40144637Y-31871500D01*
X40196020Y-31822507D01*
X40253757Y-31808500D01*
X44331784Y-31808500D01*
X44358565Y-31811378D01*
X44363351Y-31812420D01*
X44363351Y-31812419D01*
X44363352Y-31812420D01*
X44415917Y-31808661D01*
X44420413Y-31808500D01*
X44436366Y-31808500D01*
X44436368Y-31808500D01*
X44452192Y-31806224D01*
X44456615Y-31805749D01*
X44509201Y-31801989D01*
X44513794Y-31800275D01*
X44539893Y-31793614D01*
X44544734Y-31792919D01*
X44592683Y-31771020D01*
X44596800Y-31769315D01*
X44646204Y-31750889D01*
X44650117Y-31747958D01*
X44673299Y-31734204D01*
X44677743Y-31732176D01*
X44717585Y-31697650D01*
X44721055Y-31694855D01*
X44733848Y-31685280D01*
X44745141Y-31673985D01*
X44748418Y-31670934D01*
X44788250Y-31636421D01*
X44790894Y-31632305D01*
X44807795Y-31611331D01*
X46519125Y-29900001D01*
X64714341Y-29900001D01*
X64734937Y-30135412D01*
X64796096Y-30363662D01*
X64796098Y-30363666D01*
X64895966Y-30577833D01*
X65031498Y-30771393D01*
X65031502Y-30771398D01*
X65031505Y-30771402D01*
X65198599Y-30938496D01*
X65198603Y-30938499D01*
X65198607Y-30938502D01*
X65392167Y-31074034D01*
X65392166Y-31074034D01*
X65468304Y-31109538D01*
X65606337Y-31173904D01*
X65834592Y-31235064D01*
X66011034Y-31250501D01*
X66011035Y-31250501D01*
X66128965Y-31250501D01*
X66128966Y-31250501D01*
X66305408Y-31235064D01*
X66533663Y-31173904D01*
X66747829Y-31074036D01*
X66941401Y-30938496D01*
X67108495Y-30771402D01*
X67244035Y-30577831D01*
X67343903Y-30363664D01*
X67405063Y-30135409D01*
X67425659Y-29900001D01*
X67405063Y-29664593D01*
X67343903Y-29436338D01*
X67244035Y-29222172D01*
X67244034Y-29222170D01*
X67244033Y-29222168D01*
X67108501Y-29028608D01*
X67108497Y-29028603D01*
X67108495Y-29028600D01*
X66941401Y-28861506D01*
X66941397Y-28861503D01*
X66941392Y-28861499D01*
X66747832Y-28725967D01*
X66747833Y-28725967D01*
X66533665Y-28626099D01*
X66533661Y-28626097D01*
X66305411Y-28564938D01*
X66173076Y-28553360D01*
X66128966Y-28549501D01*
X66011034Y-28549501D01*
X65975745Y-28552588D01*
X65834588Y-28564938D01*
X65606338Y-28626097D01*
X65606334Y-28626099D01*
X65392167Y-28725967D01*
X65198607Y-28861499D01*
X65198596Y-28861508D01*
X65031507Y-29028597D01*
X65031502Y-29028603D01*
X64895965Y-29222170D01*
X64796098Y-29436335D01*
X64796096Y-29436339D01*
X64734937Y-29664589D01*
X64714341Y-29900001D01*
X46519125Y-29900001D01*
X48568722Y-27850405D01*
X48631035Y-27816379D01*
X48657818Y-27813500D01*
X50290733Y-27813500D01*
X50358854Y-27833502D01*
X50360722Y-27834726D01*
X50375699Y-27844734D01*
X50449933Y-27859500D01*
X52500066Y-27859499D01*
X52500069Y-27859498D01*
X52500073Y-27859498D01*
X52520986Y-27855338D01*
X52574301Y-27844734D01*
X52574302Y-27844733D01*
X52574303Y-27844733D01*
X52589265Y-27834736D01*
X52657018Y-27813520D01*
X52659268Y-27813500D01*
X55740733Y-27813500D01*
X55808854Y-27833502D01*
X55810722Y-27834726D01*
X55825699Y-27844734D01*
X55899933Y-27859500D01*
X57950066Y-27859499D01*
X57950069Y-27859498D01*
X57950073Y-27859498D01*
X57970986Y-27855338D01*
X58024301Y-27844734D01*
X58024302Y-27844733D01*
X58024303Y-27844733D01*
X58039265Y-27834736D01*
X58107018Y-27813520D01*
X58109268Y-27813500D01*
X61226785Y-27813500D01*
X61253566Y-27816378D01*
X61258352Y-27817420D01*
X61258352Y-27817419D01*
X61258353Y-27817420D01*
X61310918Y-27813661D01*
X61315414Y-27813500D01*
X61331367Y-27813500D01*
X61331369Y-27813500D01*
X61347193Y-27811224D01*
X61351616Y-27810749D01*
X61404202Y-27806989D01*
X61408795Y-27805275D01*
X61434894Y-27798614D01*
X61439735Y-27797919D01*
X61487684Y-27776020D01*
X61491801Y-27774315D01*
X61541205Y-27755889D01*
X61545118Y-27752958D01*
X61568300Y-27739204D01*
X61572744Y-27737176D01*
X61612586Y-27702650D01*
X61616056Y-27699855D01*
X61628849Y-27690280D01*
X61640142Y-27678985D01*
X61643419Y-27675934D01*
X61683251Y-27641421D01*
X61685895Y-27637305D01*
X61702796Y-27616331D01*
X63482723Y-25836404D01*
X63545035Y-25802379D01*
X63571818Y-25799500D01*
X64110064Y-25799500D01*
X64110066Y-25799500D01*
X64110069Y-25799499D01*
X64110072Y-25799499D01*
X64164768Y-25788620D01*
X64184301Y-25784735D01*
X64268484Y-25728485D01*
X64324734Y-25644302D01*
X64339500Y-25570068D01*
X64339499Y-24489935D01*
X64339498Y-24489931D01*
X64339498Y-24489927D01*
X64324734Y-24415700D01*
X64313053Y-24398218D01*
X64268484Y-24331517D01*
X64268483Y-24331516D01*
X64184302Y-24275267D01*
X64110067Y-24260501D01*
X63029936Y-24260501D01*
X63029926Y-24260502D01*
X62955699Y-24275266D01*
X62871515Y-24331517D01*
X62815266Y-24415698D01*
X62800500Y-24489931D01*
X62800500Y-25028182D01*
X62780498Y-25096303D01*
X62763595Y-25117277D01*
X61121278Y-26759595D01*
X61058966Y-26793620D01*
X61032183Y-26796500D01*
X59573680Y-26796500D01*
X59537774Y-26785957D01*
X59510370Y-26796179D01*
X59501381Y-26796500D01*
X58109267Y-26796500D01*
X58041146Y-26776498D01*
X58039310Y-26775295D01*
X58039214Y-26775231D01*
X58038559Y-26774793D01*
X57993010Y-26720338D01*
X57984132Y-26649899D01*
X58014745Y-26585841D01*
X58038626Y-26565162D01*
X58039376Y-26564662D01*
X58107151Y-26543518D01*
X58109268Y-26543500D01*
X59496784Y-26543500D01*
X59523564Y-26546378D01*
X59528164Y-26547379D01*
X59535451Y-26551358D01*
X59538182Y-26549604D01*
X59564691Y-26544821D01*
X59580917Y-26543661D01*
X59585413Y-26543500D01*
X59601366Y-26543500D01*
X59601368Y-26543500D01*
X59617192Y-26541224D01*
X59621615Y-26540749D01*
X59674201Y-26536989D01*
X59678794Y-26535275D01*
X59704893Y-26528614D01*
X59709734Y-26527919D01*
X59757683Y-26506020D01*
X59761800Y-26504315D01*
X59811204Y-26485889D01*
X59815117Y-26482958D01*
X59838299Y-26469204D01*
X59842743Y-26467176D01*
X59882585Y-26432650D01*
X59886055Y-26429855D01*
X59898848Y-26420280D01*
X59910141Y-26408985D01*
X59913418Y-26405934D01*
X59953250Y-26371421D01*
X59955894Y-26367305D01*
X59972795Y-26346331D01*
X62473722Y-23845405D01*
X62536035Y-23811379D01*
X62562818Y-23808500D01*
X65723200Y-23808500D01*
X65791321Y-23828502D01*
X65837814Y-23882158D01*
X65847918Y-23952432D01*
X65818424Y-24017012D01*
X65759775Y-24055075D01*
X65676620Y-24080299D01*
X65498904Y-24175290D01*
X65441777Y-24222173D01*
X65934967Y-24715363D01*
X65848081Y-24765528D01*
X65771009Y-24857378D01*
X65756803Y-24896408D01*
X65262172Y-24401777D01*
X65215289Y-24458905D01*
X65120298Y-24636621D01*
X65061800Y-24829464D01*
X65042050Y-25029997D01*
X65042050Y-25030004D01*
X65061800Y-25230537D01*
X65120298Y-25423380D01*
X65215291Y-25601099D01*
X65262171Y-25658222D01*
X65756802Y-25163591D01*
X65771009Y-25202623D01*
X65848081Y-25294474D01*
X65934967Y-25344638D01*
X65441777Y-25837827D01*
X65498904Y-25884711D01*
X65676620Y-25979702D01*
X65869463Y-26038200D01*
X66069997Y-26057951D01*
X66070003Y-26057951D01*
X66270536Y-26038200D01*
X66463379Y-25979702D01*
X66641093Y-25884712D01*
X66641098Y-25884709D01*
X66698222Y-25837828D01*
X66698222Y-25837827D01*
X66205032Y-25344637D01*
X66291919Y-25294474D01*
X66368991Y-25202624D01*
X66383197Y-25163593D01*
X66877827Y-25658223D01*
X66924708Y-25601099D01*
X66924711Y-25601094D01*
X67019701Y-25423380D01*
X67078199Y-25230537D01*
X67097950Y-25030004D01*
X67097950Y-25029997D01*
X67078199Y-24829464D01*
X67019701Y-24636621D01*
X66924707Y-24458899D01*
X66921269Y-24453754D01*
X66923033Y-24452575D01*
X66899051Y-24396112D01*
X66911032Y-24326133D01*
X66958944Y-24273740D01*
X67027575Y-24255568D01*
X67095136Y-24277386D01*
X67113293Y-24292422D01*
X67758728Y-24937857D01*
X67792751Y-25000166D01*
X67795631Y-25026949D01*
X67795631Y-25029997D01*
X67795631Y-25030001D01*
X67815046Y-25202314D01*
X67847527Y-25295139D01*
X67872318Y-25365987D01*
X67872319Y-25365989D01*
X67964573Y-25512812D01*
X68087188Y-25635427D01*
X68187692Y-25698577D01*
X68234014Y-25727683D01*
X68397687Y-25784955D01*
X68570000Y-25804370D01*
X68742313Y-25784955D01*
X68905986Y-25727683D01*
X69052811Y-25635427D01*
X69175426Y-25512812D01*
X69267682Y-25365987D01*
X69324954Y-25202314D01*
X69344369Y-25030001D01*
X69324954Y-24857688D01*
X69267682Y-24694015D01*
X69231619Y-24636621D01*
X69175426Y-24547189D01*
X69052811Y-24424574D01*
X68905988Y-24332320D01*
X68905986Y-24332319D01*
X68903691Y-24331516D01*
X68742313Y-24275047D01*
X68570000Y-24255632D01*
X68569998Y-24255632D01*
X68566949Y-24255632D01*
X68565050Y-24255074D01*
X68562969Y-24254840D01*
X68563010Y-24254475D01*
X68498828Y-24235630D01*
X68477854Y-24218727D01*
X67247798Y-22988671D01*
X67230892Y-22967691D01*
X67228250Y-22963580D01*
X67228247Y-22963577D01*
X67188417Y-22929065D01*
X67185139Y-22926012D01*
X67173847Y-22914720D01*
X67173846Y-22914719D01*
X67173844Y-22914717D01*
X67161066Y-22905152D01*
X67157563Y-22902329D01*
X67117742Y-22867824D01*
X67117739Y-22867822D01*
X67113285Y-22865788D01*
X67090127Y-22852048D01*
X67086205Y-22849112D01*
X67086201Y-22849110D01*
X67036818Y-22830690D01*
X67032664Y-22828969D01*
X66984737Y-22807082D01*
X66984723Y-22807078D01*
X66979875Y-22806381D01*
X66953800Y-22799726D01*
X66949203Y-22798011D01*
X66949198Y-22798010D01*
X66896626Y-22794249D01*
X66892159Y-22793769D01*
X66876369Y-22791500D01*
X66876367Y-22791500D01*
X66860412Y-22791500D01*
X66855916Y-22791339D01*
X66803351Y-22787579D01*
X66803350Y-22787580D01*
X66798565Y-22788621D01*
X66771783Y-22791500D01*
X62368216Y-22791500D01*
X62341436Y-22788621D01*
X62336651Y-22787580D01*
X62336646Y-22787580D01*
X62284088Y-22791339D01*
X62279591Y-22791500D01*
X62263632Y-22791500D01*
X62263626Y-22791500D01*
X62263623Y-22791501D01*
X62247819Y-22793771D01*
X62243358Y-22794250D01*
X62190799Y-22798011D01*
X62190796Y-22798012D01*
X62186210Y-22799723D01*
X62160116Y-22806383D01*
X62155268Y-22807080D01*
X62107330Y-22828972D01*
X62103175Y-22830692D01*
X62053797Y-22849109D01*
X62049871Y-22852049D01*
X62026715Y-22865788D01*
X62022256Y-22867824D01*
X61982425Y-22902337D01*
X61978925Y-22905158D01*
X61966157Y-22914716D01*
X61966149Y-22914722D01*
X61954857Y-22926013D01*
X61951571Y-22929072D01*
X61911751Y-22963577D01*
X61911747Y-22963581D01*
X61909098Y-22967704D01*
X61892201Y-22988669D01*
X59391277Y-25489595D01*
X59328965Y-25523620D01*
X59302182Y-25526500D01*
X58465813Y-25526500D01*
X58397692Y-25506498D01*
X58351199Y-25452842D01*
X58341095Y-25382568D01*
X58364944Y-25324992D01*
X58375444Y-25310964D01*
X58426494Y-25174093D01*
X58432999Y-25113597D01*
X58433000Y-25113585D01*
X58433000Y-24892000D01*
X55417000Y-24892000D01*
X55417000Y-25113597D01*
X55423505Y-25174093D01*
X55474555Y-25310964D01*
X55474555Y-25310965D01*
X55562095Y-25427904D01*
X55643455Y-25488809D01*
X55686002Y-25545645D01*
X55691066Y-25616460D01*
X55685653Y-25633753D01*
X55670500Y-25709930D01*
X55670500Y-26360063D01*
X55670501Y-26360073D01*
X55685265Y-26434300D01*
X55741516Y-26518484D01*
X55811483Y-26565236D01*
X55857010Y-26619713D01*
X55865857Y-26690156D01*
X55835216Y-26754200D01*
X55811501Y-26774752D01*
X55810753Y-26775252D01*
X55743005Y-26796480D01*
X55740732Y-26796500D01*
X52659267Y-26796500D01*
X52591146Y-26776498D01*
X52589310Y-26775295D01*
X52589214Y-26775231D01*
X52588559Y-26774793D01*
X52543010Y-26720338D01*
X52534132Y-26649899D01*
X52564745Y-26585841D01*
X52588512Y-26565238D01*
X52658484Y-26518484D01*
X52714734Y-26434301D01*
X52729500Y-26360067D01*
X52729499Y-25709934D01*
X52729498Y-25709930D01*
X52729498Y-25709926D01*
X52714734Y-25635699D01*
X52691611Y-25601094D01*
X52658484Y-25551516D01*
X52644364Y-25542081D01*
X52588516Y-25504763D01*
X52542989Y-25450286D01*
X52534142Y-25379842D01*
X52564784Y-25315799D01*
X52588653Y-25295143D01*
X52589211Y-25294770D01*
X52589408Y-25294640D01*
X52657190Y-25273517D01*
X52659268Y-25273500D01*
X53366784Y-25273500D01*
X53393565Y-25276378D01*
X53398351Y-25277420D01*
X53398351Y-25277419D01*
X53398352Y-25277420D01*
X53450917Y-25273661D01*
X53455413Y-25273500D01*
X53471366Y-25273500D01*
X53471368Y-25273500D01*
X53487192Y-25271224D01*
X53491615Y-25270749D01*
X53544201Y-25266989D01*
X53548794Y-25265275D01*
X53574893Y-25258614D01*
X53579734Y-25257919D01*
X53627683Y-25236020D01*
X53631800Y-25234315D01*
X53681204Y-25215889D01*
X53685117Y-25212958D01*
X53708299Y-25199204D01*
X53712743Y-25197176D01*
X53752585Y-25162650D01*
X53756055Y-25159855D01*
X53768848Y-25150280D01*
X53780141Y-25138985D01*
X53783418Y-25135934D01*
X53823250Y-25101421D01*
X53825894Y-25097305D01*
X53842795Y-25076331D01*
X54511331Y-24407795D01*
X54532305Y-24390894D01*
X54536421Y-24388250D01*
X54570934Y-24348418D01*
X54573987Y-24345140D01*
X54574365Y-24344762D01*
X54585280Y-24333848D01*
X54594856Y-24321054D01*
X54597641Y-24317597D01*
X54632176Y-24277743D01*
X54634208Y-24273292D01*
X54647958Y-24250117D01*
X54650888Y-24246204D01*
X54669304Y-24196825D01*
X54671011Y-24192702D01*
X54692919Y-24144734D01*
X54693615Y-24139890D01*
X54700280Y-24113779D01*
X54701988Y-24109201D01*
X54705748Y-24056634D01*
X54706227Y-24052172D01*
X54708500Y-24036368D01*
X54708500Y-24020408D01*
X54708661Y-24015912D01*
X54710750Y-23986701D01*
X54712420Y-23963352D01*
X54711378Y-23958562D01*
X54708499Y-23931793D01*
X54708499Y-23622000D01*
X55417000Y-23622000D01*
X55417000Y-23843597D01*
X55423505Y-23904093D01*
X55474555Y-24040964D01*
X55474555Y-24040965D01*
X55484681Y-24054491D01*
X55509492Y-24121011D01*
X55494401Y-24190385D01*
X55484681Y-24205509D01*
X55474555Y-24219034D01*
X55474555Y-24219035D01*
X55423505Y-24355906D01*
X55417000Y-24416402D01*
X55417000Y-24638000D01*
X56798000Y-24638000D01*
X56798000Y-23622000D01*
X57052000Y-23622000D01*
X57052000Y-24638000D01*
X58433000Y-24638000D01*
X58433000Y-24416414D01*
X58432999Y-24416402D01*
X58426494Y-24355906D01*
X58375445Y-24219037D01*
X58365318Y-24205509D01*
X58340507Y-24138989D01*
X58355598Y-24069615D01*
X58365318Y-24054491D01*
X58375445Y-24040962D01*
X58426494Y-23904093D01*
X58432999Y-23843597D01*
X58433000Y-23843585D01*
X58433000Y-23622000D01*
X57052000Y-23622000D01*
X56798000Y-23622000D01*
X55417000Y-23622000D01*
X54708499Y-23622000D01*
X54708499Y-23368000D01*
X55417000Y-23368000D01*
X56798000Y-23368000D01*
X56798000Y-22687000D01*
X57052000Y-22687000D01*
X57052000Y-23368000D01*
X58433000Y-23368000D01*
X58433000Y-23146414D01*
X58432999Y-23146402D01*
X58426494Y-23085906D01*
X58375444Y-22949035D01*
X58375444Y-22949034D01*
X58287904Y-22832095D01*
X58170965Y-22744555D01*
X58034093Y-22693505D01*
X57973597Y-22687000D01*
X57052000Y-22687000D01*
X56798000Y-22687000D01*
X55876402Y-22687000D01*
X55815906Y-22693505D01*
X55679035Y-22744555D01*
X55679034Y-22744555D01*
X55562095Y-22832095D01*
X55474555Y-22949034D01*
X55474555Y-22949035D01*
X55423505Y-23085906D01*
X55417000Y-23146402D01*
X55417000Y-23368000D01*
X54708499Y-23368000D01*
X54708499Y-23268216D01*
X54711380Y-23241429D01*
X54712420Y-23236648D01*
X54708661Y-23184083D01*
X54708500Y-23179587D01*
X54708500Y-23163632D01*
X54706230Y-23147847D01*
X54705749Y-23143371D01*
X54702561Y-23098805D01*
X54701989Y-23090800D01*
X54700277Y-23086211D01*
X54693615Y-23060108D01*
X54692919Y-23055266D01*
X54692872Y-23055163D01*
X54671028Y-23007329D01*
X54669306Y-23003173D01*
X54650890Y-22953798D01*
X54648728Y-22950910D01*
X54647950Y-22949870D01*
X54634209Y-22926709D01*
X54633885Y-22925999D01*
X54632176Y-22922257D01*
X54597659Y-22882422D01*
X54594838Y-22878921D01*
X54585280Y-22866153D01*
X54573990Y-22854863D01*
X54570939Y-22851585D01*
X54536420Y-22811749D01*
X54536419Y-22811748D01*
X54532300Y-22809101D01*
X54511326Y-22792199D01*
X53607797Y-21888669D01*
X53590894Y-21867693D01*
X53588250Y-21863579D01*
X53548421Y-21829067D01*
X53545140Y-21826012D01*
X53533848Y-21814720D01*
X53533847Y-21814719D01*
X53533845Y-21814717D01*
X53521067Y-21805152D01*
X53517564Y-21802329D01*
X53477743Y-21767824D01*
X53477740Y-21767822D01*
X53473286Y-21765788D01*
X53450128Y-21752048D01*
X53446206Y-21749112D01*
X53446202Y-21749110D01*
X53396819Y-21730690D01*
X53392665Y-21728969D01*
X53344738Y-21707082D01*
X53344724Y-21707078D01*
X53339876Y-21706381D01*
X53313801Y-21699726D01*
X53309204Y-21698011D01*
X53309199Y-21698010D01*
X53256627Y-21694249D01*
X53252160Y-21693769D01*
X53236370Y-21691500D01*
X53236368Y-21691500D01*
X53220413Y-21691500D01*
X53215917Y-21691339D01*
X53163352Y-21687579D01*
X53163351Y-21687580D01*
X53158566Y-21688621D01*
X53131784Y-21691500D01*
X44568216Y-21691500D01*
X44541436Y-21688621D01*
X44536651Y-21687580D01*
X44536646Y-21687580D01*
X44484083Y-21691339D01*
X44479587Y-21691500D01*
X44463630Y-21691500D01*
X44447841Y-21693769D01*
X44443374Y-21694249D01*
X44390799Y-21698011D01*
X44390791Y-21698012D01*
X44386194Y-21699727D01*
X44360124Y-21706381D01*
X44355275Y-21707078D01*
X44355267Y-21707080D01*
X44355266Y-21707081D01*
X44355263Y-21707082D01*
X44355264Y-21707082D01*
X44307324Y-21728973D01*
X44303172Y-21730693D01*
X44253795Y-21749111D01*
X44253792Y-21749112D01*
X44249864Y-21752053D01*
X44226722Y-21765783D01*
X44222261Y-21767820D01*
X44222258Y-21767822D01*
X44182425Y-21802337D01*
X44178925Y-21805158D01*
X44166157Y-21814716D01*
X44166149Y-21814722D01*
X44154857Y-21826013D01*
X44151571Y-21829072D01*
X44111751Y-21863577D01*
X44111747Y-21863581D01*
X44109098Y-21867704D01*
X44092201Y-21888669D01*
X42726275Y-23254596D01*
X42663965Y-23288620D01*
X42637182Y-23291500D01*
X40270897Y-23291500D01*
X40202776Y-23271498D01*
X40168260Y-23238587D01*
X40165877Y-23235241D01*
X40165876Y-23235238D01*
X40043522Y-23063416D01*
X40040048Y-23060104D01*
X39989090Y-23011515D01*
X39890862Y-22917855D01*
X39890859Y-22917853D01*
X39890857Y-22917851D01*
X39713413Y-22803816D01*
X39689121Y-22794091D01*
X39517589Y-22725420D01*
X39517586Y-22725419D01*
X39517585Y-22725419D01*
X39310471Y-22685500D01*
X39310467Y-22685500D01*
X38902387Y-22685500D01*
X38902369Y-22685500D01*
X38745030Y-22700525D01*
X38745015Y-22700528D01*
X38542629Y-22759953D01*
X38355148Y-22856607D01*
X38355141Y-22856611D01*
X38189347Y-22986994D01*
X38189334Y-22987006D01*
X38051212Y-23146407D01*
X38051206Y-23146415D01*
X37945743Y-23329083D01*
X37945739Y-23329092D01*
X37876753Y-23528417D01*
X37876750Y-23528425D01*
X37846732Y-23737205D01*
X37856768Y-23947893D01*
X37856769Y-23947904D01*
X37906498Y-24152886D01*
X37906498Y-24152888D01*
X37906499Y-24152890D01*
X37994124Y-24344762D01*
X38116478Y-24516584D01*
X38269138Y-24662145D01*
X38269140Y-24662146D01*
X38269142Y-24662148D01*
X38312483Y-24690001D01*
X38446587Y-24776184D01*
X38642411Y-24854580D01*
X38849533Y-24894500D01*
X38849537Y-24894500D01*
X39257613Y-24894500D01*
X39257630Y-24894499D01*
X39414969Y-24879474D01*
X39414969Y-24879473D01*
X39414979Y-24879473D01*
X39617368Y-24820047D01*
X39804854Y-24723391D01*
X39970659Y-24593000D01*
X40108792Y-24433587D01*
X40144637Y-24371500D01*
X40196020Y-24322507D01*
X40253757Y-24308500D01*
X42831784Y-24308500D01*
X42858565Y-24311378D01*
X42863351Y-24312420D01*
X42863351Y-24312419D01*
X42863352Y-24312420D01*
X42915917Y-24308661D01*
X42920413Y-24308500D01*
X42936366Y-24308500D01*
X42936368Y-24308500D01*
X42952192Y-24306224D01*
X42956615Y-24305749D01*
X43009201Y-24301989D01*
X43013794Y-24300275D01*
X43039893Y-24293614D01*
X43044734Y-24292919D01*
X43092683Y-24271020D01*
X43096800Y-24269315D01*
X43146204Y-24250889D01*
X43150117Y-24247958D01*
X43173299Y-24234204D01*
X43177743Y-24232176D01*
X43217585Y-24197650D01*
X43221055Y-24194855D01*
X43233848Y-24185280D01*
X43245141Y-24173985D01*
X43248418Y-24170934D01*
X43288250Y-24136421D01*
X43290894Y-24132305D01*
X43307791Y-24111335D01*
X44673725Y-22745402D01*
X44736035Y-22711379D01*
X44762818Y-22708500D01*
X50338001Y-22708500D01*
X50406122Y-22728502D01*
X50452615Y-22782158D01*
X50462719Y-22852432D01*
X50433225Y-22917012D01*
X50386215Y-22950911D01*
X50375693Y-22955268D01*
X50360735Y-22965264D01*
X50292982Y-22986480D01*
X50290732Y-22986500D01*
X47273216Y-22986500D01*
X47246434Y-22983621D01*
X47241649Y-22982580D01*
X47241648Y-22982580D01*
X47241647Y-22982579D01*
X47189083Y-22986339D01*
X47184587Y-22986500D01*
X47168629Y-22986500D01*
X47152840Y-22988769D01*
X47148373Y-22989249D01*
X47095798Y-22993011D01*
X47095793Y-22993012D01*
X47091197Y-22994726D01*
X47065123Y-23001381D01*
X47060271Y-23002079D01*
X47060266Y-23002080D01*
X47012330Y-23023970D01*
X47008178Y-23025690D01*
X46958799Y-23044109D01*
X46958791Y-23044114D01*
X46954864Y-23047053D01*
X46931722Y-23060783D01*
X46927261Y-23062820D01*
X46927258Y-23062822D01*
X46887425Y-23097337D01*
X46883925Y-23100158D01*
X46871157Y-23109716D01*
X46871149Y-23109722D01*
X46859857Y-23121013D01*
X46856571Y-23124072D01*
X46816751Y-23158577D01*
X46816747Y-23158581D01*
X46814098Y-23162704D01*
X46797201Y-23183669D01*
X44226277Y-25754595D01*
X44163965Y-25788620D01*
X44137182Y-25791500D01*
X40270897Y-25791500D01*
X40202776Y-25771498D01*
X40168260Y-25738587D01*
X40165877Y-25735241D01*
X40165876Y-25735238D01*
X40043522Y-25563416D01*
X40021146Y-25542081D01*
X39972048Y-25495266D01*
X39890862Y-25417855D01*
X39890859Y-25417853D01*
X39890857Y-25417851D01*
X39713413Y-25303816D01*
X39690078Y-25294474D01*
X39517589Y-25225420D01*
X39517586Y-25225419D01*
X39517585Y-25225419D01*
X39310471Y-25185500D01*
X39310467Y-25185500D01*
X38902387Y-25185500D01*
X38902369Y-25185500D01*
X38745030Y-25200525D01*
X38745015Y-25200528D01*
X38542629Y-25259953D01*
X38355148Y-25356607D01*
X38355141Y-25356611D01*
X38189347Y-25486994D01*
X38189334Y-25487006D01*
X38051212Y-25646407D01*
X38051206Y-25646415D01*
X37945743Y-25829083D01*
X37945739Y-25829092D01*
X37876753Y-26028417D01*
X37876750Y-26028425D01*
X37846732Y-26237205D01*
X37856768Y-26447893D01*
X37856769Y-26447904D01*
X37906498Y-26652886D01*
X37906498Y-26652888D01*
X37906499Y-26652890D01*
X37994124Y-26844762D01*
X38116478Y-27016584D01*
X38269138Y-27162145D01*
X38269140Y-27162146D01*
X38269142Y-27162148D01*
X38364434Y-27223388D01*
X38446587Y-27276184D01*
X38642411Y-27354580D01*
X38849533Y-27394500D01*
X38849537Y-27394500D01*
X39257613Y-27394500D01*
X39257630Y-27394499D01*
X39414969Y-27379474D01*
X39414969Y-27379473D01*
X39414979Y-27379473D01*
X39617368Y-27320047D01*
X39804854Y-27223391D01*
X39970659Y-27093000D01*
X40108792Y-26933587D01*
X40144637Y-26871500D01*
X40196020Y-26822507D01*
X40253757Y-26808500D01*
X44331784Y-26808500D01*
X44358565Y-26811378D01*
X44363351Y-26812420D01*
X44363351Y-26812419D01*
X44363352Y-26812420D01*
X44415917Y-26808661D01*
X44420413Y-26808500D01*
X44436366Y-26808500D01*
X44436368Y-26808500D01*
X44452192Y-26806224D01*
X44456615Y-26805749D01*
X44509201Y-26801989D01*
X44513794Y-26800275D01*
X44539893Y-26793614D01*
X44544734Y-26792919D01*
X44592683Y-26771020D01*
X44596800Y-26769315D01*
X44646204Y-26750889D01*
X44650117Y-26747958D01*
X44673299Y-26734204D01*
X44677743Y-26732176D01*
X44717585Y-26697650D01*
X44721055Y-26694855D01*
X44733848Y-26685280D01*
X44745141Y-26673985D01*
X44748418Y-26670934D01*
X44788250Y-26636421D01*
X44790894Y-26632305D01*
X44807795Y-26611331D01*
X47378722Y-24040405D01*
X47441035Y-24006379D01*
X47467818Y-24003500D01*
X50290733Y-24003500D01*
X50358854Y-24023502D01*
X50360605Y-24024648D01*
X50361408Y-24025185D01*
X50406974Y-24079626D01*
X50415873Y-24150062D01*
X50385280Y-24214129D01*
X50361484Y-24234763D01*
X50291515Y-24281515D01*
X50235266Y-24365697D01*
X50220500Y-24439930D01*
X50220500Y-25090063D01*
X50220501Y-25090073D01*
X50235265Y-25164300D01*
X50291516Y-25248484D01*
X50361483Y-25295236D01*
X50407010Y-25349713D01*
X50415857Y-25420156D01*
X50385216Y-25484200D01*
X50361501Y-25504752D01*
X50360753Y-25505252D01*
X50293005Y-25526480D01*
X50290732Y-25526500D01*
X47033210Y-25526500D01*
X47006429Y-25523621D01*
X47001648Y-25522581D01*
X47001645Y-25522581D01*
X46949096Y-25526339D01*
X46944600Y-25526500D01*
X46928629Y-25526500D01*
X46912825Y-25528771D01*
X46908359Y-25529251D01*
X46855797Y-25533012D01*
X46851210Y-25534723D01*
X46825116Y-25541383D01*
X46820268Y-25542080D01*
X46772321Y-25563976D01*
X46768167Y-25565696D01*
X46718797Y-25584111D01*
X46718792Y-25584113D01*
X46714867Y-25587052D01*
X46691725Y-25600783D01*
X46687256Y-25602824D01*
X46647430Y-25637331D01*
X46643936Y-25640146D01*
X46631152Y-25649718D01*
X46619861Y-25661010D01*
X46616570Y-25664073D01*
X46576751Y-25698577D01*
X46576747Y-25698581D01*
X46574098Y-25702704D01*
X46557201Y-25723669D01*
X44026277Y-28254595D01*
X43963965Y-28288620D01*
X43937182Y-28291500D01*
X40270897Y-28291500D01*
X40202776Y-28271498D01*
X40168260Y-28238587D01*
X40165877Y-28235241D01*
X40165876Y-28235238D01*
X40043522Y-28063416D01*
X39890862Y-27917855D01*
X39890859Y-27917853D01*
X39890857Y-27917851D01*
X39713413Y-27803816D01*
X39644009Y-27776031D01*
X39517589Y-27725420D01*
X39517586Y-27725419D01*
X39517585Y-27725419D01*
X39310471Y-27685500D01*
X39310467Y-27685500D01*
X38902387Y-27685500D01*
X38902369Y-27685500D01*
X38745030Y-27700525D01*
X38745015Y-27700528D01*
X38542629Y-27759953D01*
X38355148Y-27856607D01*
X38355141Y-27856611D01*
X38189347Y-27986994D01*
X38189334Y-27987006D01*
X38051212Y-28146407D01*
X38051206Y-28146415D01*
X37945743Y-28329083D01*
X37945739Y-28329092D01*
X37876753Y-28528417D01*
X37876750Y-28528425D01*
X37846732Y-28737205D01*
X37856768Y-28947893D01*
X37856769Y-28947904D01*
X37906498Y-29152886D01*
X37906498Y-29152888D01*
X37906499Y-29152890D01*
X37994124Y-29344762D01*
X38116478Y-29516584D01*
X38269138Y-29662145D01*
X38269140Y-29662146D01*
X38269142Y-29662148D01*
X38272947Y-29664593D01*
X38446587Y-29776184D01*
X38642411Y-29854580D01*
X38849533Y-29894500D01*
X38849537Y-29894500D01*
X39257613Y-29894500D01*
X39257630Y-29894499D01*
X39414969Y-29879474D01*
X39414969Y-29879473D01*
X39414979Y-29879473D01*
X39617368Y-29820047D01*
X39804854Y-29723391D01*
X39970659Y-29593000D01*
X40108792Y-29433587D01*
X40144637Y-29371500D01*
X40196020Y-29322507D01*
X40253757Y-29308500D01*
X44131784Y-29308500D01*
X44158565Y-29311378D01*
X44163351Y-29312420D01*
X44163351Y-29312419D01*
X44163352Y-29312420D01*
X44215917Y-29308661D01*
X44220413Y-29308500D01*
X44236366Y-29308500D01*
X44236368Y-29308500D01*
X44252192Y-29306224D01*
X44256615Y-29305749D01*
X44309201Y-29301989D01*
X44313794Y-29300275D01*
X44339893Y-29293614D01*
X44344734Y-29292919D01*
X44392683Y-29271020D01*
X44396800Y-29269315D01*
X44446204Y-29250889D01*
X44450117Y-29247958D01*
X44473299Y-29234204D01*
X44477743Y-29232176D01*
X44517585Y-29197650D01*
X44521055Y-29194855D01*
X44533848Y-29185280D01*
X44545141Y-29173985D01*
X44548418Y-29170934D01*
X44588250Y-29136421D01*
X44590894Y-29132305D01*
X44607795Y-29111331D01*
X47138722Y-26580405D01*
X47201035Y-26546379D01*
X47227818Y-26543500D01*
X48386323Y-26543500D01*
X48422226Y-26554042D01*
X48449630Y-26543821D01*
X48458619Y-26543500D01*
X50290733Y-26543500D01*
X50358854Y-26563502D01*
X50360605Y-26564648D01*
X50361408Y-26565185D01*
X50406974Y-26619626D01*
X50415873Y-26690062D01*
X50385280Y-26754129D01*
X50361534Y-26774730D01*
X50360785Y-26775231D01*
X50293043Y-26796479D01*
X50290732Y-26796500D01*
X48463216Y-26796500D01*
X48436435Y-26793621D01*
X48431835Y-26792620D01*
X48424549Y-26788642D01*
X48421821Y-26790396D01*
X48395312Y-26795179D01*
X48379088Y-26796339D01*
X48374591Y-26796500D01*
X48358632Y-26796500D01*
X48358626Y-26796500D01*
X48358623Y-26796501D01*
X48342819Y-26798771D01*
X48338358Y-26799250D01*
X48285799Y-26803011D01*
X48285796Y-26803012D01*
X48281210Y-26804723D01*
X48255116Y-26811383D01*
X48250268Y-26812080D01*
X48202330Y-26833972D01*
X48198175Y-26835692D01*
X48148797Y-26854109D01*
X48144871Y-26857049D01*
X48121715Y-26870788D01*
X48117256Y-26872824D01*
X48077425Y-26907337D01*
X48073925Y-26910158D01*
X48061157Y-26919716D01*
X48061149Y-26919722D01*
X48049857Y-26931013D01*
X48046571Y-26934072D01*
X48006751Y-26968577D01*
X48006747Y-26968581D01*
X48004098Y-26972704D01*
X47987201Y-26993669D01*
X44226277Y-30754595D01*
X44163965Y-30788620D01*
X44137182Y-30791500D01*
X40270897Y-30791500D01*
X40202776Y-30771498D01*
X40168260Y-30738587D01*
X40165877Y-30735241D01*
X40165876Y-30735238D01*
X40043522Y-30563416D01*
X39890862Y-30417855D01*
X39890859Y-30417853D01*
X39890857Y-30417851D01*
X39713413Y-30303816D01*
X39603848Y-30259953D01*
X39517589Y-30225420D01*
X39517586Y-30225419D01*
X39517585Y-30225419D01*
X39310471Y-30185500D01*
X39310467Y-30185500D01*
X38902387Y-30185500D01*
X38902369Y-30185500D01*
X38745030Y-30200525D01*
X38745015Y-30200528D01*
X38542629Y-30259953D01*
X38355148Y-30356607D01*
X38355141Y-30356611D01*
X38189347Y-30486994D01*
X38189334Y-30487006D01*
X38051212Y-30646407D01*
X38051206Y-30646415D01*
X37945743Y-30829083D01*
X37945739Y-30829092D01*
X37876753Y-31028417D01*
X37876750Y-31028425D01*
X37846732Y-31237205D01*
X37856768Y-31447893D01*
X37856769Y-31447904D01*
X37906498Y-31652886D01*
X37906498Y-31652888D01*
X37906499Y-31652890D01*
X37994124Y-31844762D01*
X38116478Y-32016584D01*
X38269138Y-32162145D01*
X38269140Y-32162146D01*
X38269142Y-32162148D01*
X38333276Y-32203364D01*
X38379769Y-32257019D01*
X38389874Y-32327293D01*
X38360381Y-32391874D01*
X38300655Y-32430258D01*
X38277964Y-32434709D01*
X38200681Y-32442605D01*
X38200678Y-32442606D01*
X38032474Y-32498342D01*
X37881660Y-32591365D01*
X37881654Y-32591370D01*
X37756370Y-32716654D01*
X37756365Y-32716660D01*
X37663342Y-32867474D01*
X37607606Y-33035678D01*
X37607605Y-33035681D01*
X37597000Y-33139483D01*
X37597000Y-33663000D01*
X38622237Y-33663000D01*
X38605000Y-33721705D01*
X38605000Y-33858295D01*
X38622237Y-33917000D01*
X37597000Y-33917000D01*
X37597000Y-34440516D01*
X35273500Y-34440516D01*
X35273500Y-21703542D01*
X35273896Y-21696483D01*
X35274202Y-21693769D01*
X35284234Y-21604729D01*
X35290510Y-21577235D01*
X35317488Y-21500137D01*
X35329719Y-21474737D01*
X35373184Y-21405563D01*
X35390765Y-21383519D01*
X35448519Y-21325765D01*
X35470563Y-21308184D01*
X35539737Y-21264719D01*
X35565137Y-21252488D01*
X35642235Y-21225510D01*
X35669731Y-21219234D01*
X35761485Y-21208895D01*
X35768544Y-21208500D01*
X35831945Y-21208500D01*
X70103055Y-21208500D01*
X70166456Y-21208500D01*
X70173514Y-21208895D01*
G37*
%TD.AperFunction*%
M02*
