%TF.GenerationSoftware,KiCad,Pcbnew,7.0.9*%
%TF.CreationDate,2023-12-16T21:23:10+01:00*%
%TF.ProjectId,LH_GripLogicBoard_FreeJoy,4c485f47-7269-4704-9c6f-676963426f61,rev?*%
%TF.SameCoordinates,Original*%
%TF.FileFunction,Soldermask,Bot*%
%TF.FilePolarity,Negative*%
%FSLAX46Y46*%
G04 Gerber Fmt 4.6, Leading zero omitted, Abs format (unit mm)*
G04 Created by KiCad (PCBNEW 7.0.9) date 2023-12-16 21:23:10*
%MOMM*%
%LPD*%
G01*
G04 APERTURE LIST*
G04 Aperture macros list*
%AMRoundRect*
0 Rectangle with rounded corners*
0 $1 Rounding radius*
0 $2 $3 $4 $5 $6 $7 $8 $9 X,Y pos of 4 corners*
0 Add a 4 corners polygon primitive as box body*
4,1,4,$2,$3,$4,$5,$6,$7,$8,$9,$2,$3,0*
0 Add four circle primitives for the rounded corners*
1,1,$1+$1,$2,$3*
1,1,$1+$1,$4,$5*
1,1,$1+$1,$6,$7*
1,1,$1+$1,$8,$9*
0 Add four rect primitives between the rounded corners*
20,1,$1+$1,$2,$3,$4,$5,0*
20,1,$1+$1,$4,$5,$6,$7,0*
20,1,$1+$1,$6,$7,$8,$9,0*
20,1,$1+$1,$8,$9,$2,$3,0*%
G04 Aperture macros list end*
%ADD10RoundRect,0.250000X0.600000X0.725000X-0.600000X0.725000X-0.600000X-0.725000X0.600000X-0.725000X0*%
%ADD11O,1.700000X1.950000*%
%ADD12RoundRect,0.250000X0.450000X-0.350000X0.450000X0.350000X-0.450000X0.350000X-0.450000X-0.350000X0*%
%ADD13RoundRect,0.250000X0.600000X0.750000X-0.600000X0.750000X-0.600000X-0.750000X0.600000X-0.750000X0*%
%ADD14O,1.700000X2.000000*%
%ADD15RoundRect,0.250000X-0.600000X-0.725000X0.600000X-0.725000X0.600000X0.725000X-0.600000X0.725000X0*%
%ADD16C,2.200000*%
G04 APERTURE END LIST*
D10*
X56680000Y-63428000D03*
D11*
X54180000Y-63428000D03*
X51680000Y-63428000D03*
X49180000Y-63428000D03*
X46680000Y-63428000D03*
X44180000Y-63428000D03*
X41680000Y-63428000D03*
D12*
X43889999Y-50260000D03*
X43889999Y-48260000D03*
D13*
X55700000Y-46250000D03*
D14*
X53200000Y-46250000D03*
D13*
X30700000Y-19035000D03*
D14*
X28200000Y-19035000D03*
D13*
X53160000Y-32640000D03*
D14*
X50660000Y-32640000D03*
D12*
X46390000Y-50260000D03*
X46390000Y-48260000D03*
D13*
X54630000Y-39440000D03*
D14*
X52130000Y-39440000D03*
D10*
X49180000Y-19030000D03*
D11*
X46680000Y-19030000D03*
X44180000Y-19030000D03*
X41680000Y-19030000D03*
X39180000Y-19030000D03*
D12*
X41389999Y-50260000D03*
X41389999Y-48260000D03*
X38889999Y-50260000D03*
X38889999Y-48260000D03*
D10*
X51390000Y-25830000D03*
D11*
X48890000Y-25830000D03*
X46390000Y-25830000D03*
X43890000Y-25830000D03*
X41390000Y-25830000D03*
D12*
X48890000Y-50260000D03*
X48890000Y-48260000D03*
D15*
X33890000Y-55520000D03*
D11*
X36390000Y-55520000D03*
X38890000Y-55520000D03*
X41390000Y-55520000D03*
X43890000Y-55520000D03*
X46390000Y-55520000D03*
X48890000Y-55520000D03*
D16*
X56310000Y-56850000D03*
X30930000Y-24390000D03*
M02*
