%TF.GenerationSoftware,KiCad,Pcbnew,7.0.9*%
%TF.CreationDate,2023-12-16T21:23:10+01:00*%
%TF.ProjectId,LH_GripLogicBoard_FreeJoy,4c485f47-7269-4704-9c6f-676963426f61,rev?*%
%TF.SameCoordinates,Original*%
%TF.FileFunction,Soldermask,Top*%
%TF.FilePolarity,Negative*%
%FSLAX46Y46*%
G04 Gerber Fmt 4.6, Leading zero omitted, Abs format (unit mm)*
G04 Created by KiCad (PCBNEW 7.0.9) date 2023-12-16 21:23:10*
%MOMM*%
%LPD*%
G01*
G04 APERTURE LIST*
G04 Aperture macros list*
%AMRoundRect*
0 Rectangle with rounded corners*
0 $1 Rounding radius*
0 $2 $3 $4 $5 $6 $7 $8 $9 X,Y pos of 4 corners*
0 Add a 4 corners polygon primitive as box body*
4,1,4,$2,$3,$4,$5,$6,$7,$8,$9,$2,$3,0*
0 Add four circle primitives for the rounded corners*
1,1,$1+$1,$2,$3*
1,1,$1+$1,$4,$5*
1,1,$1+$1,$6,$7*
1,1,$1+$1,$8,$9*
0 Add four rect primitives between the rounded corners*
20,1,$1+$1,$2,$3,$4,$5,0*
20,1,$1+$1,$4,$5,$6,$7,0*
20,1,$1+$1,$6,$7,$8,$9,0*
20,1,$1+$1,$8,$9,$2,$3,0*%
G04 Aperture macros list end*
%ADD10RoundRect,0.250000X0.600000X0.725000X-0.600000X0.725000X-0.600000X-0.725000X0.600000X-0.725000X0*%
%ADD11O,1.700000X1.950000*%
%ADD12RoundRect,0.250000X0.600000X0.750000X-0.600000X0.750000X-0.600000X-0.750000X0.600000X-0.750000X0*%
%ADD13O,1.700000X2.000000*%
%ADD14RoundRect,0.250000X-0.600000X-0.725000X0.600000X-0.725000X0.600000X0.725000X-0.600000X0.725000X0*%
%ADD15RoundRect,0.250000X0.574524X0.097227X0.097227X0.574524X-0.574524X-0.097227X-0.097227X-0.574524X0*%
%ADD16RoundRect,0.250000X0.450000X-0.350000X0.450000X0.350000X-0.450000X0.350000X-0.450000X-0.350000X0*%
%ADD17RoundRect,0.100000X-0.521491X0.380070X0.380070X-0.521491X0.521491X-0.380070X-0.380070X0.521491X0*%
%ADD18RoundRect,0.250000X-0.350000X-0.450000X0.350000X-0.450000X0.350000X0.450000X-0.350000X0.450000X0*%
%ADD19C,2.200000*%
%ADD20RoundRect,0.250000X-0.097227X0.574524X-0.574524X0.097227X0.097227X-0.574524X0.574524X-0.097227X0*%
G04 APERTURE END LIST*
D10*
X56680000Y-63428000D03*
D11*
X54180000Y-63428000D03*
X51680000Y-63428000D03*
X49180000Y-63428000D03*
X46680000Y-63428000D03*
X44180000Y-63428000D03*
X41680000Y-63428000D03*
D12*
X55700000Y-46250000D03*
D13*
X53200000Y-46250000D03*
D12*
X30700000Y-19035000D03*
D13*
X28200000Y-19035000D03*
D12*
X53160000Y-32640000D03*
D13*
X50660000Y-32640000D03*
D12*
X54630000Y-39440000D03*
D13*
X52130000Y-39440000D03*
D10*
X49180000Y-19030000D03*
D11*
X46680000Y-19030000D03*
X44180000Y-19030000D03*
X41680000Y-19030000D03*
X39180000Y-19030000D03*
D10*
X51390000Y-25830000D03*
D11*
X48890000Y-25830000D03*
X46390000Y-25830000D03*
X43890000Y-25830000D03*
X41390000Y-25830000D03*
D14*
X33890000Y-55520000D03*
D11*
X36390000Y-55520000D03*
X38890000Y-55520000D03*
X41390000Y-55520000D03*
X43890000Y-55520000D03*
X46390000Y-55520000D03*
X48890000Y-55520000D03*
D15*
X46933623Y-44543623D03*
X45466377Y-43076377D03*
D16*
X24140000Y-19010000D03*
X24140000Y-17010000D03*
D17*
X39564575Y-40867239D03*
X39104955Y-41326858D03*
X38645336Y-41786478D03*
X38185717Y-42246097D03*
X37726097Y-42705717D03*
X37266478Y-43165336D03*
X36806858Y-43624955D03*
X36347239Y-44084575D03*
X40395425Y-48132761D03*
X40855045Y-47673142D03*
X41314664Y-47213522D03*
X41774283Y-46753903D03*
X42233903Y-46294283D03*
X42693522Y-45834664D03*
X43153142Y-45375045D03*
X43612761Y-44915425D03*
D16*
X48140000Y-38420000D03*
X48140000Y-36420000D03*
D18*
X53200000Y-50100000D03*
X55200000Y-50100000D03*
D17*
X31684575Y-32117239D03*
X31224955Y-32576858D03*
X30765336Y-33036478D03*
X30305717Y-33496097D03*
X29846097Y-33955717D03*
X29386478Y-34415336D03*
X28926858Y-34874955D03*
X28467239Y-35334575D03*
X32515425Y-39382761D03*
X32975045Y-38923142D03*
X33434664Y-38463522D03*
X33894283Y-38003903D03*
X34353903Y-37544283D03*
X34813522Y-37084664D03*
X35273142Y-36625045D03*
X35732761Y-36165425D03*
D16*
X46630000Y-32640000D03*
X46630000Y-30640000D03*
D19*
X56310000Y-56850000D03*
D20*
X39603623Y-34006377D03*
X38136377Y-35473623D03*
D19*
X30930000Y-24390000D03*
M02*
