%TF.GenerationSoftware,KiCad,Pcbnew,7.0.9*%
%TF.CreationDate,2023-12-16T21:23:10+01:00*%
%TF.ProjectId,LH_GripLogicBoard_FreeJoy,4c485f47-7269-4704-9c6f-676963426f61,rev?*%
%TF.SameCoordinates,Original*%
%TF.FileFunction,Profile,NP*%
%FSLAX46Y46*%
G04 Gerber Fmt 4.6, Leading zero omitted, Abs format (unit mm)*
G04 Created by KiCad (PCBNEW 7.0.9) date 2023-12-16 21:23:10*
%MOMM*%
%LPD*%
G01*
G04 APERTURE LIST*
%ADD10C,0.100000*%
%TA.AperFunction,Profile*%
%ADD11C,0.100000*%
%TD*%
G04 APERTURE END LIST*
D10*
X52213824Y-15000000D02*
X52262379Y-15139654D01*
X52310789Y-15279362D01*
X52359053Y-15419121D01*
X52407171Y-15558931D01*
X52455143Y-15698791D01*
X52502968Y-15838699D01*
X52550647Y-15978656D01*
X52598179Y-16118660D01*
X52645564Y-16258709D01*
X52692802Y-16398804D01*
X52724212Y-16492226D01*
X23876091Y-25184956D02*
X23817680Y-25017095D01*
X23758718Y-24848249D01*
X23699226Y-24678501D01*
X23639224Y-24507937D01*
X23578736Y-24336641D01*
X23517781Y-24164699D01*
X23456381Y-23992194D01*
X23394558Y-23819212D01*
X23332333Y-23645837D01*
X23269727Y-23472155D01*
X23206762Y-23298251D01*
X23143459Y-23124208D01*
X23079840Y-22950112D01*
X23015926Y-22776048D01*
X22951739Y-22602100D01*
X22887299Y-22428353D01*
X22822628Y-22254893D01*
X22757748Y-22081804D01*
X22692680Y-21909170D01*
X22627446Y-21737077D01*
X22562066Y-21565609D01*
X22496562Y-21394851D01*
X22430956Y-21224889D01*
X22365268Y-21055806D01*
X22299521Y-20887688D01*
X22233736Y-20720619D01*
X22167934Y-20554685D01*
X22102137Y-20389970D01*
X22036365Y-20226558D01*
X21970641Y-20064535D01*
X21904985Y-19903986D01*
X21839420Y-19744996D01*
X53378756Y-18490370D02*
X53632939Y-19294499D01*
X53878965Y-20088967D01*
X54116970Y-20873539D01*
X54347092Y-21647979D01*
X54569469Y-22412055D01*
X54784237Y-23165530D01*
X54991535Y-23908171D01*
X55191500Y-24639742D01*
X55384270Y-25360009D01*
X55569982Y-26068739D01*
X55748773Y-26765694D01*
X55920782Y-27450643D01*
X56086146Y-28123349D01*
X56245001Y-28783578D01*
X56397487Y-29431096D01*
X56543739Y-30065668D01*
X56683897Y-30687059D01*
X56818096Y-31295034D01*
X56946476Y-31889360D01*
X57069173Y-32469802D01*
X57186325Y-33036124D01*
X57298069Y-33588093D01*
X57404543Y-34125474D01*
X57505885Y-34648031D01*
X57602232Y-35155532D01*
X57693721Y-35647740D01*
X57780490Y-36124421D01*
X57862677Y-36585342D01*
X57940419Y-37030266D01*
X58013854Y-37458960D01*
X58083119Y-37871189D01*
X58148352Y-38266719D01*
X58831260Y-43057632D02*
X58872601Y-43397879D01*
X58913084Y-43738410D01*
X58952716Y-44079208D01*
X58991502Y-44420257D01*
X59029450Y-44761542D01*
X59066567Y-45103046D01*
X59102859Y-45444754D01*
X59138333Y-45786649D01*
X59172995Y-46128716D01*
X59206853Y-46470939D01*
X59239913Y-46813302D01*
X59272182Y-47155788D01*
X59303666Y-47498383D01*
X59334373Y-47841070D01*
X59364308Y-48183833D01*
X59393480Y-48526657D01*
X59421893Y-48869525D01*
X59449556Y-49212421D01*
X59476474Y-49555330D01*
X59502656Y-49898236D01*
X59528106Y-50241122D01*
X59552832Y-50583973D01*
X59576842Y-50926773D01*
X59600140Y-51269506D01*
X59622735Y-51612157D01*
X59644633Y-51954708D01*
X59665840Y-52297144D01*
X59686363Y-52639450D01*
X59706210Y-52981609D01*
X59725387Y-53323606D01*
X59743899Y-53665425D01*
X59761756Y-54007049D01*
X30259736Y-53712561D02*
X30231911Y-53397287D01*
X30203720Y-53083003D01*
X30175127Y-52769649D01*
X30146095Y-52457161D01*
X30116590Y-52145480D01*
X30086576Y-51834542D01*
X30056018Y-51524287D01*
X30024879Y-51214653D01*
X29993125Y-50905578D01*
X29960720Y-50597000D01*
X29927629Y-50288859D01*
X29893815Y-49981091D01*
X29859244Y-49673637D01*
X29823880Y-49366433D01*
X29787687Y-49059419D01*
X29750631Y-48752533D01*
X29712674Y-48445713D01*
X29673783Y-48138898D01*
X29633921Y-47832026D01*
X29593052Y-47525035D01*
X29551143Y-47217864D01*
X29508156Y-46910451D01*
X29464056Y-46602734D01*
X29418808Y-46294653D01*
X29372377Y-45986144D01*
X29324726Y-45677148D01*
X29275821Y-45367601D01*
X29225625Y-45057443D01*
X29174104Y-44746612D01*
X29121222Y-44435046D01*
X29066943Y-44122683D01*
X29011232Y-43809463D01*
X59918154Y-57796223D02*
X59923086Y-57954677D01*
X59928437Y-58131045D01*
X59934115Y-58323460D01*
X59937048Y-58425101D01*
X59940028Y-58530053D01*
X59943043Y-58638083D01*
X59946082Y-58748956D01*
X59949133Y-58862441D01*
X59952185Y-58978302D01*
X59955225Y-59096307D01*
X59958244Y-59216222D01*
X59961228Y-59337814D01*
X59964166Y-59460849D01*
X59967047Y-59585093D01*
X59969859Y-59710313D01*
X59972591Y-59836277D01*
X59975231Y-59962749D01*
X59977767Y-60089497D01*
X59980188Y-60216287D01*
X59982482Y-60342885D01*
X59984638Y-60469059D01*
X59986644Y-60594575D01*
X59988489Y-60719198D01*
X59990160Y-60842696D01*
X59991646Y-60964836D01*
X59992937Y-61085383D01*
X59994019Y-61204104D01*
X59994882Y-61320766D01*
X59995515Y-61435135D01*
X29011232Y-43809463D02*
X28924676Y-43336544D01*
X28835252Y-42863722D01*
X28743016Y-42391026D01*
X28648028Y-41918481D01*
X28550348Y-41446115D01*
X28450035Y-40973955D01*
X28347147Y-40502029D01*
X28241744Y-40030362D01*
X28133886Y-39558984D01*
X28023630Y-39087920D01*
X27911036Y-38617197D01*
X27796164Y-38146844D01*
X27679072Y-37676887D01*
X27559820Y-37207353D01*
X27438467Y-36738270D01*
X27315072Y-36269664D01*
X27189693Y-35801563D01*
X27062391Y-35333993D01*
X26933224Y-34866983D01*
X26802251Y-34400559D01*
X26669532Y-33934747D01*
X26535126Y-33469577D01*
X26399091Y-33005074D01*
X26261488Y-32541265D01*
X26122374Y-32078179D01*
X25981810Y-31615841D01*
X25839854Y-31154280D01*
X25696565Y-30693522D01*
X25552003Y-30233594D01*
X25406227Y-29774524D01*
X25259295Y-29316339D01*
X25111268Y-28859066D01*
X31042632Y-63671014D02*
X31024917Y-63422770D01*
X31006189Y-63162829D01*
X30986506Y-62891954D01*
X30965926Y-62610909D01*
X30944506Y-62320457D01*
X30922304Y-62021362D01*
X30899378Y-61714387D01*
X30875785Y-61400296D01*
X30851583Y-61079853D01*
X30826830Y-60753821D01*
X30801584Y-60422963D01*
X30775903Y-60088044D01*
X30749844Y-59749826D01*
X30723464Y-59409074D01*
X30696822Y-59066550D01*
X30669976Y-58723019D01*
X30642983Y-58379244D01*
X30615901Y-58035989D01*
X30588788Y-57694016D01*
X30561701Y-57354091D01*
X30534698Y-57016975D01*
X30507837Y-56683434D01*
X30481175Y-56354229D01*
X30454771Y-56030126D01*
X30428683Y-55711887D01*
X30402967Y-55400276D01*
X30377681Y-55096057D01*
X30352885Y-54799993D01*
X30328634Y-54512848D01*
X30304987Y-54235385D01*
X30282001Y-53968368D01*
X30259736Y-53712561D01*
D11*
X52213824Y-15000000D02*
X19658728Y-15000000D01*
D10*
X21839420Y-19744996D02*
X21776602Y-19593957D01*
X21713405Y-19443257D01*
X21649831Y-19292879D01*
X21585884Y-19142807D01*
X21521568Y-18993026D01*
X21456887Y-18843518D01*
X21391844Y-18694268D01*
X21326443Y-18545261D01*
X21260687Y-18396479D01*
X21194580Y-18247907D01*
X21128125Y-18099530D01*
X21061327Y-17951330D01*
X20994188Y-17803291D01*
X20926713Y-17655399D01*
X20858905Y-17507637D01*
X20790768Y-17359988D01*
X20722304Y-17212437D01*
X20653519Y-17064968D01*
X20584415Y-16917564D01*
X20514997Y-16770210D01*
X20445267Y-16622890D01*
X20375229Y-16475587D01*
X20304887Y-16328285D01*
X20234245Y-16180970D01*
X20163306Y-16033624D01*
X20092074Y-15886231D01*
X20020553Y-15738775D01*
X19948745Y-15591242D01*
X19876655Y-15443613D01*
X19804287Y-15295874D01*
X19731643Y-15148008D01*
X19658728Y-15000000D01*
X59761756Y-54007049D02*
X59767788Y-54125323D01*
X59773746Y-54243622D01*
X59779628Y-54361943D01*
X59785435Y-54480286D01*
X59791168Y-54598647D01*
X59796826Y-54717027D01*
X59802409Y-54835423D01*
X59807918Y-54953834D01*
X59813352Y-55072258D01*
X59818712Y-55190695D01*
X59823999Y-55309141D01*
X59829211Y-55427597D01*
X59834350Y-55546060D01*
X59839415Y-55664528D01*
X59844406Y-55783001D01*
X59849324Y-55901477D01*
X59854169Y-56019953D01*
X59858941Y-56138430D01*
X59863640Y-56256905D01*
X59868266Y-56375376D01*
X59872820Y-56493843D01*
X59877301Y-56612303D01*
X59881710Y-56730755D01*
X59886046Y-56849198D01*
X59890310Y-56967631D01*
X59894503Y-57086050D01*
X59898623Y-57204456D01*
X59902672Y-57322846D01*
X59906649Y-57441220D01*
X59910555Y-57559574D01*
X59914390Y-57677909D01*
X59918154Y-57796223D01*
X25111268Y-28859066D02*
X25073823Y-28744055D01*
X25036197Y-28628743D01*
X24998399Y-28513161D01*
X24960440Y-28397340D01*
X24922331Y-28281312D01*
X24884083Y-28165108D01*
X24845707Y-28048760D01*
X24807213Y-27932299D01*
X24768612Y-27815756D01*
X24729915Y-27699163D01*
X24691133Y-27582551D01*
X24652276Y-27465952D01*
X24613356Y-27349397D01*
X24574382Y-27232917D01*
X24535367Y-27116544D01*
X24496320Y-27000309D01*
X24457252Y-26884243D01*
X24418175Y-26768379D01*
X24379098Y-26652747D01*
X24340033Y-26537378D01*
X24300991Y-26422305D01*
X24261982Y-26307558D01*
X24223017Y-26193169D01*
X24184106Y-26079170D01*
X24145262Y-25965591D01*
X24106493Y-25852464D01*
X24067812Y-25739821D01*
X24029229Y-25627692D01*
X23990754Y-25516110D01*
X23952399Y-25405106D01*
X23914174Y-25294710D01*
X23876091Y-25184956D01*
X58148352Y-38266719D02*
X58172627Y-38415887D01*
X58196706Y-38565107D01*
X58220590Y-38714376D01*
X58244278Y-38863692D01*
X58267773Y-39013055D01*
X58291074Y-39162463D01*
X58314182Y-39311913D01*
X58337098Y-39461405D01*
X58359823Y-39610938D01*
X58382356Y-39760508D01*
X58404700Y-39910116D01*
X58426855Y-40059759D01*
X58448821Y-40209435D01*
X58470599Y-40359144D01*
X58492190Y-40508883D01*
X58513594Y-40658652D01*
X58534812Y-40808448D01*
X58555846Y-40958270D01*
X58576694Y-41108116D01*
X58597359Y-41257986D01*
X58617841Y-41407876D01*
X58638141Y-41557786D01*
X58658259Y-41707715D01*
X58678196Y-41857660D01*
X58697952Y-42007620D01*
X58717530Y-42157594D01*
X58736928Y-42307579D01*
X58756148Y-42457575D01*
X58775190Y-42607580D01*
X58794056Y-42757592D01*
X58812745Y-42907610D01*
X58831260Y-43057632D01*
X31298120Y-67632307D02*
X31291060Y-67510700D01*
X31283944Y-67388980D01*
X31276770Y-67267142D01*
X31269539Y-67145185D01*
X31262249Y-67023106D01*
X31254901Y-66900903D01*
X31247495Y-66778571D01*
X31240030Y-66656110D01*
X31232507Y-66533515D01*
X31224924Y-66410785D01*
X31217281Y-66287917D01*
X31209579Y-66164908D01*
X31201817Y-66041755D01*
X31193995Y-65918456D01*
X31186112Y-65795008D01*
X31178169Y-65671408D01*
X31170165Y-65547654D01*
X31162100Y-65423744D01*
X31153973Y-65299673D01*
X31145785Y-65175440D01*
X31137535Y-65051043D01*
X31129223Y-64926477D01*
X31120848Y-64801742D01*
X31112411Y-64676833D01*
X31103911Y-64551748D01*
X31095348Y-64426486D01*
X31086722Y-64301042D01*
X31078032Y-64175414D01*
X31069278Y-64049600D01*
X31060460Y-63923597D01*
X31051578Y-63797403D01*
X31042632Y-63671014D01*
D11*
X59831662Y-67632307D02*
X31298120Y-67632307D01*
D10*
X59995515Y-61435135D02*
X59996126Y-61620633D01*
X59996287Y-61806020D01*
X59996007Y-61991313D01*
X59995296Y-62176529D01*
X59994164Y-62361687D01*
X59992622Y-62546804D01*
X59990679Y-62731898D01*
X59988347Y-62916988D01*
X59985634Y-63102090D01*
X59982551Y-63287223D01*
X59979109Y-63472405D01*
X59975318Y-63657652D01*
X59971187Y-63842985D01*
X59966727Y-64028419D01*
X59961948Y-64213973D01*
X59956861Y-64399665D01*
X59956861Y-64399665D02*
X59952556Y-64548859D01*
X59948064Y-64698049D01*
X59943406Y-64846922D01*
X59938605Y-64995169D01*
X59933680Y-65142479D01*
X59928653Y-65288543D01*
X59923545Y-65433050D01*
X59918378Y-65575690D01*
X59913172Y-65716152D01*
X59907950Y-65854127D01*
X59902731Y-65989304D01*
X59897538Y-66121373D01*
X59892392Y-66250024D01*
X59887313Y-66374946D01*
X59882323Y-66495829D01*
X59877443Y-66612363D01*
X59872695Y-66724239D01*
X59868099Y-66831144D01*
X59863677Y-66932770D01*
X59855439Y-67118943D01*
X59848152Y-67280274D01*
X59841984Y-67414281D01*
X59837105Y-67518484D01*
X59831893Y-67627547D01*
X59831662Y-67632307D01*
X52724212Y-16492226D02*
X52765948Y-16616697D01*
X52807575Y-16741222D01*
X52849091Y-16865801D01*
X52890497Y-16990434D01*
X52931793Y-17115121D01*
X52972978Y-17239863D01*
X53014052Y-17364659D01*
X53055017Y-17489512D01*
X53095871Y-17614420D01*
X53136614Y-17739384D01*
X53177247Y-17864405D01*
X53217770Y-17989483D01*
X53258182Y-18114618D01*
X53298484Y-18239810D01*
X53338675Y-18365061D01*
X53378756Y-18490370D01*
M02*
