%TF.GenerationSoftware,KiCad,Pcbnew,7.0.9*%
%TF.CreationDate,2023-12-16T21:23:10+01:00*%
%TF.ProjectId,LH_GripLogicBoard_FreeJoy,4c485f47-7269-4704-9c6f-676963426f61,rev?*%
%TF.SameCoordinates,Original*%
%TF.FileFunction,Legend,Bot*%
%TF.FilePolarity,Positive*%
%FSLAX46Y46*%
G04 Gerber Fmt 4.6, Leading zero omitted, Abs format (unit mm)*
G04 Created by KiCad (PCBNEW 7.0.9) date 2023-12-16 21:23:10*
%MOMM*%
%LPD*%
G01*
G04 APERTURE LIST*
G04 Aperture macros list*
%AMRoundRect*
0 Rectangle with rounded corners*
0 $1 Rounding radius*
0 $2 $3 $4 $5 $6 $7 $8 $9 X,Y pos of 4 corners*
0 Add a 4 corners polygon primitive as box body*
4,1,4,$2,$3,$4,$5,$6,$7,$8,$9,$2,$3,0*
0 Add four circle primitives for the rounded corners*
1,1,$1+$1,$2,$3*
1,1,$1+$1,$4,$5*
1,1,$1+$1,$6,$7*
1,1,$1+$1,$8,$9*
0 Add four rect primitives between the rounded corners*
20,1,$1+$1,$2,$3,$4,$5,0*
20,1,$1+$1,$4,$5,$6,$7,0*
20,1,$1+$1,$6,$7,$8,$9,0*
20,1,$1+$1,$8,$9,$2,$3,0*%
G04 Aperture macros list end*
%ADD10C,0.150000*%
%ADD11C,0.120000*%
%ADD12RoundRect,0.250000X0.600000X0.725000X-0.600000X0.725000X-0.600000X-0.725000X0.600000X-0.725000X0*%
%ADD13O,1.700000X1.950000*%
%ADD14RoundRect,0.250000X0.450000X-0.350000X0.450000X0.350000X-0.450000X0.350000X-0.450000X-0.350000X0*%
%ADD15RoundRect,0.250000X0.600000X0.750000X-0.600000X0.750000X-0.600000X-0.750000X0.600000X-0.750000X0*%
%ADD16O,1.700000X2.000000*%
%ADD17RoundRect,0.250000X-0.600000X-0.725000X0.600000X-0.725000X0.600000X0.725000X-0.600000X0.725000X0*%
%ADD18C,2.200000*%
G04 APERTURE END LIST*
D10*
X44603220Y-35289819D02*
X44603220Y-34289819D01*
X44603220Y-34289819D02*
X44031792Y-35289819D01*
X44031792Y-35289819D02*
X44031792Y-34289819D01*
X43412744Y-35289819D02*
X43507982Y-35242200D01*
X43507982Y-35242200D02*
X43555601Y-35194580D01*
X43555601Y-35194580D02*
X43603220Y-35099342D01*
X43603220Y-35099342D02*
X43603220Y-34813628D01*
X43603220Y-34813628D02*
X43555601Y-34718390D01*
X43555601Y-34718390D02*
X43507982Y-34670771D01*
X43507982Y-34670771D02*
X43412744Y-34623152D01*
X43412744Y-34623152D02*
X43269887Y-34623152D01*
X43269887Y-34623152D02*
X43174649Y-34670771D01*
X43174649Y-34670771D02*
X43127030Y-34718390D01*
X43127030Y-34718390D02*
X43079411Y-34813628D01*
X43079411Y-34813628D02*
X43079411Y-35099342D01*
X43079411Y-35099342D02*
X43127030Y-35194580D01*
X43127030Y-35194580D02*
X43174649Y-35242200D01*
X43174649Y-35242200D02*
X43269887Y-35289819D01*
X43269887Y-35289819D02*
X43412744Y-35289819D01*
X42650839Y-35289819D02*
X42650839Y-34289819D01*
X42650839Y-34289819D02*
X42269887Y-34289819D01*
X42269887Y-34289819D02*
X42174649Y-34337438D01*
X42174649Y-34337438D02*
X42127030Y-34385057D01*
X42127030Y-34385057D02*
X42079411Y-34480295D01*
X42079411Y-34480295D02*
X42079411Y-34623152D01*
X42079411Y-34623152D02*
X42127030Y-34718390D01*
X42127030Y-34718390D02*
X42174649Y-34766009D01*
X42174649Y-34766009D02*
X42269887Y-34813628D01*
X42269887Y-34813628D02*
X42650839Y-34813628D01*
X41507982Y-35289819D02*
X41603220Y-35242200D01*
X41603220Y-35242200D02*
X41650839Y-35146961D01*
X41650839Y-35146961D02*
X41650839Y-34289819D01*
X40698458Y-35289819D02*
X40698458Y-34766009D01*
X40698458Y-34766009D02*
X40746077Y-34670771D01*
X40746077Y-34670771D02*
X40841315Y-34623152D01*
X40841315Y-34623152D02*
X41031791Y-34623152D01*
X41031791Y-34623152D02*
X41127029Y-34670771D01*
X40698458Y-35242200D02*
X40793696Y-35289819D01*
X40793696Y-35289819D02*
X41031791Y-35289819D01*
X41031791Y-35289819D02*
X41127029Y-35242200D01*
X41127029Y-35242200D02*
X41174648Y-35146961D01*
X41174648Y-35146961D02*
X41174648Y-35051723D01*
X41174648Y-35051723D02*
X41127029Y-34956485D01*
X41127029Y-34956485D02*
X41031791Y-34908866D01*
X41031791Y-34908866D02*
X40793696Y-34908866D01*
X40793696Y-34908866D02*
X40698458Y-34861247D01*
X40222267Y-34623152D02*
X40222267Y-35289819D01*
X40222267Y-34718390D02*
X40174648Y-34670771D01*
X40174648Y-34670771D02*
X40079410Y-34623152D01*
X40079410Y-34623152D02*
X39936553Y-34623152D01*
X39936553Y-34623152D02*
X39841315Y-34670771D01*
X39841315Y-34670771D02*
X39793696Y-34766009D01*
X39793696Y-34766009D02*
X39793696Y-35289819D01*
X39317505Y-35289819D02*
X39317505Y-34289819D01*
X39317505Y-34289819D02*
X38746077Y-35289819D01*
X38746077Y-35289819D02*
X38746077Y-34289819D01*
X38127029Y-35289819D02*
X38222267Y-35242200D01*
X38222267Y-35242200D02*
X38269886Y-35194580D01*
X38269886Y-35194580D02*
X38317505Y-35099342D01*
X38317505Y-35099342D02*
X38317505Y-34813628D01*
X38317505Y-34813628D02*
X38269886Y-34718390D01*
X38269886Y-34718390D02*
X38222267Y-34670771D01*
X38222267Y-34670771D02*
X38127029Y-34623152D01*
X38127029Y-34623152D02*
X37984172Y-34623152D01*
X37984172Y-34623152D02*
X37888934Y-34670771D01*
X37888934Y-34670771D02*
X37841315Y-34718390D01*
X37841315Y-34718390D02*
X37793696Y-34813628D01*
X37793696Y-34813628D02*
X37793696Y-35099342D01*
X37793696Y-35099342D02*
X37841315Y-35194580D01*
X37841315Y-35194580D02*
X37888934Y-35242200D01*
X37888934Y-35242200D02*
X37984172Y-35289819D01*
X37984172Y-35289819D02*
X38127029Y-35289819D01*
X37365124Y-35289819D02*
X37365124Y-34623152D01*
X37365124Y-34718390D02*
X37317505Y-34670771D01*
X37317505Y-34670771D02*
X37222267Y-34623152D01*
X37222267Y-34623152D02*
X37079410Y-34623152D01*
X37079410Y-34623152D02*
X36984172Y-34670771D01*
X36984172Y-34670771D02*
X36936553Y-34766009D01*
X36936553Y-34766009D02*
X36936553Y-35289819D01*
X36936553Y-34766009D02*
X36888934Y-34670771D01*
X36888934Y-34670771D02*
X36793696Y-34623152D01*
X36793696Y-34623152D02*
X36650839Y-34623152D01*
X36650839Y-34623152D02*
X36555600Y-34670771D01*
X36555600Y-34670771D02*
X36507981Y-34766009D01*
X36507981Y-34766009D02*
X36507981Y-35289819D01*
X35603220Y-35289819D02*
X35603220Y-34766009D01*
X35603220Y-34766009D02*
X35650839Y-34670771D01*
X35650839Y-34670771D02*
X35746077Y-34623152D01*
X35746077Y-34623152D02*
X35936553Y-34623152D01*
X35936553Y-34623152D02*
X36031791Y-34670771D01*
X35603220Y-35242200D02*
X35698458Y-35289819D01*
X35698458Y-35289819D02*
X35936553Y-35289819D01*
X35936553Y-35289819D02*
X36031791Y-35242200D01*
X36031791Y-35242200D02*
X36079410Y-35146961D01*
X36079410Y-35146961D02*
X36079410Y-35051723D01*
X36079410Y-35051723D02*
X36031791Y-34956485D01*
X36031791Y-34956485D02*
X35936553Y-34908866D01*
X35936553Y-34908866D02*
X35698458Y-34908866D01*
X35698458Y-34908866D02*
X35603220Y-34861247D01*
X34698458Y-35289819D02*
X34698458Y-34289819D01*
X34698458Y-35242200D02*
X34793696Y-35289819D01*
X34793696Y-35289819D02*
X34984172Y-35289819D01*
X34984172Y-35289819D02*
X35079410Y-35242200D01*
X35079410Y-35242200D02*
X35127029Y-35194580D01*
X35127029Y-35194580D02*
X35174648Y-35099342D01*
X35174648Y-35099342D02*
X35174648Y-34813628D01*
X35174648Y-34813628D02*
X35127029Y-34718390D01*
X35127029Y-34718390D02*
X35079410Y-34670771D01*
X35079410Y-34670771D02*
X34984172Y-34623152D01*
X34984172Y-34623152D02*
X34793696Y-34623152D01*
X34793696Y-34623152D02*
X34698458Y-34670771D01*
X44269887Y-36376009D02*
X44603220Y-36376009D01*
X44603220Y-36899819D02*
X44603220Y-35899819D01*
X44603220Y-35899819D02*
X44127030Y-35899819D01*
X43603220Y-36899819D02*
X43698458Y-36852200D01*
X43698458Y-36852200D02*
X43746077Y-36756961D01*
X43746077Y-36756961D02*
X43746077Y-35899819D01*
X42793696Y-36899819D02*
X42793696Y-36376009D01*
X42793696Y-36376009D02*
X42841315Y-36280771D01*
X42841315Y-36280771D02*
X42936553Y-36233152D01*
X42936553Y-36233152D02*
X43127029Y-36233152D01*
X43127029Y-36233152D02*
X43222267Y-36280771D01*
X42793696Y-36852200D02*
X42888934Y-36899819D01*
X42888934Y-36899819D02*
X43127029Y-36899819D01*
X43127029Y-36899819D02*
X43222267Y-36852200D01*
X43222267Y-36852200D02*
X43269886Y-36756961D01*
X43269886Y-36756961D02*
X43269886Y-36661723D01*
X43269886Y-36661723D02*
X43222267Y-36566485D01*
X43222267Y-36566485D02*
X43127029Y-36518866D01*
X43127029Y-36518866D02*
X42888934Y-36518866D01*
X42888934Y-36518866D02*
X42793696Y-36471247D01*
X42317505Y-36233152D02*
X42317505Y-36899819D01*
X42317505Y-36328390D02*
X42269886Y-36280771D01*
X42269886Y-36280771D02*
X42174648Y-36233152D01*
X42174648Y-36233152D02*
X42031791Y-36233152D01*
X42031791Y-36233152D02*
X41936553Y-36280771D01*
X41936553Y-36280771D02*
X41888934Y-36376009D01*
X41888934Y-36376009D02*
X41888934Y-36899819D01*
X41412743Y-36899819D02*
X41412743Y-35899819D01*
X41317505Y-36518866D02*
X41031791Y-36899819D01*
X41031791Y-36233152D02*
X41412743Y-36614104D01*
X40222267Y-36852200D02*
X40317505Y-36899819D01*
X40317505Y-36899819D02*
X40507981Y-36899819D01*
X40507981Y-36899819D02*
X40603219Y-36852200D01*
X40603219Y-36852200D02*
X40650838Y-36756961D01*
X40650838Y-36756961D02*
X40650838Y-36376009D01*
X40650838Y-36376009D02*
X40603219Y-36280771D01*
X40603219Y-36280771D02*
X40507981Y-36233152D01*
X40507981Y-36233152D02*
X40317505Y-36233152D01*
X40317505Y-36233152D02*
X40222267Y-36280771D01*
X40222267Y-36280771D02*
X40174648Y-36376009D01*
X40174648Y-36376009D02*
X40174648Y-36471247D01*
X40174648Y-36471247D02*
X40650838Y-36566485D01*
X39746076Y-36899819D02*
X39746076Y-36233152D01*
X39746076Y-36423628D02*
X39698457Y-36328390D01*
X39698457Y-36328390D02*
X39650838Y-36280771D01*
X39650838Y-36280771D02*
X39555600Y-36233152D01*
X39555600Y-36233152D02*
X39460362Y-36233152D01*
X37888933Y-36899819D02*
X38365123Y-36899819D01*
X38365123Y-36899819D02*
X38365123Y-35899819D01*
X37174647Y-36852200D02*
X37269885Y-36899819D01*
X37269885Y-36899819D02*
X37460361Y-36899819D01*
X37460361Y-36899819D02*
X37555599Y-36852200D01*
X37555599Y-36852200D02*
X37603218Y-36756961D01*
X37603218Y-36756961D02*
X37603218Y-36376009D01*
X37603218Y-36376009D02*
X37555599Y-36280771D01*
X37555599Y-36280771D02*
X37460361Y-36233152D01*
X37460361Y-36233152D02*
X37269885Y-36233152D01*
X37269885Y-36233152D02*
X37174647Y-36280771D01*
X37174647Y-36280771D02*
X37127028Y-36376009D01*
X37127028Y-36376009D02*
X37127028Y-36471247D01*
X37127028Y-36471247D02*
X37603218Y-36566485D01*
X36841313Y-36233152D02*
X36460361Y-36233152D01*
X36698456Y-36899819D02*
X36698456Y-36042676D01*
X36698456Y-36042676D02*
X36650837Y-35947438D01*
X36650837Y-35947438D02*
X36555599Y-35899819D01*
X36555599Y-35899819D02*
X36460361Y-35899819D01*
X36269884Y-36233152D02*
X35888932Y-36233152D01*
X36127027Y-35899819D02*
X36127027Y-36756961D01*
X36127027Y-36756961D02*
X36079408Y-36852200D01*
X36079408Y-36852200D02*
X35984170Y-36899819D01*
X35984170Y-36899819D02*
X35888932Y-36899819D01*
X34793693Y-36899819D02*
X34793693Y-35899819D01*
X34793693Y-36376009D02*
X34222265Y-36376009D01*
X34222265Y-36899819D02*
X34222265Y-35899819D01*
X33317503Y-36899819D02*
X33317503Y-36376009D01*
X33317503Y-36376009D02*
X33365122Y-36280771D01*
X33365122Y-36280771D02*
X33460360Y-36233152D01*
X33460360Y-36233152D02*
X33650836Y-36233152D01*
X33650836Y-36233152D02*
X33746074Y-36280771D01*
X33317503Y-36852200D02*
X33412741Y-36899819D01*
X33412741Y-36899819D02*
X33650836Y-36899819D01*
X33650836Y-36899819D02*
X33746074Y-36852200D01*
X33746074Y-36852200D02*
X33793693Y-36756961D01*
X33793693Y-36756961D02*
X33793693Y-36661723D01*
X33793693Y-36661723D02*
X33746074Y-36566485D01*
X33746074Y-36566485D02*
X33650836Y-36518866D01*
X33650836Y-36518866D02*
X33412741Y-36518866D01*
X33412741Y-36518866D02*
X33317503Y-36471247D01*
X32841312Y-36233152D02*
X32841312Y-36899819D01*
X32841312Y-36328390D02*
X32793693Y-36280771D01*
X32793693Y-36280771D02*
X32698455Y-36233152D01*
X32698455Y-36233152D02*
X32555598Y-36233152D01*
X32555598Y-36233152D02*
X32460360Y-36280771D01*
X32460360Y-36280771D02*
X32412741Y-36376009D01*
X32412741Y-36376009D02*
X32412741Y-36899819D01*
X31507979Y-36899819D02*
X31507979Y-35899819D01*
X31507979Y-36852200D02*
X31603217Y-36899819D01*
X31603217Y-36899819D02*
X31793693Y-36899819D01*
X31793693Y-36899819D02*
X31888931Y-36852200D01*
X31888931Y-36852200D02*
X31936550Y-36804580D01*
X31936550Y-36804580D02*
X31984169Y-36709342D01*
X31984169Y-36709342D02*
X31984169Y-36423628D01*
X31984169Y-36423628D02*
X31936550Y-36328390D01*
X31936550Y-36328390D02*
X31888931Y-36280771D01*
X31888931Y-36280771D02*
X31793693Y-36233152D01*
X31793693Y-36233152D02*
X31603217Y-36233152D01*
X31603217Y-36233152D02*
X31507979Y-36280771D01*
X44269887Y-37986009D02*
X44603220Y-37986009D01*
X44603220Y-38509819D02*
X44603220Y-37509819D01*
X44603220Y-37509819D02*
X44127030Y-37509819D01*
X43460363Y-37509819D02*
X43460363Y-38224104D01*
X43460363Y-38224104D02*
X43507982Y-38366961D01*
X43507982Y-38366961D02*
X43603220Y-38462200D01*
X43603220Y-38462200D02*
X43746077Y-38509819D01*
X43746077Y-38509819D02*
X43841315Y-38509819D01*
X41698458Y-37557438D02*
X41793696Y-37509819D01*
X41793696Y-37509819D02*
X41936553Y-37509819D01*
X41936553Y-37509819D02*
X42079410Y-37557438D01*
X42079410Y-37557438D02*
X42174648Y-37652676D01*
X42174648Y-37652676D02*
X42222267Y-37747914D01*
X42222267Y-37747914D02*
X42269886Y-37938390D01*
X42269886Y-37938390D02*
X42269886Y-38081247D01*
X42269886Y-38081247D02*
X42222267Y-38271723D01*
X42222267Y-38271723D02*
X42174648Y-38366961D01*
X42174648Y-38366961D02*
X42079410Y-38462200D01*
X42079410Y-38462200D02*
X41936553Y-38509819D01*
X41936553Y-38509819D02*
X41841315Y-38509819D01*
X41841315Y-38509819D02*
X41698458Y-38462200D01*
X41698458Y-38462200D02*
X41650839Y-38414580D01*
X41650839Y-38414580D02*
X41650839Y-38081247D01*
X41650839Y-38081247D02*
X41841315Y-38081247D01*
X41222267Y-38509819D02*
X41222267Y-37843152D01*
X41222267Y-38033628D02*
X41174648Y-37938390D01*
X41174648Y-37938390D02*
X41127029Y-37890771D01*
X41127029Y-37890771D02*
X41031791Y-37843152D01*
X41031791Y-37843152D02*
X40936553Y-37843152D01*
X40603219Y-38509819D02*
X40603219Y-37843152D01*
X40603219Y-37509819D02*
X40650838Y-37557438D01*
X40650838Y-37557438D02*
X40603219Y-37605057D01*
X40603219Y-37605057D02*
X40555600Y-37557438D01*
X40555600Y-37557438D02*
X40603219Y-37509819D01*
X40603219Y-37509819D02*
X40603219Y-37605057D01*
X40127029Y-37843152D02*
X40127029Y-38843152D01*
X40127029Y-37890771D02*
X40031791Y-37843152D01*
X40031791Y-37843152D02*
X39841315Y-37843152D01*
X39841315Y-37843152D02*
X39746077Y-37890771D01*
X39746077Y-37890771D02*
X39698458Y-37938390D01*
X39698458Y-37938390D02*
X39650839Y-38033628D01*
X39650839Y-38033628D02*
X39650839Y-38319342D01*
X39650839Y-38319342D02*
X39698458Y-38414580D01*
X39698458Y-38414580D02*
X39746077Y-38462200D01*
X39746077Y-38462200D02*
X39841315Y-38509819D01*
X39841315Y-38509819D02*
X40031791Y-38509819D01*
X40031791Y-38509819D02*
X40127029Y-38462200D01*
X37984172Y-38509819D02*
X38460362Y-38509819D01*
X38460362Y-38509819D02*
X38460362Y-37509819D01*
X37507981Y-38509819D02*
X37603219Y-38462200D01*
X37603219Y-38462200D02*
X37650838Y-38414580D01*
X37650838Y-38414580D02*
X37698457Y-38319342D01*
X37698457Y-38319342D02*
X37698457Y-38033628D01*
X37698457Y-38033628D02*
X37650838Y-37938390D01*
X37650838Y-37938390D02*
X37603219Y-37890771D01*
X37603219Y-37890771D02*
X37507981Y-37843152D01*
X37507981Y-37843152D02*
X37365124Y-37843152D01*
X37365124Y-37843152D02*
X37269886Y-37890771D01*
X37269886Y-37890771D02*
X37222267Y-37938390D01*
X37222267Y-37938390D02*
X37174648Y-38033628D01*
X37174648Y-38033628D02*
X37174648Y-38319342D01*
X37174648Y-38319342D02*
X37222267Y-38414580D01*
X37222267Y-38414580D02*
X37269886Y-38462200D01*
X37269886Y-38462200D02*
X37365124Y-38509819D01*
X37365124Y-38509819D02*
X37507981Y-38509819D01*
X36317505Y-37843152D02*
X36317505Y-38652676D01*
X36317505Y-38652676D02*
X36365124Y-38747914D01*
X36365124Y-38747914D02*
X36412743Y-38795533D01*
X36412743Y-38795533D02*
X36507981Y-38843152D01*
X36507981Y-38843152D02*
X36650838Y-38843152D01*
X36650838Y-38843152D02*
X36746076Y-38795533D01*
X36317505Y-38462200D02*
X36412743Y-38509819D01*
X36412743Y-38509819D02*
X36603219Y-38509819D01*
X36603219Y-38509819D02*
X36698457Y-38462200D01*
X36698457Y-38462200D02*
X36746076Y-38414580D01*
X36746076Y-38414580D02*
X36793695Y-38319342D01*
X36793695Y-38319342D02*
X36793695Y-38033628D01*
X36793695Y-38033628D02*
X36746076Y-37938390D01*
X36746076Y-37938390D02*
X36698457Y-37890771D01*
X36698457Y-37890771D02*
X36603219Y-37843152D01*
X36603219Y-37843152D02*
X36412743Y-37843152D01*
X36412743Y-37843152D02*
X36317505Y-37890771D01*
X35841314Y-38509819D02*
X35841314Y-37843152D01*
X35841314Y-37509819D02*
X35888933Y-37557438D01*
X35888933Y-37557438D02*
X35841314Y-37605057D01*
X35841314Y-37605057D02*
X35793695Y-37557438D01*
X35793695Y-37557438D02*
X35841314Y-37509819D01*
X35841314Y-37509819D02*
X35841314Y-37605057D01*
X34936553Y-38462200D02*
X35031791Y-38509819D01*
X35031791Y-38509819D02*
X35222267Y-38509819D01*
X35222267Y-38509819D02*
X35317505Y-38462200D01*
X35317505Y-38462200D02*
X35365124Y-38414580D01*
X35365124Y-38414580D02*
X35412743Y-38319342D01*
X35412743Y-38319342D02*
X35412743Y-38033628D01*
X35412743Y-38033628D02*
X35365124Y-37938390D01*
X35365124Y-37938390D02*
X35317505Y-37890771D01*
X35317505Y-37890771D02*
X35222267Y-37843152D01*
X35222267Y-37843152D02*
X35031791Y-37843152D01*
X35031791Y-37843152D02*
X34936553Y-37890771D01*
X33412743Y-37986009D02*
X33269886Y-38033628D01*
X33269886Y-38033628D02*
X33222267Y-38081247D01*
X33222267Y-38081247D02*
X33174648Y-38176485D01*
X33174648Y-38176485D02*
X33174648Y-38319342D01*
X33174648Y-38319342D02*
X33222267Y-38414580D01*
X33222267Y-38414580D02*
X33269886Y-38462200D01*
X33269886Y-38462200D02*
X33365124Y-38509819D01*
X33365124Y-38509819D02*
X33746076Y-38509819D01*
X33746076Y-38509819D02*
X33746076Y-37509819D01*
X33746076Y-37509819D02*
X33412743Y-37509819D01*
X33412743Y-37509819D02*
X33317505Y-37557438D01*
X33317505Y-37557438D02*
X33269886Y-37605057D01*
X33269886Y-37605057D02*
X33222267Y-37700295D01*
X33222267Y-37700295D02*
X33222267Y-37795533D01*
X33222267Y-37795533D02*
X33269886Y-37890771D01*
X33269886Y-37890771D02*
X33317505Y-37938390D01*
X33317505Y-37938390D02*
X33412743Y-37986009D01*
X33412743Y-37986009D02*
X33746076Y-37986009D01*
X32603219Y-38509819D02*
X32698457Y-38462200D01*
X32698457Y-38462200D02*
X32746076Y-38414580D01*
X32746076Y-38414580D02*
X32793695Y-38319342D01*
X32793695Y-38319342D02*
X32793695Y-38033628D01*
X32793695Y-38033628D02*
X32746076Y-37938390D01*
X32746076Y-37938390D02*
X32698457Y-37890771D01*
X32698457Y-37890771D02*
X32603219Y-37843152D01*
X32603219Y-37843152D02*
X32460362Y-37843152D01*
X32460362Y-37843152D02*
X32365124Y-37890771D01*
X32365124Y-37890771D02*
X32317505Y-37938390D01*
X32317505Y-37938390D02*
X32269886Y-38033628D01*
X32269886Y-38033628D02*
X32269886Y-38319342D01*
X32269886Y-38319342D02*
X32317505Y-38414580D01*
X32317505Y-38414580D02*
X32365124Y-38462200D01*
X32365124Y-38462200D02*
X32460362Y-38509819D01*
X32460362Y-38509819D02*
X32603219Y-38509819D01*
X31412743Y-38509819D02*
X31412743Y-37986009D01*
X31412743Y-37986009D02*
X31460362Y-37890771D01*
X31460362Y-37890771D02*
X31555600Y-37843152D01*
X31555600Y-37843152D02*
X31746076Y-37843152D01*
X31746076Y-37843152D02*
X31841314Y-37890771D01*
X31412743Y-38462200D02*
X31507981Y-38509819D01*
X31507981Y-38509819D02*
X31746076Y-38509819D01*
X31746076Y-38509819D02*
X31841314Y-38462200D01*
X31841314Y-38462200D02*
X31888933Y-38366961D01*
X31888933Y-38366961D02*
X31888933Y-38271723D01*
X31888933Y-38271723D02*
X31841314Y-38176485D01*
X31841314Y-38176485D02*
X31746076Y-38128866D01*
X31746076Y-38128866D02*
X31507981Y-38128866D01*
X31507981Y-38128866D02*
X31412743Y-38081247D01*
X30936552Y-38509819D02*
X30936552Y-37843152D01*
X30936552Y-38033628D02*
X30888933Y-37938390D01*
X30888933Y-37938390D02*
X30841314Y-37890771D01*
X30841314Y-37890771D02*
X30746076Y-37843152D01*
X30746076Y-37843152D02*
X30650838Y-37843152D01*
X29888933Y-38509819D02*
X29888933Y-37509819D01*
X29888933Y-38462200D02*
X29984171Y-38509819D01*
X29984171Y-38509819D02*
X30174647Y-38509819D01*
X30174647Y-38509819D02*
X30269885Y-38462200D01*
X30269885Y-38462200D02*
X30317504Y-38414580D01*
X30317504Y-38414580D02*
X30365123Y-38319342D01*
X30365123Y-38319342D02*
X30365123Y-38033628D01*
X30365123Y-38033628D02*
X30317504Y-37938390D01*
X30317504Y-37938390D02*
X30269885Y-37890771D01*
X30269885Y-37890771D02*
X30174647Y-37843152D01*
X30174647Y-37843152D02*
X29984171Y-37843152D01*
X29984171Y-37843152D02*
X29888933Y-37890771D01*
X49513333Y-59332819D02*
X49513333Y-60047104D01*
X49513333Y-60047104D02*
X49560952Y-60189961D01*
X49560952Y-60189961D02*
X49656190Y-60285200D01*
X49656190Y-60285200D02*
X49799047Y-60332819D01*
X49799047Y-60332819D02*
X49894285Y-60332819D01*
X48513333Y-60332819D02*
X49084761Y-60332819D01*
X48799047Y-60332819D02*
X48799047Y-59332819D01*
X48799047Y-59332819D02*
X48894285Y-59475676D01*
X48894285Y-59475676D02*
X48989523Y-59570914D01*
X48989523Y-59570914D02*
X49084761Y-59618533D01*
X44046666Y-47019819D02*
X44379999Y-46543628D01*
X44618094Y-47019819D02*
X44618094Y-46019819D01*
X44618094Y-46019819D02*
X44237142Y-46019819D01*
X44237142Y-46019819D02*
X44141904Y-46067438D01*
X44141904Y-46067438D02*
X44094285Y-46115057D01*
X44094285Y-46115057D02*
X44046666Y-46210295D01*
X44046666Y-46210295D02*
X44046666Y-46353152D01*
X44046666Y-46353152D02*
X44094285Y-46448390D01*
X44094285Y-46448390D02*
X44141904Y-46496009D01*
X44141904Y-46496009D02*
X44237142Y-46543628D01*
X44237142Y-46543628D02*
X44618094Y-46543628D01*
X43141904Y-46019819D02*
X43618094Y-46019819D01*
X43618094Y-46019819D02*
X43665713Y-46496009D01*
X43665713Y-46496009D02*
X43618094Y-46448390D01*
X43618094Y-46448390D02*
X43522856Y-46400771D01*
X43522856Y-46400771D02*
X43284761Y-46400771D01*
X43284761Y-46400771D02*
X43189523Y-46448390D01*
X43189523Y-46448390D02*
X43141904Y-46496009D01*
X43141904Y-46496009D02*
X43094285Y-46591247D01*
X43094285Y-46591247D02*
X43094285Y-46829342D01*
X43094285Y-46829342D02*
X43141904Y-46924580D01*
X43141904Y-46924580D02*
X43189523Y-46972200D01*
X43189523Y-46972200D02*
X43284761Y-47019819D01*
X43284761Y-47019819D02*
X43522856Y-47019819D01*
X43522856Y-47019819D02*
X43618094Y-46972200D01*
X43618094Y-46972200D02*
X43665713Y-46924580D01*
X56179333Y-47642819D02*
X56179333Y-48357104D01*
X56179333Y-48357104D02*
X56226952Y-48499961D01*
X56226952Y-48499961D02*
X56322190Y-48595200D01*
X56322190Y-48595200D02*
X56465047Y-48642819D01*
X56465047Y-48642819D02*
X56560285Y-48642819D01*
X55274571Y-47976152D02*
X55274571Y-48642819D01*
X55512666Y-47595200D02*
X55750761Y-48309485D01*
X55750761Y-48309485D02*
X55131714Y-48309485D01*
X31923333Y-20494819D02*
X31923333Y-21209104D01*
X31923333Y-21209104D02*
X31970952Y-21351961D01*
X31970952Y-21351961D02*
X32066190Y-21447200D01*
X32066190Y-21447200D02*
X32209047Y-21494819D01*
X32209047Y-21494819D02*
X32304285Y-21494819D01*
X31304285Y-20923390D02*
X31399523Y-20875771D01*
X31399523Y-20875771D02*
X31447142Y-20828152D01*
X31447142Y-20828152D02*
X31494761Y-20732914D01*
X31494761Y-20732914D02*
X31494761Y-20685295D01*
X31494761Y-20685295D02*
X31447142Y-20590057D01*
X31447142Y-20590057D02*
X31399523Y-20542438D01*
X31399523Y-20542438D02*
X31304285Y-20494819D01*
X31304285Y-20494819D02*
X31113809Y-20494819D01*
X31113809Y-20494819D02*
X31018571Y-20542438D01*
X31018571Y-20542438D02*
X30970952Y-20590057D01*
X30970952Y-20590057D02*
X30923333Y-20685295D01*
X30923333Y-20685295D02*
X30923333Y-20732914D01*
X30923333Y-20732914D02*
X30970952Y-20828152D01*
X30970952Y-20828152D02*
X31018571Y-20875771D01*
X31018571Y-20875771D02*
X31113809Y-20923390D01*
X31113809Y-20923390D02*
X31304285Y-20923390D01*
X31304285Y-20923390D02*
X31399523Y-20971009D01*
X31399523Y-20971009D02*
X31447142Y-21018628D01*
X31447142Y-21018628D02*
X31494761Y-21113866D01*
X31494761Y-21113866D02*
X31494761Y-21304342D01*
X31494761Y-21304342D02*
X31447142Y-21399580D01*
X31447142Y-21399580D02*
X31399523Y-21447200D01*
X31399523Y-21447200D02*
X31304285Y-21494819D01*
X31304285Y-21494819D02*
X31113809Y-21494819D01*
X31113809Y-21494819D02*
X31018571Y-21447200D01*
X31018571Y-21447200D02*
X30970952Y-21399580D01*
X30970952Y-21399580D02*
X30923333Y-21304342D01*
X30923333Y-21304342D02*
X30923333Y-21113866D01*
X30923333Y-21113866D02*
X30970952Y-21018628D01*
X30970952Y-21018628D02*
X31018571Y-20971009D01*
X31018571Y-20971009D02*
X31113809Y-20923390D01*
X54423333Y-34144819D02*
X54423333Y-34859104D01*
X54423333Y-34859104D02*
X54470952Y-35001961D01*
X54470952Y-35001961D02*
X54566190Y-35097200D01*
X54566190Y-35097200D02*
X54709047Y-35144819D01*
X54709047Y-35144819D02*
X54804285Y-35144819D01*
X54042380Y-34144819D02*
X53375714Y-34144819D01*
X53375714Y-34144819D02*
X53804285Y-35144819D01*
X46556666Y-47069819D02*
X46889999Y-46593628D01*
X47128094Y-47069819D02*
X47128094Y-46069819D01*
X47128094Y-46069819D02*
X46747142Y-46069819D01*
X46747142Y-46069819D02*
X46651904Y-46117438D01*
X46651904Y-46117438D02*
X46604285Y-46165057D01*
X46604285Y-46165057D02*
X46556666Y-46260295D01*
X46556666Y-46260295D02*
X46556666Y-46403152D01*
X46556666Y-46403152D02*
X46604285Y-46498390D01*
X46604285Y-46498390D02*
X46651904Y-46546009D01*
X46651904Y-46546009D02*
X46747142Y-46593628D01*
X46747142Y-46593628D02*
X47128094Y-46593628D01*
X45699523Y-46069819D02*
X45889999Y-46069819D01*
X45889999Y-46069819D02*
X45985237Y-46117438D01*
X45985237Y-46117438D02*
X46032856Y-46165057D01*
X46032856Y-46165057D02*
X46128094Y-46307914D01*
X46128094Y-46307914D02*
X46175713Y-46498390D01*
X46175713Y-46498390D02*
X46175713Y-46879342D01*
X46175713Y-46879342D02*
X46128094Y-46974580D01*
X46128094Y-46974580D02*
X46080475Y-47022200D01*
X46080475Y-47022200D02*
X45985237Y-47069819D01*
X45985237Y-47069819D02*
X45794761Y-47069819D01*
X45794761Y-47069819D02*
X45699523Y-47022200D01*
X45699523Y-47022200D02*
X45651904Y-46974580D01*
X45651904Y-46974580D02*
X45604285Y-46879342D01*
X45604285Y-46879342D02*
X45604285Y-46641247D01*
X45604285Y-46641247D02*
X45651904Y-46546009D01*
X45651904Y-46546009D02*
X45699523Y-46498390D01*
X45699523Y-46498390D02*
X45794761Y-46450771D01*
X45794761Y-46450771D02*
X45985237Y-46450771D01*
X45985237Y-46450771D02*
X46080475Y-46498390D01*
X46080475Y-46498390D02*
X46128094Y-46546009D01*
X46128094Y-46546009D02*
X46175713Y-46641247D01*
X55163333Y-41038819D02*
X55163333Y-41753104D01*
X55163333Y-41753104D02*
X55210952Y-41895961D01*
X55210952Y-41895961D02*
X55306190Y-41991200D01*
X55306190Y-41991200D02*
X55449047Y-42038819D01*
X55449047Y-42038819D02*
X55544285Y-42038819D01*
X54210952Y-41038819D02*
X54687142Y-41038819D01*
X54687142Y-41038819D02*
X54734761Y-41515009D01*
X54734761Y-41515009D02*
X54687142Y-41467390D01*
X54687142Y-41467390D02*
X54591904Y-41419771D01*
X54591904Y-41419771D02*
X54353809Y-41419771D01*
X54353809Y-41419771D02*
X54258571Y-41467390D01*
X54258571Y-41467390D02*
X54210952Y-41515009D01*
X54210952Y-41515009D02*
X54163333Y-41610247D01*
X54163333Y-41610247D02*
X54163333Y-41848342D01*
X54163333Y-41848342D02*
X54210952Y-41943580D01*
X54210952Y-41943580D02*
X54258571Y-41991200D01*
X54258571Y-41991200D02*
X54353809Y-42038819D01*
X54353809Y-42038819D02*
X54591904Y-42038819D01*
X54591904Y-42038819D02*
X54687142Y-41991200D01*
X54687142Y-41991200D02*
X54734761Y-41943580D01*
X49513333Y-20484819D02*
X49513333Y-21199104D01*
X49513333Y-21199104D02*
X49560952Y-21341961D01*
X49560952Y-21341961D02*
X49656190Y-21437200D01*
X49656190Y-21437200D02*
X49799047Y-21484819D01*
X49799047Y-21484819D02*
X49894285Y-21484819D01*
X49084761Y-20580057D02*
X49037142Y-20532438D01*
X49037142Y-20532438D02*
X48941904Y-20484819D01*
X48941904Y-20484819D02*
X48703809Y-20484819D01*
X48703809Y-20484819D02*
X48608571Y-20532438D01*
X48608571Y-20532438D02*
X48560952Y-20580057D01*
X48560952Y-20580057D02*
X48513333Y-20675295D01*
X48513333Y-20675295D02*
X48513333Y-20770533D01*
X48513333Y-20770533D02*
X48560952Y-20913390D01*
X48560952Y-20913390D02*
X49132380Y-21484819D01*
X49132380Y-21484819D02*
X48513333Y-21484819D01*
X41556666Y-47049819D02*
X41889999Y-46573628D01*
X42128094Y-47049819D02*
X42128094Y-46049819D01*
X42128094Y-46049819D02*
X41747142Y-46049819D01*
X41747142Y-46049819D02*
X41651904Y-46097438D01*
X41651904Y-46097438D02*
X41604285Y-46145057D01*
X41604285Y-46145057D02*
X41556666Y-46240295D01*
X41556666Y-46240295D02*
X41556666Y-46383152D01*
X41556666Y-46383152D02*
X41604285Y-46478390D01*
X41604285Y-46478390D02*
X41651904Y-46526009D01*
X41651904Y-46526009D02*
X41747142Y-46573628D01*
X41747142Y-46573628D02*
X42128094Y-46573628D01*
X40699523Y-46383152D02*
X40699523Y-47049819D01*
X40937618Y-46002200D02*
X41175713Y-46716485D01*
X41175713Y-46716485D02*
X40556666Y-46716485D01*
X39036666Y-47029819D02*
X39369999Y-46553628D01*
X39608094Y-47029819D02*
X39608094Y-46029819D01*
X39608094Y-46029819D02*
X39227142Y-46029819D01*
X39227142Y-46029819D02*
X39131904Y-46077438D01*
X39131904Y-46077438D02*
X39084285Y-46125057D01*
X39084285Y-46125057D02*
X39036666Y-46220295D01*
X39036666Y-46220295D02*
X39036666Y-46363152D01*
X39036666Y-46363152D02*
X39084285Y-46458390D01*
X39084285Y-46458390D02*
X39131904Y-46506009D01*
X39131904Y-46506009D02*
X39227142Y-46553628D01*
X39227142Y-46553628D02*
X39608094Y-46553628D01*
X38703332Y-46029819D02*
X38084285Y-46029819D01*
X38084285Y-46029819D02*
X38417618Y-46410771D01*
X38417618Y-46410771D02*
X38274761Y-46410771D01*
X38274761Y-46410771D02*
X38179523Y-46458390D01*
X38179523Y-46458390D02*
X38131904Y-46506009D01*
X38131904Y-46506009D02*
X38084285Y-46601247D01*
X38084285Y-46601247D02*
X38084285Y-46839342D01*
X38084285Y-46839342D02*
X38131904Y-46934580D01*
X38131904Y-46934580D02*
X38179523Y-46982200D01*
X38179523Y-46982200D02*
X38274761Y-47029819D01*
X38274761Y-47029819D02*
X38560475Y-47029819D01*
X38560475Y-47029819D02*
X38655713Y-46982200D01*
X38655713Y-46982200D02*
X38703332Y-46934580D01*
X51723333Y-27284819D02*
X51723333Y-27999104D01*
X51723333Y-27999104D02*
X51770952Y-28141961D01*
X51770952Y-28141961D02*
X51866190Y-28237200D01*
X51866190Y-28237200D02*
X52009047Y-28284819D01*
X52009047Y-28284819D02*
X52104285Y-28284819D01*
X51342380Y-27284819D02*
X50723333Y-27284819D01*
X50723333Y-27284819D02*
X51056666Y-27665771D01*
X51056666Y-27665771D02*
X50913809Y-27665771D01*
X50913809Y-27665771D02*
X50818571Y-27713390D01*
X50818571Y-27713390D02*
X50770952Y-27761009D01*
X50770952Y-27761009D02*
X50723333Y-27856247D01*
X50723333Y-27856247D02*
X50723333Y-28094342D01*
X50723333Y-28094342D02*
X50770952Y-28189580D01*
X50770952Y-28189580D02*
X50818571Y-28237200D01*
X50818571Y-28237200D02*
X50913809Y-28284819D01*
X50913809Y-28284819D02*
X51199523Y-28284819D01*
X51199523Y-28284819D02*
X51294761Y-28237200D01*
X51294761Y-28237200D02*
X51342380Y-28189580D01*
X49076666Y-46989819D02*
X49409999Y-46513628D01*
X49648094Y-46989819D02*
X49648094Y-45989819D01*
X49648094Y-45989819D02*
X49267142Y-45989819D01*
X49267142Y-45989819D02*
X49171904Y-46037438D01*
X49171904Y-46037438D02*
X49124285Y-46085057D01*
X49124285Y-46085057D02*
X49076666Y-46180295D01*
X49076666Y-46180295D02*
X49076666Y-46323152D01*
X49076666Y-46323152D02*
X49124285Y-46418390D01*
X49124285Y-46418390D02*
X49171904Y-46466009D01*
X49171904Y-46466009D02*
X49267142Y-46513628D01*
X49267142Y-46513628D02*
X49648094Y-46513628D01*
X48743332Y-45989819D02*
X48076666Y-45989819D01*
X48076666Y-45989819D02*
X48505237Y-46989819D01*
X34213333Y-53084819D02*
X34213333Y-53799104D01*
X34213333Y-53799104D02*
X34260952Y-53941961D01*
X34260952Y-53941961D02*
X34356190Y-54037200D01*
X34356190Y-54037200D02*
X34499047Y-54084819D01*
X34499047Y-54084819D02*
X34594285Y-54084819D01*
X33308571Y-53084819D02*
X33499047Y-53084819D01*
X33499047Y-53084819D02*
X33594285Y-53132438D01*
X33594285Y-53132438D02*
X33641904Y-53180057D01*
X33641904Y-53180057D02*
X33737142Y-53322914D01*
X33737142Y-53322914D02*
X33784761Y-53513390D01*
X33784761Y-53513390D02*
X33784761Y-53894342D01*
X33784761Y-53894342D02*
X33737142Y-53989580D01*
X33737142Y-53989580D02*
X33689523Y-54037200D01*
X33689523Y-54037200D02*
X33594285Y-54084819D01*
X33594285Y-54084819D02*
X33403809Y-54084819D01*
X33403809Y-54084819D02*
X33308571Y-54037200D01*
X33308571Y-54037200D02*
X33260952Y-53989580D01*
X33260952Y-53989580D02*
X33213333Y-53894342D01*
X33213333Y-53894342D02*
X33213333Y-53656247D01*
X33213333Y-53656247D02*
X33260952Y-53561009D01*
X33260952Y-53561009D02*
X33308571Y-53513390D01*
X33308571Y-53513390D02*
X33403809Y-53465771D01*
X33403809Y-53465771D02*
X33594285Y-53465771D01*
X33594285Y-53465771D02*
X33689523Y-53513390D01*
X33689523Y-53513390D02*
X33737142Y-53561009D01*
X33737142Y-53561009D02*
X33784761Y-53656247D01*
D11*
X58480000Y-63228000D02*
X58480000Y-66178000D01*
X59530000Y-60678000D02*
X59530000Y-61928000D01*
X39130000Y-61728000D02*
X39130000Y-60978000D01*
X39130000Y-63228000D02*
X39880000Y-63228000D01*
X58280000Y-60678000D02*
X59530000Y-60678000D01*
X59230000Y-60978000D02*
X59230000Y-61728000D01*
X39130000Y-60978000D02*
X40930000Y-60978000D01*
X57430000Y-61728000D02*
X57430000Y-60978000D01*
X40930000Y-60978000D02*
X40930000Y-61728000D01*
X57430000Y-60978000D02*
X59230000Y-60978000D01*
X59240000Y-60968000D02*
X59240000Y-66938000D01*
X39880000Y-63228000D02*
X39880000Y-66178000D01*
X39120000Y-60968000D02*
X59240000Y-60968000D01*
X55930000Y-61728000D02*
X42430000Y-61728000D01*
X39880000Y-66178000D02*
X49180000Y-66178000D01*
X40930000Y-61728000D02*
X39130000Y-61728000D01*
X59240000Y-66938000D02*
X39120000Y-66938000D01*
X39120000Y-66938000D02*
X39120000Y-60968000D01*
X55930000Y-60978000D02*
X55930000Y-61728000D01*
X42430000Y-60978000D02*
X55930000Y-60978000D01*
X59230000Y-61728000D02*
X57430000Y-61728000D01*
X58480000Y-66178000D02*
X49180000Y-66178000D01*
X42430000Y-61728000D02*
X42430000Y-60978000D01*
X59230000Y-63228000D02*
X58480000Y-63228000D01*
X44624999Y-49487064D02*
X44624999Y-49032936D01*
X43154999Y-49487064D02*
X43154999Y-49032936D01*
X50650000Y-46050000D02*
X51400000Y-46050000D01*
X51400000Y-46050000D02*
X51400000Y-49000000D01*
X51400000Y-49000000D02*
X54450000Y-49000000D01*
X57500000Y-46050000D02*
X57500000Y-49000000D01*
X53950000Y-43800000D02*
X54950000Y-43800000D01*
X54950000Y-43800000D02*
X54950000Y-44550000D01*
X54950000Y-44550000D02*
X53950000Y-44550000D01*
X52450000Y-44550000D02*
X50650000Y-44550000D01*
X50650000Y-43800000D02*
X52450000Y-43800000D01*
X58550000Y-43500000D02*
X58550000Y-44750000D01*
X58260000Y-43790000D02*
X58260000Y-49760000D01*
X58250000Y-43800000D02*
X58250000Y-44550000D01*
X58260000Y-49760000D02*
X50640000Y-49760000D01*
X53950000Y-44550000D02*
X53950000Y-43800000D01*
X58250000Y-46050000D02*
X57500000Y-46050000D01*
X58250000Y-44550000D02*
X56450000Y-44550000D01*
X57300000Y-43500000D02*
X58550000Y-43500000D01*
X50650000Y-44550000D02*
X50650000Y-43800000D01*
X56450000Y-43800000D02*
X58250000Y-43800000D01*
X50640000Y-43790000D02*
X58260000Y-43790000D01*
X57500000Y-49000000D02*
X54450000Y-49000000D01*
X52450000Y-43800000D02*
X52450000Y-44550000D01*
X50640000Y-49760000D02*
X50640000Y-43790000D01*
X56450000Y-44550000D02*
X56450000Y-43800000D01*
X25650000Y-18835000D02*
X26400000Y-18835000D01*
X26400000Y-18835000D02*
X26400000Y-21785000D01*
X26400000Y-21785000D02*
X29450000Y-21785000D01*
X32500000Y-18835000D02*
X32500000Y-21785000D01*
X28950000Y-16585000D02*
X29950000Y-16585000D01*
X29950000Y-16585000D02*
X29950000Y-17335000D01*
X29950000Y-17335000D02*
X28950000Y-17335000D01*
X27450000Y-17335000D02*
X25650000Y-17335000D01*
X25650000Y-16585000D02*
X27450000Y-16585000D01*
X33550000Y-16285000D02*
X33550000Y-17535000D01*
X33260000Y-16575000D02*
X33260000Y-22545000D01*
X33250000Y-16585000D02*
X33250000Y-17335000D01*
X33260000Y-22545000D02*
X25640000Y-22545000D01*
X28950000Y-17335000D02*
X28950000Y-16585000D01*
X33250000Y-18835000D02*
X32500000Y-18835000D01*
X33250000Y-17335000D02*
X31450000Y-17335000D01*
X32300000Y-16285000D02*
X33550000Y-16285000D01*
X25650000Y-17335000D02*
X25650000Y-16585000D01*
X31450000Y-16585000D02*
X33250000Y-16585000D01*
X25640000Y-16575000D02*
X33260000Y-16575000D01*
X32500000Y-21785000D02*
X29450000Y-21785000D01*
X27450000Y-16585000D02*
X27450000Y-17335000D01*
X25640000Y-22545000D02*
X25640000Y-16575000D01*
X31450000Y-17335000D02*
X31450000Y-16585000D01*
X48110000Y-32440000D02*
X48860000Y-32440000D01*
X48860000Y-32440000D02*
X48860000Y-35390000D01*
X48860000Y-35390000D02*
X51910000Y-35390000D01*
X54960000Y-32440000D02*
X54960000Y-35390000D01*
X51410000Y-30190000D02*
X52410000Y-30190000D01*
X52410000Y-30190000D02*
X52410000Y-30940000D01*
X52410000Y-30940000D02*
X51410000Y-30940000D01*
X49910000Y-30940000D02*
X48110000Y-30940000D01*
X48110000Y-30190000D02*
X49910000Y-30190000D01*
X56010000Y-29890000D02*
X56010000Y-31140000D01*
X55720000Y-30180000D02*
X55720000Y-36150000D01*
X55710000Y-30190000D02*
X55710000Y-30940000D01*
X55720000Y-36150000D02*
X48100000Y-36150000D01*
X51410000Y-30940000D02*
X51410000Y-30190000D01*
X55710000Y-32440000D02*
X54960000Y-32440000D01*
X55710000Y-30940000D02*
X53910000Y-30940000D01*
X54760000Y-29890000D02*
X56010000Y-29890000D01*
X48110000Y-30940000D02*
X48110000Y-30190000D01*
X53910000Y-30190000D02*
X55710000Y-30190000D01*
X48100000Y-30180000D02*
X55720000Y-30180000D01*
X54960000Y-35390000D02*
X51910000Y-35390000D01*
X49910000Y-30190000D02*
X49910000Y-30940000D01*
X48100000Y-36150000D02*
X48100000Y-30180000D01*
X53910000Y-30940000D02*
X53910000Y-30190000D01*
X47125000Y-49487064D02*
X47125000Y-49032936D01*
X45655000Y-49487064D02*
X45655000Y-49032936D01*
X49580000Y-39240000D02*
X50330000Y-39240000D01*
X50330000Y-39240000D02*
X50330000Y-42190000D01*
X50330000Y-42190000D02*
X53380000Y-42190000D01*
X56430000Y-39240000D02*
X56430000Y-42190000D01*
X52880000Y-36990000D02*
X53880000Y-36990000D01*
X53880000Y-36990000D02*
X53880000Y-37740000D01*
X53880000Y-37740000D02*
X52880000Y-37740000D01*
X51380000Y-37740000D02*
X49580000Y-37740000D01*
X49580000Y-36990000D02*
X51380000Y-36990000D01*
X57480000Y-36690000D02*
X57480000Y-37940000D01*
X57190000Y-36980000D02*
X57190000Y-42950000D01*
X57180000Y-36990000D02*
X57180000Y-37740000D01*
X57190000Y-42950000D02*
X49570000Y-42950000D01*
X52880000Y-37740000D02*
X52880000Y-36990000D01*
X57180000Y-39240000D02*
X56430000Y-39240000D01*
X57180000Y-37740000D02*
X55380000Y-37740000D01*
X56230000Y-36690000D02*
X57480000Y-36690000D01*
X49580000Y-37740000D02*
X49580000Y-36990000D01*
X55380000Y-36990000D02*
X57180000Y-36990000D01*
X49570000Y-36980000D02*
X57190000Y-36980000D01*
X56430000Y-42190000D02*
X53380000Y-42190000D01*
X51380000Y-36990000D02*
X51380000Y-37740000D01*
X49570000Y-42950000D02*
X49570000Y-36980000D01*
X55380000Y-37740000D02*
X55380000Y-36990000D01*
X50980000Y-21780000D02*
X44180000Y-21780000D01*
X51740000Y-16570000D02*
X51740000Y-22540000D01*
X49930000Y-16580000D02*
X51730000Y-16580000D01*
X51740000Y-22540000D02*
X36620000Y-22540000D01*
X52030000Y-16280000D02*
X52030000Y-17530000D01*
X48430000Y-17330000D02*
X39930000Y-17330000D01*
X36620000Y-16570000D02*
X51740000Y-16570000D01*
X37380000Y-18830000D02*
X37380000Y-21780000D01*
X36620000Y-22540000D02*
X36620000Y-16570000D01*
X51730000Y-18830000D02*
X50980000Y-18830000D01*
X38430000Y-16580000D02*
X38430000Y-17330000D01*
X39930000Y-16580000D02*
X48430000Y-16580000D01*
X50780000Y-16280000D02*
X52030000Y-16280000D01*
X36630000Y-17330000D02*
X36630000Y-16580000D01*
X51730000Y-17330000D02*
X49930000Y-17330000D01*
X37380000Y-21780000D02*
X44180000Y-21780000D01*
X36630000Y-16580000D02*
X38430000Y-16580000D01*
X48430000Y-16580000D02*
X48430000Y-17330000D01*
X50980000Y-18830000D02*
X50980000Y-21780000D01*
X36630000Y-18830000D02*
X37380000Y-18830000D01*
X39930000Y-17330000D02*
X39930000Y-16580000D01*
X38430000Y-17330000D02*
X36630000Y-17330000D01*
X51730000Y-16580000D02*
X51730000Y-17330000D01*
X49930000Y-17330000D02*
X49930000Y-16580000D01*
X42124999Y-49487064D02*
X42124999Y-49032936D01*
X40654999Y-49487064D02*
X40654999Y-49032936D01*
X39624999Y-49487064D02*
X39624999Y-49032936D01*
X38154999Y-49487064D02*
X38154999Y-49032936D01*
X53190000Y-28580000D02*
X46390000Y-28580000D01*
X53950000Y-23370000D02*
X53950000Y-29340000D01*
X52140000Y-23380000D02*
X53940000Y-23380000D01*
X53950000Y-29340000D02*
X38830000Y-29340000D01*
X54240000Y-23080000D02*
X54240000Y-24330000D01*
X50640000Y-24130000D02*
X42140000Y-24130000D01*
X38830000Y-23370000D02*
X53950000Y-23370000D01*
X39590000Y-25630000D02*
X39590000Y-28580000D01*
X38830000Y-29340000D02*
X38830000Y-23370000D01*
X53940000Y-25630000D02*
X53190000Y-25630000D01*
X40640000Y-23380000D02*
X40640000Y-24130000D01*
X42140000Y-23380000D02*
X50640000Y-23380000D01*
X52990000Y-23080000D02*
X54240000Y-23080000D01*
X38840000Y-24130000D02*
X38840000Y-23380000D01*
X53940000Y-24130000D02*
X52140000Y-24130000D01*
X39590000Y-28580000D02*
X46390000Y-28580000D01*
X38840000Y-23380000D02*
X40640000Y-23380000D01*
X50640000Y-23380000D02*
X50640000Y-24130000D01*
X53190000Y-25630000D02*
X53190000Y-28580000D01*
X38840000Y-25630000D02*
X39590000Y-25630000D01*
X42140000Y-24130000D02*
X42140000Y-23380000D01*
X40640000Y-24130000D02*
X38840000Y-24130000D01*
X53940000Y-23380000D02*
X53940000Y-24130000D01*
X52140000Y-24130000D02*
X52140000Y-23380000D01*
X49625000Y-49487064D02*
X49625000Y-49032936D01*
X48155000Y-49487064D02*
X48155000Y-49032936D01*
X32090000Y-55720000D02*
X32090000Y-52770000D01*
X31040000Y-58270000D02*
X31040000Y-57020000D01*
X51440000Y-57220000D02*
X51440000Y-57970000D01*
X51440000Y-55720000D02*
X50690000Y-55720000D01*
X32290000Y-58270000D02*
X31040000Y-58270000D01*
X31340000Y-57970000D02*
X31340000Y-57220000D01*
X51440000Y-57970000D02*
X49640000Y-57970000D01*
X33140000Y-57220000D02*
X33140000Y-57970000D01*
X49640000Y-57970000D02*
X49640000Y-57220000D01*
X33140000Y-57970000D02*
X31340000Y-57970000D01*
X31330000Y-57980000D02*
X31330000Y-52010000D01*
X50690000Y-55720000D02*
X50690000Y-52770000D01*
X51450000Y-57980000D02*
X31330000Y-57980000D01*
X34640000Y-57220000D02*
X48140000Y-57220000D01*
X50690000Y-52770000D02*
X41390000Y-52770000D01*
X49640000Y-57220000D02*
X51440000Y-57220000D01*
X31330000Y-52010000D02*
X51450000Y-52010000D01*
X51450000Y-52010000D02*
X51450000Y-57980000D01*
X34640000Y-57970000D02*
X34640000Y-57220000D01*
X48140000Y-57970000D02*
X34640000Y-57970000D01*
X31340000Y-57220000D02*
X33140000Y-57220000D01*
X32090000Y-52770000D02*
X41390000Y-52770000D01*
X48140000Y-57220000D02*
X48140000Y-57970000D01*
X31340000Y-55720000D02*
X32090000Y-55720000D01*
%LPC*%
D12*
X56680000Y-63428000D03*
D13*
X54180000Y-63428000D03*
X51680000Y-63428000D03*
X49180000Y-63428000D03*
X46680000Y-63428000D03*
X44180000Y-63428000D03*
X41680000Y-63428000D03*
D14*
X43889999Y-50260000D03*
X43889999Y-48260000D03*
D15*
X55700000Y-46250000D03*
D16*
X53200000Y-46250000D03*
D15*
X30700000Y-19035000D03*
D16*
X28200000Y-19035000D03*
D15*
X53160000Y-32640000D03*
D16*
X50660000Y-32640000D03*
D14*
X46390000Y-50260000D03*
X46390000Y-48260000D03*
D15*
X54630000Y-39440000D03*
D16*
X52130000Y-39440000D03*
D12*
X49180000Y-19030000D03*
D13*
X46680000Y-19030000D03*
X44180000Y-19030000D03*
X41680000Y-19030000D03*
X39180000Y-19030000D03*
D14*
X41389999Y-50260000D03*
X41389999Y-48260000D03*
X38889999Y-50260000D03*
X38889999Y-48260000D03*
D12*
X51390000Y-25830000D03*
D13*
X48890000Y-25830000D03*
X46390000Y-25830000D03*
X43890000Y-25830000D03*
X41390000Y-25830000D03*
D14*
X48890000Y-50260000D03*
X48890000Y-48260000D03*
D17*
X33890000Y-55520000D03*
D13*
X36390000Y-55520000D03*
X38890000Y-55520000D03*
X41390000Y-55520000D03*
X43890000Y-55520000D03*
X46390000Y-55520000D03*
X48890000Y-55520000D03*
D18*
X56310000Y-56850000D03*
X30930000Y-24390000D03*
%LPD*%
M02*
