%TF.GenerationSoftware,KiCad,Pcbnew,7.0.6*%
%TF.CreationDate,2023-07-13T14:44:05+02:00*%
%TF.ProjectId,LH_GripLogicBoard_FreeJoy,4c485f47-7269-4704-9c6f-676963426f61,rev?*%
%TF.SameCoordinates,Original*%
%TF.FileFunction,Copper,L2,Bot*%
%TF.FilePolarity,Positive*%
%FSLAX46Y46*%
G04 Gerber Fmt 4.6, Leading zero omitted, Abs format (unit mm)*
G04 Created by KiCad (PCBNEW 7.0.6) date 2023-07-13 14:44:05*
%MOMM*%
%LPD*%
G01*
G04 APERTURE LIST*
G04 Aperture macros list*
%AMRoundRect*
0 Rectangle with rounded corners*
0 $1 Rounding radius*
0 $2 $3 $4 $5 $6 $7 $8 $9 X,Y pos of 4 corners*
0 Add a 4 corners polygon primitive as box body*
4,1,4,$2,$3,$4,$5,$6,$7,$8,$9,$2,$3,0*
0 Add four circle primitives for the rounded corners*
1,1,$1+$1,$2,$3*
1,1,$1+$1,$4,$5*
1,1,$1+$1,$6,$7*
1,1,$1+$1,$8,$9*
0 Add four rect primitives between the rounded corners*
20,1,$1+$1,$2,$3,$4,$5,0*
20,1,$1+$1,$4,$5,$6,$7,0*
20,1,$1+$1,$6,$7,$8,$9,0*
20,1,$1+$1,$8,$9,$2,$3,0*%
G04 Aperture macros list end*
%TA.AperFunction,ComponentPad*%
%ADD10RoundRect,0.250000X-0.600000X-0.725000X0.600000X-0.725000X0.600000X0.725000X-0.600000X0.725000X0*%
%TD*%
%TA.AperFunction,ComponentPad*%
%ADD11O,1.700000X1.950000*%
%TD*%
%TA.AperFunction,SMDPad,CuDef*%
%ADD12RoundRect,0.250000X0.450000X-0.350000X0.450000X0.350000X-0.450000X0.350000X-0.450000X-0.350000X0*%
%TD*%
%TA.AperFunction,ComponentPad*%
%ADD13RoundRect,0.250000X0.600000X0.725000X-0.600000X0.725000X-0.600000X-0.725000X0.600000X-0.725000X0*%
%TD*%
%TA.AperFunction,ComponentPad*%
%ADD14RoundRect,0.250000X0.600000X0.750000X-0.600000X0.750000X-0.600000X-0.750000X0.600000X-0.750000X0*%
%TD*%
%TA.AperFunction,ComponentPad*%
%ADD15O,1.700000X2.000000*%
%TD*%
%TA.AperFunction,ViaPad*%
%ADD16C,0.800000*%
%TD*%
%TA.AperFunction,ViaPad*%
%ADD17C,0.500000*%
%TD*%
%TA.AperFunction,Conductor*%
%ADD18C,0.250000*%
%TD*%
G04 APERTURE END LIST*
D10*
X33890000Y-55520000D03*
D11*
X36390000Y-55520000D03*
X38890000Y-55520000D03*
X41390000Y-55520000D03*
X43890000Y-55520000D03*
X46390000Y-55520000D03*
X48890000Y-55520000D03*
D12*
X48890000Y-50260000D03*
X48890000Y-48260000D03*
D13*
X51390000Y-25830000D03*
D11*
X48890000Y-25830000D03*
X46390000Y-25830000D03*
X43890000Y-25830000D03*
X41390000Y-25830000D03*
D12*
X38889999Y-50260000D03*
X38889999Y-48260000D03*
X41389999Y-50260000D03*
X41389999Y-48260000D03*
D13*
X56680000Y-63428000D03*
D11*
X54180000Y-63428000D03*
X51680000Y-63428000D03*
X49180000Y-63428000D03*
X46680000Y-63428000D03*
X44180000Y-63428000D03*
X41680000Y-63428000D03*
X39180000Y-63428000D03*
D13*
X49180000Y-19030000D03*
D11*
X46680000Y-19030000D03*
X44180000Y-19030000D03*
X41680000Y-19030000D03*
X39180000Y-19030000D03*
D14*
X54630000Y-39440000D03*
D15*
X52130000Y-39440000D03*
D12*
X46390000Y-50260000D03*
X46390000Y-48260000D03*
D14*
X53160000Y-32640000D03*
D15*
X50660000Y-32640000D03*
D14*
X30700000Y-19035000D03*
D15*
X28200000Y-19035000D03*
D14*
X55700000Y-46250000D03*
D15*
X53200000Y-46250000D03*
D12*
X43889999Y-50260000D03*
X43889999Y-48260000D03*
D16*
X37770000Y-29620000D03*
D17*
X27930000Y-22810000D03*
X32595500Y-33970000D03*
X38190000Y-40410000D03*
D16*
X29620000Y-30070000D03*
D17*
X36610000Y-46260000D03*
X49042639Y-44260000D03*
X38958645Y-42970344D03*
X50110000Y-44260000D03*
X38651288Y-43598703D03*
X50110000Y-46370000D03*
X38020000Y-43900000D03*
X38750000Y-45620000D03*
X33810000Y-40680000D03*
D18*
X38190000Y-40410000D02*
X40590000Y-38010000D01*
X45030000Y-33440000D02*
X46390000Y-32080000D01*
X44500000Y-33970000D02*
X45030000Y-33440000D01*
X46390000Y-32080000D02*
X46390000Y-25830000D01*
X32595500Y-33970000D02*
X44500000Y-33970000D01*
X45030000Y-37560000D02*
X51680000Y-44210000D01*
X45030000Y-33440000D02*
X45030000Y-37560000D01*
X40590000Y-38010000D02*
X40590000Y-36830000D01*
X51680000Y-44210000D02*
X51680000Y-63428000D01*
X40590000Y-36830000D02*
X43450000Y-33970000D01*
X39180000Y-20005000D02*
X39180000Y-19030000D01*
X29620000Y-29565000D02*
X39180000Y-20005000D01*
X29620000Y-30070000D02*
X29620000Y-29565000D01*
X32470000Y-57200812D02*
X34359188Y-59090000D01*
X49180000Y-62170000D02*
X49180000Y-63428000D01*
X34359188Y-59090000D02*
X46100000Y-59090000D01*
X46100000Y-59090000D02*
X49180000Y-62170000D01*
X32470000Y-53520000D02*
X32470000Y-57200812D01*
X35110000Y-50880000D02*
X32470000Y-53520000D01*
X35110000Y-47760000D02*
X35110000Y-50880000D01*
X36610000Y-46260000D02*
X35110000Y-47760000D01*
X31120000Y-29590000D02*
X31120000Y-57760000D01*
X31120000Y-57760000D02*
X37670000Y-64310000D01*
X41680000Y-19030000D02*
X31120000Y-29590000D01*
X37670000Y-65420000D02*
X38470000Y-66220000D01*
X41388000Y-66220000D02*
X44180000Y-63428000D01*
X38470000Y-66220000D02*
X41388000Y-66220000D01*
X37670000Y-64310000D02*
X37670000Y-65420000D01*
X41389999Y-50260000D02*
X41390000Y-55520000D01*
X43889999Y-50260000D02*
X43890000Y-55520000D01*
X38889999Y-50260000D02*
X38890000Y-55520000D01*
X49042639Y-44382615D02*
X47955254Y-45470000D01*
X41460000Y-45470000D02*
X38960344Y-42970344D01*
X47955254Y-45470000D02*
X41460000Y-45470000D01*
X38960344Y-42970344D02*
X38958645Y-42970344D01*
X49042639Y-44260000D02*
X49042639Y-44382615D01*
X48450000Y-45920000D02*
X40972585Y-45920000D01*
X50110000Y-44260000D02*
X48570500Y-45799500D01*
X40972585Y-45920000D02*
X38651288Y-43598703D01*
X48610000Y-45760000D02*
X48450000Y-45920000D01*
X50110000Y-46370000D02*
X40490000Y-46370000D01*
X40490000Y-46370000D02*
X38020000Y-43900000D01*
X39180000Y-63428000D02*
X37424396Y-63428000D01*
X31570000Y-30970000D02*
X38770000Y-23770000D01*
X43890000Y-25090000D02*
X43890000Y-25830000D01*
X31570000Y-57573604D02*
X31570000Y-30970000D01*
X38770000Y-23770000D02*
X42570000Y-23770000D01*
X42570000Y-23770000D02*
X43890000Y-25090000D01*
X37424396Y-63428000D02*
X31570000Y-57573604D01*
X33810000Y-40680000D02*
X38750000Y-45620000D01*
X40253802Y-62001802D02*
X36634594Y-62001802D01*
X36634594Y-62001802D02*
X32020000Y-57387208D01*
X32020000Y-31820000D02*
X38010000Y-25830000D01*
X41680000Y-63428000D02*
X40253802Y-62001802D01*
X32020000Y-57387208D02*
X32020000Y-31820000D01*
X38010000Y-25830000D02*
X41390000Y-25830000D01*
X46390000Y-50260000D02*
X46390000Y-55520000D01*
X48890000Y-50260000D02*
X48890000Y-55520000D01*
%TA.AperFunction,Conductor*%
G36*
X52014448Y-15270185D02*
G01*
X52060203Y-15322989D01*
X52064574Y-15333901D01*
X52073946Y-15360948D01*
X52122223Y-15500741D01*
X52170335Y-15640533D01*
X52218120Y-15779850D01*
X52265834Y-15919433D01*
X52313285Y-16058720D01*
X52360963Y-16199152D01*
X52408214Y-16338806D01*
X52455643Y-16479472D01*
X52482910Y-16560569D01*
X52486839Y-16572254D01*
X52528326Y-16695982D01*
X52570012Y-16820684D01*
X52611484Y-16945133D01*
X52652630Y-17068982D01*
X52693889Y-17193555D01*
X52735225Y-17318757D01*
X52776224Y-17443327D01*
X52816805Y-17567007D01*
X52857533Y-17691531D01*
X52898456Y-17817044D01*
X52939044Y-17941928D01*
X52979429Y-18066581D01*
X53019842Y-18191719D01*
X53060054Y-18316632D01*
X53100113Y-18441470D01*
X53140001Y-18566177D01*
X53393878Y-19369338D01*
X53639437Y-20162297D01*
X53877055Y-20945592D01*
X54106789Y-21718728D01*
X54328763Y-22481420D01*
X54543147Y-23233549D01*
X54750077Y-23974872D01*
X54949694Y-24705169D01*
X55142124Y-25424166D01*
X55327531Y-26131736D01*
X55505950Y-26827241D01*
X55677659Y-27510992D01*
X55842756Y-28182611D01*
X56001293Y-28841517D01*
X56153513Y-29487904D01*
X56299496Y-30121312D01*
X56439418Y-30741653D01*
X56573400Y-31348651D01*
X56701515Y-31941752D01*
X56823940Y-32520907D01*
X56940913Y-33086362D01*
X57052450Y-33637308D01*
X57158729Y-34173706D01*
X57259912Y-34695446D01*
X57356015Y-35201661D01*
X57447369Y-35693143D01*
X57533960Y-36168848D01*
X57616013Y-36629016D01*
X57693547Y-37072749D01*
X57766872Y-37500802D01*
X57836014Y-37912293D01*
X57901131Y-38307121D01*
X57925286Y-38455551D01*
X57949365Y-38604767D01*
X57973206Y-38753764D01*
X57988284Y-38848812D01*
X57996869Y-38902924D01*
X58020301Y-39051891D01*
X58043496Y-39200620D01*
X58066655Y-39350396D01*
X58089419Y-39498898D01*
X58112073Y-39647962D01*
X58134587Y-39797404D01*
X58156942Y-39947083D01*
X58178990Y-40096004D01*
X58200980Y-40245846D01*
X58216552Y-40352886D01*
X58222717Y-40395268D01*
X58244197Y-40544239D01*
X58265603Y-40694023D01*
X58286746Y-40843290D01*
X58307808Y-40993311D01*
X58328592Y-41142699D01*
X58349205Y-41292195D01*
X58369673Y-41441984D01*
X58389820Y-41590758D01*
X58409881Y-41740264D01*
X58429904Y-41890853D01*
X58449583Y-42040226D01*
X58469122Y-42189909D01*
X58488419Y-42339106D01*
X58507713Y-42489678D01*
X58526634Y-42638731D01*
X58545442Y-42788276D01*
X58564131Y-42938293D01*
X58582659Y-43088424D01*
X58623893Y-43427792D01*
X58664327Y-43767913D01*
X58703843Y-44107718D01*
X58742604Y-44448553D01*
X58780468Y-44789085D01*
X58817481Y-45129625D01*
X58853717Y-45470805D01*
X58889120Y-45812010D01*
X58923740Y-46153666D01*
X58957541Y-46495315D01*
X58990562Y-46837277D01*
X59022754Y-47178945D01*
X59054217Y-47521308D01*
X59084831Y-47862964D01*
X59114720Y-48205200D01*
X59143858Y-48547621D01*
X59172236Y-48890072D01*
X59199847Y-49232327D01*
X59226742Y-49574936D01*
X59252882Y-49917308D01*
X59278255Y-50259156D01*
X59302946Y-50601508D01*
X59326929Y-50943921D01*
X59342504Y-51173054D01*
X59350193Y-51286160D01*
X59372767Y-51628482D01*
X59394641Y-51970664D01*
X59415798Y-52312303D01*
X59436303Y-52654301D01*
X59456133Y-52996165D01*
X59475264Y-53337354D01*
X59493761Y-53678901D01*
X59511592Y-54020036D01*
X59517606Y-54137945D01*
X59523535Y-54255665D01*
X59529446Y-54374564D01*
X59535274Y-54493341D01*
X59540981Y-54611173D01*
X59546584Y-54728432D01*
X59552198Y-54847459D01*
X59557655Y-54964754D01*
X59563162Y-55084780D01*
X59568428Y-55201123D01*
X59573801Y-55321506D01*
X59578931Y-55438119D01*
X59584087Y-55556943D01*
X59589088Y-55673934D01*
X59594092Y-55792691D01*
X59599027Y-55911570D01*
X59603902Y-56030780D01*
X59608643Y-56148501D01*
X59613307Y-56266097D01*
X59617977Y-56385690D01*
X59622468Y-56502507D01*
X59626987Y-56621956D01*
X59631353Y-56739254D01*
X59635706Y-56858169D01*
X59639982Y-56976941D01*
X59644135Y-57094228D01*
X59648217Y-57211491D01*
X59652318Y-57331394D01*
X59656252Y-57448504D01*
X59660191Y-57567860D01*
X59663998Y-57685309D01*
X59667804Y-57804929D01*
X59672698Y-57962197D01*
X59678057Y-58138828D01*
X59683732Y-58331124D01*
X59686660Y-58432594D01*
X59689629Y-58537172D01*
X59692610Y-58643960D01*
X59695659Y-58755191D01*
X59698704Y-58868460D01*
X59701773Y-58984930D01*
X59704762Y-59100949D01*
X59707827Y-59222681D01*
X59710780Y-59343032D01*
X59713737Y-59466863D01*
X59716616Y-59590991D01*
X59719426Y-59716126D01*
X59722156Y-59841993D01*
X59724782Y-59967817D01*
X59727316Y-60094466D01*
X59729723Y-60220543D01*
X59732022Y-60347417D01*
X59734177Y-60473490D01*
X59736171Y-60598252D01*
X59738011Y-60722533D01*
X59739676Y-60845570D01*
X59741159Y-60967420D01*
X59742449Y-61087881D01*
X59743526Y-61206066D01*
X59744387Y-61322382D01*
X59745017Y-61436393D01*
X59745626Y-61621165D01*
X59745787Y-61805906D01*
X59745507Y-61990786D01*
X59744798Y-62175506D01*
X59743671Y-62359696D01*
X59742131Y-62544616D01*
X59740197Y-62728903D01*
X59737867Y-62913770D01*
X59735159Y-63098477D01*
X59732089Y-63282840D01*
X59728661Y-63467267D01*
X59724880Y-63652073D01*
X59720746Y-63837510D01*
X59716307Y-64022074D01*
X59711534Y-64207393D01*
X59706453Y-64392856D01*
X59702175Y-64541113D01*
X59697687Y-64690175D01*
X59693031Y-64838982D01*
X59688262Y-64986266D01*
X59683312Y-65134345D01*
X59678317Y-65279454D01*
X59673229Y-65423401D01*
X59668035Y-65566802D01*
X59662866Y-65706260D01*
X59657642Y-65844289D01*
X59652430Y-65979301D01*
X59647284Y-66110198D01*
X59642103Y-66239726D01*
X59636991Y-66365455D01*
X59631992Y-66486543D01*
X59627147Y-66602250D01*
X59622427Y-66713456D01*
X59621339Y-66738753D01*
X59617837Y-66820205D01*
X59613383Y-66922567D01*
X59605201Y-67107465D01*
X59598158Y-67263404D01*
X59575470Y-67329485D01*
X59520655Y-67372811D01*
X59474285Y-67381807D01*
X31651374Y-67381807D01*
X31584335Y-67362122D01*
X31538580Y-67309318D01*
X31527592Y-67265149D01*
X31526923Y-67253875D01*
X31525209Y-67224765D01*
X31525182Y-67224530D01*
X31521250Y-67158207D01*
X31521248Y-67157964D01*
X31519573Y-67129928D01*
X31517963Y-67102763D01*
X31517937Y-67102532D01*
X31513947Y-67035698D01*
X31513945Y-67035477D01*
X31512302Y-67008152D01*
X31510833Y-66983544D01*
X31510832Y-66983541D01*
X31510648Y-66980456D01*
X31510621Y-66980216D01*
X31506615Y-66913602D01*
X31506614Y-66913379D01*
X31506433Y-66910397D01*
X31506434Y-66910394D01*
X31504917Y-66885349D01*
X31503468Y-66861238D01*
X31503466Y-66861233D01*
X31503305Y-66858544D01*
X31503282Y-66858334D01*
X31499224Y-66791327D01*
X31499223Y-66791095D01*
X31497511Y-66763004D01*
X31495869Y-66735888D01*
X31495844Y-66735670D01*
X31491756Y-66668608D01*
X31491754Y-66668387D01*
X31490027Y-66640226D01*
X31488399Y-66613513D01*
X31488372Y-66613277D01*
X31484230Y-66545792D01*
X31484229Y-66545562D01*
X31482453Y-66516824D01*
X31481882Y-66507519D01*
X31481025Y-66493544D01*
X31481024Y-66493541D01*
X31480854Y-66490767D01*
X31480829Y-66490541D01*
X31480280Y-66481658D01*
X31476660Y-66423081D01*
X31476659Y-66422849D01*
X31474946Y-66395328D01*
X31473241Y-66367720D01*
X31473214Y-66367477D01*
X31472783Y-66360546D01*
X31469011Y-66299924D01*
X31469010Y-66299728D01*
X31468832Y-66296892D01*
X31468833Y-66296889D01*
X31467354Y-66273268D01*
X31465766Y-66247738D01*
X31465765Y-66247735D01*
X31465586Y-66244854D01*
X31465561Y-66244645D01*
X31461324Y-66176952D01*
X31461321Y-66176725D01*
X31459640Y-66150063D01*
X31459640Y-66150062D01*
X31458048Y-66124628D01*
X31458046Y-66124621D01*
X31457868Y-66121777D01*
X31457843Y-66121552D01*
X31453569Y-66053757D01*
X31453568Y-66053534D01*
X31451788Y-66025490D01*
X31451676Y-66023713D01*
X31450269Y-66001373D01*
X31450268Y-66001369D01*
X31450079Y-65998370D01*
X31450053Y-65998151D01*
X31445748Y-65930272D01*
X31445744Y-65930039D01*
X31445557Y-65927118D01*
X31445558Y-65927116D01*
X31443885Y-65900911D01*
X31443885Y-65900910D01*
X31442245Y-65875043D01*
X31442217Y-65874804D01*
X31437874Y-65806799D01*
X31437871Y-65806575D01*
X31437678Y-65803571D01*
X31437679Y-65803566D01*
X31435957Y-65776773D01*
X31434530Y-65754421D01*
X31434340Y-65751438D01*
X31434314Y-65751215D01*
X31429936Y-65683083D01*
X31429933Y-65682864D01*
X31428196Y-65656016D01*
X31427245Y-65641211D01*
X31426571Y-65630720D01*
X31426570Y-65630717D01*
X31426383Y-65627803D01*
X31426357Y-65627576D01*
X31421943Y-65559350D01*
X31421941Y-65559105D01*
X31420069Y-65530363D01*
X31419957Y-65528626D01*
X31418550Y-65506864D01*
X31418548Y-65506860D01*
X31418374Y-65504155D01*
X31418350Y-65503946D01*
X31413866Y-65435068D01*
X31413863Y-65434841D01*
X31413676Y-65431994D01*
X31413677Y-65431992D01*
X31412718Y-65417350D01*
X31412011Y-65406550D01*
X31410279Y-65379954D01*
X31410254Y-65379737D01*
X31405767Y-65311230D01*
X31405764Y-65311026D01*
X31404057Y-65285123D01*
X31403686Y-65279454D01*
X31402325Y-65258678D01*
X31402324Y-65258675D01*
X31402136Y-65255802D01*
X31402109Y-65255574D01*
X31397556Y-65186479D01*
X31397552Y-65186249D01*
X31395693Y-65158219D01*
X31393927Y-65131420D01*
X31393901Y-65131206D01*
X31389315Y-65062064D01*
X31389313Y-65061849D01*
X31387394Y-65033082D01*
X31385661Y-65006958D01*
X31385634Y-65006734D01*
X31381005Y-64937359D01*
X31381002Y-64937131D01*
X31379141Y-64909421D01*
X31377333Y-64882317D01*
X31377306Y-64882095D01*
X31372651Y-64812772D01*
X31372648Y-64812551D01*
X31372440Y-64809481D01*
X31372441Y-64809479D01*
X31370778Y-64784871D01*
X31369132Y-64760342D01*
X31369131Y-64760339D01*
X31368926Y-64757281D01*
X31368899Y-64757055D01*
X31364219Y-64687769D01*
X31364216Y-64687550D01*
X31364006Y-64684468D01*
X31364007Y-64684466D01*
X31362429Y-64661250D01*
X31360679Y-64635333D01*
X31360678Y-64635332D01*
X31360481Y-64632402D01*
X31360452Y-64632159D01*
X31355704Y-64562289D01*
X31355701Y-64562056D01*
X31353778Y-64533934D01*
X31353618Y-64531578D01*
X31352162Y-64510148D01*
X31352160Y-64510143D01*
X31351959Y-64507176D01*
X31351934Y-64506969D01*
X31347152Y-64437020D01*
X31347149Y-64436811D01*
X31346950Y-64433921D01*
X31346951Y-64433917D01*
X31345217Y-64408715D01*
X31343582Y-64384785D01*
X31343581Y-64384783D01*
X31343389Y-64381967D01*
X31343363Y-64381748D01*
X31338535Y-64311534D01*
X31338530Y-64311301D01*
X31338327Y-64308374D01*
X31338328Y-64308371D01*
X31336556Y-64282755D01*
X31334939Y-64259241D01*
X31334937Y-64259236D01*
X31334752Y-64256535D01*
X31334728Y-64256333D01*
X31329855Y-64185910D01*
X31329853Y-64185708D01*
X31328549Y-64166973D01*
X31327999Y-64159063D01*
X31326232Y-64133512D01*
X31326231Y-64133510D01*
X31326040Y-64130742D01*
X31326012Y-64130505D01*
X31325257Y-64119658D01*
X31321100Y-64059921D01*
X31321097Y-64059708D01*
X31320888Y-64056729D01*
X31320889Y-64056726D01*
X31319192Y-64032482D01*
X31317461Y-64007598D01*
X31317460Y-64007596D01*
X31317262Y-64004743D01*
X31317235Y-64004519D01*
X31312286Y-63933810D01*
X31312283Y-63933599D01*
X31312073Y-63930624D01*
X31312074Y-63930622D01*
X31310329Y-63905839D01*
X31308626Y-63881495D01*
X31308624Y-63881490D01*
X31308412Y-63878450D01*
X31308386Y-63878240D01*
X31303400Y-63807404D01*
X31303397Y-63807187D01*
X31301370Y-63778553D01*
X31300221Y-63762218D01*
X31299727Y-63755202D01*
X31299726Y-63755201D01*
X31299518Y-63752234D01*
X31299492Y-63752024D01*
X31294464Y-63680991D01*
X31294458Y-63680671D01*
X31292516Y-63653457D01*
X31291462Y-63638566D01*
X31290765Y-63628715D01*
X31290763Y-63628711D01*
X31290565Y-63625901D01*
X31290527Y-63625588D01*
X31276750Y-63432540D01*
X31276743Y-63432175D01*
X31274794Y-63405127D01*
X31274794Y-63405126D01*
X31273025Y-63380328D01*
X31273023Y-63380323D01*
X31272812Y-63377358D01*
X31272766Y-63376989D01*
X31258034Y-63172506D01*
X31258027Y-63172174D01*
X31257817Y-63169287D01*
X31257818Y-63169283D01*
X31256046Y-63144904D01*
X31254268Y-63120218D01*
X31254266Y-63120212D01*
X31254069Y-63117473D01*
X31254029Y-63117147D01*
X31241507Y-62944816D01*
X31238356Y-62901445D01*
X31238349Y-62901148D01*
X31238138Y-62898271D01*
X31238139Y-62898267D01*
X31236333Y-62873607D01*
X31234559Y-62849190D01*
X31234558Y-62849187D01*
X31234362Y-62846486D01*
X31234324Y-62846176D01*
X31227974Y-62759459D01*
X31217768Y-62620087D01*
X31217763Y-62619822D01*
X31215774Y-62592851D01*
X31214974Y-62581923D01*
X31213955Y-62568007D01*
X31213954Y-62568004D01*
X31213750Y-62565215D01*
X31213716Y-62564947D01*
X31196376Y-62329830D01*
X31196371Y-62329575D01*
X31196144Y-62326523D01*
X31196145Y-62326520D01*
X31194379Y-62302731D01*
X31192513Y-62277426D01*
X31192512Y-62277425D01*
X31192306Y-62274619D01*
X31192272Y-62274347D01*
X31174179Y-62030611D01*
X31174174Y-62030375D01*
X31173945Y-62027314D01*
X31173946Y-62027311D01*
X31172070Y-62002195D01*
X31170290Y-61978212D01*
X31170289Y-61978209D01*
X31170076Y-61975337D01*
X31170047Y-61975099D01*
X31151264Y-61723601D01*
X31151259Y-61723398D01*
X31151021Y-61720232D01*
X31151022Y-61720228D01*
X31149307Y-61697401D01*
X31147345Y-61671125D01*
X31147343Y-61671119D01*
X31147122Y-61668156D01*
X31147093Y-61667920D01*
X31127669Y-61409330D01*
X31127663Y-61409091D01*
X31125538Y-61380972D01*
X31123519Y-61354083D01*
X31123490Y-61353851D01*
X31122732Y-61343817D01*
X31103476Y-61088877D01*
X31103472Y-61088651D01*
X31101274Y-61059700D01*
X31101163Y-61058228D01*
X31099513Y-61036383D01*
X31099511Y-61036379D01*
X31099275Y-61033245D01*
X31099249Y-61033044D01*
X31095726Y-60986645D01*
X31078696Y-60762331D01*
X31078692Y-60762132D01*
X31076602Y-60734746D01*
X31075133Y-60715394D01*
X31074743Y-60710254D01*
X31074742Y-60710250D01*
X31074530Y-60707458D01*
X31074505Y-60707258D01*
X31066187Y-60598251D01*
X31053465Y-60431533D01*
X31053462Y-60431352D01*
X31051465Y-60405314D01*
X31049254Y-60376330D01*
X31049225Y-60376100D01*
X31044458Y-60313935D01*
X31028765Y-60109268D01*
X31027793Y-60096589D01*
X31027788Y-60096399D01*
X31027557Y-60093405D01*
X31027558Y-60093401D01*
X31025617Y-60068209D01*
X31023783Y-60044291D01*
X31023782Y-60044288D01*
X31023545Y-60041195D01*
X31023519Y-60040991D01*
X31001743Y-59758357D01*
X31001737Y-59758145D01*
X30999509Y-59729357D01*
X30997708Y-59705981D01*
X30997707Y-59705979D01*
X30997479Y-59703013D01*
X30997452Y-59702802D01*
X30975364Y-59417495D01*
X30975360Y-59417307D01*
X30975122Y-59414252D01*
X30975123Y-59414249D01*
X30973193Y-59389439D01*
X30971312Y-59365139D01*
X30971310Y-59365135D01*
X30971075Y-59362089D01*
X30971050Y-59361893D01*
X30948725Y-59074864D01*
X30948719Y-59074655D01*
X30946484Y-59046064D01*
X30946484Y-59046063D01*
X30944654Y-59022525D01*
X30944653Y-59022522D01*
X30944434Y-59019703D01*
X30944409Y-59019512D01*
X30921876Y-58731175D01*
X30921870Y-58730956D01*
X30919608Y-58702146D01*
X30917574Y-58676118D01*
X30917549Y-58675920D01*
X30894885Y-58387291D01*
X30894880Y-58387100D01*
X30894647Y-58384146D01*
X30894648Y-58384139D01*
X30893814Y-58373581D01*
X30908163Y-58305205D01*
X30957203Y-58255437D01*
X31025365Y-58240083D01*
X31091007Y-58264017D01*
X31105111Y-58276148D01*
X37258181Y-64429218D01*
X37291666Y-64490541D01*
X37294500Y-64516899D01*
X37294500Y-65368196D01*
X37291862Y-65393634D01*
X37289633Y-65404268D01*
X37289633Y-65404269D01*
X37289633Y-65404271D01*
X37294023Y-65439491D01*
X37294500Y-65447167D01*
X37294500Y-65451116D01*
X37298342Y-65474141D01*
X37305134Y-65528627D01*
X37307373Y-65536147D01*
X37309934Y-65543608D01*
X37309935Y-65543610D01*
X37318917Y-65560207D01*
X37336055Y-65591877D01*
X37360174Y-65641211D01*
X37364742Y-65647609D01*
X37369582Y-65653827D01*
X37409970Y-65691008D01*
X38167850Y-66448888D01*
X38183975Y-66468744D01*
X38189913Y-66477832D01*
X38189916Y-66477836D01*
X38206239Y-66490541D01*
X38217925Y-66499636D01*
X38223687Y-66504725D01*
X38226482Y-66507520D01*
X38245495Y-66521094D01*
X38288811Y-66554809D01*
X38288818Y-66554811D01*
X38295720Y-66558547D01*
X38302796Y-66562006D01*
X38302801Y-66562010D01*
X38355402Y-66577670D01*
X38355403Y-66577670D01*
X38407338Y-66595500D01*
X38415072Y-66596790D01*
X38422910Y-66597767D01*
X38422912Y-66597768D01*
X38422913Y-66597767D01*
X38422914Y-66597768D01*
X38477756Y-66595500D01*
X41336196Y-66595500D01*
X41361641Y-66598139D01*
X41365440Y-66598935D01*
X41372268Y-66600367D01*
X41393225Y-66597754D01*
X41407492Y-66595977D01*
X41415168Y-66595500D01*
X41419112Y-66595500D01*
X41419114Y-66595500D01*
X41419116Y-66595499D01*
X41419122Y-66595499D01*
X41434487Y-66592934D01*
X41442140Y-66591657D01*
X41496626Y-66584866D01*
X41496627Y-66584865D01*
X41496629Y-66584865D01*
X41504141Y-66582628D01*
X41511606Y-66580066D01*
X41511606Y-66580065D01*
X41511610Y-66580065D01*
X41559877Y-66553944D01*
X41609211Y-66529826D01*
X41609213Y-66529823D01*
X41615594Y-66525268D01*
X41621819Y-66520422D01*
X41621826Y-66520419D01*
X41659008Y-66480028D01*
X43564515Y-64574520D01*
X43625836Y-64541037D01*
X43695528Y-64546021D01*
X43714192Y-64554815D01*
X43720751Y-64558602D01*
X43720754Y-64558603D01*
X43720756Y-64558604D01*
X43919367Y-64627344D01*
X44127398Y-64657254D01*
X44337330Y-64647254D01*
X44541576Y-64597704D01*
X44625596Y-64559333D01*
X44732743Y-64510401D01*
X44732746Y-64510399D01*
X44732753Y-64510396D01*
X44903952Y-64388486D01*
X44910093Y-64382046D01*
X45048985Y-64236379D01*
X45059131Y-64220592D01*
X45162613Y-64059572D01*
X45240725Y-63864457D01*
X45280500Y-63658085D01*
X45280500Y-63605425D01*
X45579500Y-63605425D01*
X45594472Y-63762218D01*
X45653684Y-63963875D01*
X45733995Y-64119658D01*
X45749991Y-64150686D01*
X45879905Y-64315883D01*
X45879909Y-64315887D01*
X46038746Y-64453521D01*
X46220750Y-64558601D01*
X46220752Y-64558601D01*
X46220756Y-64558604D01*
X46419367Y-64627344D01*
X46627398Y-64657254D01*
X46837330Y-64647254D01*
X47041576Y-64597704D01*
X47125596Y-64559333D01*
X47232743Y-64510401D01*
X47232746Y-64510399D01*
X47232753Y-64510396D01*
X47403952Y-64388486D01*
X47410093Y-64382046D01*
X47548985Y-64236379D01*
X47559131Y-64220592D01*
X47662613Y-64059572D01*
X47740725Y-63864457D01*
X47780500Y-63658085D01*
X47780500Y-63250575D01*
X47765528Y-63093782D01*
X47706316Y-62892125D01*
X47610011Y-62705318D01*
X47610009Y-62705316D01*
X47610008Y-62705313D01*
X47480094Y-62540116D01*
X47480090Y-62540112D01*
X47321253Y-62402478D01*
X47139249Y-62297398D01*
X47139245Y-62297396D01*
X47139244Y-62297396D01*
X46940633Y-62228656D01*
X46732602Y-62198746D01*
X46732598Y-62198746D01*
X46522672Y-62208745D01*
X46318421Y-62258296D01*
X46318417Y-62258298D01*
X46127256Y-62345598D01*
X46127251Y-62345601D01*
X45956046Y-62467515D01*
X45956040Y-62467520D01*
X45811014Y-62619620D01*
X45697388Y-62796425D01*
X45619274Y-62991544D01*
X45584461Y-63172174D01*
X45579500Y-63197915D01*
X45579500Y-63605425D01*
X45280500Y-63605425D01*
X45280500Y-63250575D01*
X45265528Y-63093782D01*
X45206316Y-62892125D01*
X45110011Y-62705318D01*
X45110009Y-62705316D01*
X45110008Y-62705313D01*
X44980094Y-62540116D01*
X44980090Y-62540112D01*
X44821253Y-62402478D01*
X44639249Y-62297398D01*
X44639245Y-62297396D01*
X44639244Y-62297396D01*
X44440633Y-62228656D01*
X44232602Y-62198746D01*
X44232598Y-62198746D01*
X44022672Y-62208745D01*
X43818421Y-62258296D01*
X43818417Y-62258298D01*
X43627256Y-62345598D01*
X43627251Y-62345601D01*
X43456046Y-62467515D01*
X43456040Y-62467520D01*
X43311014Y-62619620D01*
X43197388Y-62796425D01*
X43119274Y-62991544D01*
X43084461Y-63172174D01*
X43079500Y-63197915D01*
X43079500Y-63605425D01*
X43086716Y-63680991D01*
X43094472Y-63762217D01*
X43094473Y-63762224D01*
X43123741Y-63861901D01*
X43123741Y-63931770D01*
X43092445Y-63984516D01*
X42840113Y-64236848D01*
X42778790Y-64270333D01*
X42709098Y-64265349D01*
X42653165Y-64223477D01*
X42628748Y-64158013D01*
X42643600Y-64089740D01*
X42648118Y-64082126D01*
X42662611Y-64059575D01*
X42662610Y-64059575D01*
X42662613Y-64059572D01*
X42740725Y-63864457D01*
X42780500Y-63658085D01*
X42780500Y-63250575D01*
X42765528Y-63093782D01*
X42706316Y-62892125D01*
X42610011Y-62705318D01*
X42610009Y-62705316D01*
X42610008Y-62705313D01*
X42480094Y-62540116D01*
X42480090Y-62540112D01*
X42321253Y-62402478D01*
X42139249Y-62297398D01*
X42139245Y-62297396D01*
X42139244Y-62297396D01*
X41940633Y-62228656D01*
X41732602Y-62198746D01*
X41732598Y-62198746D01*
X41522672Y-62208745D01*
X41318427Y-62258295D01*
X41318425Y-62258295D01*
X41283277Y-62274347D01*
X41206516Y-62309402D01*
X41137360Y-62319345D01*
X41073804Y-62290320D01*
X41067326Y-62284288D01*
X40555951Y-61772913D01*
X40539824Y-61753054D01*
X40533888Y-61743969D01*
X40533885Y-61743965D01*
X40505876Y-61722165D01*
X40500112Y-61717074D01*
X40497317Y-61714279D01*
X40478307Y-61700708D01*
X40474058Y-61697401D01*
X40470447Y-61694590D01*
X40434991Y-61666992D01*
X40428076Y-61663250D01*
X40421002Y-61659792D01*
X40368398Y-61644131D01*
X40316460Y-61626301D01*
X40308725Y-61625010D01*
X40300887Y-61624033D01*
X40246046Y-61626302D01*
X36841494Y-61626302D01*
X36774455Y-61606617D01*
X36753813Y-61589983D01*
X34841011Y-59677181D01*
X34807526Y-59615858D01*
X34812510Y-59546166D01*
X34854382Y-59490233D01*
X34919846Y-59465816D01*
X34928692Y-59465500D01*
X45893101Y-59465500D01*
X45960140Y-59485185D01*
X45980782Y-59501819D01*
X48638839Y-62159877D01*
X48672324Y-62221200D01*
X48667340Y-62290892D01*
X48625468Y-62346825D01*
X48623086Y-62348565D01*
X48456048Y-62467513D01*
X48456040Y-62467520D01*
X48311014Y-62619620D01*
X48197388Y-62796425D01*
X48119274Y-62991544D01*
X48084461Y-63172174D01*
X48079500Y-63197915D01*
X48079500Y-63605425D01*
X48094472Y-63762218D01*
X48153684Y-63963875D01*
X48233995Y-64119658D01*
X48249991Y-64150686D01*
X48379905Y-64315883D01*
X48379909Y-64315887D01*
X48538746Y-64453521D01*
X48720750Y-64558601D01*
X48720752Y-64558601D01*
X48720756Y-64558604D01*
X48919367Y-64627344D01*
X49127398Y-64657254D01*
X49337330Y-64647254D01*
X49541576Y-64597704D01*
X49625596Y-64559333D01*
X49732743Y-64510401D01*
X49732746Y-64510399D01*
X49732753Y-64510396D01*
X49903952Y-64388486D01*
X49910093Y-64382046D01*
X50048985Y-64236379D01*
X50059131Y-64220592D01*
X50162613Y-64059572D01*
X50240725Y-63864457D01*
X50280500Y-63658085D01*
X50280500Y-63250575D01*
X50265528Y-63093782D01*
X50206316Y-62892125D01*
X50110011Y-62705318D01*
X50110009Y-62705316D01*
X50110008Y-62705313D01*
X49980094Y-62540116D01*
X49980090Y-62540112D01*
X49821253Y-62402478D01*
X49639249Y-62297399D01*
X49639247Y-62297398D01*
X49639244Y-62297396D01*
X49639237Y-62297393D01*
X49633867Y-62294941D01*
X49634949Y-62292571D01*
X49587154Y-62258531D01*
X49562076Y-62195873D01*
X49561638Y-62195928D01*
X49561429Y-62194258D01*
X49561192Y-62193664D01*
X49561147Y-62191990D01*
X49555977Y-62150507D01*
X49555500Y-62142831D01*
X49555500Y-62138889D01*
X49555498Y-62138876D01*
X49551657Y-62115859D01*
X49544866Y-62061376D01*
X49544866Y-62061374D01*
X49544864Y-62061370D01*
X49542622Y-62053840D01*
X49540065Y-62046392D01*
X49540065Y-62046390D01*
X49513944Y-61998122D01*
X49489826Y-61948789D01*
X49489824Y-61948787D01*
X49489824Y-61948786D01*
X49485267Y-61942404D01*
X49480415Y-61936169D01*
X49440029Y-61898992D01*
X46402149Y-58861111D01*
X46386022Y-58841252D01*
X46380086Y-58832167D01*
X46380083Y-58832163D01*
X46352074Y-58810363D01*
X46346310Y-58805272D01*
X46343515Y-58802477D01*
X46324505Y-58788906D01*
X46281189Y-58755190D01*
X46274274Y-58751448D01*
X46267200Y-58747990D01*
X46214596Y-58732329D01*
X46162658Y-58714499D01*
X46154923Y-58713208D01*
X46147085Y-58712231D01*
X46092244Y-58714500D01*
X34566087Y-58714500D01*
X34499048Y-58694815D01*
X34478406Y-58678181D01*
X32881818Y-57081593D01*
X32848333Y-57020270D01*
X32845499Y-56993912D01*
X32845499Y-56784549D01*
X32865184Y-56717510D01*
X32917988Y-56671755D01*
X32987146Y-56661811D01*
X33043815Y-56685286D01*
X33047912Y-56688353D01*
X33047913Y-56688354D01*
X33182620Y-56738596D01*
X33182627Y-56738598D01*
X33242155Y-56744999D01*
X33242172Y-56745000D01*
X33765000Y-56745000D01*
X33765000Y-55981912D01*
X33856025Y-55995000D01*
X33923975Y-55995000D01*
X34015000Y-55981912D01*
X34015000Y-56745000D01*
X34537828Y-56745000D01*
X34537844Y-56744999D01*
X34597372Y-56738598D01*
X34597379Y-56738596D01*
X34732086Y-56688354D01*
X34732093Y-56688350D01*
X34847187Y-56602190D01*
X34847190Y-56602187D01*
X34933350Y-56487093D01*
X34933354Y-56487086D01*
X34983596Y-56352379D01*
X34983598Y-56352372D01*
X34989999Y-56292844D01*
X34990000Y-56292827D01*
X34990000Y-55697425D01*
X35289500Y-55697425D01*
X35302566Y-55834258D01*
X35304472Y-55854217D01*
X35304473Y-55854221D01*
X35350213Y-56009999D01*
X35363684Y-56055875D01*
X35423635Y-56172165D01*
X35459991Y-56242686D01*
X35589905Y-56407883D01*
X35589909Y-56407887D01*
X35748746Y-56545521D01*
X35930750Y-56650601D01*
X35930752Y-56650601D01*
X35930756Y-56650604D01*
X36129367Y-56719344D01*
X36337398Y-56749254D01*
X36547330Y-56739254D01*
X36751576Y-56689704D01*
X36837199Y-56650601D01*
X36942743Y-56602401D01*
X36942746Y-56602399D01*
X36942753Y-56602396D01*
X37113952Y-56480486D01*
X37183179Y-56407883D01*
X37258985Y-56328379D01*
X37295407Y-56271706D01*
X37372613Y-56151572D01*
X37450725Y-55956457D01*
X37490500Y-55750085D01*
X37490500Y-55697425D01*
X37789500Y-55697425D01*
X37802566Y-55834258D01*
X37804472Y-55854217D01*
X37804473Y-55854221D01*
X37850213Y-56009999D01*
X37863684Y-56055875D01*
X37923635Y-56172165D01*
X37959991Y-56242686D01*
X38089905Y-56407883D01*
X38089909Y-56407887D01*
X38248746Y-56545521D01*
X38430750Y-56650601D01*
X38430752Y-56650601D01*
X38430756Y-56650604D01*
X38629367Y-56719344D01*
X38837398Y-56749254D01*
X39047330Y-56739254D01*
X39251576Y-56689704D01*
X39337199Y-56650601D01*
X39442743Y-56602401D01*
X39442746Y-56602399D01*
X39442753Y-56602396D01*
X39613952Y-56480486D01*
X39683179Y-56407883D01*
X39758985Y-56328379D01*
X39795407Y-56271706D01*
X39872613Y-56151572D01*
X39950725Y-55956457D01*
X39990500Y-55750085D01*
X39990500Y-55697425D01*
X40289500Y-55697425D01*
X40302566Y-55834258D01*
X40304472Y-55854217D01*
X40304473Y-55854221D01*
X40350213Y-56009999D01*
X40363684Y-56055875D01*
X40423635Y-56172165D01*
X40459991Y-56242686D01*
X40589905Y-56407883D01*
X40589909Y-56407887D01*
X40748746Y-56545521D01*
X40930750Y-56650601D01*
X40930752Y-56650601D01*
X40930756Y-56650604D01*
X41129367Y-56719344D01*
X41337398Y-56749254D01*
X41547330Y-56739254D01*
X41751576Y-56689704D01*
X41837199Y-56650601D01*
X41942743Y-56602401D01*
X41942746Y-56602399D01*
X41942753Y-56602396D01*
X42113952Y-56480486D01*
X42183179Y-56407883D01*
X42258985Y-56328379D01*
X42295407Y-56271706D01*
X42372613Y-56151572D01*
X42450725Y-55956457D01*
X42490500Y-55750085D01*
X42490500Y-55697425D01*
X42789500Y-55697425D01*
X42802566Y-55834258D01*
X42804472Y-55854217D01*
X42804473Y-55854221D01*
X42850213Y-56009999D01*
X42863684Y-56055875D01*
X42923635Y-56172165D01*
X42959991Y-56242686D01*
X43089905Y-56407883D01*
X43089909Y-56407887D01*
X43248746Y-56545521D01*
X43430750Y-56650601D01*
X43430752Y-56650601D01*
X43430756Y-56650604D01*
X43629367Y-56719344D01*
X43837398Y-56749254D01*
X44047330Y-56739254D01*
X44251576Y-56689704D01*
X44337199Y-56650601D01*
X44442743Y-56602401D01*
X44442746Y-56602399D01*
X44442753Y-56602396D01*
X44613952Y-56480486D01*
X44683179Y-56407883D01*
X44758985Y-56328379D01*
X44795407Y-56271706D01*
X44872613Y-56151572D01*
X44950725Y-55956457D01*
X44990500Y-55750085D01*
X44990500Y-55697425D01*
X45289500Y-55697425D01*
X45302566Y-55834258D01*
X45304472Y-55854217D01*
X45304473Y-55854221D01*
X45350213Y-56009999D01*
X45363684Y-56055875D01*
X45423635Y-56172165D01*
X45459991Y-56242686D01*
X45589905Y-56407883D01*
X45589909Y-56407887D01*
X45748746Y-56545521D01*
X45930750Y-56650601D01*
X45930752Y-56650601D01*
X45930756Y-56650604D01*
X46129367Y-56719344D01*
X46337398Y-56749254D01*
X46547330Y-56739254D01*
X46751576Y-56689704D01*
X46837199Y-56650601D01*
X46942743Y-56602401D01*
X46942746Y-56602399D01*
X46942753Y-56602396D01*
X47113952Y-56480486D01*
X47183179Y-56407883D01*
X47258985Y-56328379D01*
X47295407Y-56271706D01*
X47372613Y-56151572D01*
X47450725Y-55956457D01*
X47490500Y-55750085D01*
X47490500Y-55697425D01*
X47789500Y-55697425D01*
X47802566Y-55834258D01*
X47804472Y-55854217D01*
X47804473Y-55854221D01*
X47850213Y-56009999D01*
X47863684Y-56055875D01*
X47923635Y-56172165D01*
X47959991Y-56242686D01*
X48089905Y-56407883D01*
X48089909Y-56407887D01*
X48248746Y-56545521D01*
X48430750Y-56650601D01*
X48430752Y-56650601D01*
X48430756Y-56650604D01*
X48629367Y-56719344D01*
X48837398Y-56749254D01*
X49047330Y-56739254D01*
X49251576Y-56689704D01*
X49337199Y-56650601D01*
X49442743Y-56602401D01*
X49442746Y-56602399D01*
X49442753Y-56602396D01*
X49613952Y-56480486D01*
X49683179Y-56407883D01*
X49758985Y-56328379D01*
X49795407Y-56271706D01*
X49872613Y-56151572D01*
X49950725Y-55956457D01*
X49990500Y-55750085D01*
X49990500Y-55342575D01*
X49975528Y-55185782D01*
X49916316Y-54984125D01*
X49820011Y-54797318D01*
X49820009Y-54797316D01*
X49820008Y-54797313D01*
X49690094Y-54632116D01*
X49690090Y-54632112D01*
X49531253Y-54494478D01*
X49349249Y-54389399D01*
X49349247Y-54389398D01*
X49349244Y-54389396D01*
X49349240Y-54389394D01*
X49349231Y-54389390D01*
X49348928Y-54389286D01*
X49348796Y-54389192D01*
X49343867Y-54386941D01*
X49344301Y-54385990D01*
X49292019Y-54348750D01*
X49266060Y-54283882D01*
X49265500Y-54272111D01*
X49265500Y-51234499D01*
X49285185Y-51167460D01*
X49337989Y-51121705D01*
X49384611Y-51111562D01*
X49384576Y-51110900D01*
X49384571Y-51110854D01*
X49384573Y-51110853D01*
X49384564Y-51110676D01*
X49387857Y-51110499D01*
X49387872Y-51110499D01*
X49447483Y-51104091D01*
X49582331Y-51053796D01*
X49697546Y-50967546D01*
X49783796Y-50852331D01*
X49834091Y-50717483D01*
X49840500Y-50657873D01*
X49840499Y-49862128D01*
X49834091Y-49802517D01*
X49796657Y-49702152D01*
X49783797Y-49667671D01*
X49783793Y-49667664D01*
X49697547Y-49552455D01*
X49697544Y-49552452D01*
X49582335Y-49466206D01*
X49582328Y-49466202D01*
X49447482Y-49415908D01*
X49447483Y-49415908D01*
X49387883Y-49409501D01*
X49387881Y-49409500D01*
X49387873Y-49409500D01*
X49387864Y-49409500D01*
X48392129Y-49409500D01*
X48392123Y-49409501D01*
X48332516Y-49415908D01*
X48197671Y-49466202D01*
X48197664Y-49466206D01*
X48082455Y-49552452D01*
X48082452Y-49552455D01*
X47996206Y-49667664D01*
X47996202Y-49667671D01*
X47945908Y-49802517D01*
X47940257Y-49855088D01*
X47939501Y-49862123D01*
X47939500Y-49862135D01*
X47939500Y-50657870D01*
X47939501Y-50657876D01*
X47945908Y-50717483D01*
X47996202Y-50852328D01*
X47996206Y-50852335D01*
X48082452Y-50967544D01*
X48082455Y-50967547D01*
X48197664Y-51053793D01*
X48197671Y-51053797D01*
X48332516Y-51104091D01*
X48392113Y-51110499D01*
X48392122Y-51110499D01*
X48392127Y-51110500D01*
X48392131Y-51110499D01*
X48395434Y-51110677D01*
X48395424Y-51110855D01*
X48395431Y-51110856D01*
X48395417Y-51110977D01*
X48395366Y-51111946D01*
X48457478Y-51130144D01*
X48503264Y-51182921D01*
X48514500Y-51234499D01*
X48514500Y-54276964D01*
X48494815Y-54344003D01*
X48442013Y-54389758D01*
X48337240Y-54437607D01*
X48166052Y-54559509D01*
X48166040Y-54559520D01*
X48021014Y-54711620D01*
X47907388Y-54888425D01*
X47829274Y-55083544D01*
X47789500Y-55289914D01*
X47789500Y-55289915D01*
X47789500Y-55697425D01*
X47490500Y-55697425D01*
X47490500Y-55342575D01*
X47475528Y-55185782D01*
X47416316Y-54984125D01*
X47320011Y-54797318D01*
X47320009Y-54797316D01*
X47320008Y-54797313D01*
X47190094Y-54632116D01*
X47190090Y-54632112D01*
X47031253Y-54494478D01*
X46849249Y-54389399D01*
X46849247Y-54389398D01*
X46849244Y-54389396D01*
X46849240Y-54389394D01*
X46849231Y-54389390D01*
X46848928Y-54389286D01*
X46848796Y-54389192D01*
X46843867Y-54386941D01*
X46844301Y-54385990D01*
X46792019Y-54348750D01*
X46766060Y-54283882D01*
X46765500Y-54272111D01*
X46765500Y-51234499D01*
X46785185Y-51167460D01*
X46837989Y-51121705D01*
X46884611Y-51111562D01*
X46884576Y-51110900D01*
X46884571Y-51110854D01*
X46884573Y-51110853D01*
X46884564Y-51110676D01*
X46887857Y-51110499D01*
X46887872Y-51110499D01*
X46947483Y-51104091D01*
X47082331Y-51053796D01*
X47197546Y-50967546D01*
X47283796Y-50852331D01*
X47334091Y-50717483D01*
X47340500Y-50657873D01*
X47340499Y-49862128D01*
X47334091Y-49802517D01*
X47296657Y-49702152D01*
X47283797Y-49667671D01*
X47283793Y-49667664D01*
X47197547Y-49552455D01*
X47197544Y-49552452D01*
X47082335Y-49466206D01*
X47082328Y-49466202D01*
X46947482Y-49415908D01*
X46947483Y-49415908D01*
X46887883Y-49409501D01*
X46887881Y-49409500D01*
X46887873Y-49409500D01*
X46887864Y-49409500D01*
X45892129Y-49409500D01*
X45892123Y-49409501D01*
X45832516Y-49415908D01*
X45697671Y-49466202D01*
X45697664Y-49466206D01*
X45582455Y-49552452D01*
X45582452Y-49552455D01*
X45496206Y-49667664D01*
X45496202Y-49667671D01*
X45445908Y-49802517D01*
X45440257Y-49855088D01*
X45439501Y-49862123D01*
X45439500Y-49862135D01*
X45439500Y-50657870D01*
X45439501Y-50657876D01*
X45445908Y-50717483D01*
X45496202Y-50852328D01*
X45496206Y-50852335D01*
X45582452Y-50967544D01*
X45582455Y-50967547D01*
X45697664Y-51053793D01*
X45697671Y-51053797D01*
X45832516Y-51104091D01*
X45892113Y-51110499D01*
X45892122Y-51110499D01*
X45892127Y-51110500D01*
X45892131Y-51110499D01*
X45895434Y-51110677D01*
X45895424Y-51110855D01*
X45895431Y-51110856D01*
X45895417Y-51110977D01*
X45895366Y-51111946D01*
X45957478Y-51130144D01*
X46003264Y-51182921D01*
X46014500Y-51234499D01*
X46014500Y-54276964D01*
X45994815Y-54344003D01*
X45942013Y-54389758D01*
X45837240Y-54437607D01*
X45666052Y-54559509D01*
X45666040Y-54559520D01*
X45521014Y-54711620D01*
X45407388Y-54888425D01*
X45329274Y-55083544D01*
X45289500Y-55289914D01*
X45289500Y-55289915D01*
X45289500Y-55697425D01*
X44990500Y-55697425D01*
X44990500Y-55342575D01*
X44975528Y-55185782D01*
X44916316Y-54984125D01*
X44820011Y-54797318D01*
X44820009Y-54797316D01*
X44820008Y-54797313D01*
X44690094Y-54632116D01*
X44690090Y-54632112D01*
X44531253Y-54494478D01*
X44349249Y-54389399D01*
X44349247Y-54389398D01*
X44349244Y-54389396D01*
X44349235Y-54389392D01*
X44349233Y-54389392D01*
X44348933Y-54389288D01*
X44348802Y-54389195D01*
X44343867Y-54386941D01*
X44344301Y-54385989D01*
X44292022Y-54348755D01*
X44266060Y-54283888D01*
X44265499Y-54272111D01*
X44265499Y-51234499D01*
X44285184Y-51167460D01*
X44337988Y-51121705D01*
X44384610Y-51111562D01*
X44384575Y-51110900D01*
X44384570Y-51110854D01*
X44384572Y-51110853D01*
X44384563Y-51110676D01*
X44387856Y-51110499D01*
X44387871Y-51110499D01*
X44447482Y-51104091D01*
X44582330Y-51053796D01*
X44697545Y-50967546D01*
X44783795Y-50852331D01*
X44834090Y-50717483D01*
X44840499Y-50657873D01*
X44840498Y-49862128D01*
X44834090Y-49802517D01*
X44796656Y-49702152D01*
X44783796Y-49667671D01*
X44783792Y-49667664D01*
X44697546Y-49552455D01*
X44697543Y-49552452D01*
X44582334Y-49466206D01*
X44582327Y-49466202D01*
X44447481Y-49415908D01*
X44447482Y-49415908D01*
X44387882Y-49409501D01*
X44387880Y-49409500D01*
X44387872Y-49409500D01*
X44387863Y-49409500D01*
X43392128Y-49409500D01*
X43392122Y-49409501D01*
X43332515Y-49415908D01*
X43197670Y-49466202D01*
X43197663Y-49466206D01*
X43082454Y-49552452D01*
X43082451Y-49552455D01*
X42996205Y-49667664D01*
X42996201Y-49667671D01*
X42945907Y-49802517D01*
X42940256Y-49855088D01*
X42939500Y-49862123D01*
X42939499Y-49862135D01*
X42939499Y-50657870D01*
X42939500Y-50657876D01*
X42945907Y-50717483D01*
X42996201Y-50852328D01*
X42996205Y-50852335D01*
X43082451Y-50967544D01*
X43082454Y-50967547D01*
X43197663Y-51053793D01*
X43197670Y-51053797D01*
X43332515Y-51104091D01*
X43392112Y-51110499D01*
X43392121Y-51110499D01*
X43392126Y-51110500D01*
X43392130Y-51110499D01*
X43395433Y-51110677D01*
X43395423Y-51110855D01*
X43395430Y-51110856D01*
X43395416Y-51110977D01*
X43395365Y-51111946D01*
X43457477Y-51130144D01*
X43503263Y-51182921D01*
X43514499Y-51234499D01*
X43514499Y-54276965D01*
X43494814Y-54344004D01*
X43442011Y-54389759D01*
X43337248Y-54437603D01*
X43166046Y-54559515D01*
X43166040Y-54559520D01*
X43021014Y-54711620D01*
X42907388Y-54888425D01*
X42829274Y-55083544D01*
X42789500Y-55289914D01*
X42789500Y-55289915D01*
X42789500Y-55697425D01*
X42490500Y-55697425D01*
X42490500Y-55342575D01*
X42475528Y-55185782D01*
X42416316Y-54984125D01*
X42320011Y-54797318D01*
X42320009Y-54797316D01*
X42320008Y-54797313D01*
X42190094Y-54632116D01*
X42190090Y-54632112D01*
X42031253Y-54494478D01*
X41849249Y-54389399D01*
X41849247Y-54389398D01*
X41849244Y-54389396D01*
X41849235Y-54389392D01*
X41849233Y-54389392D01*
X41848933Y-54389288D01*
X41848802Y-54389195D01*
X41843867Y-54386941D01*
X41844301Y-54385989D01*
X41792022Y-54348755D01*
X41766060Y-54283888D01*
X41765499Y-54272111D01*
X41765499Y-51234499D01*
X41785184Y-51167460D01*
X41837988Y-51121705D01*
X41884610Y-51111562D01*
X41884575Y-51110900D01*
X41884570Y-51110854D01*
X41884572Y-51110853D01*
X41884563Y-51110676D01*
X41887856Y-51110499D01*
X41887871Y-51110499D01*
X41947482Y-51104091D01*
X42082330Y-51053796D01*
X42197545Y-50967546D01*
X42283795Y-50852331D01*
X42334090Y-50717483D01*
X42340499Y-50657873D01*
X42340498Y-49862128D01*
X42334090Y-49802517D01*
X42296656Y-49702152D01*
X42283796Y-49667671D01*
X42283792Y-49667664D01*
X42197546Y-49552455D01*
X42197543Y-49552452D01*
X42082334Y-49466206D01*
X42082327Y-49466202D01*
X41947481Y-49415908D01*
X41947482Y-49415908D01*
X41887882Y-49409501D01*
X41887880Y-49409500D01*
X41887872Y-49409500D01*
X41887863Y-49409500D01*
X40892128Y-49409500D01*
X40892122Y-49409501D01*
X40832515Y-49415908D01*
X40697670Y-49466202D01*
X40697663Y-49466206D01*
X40582454Y-49552452D01*
X40582451Y-49552455D01*
X40496205Y-49667664D01*
X40496201Y-49667671D01*
X40445907Y-49802517D01*
X40440256Y-49855088D01*
X40439500Y-49862123D01*
X40439499Y-49862135D01*
X40439499Y-50657870D01*
X40439500Y-50657876D01*
X40445907Y-50717483D01*
X40496201Y-50852328D01*
X40496205Y-50852335D01*
X40582451Y-50967544D01*
X40582454Y-50967547D01*
X40697663Y-51053793D01*
X40697670Y-51053797D01*
X40832515Y-51104091D01*
X40892112Y-51110499D01*
X40892121Y-51110499D01*
X40892126Y-51110500D01*
X40892130Y-51110499D01*
X40895433Y-51110677D01*
X40895423Y-51110855D01*
X40895430Y-51110856D01*
X40895416Y-51110977D01*
X40895365Y-51111946D01*
X40957477Y-51130144D01*
X41003263Y-51182921D01*
X41014499Y-51234499D01*
X41014499Y-54276965D01*
X40994814Y-54344004D01*
X40942011Y-54389759D01*
X40837248Y-54437603D01*
X40666046Y-54559515D01*
X40666040Y-54559520D01*
X40521014Y-54711620D01*
X40407388Y-54888425D01*
X40329274Y-55083544D01*
X40289500Y-55289914D01*
X40289500Y-55289915D01*
X40289500Y-55697425D01*
X39990500Y-55697425D01*
X39990500Y-55342575D01*
X39975528Y-55185782D01*
X39916316Y-54984125D01*
X39820011Y-54797318D01*
X39820009Y-54797316D01*
X39820008Y-54797313D01*
X39690094Y-54632116D01*
X39690090Y-54632112D01*
X39531253Y-54494478D01*
X39349249Y-54389399D01*
X39349247Y-54389398D01*
X39349244Y-54389396D01*
X39349235Y-54389392D01*
X39349233Y-54389392D01*
X39348933Y-54389288D01*
X39348802Y-54389195D01*
X39343867Y-54386941D01*
X39344301Y-54385989D01*
X39292022Y-54348755D01*
X39266060Y-54283888D01*
X39265499Y-54272111D01*
X39265499Y-51234499D01*
X39285184Y-51167460D01*
X39337988Y-51121705D01*
X39384610Y-51111562D01*
X39384575Y-51110900D01*
X39384570Y-51110854D01*
X39384572Y-51110853D01*
X39384563Y-51110676D01*
X39387856Y-51110499D01*
X39387871Y-51110499D01*
X39447482Y-51104091D01*
X39582330Y-51053796D01*
X39697545Y-50967546D01*
X39783795Y-50852331D01*
X39834090Y-50717483D01*
X39840499Y-50657873D01*
X39840498Y-49862128D01*
X39834090Y-49802517D01*
X39796656Y-49702152D01*
X39783796Y-49667671D01*
X39783792Y-49667664D01*
X39697546Y-49552455D01*
X39697543Y-49552452D01*
X39582334Y-49466206D01*
X39582327Y-49466202D01*
X39447481Y-49415908D01*
X39447482Y-49415908D01*
X39387882Y-49409501D01*
X39387880Y-49409500D01*
X39387872Y-49409500D01*
X39387863Y-49409500D01*
X38392128Y-49409500D01*
X38392122Y-49409501D01*
X38332515Y-49415908D01*
X38197670Y-49466202D01*
X38197663Y-49466206D01*
X38082454Y-49552452D01*
X38082451Y-49552455D01*
X37996205Y-49667664D01*
X37996201Y-49667671D01*
X37945907Y-49802517D01*
X37940256Y-49855088D01*
X37939500Y-49862123D01*
X37939499Y-49862135D01*
X37939499Y-50657870D01*
X37939500Y-50657876D01*
X37945907Y-50717483D01*
X37996201Y-50852328D01*
X37996205Y-50852335D01*
X38082451Y-50967544D01*
X38082454Y-50967547D01*
X38197663Y-51053793D01*
X38197670Y-51053797D01*
X38332515Y-51104091D01*
X38392112Y-51110499D01*
X38392121Y-51110499D01*
X38392126Y-51110500D01*
X38392130Y-51110499D01*
X38395433Y-51110677D01*
X38395423Y-51110855D01*
X38395430Y-51110856D01*
X38395416Y-51110977D01*
X38395365Y-51111946D01*
X38457477Y-51130144D01*
X38503263Y-51182921D01*
X38514499Y-51234499D01*
X38514499Y-54276965D01*
X38494814Y-54344004D01*
X38442011Y-54389759D01*
X38337248Y-54437603D01*
X38166046Y-54559515D01*
X38166040Y-54559520D01*
X38021014Y-54711620D01*
X37907388Y-54888425D01*
X37829274Y-55083544D01*
X37789500Y-55289914D01*
X37789500Y-55289915D01*
X37789500Y-55697425D01*
X37490500Y-55697425D01*
X37490500Y-55342575D01*
X37475528Y-55185782D01*
X37416316Y-54984125D01*
X37320011Y-54797318D01*
X37320009Y-54797316D01*
X37320008Y-54797313D01*
X37190094Y-54632116D01*
X37190090Y-54632112D01*
X37031253Y-54494478D01*
X36849249Y-54389398D01*
X36849245Y-54389396D01*
X36849244Y-54389396D01*
X36650633Y-54320656D01*
X36442602Y-54290746D01*
X36442598Y-54290746D01*
X36232672Y-54300745D01*
X36028421Y-54350296D01*
X36028417Y-54350298D01*
X35837256Y-54437598D01*
X35837251Y-54437601D01*
X35666046Y-54559515D01*
X35666040Y-54559520D01*
X35521014Y-54711620D01*
X35407388Y-54888425D01*
X35329274Y-55083544D01*
X35289500Y-55289914D01*
X35289500Y-55289915D01*
X35289500Y-55697425D01*
X34990000Y-55697425D01*
X34990000Y-55645000D01*
X34348350Y-55645000D01*
X34365000Y-55588295D01*
X34365000Y-55451705D01*
X34348350Y-55395000D01*
X34990000Y-55395000D01*
X34990000Y-54747172D01*
X34989999Y-54747155D01*
X34983598Y-54687627D01*
X34983596Y-54687620D01*
X34933354Y-54552913D01*
X34933350Y-54552906D01*
X34847190Y-54437812D01*
X34847187Y-54437809D01*
X34732093Y-54351649D01*
X34732086Y-54351645D01*
X34597379Y-54301403D01*
X34597372Y-54301401D01*
X34537844Y-54295000D01*
X34015000Y-54295000D01*
X34015000Y-55058087D01*
X33923975Y-55045000D01*
X33856025Y-55045000D01*
X33765000Y-55058087D01*
X33765000Y-54295000D01*
X33242155Y-54295000D01*
X33182627Y-54301401D01*
X33182620Y-54301403D01*
X33047913Y-54351645D01*
X33047905Y-54351650D01*
X33043804Y-54354720D01*
X32978338Y-54379134D01*
X32910066Y-54364278D01*
X32860664Y-54314870D01*
X32845499Y-54255452D01*
X32845499Y-53726895D01*
X32865184Y-53659860D01*
X32881813Y-53639223D01*
X35338892Y-51182144D01*
X35358741Y-51166025D01*
X35367836Y-51160084D01*
X35389644Y-51132062D01*
X35394721Y-51126316D01*
X35397520Y-51123518D01*
X35411094Y-51104504D01*
X35444809Y-51061189D01*
X35444809Y-51061187D01*
X35448547Y-51054280D01*
X35452003Y-51047207D01*
X35452010Y-51047199D01*
X35467670Y-50994596D01*
X35485500Y-50942660D01*
X35485500Y-50942655D01*
X35486790Y-50934924D01*
X35487768Y-50927085D01*
X35485500Y-50872244D01*
X35485500Y-48385000D01*
X37939999Y-48385000D01*
X37939999Y-48657844D01*
X37946400Y-48717372D01*
X37946402Y-48717379D01*
X37996644Y-48852086D01*
X37996648Y-48852093D01*
X38082808Y-48967187D01*
X38082811Y-48967190D01*
X38197905Y-49053350D01*
X38197912Y-49053354D01*
X38332619Y-49103596D01*
X38332626Y-49103598D01*
X38392154Y-49109999D01*
X38392171Y-49110000D01*
X38764999Y-49110000D01*
X38764999Y-48385000D01*
X39014999Y-48385000D01*
X39014999Y-49110000D01*
X39387827Y-49110000D01*
X39387843Y-49109999D01*
X39447371Y-49103598D01*
X39447378Y-49103596D01*
X39582085Y-49053354D01*
X39582092Y-49053350D01*
X39697186Y-48967190D01*
X39697189Y-48967187D01*
X39783349Y-48852093D01*
X39783353Y-48852086D01*
X39833595Y-48717379D01*
X39833597Y-48717372D01*
X39839998Y-48657844D01*
X39839999Y-48657827D01*
X39839999Y-48385000D01*
X40439999Y-48385000D01*
X40439999Y-48657844D01*
X40446400Y-48717372D01*
X40446402Y-48717379D01*
X40496644Y-48852086D01*
X40496648Y-48852093D01*
X40582808Y-48967187D01*
X40582811Y-48967190D01*
X40697905Y-49053350D01*
X40697912Y-49053354D01*
X40832619Y-49103596D01*
X40832626Y-49103598D01*
X40892154Y-49109999D01*
X40892171Y-49110000D01*
X41264999Y-49110000D01*
X41264999Y-48385000D01*
X41514999Y-48385000D01*
X41514999Y-49110000D01*
X41887827Y-49110000D01*
X41887843Y-49109999D01*
X41947371Y-49103598D01*
X41947378Y-49103596D01*
X42082085Y-49053354D01*
X42082092Y-49053350D01*
X42197186Y-48967190D01*
X42197189Y-48967187D01*
X42283349Y-48852093D01*
X42283353Y-48852086D01*
X42333595Y-48717379D01*
X42333597Y-48717372D01*
X42339998Y-48657844D01*
X42339999Y-48657827D01*
X42339999Y-48385000D01*
X42939999Y-48385000D01*
X42939999Y-48657844D01*
X42946400Y-48717372D01*
X42946402Y-48717379D01*
X42996644Y-48852086D01*
X42996648Y-48852093D01*
X43082808Y-48967187D01*
X43082811Y-48967190D01*
X43197905Y-49053350D01*
X43197912Y-49053354D01*
X43332619Y-49103596D01*
X43332626Y-49103598D01*
X43392154Y-49109999D01*
X43392171Y-49110000D01*
X43764999Y-49110000D01*
X43764999Y-48385000D01*
X44014999Y-48385000D01*
X44014999Y-49110000D01*
X44387827Y-49110000D01*
X44387843Y-49109999D01*
X44447371Y-49103598D01*
X44447378Y-49103596D01*
X44582085Y-49053354D01*
X44582092Y-49053350D01*
X44697186Y-48967190D01*
X44697189Y-48967187D01*
X44783349Y-48852093D01*
X44783353Y-48852086D01*
X44833595Y-48717379D01*
X44833597Y-48717372D01*
X44839998Y-48657844D01*
X44839999Y-48657827D01*
X44839999Y-48385000D01*
X45440000Y-48385000D01*
X45440000Y-48657844D01*
X45446401Y-48717372D01*
X45446403Y-48717379D01*
X45496645Y-48852086D01*
X45496649Y-48852093D01*
X45582809Y-48967187D01*
X45582812Y-48967190D01*
X45697906Y-49053350D01*
X45697913Y-49053354D01*
X45832620Y-49103596D01*
X45832627Y-49103598D01*
X45892155Y-49109999D01*
X45892172Y-49110000D01*
X46265000Y-49110000D01*
X46265000Y-48385000D01*
X46515000Y-48385000D01*
X46515000Y-49110000D01*
X46887828Y-49110000D01*
X46887844Y-49109999D01*
X46947372Y-49103598D01*
X46947379Y-49103596D01*
X47082086Y-49053354D01*
X47082093Y-49053350D01*
X47197187Y-48967190D01*
X47197190Y-48967187D01*
X47283350Y-48852093D01*
X47283354Y-48852086D01*
X47333596Y-48717379D01*
X47333598Y-48717372D01*
X47339999Y-48657844D01*
X47340000Y-48657827D01*
X47340000Y-48385000D01*
X47940000Y-48385000D01*
X47940000Y-48657844D01*
X47946401Y-48717372D01*
X47946403Y-48717379D01*
X47996645Y-48852086D01*
X47996649Y-48852093D01*
X48082809Y-48967187D01*
X48082812Y-48967190D01*
X48197906Y-49053350D01*
X48197913Y-49053354D01*
X48332620Y-49103596D01*
X48332627Y-49103598D01*
X48392155Y-49109999D01*
X48392172Y-49110000D01*
X48765000Y-49110000D01*
X48765000Y-48385000D01*
X49015000Y-48385000D01*
X49015000Y-49110000D01*
X49387828Y-49110000D01*
X49387844Y-49109999D01*
X49447372Y-49103598D01*
X49447379Y-49103596D01*
X49582086Y-49053354D01*
X49582093Y-49053350D01*
X49697187Y-48967190D01*
X49697190Y-48967187D01*
X49783350Y-48852093D01*
X49783354Y-48852086D01*
X49833596Y-48717379D01*
X49833598Y-48717372D01*
X49839999Y-48657844D01*
X49840000Y-48657827D01*
X49840000Y-48385000D01*
X49015000Y-48385000D01*
X48765000Y-48385000D01*
X47940000Y-48385000D01*
X47340000Y-48385000D01*
X46515000Y-48385000D01*
X46265000Y-48385000D01*
X45440000Y-48385000D01*
X44839999Y-48385000D01*
X44014999Y-48385000D01*
X43764999Y-48385000D01*
X42939999Y-48385000D01*
X42339999Y-48385000D01*
X41514999Y-48385000D01*
X41264999Y-48385000D01*
X40439999Y-48385000D01*
X39839999Y-48385000D01*
X39014999Y-48385000D01*
X38764999Y-48385000D01*
X37939999Y-48385000D01*
X35485500Y-48385000D01*
X35485500Y-48135000D01*
X37939999Y-48135000D01*
X38764999Y-48135000D01*
X38764999Y-47410000D01*
X39014999Y-47410000D01*
X39014999Y-48135000D01*
X39839999Y-48135000D01*
X40439999Y-48135000D01*
X41264999Y-48135000D01*
X41264999Y-47410000D01*
X41514999Y-47410000D01*
X41514999Y-48135000D01*
X42339999Y-48135000D01*
X42939999Y-48135000D01*
X43764999Y-48135000D01*
X43764999Y-47410000D01*
X44014999Y-47410000D01*
X44014999Y-48135000D01*
X44839999Y-48135000D01*
X45440000Y-48135000D01*
X46265000Y-48135000D01*
X46265000Y-47410000D01*
X46515000Y-47410000D01*
X46515000Y-48135000D01*
X47340000Y-48135000D01*
X47940000Y-48135000D01*
X48765000Y-48135000D01*
X48765000Y-47410000D01*
X49015000Y-47410000D01*
X49015000Y-48135000D01*
X49840000Y-48135000D01*
X49840000Y-47862172D01*
X49839999Y-47862155D01*
X49833598Y-47802627D01*
X49833596Y-47802620D01*
X49783354Y-47667913D01*
X49783350Y-47667906D01*
X49697190Y-47552812D01*
X49697187Y-47552809D01*
X49582093Y-47466649D01*
X49582086Y-47466645D01*
X49447379Y-47416403D01*
X49447372Y-47416401D01*
X49387844Y-47410000D01*
X49015000Y-47410000D01*
X48765000Y-47410000D01*
X48392155Y-47410000D01*
X48332627Y-47416401D01*
X48332620Y-47416403D01*
X48197913Y-47466645D01*
X48197906Y-47466649D01*
X48082812Y-47552809D01*
X48082809Y-47552812D01*
X47996649Y-47667906D01*
X47996645Y-47667913D01*
X47946403Y-47802620D01*
X47946401Y-47802627D01*
X47940000Y-47862155D01*
X47940000Y-48135000D01*
X47340000Y-48135000D01*
X47340000Y-47862172D01*
X47339999Y-47862155D01*
X47333598Y-47802627D01*
X47333596Y-47802620D01*
X47283354Y-47667913D01*
X47283350Y-47667906D01*
X47197190Y-47552812D01*
X47197187Y-47552809D01*
X47082093Y-47466649D01*
X47082086Y-47466645D01*
X46947379Y-47416403D01*
X46947372Y-47416401D01*
X46887844Y-47410000D01*
X46515000Y-47410000D01*
X46265000Y-47410000D01*
X45892155Y-47410000D01*
X45832627Y-47416401D01*
X45832620Y-47416403D01*
X45697913Y-47466645D01*
X45697906Y-47466649D01*
X45582812Y-47552809D01*
X45582809Y-47552812D01*
X45496649Y-47667906D01*
X45496645Y-47667913D01*
X45446403Y-47802620D01*
X45446401Y-47802627D01*
X45440000Y-47862155D01*
X45440000Y-48135000D01*
X44839999Y-48135000D01*
X44839999Y-47862172D01*
X44839998Y-47862155D01*
X44833597Y-47802627D01*
X44833595Y-47802620D01*
X44783353Y-47667913D01*
X44783349Y-47667906D01*
X44697189Y-47552812D01*
X44697186Y-47552809D01*
X44582092Y-47466649D01*
X44582085Y-47466645D01*
X44447378Y-47416403D01*
X44447371Y-47416401D01*
X44387843Y-47410000D01*
X44014999Y-47410000D01*
X43764999Y-47410000D01*
X43392154Y-47410000D01*
X43332626Y-47416401D01*
X43332619Y-47416403D01*
X43197912Y-47466645D01*
X43197905Y-47466649D01*
X43082811Y-47552809D01*
X43082808Y-47552812D01*
X42996648Y-47667906D01*
X42996644Y-47667913D01*
X42946402Y-47802620D01*
X42946400Y-47802627D01*
X42939999Y-47862155D01*
X42939999Y-48135000D01*
X42339999Y-48135000D01*
X42339999Y-47862172D01*
X42339998Y-47862155D01*
X42333597Y-47802627D01*
X42333595Y-47802620D01*
X42283353Y-47667913D01*
X42283349Y-47667906D01*
X42197189Y-47552812D01*
X42197186Y-47552809D01*
X42082092Y-47466649D01*
X42082085Y-47466645D01*
X41947378Y-47416403D01*
X41947371Y-47416401D01*
X41887843Y-47410000D01*
X41514999Y-47410000D01*
X41264999Y-47410000D01*
X40892154Y-47410000D01*
X40832626Y-47416401D01*
X40832619Y-47416403D01*
X40697912Y-47466645D01*
X40697905Y-47466649D01*
X40582811Y-47552809D01*
X40582808Y-47552812D01*
X40496648Y-47667906D01*
X40496644Y-47667913D01*
X40446402Y-47802620D01*
X40446400Y-47802627D01*
X40439999Y-47862155D01*
X40439999Y-48135000D01*
X39839999Y-48135000D01*
X39839999Y-47862172D01*
X39839998Y-47862155D01*
X39833597Y-47802627D01*
X39833595Y-47802620D01*
X39783353Y-47667913D01*
X39783349Y-47667906D01*
X39697189Y-47552812D01*
X39697186Y-47552809D01*
X39582092Y-47466649D01*
X39582085Y-47466645D01*
X39447378Y-47416403D01*
X39447371Y-47416401D01*
X39387843Y-47410000D01*
X39014999Y-47410000D01*
X38764999Y-47410000D01*
X38392154Y-47410000D01*
X38332626Y-47416401D01*
X38332619Y-47416403D01*
X38197912Y-47466645D01*
X38197905Y-47466649D01*
X38082811Y-47552809D01*
X38082808Y-47552812D01*
X37996648Y-47667906D01*
X37996644Y-47667913D01*
X37946402Y-47802620D01*
X37946400Y-47802627D01*
X37939999Y-47862155D01*
X37939999Y-48135000D01*
X35485500Y-48135000D01*
X35485500Y-47966899D01*
X35505185Y-47899860D01*
X35521819Y-47879218D01*
X36043641Y-47357396D01*
X36604399Y-46796637D01*
X36665720Y-46763154D01*
X36674436Y-46761581D01*
X36681954Y-46760500D01*
X36681961Y-46760500D01*
X36820053Y-46719953D01*
X36941128Y-46642143D01*
X37035377Y-46533373D01*
X37095165Y-46402457D01*
X37115647Y-46260000D01*
X37095165Y-46117543D01*
X37035377Y-45986627D01*
X36941128Y-45877857D01*
X36820053Y-45800047D01*
X36820051Y-45800046D01*
X36820049Y-45800045D01*
X36820050Y-45800045D01*
X36681963Y-45759500D01*
X36681961Y-45759500D01*
X36538039Y-45759500D01*
X36538036Y-45759500D01*
X36399949Y-45800045D01*
X36278873Y-45877856D01*
X36184623Y-45986626D01*
X36184622Y-45986628D01*
X36124835Y-46117541D01*
X36124834Y-46117546D01*
X36114489Y-46189495D01*
X36085463Y-46253051D01*
X36079432Y-46259528D01*
X34881108Y-47457852D01*
X34861254Y-47473976D01*
X34852165Y-47479914D01*
X34852164Y-47479915D01*
X34830363Y-47507923D01*
X34825286Y-47513674D01*
X34822484Y-47516477D01*
X34822474Y-47516488D01*
X34808905Y-47535495D01*
X34775192Y-47578808D01*
X34771447Y-47585729D01*
X34767988Y-47592804D01*
X34752329Y-47645403D01*
X34734500Y-47697338D01*
X34733206Y-47705092D01*
X34732231Y-47712911D01*
X34734500Y-47767755D01*
X34734500Y-50673100D01*
X34714815Y-50740139D01*
X34698181Y-50760781D01*
X32607181Y-52851780D01*
X32545858Y-52885265D01*
X32476166Y-52880281D01*
X32420233Y-52838409D01*
X32395816Y-52772945D01*
X32395500Y-52764099D01*
X32395500Y-40680000D01*
X33304353Y-40680000D01*
X33324834Y-40822456D01*
X33384622Y-40953371D01*
X33384623Y-40953373D01*
X33478872Y-41062143D01*
X33599947Y-41139953D01*
X33599950Y-41139954D01*
X33599949Y-41139954D01*
X33738037Y-41180500D01*
X33745564Y-41181582D01*
X33809120Y-41210604D01*
X33815602Y-41216639D01*
X38219432Y-45620470D01*
X38252917Y-45681793D01*
X38254489Y-45690503D01*
X38264834Y-45762453D01*
X38264835Y-45762458D01*
X38317537Y-45877857D01*
X38324623Y-45893373D01*
X38418872Y-46002143D01*
X38539947Y-46079953D01*
X38539950Y-46079954D01*
X38539949Y-46079954D01*
X38596737Y-46096628D01*
X38667978Y-46117546D01*
X38678036Y-46120499D01*
X38678038Y-46120500D01*
X38678039Y-46120500D01*
X38821962Y-46120500D01*
X38821962Y-46120499D01*
X38960053Y-46079953D01*
X39081128Y-46002143D01*
X39175377Y-45893373D01*
X39197422Y-45845101D01*
X39243174Y-45792299D01*
X39310214Y-45772614D01*
X39377253Y-45792298D01*
X39397896Y-45808933D01*
X40187849Y-46598886D01*
X40203977Y-46618745D01*
X40209916Y-46627836D01*
X40237932Y-46649641D01*
X40243693Y-46654730D01*
X40246482Y-46657519D01*
X40265483Y-46671085D01*
X40308811Y-46704809D01*
X40315722Y-46708549D01*
X40322800Y-46712010D01*
X40349484Y-46719954D01*
X40375405Y-46727671D01*
X40427340Y-46745500D01*
X40427342Y-46745500D01*
X40435079Y-46746791D01*
X40442909Y-46747767D01*
X40442911Y-46747768D01*
X40442912Y-46747767D01*
X40442913Y-46747768D01*
X40497755Y-46745500D01*
X49732126Y-46745500D01*
X49799165Y-46765185D01*
X49799166Y-46765185D01*
X49899947Y-46829953D01*
X49899948Y-46829953D01*
X49899949Y-46829954D01*
X50038036Y-46870499D01*
X50038038Y-46870500D01*
X50038039Y-46870500D01*
X50181962Y-46870500D01*
X50181962Y-46870499D01*
X50289121Y-46839035D01*
X50320050Y-46829954D01*
X50320050Y-46829953D01*
X50320053Y-46829953D01*
X50441128Y-46752143D01*
X50535377Y-46643373D01*
X50595165Y-46512457D01*
X50615647Y-46370000D01*
X50595165Y-46227543D01*
X50535377Y-46096627D01*
X50441128Y-45987857D01*
X50320053Y-45910047D01*
X50320051Y-45910046D01*
X50320049Y-45910045D01*
X50320050Y-45910045D01*
X50181963Y-45869500D01*
X50181961Y-45869500D01*
X50038039Y-45869500D01*
X50038036Y-45869500D01*
X49899949Y-45910045D01*
X49899948Y-45910046D01*
X49840306Y-45948376D01*
X49800139Y-45974190D01*
X49799166Y-45974815D01*
X49732126Y-45994500D01*
X49205899Y-45994500D01*
X49138860Y-45974815D01*
X49093105Y-45922011D01*
X49083161Y-45852853D01*
X49112186Y-45789297D01*
X49118218Y-45782819D01*
X49508521Y-45392516D01*
X50104400Y-44796637D01*
X50165721Y-44763154D01*
X50174436Y-44761582D01*
X50181962Y-44760500D01*
X50320050Y-44719954D01*
X50320050Y-44719953D01*
X50320053Y-44719953D01*
X50441128Y-44642143D01*
X50535377Y-44533373D01*
X50595165Y-44402457D01*
X50615647Y-44260000D01*
X50595165Y-44117543D01*
X50535377Y-43986627D01*
X50441128Y-43877857D01*
X50320053Y-43800047D01*
X50320051Y-43800046D01*
X50320049Y-43800045D01*
X50320050Y-43800045D01*
X50181963Y-43759500D01*
X50181961Y-43759500D01*
X50038039Y-43759500D01*
X50038036Y-43759500D01*
X49899949Y-43800045D01*
X49778873Y-43877856D01*
X49684621Y-43986628D01*
X49680633Y-43992835D01*
X49627828Y-44038588D01*
X49558669Y-44048530D01*
X49495114Y-44019504D01*
X49472001Y-43992829D01*
X49468016Y-43986628D01*
X49468016Y-43986627D01*
X49373767Y-43877857D01*
X49252692Y-43800047D01*
X49252690Y-43800046D01*
X49252688Y-43800045D01*
X49252689Y-43800045D01*
X49114602Y-43759500D01*
X49114600Y-43759500D01*
X48970678Y-43759500D01*
X48970675Y-43759500D01*
X48832588Y-43800045D01*
X48711512Y-43877856D01*
X48617262Y-43986626D01*
X48617261Y-43986628D01*
X48557473Y-44117543D01*
X48536992Y-44260000D01*
X48540380Y-44283565D01*
X48530436Y-44352723D01*
X48505323Y-44388892D01*
X47836035Y-45058181D01*
X47774712Y-45091666D01*
X47748354Y-45094500D01*
X41666900Y-45094500D01*
X41599861Y-45074815D01*
X41579219Y-45058181D01*
X39488926Y-42967888D01*
X39455441Y-42906565D01*
X39453869Y-42897853D01*
X39445546Y-42839965D01*
X39443810Y-42827887D01*
X39384022Y-42696971D01*
X39289773Y-42588201D01*
X39168698Y-42510391D01*
X39168696Y-42510390D01*
X39168694Y-42510389D01*
X39168695Y-42510389D01*
X39030608Y-42469844D01*
X39030606Y-42469844D01*
X38886684Y-42469844D01*
X38886681Y-42469844D01*
X38748594Y-42510389D01*
X38627518Y-42588200D01*
X38533268Y-42696970D01*
X38533267Y-42696972D01*
X38473479Y-42827887D01*
X38452998Y-42970344D01*
X38452998Y-42970346D01*
X38462826Y-43038708D01*
X38452882Y-43107866D01*
X38407128Y-43160668D01*
X38320162Y-43216558D01*
X38225911Y-43325329D01*
X38225906Y-43325337D01*
X38224428Y-43328574D01*
X38222100Y-43331259D01*
X38221117Y-43332790D01*
X38220896Y-43332648D01*
X38178669Y-43381375D01*
X38111628Y-43401054D01*
X38093992Y-43399792D01*
X38091961Y-43399500D01*
X37948039Y-43399500D01*
X37948036Y-43399500D01*
X37809949Y-43440045D01*
X37688873Y-43517856D01*
X37594623Y-43626626D01*
X37572578Y-43674898D01*
X37526822Y-43727701D01*
X37459783Y-43747385D01*
X37392743Y-43727700D01*
X37372103Y-43711066D01*
X35912304Y-42251267D01*
X34340566Y-40679528D01*
X34307081Y-40618205D01*
X34305509Y-40609492D01*
X34304013Y-40599090D01*
X34295165Y-40537543D01*
X34235377Y-40406627D01*
X34141128Y-40297857D01*
X34020053Y-40220047D01*
X34020051Y-40220046D01*
X34020049Y-40220045D01*
X34020050Y-40220045D01*
X33881963Y-40179500D01*
X33881961Y-40179500D01*
X33738039Y-40179500D01*
X33738036Y-40179500D01*
X33599949Y-40220045D01*
X33478873Y-40297856D01*
X33384623Y-40406626D01*
X33384622Y-40406628D01*
X33324834Y-40537543D01*
X33304353Y-40680000D01*
X32395500Y-40680000D01*
X32395500Y-34594500D01*
X32415185Y-34527461D01*
X32467989Y-34481706D01*
X32519500Y-34470500D01*
X32667462Y-34470500D01*
X32667462Y-34470499D01*
X32805553Y-34429953D01*
X32906334Y-34365184D01*
X32973374Y-34345500D01*
X42244101Y-34345500D01*
X42311140Y-34365185D01*
X42356895Y-34417989D01*
X42366839Y-34487147D01*
X42337814Y-34550703D01*
X42331782Y-34557181D01*
X40361108Y-36527852D01*
X40341254Y-36543976D01*
X40332165Y-36549914D01*
X40332164Y-36549915D01*
X40310363Y-36577923D01*
X40305286Y-36583674D01*
X40302484Y-36586477D01*
X40302474Y-36586488D01*
X40288905Y-36605495D01*
X40255192Y-36648808D01*
X40251447Y-36655729D01*
X40247988Y-36662804D01*
X40232329Y-36715403D01*
X40214500Y-36767338D01*
X40213206Y-36775092D01*
X40212231Y-36782911D01*
X40214500Y-36837755D01*
X40214500Y-37803100D01*
X40194815Y-37870139D01*
X40178181Y-37890781D01*
X38195601Y-39873360D01*
X38134278Y-39906845D01*
X38125571Y-39908416D01*
X38118040Y-39909498D01*
X37979949Y-39950045D01*
X37858873Y-40027856D01*
X37764623Y-40136626D01*
X37764622Y-40136628D01*
X37704834Y-40267543D01*
X37686471Y-40395268D01*
X37684353Y-40410000D01*
X37686252Y-40423205D01*
X37704834Y-40552456D01*
X37764621Y-40683369D01*
X37764623Y-40683373D01*
X37858872Y-40792143D01*
X37979947Y-40869953D01*
X37979950Y-40869954D01*
X37979949Y-40869954D01*
X38118036Y-40910499D01*
X38118038Y-40910500D01*
X38118039Y-40910500D01*
X38261962Y-40910500D01*
X38261962Y-40910499D01*
X38400053Y-40869953D01*
X38521128Y-40792143D01*
X38615377Y-40683373D01*
X38616918Y-40680000D01*
X38642659Y-40623634D01*
X38675165Y-40552457D01*
X38685509Y-40480502D01*
X38714533Y-40416949D01*
X38720552Y-40410483D01*
X40818889Y-38312146D01*
X40838746Y-38296022D01*
X40847836Y-38290084D01*
X40869651Y-38262054D01*
X40874719Y-38256316D01*
X40877520Y-38253517D01*
X40891088Y-38234513D01*
X40924809Y-38191189D01*
X40924810Y-38191183D01*
X40928543Y-38184287D01*
X40932006Y-38177203D01*
X40932010Y-38177199D01*
X40947673Y-38124587D01*
X40965500Y-38072660D01*
X40965500Y-38072655D01*
X40966795Y-38064895D01*
X40967769Y-38057086D01*
X40965500Y-38002231D01*
X40965500Y-37036899D01*
X40985185Y-36969860D01*
X41001819Y-36949218D01*
X43569219Y-34381819D01*
X43630542Y-34348334D01*
X43656900Y-34345500D01*
X44448196Y-34345500D01*
X44473641Y-34348139D01*
X44476724Y-34348785D01*
X44484268Y-34350367D01*
X44515162Y-34346516D01*
X44584122Y-34357757D01*
X44636057Y-34404496D01*
X44654500Y-34469564D01*
X44654500Y-37508196D01*
X44651862Y-37533634D01*
X44649633Y-37544268D01*
X44649633Y-37544269D01*
X44649633Y-37544271D01*
X44654023Y-37579491D01*
X44654500Y-37587167D01*
X44654500Y-37591116D01*
X44658342Y-37614141D01*
X44665134Y-37668627D01*
X44667373Y-37676147D01*
X44669934Y-37683608D01*
X44669935Y-37683610D01*
X44696055Y-37731876D01*
X44696055Y-37731877D01*
X44720174Y-37781211D01*
X44724742Y-37787609D01*
X44729582Y-37793827D01*
X44769971Y-37831009D01*
X51268181Y-44329218D01*
X51301666Y-44390541D01*
X51304500Y-44416899D01*
X51304499Y-62184964D01*
X51284814Y-62252003D01*
X51232012Y-62297758D01*
X51127240Y-62345607D01*
X50956052Y-62467509D01*
X50956040Y-62467520D01*
X50811014Y-62619620D01*
X50697388Y-62796425D01*
X50619274Y-62991544D01*
X50584461Y-63172174D01*
X50579500Y-63197915D01*
X50579500Y-63605425D01*
X50594472Y-63762218D01*
X50653684Y-63963875D01*
X50733995Y-64119658D01*
X50749991Y-64150686D01*
X50879905Y-64315883D01*
X50879909Y-64315887D01*
X51038746Y-64453521D01*
X51220750Y-64558601D01*
X51220752Y-64558601D01*
X51220756Y-64558604D01*
X51419367Y-64627344D01*
X51627398Y-64657254D01*
X51837330Y-64647254D01*
X52041576Y-64597704D01*
X52125596Y-64559333D01*
X52232743Y-64510401D01*
X52232746Y-64510399D01*
X52232753Y-64510396D01*
X52403952Y-64388486D01*
X52410093Y-64382046D01*
X52548985Y-64236379D01*
X52559131Y-64220592D01*
X52662613Y-64059572D01*
X52740725Y-63864457D01*
X52780500Y-63658085D01*
X52780500Y-63605425D01*
X53079500Y-63605425D01*
X53094472Y-63762218D01*
X53153684Y-63963875D01*
X53233995Y-64119658D01*
X53249991Y-64150686D01*
X53379905Y-64315883D01*
X53379909Y-64315887D01*
X53538746Y-64453521D01*
X53720750Y-64558601D01*
X53720752Y-64558601D01*
X53720756Y-64558604D01*
X53919367Y-64627344D01*
X54127398Y-64657254D01*
X54337330Y-64647254D01*
X54541576Y-64597704D01*
X54625596Y-64559333D01*
X54732743Y-64510401D01*
X54732746Y-64510399D01*
X54732753Y-64510396D01*
X54903952Y-64388486D01*
X54910093Y-64382046D01*
X55048985Y-64236379D01*
X55059131Y-64220592D01*
X55162613Y-64059572D01*
X55240725Y-63864457D01*
X55280500Y-63658085D01*
X55280500Y-63303000D01*
X55579999Y-63303000D01*
X56221650Y-63303000D01*
X56205000Y-63359705D01*
X56205000Y-63496295D01*
X56221650Y-63553000D01*
X55580000Y-63553000D01*
X55580000Y-64200844D01*
X55586401Y-64260372D01*
X55586403Y-64260379D01*
X55636645Y-64395086D01*
X55636649Y-64395093D01*
X55722809Y-64510187D01*
X55722812Y-64510190D01*
X55837906Y-64596350D01*
X55837913Y-64596354D01*
X55972620Y-64646596D01*
X55972627Y-64646598D01*
X56032155Y-64652999D01*
X56032172Y-64653000D01*
X56555000Y-64653000D01*
X56555000Y-63889912D01*
X56646025Y-63903000D01*
X56713975Y-63903000D01*
X56804999Y-63889912D01*
X56804999Y-64653000D01*
X57327828Y-64653000D01*
X57327844Y-64652999D01*
X57387372Y-64646598D01*
X57387379Y-64646596D01*
X57522086Y-64596354D01*
X57522093Y-64596350D01*
X57637187Y-64510190D01*
X57637190Y-64510187D01*
X57723350Y-64395093D01*
X57723354Y-64395086D01*
X57773596Y-64260379D01*
X57773598Y-64260372D01*
X57779999Y-64200844D01*
X57780000Y-64200827D01*
X57780000Y-63553000D01*
X57138350Y-63553000D01*
X57155000Y-63496295D01*
X57155000Y-63359705D01*
X57138350Y-63303000D01*
X57780000Y-63303000D01*
X57780000Y-62655172D01*
X57779999Y-62655155D01*
X57773598Y-62595627D01*
X57773596Y-62595620D01*
X57723354Y-62460913D01*
X57723350Y-62460906D01*
X57637190Y-62345812D01*
X57637187Y-62345809D01*
X57522093Y-62259649D01*
X57522086Y-62259645D01*
X57387379Y-62209403D01*
X57387372Y-62209401D01*
X57327844Y-62203000D01*
X56805000Y-62203000D01*
X56804999Y-62966087D01*
X56713975Y-62953000D01*
X56646025Y-62953000D01*
X56555000Y-62966087D01*
X56555000Y-62203000D01*
X56032155Y-62203000D01*
X55972627Y-62209401D01*
X55972620Y-62209403D01*
X55837913Y-62259645D01*
X55837906Y-62259649D01*
X55722812Y-62345809D01*
X55722809Y-62345812D01*
X55636649Y-62460906D01*
X55636645Y-62460913D01*
X55586403Y-62595620D01*
X55586401Y-62595627D01*
X55580000Y-62655155D01*
X55580000Y-62655172D01*
X55579999Y-63303000D01*
X55280500Y-63303000D01*
X55280500Y-63250575D01*
X55265528Y-63093782D01*
X55206316Y-62892125D01*
X55110011Y-62705318D01*
X55110009Y-62705316D01*
X55110008Y-62705313D01*
X54980094Y-62540116D01*
X54980090Y-62540112D01*
X54821253Y-62402478D01*
X54639249Y-62297398D01*
X54639245Y-62297396D01*
X54639244Y-62297396D01*
X54440633Y-62228656D01*
X54232602Y-62198746D01*
X54232598Y-62198746D01*
X54022672Y-62208745D01*
X53818421Y-62258296D01*
X53818417Y-62258298D01*
X53627256Y-62345598D01*
X53627251Y-62345601D01*
X53456046Y-62467515D01*
X53456040Y-62467520D01*
X53311014Y-62619620D01*
X53197388Y-62796425D01*
X53119274Y-62991544D01*
X53084461Y-63172174D01*
X53079500Y-63197915D01*
X53079500Y-63605425D01*
X52780500Y-63605425D01*
X52780500Y-63250575D01*
X52765528Y-63093782D01*
X52706316Y-62892125D01*
X52610011Y-62705318D01*
X52610009Y-62705316D01*
X52610008Y-62705313D01*
X52480094Y-62540116D01*
X52480090Y-62540112D01*
X52321253Y-62402478D01*
X52139249Y-62297399D01*
X52139247Y-62297398D01*
X52139244Y-62297396D01*
X52139240Y-62297394D01*
X52139231Y-62297390D01*
X52138928Y-62297286D01*
X52138796Y-62297192D01*
X52133867Y-62294941D01*
X52134301Y-62293990D01*
X52082019Y-62256750D01*
X52056060Y-62191882D01*
X52055500Y-62180111D01*
X52055500Y-56850000D01*
X54954341Y-56850000D01*
X54974936Y-57085403D01*
X54974938Y-57085413D01*
X55036094Y-57313655D01*
X55036096Y-57313659D01*
X55036097Y-57313663D01*
X55080226Y-57408297D01*
X55135964Y-57527828D01*
X55135965Y-57527830D01*
X55271505Y-57721402D01*
X55438597Y-57888494D01*
X55632169Y-58024034D01*
X55632171Y-58024035D01*
X55846337Y-58123903D01*
X56074592Y-58185063D01*
X56251034Y-58200500D01*
X56368966Y-58200500D01*
X56545408Y-58185063D01*
X56773663Y-58123903D01*
X56987829Y-58024035D01*
X57181401Y-57888495D01*
X57348495Y-57721401D01*
X57484035Y-57527830D01*
X57583903Y-57313663D01*
X57645063Y-57085408D01*
X57665659Y-56850000D01*
X57645063Y-56614592D01*
X57583903Y-56386337D01*
X57484035Y-56172171D01*
X57484034Y-56172169D01*
X57348494Y-55978597D01*
X57181402Y-55811505D01*
X56987830Y-55675965D01*
X56987828Y-55675964D01*
X56799821Y-55588295D01*
X56773663Y-55576097D01*
X56773659Y-55576096D01*
X56773655Y-55576094D01*
X56545413Y-55514938D01*
X56545403Y-55514936D01*
X56368966Y-55499500D01*
X56251034Y-55499500D01*
X56074596Y-55514936D01*
X56074586Y-55514938D01*
X55846344Y-55576094D01*
X55846335Y-55576098D01*
X55632171Y-55675964D01*
X55632169Y-55675965D01*
X55438597Y-55811505D01*
X55271506Y-55978597D01*
X55271501Y-55978604D01*
X55135967Y-56172165D01*
X55135965Y-56172169D01*
X55036098Y-56386335D01*
X55036094Y-56386344D01*
X54974938Y-56614586D01*
X54974936Y-56614596D01*
X54954341Y-56849999D01*
X54954341Y-56850000D01*
X52055500Y-56850000D01*
X52055500Y-47083211D01*
X52075185Y-47016172D01*
X52127989Y-46970417D01*
X52197147Y-46960473D01*
X52260703Y-46989498D01*
X52276970Y-47006559D01*
X52399905Y-47162883D01*
X52399909Y-47162887D01*
X52558746Y-47300521D01*
X52740750Y-47405601D01*
X52740752Y-47405601D01*
X52740756Y-47405604D01*
X52939367Y-47474344D01*
X53147398Y-47504254D01*
X53357330Y-47494254D01*
X53561576Y-47444704D01*
X53647199Y-47405601D01*
X53752743Y-47357401D01*
X53752746Y-47357399D01*
X53752753Y-47357396D01*
X53923952Y-47235486D01*
X53948652Y-47209582D01*
X54068985Y-47083379D01*
X54091797Y-47047883D01*
X54091805Y-47047870D01*
X54599500Y-47047870D01*
X54599501Y-47047876D01*
X54605908Y-47107483D01*
X54656202Y-47242328D01*
X54656206Y-47242335D01*
X54742452Y-47357544D01*
X54742455Y-47357547D01*
X54857664Y-47443793D01*
X54857671Y-47443797D01*
X54992517Y-47494091D01*
X54992516Y-47494091D01*
X54999444Y-47494835D01*
X55052127Y-47500500D01*
X56347872Y-47500499D01*
X56407483Y-47494091D01*
X56542331Y-47443796D01*
X56657546Y-47357546D01*
X56743796Y-47242331D01*
X56794091Y-47107483D01*
X56800500Y-47047873D01*
X56800499Y-45452128D01*
X56794091Y-45392517D01*
X56779639Y-45353770D01*
X56743797Y-45257671D01*
X56743793Y-45257664D01*
X56657547Y-45142455D01*
X56657544Y-45142452D01*
X56542335Y-45056206D01*
X56542328Y-45056202D01*
X56407482Y-45005908D01*
X56407483Y-45005908D01*
X56347883Y-44999501D01*
X56347881Y-44999500D01*
X56347873Y-44999500D01*
X56347864Y-44999500D01*
X55052129Y-44999500D01*
X55052123Y-44999501D01*
X54992516Y-45005908D01*
X54857671Y-45056202D01*
X54857664Y-45056206D01*
X54742455Y-45142452D01*
X54742452Y-45142455D01*
X54656206Y-45257664D01*
X54656202Y-45257671D01*
X54605908Y-45392517D01*
X54600499Y-45442834D01*
X54599501Y-45452123D01*
X54599500Y-45452135D01*
X54599500Y-47047870D01*
X54091805Y-47047870D01*
X54182613Y-46906572D01*
X54260725Y-46711457D01*
X54300500Y-46505085D01*
X54300500Y-46047575D01*
X54285528Y-45890782D01*
X54226316Y-45689125D01*
X54130011Y-45502318D01*
X54130009Y-45502316D01*
X54130008Y-45502313D01*
X54000094Y-45337116D01*
X54000090Y-45337112D01*
X53841253Y-45199478D01*
X53659249Y-45094398D01*
X53659245Y-45094396D01*
X53659244Y-45094396D01*
X53460633Y-45025656D01*
X53252602Y-44995746D01*
X53252598Y-44995746D01*
X53042672Y-45005745D01*
X52838421Y-45055296D01*
X52838417Y-45055298D01*
X52647256Y-45142598D01*
X52647251Y-45142601D01*
X52476046Y-45264515D01*
X52476040Y-45264520D01*
X52331014Y-45416620D01*
X52283815Y-45490064D01*
X52231011Y-45535819D01*
X52161853Y-45545762D01*
X52098297Y-45516737D01*
X52060523Y-45457959D01*
X52055500Y-45423024D01*
X52055500Y-44261804D01*
X52058139Y-44236359D01*
X52058785Y-44233275D01*
X52060367Y-44225732D01*
X52058498Y-44210740D01*
X52055977Y-44190506D01*
X52055500Y-44182830D01*
X52055500Y-44178889D01*
X52055498Y-44178876D01*
X52051657Y-44155859D01*
X52046881Y-44117543D01*
X52044866Y-44101374D01*
X52044864Y-44101370D01*
X52042622Y-44093840D01*
X52040065Y-44086392D01*
X52040065Y-44086390D01*
X52013944Y-44038122D01*
X51989826Y-43988789D01*
X51989824Y-43988787D01*
X51989824Y-43988786D01*
X51985267Y-43982404D01*
X51980415Y-43976169D01*
X51940029Y-43938992D01*
X47643463Y-39642425D01*
X51029500Y-39642425D01*
X51044472Y-39799218D01*
X51059096Y-39849021D01*
X51103125Y-39998973D01*
X51103684Y-40000875D01*
X51147433Y-40085736D01*
X51199991Y-40187686D01*
X51329905Y-40352883D01*
X51329909Y-40352887D01*
X51488746Y-40490521D01*
X51670750Y-40595601D01*
X51670752Y-40595601D01*
X51670756Y-40595604D01*
X51869367Y-40664344D01*
X52077398Y-40694254D01*
X52287330Y-40684254D01*
X52491576Y-40634704D01*
X52577199Y-40595601D01*
X52682743Y-40547401D01*
X52682746Y-40547399D01*
X52682753Y-40547396D01*
X52853952Y-40425486D01*
X52923179Y-40352883D01*
X52998985Y-40273379D01*
X53002736Y-40267543D01*
X53021806Y-40237870D01*
X53529500Y-40237870D01*
X53529501Y-40237876D01*
X53535908Y-40297483D01*
X53586202Y-40432328D01*
X53586206Y-40432335D01*
X53672452Y-40547544D01*
X53672455Y-40547547D01*
X53787664Y-40633793D01*
X53787671Y-40633797D01*
X53922517Y-40684091D01*
X53922516Y-40684091D01*
X53929444Y-40684835D01*
X53982127Y-40690500D01*
X55277872Y-40690499D01*
X55337483Y-40684091D01*
X55472331Y-40633796D01*
X55587546Y-40547546D01*
X55673796Y-40432331D01*
X55724091Y-40297483D01*
X55730500Y-40237873D01*
X55730499Y-38642128D01*
X55724091Y-38582517D01*
X55723799Y-38581735D01*
X55673797Y-38447671D01*
X55673793Y-38447664D01*
X55587547Y-38332455D01*
X55587544Y-38332452D01*
X55472335Y-38246206D01*
X55472328Y-38246202D01*
X55337482Y-38195908D01*
X55337483Y-38195908D01*
X55277883Y-38189501D01*
X55277881Y-38189500D01*
X55277873Y-38189500D01*
X55277864Y-38189500D01*
X53982129Y-38189500D01*
X53982123Y-38189501D01*
X53922516Y-38195908D01*
X53787671Y-38246202D01*
X53787664Y-38246206D01*
X53672455Y-38332452D01*
X53672452Y-38332455D01*
X53586206Y-38447664D01*
X53586202Y-38447671D01*
X53535908Y-38582517D01*
X53533317Y-38606622D01*
X53529501Y-38642123D01*
X53529500Y-38642135D01*
X53529500Y-40237870D01*
X53021806Y-40237870D01*
X53112613Y-40096572D01*
X53190725Y-39901457D01*
X53230500Y-39695085D01*
X53230500Y-39237575D01*
X53215528Y-39080782D01*
X53156316Y-38879125D01*
X53060011Y-38692318D01*
X53060009Y-38692316D01*
X53060008Y-38692313D01*
X52930094Y-38527116D01*
X52930090Y-38527112D01*
X52771253Y-38389478D01*
X52589249Y-38284398D01*
X52589245Y-38284396D01*
X52589244Y-38284396D01*
X52390633Y-38215656D01*
X52182602Y-38185746D01*
X52182598Y-38185746D01*
X51972672Y-38195745D01*
X51768421Y-38245296D01*
X51768417Y-38245298D01*
X51577256Y-38332598D01*
X51577251Y-38332601D01*
X51406046Y-38454515D01*
X51406040Y-38454520D01*
X51261014Y-38606620D01*
X51147388Y-38783425D01*
X51069274Y-38978544D01*
X51045904Y-39099801D01*
X51029500Y-39184915D01*
X51029500Y-39642425D01*
X47643463Y-39642425D01*
X45441819Y-37440781D01*
X45408334Y-37379458D01*
X45405500Y-37353100D01*
X45405500Y-33646898D01*
X45425185Y-33579859D01*
X45441814Y-33559221D01*
X46158610Y-32842425D01*
X49559500Y-32842425D01*
X49574472Y-32999218D01*
X49633684Y-33200875D01*
X49683019Y-33296572D01*
X49729991Y-33387686D01*
X49859905Y-33552883D01*
X49859909Y-33552887D01*
X50018746Y-33690521D01*
X50200750Y-33795601D01*
X50200752Y-33795601D01*
X50200756Y-33795604D01*
X50399367Y-33864344D01*
X50607398Y-33894254D01*
X50817330Y-33884254D01*
X51021576Y-33834704D01*
X51107199Y-33795601D01*
X51212743Y-33747401D01*
X51212746Y-33747399D01*
X51212753Y-33747396D01*
X51383952Y-33625486D01*
X51432267Y-33574815D01*
X51528985Y-33473379D01*
X51551797Y-33437883D01*
X51551805Y-33437870D01*
X52059500Y-33437870D01*
X52059501Y-33437876D01*
X52065908Y-33497483D01*
X52116202Y-33632328D01*
X52116206Y-33632335D01*
X52202452Y-33747544D01*
X52202455Y-33747547D01*
X52317664Y-33833793D01*
X52317671Y-33833797D01*
X52452517Y-33884091D01*
X52452516Y-33884091D01*
X52459444Y-33884835D01*
X52512127Y-33890500D01*
X53807872Y-33890499D01*
X53867483Y-33884091D01*
X54002331Y-33833796D01*
X54117546Y-33747546D01*
X54203796Y-33632331D01*
X54254091Y-33497483D01*
X54260500Y-33437873D01*
X54260499Y-31842128D01*
X54254091Y-31782517D01*
X54233426Y-31727112D01*
X54203797Y-31647671D01*
X54203793Y-31647664D01*
X54117547Y-31532455D01*
X54117544Y-31532452D01*
X54002335Y-31446206D01*
X54002328Y-31446202D01*
X53867482Y-31395908D01*
X53867483Y-31395908D01*
X53807883Y-31389501D01*
X53807881Y-31389500D01*
X53807873Y-31389500D01*
X53807864Y-31389500D01*
X52512129Y-31389500D01*
X52512123Y-31389501D01*
X52452516Y-31395908D01*
X52317671Y-31446202D01*
X52317664Y-31446206D01*
X52202455Y-31532452D01*
X52202452Y-31532455D01*
X52116206Y-31647664D01*
X52116202Y-31647671D01*
X52065908Y-31782517D01*
X52059501Y-31842116D01*
X52059501Y-31842123D01*
X52059500Y-31842135D01*
X52059500Y-33437870D01*
X51551805Y-33437870D01*
X51642613Y-33296572D01*
X51720725Y-33101457D01*
X51760500Y-32895085D01*
X51760500Y-32437575D01*
X51745528Y-32280782D01*
X51686316Y-32079125D01*
X51590011Y-31892318D01*
X51590009Y-31892316D01*
X51590008Y-31892313D01*
X51460094Y-31727116D01*
X51460090Y-31727112D01*
X51301253Y-31589478D01*
X51119249Y-31484398D01*
X51119245Y-31484396D01*
X51119244Y-31484396D01*
X50920633Y-31415656D01*
X50712602Y-31385746D01*
X50712598Y-31385746D01*
X50502672Y-31395745D01*
X50298421Y-31445296D01*
X50298417Y-31445298D01*
X50107256Y-31532598D01*
X50107251Y-31532601D01*
X49936046Y-31654515D01*
X49936040Y-31654520D01*
X49791014Y-31806620D01*
X49677388Y-31983425D01*
X49599274Y-32178544D01*
X49561786Y-32373055D01*
X49559500Y-32384915D01*
X49559500Y-32842425D01*
X46158610Y-32842425D01*
X46618889Y-32382146D01*
X46638746Y-32366022D01*
X46647836Y-32360084D01*
X46669638Y-32332071D01*
X46674733Y-32326303D01*
X46677519Y-32323518D01*
X46677528Y-32323506D01*
X46691086Y-32304516D01*
X46724807Y-32261192D01*
X46728547Y-32254278D01*
X46732006Y-32247203D01*
X46732010Y-32247199D01*
X46739196Y-32223061D01*
X46747672Y-32194593D01*
X46765500Y-32142661D01*
X46766791Y-32134924D01*
X46767768Y-32127086D01*
X46765500Y-32072244D01*
X46765500Y-27073035D01*
X46785185Y-27005996D01*
X46837989Y-26960241D01*
X46942743Y-26912401D01*
X46942746Y-26912399D01*
X46942753Y-26912396D01*
X47113952Y-26790486D01*
X47123050Y-26780945D01*
X47258985Y-26638379D01*
X47258986Y-26638378D01*
X47372613Y-26461572D01*
X47450725Y-26266457D01*
X47490500Y-26060085D01*
X47490500Y-26007425D01*
X47789500Y-26007425D01*
X47804472Y-26164218D01*
X47863684Y-26365875D01*
X47875889Y-26389549D01*
X47959991Y-26552686D01*
X48089905Y-26717883D01*
X48089909Y-26717887D01*
X48248746Y-26855521D01*
X48430750Y-26960601D01*
X48430752Y-26960601D01*
X48430756Y-26960604D01*
X48629367Y-27029344D01*
X48837398Y-27059254D01*
X49047330Y-27049254D01*
X49251576Y-26999704D01*
X49331828Y-26963054D01*
X49442743Y-26912401D01*
X49442746Y-26912399D01*
X49442753Y-26912396D01*
X49613952Y-26790486D01*
X49623050Y-26780945D01*
X49758985Y-26638379D01*
X49758986Y-26638378D01*
X49781822Y-26602844D01*
X50290000Y-26602844D01*
X50296401Y-26662372D01*
X50296403Y-26662379D01*
X50346645Y-26797086D01*
X50346649Y-26797093D01*
X50432809Y-26912187D01*
X50432812Y-26912190D01*
X50547906Y-26998350D01*
X50547913Y-26998354D01*
X50682620Y-27048596D01*
X50682627Y-27048598D01*
X50742155Y-27054999D01*
X50742172Y-27055000D01*
X51265000Y-27055000D01*
X51265000Y-26291912D01*
X51356025Y-26305000D01*
X51423975Y-26305000D01*
X51515000Y-26291912D01*
X51515000Y-27055000D01*
X52037828Y-27055000D01*
X52037844Y-27054999D01*
X52097372Y-27048598D01*
X52097379Y-27048596D01*
X52232086Y-26998354D01*
X52232093Y-26998350D01*
X52347187Y-26912190D01*
X52347190Y-26912187D01*
X52433350Y-26797093D01*
X52433354Y-26797086D01*
X52483596Y-26662379D01*
X52483598Y-26662372D01*
X52489999Y-26602844D01*
X52490000Y-26602827D01*
X52490000Y-25955000D01*
X51848350Y-25955000D01*
X51865000Y-25898295D01*
X51865000Y-25761705D01*
X51848350Y-25705000D01*
X52490000Y-25705000D01*
X52490000Y-25057172D01*
X52489999Y-25057155D01*
X52483598Y-24997627D01*
X52483596Y-24997620D01*
X52433354Y-24862913D01*
X52433350Y-24862906D01*
X52347190Y-24747812D01*
X52347187Y-24747809D01*
X52232093Y-24661649D01*
X52232086Y-24661645D01*
X52097379Y-24611403D01*
X52097372Y-24611401D01*
X52037844Y-24605000D01*
X51515000Y-24605000D01*
X51515000Y-25368087D01*
X51423975Y-25355000D01*
X51356025Y-25355000D01*
X51265000Y-25368087D01*
X51265000Y-24605000D01*
X50742155Y-24605000D01*
X50682627Y-24611401D01*
X50682620Y-24611403D01*
X50547913Y-24661645D01*
X50547906Y-24661649D01*
X50432812Y-24747809D01*
X50432809Y-24747812D01*
X50346649Y-24862906D01*
X50346645Y-24862913D01*
X50296403Y-24997620D01*
X50296401Y-24997627D01*
X50290000Y-25057155D01*
X50290000Y-25705000D01*
X50931650Y-25705000D01*
X50915000Y-25761705D01*
X50915000Y-25898295D01*
X50931650Y-25955000D01*
X50290000Y-25955000D01*
X50290000Y-26602844D01*
X49781822Y-26602844D01*
X49872613Y-26461572D01*
X49950725Y-26266457D01*
X49990500Y-26060085D01*
X49990500Y-25652575D01*
X49975528Y-25495782D01*
X49916316Y-25294125D01*
X49820011Y-25107318D01*
X49820009Y-25107316D01*
X49820008Y-25107313D01*
X49690094Y-24942116D01*
X49690090Y-24942112D01*
X49531253Y-24804478D01*
X49349249Y-24699398D01*
X49349245Y-24699396D01*
X49349244Y-24699396D01*
X49150633Y-24630656D01*
X48942602Y-24600746D01*
X48942598Y-24600746D01*
X48732672Y-24610745D01*
X48528421Y-24660296D01*
X48528417Y-24660298D01*
X48337256Y-24747598D01*
X48337251Y-24747601D01*
X48166046Y-24869515D01*
X48166040Y-24869520D01*
X48021014Y-25021620D01*
X47907388Y-25198425D01*
X47829274Y-25393544D01*
X47789500Y-25599914D01*
X47789500Y-25599915D01*
X47789500Y-26007425D01*
X47490500Y-26007425D01*
X47490500Y-25652575D01*
X47475528Y-25495782D01*
X47416316Y-25294125D01*
X47320011Y-25107318D01*
X47320009Y-25107316D01*
X47320008Y-25107313D01*
X47190094Y-24942116D01*
X47190090Y-24942112D01*
X47031253Y-24804478D01*
X46849249Y-24699398D01*
X46849245Y-24699396D01*
X46849244Y-24699396D01*
X46650633Y-24630656D01*
X46442602Y-24600746D01*
X46442598Y-24600746D01*
X46232672Y-24610745D01*
X46028421Y-24660296D01*
X46028417Y-24660298D01*
X45837256Y-24747598D01*
X45837251Y-24747601D01*
X45666046Y-24869515D01*
X45666040Y-24869520D01*
X45521014Y-25021620D01*
X45407388Y-25198425D01*
X45329274Y-25393544D01*
X45289500Y-25599914D01*
X45289500Y-25599915D01*
X45289500Y-26007425D01*
X45304472Y-26164218D01*
X45363684Y-26365875D01*
X45375889Y-26389549D01*
X45459991Y-26552686D01*
X45589905Y-26717883D01*
X45589909Y-26717887D01*
X45748746Y-26855521D01*
X45930746Y-26960599D01*
X45930749Y-26960600D01*
X45930756Y-26960604D01*
X45931046Y-26960704D01*
X45931173Y-26960795D01*
X45936121Y-26963054D01*
X45935685Y-26964007D01*
X45987962Y-27001224D01*
X46013937Y-27066085D01*
X46014500Y-27077887D01*
X46014500Y-31873099D01*
X45994815Y-31940138D01*
X45978181Y-31960780D01*
X44801108Y-33137852D01*
X44781254Y-33153976D01*
X44772165Y-33159914D01*
X44772162Y-33159917D01*
X44750486Y-33187766D01*
X44745686Y-33193237D01*
X44742844Y-33196117D01*
X44742480Y-33196482D01*
X44742477Y-33196485D01*
X44551280Y-33387682D01*
X44380781Y-33558181D01*
X44319458Y-33591666D01*
X44293100Y-33594500D01*
X43501803Y-33594500D01*
X43476358Y-33591861D01*
X43465732Y-33589633D01*
X43465729Y-33589633D01*
X43430507Y-33594023D01*
X43422831Y-33594500D01*
X32973374Y-33594500D01*
X32906335Y-33574815D01*
X32906334Y-33574815D01*
X32872207Y-33552883D01*
X32805553Y-33510047D01*
X32805552Y-33510046D01*
X32805551Y-33510046D01*
X32805550Y-33510045D01*
X32667463Y-33469500D01*
X32667461Y-33469500D01*
X32523539Y-33469500D01*
X32519500Y-33469500D01*
X32452461Y-33449815D01*
X32406706Y-33397011D01*
X32395500Y-33345500D01*
X32395500Y-32026898D01*
X32415185Y-31959859D01*
X32431819Y-31939217D01*
X38129218Y-26241819D01*
X38190541Y-26208334D01*
X38216899Y-26205500D01*
X40223769Y-26205500D01*
X40290808Y-26225185D01*
X40336563Y-26277989D01*
X40342746Y-26294566D01*
X40363682Y-26365871D01*
X40459991Y-26552686D01*
X40589905Y-26717883D01*
X40589909Y-26717887D01*
X40748746Y-26855521D01*
X40930750Y-26960601D01*
X40930752Y-26960601D01*
X40930756Y-26960604D01*
X41129367Y-27029344D01*
X41337398Y-27059254D01*
X41547330Y-27049254D01*
X41751576Y-26999704D01*
X41831828Y-26963054D01*
X41942743Y-26912401D01*
X41942746Y-26912399D01*
X41942753Y-26912396D01*
X42113952Y-26790486D01*
X42123050Y-26780945D01*
X42258985Y-26638379D01*
X42258986Y-26638378D01*
X42372613Y-26461572D01*
X42450725Y-26266457D01*
X42490500Y-26060085D01*
X42490500Y-25652575D01*
X42475528Y-25495782D01*
X42416316Y-25294125D01*
X42320011Y-25107318D01*
X42320009Y-25107316D01*
X42320008Y-25107313D01*
X42190094Y-24942116D01*
X42190090Y-24942112D01*
X42031253Y-24804478D01*
X41849249Y-24699398D01*
X41849245Y-24699396D01*
X41849244Y-24699396D01*
X41650633Y-24630656D01*
X41442602Y-24600746D01*
X41442598Y-24600746D01*
X41232672Y-24610745D01*
X41028421Y-24660296D01*
X41028417Y-24660298D01*
X40837256Y-24747598D01*
X40837251Y-24747601D01*
X40666046Y-24869515D01*
X40666040Y-24869520D01*
X40521014Y-25021620D01*
X40407388Y-25198425D01*
X40407386Y-25198428D01*
X40407387Y-25198428D01*
X40344706Y-25355000D01*
X40336064Y-25376586D01*
X40292873Y-25431507D01*
X40226846Y-25454360D01*
X40220946Y-25454500D01*
X38061804Y-25454500D01*
X38036359Y-25451861D01*
X38025733Y-25449633D01*
X38025730Y-25449633D01*
X37990508Y-25454023D01*
X37982832Y-25454500D01*
X37978886Y-25454500D01*
X37967372Y-25456421D01*
X37955857Y-25458342D01*
X37922253Y-25462531D01*
X37853293Y-25451290D01*
X37801358Y-25404551D01*
X37782937Y-25337153D01*
X37803878Y-25270495D01*
X37819229Y-25251807D01*
X38889218Y-24181819D01*
X38950541Y-24148334D01*
X38976899Y-24145500D01*
X42363101Y-24145500D01*
X42430140Y-24165185D01*
X42450782Y-24181819D01*
X43066971Y-24798009D01*
X43100456Y-24859332D01*
X43095472Y-24929024D01*
X43069034Y-24971259D01*
X43021012Y-25021623D01*
X42907388Y-25198425D01*
X42829274Y-25393544D01*
X42789500Y-25599914D01*
X42789500Y-25599915D01*
X42789500Y-26007425D01*
X42804472Y-26164218D01*
X42863684Y-26365875D01*
X42875889Y-26389549D01*
X42959991Y-26552686D01*
X43089905Y-26717883D01*
X43089909Y-26717887D01*
X43248746Y-26855521D01*
X43430750Y-26960601D01*
X43430752Y-26960601D01*
X43430756Y-26960604D01*
X43629367Y-27029344D01*
X43837398Y-27059254D01*
X44047330Y-27049254D01*
X44251576Y-26999704D01*
X44331828Y-26963054D01*
X44442743Y-26912401D01*
X44442746Y-26912399D01*
X44442753Y-26912396D01*
X44613952Y-26790486D01*
X44623050Y-26780945D01*
X44758985Y-26638379D01*
X44758986Y-26638378D01*
X44872613Y-26461572D01*
X44950725Y-26266457D01*
X44990500Y-26060085D01*
X44990500Y-25652575D01*
X44975528Y-25495782D01*
X44916316Y-25294125D01*
X44820011Y-25107318D01*
X44820009Y-25107316D01*
X44820008Y-25107313D01*
X44690094Y-24942116D01*
X44690090Y-24942112D01*
X44531253Y-24804478D01*
X44349249Y-24699398D01*
X44349245Y-24699396D01*
X44349244Y-24699396D01*
X44150633Y-24630656D01*
X43970817Y-24604802D01*
X43907262Y-24575778D01*
X43900784Y-24569746D01*
X42872149Y-23541111D01*
X42856022Y-23521252D01*
X42850086Y-23512167D01*
X42850083Y-23512163D01*
X42822074Y-23490363D01*
X42816310Y-23485272D01*
X42813515Y-23482477D01*
X42794505Y-23468906D01*
X42751189Y-23435190D01*
X42744274Y-23431448D01*
X42737200Y-23427990D01*
X42684596Y-23412329D01*
X42632658Y-23394499D01*
X42624923Y-23393208D01*
X42617085Y-23392231D01*
X42562244Y-23394500D01*
X38821803Y-23394500D01*
X38796358Y-23391861D01*
X38785732Y-23389633D01*
X38785729Y-23389633D01*
X38750507Y-23394023D01*
X38742831Y-23394500D01*
X38738886Y-23394500D01*
X38727371Y-23396421D01*
X38715856Y-23398342D01*
X38697696Y-23400606D01*
X38661375Y-23405134D01*
X38661371Y-23405135D01*
X38653842Y-23407377D01*
X38646383Y-23409937D01*
X38598118Y-23436058D01*
X38548791Y-23460172D01*
X38542381Y-23464748D01*
X38536175Y-23469579D01*
X38498991Y-23509971D01*
X31707180Y-30301780D01*
X31645857Y-30335265D01*
X31576165Y-30330281D01*
X31520232Y-30288409D01*
X31495815Y-30222945D01*
X31495500Y-30214126D01*
X31495500Y-29796898D01*
X31515185Y-29729858D01*
X31531814Y-29709222D01*
X41064515Y-20176520D01*
X41125836Y-20143037D01*
X41195528Y-20148021D01*
X41214192Y-20156815D01*
X41220751Y-20160602D01*
X41220754Y-20160603D01*
X41220756Y-20160604D01*
X41419367Y-20229344D01*
X41627398Y-20259254D01*
X41837330Y-20249254D01*
X42041576Y-20199704D01*
X42130762Y-20158974D01*
X42232743Y-20112401D01*
X42232746Y-20112399D01*
X42232753Y-20112396D01*
X42403952Y-19990486D01*
X42445218Y-19947208D01*
X42548985Y-19838379D01*
X42552524Y-19832873D01*
X42662613Y-19661572D01*
X42740725Y-19466457D01*
X42780500Y-19260085D01*
X42780500Y-19207425D01*
X43079500Y-19207425D01*
X43094472Y-19364218D01*
X43102297Y-19390868D01*
X43140731Y-19521763D01*
X43153684Y-19565875D01*
X43240161Y-19733619D01*
X43249991Y-19752686D01*
X43379905Y-19917883D01*
X43379909Y-19917887D01*
X43538746Y-20055521D01*
X43720750Y-20160601D01*
X43720752Y-20160601D01*
X43720756Y-20160604D01*
X43919367Y-20229344D01*
X44127398Y-20259254D01*
X44337330Y-20249254D01*
X44541576Y-20199704D01*
X44630762Y-20158974D01*
X44732743Y-20112401D01*
X44732746Y-20112399D01*
X44732753Y-20112396D01*
X44903952Y-19990486D01*
X44945218Y-19947208D01*
X45048985Y-19838379D01*
X45052524Y-19832873D01*
X45162613Y-19661572D01*
X45240725Y-19466457D01*
X45280500Y-19260085D01*
X45280500Y-19207425D01*
X45579500Y-19207425D01*
X45594472Y-19364218D01*
X45602297Y-19390868D01*
X45640731Y-19521763D01*
X45653684Y-19565875D01*
X45740161Y-19733619D01*
X45749991Y-19752686D01*
X45879905Y-19917883D01*
X45879909Y-19917887D01*
X46038746Y-20055521D01*
X46220750Y-20160601D01*
X46220752Y-20160601D01*
X46220756Y-20160604D01*
X46419367Y-20229344D01*
X46627398Y-20259254D01*
X46837330Y-20249254D01*
X47041576Y-20199704D01*
X47130762Y-20158974D01*
X47232743Y-20112401D01*
X47232746Y-20112399D01*
X47232753Y-20112396D01*
X47403952Y-19990486D01*
X47445218Y-19947208D01*
X47548985Y-19838379D01*
X47552524Y-19832873D01*
X47662613Y-19661572D01*
X47740725Y-19466457D01*
X47780500Y-19260085D01*
X47780500Y-18904999D01*
X48079999Y-18904999D01*
X48080000Y-18905000D01*
X48721650Y-18905000D01*
X48705000Y-18961705D01*
X48705000Y-19098295D01*
X48721650Y-19155000D01*
X48080000Y-19155000D01*
X48080000Y-19802844D01*
X48086401Y-19862372D01*
X48086403Y-19862379D01*
X48136645Y-19997086D01*
X48136649Y-19997093D01*
X48222809Y-20112187D01*
X48222812Y-20112190D01*
X48337906Y-20198350D01*
X48337913Y-20198354D01*
X48472620Y-20248596D01*
X48472627Y-20248598D01*
X48532155Y-20254999D01*
X48532172Y-20255000D01*
X49055000Y-20255000D01*
X49055000Y-19491912D01*
X49146025Y-19505000D01*
X49213975Y-19505000D01*
X49305000Y-19491912D01*
X49305000Y-20255000D01*
X49827828Y-20255000D01*
X49827844Y-20254999D01*
X49887372Y-20248598D01*
X49887379Y-20248596D01*
X50022086Y-20198354D01*
X50022093Y-20198350D01*
X50137187Y-20112190D01*
X50137190Y-20112187D01*
X50223350Y-19997093D01*
X50223354Y-19997086D01*
X50273596Y-19862379D01*
X50273598Y-19862372D01*
X50279999Y-19802844D01*
X50280000Y-19802827D01*
X50280000Y-19155000D01*
X49638350Y-19155000D01*
X49655000Y-19098295D01*
X49655000Y-18961705D01*
X49638350Y-18905000D01*
X50280000Y-18905000D01*
X50280000Y-18257172D01*
X50279999Y-18257155D01*
X50273598Y-18197627D01*
X50273596Y-18197620D01*
X50223354Y-18062913D01*
X50223350Y-18062906D01*
X50137190Y-17947812D01*
X50137187Y-17947809D01*
X50022093Y-17861649D01*
X50022086Y-17861645D01*
X49887379Y-17811403D01*
X49887372Y-17811401D01*
X49827844Y-17805000D01*
X49305000Y-17805000D01*
X49305000Y-18568087D01*
X49213975Y-18555000D01*
X49146025Y-18555000D01*
X49055000Y-18568087D01*
X49055000Y-17805000D01*
X48532155Y-17805000D01*
X48472627Y-17811401D01*
X48472620Y-17811403D01*
X48337913Y-17861645D01*
X48337906Y-17861649D01*
X48222812Y-17947809D01*
X48222809Y-17947812D01*
X48136649Y-18062906D01*
X48136645Y-18062913D01*
X48086403Y-18197620D01*
X48086401Y-18197627D01*
X48080000Y-18257155D01*
X48080000Y-18257172D01*
X48079999Y-18904999D01*
X47780500Y-18904999D01*
X47780500Y-18852575D01*
X47765528Y-18695782D01*
X47706316Y-18494125D01*
X47610011Y-18307318D01*
X47610009Y-18307316D01*
X47610008Y-18307313D01*
X47480094Y-18142116D01*
X47480090Y-18142112D01*
X47321253Y-18004478D01*
X47139249Y-17899398D01*
X47139245Y-17899396D01*
X47139244Y-17899396D01*
X46940633Y-17830656D01*
X46732602Y-17800746D01*
X46732598Y-17800746D01*
X46522672Y-17810745D01*
X46318421Y-17860296D01*
X46318417Y-17860298D01*
X46127256Y-17947598D01*
X46127251Y-17947601D01*
X45956046Y-18069515D01*
X45956040Y-18069520D01*
X45811014Y-18221620D01*
X45697388Y-18398425D01*
X45619274Y-18593544D01*
X45580484Y-18794807D01*
X45579500Y-18799915D01*
X45579500Y-19207425D01*
X45280500Y-19207425D01*
X45280500Y-18852575D01*
X45265528Y-18695782D01*
X45206316Y-18494125D01*
X45110011Y-18307318D01*
X45110009Y-18307316D01*
X45110008Y-18307313D01*
X44980094Y-18142116D01*
X44980090Y-18142112D01*
X44821253Y-18004478D01*
X44639249Y-17899398D01*
X44639245Y-17899396D01*
X44639244Y-17899396D01*
X44440633Y-17830656D01*
X44232602Y-17800746D01*
X44232598Y-17800746D01*
X44022672Y-17810745D01*
X43818421Y-17860296D01*
X43818417Y-17860298D01*
X43627256Y-17947598D01*
X43627251Y-17947601D01*
X43456046Y-18069515D01*
X43456040Y-18069520D01*
X43311014Y-18221620D01*
X43197388Y-18398425D01*
X43119274Y-18593544D01*
X43080484Y-18794807D01*
X43079500Y-18799915D01*
X43079500Y-19207425D01*
X42780500Y-19207425D01*
X42780500Y-18852575D01*
X42765528Y-18695782D01*
X42706316Y-18494125D01*
X42610011Y-18307318D01*
X42610009Y-18307316D01*
X42610008Y-18307313D01*
X42480094Y-18142116D01*
X42480090Y-18142112D01*
X42321253Y-18004478D01*
X42139249Y-17899398D01*
X42139245Y-17899396D01*
X42139244Y-17899396D01*
X41940633Y-17830656D01*
X41732602Y-17800746D01*
X41732598Y-17800746D01*
X41522672Y-17810745D01*
X41318421Y-17860296D01*
X41318417Y-17860298D01*
X41127256Y-17947598D01*
X41127251Y-17947601D01*
X40956046Y-18069515D01*
X40956040Y-18069520D01*
X40811014Y-18221620D01*
X40697388Y-18398425D01*
X40619274Y-18593544D01*
X40580484Y-18794807D01*
X40579500Y-18799915D01*
X40579500Y-19207425D01*
X40587393Y-19290085D01*
X40594472Y-19364217D01*
X40594473Y-19364224D01*
X40623741Y-19463901D01*
X40623741Y-19533770D01*
X40592445Y-19586516D01*
X40340113Y-19838848D01*
X40278790Y-19872333D01*
X40209098Y-19867349D01*
X40153165Y-19825477D01*
X40128748Y-19760013D01*
X40143600Y-19691740D01*
X40148118Y-19684126D01*
X40162611Y-19661575D01*
X40162610Y-19661575D01*
X40162613Y-19661572D01*
X40240725Y-19466457D01*
X40280500Y-19260085D01*
X40280500Y-18852575D01*
X40265528Y-18695782D01*
X40206316Y-18494125D01*
X40110011Y-18307318D01*
X40110009Y-18307316D01*
X40110008Y-18307313D01*
X39980094Y-18142116D01*
X39980090Y-18142112D01*
X39821253Y-18004478D01*
X39639249Y-17899398D01*
X39639245Y-17899396D01*
X39639244Y-17899396D01*
X39440633Y-17830656D01*
X39232602Y-17800746D01*
X39232598Y-17800746D01*
X39022672Y-17810745D01*
X38818421Y-17860296D01*
X38818417Y-17860298D01*
X38627256Y-17947598D01*
X38627251Y-17947601D01*
X38456046Y-18069515D01*
X38456040Y-18069520D01*
X38311014Y-18221620D01*
X38197388Y-18398425D01*
X38119274Y-18593544D01*
X38080484Y-18794807D01*
X38079500Y-18799915D01*
X38079500Y-19207425D01*
X38094472Y-19364218D01*
X38102297Y-19390868D01*
X38140731Y-19521763D01*
X38153684Y-19565875D01*
X38240161Y-19733619D01*
X38249991Y-19752686D01*
X38379905Y-19917883D01*
X38379908Y-19917886D01*
X38470075Y-19996016D01*
X38507848Y-20054793D01*
X38507848Y-20124663D01*
X38476552Y-20177409D01*
X29391108Y-29262852D01*
X29371254Y-29278976D01*
X29362165Y-29284914D01*
X29362164Y-29284915D01*
X29340363Y-29312923D01*
X29335286Y-29318674D01*
X29332484Y-29321477D01*
X29332474Y-29321488D01*
X29318905Y-29340495D01*
X29285192Y-29383808D01*
X29281447Y-29390729D01*
X29277988Y-29397804D01*
X29262329Y-29450403D01*
X29241164Y-29512057D01*
X29238194Y-29511037D01*
X29215130Y-29558640D01*
X29205521Y-29568136D01*
X29129516Y-29635470D01*
X29039781Y-29765475D01*
X29039780Y-29765476D01*
X28983762Y-29913181D01*
X28964722Y-30069999D01*
X28964722Y-30070000D01*
X28983762Y-30226818D01*
X29023001Y-30330281D01*
X29039780Y-30374523D01*
X29129517Y-30504530D01*
X29247760Y-30609283D01*
X29247762Y-30609284D01*
X29387634Y-30682696D01*
X29541014Y-30720500D01*
X29541015Y-30720500D01*
X29698985Y-30720500D01*
X29852365Y-30682696D01*
X29926289Y-30643897D01*
X29992240Y-30609283D01*
X30110483Y-30504530D01*
X30200220Y-30374523D01*
X30256237Y-30226818D01*
X30275278Y-30070000D01*
X30270841Y-30033453D01*
X30256237Y-29913181D01*
X30200220Y-29765478D01*
X30200220Y-29765477D01*
X30156967Y-29702814D01*
X30135086Y-29636464D01*
X30152551Y-29568813D01*
X30171334Y-29544701D01*
X39408889Y-20307146D01*
X39428746Y-20291022D01*
X39437836Y-20285084D01*
X39459651Y-20257054D01*
X39464719Y-20251316D01*
X39467520Y-20248517D01*
X39467528Y-20248506D01*
X39470833Y-20244605D01*
X39471157Y-20244880D01*
X39471177Y-20244861D01*
X39471406Y-20245090D01*
X39471713Y-20245350D01*
X39522277Y-20205666D01*
X39539021Y-20200323D01*
X39541576Y-20199704D01*
X39721975Y-20117317D01*
X39791134Y-20107374D01*
X39854690Y-20136399D01*
X39892464Y-20195177D01*
X39892464Y-20265047D01*
X39861168Y-20317793D01*
X30891108Y-29287852D01*
X30871254Y-29303976D01*
X30862165Y-29309914D01*
X30862164Y-29309915D01*
X30840363Y-29337923D01*
X30835286Y-29343674D01*
X30832484Y-29346477D01*
X30832474Y-29346488D01*
X30818905Y-29365495D01*
X30785192Y-29408808D01*
X30781447Y-29415729D01*
X30777988Y-29422804D01*
X30762329Y-29475403D01*
X30744500Y-29527338D01*
X30743206Y-29535092D01*
X30742231Y-29542911D01*
X30744500Y-29597755D01*
X30744499Y-53540431D01*
X30724814Y-53607470D01*
X30672010Y-53653225D01*
X30602852Y-53663169D01*
X30539296Y-53634144D01*
X30501522Y-53575366D01*
X30496980Y-53551341D01*
X30483877Y-53402879D01*
X30483847Y-53402083D01*
X30481415Y-53374975D01*
X30479051Y-53348175D01*
X30478940Y-53347382D01*
X30455689Y-53088178D01*
X30455656Y-53087336D01*
X30453477Y-53063462D01*
X30453196Y-53060377D01*
X30451014Y-53036048D01*
X30451012Y-53036044D01*
X30450791Y-53033571D01*
X30450674Y-53032739D01*
X30427105Y-52774457D01*
X30427067Y-52773540D01*
X30424569Y-52746657D01*
X30424569Y-52746656D01*
X30422348Y-52722314D01*
X30422347Y-52722311D01*
X30422122Y-52719844D01*
X30421994Y-52718949D01*
X30398081Y-52461556D01*
X30398039Y-52460590D01*
X30395500Y-52433771D01*
X30395500Y-52433770D01*
X30393238Y-52409420D01*
X30393237Y-52409417D01*
X30393012Y-52406994D01*
X30392873Y-52406027D01*
X30368585Y-52149454D01*
X30368539Y-52148431D01*
X30365951Y-52121624D01*
X30363418Y-52094862D01*
X30363269Y-52093850D01*
X30338572Y-51837994D01*
X30338523Y-51836930D01*
X30335886Y-51810163D01*
X30335886Y-51810162D01*
X30333546Y-51785914D01*
X30333545Y-51785911D01*
X30333317Y-51783547D01*
X30333161Y-51782496D01*
X30314788Y-51595953D01*
X30308027Y-51527309D01*
X30307970Y-51526165D01*
X30307729Y-51523775D01*
X30307730Y-51523772D01*
X30305265Y-51499268D01*
X30302893Y-51475178D01*
X30302892Y-51475176D01*
X30302664Y-51472855D01*
X30302497Y-51471742D01*
X30276893Y-51217138D01*
X30276831Y-51215958D01*
X30276588Y-51213600D01*
X30276589Y-51213597D01*
X30274105Y-51189428D01*
X30271653Y-51165037D01*
X30271652Y-51165033D01*
X30271420Y-51162726D01*
X30271241Y-51161543D01*
X30245139Y-50907475D01*
X30245071Y-50906233D01*
X30242301Y-50879857D01*
X30241519Y-50872244D01*
X30239792Y-50855432D01*
X30239791Y-50855429D01*
X30239556Y-50853141D01*
X30239364Y-50851890D01*
X30225249Y-50717482D01*
X30212738Y-50598345D01*
X30212664Y-50597032D01*
X30211969Y-50590564D01*
X30209780Y-50570174D01*
X30207273Y-50546299D01*
X30207271Y-50546295D01*
X30207035Y-50544040D01*
X30206835Y-50542766D01*
X30179646Y-50289578D01*
X30179568Y-50288247D01*
X30179324Y-50286031D01*
X30179325Y-50286028D01*
X30176663Y-50261798D01*
X30174062Y-50237579D01*
X30174061Y-50237577D01*
X30173824Y-50235367D01*
X30173611Y-50234029D01*
X30145835Y-49981206D01*
X30145748Y-49979802D01*
X30142796Y-49953547D01*
X30142464Y-49950527D01*
X30140122Y-49929207D01*
X30140120Y-49929203D01*
X30139881Y-49927021D01*
X30139655Y-49925623D01*
X30111262Y-49673112D01*
X30111171Y-49671661D01*
X30108139Y-49645328D01*
X30105174Y-49618961D01*
X30104938Y-49617528D01*
X30075895Y-49365236D01*
X30075797Y-49363745D01*
X30075545Y-49361613D01*
X30075546Y-49361610D01*
X30072703Y-49337495D01*
X30069915Y-49313274D01*
X30069914Y-49313271D01*
X30069666Y-49311115D01*
X30069416Y-49309623D01*
X30039697Y-49057517D01*
X30039591Y-49055990D01*
X30039337Y-49053891D01*
X30039338Y-49053886D01*
X30036457Y-49030031D01*
X30033576Y-49005587D01*
X30033574Y-49005583D01*
X30033330Y-49003506D01*
X30033067Y-49001961D01*
X30002632Y-48749898D01*
X30002518Y-48748320D01*
X30002264Y-48746270D01*
X30002265Y-48746265D01*
X29999297Y-48722276D01*
X29996367Y-48698008D01*
X29996365Y-48698004D01*
X29996117Y-48695943D01*
X29995841Y-48694340D01*
X29977690Y-48547621D01*
X29964671Y-48442386D01*
X29964546Y-48440726D01*
X29961217Y-48414465D01*
X29957996Y-48388425D01*
X29957708Y-48386784D01*
X29957482Y-48385000D01*
X29925767Y-48134804D01*
X29925638Y-48133132D01*
X29922269Y-48107198D01*
X29918941Y-48080936D01*
X29918636Y-48079230D01*
X29885893Y-47827158D01*
X29885751Y-47825416D01*
X29882310Y-47799574D01*
X29881641Y-47794420D01*
X29879156Y-47775289D01*
X29879155Y-47775286D01*
X29878898Y-47773307D01*
X29878582Y-47771570D01*
X29868700Y-47697338D01*
X29845004Y-47519342D01*
X29844853Y-47517558D01*
X29842196Y-47498093D01*
X29841300Y-47491524D01*
X29838105Y-47467520D01*
X29838104Y-47467517D01*
X29837843Y-47465556D01*
X29837517Y-47463796D01*
X29803082Y-47211403D01*
X29802921Y-47209582D01*
X29802645Y-47207613D01*
X29802646Y-47207609D01*
X29799294Y-47183644D01*
X29796463Y-47162886D01*
X29795747Y-47157637D01*
X29795404Y-47155821D01*
X29760069Y-46903135D01*
X29759898Y-46901268D01*
X29759622Y-46899346D01*
X29759623Y-46899339D01*
X29756169Y-46875244D01*
X29752825Y-46851324D01*
X29752822Y-46851318D01*
X29752553Y-46849388D01*
X29752200Y-46847548D01*
X29739725Y-46760500D01*
X29715942Y-46594552D01*
X29715759Y-46592628D01*
X29715482Y-46590747D01*
X29715483Y-46590745D01*
X29711934Y-46566585D01*
X29708522Y-46542773D01*
X29708521Y-46542771D01*
X29708252Y-46540891D01*
X29707885Y-46539022D01*
X29670660Y-46285559D01*
X29670470Y-46283634D01*
X29666610Y-46257987D01*
X29662793Y-46231997D01*
X29662406Y-46230054D01*
X29662028Y-46227543D01*
X29624197Y-45976177D01*
X29623994Y-45974190D01*
X29623710Y-45972354D01*
X29623711Y-45972351D01*
X29620013Y-45948376D01*
X29616415Y-45924464D01*
X29616139Y-45922627D01*
X29615739Y-45920664D01*
X29576509Y-45666274D01*
X29576298Y-45664280D01*
X29576006Y-45662435D01*
X29576007Y-45662428D01*
X29572251Y-45638654D01*
X29568539Y-45614583D01*
X29568260Y-45612771D01*
X29567843Y-45610757D01*
X29527566Y-45355817D01*
X29527342Y-45353770D01*
X29523172Y-45328002D01*
X29519115Y-45302323D01*
X29518688Y-45300301D01*
X29477318Y-45044680D01*
X29477084Y-45042614D01*
X29476787Y-45040827D01*
X29476788Y-45040823D01*
X29472849Y-45017062D01*
X29468966Y-44993066D01*
X29468678Y-44991285D01*
X29468233Y-44989218D01*
X29434890Y-44788053D01*
X29425744Y-44732873D01*
X29425495Y-44730753D01*
X29421122Y-44704993D01*
X29421122Y-44704992D01*
X29417197Y-44681308D01*
X29417195Y-44681304D01*
X29416901Y-44679527D01*
X29416451Y-44677469D01*
X29372811Y-44420360D01*
X29372552Y-44418217D01*
X29368099Y-44392592D01*
X29363763Y-44367046D01*
X29363293Y-44364939D01*
X29351283Y-44295828D01*
X29318475Y-44107028D01*
X29318203Y-44104854D01*
X29317584Y-44101376D01*
X29313649Y-44079253D01*
X29309520Y-44055487D01*
X29309219Y-44053753D01*
X29308733Y-44051613D01*
X29306333Y-44038122D01*
X29262693Y-43792768D01*
X29262342Y-43790066D01*
X29262080Y-43788639D01*
X29262081Y-43788635D01*
X29257743Y-43764937D01*
X29253540Y-43741303D01*
X29253538Y-43741299D01*
X29253286Y-43739879D01*
X29252669Y-43737214D01*
X29247547Y-43709231D01*
X29176051Y-43318598D01*
X29175622Y-43315421D01*
X29170952Y-43290729D01*
X29166428Y-43266012D01*
X29165685Y-43262885D01*
X29086511Y-42844259D01*
X29086070Y-42841141D01*
X29083484Y-42827887D01*
X29081236Y-42816365D01*
X29076803Y-42792926D01*
X29076802Y-42792924D01*
X29076575Y-42791722D01*
X29075832Y-42788670D01*
X29000294Y-42401552D01*
X28994159Y-42370110D01*
X28993712Y-42367076D01*
X28993466Y-42365852D01*
X28993466Y-42365849D01*
X28988750Y-42342390D01*
X28984154Y-42318834D01*
X28984152Y-42318830D01*
X28983912Y-42317598D01*
X28983161Y-42314590D01*
X28975198Y-42274973D01*
X28899052Y-41896163D01*
X28898595Y-41893178D01*
X28898335Y-41891920D01*
X28898335Y-41891917D01*
X28893474Y-41868413D01*
X28888753Y-41844924D01*
X28888499Y-41843660D01*
X28887752Y-41840745D01*
X28801245Y-41422413D01*
X28800784Y-41419498D01*
X28795494Y-41394599D01*
X28790661Y-41371225D01*
X28790658Y-41371219D01*
X28790388Y-41369911D01*
X28789643Y-41367063D01*
X28785978Y-41349811D01*
X28700797Y-40948875D01*
X28700329Y-40946024D01*
X28700042Y-40944708D01*
X28700042Y-40944702D01*
X28694903Y-40921132D01*
X28689938Y-40897761D01*
X28689936Y-40897758D01*
X28689657Y-40896441D01*
X28688909Y-40893638D01*
X28597772Y-40475614D01*
X28597301Y-40472838D01*
X28596998Y-40471482D01*
X28596998Y-40471478D01*
X28591780Y-40448129D01*
X28586642Y-40424561D01*
X28586641Y-40424559D01*
X28586346Y-40423205D01*
X28585596Y-40420460D01*
X28492232Y-40002662D01*
X28491751Y-39999911D01*
X28486062Y-39975050D01*
X28480526Y-39950275D01*
X28479782Y-39947608D01*
X28384226Y-39529991D01*
X28383748Y-39527335D01*
X28377956Y-39502592D01*
X28372249Y-39477647D01*
X28371499Y-39475004D01*
X28365178Y-39447999D01*
X28273823Y-39057688D01*
X28273342Y-39055087D01*
X28272998Y-39053649D01*
X28272998Y-39053643D01*
X28267377Y-39030145D01*
X28261915Y-39006807D01*
X28261913Y-39006803D01*
X28261573Y-39005349D01*
X28260834Y-39002793D01*
X28161085Y-38585771D01*
X28160602Y-38583227D01*
X28160238Y-38581735D01*
X28154531Y-38558367D01*
X28148924Y-38534926D01*
X28148567Y-38533433D01*
X28147831Y-38530934D01*
X28046060Y-38114222D01*
X28045574Y-38111736D01*
X28045198Y-38110227D01*
X28045198Y-38110224D01*
X28039389Y-38086910D01*
X28033658Y-38063443D01*
X28033655Y-38063437D01*
X28033287Y-38061929D01*
X28032560Y-38059501D01*
X27928817Y-37643118D01*
X27928336Y-37640709D01*
X27922050Y-37615958D01*
X27920838Y-37611096D01*
X27916176Y-37592383D01*
X27916173Y-37592378D01*
X27915797Y-37590866D01*
X27915069Y-37588476D01*
X27809407Y-37172448D01*
X27808923Y-37170077D01*
X27808516Y-37168504D01*
X27808516Y-37168501D01*
X27806163Y-37159408D01*
X27802474Y-37145144D01*
X27798973Y-37131365D01*
X27796538Y-37121774D01*
X27796536Y-37121770D01*
X27796140Y-37120210D01*
X27795424Y-37117899D01*
X27713558Y-36801447D01*
X27687896Y-36702253D01*
X27687415Y-36699951D01*
X27686992Y-36698345D01*
X27686992Y-36698342D01*
X27680847Y-36675007D01*
X27674803Y-36651643D01*
X27674800Y-36651637D01*
X27674392Y-36650059D01*
X27673688Y-36647820D01*
X27564340Y-36232562D01*
X27563860Y-36230305D01*
X27557196Y-36205427D01*
X27554291Y-36194397D01*
X27551031Y-36182015D01*
X27551029Y-36182011D01*
X27550603Y-36180393D01*
X27549899Y-36178184D01*
X27438809Y-35763428D01*
X27438327Y-35761220D01*
X27437877Y-35759567D01*
X27437877Y-35759564D01*
X27431523Y-35736227D01*
X27425280Y-35712918D01*
X27424840Y-35711275D01*
X27424137Y-35709103D01*
X27401699Y-35626690D01*
X27311344Y-35294822D01*
X27310867Y-35292671D01*
X27303977Y-35267765D01*
X27303977Y-35267764D01*
X27297611Y-35244379D01*
X27297608Y-35244373D01*
X27297153Y-35242701D01*
X27296468Y-35240618D01*
X27182016Y-34826806D01*
X27181544Y-34824720D01*
X27181067Y-34823022D01*
X27181067Y-34823017D01*
X27174514Y-34799682D01*
X27168082Y-34776425D01*
X27168081Y-34776423D01*
X27167605Y-34774701D01*
X27166926Y-34772658D01*
X27081535Y-34468564D01*
X27050888Y-34359426D01*
X27050421Y-34357392D01*
X27043339Y-34332536D01*
X27036267Y-34307353D01*
X27035596Y-34305361D01*
X26918015Y-33892678D01*
X26917544Y-33890671D01*
X26910271Y-33865501D01*
X26909941Y-33864344D01*
X26903683Y-33842377D01*
X26903185Y-33840629D01*
X26902527Y-33838698D01*
X26901110Y-33833793D01*
X26783439Y-33426541D01*
X26782981Y-33424620D01*
X26775721Y-33399829D01*
X26772211Y-33387682D01*
X26768933Y-33376338D01*
X26768931Y-33376334D01*
X26768412Y-33374538D01*
X26767761Y-33372654D01*
X26647261Y-32961194D01*
X26646809Y-32959323D01*
X26646263Y-32957483D01*
X26646263Y-32957480D01*
X26639356Y-32934201D01*
X26632559Y-32910990D01*
X26632558Y-32910989D01*
X26632026Y-32909170D01*
X26631387Y-32907340D01*
X26544035Y-32612909D01*
X26509496Y-32496493D01*
X26509052Y-32494678D01*
X26501578Y-32469804D01*
X26501578Y-32469803D01*
X26494624Y-32446361D01*
X26494621Y-32446355D01*
X26494073Y-32444508D01*
X26493444Y-32442726D01*
X26370219Y-32032528D01*
X26369783Y-32030776D01*
X26362227Y-32005925D01*
X26354626Y-31980622D01*
X26354006Y-31978885D01*
X26229516Y-31569414D01*
X26229083Y-31567700D01*
X26228495Y-31565789D01*
X26228495Y-31565786D01*
X26224912Y-31554139D01*
X26221378Y-31542646D01*
X26213722Y-31517465D01*
X26213118Y-31515791D01*
X26087411Y-31107065D01*
X26086981Y-31105384D01*
X26079160Y-31080233D01*
X26071438Y-31055124D01*
X26070843Y-31053490D01*
X26064332Y-31032553D01*
X25943967Y-30645509D01*
X25943549Y-30643897D01*
X25942937Y-30641951D01*
X25942937Y-30641948D01*
X25935660Y-30618799D01*
X25928438Y-30595573D01*
X25928437Y-30595572D01*
X25927834Y-30593631D01*
X25927255Y-30592058D01*
X25799271Y-30184874D01*
X25798854Y-30183284D01*
X25790829Y-30158012D01*
X25788855Y-30151734D01*
X25783578Y-30134943D01*
X25783575Y-30134938D01*
X25782953Y-30132958D01*
X25782392Y-30131444D01*
X25653342Y-29725047D01*
X25652934Y-29723513D01*
X25652297Y-29721526D01*
X25644857Y-29698326D01*
X25637511Y-29675192D01*
X25636871Y-29673176D01*
X25636318Y-29671701D01*
X25506271Y-29266170D01*
X25505877Y-29264703D01*
X25505218Y-29262668D01*
X25505218Y-29262665D01*
X25497689Y-29239407D01*
X25490295Y-29216350D01*
X25489646Y-29214325D01*
X25489110Y-29212904D01*
X25358128Y-28808285D01*
X25357886Y-28807390D01*
X25349599Y-28781938D01*
X25341225Y-28756070D01*
X25340887Y-28755179D01*
X25320641Y-28692995D01*
X25320545Y-28692640D01*
X25311928Y-28666233D01*
X25303488Y-28640311D01*
X25303358Y-28639970D01*
X25282956Y-28577446D01*
X25282862Y-28577098D01*
X25274327Y-28550996D01*
X25265806Y-28524883D01*
X25265674Y-28524541D01*
X25245122Y-28461693D01*
X25245026Y-28461341D01*
X25236634Y-28435736D01*
X25227949Y-28409180D01*
X25227818Y-28408840D01*
X25207137Y-28345738D01*
X25207047Y-28345406D01*
X25206131Y-28342618D01*
X25206131Y-28342614D01*
X25198341Y-28318897D01*
X25190797Y-28295878D01*
X25190795Y-28295875D01*
X25189893Y-28293122D01*
X25189770Y-28292803D01*
X25168988Y-28229531D01*
X25168898Y-28229199D01*
X25167988Y-28226435D01*
X25167988Y-28226432D01*
X25160154Y-28202631D01*
X25160154Y-28202630D01*
X25151756Y-28177060D01*
X25151627Y-28176726D01*
X25130679Y-28113083D01*
X25130592Y-28112763D01*
X25122049Y-28086863D01*
X25114611Y-28064265D01*
X25114311Y-28063353D01*
X25114309Y-28063350D01*
X25113452Y-28060745D01*
X25113329Y-28060426D01*
X25092292Y-27996643D01*
X25092203Y-27996319D01*
X25083792Y-27970872D01*
X25074982Y-27944163D01*
X25074846Y-27943810D01*
X25053765Y-27880032D01*
X25053674Y-27879699D01*
X25052767Y-27876961D01*
X25052767Y-27876959D01*
X25044788Y-27852871D01*
X25037314Y-27830257D01*
X25037313Y-27830255D01*
X25036403Y-27827502D01*
X25036284Y-27827198D01*
X25015146Y-27763376D01*
X25015054Y-27763045D01*
X25006445Y-27737107D01*
X24997794Y-27710987D01*
X24997668Y-27710661D01*
X24976382Y-27646529D01*
X24976298Y-27646223D01*
X24975401Y-27643526D01*
X24975401Y-27643524D01*
X24967665Y-27620264D01*
X24959890Y-27596837D01*
X24959889Y-27596836D01*
X24959018Y-27594210D01*
X24958893Y-27593886D01*
X24937589Y-27529830D01*
X24937502Y-27529516D01*
X24936585Y-27526765D01*
X24936585Y-27526761D01*
X24928834Y-27503504D01*
X24921046Y-27480085D01*
X24921044Y-27480082D01*
X24920187Y-27477504D01*
X24920063Y-27477185D01*
X24898702Y-27413086D01*
X24898612Y-27412766D01*
X24897694Y-27410017D01*
X24897694Y-27410015D01*
X24890021Y-27387037D01*
X24882126Y-27363346D01*
X24882124Y-27363342D01*
X24881179Y-27360507D01*
X24881058Y-27360197D01*
X24859788Y-27296501D01*
X24859693Y-27296159D01*
X24850698Y-27269275D01*
X24842281Y-27244068D01*
X24842159Y-27243755D01*
X24820739Y-27179737D01*
X24820653Y-27179431D01*
X24819733Y-27176687D01*
X24819733Y-27176685D01*
X24811905Y-27153338D01*
X24803185Y-27127272D01*
X24803061Y-27126959D01*
X24781717Y-27063293D01*
X24781626Y-27062968D01*
X24780378Y-27059254D01*
X24772925Y-27037068D01*
X24765032Y-27013523D01*
X24765031Y-27013521D01*
X24764163Y-27010932D01*
X24764041Y-27010621D01*
X24742597Y-26946789D01*
X24742510Y-26946477D01*
X24733688Y-26920267D01*
X24725038Y-26894518D01*
X24724916Y-26894208D01*
X24703494Y-26830569D01*
X24703410Y-26830265D01*
X24702501Y-26827570D01*
X24702501Y-26827568D01*
X24694613Y-26804181D01*
X24686792Y-26780945D01*
X24686789Y-26780941D01*
X24685890Y-26778268D01*
X24685769Y-26777960D01*
X24670859Y-26733753D01*
X24664434Y-26714702D01*
X24664342Y-26714376D01*
X24660848Y-26704038D01*
X24655597Y-26688499D01*
X24647653Y-26664944D01*
X24647652Y-26664942D01*
X24646762Y-26662303D01*
X24646635Y-26661980D01*
X24625347Y-26598987D01*
X24625258Y-26598672D01*
X24624278Y-26595778D01*
X24624278Y-26595776D01*
X24616265Y-26572113D01*
X24616265Y-26572112D01*
X24607573Y-26546390D01*
X24607447Y-26546072D01*
X24586143Y-26483157D01*
X24586051Y-26482831D01*
X24577033Y-26456251D01*
X24568452Y-26430909D01*
X24568331Y-26430602D01*
X24547148Y-26368170D01*
X24547058Y-26367852D01*
X24546102Y-26365040D01*
X24546102Y-26365038D01*
X24538236Y-26341900D01*
X24530282Y-26318456D01*
X24530280Y-26318453D01*
X24529368Y-26315764D01*
X24529247Y-26315461D01*
X24508129Y-26253340D01*
X24508036Y-26253014D01*
X24507058Y-26250142D01*
X24499200Y-26227074D01*
X24491210Y-26203570D01*
X24491208Y-26203567D01*
X24490277Y-26200827D01*
X24490149Y-26200503D01*
X24469072Y-26138625D01*
X24468976Y-26138292D01*
X24460276Y-26112801D01*
X24451248Y-26086300D01*
X24451116Y-26085969D01*
X24430115Y-26024437D01*
X24430023Y-26024120D01*
X24423810Y-26005955D01*
X24421227Y-25998401D01*
X24413206Y-25974900D01*
X24413203Y-25974895D01*
X24412299Y-25972246D01*
X24412179Y-25971944D01*
X24391291Y-25910869D01*
X24391193Y-25910528D01*
X24390232Y-25907724D01*
X24390232Y-25907722D01*
X24382153Y-25884148D01*
X24374299Y-25861183D01*
X24374297Y-25861180D01*
X24373401Y-25858559D01*
X24373273Y-25858238D01*
X24352472Y-25797544D01*
X24352375Y-25797203D01*
X24343166Y-25770389D01*
X24343166Y-25770388D01*
X24335464Y-25747912D01*
X24335461Y-25747907D01*
X24334538Y-25745213D01*
X24334415Y-25744904D01*
X24327602Y-25725063D01*
X24313697Y-25684571D01*
X24313609Y-25684263D01*
X24312709Y-25681648D01*
X24312709Y-25681646D01*
X24304999Y-25659242D01*
X24296719Y-25635127D01*
X24296716Y-25635123D01*
X24295792Y-25632430D01*
X24295656Y-25632088D01*
X24275100Y-25572347D01*
X24274998Y-25571997D01*
X24265969Y-25545809D01*
X24259082Y-25525797D01*
X24258070Y-25522855D01*
X24258068Y-25522852D01*
X24257121Y-25520099D01*
X24256993Y-25519779D01*
X24236650Y-25460781D01*
X24236558Y-25460463D01*
X24234449Y-25454360D01*
X24227692Y-25434802D01*
X24219528Y-25411126D01*
X24219526Y-25411124D01*
X24218604Y-25408448D01*
X24218471Y-25408117D01*
X24198178Y-25349387D01*
X24198083Y-25349058D01*
X24197184Y-25346462D01*
X24197184Y-25346459D01*
X24189113Y-25323150D01*
X24181106Y-25299976D01*
X24180178Y-25297290D01*
X24180040Y-25296949D01*
X24179702Y-25295973D01*
X24159993Y-25239050D01*
X24159894Y-25238709D01*
X24151170Y-25213567D01*
X24141861Y-25186683D01*
X24141712Y-25186313D01*
X24121842Y-25129047D01*
X24121702Y-25128566D01*
X24112603Y-25102419D01*
X24111416Y-25098999D01*
X24104661Y-25079529D01*
X24104659Y-25079526D01*
X24103762Y-25076940D01*
X24103580Y-25076487D01*
X24063383Y-24960971D01*
X24063209Y-24960381D01*
X24062310Y-24957808D01*
X24062310Y-24957804D01*
X24054224Y-24934650D01*
X24046157Y-24911466D01*
X24045291Y-24908976D01*
X24045055Y-24908393D01*
X24004362Y-24791865D01*
X24004186Y-24791269D01*
X24003280Y-24788684D01*
X24003280Y-24788682D01*
X23995192Y-24765604D01*
X23987078Y-24742369D01*
X23987076Y-24742366D01*
X23986191Y-24739831D01*
X23985956Y-24739252D01*
X23944774Y-24621745D01*
X23944587Y-24621116D01*
X23941170Y-24611403D01*
X23935557Y-24595447D01*
X23927467Y-24572363D01*
X23927466Y-24572361D01*
X23926588Y-24569856D01*
X23926341Y-24569250D01*
X23884716Y-24450927D01*
X23884528Y-24450292D01*
X23875448Y-24424578D01*
X23866456Y-24399016D01*
X23866199Y-24398389D01*
X23863237Y-24390000D01*
X29574341Y-24390000D01*
X29594936Y-24625403D01*
X29594938Y-24625413D01*
X29656094Y-24853655D01*
X29656096Y-24853659D01*
X29656097Y-24853663D01*
X29670070Y-24883628D01*
X29755964Y-25067828D01*
X29755965Y-25067830D01*
X29891505Y-25261402D01*
X30058597Y-25428494D01*
X30252169Y-25564034D01*
X30252171Y-25564035D01*
X30466337Y-25663903D01*
X30694592Y-25725063D01*
X30871034Y-25740500D01*
X30988966Y-25740500D01*
X31165408Y-25725063D01*
X31393663Y-25663903D01*
X31607829Y-25564035D01*
X31801401Y-25428495D01*
X31968495Y-25261401D01*
X32104035Y-25067830D01*
X32203903Y-24853663D01*
X32265063Y-24625408D01*
X32285659Y-24390000D01*
X32265063Y-24154592D01*
X32216908Y-23974872D01*
X32203905Y-23926344D01*
X32203904Y-23926343D01*
X32203903Y-23926337D01*
X32104035Y-23712171D01*
X32104034Y-23712169D01*
X31968494Y-23518597D01*
X31801402Y-23351505D01*
X31607830Y-23215965D01*
X31607828Y-23215964D01*
X31500745Y-23166030D01*
X31393663Y-23116097D01*
X31393659Y-23116096D01*
X31393655Y-23116094D01*
X31165413Y-23054938D01*
X31165403Y-23054936D01*
X30988966Y-23039500D01*
X30871034Y-23039500D01*
X30694596Y-23054936D01*
X30694586Y-23054938D01*
X30466344Y-23116094D01*
X30466335Y-23116098D01*
X30252171Y-23215964D01*
X30252169Y-23215965D01*
X30058597Y-23351505D01*
X29891506Y-23518597D01*
X29891501Y-23518604D01*
X29755967Y-23712165D01*
X29755965Y-23712169D01*
X29656098Y-23926335D01*
X29656094Y-23926344D01*
X29594938Y-24154586D01*
X29594936Y-24154596D01*
X29574341Y-24389999D01*
X29574341Y-24390000D01*
X23863237Y-24390000D01*
X23824146Y-24279300D01*
X23823954Y-24278654D01*
X23814828Y-24252909D01*
X23805845Y-24227471D01*
X23805582Y-24226832D01*
X23763110Y-24107027D01*
X23762912Y-24106365D01*
X23753806Y-24080781D01*
X23753806Y-24080780D01*
X23745639Y-24057743D01*
X23745636Y-24057739D01*
X23744768Y-24055289D01*
X23744503Y-24054646D01*
X23701671Y-23934303D01*
X23701464Y-23933620D01*
X23700573Y-23931128D01*
X23700573Y-23931124D01*
X23692235Y-23907796D01*
X23684104Y-23884950D01*
X23684101Y-23884945D01*
X23683216Y-23882458D01*
X23682941Y-23881793D01*
X23639760Y-23760972D01*
X23639549Y-23760273D01*
X23630407Y-23734802D01*
X23622319Y-23712170D01*
X23622141Y-23711672D01*
X23622140Y-23711671D01*
X23621266Y-23709224D01*
X23620973Y-23708516D01*
X23577457Y-23587266D01*
X23577234Y-23586534D01*
X23568047Y-23561048D01*
X23568047Y-23561047D01*
X23559773Y-23537993D01*
X23559771Y-23537990D01*
X23558905Y-23535576D01*
X23558609Y-23534866D01*
X23514755Y-23413207D01*
X23514528Y-23412462D01*
X23507069Y-23391861D01*
X23505206Y-23386714D01*
X23497017Y-23363997D01*
X23497016Y-23363995D01*
X23496136Y-23361554D01*
X23495835Y-23360834D01*
X23451736Y-23239038D01*
X23451500Y-23238270D01*
X23450608Y-23235819D01*
X23450608Y-23235815D01*
X23442258Y-23212859D01*
X23439384Y-23204923D01*
X23433043Y-23187405D01*
X23432722Y-23186642D01*
X23388327Y-23064582D01*
X23388078Y-23063776D01*
X23378738Y-23038219D01*
X23369593Y-23013075D01*
X23369269Y-23012306D01*
X23324624Y-22890137D01*
X23324370Y-22889317D01*
X23323494Y-22886932D01*
X23323494Y-22886930D01*
X23314959Y-22863688D01*
X23306654Y-22840959D01*
X23306653Y-22840958D01*
X23305785Y-22838581D01*
X23305448Y-22837784D01*
X23260597Y-22715638D01*
X23260336Y-22714802D01*
X23259479Y-22712481D01*
X23259479Y-22712477D01*
X23253481Y-22696225D01*
X23250897Y-22689220D01*
X23241729Y-22664251D01*
X23241386Y-22663445D01*
X23196346Y-22541387D01*
X23196072Y-22540515D01*
X23186709Y-22515273D01*
X23186709Y-22515272D01*
X23178208Y-22492232D01*
X23178206Y-22492229D01*
X23177355Y-22489922D01*
X23176988Y-22489060D01*
X23174154Y-22481420D01*
X23131793Y-22367203D01*
X23131508Y-22366301D01*
X23122091Y-22341041D01*
X23112732Y-22315809D01*
X23112359Y-22314942D01*
X23067017Y-22193327D01*
X23066724Y-22192404D01*
X23065851Y-22190074D01*
X23057311Y-22167291D01*
X23048726Y-22144264D01*
X23047865Y-22141954D01*
X23047473Y-22141044D01*
X23002033Y-22019818D01*
X23001727Y-22018864D01*
X23000853Y-22016546D01*
X23000853Y-22016543D01*
X22992275Y-21993784D01*
X22983651Y-21970777D01*
X22983650Y-21970775D01*
X22982784Y-21968465D01*
X22982381Y-21967536D01*
X22936837Y-21846702D01*
X22936518Y-21845710D01*
X22935662Y-21843452D01*
X22926941Y-21820446D01*
X22918380Y-21797732D01*
X22918377Y-21797727D01*
X22917521Y-21795456D01*
X22917112Y-21794515D01*
X22908706Y-21772341D01*
X22871477Y-21674127D01*
X22871145Y-21673106D01*
X22870299Y-21670888D01*
X22870299Y-21670885D01*
X22861554Y-21647950D01*
X22852936Y-21625215D01*
X22852934Y-21625213D01*
X22852096Y-21623000D01*
X22851662Y-21622008D01*
X22834606Y-21577276D01*
X22805980Y-21502201D01*
X22805639Y-21501154D01*
X22796092Y-21476266D01*
X22792781Y-21467583D01*
X22787338Y-21453307D01*
X22787335Y-21453302D01*
X22786495Y-21451099D01*
X22786044Y-21450074D01*
X22740342Y-21330935D01*
X22739980Y-21329833D01*
X22730316Y-21304796D01*
X22720760Y-21279887D01*
X22720288Y-21278821D01*
X22674600Y-21160460D01*
X22674232Y-21159347D01*
X22664685Y-21134769D01*
X22654936Y-21109516D01*
X22654439Y-21108399D01*
X22608770Y-20990844D01*
X22608375Y-20989663D01*
X22607549Y-20987552D01*
X22607549Y-20987549D01*
X22598611Y-20964694D01*
X22589831Y-20942094D01*
X22588987Y-20939921D01*
X22588477Y-20938782D01*
X22544039Y-20825151D01*
X22542893Y-20822223D01*
X22542479Y-20820991D01*
X22532680Y-20796103D01*
X22523009Y-20771376D01*
X22522479Y-20770200D01*
X22476938Y-20654542D01*
X22476513Y-20653288D01*
X22466700Y-20628539D01*
X22456961Y-20603808D01*
X22456404Y-20602579D01*
X22410988Y-20488053D01*
X22410533Y-20486723D01*
X22400578Y-20461801D01*
X22391697Y-20439407D01*
X22391694Y-20439403D01*
X22390866Y-20437314D01*
X22390300Y-20436072D01*
X22345017Y-20322711D01*
X22344545Y-20321345D01*
X22343115Y-20317793D01*
X22334660Y-20296786D01*
X22332357Y-20291020D01*
X22324801Y-20272103D01*
X22324190Y-20270774D01*
X22319589Y-20259343D01*
X22279062Y-20158653D01*
X22278565Y-20157222D01*
X22268522Y-20132465D01*
X22258727Y-20108128D01*
X22258101Y-20106775D01*
X22237309Y-20055519D01*
X22213156Y-19995977D01*
X22212641Y-19994508D01*
X22202642Y-19970058D01*
X22192712Y-19945578D01*
X22192046Y-19944148D01*
X22147320Y-19834779D01*
X22146775Y-19833240D01*
X22136743Y-19808913D01*
X22126733Y-19784436D01*
X22126041Y-19782961D01*
X22081541Y-19675055D01*
X22080989Y-19673507D01*
X22070946Y-19649359D01*
X22066383Y-19638296D01*
X22061595Y-19626685D01*
X22061593Y-19626682D01*
X22060819Y-19624805D01*
X22060109Y-19623304D01*
X22018520Y-19523309D01*
X22017962Y-19521763D01*
X22017154Y-19519836D01*
X22007711Y-19497320D01*
X21998420Y-19474979D01*
X21998419Y-19474977D01*
X21997620Y-19473056D01*
X21996923Y-19471596D01*
X21994767Y-19466455D01*
X21955108Y-19371884D01*
X21954568Y-19370400D01*
X21953742Y-19368446D01*
X21953741Y-19368440D01*
X21947753Y-19354277D01*
X21944253Y-19345996D01*
X21934074Y-19321723D01*
X21933380Y-19320279D01*
X21898352Y-19237425D01*
X27099500Y-19237425D01*
X27114472Y-19394218D01*
X27173684Y-19595875D01*
X27254523Y-19752682D01*
X27269991Y-19782686D01*
X27399905Y-19947883D01*
X27399909Y-19947887D01*
X27558746Y-20085521D01*
X27740750Y-20190601D01*
X27740752Y-20190601D01*
X27740756Y-20190604D01*
X27939367Y-20259344D01*
X28147398Y-20289254D01*
X28357330Y-20279254D01*
X28561576Y-20229704D01*
X28678028Y-20176522D01*
X28752743Y-20142401D01*
X28752746Y-20142399D01*
X28752753Y-20142396D01*
X28923952Y-20020486D01*
X28928702Y-20015505D01*
X29068985Y-19868379D01*
X29072841Y-19862379D01*
X29091805Y-19832870D01*
X29599500Y-19832870D01*
X29599501Y-19832876D01*
X29605908Y-19892483D01*
X29656202Y-20027328D01*
X29656206Y-20027335D01*
X29742452Y-20142544D01*
X29742455Y-20142547D01*
X29857664Y-20228793D01*
X29857671Y-20228797D01*
X29992517Y-20279091D01*
X29992516Y-20279091D01*
X29999444Y-20279835D01*
X30052127Y-20285500D01*
X31347872Y-20285499D01*
X31407483Y-20279091D01*
X31542331Y-20228796D01*
X31657546Y-20142546D01*
X31743796Y-20027331D01*
X31794091Y-19892483D01*
X31800500Y-19832873D01*
X31800499Y-18237128D01*
X31794091Y-18177517D01*
X31791789Y-18171346D01*
X31743797Y-18042671D01*
X31743793Y-18042664D01*
X31657547Y-17927455D01*
X31657544Y-17927452D01*
X31542335Y-17841206D01*
X31542328Y-17841202D01*
X31407482Y-17790908D01*
X31407483Y-17790908D01*
X31347883Y-17784501D01*
X31347881Y-17784500D01*
X31347873Y-17784500D01*
X31347864Y-17784500D01*
X30052129Y-17784500D01*
X30052123Y-17784501D01*
X29992516Y-17790908D01*
X29857671Y-17841202D01*
X29857664Y-17841206D01*
X29742455Y-17927452D01*
X29742452Y-17927455D01*
X29656206Y-18042664D01*
X29656202Y-18042671D01*
X29605908Y-18177517D01*
X29603317Y-18201622D01*
X29599501Y-18237123D01*
X29599500Y-18237135D01*
X29599500Y-19832870D01*
X29091805Y-19832870D01*
X29182613Y-19691572D01*
X29260725Y-19496457D01*
X29300500Y-19290085D01*
X29300500Y-18832575D01*
X29285528Y-18675782D01*
X29226316Y-18474125D01*
X29130011Y-18287318D01*
X29130009Y-18287316D01*
X29130008Y-18287313D01*
X29000094Y-18122116D01*
X29000090Y-18122112D01*
X28841253Y-17984478D01*
X28659249Y-17879398D01*
X28659245Y-17879396D01*
X28659244Y-17879396D01*
X28460633Y-17810656D01*
X28252602Y-17780746D01*
X28252598Y-17780746D01*
X28042672Y-17790745D01*
X27838421Y-17840296D01*
X27838417Y-17840298D01*
X27647256Y-17927598D01*
X27647251Y-17927601D01*
X27476046Y-18049515D01*
X27476040Y-18049520D01*
X27331014Y-18201620D01*
X27217388Y-18378425D01*
X27139274Y-18573544D01*
X27106473Y-18743734D01*
X27099500Y-18779915D01*
X27099500Y-19237425D01*
X21898352Y-19237425D01*
X21891325Y-19220803D01*
X21890792Y-19219347D01*
X21880513Y-19195226D01*
X21870142Y-19170694D01*
X21869451Y-19169265D01*
X21827162Y-19070021D01*
X21826627Y-19068575D01*
X21816134Y-19044140D01*
X21805828Y-19019954D01*
X21805154Y-19018572D01*
X21762659Y-18919606D01*
X21762131Y-18918194D01*
X21756423Y-18905000D01*
X21751585Y-18893817D01*
X21742009Y-18871516D01*
X21742006Y-18871512D01*
X21741148Y-18869513D01*
X21740491Y-18868174D01*
X21697781Y-18769453D01*
X21697260Y-18768068D01*
X21686656Y-18743734D01*
X21676148Y-18719447D01*
X21675495Y-18718126D01*
X21632508Y-18619485D01*
X21632003Y-18618154D01*
X21621370Y-18593927D01*
X21610761Y-18569584D01*
X21610116Y-18568287D01*
X21566944Y-18469923D01*
X21566444Y-18468619D01*
X21565538Y-18466570D01*
X21565538Y-18466567D01*
X21555677Y-18444256D01*
X21545905Y-18421991D01*
X21545026Y-18419988D01*
X21544391Y-18418719D01*
X21500983Y-18320502D01*
X21500484Y-18319211D01*
X21499584Y-18317188D01*
X21489754Y-18295097D01*
X21479833Y-18272648D01*
X21479830Y-18272644D01*
X21478946Y-18270643D01*
X21478314Y-18269385D01*
X21434688Y-18171340D01*
X21434196Y-18170070D01*
X21423212Y-18145548D01*
X21421684Y-18142114D01*
X21413416Y-18123530D01*
X21413415Y-18123529D01*
X21412505Y-18121483D01*
X21411897Y-18120285D01*
X21368036Y-18022352D01*
X21367557Y-18021129D01*
X21356687Y-17997012D01*
X21345748Y-17972588D01*
X21345145Y-17971405D01*
X21301051Y-17873578D01*
X21300578Y-17872377D01*
X21299653Y-17870337D01*
X21289519Y-17847992D01*
X21279562Y-17825901D01*
X21279561Y-17825899D01*
X21278617Y-17823805D01*
X21278029Y-17822657D01*
X21251257Y-17763627D01*
X21233744Y-17725012D01*
X21233294Y-17723873D01*
X21222295Y-17699766D01*
X21211191Y-17675280D01*
X21210606Y-17674147D01*
X21166094Y-17576584D01*
X21165642Y-17575453D01*
X21164676Y-17573349D01*
X21164676Y-17573346D01*
X21158540Y-17559975D01*
X21154537Y-17551252D01*
X21143403Y-17526849D01*
X21142838Y-17525759D01*
X21114921Y-17464926D01*
X21098112Y-17428296D01*
X21097674Y-17427203D01*
X21086480Y-17402947D01*
X21075312Y-17378610D01*
X21074762Y-17377556D01*
X21029800Y-17280125D01*
X21029366Y-17279052D01*
X21018093Y-17254759D01*
X21018093Y-17254758D01*
X21007878Y-17232621D01*
X21007874Y-17232615D01*
X21006902Y-17230509D01*
X21006375Y-17229503D01*
X20961166Y-17132071D01*
X20960752Y-17131050D01*
X20959753Y-17128908D01*
X20949323Y-17106546D01*
X20939149Y-17084620D01*
X20938139Y-17082443D01*
X20937620Y-17081460D01*
X20892226Y-16984136D01*
X20891816Y-16983135D01*
X20890805Y-16980979D01*
X20890805Y-16980977D01*
X20885341Y-16969323D01*
X20880426Y-16958837D01*
X20874033Y-16945133D01*
X20870108Y-16936717D01*
X20870105Y-16936713D01*
X20869099Y-16934556D01*
X20868600Y-16933613D01*
X20822985Y-16836314D01*
X20822590Y-16835353D01*
X20821543Y-16833132D01*
X20821543Y-16833129D01*
X20811177Y-16811126D01*
X20800754Y-16788892D01*
X20800751Y-16788889D01*
X20799727Y-16786703D01*
X20799235Y-16785778D01*
X20788648Y-16763305D01*
X20753393Y-16688467D01*
X20753011Y-16687543D01*
X20751972Y-16685348D01*
X20751971Y-16685343D01*
X20741475Y-16663168D01*
X20736786Y-16653216D01*
X20730056Y-16638927D01*
X20729570Y-16638017D01*
X20698443Y-16572254D01*
X20683522Y-16540730D01*
X20683150Y-16539835D01*
X20682092Y-16537611D01*
X20682092Y-16537608D01*
X20675969Y-16524731D01*
X20671599Y-16515538D01*
X20660056Y-16491152D01*
X20659592Y-16490289D01*
X20613344Y-16393019D01*
X20612991Y-16392172D01*
X20611910Y-16389909D01*
X20611910Y-16389907D01*
X20601488Y-16368082D01*
X20590864Y-16345738D01*
X20590863Y-16345736D01*
X20589800Y-16343501D01*
X20589353Y-16342672D01*
X20542857Y-16245305D01*
X20542510Y-16244476D01*
X20541429Y-16242223D01*
X20541429Y-16242220D01*
X20530801Y-16220058D01*
X20520303Y-16198073D01*
X20520301Y-16198070D01*
X20519228Y-16195823D01*
X20518805Y-16195039D01*
X20472101Y-16097648D01*
X20471765Y-16096849D01*
X20460029Y-16072472D01*
X20448355Y-16048128D01*
X20447942Y-16047368D01*
X20401001Y-15949865D01*
X20400686Y-15949121D01*
X20399586Y-15946845D01*
X20399585Y-15946840D01*
X20388898Y-15924728D01*
X20386348Y-15919432D01*
X20377237Y-15900506D01*
X20376838Y-15899773D01*
X20329662Y-15802157D01*
X20329364Y-15801455D01*
X20328230Y-15799118D01*
X20328229Y-15799112D01*
X20317749Y-15777505D01*
X20306880Y-15755015D01*
X20306878Y-15755012D01*
X20305778Y-15752736D01*
X20305391Y-15752028D01*
X20258010Y-15654341D01*
X20257715Y-15653647D01*
X20245995Y-15629568D01*
X20234038Y-15604917D01*
X20233667Y-15604239D01*
X20186100Y-15506509D01*
X20185816Y-15505847D01*
X20183386Y-15500871D01*
X20179653Y-15493226D01*
X20173795Y-15481228D01*
X20162062Y-15457124D01*
X20161721Y-15456505D01*
X20148244Y-15428906D01*
X20136518Y-15360031D01*
X20163891Y-15295746D01*
X20221673Y-15256465D01*
X20259671Y-15250500D01*
X51947409Y-15250500D01*
X52014448Y-15270185D01*
G37*
%TD.AperFunction*%
M02*
