%TF.GenerationSoftware,KiCad,Pcbnew,7.0.5*%
%TF.CreationDate,2023-06-18T14:47:58+02:00*%
%TF.ProjectId,LH_RKJXM1015004_FacePlateTilted,4c485f52-4b4a-4584-9d31-303135303034,rev?*%
%TF.SameCoordinates,Original*%
%TF.FileFunction,Legend,Top*%
%TF.FilePolarity,Positive*%
%FSLAX46Y46*%
G04 Gerber Fmt 4.6, Leading zero omitted, Abs format (unit mm)*
G04 Created by KiCad (PCBNEW 7.0.5) date 2023-06-18 14:47:58*
%MOMM*%
%LPD*%
G01*
G04 APERTURE LIST*
%ADD10C,0.100000*%
%ADD11C,2.200000*%
%ADD12C,1.100000*%
%ADD13C,1.600000*%
G04 APERTURE END LIST*
D10*
X50607142Y-53178490D02*
X50583333Y-53202300D01*
X50583333Y-53202300D02*
X50511904Y-53226109D01*
X50511904Y-53226109D02*
X50464285Y-53226109D01*
X50464285Y-53226109D02*
X50392857Y-53202300D01*
X50392857Y-53202300D02*
X50345238Y-53154680D01*
X50345238Y-53154680D02*
X50321428Y-53107061D01*
X50321428Y-53107061D02*
X50297619Y-53011823D01*
X50297619Y-53011823D02*
X50297619Y-52940395D01*
X50297619Y-52940395D02*
X50321428Y-52845157D01*
X50321428Y-52845157D02*
X50345238Y-52797538D01*
X50345238Y-52797538D02*
X50392857Y-52749919D01*
X50392857Y-52749919D02*
X50464285Y-52726109D01*
X50464285Y-52726109D02*
X50511904Y-52726109D01*
X50511904Y-52726109D02*
X50583333Y-52749919D01*
X50583333Y-52749919D02*
X50607142Y-52773728D01*
X50916666Y-52726109D02*
X51011904Y-52726109D01*
X51011904Y-52726109D02*
X51059523Y-52749919D01*
X51059523Y-52749919D02*
X51107142Y-52797538D01*
X51107142Y-52797538D02*
X51130952Y-52892776D01*
X51130952Y-52892776D02*
X51130952Y-53059442D01*
X51130952Y-53059442D02*
X51107142Y-53154680D01*
X51107142Y-53154680D02*
X51059523Y-53202300D01*
X51059523Y-53202300D02*
X51011904Y-53226109D01*
X51011904Y-53226109D02*
X50916666Y-53226109D01*
X50916666Y-53226109D02*
X50869047Y-53202300D01*
X50869047Y-53202300D02*
X50821428Y-53154680D01*
X50821428Y-53154680D02*
X50797619Y-53059442D01*
X50797619Y-53059442D02*
X50797619Y-52892776D01*
X50797619Y-52892776D02*
X50821428Y-52797538D01*
X50821428Y-52797538D02*
X50869047Y-52749919D01*
X50869047Y-52749919D02*
X50916666Y-52726109D01*
X51345238Y-53226109D02*
X51345238Y-52726109D01*
X51345238Y-52726109D02*
X51511905Y-53083252D01*
X51511905Y-53083252D02*
X51678571Y-52726109D01*
X51678571Y-52726109D02*
X51678571Y-53226109D01*
X48335714Y-55964204D02*
X48407142Y-55988014D01*
X48407142Y-55988014D02*
X48430952Y-56011823D01*
X48430952Y-56011823D02*
X48454761Y-56059442D01*
X48454761Y-56059442D02*
X48454761Y-56130871D01*
X48454761Y-56130871D02*
X48430952Y-56178490D01*
X48430952Y-56178490D02*
X48407142Y-56202300D01*
X48407142Y-56202300D02*
X48359523Y-56226109D01*
X48359523Y-56226109D02*
X48169047Y-56226109D01*
X48169047Y-56226109D02*
X48169047Y-55726109D01*
X48169047Y-55726109D02*
X48335714Y-55726109D01*
X48335714Y-55726109D02*
X48383333Y-55749919D01*
X48383333Y-55749919D02*
X48407142Y-55773728D01*
X48407142Y-55773728D02*
X48430952Y-55821347D01*
X48430952Y-55821347D02*
X48430952Y-55868966D01*
X48430952Y-55868966D02*
X48407142Y-55916585D01*
X48407142Y-55916585D02*
X48383333Y-55940395D01*
X48383333Y-55940395D02*
X48335714Y-55964204D01*
X48335714Y-55964204D02*
X48169047Y-55964204D01*
X47707142Y-58226109D02*
X47707142Y-57726109D01*
X47707142Y-57726109D02*
X47897618Y-57726109D01*
X47897618Y-57726109D02*
X47945237Y-57749919D01*
X47945237Y-57749919D02*
X47969047Y-57773728D01*
X47969047Y-57773728D02*
X47992856Y-57821347D01*
X47992856Y-57821347D02*
X47992856Y-57892776D01*
X47992856Y-57892776D02*
X47969047Y-57940395D01*
X47969047Y-57940395D02*
X47945237Y-57964204D01*
X47945237Y-57964204D02*
X47897618Y-57988014D01*
X47897618Y-57988014D02*
X47707142Y-57988014D01*
X48207142Y-57726109D02*
X48207142Y-58130871D01*
X48207142Y-58130871D02*
X48230952Y-58178490D01*
X48230952Y-58178490D02*
X48254761Y-58202300D01*
X48254761Y-58202300D02*
X48302380Y-58226109D01*
X48302380Y-58226109D02*
X48397618Y-58226109D01*
X48397618Y-58226109D02*
X48445237Y-58202300D01*
X48445237Y-58202300D02*
X48469047Y-58178490D01*
X48469047Y-58178490D02*
X48492856Y-58130871D01*
X48492856Y-58130871D02*
X48492856Y-57726109D01*
X48707143Y-58202300D02*
X48778571Y-58226109D01*
X48778571Y-58226109D02*
X48897619Y-58226109D01*
X48897619Y-58226109D02*
X48945238Y-58202300D01*
X48945238Y-58202300D02*
X48969047Y-58178490D01*
X48969047Y-58178490D02*
X48992857Y-58130871D01*
X48992857Y-58130871D02*
X48992857Y-58083252D01*
X48992857Y-58083252D02*
X48969047Y-58035633D01*
X48969047Y-58035633D02*
X48945238Y-58011823D01*
X48945238Y-58011823D02*
X48897619Y-57988014D01*
X48897619Y-57988014D02*
X48802381Y-57964204D01*
X48802381Y-57964204D02*
X48754762Y-57940395D01*
X48754762Y-57940395D02*
X48730952Y-57916585D01*
X48730952Y-57916585D02*
X48707143Y-57868966D01*
X48707143Y-57868966D02*
X48707143Y-57821347D01*
X48707143Y-57821347D02*
X48730952Y-57773728D01*
X48730952Y-57773728D02*
X48754762Y-57749919D01*
X48754762Y-57749919D02*
X48802381Y-57726109D01*
X48802381Y-57726109D02*
X48921428Y-57726109D01*
X48921428Y-57726109D02*
X48992857Y-57749919D01*
X49207142Y-58226109D02*
X49207142Y-57726109D01*
X49207142Y-57964204D02*
X49492856Y-57964204D01*
X49492856Y-58226109D02*
X49492856Y-57726109D01*
X54507142Y-56226109D02*
X54507142Y-55726109D01*
X54507142Y-55726109D02*
X54697618Y-55726109D01*
X54697618Y-55726109D02*
X54745237Y-55749919D01*
X54745237Y-55749919D02*
X54769047Y-55773728D01*
X54769047Y-55773728D02*
X54792856Y-55821347D01*
X54792856Y-55821347D02*
X54792856Y-55892776D01*
X54792856Y-55892776D02*
X54769047Y-55940395D01*
X54769047Y-55940395D02*
X54745237Y-55964204D01*
X54745237Y-55964204D02*
X54697618Y-55988014D01*
X54697618Y-55988014D02*
X54507142Y-55988014D01*
X55007142Y-55726109D02*
X55007142Y-56130871D01*
X55007142Y-56130871D02*
X55030952Y-56178490D01*
X55030952Y-56178490D02*
X55054761Y-56202300D01*
X55054761Y-56202300D02*
X55102380Y-56226109D01*
X55102380Y-56226109D02*
X55197618Y-56226109D01*
X55197618Y-56226109D02*
X55245237Y-56202300D01*
X55245237Y-56202300D02*
X55269047Y-56178490D01*
X55269047Y-56178490D02*
X55292856Y-56130871D01*
X55292856Y-56130871D02*
X55292856Y-55726109D01*
X55507143Y-56202300D02*
X55578571Y-56226109D01*
X55578571Y-56226109D02*
X55697619Y-56226109D01*
X55697619Y-56226109D02*
X55745238Y-56202300D01*
X55745238Y-56202300D02*
X55769047Y-56178490D01*
X55769047Y-56178490D02*
X55792857Y-56130871D01*
X55792857Y-56130871D02*
X55792857Y-56083252D01*
X55792857Y-56083252D02*
X55769047Y-56035633D01*
X55769047Y-56035633D02*
X55745238Y-56011823D01*
X55745238Y-56011823D02*
X55697619Y-55988014D01*
X55697619Y-55988014D02*
X55602381Y-55964204D01*
X55602381Y-55964204D02*
X55554762Y-55940395D01*
X55554762Y-55940395D02*
X55530952Y-55916585D01*
X55530952Y-55916585D02*
X55507143Y-55868966D01*
X55507143Y-55868966D02*
X55507143Y-55821347D01*
X55507143Y-55821347D02*
X55530952Y-55773728D01*
X55530952Y-55773728D02*
X55554762Y-55749919D01*
X55554762Y-55749919D02*
X55602381Y-55726109D01*
X55602381Y-55726109D02*
X55721428Y-55726109D01*
X55721428Y-55726109D02*
X55792857Y-55749919D01*
X56007142Y-56226109D02*
X56007142Y-55726109D01*
X56007142Y-55964204D02*
X56292856Y-55964204D01*
X56292856Y-56226109D02*
X56292856Y-55726109D01*
X50880953Y-60683252D02*
X51119048Y-60683252D01*
X50833334Y-60826109D02*
X51000000Y-60326109D01*
X51000000Y-60326109D02*
X51166667Y-60826109D01*
X55569047Y-58226109D02*
X55569047Y-57726109D01*
X55569047Y-57726109D02*
X55688095Y-57726109D01*
X55688095Y-57726109D02*
X55759523Y-57749919D01*
X55759523Y-57749919D02*
X55807142Y-57797538D01*
X55807142Y-57797538D02*
X55830952Y-57845157D01*
X55830952Y-57845157D02*
X55854761Y-57940395D01*
X55854761Y-57940395D02*
X55854761Y-58011823D01*
X55854761Y-58011823D02*
X55830952Y-58107061D01*
X55830952Y-58107061D02*
X55807142Y-58154680D01*
X55807142Y-58154680D02*
X55759523Y-58202300D01*
X55759523Y-58202300D02*
X55688095Y-58226109D01*
X55688095Y-58226109D02*
X55569047Y-58226109D01*
X53969047Y-53969919D02*
X53921428Y-53946109D01*
X53921428Y-53946109D02*
X53849999Y-53946109D01*
X53849999Y-53946109D02*
X53778571Y-53969919D01*
X53778571Y-53969919D02*
X53730952Y-54017538D01*
X53730952Y-54017538D02*
X53707142Y-54065157D01*
X53707142Y-54065157D02*
X53683333Y-54160395D01*
X53683333Y-54160395D02*
X53683333Y-54231823D01*
X53683333Y-54231823D02*
X53707142Y-54327061D01*
X53707142Y-54327061D02*
X53730952Y-54374680D01*
X53730952Y-54374680D02*
X53778571Y-54422300D01*
X53778571Y-54422300D02*
X53849999Y-54446109D01*
X53849999Y-54446109D02*
X53897618Y-54446109D01*
X53897618Y-54446109D02*
X53969047Y-54422300D01*
X53969047Y-54422300D02*
X53992856Y-54398490D01*
X53992856Y-54398490D02*
X53992856Y-54231823D01*
X53992856Y-54231823D02*
X53897618Y-54231823D01*
X54207142Y-54446109D02*
X54207142Y-53946109D01*
X54207142Y-53946109D02*
X54492856Y-54446109D01*
X54492856Y-54446109D02*
X54492856Y-53946109D01*
X54730952Y-54446109D02*
X54730952Y-53946109D01*
X54730952Y-53946109D02*
X54850000Y-53946109D01*
X54850000Y-53946109D02*
X54921428Y-53969919D01*
X54921428Y-53969919D02*
X54969047Y-54017538D01*
X54969047Y-54017538D02*
X54992857Y-54065157D01*
X54992857Y-54065157D02*
X55016666Y-54160395D01*
X55016666Y-54160395D02*
X55016666Y-54231823D01*
X55016666Y-54231823D02*
X54992857Y-54327061D01*
X54992857Y-54327061D02*
X54969047Y-54374680D01*
X54969047Y-54374680D02*
X54921428Y-54422300D01*
X54921428Y-54422300D02*
X54850000Y-54446109D01*
X54850000Y-54446109D02*
X54730952Y-54446109D01*
X52107142Y-61226109D02*
X52107142Y-60726109D01*
X52107142Y-60726109D02*
X52297618Y-60726109D01*
X52297618Y-60726109D02*
X52345237Y-60749919D01*
X52345237Y-60749919D02*
X52369047Y-60773728D01*
X52369047Y-60773728D02*
X52392856Y-60821347D01*
X52392856Y-60821347D02*
X52392856Y-60892776D01*
X52392856Y-60892776D02*
X52369047Y-60940395D01*
X52369047Y-60940395D02*
X52345237Y-60964204D01*
X52345237Y-60964204D02*
X52297618Y-60988014D01*
X52297618Y-60988014D02*
X52107142Y-60988014D01*
X52607142Y-60726109D02*
X52607142Y-61130871D01*
X52607142Y-61130871D02*
X52630952Y-61178490D01*
X52630952Y-61178490D02*
X52654761Y-61202300D01*
X52654761Y-61202300D02*
X52702380Y-61226109D01*
X52702380Y-61226109D02*
X52797618Y-61226109D01*
X52797618Y-61226109D02*
X52845237Y-61202300D01*
X52845237Y-61202300D02*
X52869047Y-61178490D01*
X52869047Y-61178490D02*
X52892856Y-61130871D01*
X52892856Y-61130871D02*
X52892856Y-60726109D01*
X53107143Y-61202300D02*
X53178571Y-61226109D01*
X53178571Y-61226109D02*
X53297619Y-61226109D01*
X53297619Y-61226109D02*
X53345238Y-61202300D01*
X53345238Y-61202300D02*
X53369047Y-61178490D01*
X53369047Y-61178490D02*
X53392857Y-61130871D01*
X53392857Y-61130871D02*
X53392857Y-61083252D01*
X53392857Y-61083252D02*
X53369047Y-61035633D01*
X53369047Y-61035633D02*
X53345238Y-61011823D01*
X53345238Y-61011823D02*
X53297619Y-60988014D01*
X53297619Y-60988014D02*
X53202381Y-60964204D01*
X53202381Y-60964204D02*
X53154762Y-60940395D01*
X53154762Y-60940395D02*
X53130952Y-60916585D01*
X53130952Y-60916585D02*
X53107143Y-60868966D01*
X53107143Y-60868966D02*
X53107143Y-60821347D01*
X53107143Y-60821347D02*
X53130952Y-60773728D01*
X53130952Y-60773728D02*
X53154762Y-60749919D01*
X53154762Y-60749919D02*
X53202381Y-60726109D01*
X53202381Y-60726109D02*
X53321428Y-60726109D01*
X53321428Y-60726109D02*
X53392857Y-60749919D01*
X53607142Y-61226109D02*
X53607142Y-60726109D01*
X53607142Y-60964204D02*
X53892856Y-60964204D01*
X53892856Y-61226109D02*
X53892856Y-60726109D01*
X53154761Y-53578490D02*
X53130952Y-53602300D01*
X53130952Y-53602300D02*
X53059523Y-53626109D01*
X53059523Y-53626109D02*
X53011904Y-53626109D01*
X53011904Y-53626109D02*
X52940476Y-53602300D01*
X52940476Y-53602300D02*
X52892857Y-53554680D01*
X52892857Y-53554680D02*
X52869047Y-53507061D01*
X52869047Y-53507061D02*
X52845238Y-53411823D01*
X52845238Y-53411823D02*
X52845238Y-53340395D01*
X52845238Y-53340395D02*
X52869047Y-53245157D01*
X52869047Y-53245157D02*
X52892857Y-53197538D01*
X52892857Y-53197538D02*
X52940476Y-53149919D01*
X52940476Y-53149919D02*
X53011904Y-53126109D01*
X53011904Y-53126109D02*
X53059523Y-53126109D01*
X53059523Y-53126109D02*
X53130952Y-53149919D01*
X53130952Y-53149919D02*
X53154761Y-53173728D01*
%LPC*%
D11*
X43772759Y-61750000D03*
X58831000Y-50395700D03*
D12*
X51000000Y-54000000D03*
D13*
X56150000Y-54300000D03*
X57350000Y-56000000D03*
X53000000Y-62350000D03*
X46650000Y-58000000D03*
X51000000Y-51650000D03*
X51000000Y-61950000D03*
X47050000Y-56000000D03*
X53000000Y-52050000D03*
X56950000Y-58000000D03*
%LPD*%
M02*
