M48
; DRILL file {KiCad 7.0.6} date do 13 jul 2023 14:40:30 CEST
; FORMAT={-:-/ absolute / inch / decimal}
; #@! TF.CreationDate,2023-07-13T14:40:30+02:00
; #@! TF.GenerationSoftware,Kicad,Pcbnew,7.0.6
; #@! TF.FileFunction,Plated,1,2,PTH
FMAT,2
INCH
; #@! TA.AperFunction,Plated,PTH,ViaDrill
T1C0.0079
; #@! TA.AperFunction,Plated,PTH,ViaDrill
T2C0.0157
; #@! TA.AperFunction,Plated,PTH,ComponentDrill
T3C0.0374
; #@! TA.AperFunction,Plated,PTH,ComponentDrill
T4C0.0394
%
G90
G05
T1
X1.3425Y-2.2992
X1.538Y-2.0093
X1.6723Y-2.5502
X2.1763Y-1.5318
X2.4504Y-1.5319
X2.5975Y-1.6821
T2
X1.26Y-1.57
X1.27Y-1.45
X1.3051Y-1.7815
X1.3661Y-1.776
X1.3898Y-2.2165
X1.46Y-1.41
X1.502Y-2.1004
X1.5354Y-2.8937
X1.7441Y-2.1575
X1.8465Y-2.5
X1.9685Y-1.4173
X2.3Y-1.61
X2.6063Y-1.5433
T3
X1.7087Y-1.6929
X1.8071Y-1.6929
X1.9055Y-1.6929
X2.0039Y-1.6929
X2.1024Y-1.6929
X2.1929Y-1.9764
X2.1929Y-2.0748
X2.1929Y-2.1732
X2.1929Y-2.2717
X2.1929Y-2.3701
X2.1929Y-2.4685
X2.1929Y-2.5669
X2.2008Y-1.6929
X2.2795Y-1.4272
X2.2992Y-1.6929
X2.378Y-1.4272
X2.4764Y-1.4272
X2.5709Y-1.7559
X2.5709Y-1.8543
X2.5709Y-1.9528
X2.5709Y-2.0512
X2.5709Y-2.1496
X2.5709Y-2.248
X2.5709Y-2.3465
X2.5748Y-1.4272
X2.6732Y-1.4272
X2.7972Y-1.7559
X2.7972Y-1.8543
X2.7972Y-1.9528
X2.7972Y-2.0512
X2.7972Y-2.1496
X2.7972Y-2.248
X2.7972Y-2.3465
T4
X1.0354Y-1.4833
X1.1339Y-1.4833
X1.7283Y-2.248
X1.7283Y-2.3465
X1.7992Y-1.9793
X1.8976Y-1.9793
X1.9961Y-2.248
X1.9961Y-2.3465
T0
M30
