%TF.GenerationSoftware,KiCad,Pcbnew,7.0.6*%
%TF.CreationDate,2023-07-13T14:40:27+02:00*%
%TF.ProjectId,RH_HeadLogicBoard_FreeJoy,52485f48-6561-4644-9c6f-676963426f61,rev?*%
%TF.SameCoordinates,Original*%
%TF.FileFunction,Profile,NP*%
%FSLAX46Y46*%
G04 Gerber Fmt 4.6, Leading zero omitted, Abs format (unit mm)*
G04 Created by KiCad (PCBNEW 7.0.6) date 2023-07-13 14:40:27*
%MOMM*%
%LPD*%
G01*
G04 APERTURE LIST*
%ADD10C,0.100000*%
%TA.AperFunction,Profile*%
%ADD11C,0.100000*%
%TD*%
G04 APERTURE END LIST*
D10*
X86325373Y-40790437D02*
X86264936Y-40874144D01*
X86198287Y-40936327D01*
X27480922Y-57478285D02*
X27506824Y-57594701D01*
X27532319Y-57711202D01*
X27557405Y-57827809D01*
X27582080Y-57944544D01*
X27606343Y-58061428D01*
X27630194Y-58178482D01*
X27639619Y-58225357D01*
X25686656Y-51228688D02*
X25753097Y-51440824D01*
X25817386Y-51645886D01*
X25879608Y-51844219D01*
X25939851Y-52036169D01*
X25998202Y-52222084D01*
X26054749Y-52402310D01*
X26109577Y-52577192D01*
X26162776Y-52747077D01*
X26214430Y-52912312D01*
X26264629Y-53073242D01*
X26313458Y-53230215D01*
X26361005Y-53383576D01*
X26407357Y-53533672D01*
X26452601Y-53680848D01*
X26496825Y-53825453D01*
X26540115Y-53967831D01*
X26582558Y-54108329D01*
X26624243Y-54247294D01*
X26665254Y-54385071D01*
X26705681Y-54522008D01*
X26745610Y-54658450D01*
X26785128Y-54794744D01*
X26824322Y-54931236D01*
X26863279Y-55068272D01*
X26902087Y-55206199D01*
X26940832Y-55345364D01*
X26979602Y-55486111D01*
X27018484Y-55628789D01*
X27057565Y-55773743D01*
X27096932Y-55921319D01*
X27136672Y-56071864D01*
X27176873Y-56225724D01*
X81756725Y-41041166D02*
X81605026Y-41043439D01*
X81453545Y-41050224D01*
X81302383Y-41061468D01*
X81151642Y-41077119D01*
X81001425Y-41097125D01*
X80851832Y-41121434D01*
X80702965Y-41149994D01*
X80554927Y-41182751D01*
X80407819Y-41219655D01*
X80261743Y-41260653D01*
X80116801Y-41305692D01*
X79973094Y-41354720D01*
X79830725Y-41407685D01*
X79689795Y-41464536D01*
X79550406Y-41525219D01*
X79412660Y-41589682D01*
X79276659Y-41657874D01*
X79142505Y-41729741D01*
X79010298Y-41805233D01*
X78880142Y-41884296D01*
X78752138Y-41966878D01*
X78626388Y-42052927D01*
X78502993Y-42142391D01*
X78382056Y-42235218D01*
X78263678Y-42331355D01*
X78147961Y-42430750D01*
X78035007Y-42533351D01*
X77924918Y-42639106D01*
X77817795Y-42747962D01*
X77713741Y-42859868D01*
X77612857Y-42974770D01*
X77515245Y-43092618D01*
X29181662Y-70909128D02*
X29356159Y-71167024D01*
X29530227Y-71418298D01*
X29703817Y-71663054D01*
X29876885Y-71901396D01*
X30049385Y-72133429D01*
X30221272Y-72359258D01*
X30392499Y-72578986D01*
X30563021Y-72792718D01*
X30732791Y-73000559D01*
X30901766Y-73202614D01*
X31069898Y-73398986D01*
X31237141Y-73589780D01*
X31403451Y-73775101D01*
X31568782Y-73955053D01*
X31733087Y-74129741D01*
X31896321Y-74299269D01*
X32058439Y-74463741D01*
X32219394Y-74623263D01*
X32379141Y-74777938D01*
X32537634Y-74927871D01*
X32694828Y-75073167D01*
X32850676Y-75213929D01*
X33005133Y-75350264D01*
X33158154Y-75482274D01*
X33309692Y-75610064D01*
X33459702Y-75733740D01*
X33608137Y-75853405D01*
X33754954Y-75969164D01*
X33900105Y-76081121D01*
X34043545Y-76189381D01*
X34185228Y-76294048D01*
X34325109Y-76395228D01*
X82435475Y-52332967D02*
X82538168Y-52343626D01*
X82625300Y-52370402D01*
D11*
X81756725Y-41041166D02*
X85891940Y-41041166D01*
D10*
X86935756Y-30857827D02*
X87001358Y-30937551D01*
X87044564Y-31017814D01*
D11*
X82435475Y-52332967D02*
X81756725Y-52332967D01*
D10*
X54109049Y-76221841D02*
X54019848Y-76169852D01*
X53951464Y-76109583D01*
X82625300Y-52370402D02*
X82716258Y-52419251D01*
X82786701Y-52477101D01*
X77515245Y-43092618D02*
X77419435Y-43215378D01*
X77327227Y-43340853D01*
X77238646Y-43468929D01*
X77153720Y-43599491D01*
X77072473Y-43732427D01*
X76994932Y-43867623D01*
X76921124Y-44004964D01*
X76851074Y-44144338D01*
X76784808Y-44285630D01*
X76722353Y-44428727D01*
X76663734Y-44573515D01*
X76608978Y-44719881D01*
X76558111Y-44867711D01*
X76511160Y-45016891D01*
X76468149Y-45167307D01*
X76429106Y-45318847D01*
X76394056Y-45471395D01*
X76363026Y-45624839D01*
X76336042Y-45779065D01*
X76313130Y-45933958D01*
X76294315Y-46089407D01*
X76279625Y-46245296D01*
X76269085Y-46401512D01*
X76262721Y-46557942D01*
X76260560Y-46714471D01*
X76262627Y-46870986D01*
X76268949Y-47027374D01*
X76279552Y-47183521D01*
X76294463Y-47339312D01*
X76313706Y-47494635D01*
X76337308Y-47649376D01*
X76365297Y-47803421D01*
D11*
X42814877Y-74483513D02*
X42814877Y-77695180D01*
D10*
X76365297Y-47803421D02*
X76396812Y-47952795D01*
X76432439Y-48101167D01*
X76472115Y-48248445D01*
X76515780Y-48394539D01*
X76563371Y-48539359D01*
X76614828Y-48682812D01*
X76670090Y-48824809D01*
X76729096Y-48965259D01*
X76791783Y-49104071D01*
X76858092Y-49241154D01*
X76927960Y-49376417D01*
X77001327Y-49509770D01*
X77078132Y-49641122D01*
X77158312Y-49770382D01*
X77241807Y-49897459D01*
X77328557Y-50022262D01*
X77418498Y-50144701D01*
X77511571Y-50264685D01*
X77607714Y-50382123D01*
X77706866Y-50496925D01*
X77808966Y-50608999D01*
X77913952Y-50718254D01*
X78021763Y-50824601D01*
X78132338Y-50927948D01*
X78245616Y-51028204D01*
X78361536Y-51125278D01*
X78480036Y-51219081D01*
X78601056Y-51309520D01*
X78724533Y-51396506D01*
X78850407Y-51479947D01*
X78978617Y-51559753D01*
X79109101Y-51635833D01*
X21323020Y-31110714D02*
X21354601Y-31012417D01*
X21398748Y-30932668D01*
X86387558Y-40607221D02*
X86424190Y-40327366D01*
X86459601Y-40046808D01*
X86493816Y-39765530D01*
X86526863Y-39483518D01*
X86558767Y-39200759D01*
X86589555Y-38917238D01*
X86619253Y-38632940D01*
X86647887Y-38347851D01*
X86675484Y-38061957D01*
X86702069Y-37775243D01*
X86727669Y-37487695D01*
X86752310Y-37199299D01*
X86776019Y-36910040D01*
X86798822Y-36619905D01*
X86820744Y-36328877D01*
X86841813Y-36036944D01*
X86862054Y-35744091D01*
X86881494Y-35450304D01*
X86900159Y-35155567D01*
X86918075Y-34859867D01*
X86935269Y-34563190D01*
X86951767Y-34265521D01*
X86967594Y-33966846D01*
X86982778Y-33667149D01*
X86997345Y-33366418D01*
X87011320Y-33064638D01*
X87024730Y-32761793D01*
X87037602Y-32457871D01*
X87049961Y-32152856D01*
X87061834Y-31846735D01*
X87073247Y-31539492D01*
X87084227Y-31231114D01*
X54297455Y-76265868D02*
X54195194Y-76251636D01*
X54109049Y-76221841D01*
X34325109Y-76395228D02*
X34409455Y-76455176D01*
X34494169Y-76514535D01*
X34579245Y-76573303D01*
X34664677Y-76631478D01*
X34750461Y-76689057D01*
X34836591Y-76746038D01*
X34923063Y-76802419D01*
X35009871Y-76858199D01*
X35097011Y-76913376D01*
X35184477Y-76967946D01*
X35272264Y-77021908D01*
X35360367Y-77075261D01*
X35448782Y-77128001D01*
X35537502Y-77180128D01*
X35626523Y-77231638D01*
X35715840Y-77282530D01*
X35805448Y-77332802D01*
X35895342Y-77382452D01*
X35985516Y-77431477D01*
X36075966Y-77479875D01*
X36166686Y-77527646D01*
X36257672Y-77574785D01*
X36348918Y-77621293D01*
X36440419Y-77667165D01*
X36532170Y-77712401D01*
X36624167Y-77756998D01*
X36716404Y-77800954D01*
X36808875Y-77844267D01*
X36901577Y-77886935D01*
X36994503Y-77928956D01*
X37087650Y-77970329D01*
X37181011Y-78011050D01*
X86774355Y-30751127D02*
X86865313Y-30799977D01*
X86935756Y-30857827D01*
X21320556Y-31304179D02*
X21398866Y-31729570D01*
X21477739Y-32157663D01*
X21557119Y-32588176D01*
X21636954Y-33020826D01*
X21717189Y-33455332D01*
X21797770Y-33891412D01*
X21878642Y-34328785D01*
X21959753Y-34767169D01*
X22041047Y-35206283D01*
X22122471Y-35645844D01*
X22203970Y-36085572D01*
X22285492Y-36525183D01*
X22366980Y-36964398D01*
X22448383Y-37402933D01*
X22529644Y-37840508D01*
X22610711Y-38276841D01*
X22691530Y-38711649D01*
X22772045Y-39144653D01*
X22852204Y-39575568D01*
X22931952Y-40004115D01*
X23011235Y-40430012D01*
X23090000Y-40852976D01*
X23168191Y-41272726D01*
X23245755Y-41688981D01*
X23322638Y-42101458D01*
X23398786Y-42509877D01*
X23474145Y-42913955D01*
X23548660Y-43313411D01*
X23622278Y-43707963D01*
X23694945Y-44097329D01*
X23766607Y-44481228D01*
X23837209Y-44859379D01*
X27765326Y-58889830D02*
X27783570Y-58993351D01*
X27801454Y-59096899D01*
X27818981Y-59200484D01*
X27836152Y-59304119D01*
X27852968Y-59407815D01*
X27869430Y-59511586D01*
X27885540Y-59615443D01*
X27901300Y-59719398D01*
D11*
X53814877Y-74483513D02*
G75*
G03*
X42814877Y-74483513I-5500000J0D01*
G01*
D10*
X21536402Y-30796703D02*
X21625155Y-30750036D01*
X21668242Y-30734895D01*
X42814877Y-77695180D02*
X42804217Y-77797873D01*
X42777442Y-77885005D01*
X37181011Y-78011050D02*
X37275981Y-78051703D01*
X37370156Y-78091245D01*
X37463529Y-78129696D01*
X37556095Y-78167073D01*
X28605407Y-70012117D02*
X28564899Y-69930812D01*
X27639619Y-58225357D02*
X27660195Y-58328980D01*
X27680424Y-58432656D01*
X27700307Y-58536401D01*
X27719845Y-58640227D01*
X27739036Y-58744150D01*
X27757883Y-58848182D01*
X27765326Y-58889830D01*
X86053835Y-41014231D02*
X85953629Y-41037345D01*
X85891940Y-41041166D01*
X28242065Y-68286777D02*
X28235099Y-68236588D01*
X82923988Y-52939527D02*
X82891758Y-53037430D01*
X82887283Y-53047139D01*
X53848297Y-75945902D02*
X53821334Y-75846272D01*
X53814877Y-75766172D01*
X82935432Y-52826405D02*
X82926154Y-52929058D01*
X82923988Y-52939527D01*
X82895509Y-52637088D02*
X82925932Y-52735749D01*
X82935432Y-52826405D01*
X28564899Y-69930812D02*
X28539770Y-69843520D01*
X41261519Y-78194455D02*
X41373350Y-78194477D01*
X41473969Y-78194540D01*
X41594103Y-78194669D01*
X41702506Y-78194828D01*
X41803863Y-78194994D01*
X41927793Y-78195175D01*
X42030434Y-78195271D01*
X42141263Y-78195297D01*
X42170799Y-78195291D01*
X37743656Y-78202799D02*
X37854134Y-78202373D01*
X37964835Y-78201954D01*
X38075767Y-78201541D01*
X38186938Y-78201135D01*
X38298358Y-78200735D01*
X38410034Y-78200342D01*
X38521976Y-78199955D01*
X38634192Y-78199574D01*
X86198287Y-40936327D02*
X86110963Y-40990642D01*
X86053835Y-41014231D01*
X23837209Y-44859379D02*
X23888347Y-45059458D01*
X23939107Y-45256366D01*
X23989568Y-45450413D01*
X24039812Y-45641909D01*
X24089919Y-45831165D01*
X24139971Y-46018491D01*
X24190047Y-46204199D01*
X24240230Y-46388597D01*
X24290599Y-46571997D01*
X24341236Y-46754709D01*
X24392222Y-46937043D01*
X24443637Y-47119311D01*
X24495562Y-47301822D01*
X24548079Y-47484886D01*
X24601268Y-47668816D01*
X24655209Y-47853920D01*
X24709985Y-48040509D01*
X24765675Y-48228894D01*
X24822360Y-48419385D01*
X24880122Y-48612293D01*
X24939041Y-48807928D01*
X24999198Y-49006600D01*
X25060674Y-49208620D01*
X25123550Y-49414299D01*
X25187907Y-49623947D01*
X25253825Y-49837874D01*
X25321386Y-50056391D01*
X25390670Y-50279808D01*
X25461758Y-50508435D01*
X25534731Y-50742584D01*
X25609670Y-50982565D01*
X25686656Y-51228688D01*
X37648154Y-78193972D02*
X37556095Y-78167073D01*
X21320556Y-31304179D02*
X21312455Y-31201252D01*
X21323020Y-31110714D01*
X87044564Y-31017814D02*
X87074807Y-31115571D01*
X87076104Y-31122287D01*
X42415117Y-78185029D02*
X42315454Y-78195180D01*
X79109101Y-51635833D02*
X79261463Y-51718498D01*
X79416350Y-51796170D01*
X79573596Y-51868800D01*
X79733033Y-51936342D01*
X79894496Y-51998749D01*
X80057819Y-52055975D01*
X80222835Y-52107972D01*
X80389377Y-52154695D01*
X80557280Y-52196095D01*
X80726377Y-52232128D01*
X80896502Y-52262745D01*
X81067488Y-52287900D01*
X81239170Y-52307546D01*
X81411381Y-52321638D01*
X81583955Y-52330126D01*
X81756725Y-52332967D01*
X28098283Y-61315938D02*
X28110229Y-61440776D01*
X28121686Y-61565535D01*
X28132663Y-61690224D01*
X28143164Y-61814854D01*
X28153197Y-61939433D01*
X28162768Y-62063972D01*
X28171884Y-62188481D01*
X28180551Y-62312971D01*
X28188776Y-62437450D01*
X28196565Y-62561929D01*
X28203926Y-62686418D01*
X28210864Y-62810927D01*
X28217387Y-62935466D01*
X28223500Y-63060045D01*
X28229211Y-63184673D01*
X28234526Y-63309362D01*
X28234526Y-63309362D02*
X28240802Y-63470441D01*
X28246400Y-63630831D01*
X28251345Y-63790543D01*
X28255665Y-63949591D01*
X28259387Y-64107988D01*
X28262538Y-64265746D01*
X28265146Y-64422879D01*
X28267237Y-64579400D01*
X28268840Y-64735321D01*
X28269980Y-64890656D01*
X28270686Y-65045417D01*
X28270985Y-65199618D01*
X28270902Y-65353272D01*
X28270467Y-65506391D01*
X28269706Y-65658989D01*
X28268646Y-65811078D01*
X28267315Y-65962672D01*
X28265739Y-66113784D01*
X28263946Y-66264425D01*
X28261963Y-66414611D01*
X28259817Y-66564352D01*
X28257536Y-66713664D01*
X28255147Y-66862557D01*
X28252676Y-67011046D01*
X28250151Y-67159144D01*
X28247599Y-67306862D01*
X28245048Y-67454216D01*
X28242524Y-67601216D01*
X28240055Y-67747877D01*
X28237669Y-67894211D01*
X28235391Y-68040232D01*
X28233250Y-68185952D01*
D11*
X53814877Y-74483513D02*
X53814877Y-75766172D01*
D10*
X87076104Y-31122287D02*
X87084418Y-31224276D01*
X87084227Y-31231114D01*
X54488469Y-76235070D02*
X55049174Y-76025047D01*
X55608116Y-75810742D01*
X56165228Y-75592105D01*
X56720441Y-75369088D01*
X57273688Y-75141640D01*
X57824902Y-74909712D01*
X58374013Y-74673255D01*
X58920956Y-74432218D01*
X59465661Y-74186554D01*
X60008062Y-73936211D01*
X60548090Y-73681141D01*
X61085678Y-73421294D01*
X61620758Y-73156621D01*
X62153262Y-72887072D01*
X62683123Y-72612597D01*
X63210272Y-72333148D01*
X63734643Y-72048674D01*
X64256167Y-71759126D01*
X64774777Y-71464455D01*
X65290405Y-71164611D01*
X65802983Y-70859545D01*
X66312443Y-70549208D01*
X66818718Y-70233548D01*
X67321740Y-69912519D01*
X67821442Y-69586068D01*
X68317755Y-69254149D01*
X68810612Y-68916710D01*
X69299945Y-68573702D01*
X69785686Y-68225076D01*
X70267768Y-67870782D01*
X70746123Y-67510771D01*
X71220683Y-67144994D01*
X40789809Y-78194616D02*
X40896981Y-78194556D01*
X41007725Y-78194508D01*
X41115270Y-78194475D01*
X41225575Y-78194456D01*
X41261519Y-78194455D01*
X37743656Y-78202799D02*
X37648154Y-78193972D01*
X38634192Y-78199574D02*
X38770940Y-78199119D01*
X38875001Y-78198783D01*
X38988261Y-78198426D01*
X39109763Y-78198054D01*
X39238550Y-78197674D01*
X39373664Y-78197290D01*
X39514148Y-78196910D01*
X39659045Y-78196539D01*
X39807398Y-78196181D01*
X39958249Y-78195845D01*
X40110641Y-78195534D01*
X40263617Y-78195255D01*
X40416219Y-78195014D01*
X40567491Y-78194817D01*
X40716474Y-78194669D01*
X40789809Y-78194616D01*
X27176873Y-56225724D02*
X27207062Y-56342524D01*
X27236916Y-56459398D01*
X27266429Y-56576366D01*
X27295597Y-56693446D01*
X27324416Y-56810658D01*
X27352882Y-56928021D01*
X27380990Y-57045555D01*
X27408735Y-57163279D01*
X27436115Y-57281212D01*
X27463124Y-57399374D01*
X27480922Y-57478285D01*
X28235099Y-68236588D02*
X28233250Y-68185952D01*
X28605407Y-70012117D02*
X28659787Y-70099852D01*
X28714098Y-70186822D01*
X28768339Y-70273030D01*
X28822508Y-70358480D01*
X28876603Y-70443178D01*
X28948612Y-70554945D01*
X29020483Y-70665392D01*
X29092210Y-70774530D01*
X29163790Y-70882369D01*
X29181662Y-70909127D01*
X81001984Y-56508825D02*
X81077176Y-56386871D01*
X81150416Y-56267399D01*
X81221794Y-56150251D01*
X81291400Y-56035266D01*
X81359325Y-55922285D01*
X81425658Y-55811150D01*
X81490491Y-55701700D01*
X81553912Y-55593776D01*
X81616013Y-55487219D01*
X81676883Y-55381869D01*
X81736612Y-55277568D01*
X81795292Y-55174155D01*
X81853012Y-55071472D01*
X81909862Y-54969359D01*
X81965932Y-54867657D01*
X82021314Y-54766206D01*
X82076096Y-54664847D01*
X82130369Y-54563420D01*
X82184224Y-54461767D01*
X82237750Y-54359728D01*
X82291038Y-54257144D01*
X82344178Y-54153854D01*
X82397261Y-54049701D01*
X82450375Y-53944524D01*
X82503612Y-53838164D01*
X82557062Y-53730462D01*
X82610815Y-53621258D01*
X82664961Y-53510393D01*
X82719591Y-53397709D01*
X82774794Y-53283044D01*
X82830661Y-53166240D01*
X82887283Y-53047139D01*
X21398748Y-30932668D02*
X21465284Y-30853721D01*
X21536402Y-30796703D01*
X21668242Y-30734895D02*
X21766677Y-30715777D01*
X21812300Y-30713692D01*
X27901300Y-59719398D02*
X27916074Y-59819120D01*
X27930509Y-59918818D01*
X27944608Y-60018501D01*
X27958372Y-60118174D01*
X27971804Y-60217843D01*
X27984907Y-60317517D01*
X27997681Y-60417201D01*
X28010131Y-60516902D01*
X28022257Y-60616627D01*
X28034062Y-60716382D01*
X28045549Y-60816176D01*
X28056719Y-60916013D01*
X28067575Y-61015901D01*
X28078120Y-61115846D01*
X28088355Y-61215856D01*
X28098283Y-61315938D01*
X42510756Y-78155214D02*
X42415117Y-78185029D01*
X82786701Y-52477101D02*
X82852303Y-52556825D01*
X82895509Y-52637088D01*
X42670742Y-78046406D02*
X42591018Y-78112008D01*
X42510756Y-78155214D01*
X28242065Y-68286777D02*
X28269885Y-68432517D01*
X28297726Y-68578315D01*
X28325588Y-68724164D01*
X28353469Y-68870060D01*
X28381368Y-69015997D01*
X28409285Y-69161971D01*
X28437218Y-69307977D01*
X28465167Y-69454009D01*
X28493132Y-69600063D01*
X28521110Y-69746133D01*
X28539770Y-69843520D01*
X86584530Y-30713692D02*
X86687224Y-30724351D01*
X86774355Y-30751127D01*
X42170799Y-78195291D02*
X42272158Y-78195225D01*
X42315454Y-78195180D01*
X53951464Y-76109583D02*
X53888679Y-76027621D01*
X53848297Y-75945902D01*
X71220683Y-67144994D02*
X71709402Y-66758983D01*
X72184224Y-66374470D01*
X72645359Y-65991650D01*
X73093014Y-65610721D01*
X73527399Y-65231878D01*
X73948721Y-64855318D01*
X74357190Y-64481237D01*
X74753015Y-64109830D01*
X75136404Y-63741295D01*
X75507565Y-63375828D01*
X75866708Y-63013624D01*
X76214041Y-62654881D01*
X76549772Y-62299793D01*
X76874111Y-61948558D01*
X77187266Y-61601372D01*
X77489446Y-61258431D01*
X77780860Y-60919931D01*
X78061715Y-60586069D01*
X78332222Y-60257040D01*
X78592588Y-59933041D01*
X78843022Y-59614269D01*
X79083733Y-59300919D01*
X79314930Y-58993187D01*
X79536821Y-58691271D01*
X79749615Y-58395366D01*
X79953520Y-58105668D01*
X80148746Y-57822373D01*
X80335501Y-57545679D01*
X80513993Y-57275780D01*
X80684432Y-57012874D01*
X80847026Y-56757157D01*
X81001984Y-56508825D01*
X42777442Y-77885005D02*
X42728592Y-77975963D01*
X42670742Y-78046406D01*
X54488469Y-76235070D02*
X54388462Y-76260726D01*
X54297455Y-76265868D01*
X86387558Y-40607221D02*
X86363424Y-40707605D01*
X86325373Y-40790437D01*
D11*
X86584530Y-30713692D02*
X21812300Y-30713692D01*
M02*
