%TF.GenerationSoftware,KiCad,Pcbnew,7.0.6*%
%TF.CreationDate,2023-07-13T14:40:27+02:00*%
%TF.ProjectId,RH_HeadLogicBoard_FreeJoy,52485f48-6561-4644-9c6f-676963426f61,rev?*%
%TF.SameCoordinates,Original*%
%TF.FileFunction,Soldermask,Top*%
%TF.FilePolarity,Negative*%
%FSLAX46Y46*%
G04 Gerber Fmt 4.6, Leading zero omitted, Abs format (unit mm)*
G04 Created by KiCad (PCBNEW 7.0.6) date 2023-07-13 14:40:27*
%MOMM*%
%LPD*%
G01*
G04 APERTURE LIST*
G04 Aperture macros list*
%AMRoundRect*
0 Rectangle with rounded corners*
0 $1 Rounding radius*
0 $2 $3 $4 $5 $6 $7 $8 $9 X,Y pos of 4 corners*
0 Add a 4 corners polygon primitive as box body*
4,1,4,$2,$3,$4,$5,$6,$7,$8,$9,$2,$3,0*
0 Add four circle primitives for the rounded corners*
1,1,$1+$1,$2,$3*
1,1,$1+$1,$4,$5*
1,1,$1+$1,$6,$7*
1,1,$1+$1,$8,$9*
0 Add four rect primitives between the rounded corners*
20,1,$1+$1,$2,$3,$4,$5,0*
20,1,$1+$1,$4,$5,$6,$7,0*
20,1,$1+$1,$6,$7,$8,$9,0*
20,1,$1+$1,$8,$9,$2,$3,0*%
G04 Aperture macros list end*
%ADD10RoundRect,0.250000X-0.350000X-0.450000X0.350000X-0.450000X0.350000X0.450000X-0.350000X0.450000X0*%
%ADD11RoundRect,0.250000X-0.750000X0.600000X-0.750000X-0.600000X0.750000X-0.600000X0.750000X0.600000X0*%
%ADD12O,2.000000X1.700000*%
%ADD13RoundRect,0.250000X-0.337500X-0.475000X0.337500X-0.475000X0.337500X0.475000X-0.337500X0.475000X0*%
%ADD14RoundRect,0.250000X0.475000X-0.337500X0.475000X0.337500X-0.475000X0.337500X-0.475000X-0.337500X0*%
%ADD15RoundRect,0.250000X0.450000X-0.350000X0.450000X0.350000X-0.450000X0.350000X-0.450000X-0.350000X0*%
%ADD16C,2.200000*%
%ADD17RoundRect,0.250000X-0.450000X0.350000X-0.450000X-0.350000X0.450000X-0.350000X0.450000X0.350000X0*%
%ADD18RoundRect,0.100000X0.100000X-0.637500X0.100000X0.637500X-0.100000X0.637500X-0.100000X-0.637500X0*%
%ADD19RoundRect,0.250000X-0.725000X0.600000X-0.725000X-0.600000X0.725000X-0.600000X0.725000X0.600000X0*%
%ADD20O,1.950000X1.700000*%
%ADD21RoundRect,0.250000X0.600000X0.725000X-0.600000X0.725000X-0.600000X-0.725000X0.600000X-0.725000X0*%
%ADD22O,1.700000X1.950000*%
%ADD23RoundRect,0.250000X0.600000X0.750000X-0.600000X0.750000X-0.600000X-0.750000X0.600000X-0.750000X0*%
%ADD24O,1.700000X2.000000*%
%ADD25RoundRect,0.250000X-0.600000X-0.750000X0.600000X-0.750000X0.600000X0.750000X-0.600000X0.750000X0*%
G04 APERTURE END LIST*
D10*
X57875000Y-65238000D03*
X59875000Y-65238000D03*
X57875000Y-62738000D03*
X59875000Y-62738000D03*
D11*
X43900000Y-57100000D03*
D12*
X43900000Y-59600000D03*
D13*
X35862500Y-58800000D03*
X37937500Y-58800000D03*
D14*
X34050000Y-39912500D03*
X34050000Y-37837500D03*
D10*
X73125000Y-49600000D03*
X75125000Y-49600000D03*
X57875000Y-60238000D03*
X59875000Y-60238000D03*
D15*
X45950000Y-41025000D03*
X45950000Y-39025000D03*
D10*
X73125000Y-57100000D03*
X75125000Y-57100000D03*
X73125000Y-54600000D03*
X75125000Y-54600000D03*
X73125000Y-52075000D03*
X75125000Y-52075000D03*
X57875000Y-57738000D03*
X59875000Y-57738000D03*
D11*
X50700000Y-57100000D03*
D12*
X50700000Y-59600000D03*
D16*
X84300000Y-33450000D03*
D15*
X50950000Y-41025000D03*
X50950000Y-39025000D03*
D10*
X73125000Y-59600000D03*
X75125000Y-59600000D03*
X32900000Y-33375000D03*
X34900000Y-33375000D03*
D16*
X42075000Y-34175000D03*
D15*
X48450000Y-41025000D03*
X48450000Y-39025000D03*
D10*
X57900000Y-55238000D03*
X59900000Y-55238000D03*
D15*
X53450000Y-41025000D03*
X53450000Y-39025000D03*
D17*
X43000000Y-51200000D03*
X43000000Y-53200000D03*
D18*
X37425000Y-69587500D03*
X38075000Y-69587500D03*
X38725000Y-69587500D03*
X39375000Y-69587500D03*
X40025000Y-69587500D03*
X40675000Y-69587500D03*
X41325000Y-69587500D03*
X41975000Y-69587500D03*
X41975000Y-63862500D03*
X41325000Y-63862500D03*
X40675000Y-63862500D03*
X40025000Y-63862500D03*
X39375000Y-63862500D03*
X38725000Y-63862500D03*
X38075000Y-63862500D03*
X37425000Y-63862500D03*
X34050000Y-48569000D03*
X34700000Y-48569000D03*
X35350000Y-48569000D03*
X36000000Y-48569000D03*
X36650000Y-48569000D03*
X37300000Y-48569000D03*
X37950000Y-48569000D03*
X38600000Y-48569000D03*
X38600000Y-42844000D03*
X37950000Y-42844000D03*
X37300000Y-42844000D03*
X36650000Y-42844000D03*
X36000000Y-42844000D03*
X35350000Y-42844000D03*
X34700000Y-42844000D03*
X34050000Y-42844000D03*
D19*
X65300000Y-44600000D03*
D20*
X65300000Y-47100000D03*
X65300000Y-49600000D03*
X65300000Y-52100000D03*
X65300000Y-54600000D03*
X65300000Y-57100000D03*
X65300000Y-59600000D03*
D15*
X43450000Y-41025000D03*
X43450000Y-39025000D03*
D19*
X71050000Y-44600000D03*
D20*
X71050000Y-47100000D03*
X71050000Y-49600000D03*
X71050000Y-52100000D03*
X71050000Y-54600000D03*
X71050000Y-57100000D03*
X71050000Y-59600000D03*
D21*
X67900000Y-36250000D03*
D22*
X65400000Y-36250000D03*
X62900000Y-36250000D03*
X60400000Y-36250000D03*
X57900000Y-36250000D03*
D21*
X58400000Y-43000000D03*
D22*
X55900000Y-43000000D03*
X53400000Y-43000000D03*
X50900000Y-43000000D03*
X48400000Y-43000000D03*
X45900000Y-43000000D03*
X43400000Y-43000000D03*
D23*
X48200000Y-50275000D03*
D24*
X45700000Y-50275000D03*
D19*
X55700000Y-50200000D03*
D20*
X55700000Y-52700000D03*
X55700000Y-55200000D03*
X55700000Y-57700000D03*
X55700000Y-60200000D03*
X55700000Y-62700000D03*
X55700000Y-65200000D03*
D25*
X26300000Y-37675000D03*
D24*
X28800000Y-37675000D03*
M02*
