%TF.GenerationSoftware,KiCad,Pcbnew,7.0.6*%
%TF.CreationDate,2023-07-13T14:44:59+02:00*%
%TF.ProjectId,LH_HeadLogicBoard_FreeJoy,4c485f48-6561-4644-9c6f-676963426f61,rev?*%
%TF.SameCoordinates,Original*%
%TF.FileFunction,Paste,Top*%
%TF.FilePolarity,Positive*%
%FSLAX46Y46*%
G04 Gerber Fmt 4.6, Leading zero omitted, Abs format (unit mm)*
G04 Created by KiCad (PCBNEW 7.0.6) date 2023-07-13 14:44:59*
%MOMM*%
%LPD*%
G01*
G04 APERTURE LIST*
G04 Aperture macros list*
%AMRoundRect*
0 Rectangle with rounded corners*
0 $1 Rounding radius*
0 $2 $3 $4 $5 $6 $7 $8 $9 X,Y pos of 4 corners*
0 Add a 4 corners polygon primitive as box body*
4,1,4,$2,$3,$4,$5,$6,$7,$8,$9,$2,$3,0*
0 Add four circle primitives for the rounded corners*
1,1,$1+$1,$2,$3*
1,1,$1+$1,$4,$5*
1,1,$1+$1,$6,$7*
1,1,$1+$1,$8,$9*
0 Add four rect primitives between the rounded corners*
20,1,$1+$1,$2,$3,$4,$5,0*
20,1,$1+$1,$4,$5,$6,$7,0*
20,1,$1+$1,$6,$7,$8,$9,0*
20,1,$1+$1,$8,$9,$2,$3,0*%
G04 Aperture macros list end*
%ADD10RoundRect,0.250000X-0.350000X-0.450000X0.350000X-0.450000X0.350000X0.450000X-0.350000X0.450000X0*%
%ADD11RoundRect,0.250000X-0.337500X-0.475000X0.337500X-0.475000X0.337500X0.475000X-0.337500X0.475000X0*%
%ADD12RoundRect,0.250000X0.475000X-0.337500X0.475000X0.337500X-0.475000X0.337500X-0.475000X-0.337500X0*%
%ADD13RoundRect,0.100000X0.100000X-0.637500X0.100000X0.637500X-0.100000X0.637500X-0.100000X-0.637500X0*%
G04 APERTURE END LIST*
D10*
X59750000Y-65250000D03*
X61750000Y-65250000D03*
X59750000Y-62750000D03*
X61750000Y-62750000D03*
D11*
X35862500Y-58800000D03*
X37937500Y-58800000D03*
D12*
X34050000Y-39912500D03*
X34050000Y-37837500D03*
D10*
X59750000Y-60250000D03*
X61750000Y-60250000D03*
X59750000Y-57750000D03*
X61750000Y-57750000D03*
X32900000Y-33375000D03*
X34900000Y-33375000D03*
X59775000Y-55250000D03*
X61775000Y-55250000D03*
D13*
X37425000Y-69587500D03*
X38075000Y-69587500D03*
X38725000Y-69587500D03*
X39375000Y-69587500D03*
X40025000Y-69587500D03*
X40675000Y-69587500D03*
X41325000Y-69587500D03*
X41975000Y-69587500D03*
X41975000Y-63862500D03*
X41325000Y-63862500D03*
X40675000Y-63862500D03*
X40025000Y-63862500D03*
X39375000Y-63862500D03*
X38725000Y-63862500D03*
X38075000Y-63862500D03*
X37425000Y-63862500D03*
X34050000Y-48569000D03*
X34700000Y-48569000D03*
X35350000Y-48569000D03*
X36000000Y-48569000D03*
X36650000Y-48569000D03*
X37300000Y-48569000D03*
X37950000Y-48569000D03*
X38600000Y-48569000D03*
X38600000Y-42844000D03*
X37950000Y-42844000D03*
X37300000Y-42844000D03*
X36650000Y-42844000D03*
X36000000Y-42844000D03*
X35350000Y-42844000D03*
X34700000Y-42844000D03*
X34050000Y-42844000D03*
M02*
