%TF.GenerationSoftware,KiCad,Pcbnew,7.0.6*%
%TF.CreationDate,2023-07-13T14:44:59+02:00*%
%TF.ProjectId,LH_HeadLogicBoard_FreeJoy,4c485f48-6561-4644-9c6f-676963426f61,rev?*%
%TF.SameCoordinates,Original*%
%TF.FileFunction,Copper,L2,Bot*%
%TF.FilePolarity,Positive*%
%FSLAX46Y46*%
G04 Gerber Fmt 4.6, Leading zero omitted, Abs format (unit mm)*
G04 Created by KiCad (PCBNEW 7.0.6) date 2023-07-13 14:44:59*
%MOMM*%
%LPD*%
G01*
G04 APERTURE LIST*
G04 Aperture macros list*
%AMRoundRect*
0 Rectangle with rounded corners*
0 $1 Rounding radius*
0 $2 $3 $4 $5 $6 $7 $8 $9 X,Y pos of 4 corners*
0 Add a 4 corners polygon primitive as box body*
4,1,4,$2,$3,$4,$5,$6,$7,$8,$9,$2,$3,0*
0 Add four circle primitives for the rounded corners*
1,1,$1+$1,$2,$3*
1,1,$1+$1,$4,$5*
1,1,$1+$1,$6,$7*
1,1,$1+$1,$8,$9*
0 Add four rect primitives between the rounded corners*
20,1,$1+$1,$2,$3,$4,$5,0*
20,1,$1+$1,$4,$5,$6,$7,0*
20,1,$1+$1,$6,$7,$8,$9,0*
20,1,$1+$1,$8,$9,$2,$3,0*%
G04 Aperture macros list end*
%TA.AperFunction,ComponentPad*%
%ADD10RoundRect,0.250000X-0.725000X0.600000X-0.725000X-0.600000X0.725000X-0.600000X0.725000X0.600000X0*%
%TD*%
%TA.AperFunction,ComponentPad*%
%ADD11O,1.950000X1.700000*%
%TD*%
%TA.AperFunction,ComponentPad*%
%ADD12RoundRect,0.250000X0.600000X0.725000X-0.600000X0.725000X-0.600000X-0.725000X0.600000X-0.725000X0*%
%TD*%
%TA.AperFunction,ComponentPad*%
%ADD13O,1.700000X1.950000*%
%TD*%
%TA.AperFunction,ComponentPad*%
%ADD14RoundRect,0.250000X0.600000X0.750000X-0.600000X0.750000X-0.600000X-0.750000X0.600000X-0.750000X0*%
%TD*%
%TA.AperFunction,ComponentPad*%
%ADD15O,1.700000X2.000000*%
%TD*%
%TA.AperFunction,ComponentPad*%
%ADD16RoundRect,0.250000X-0.600000X-0.750000X0.600000X-0.750000X0.600000X0.750000X-0.600000X0.750000X0*%
%TD*%
%TA.AperFunction,SMDPad,CuDef*%
%ADD17RoundRect,0.100000X-0.100000X0.637500X-0.100000X-0.637500X0.100000X-0.637500X0.100000X0.637500X0*%
%TD*%
%TA.AperFunction,ComponentPad*%
%ADD18RoundRect,0.250000X-0.750000X0.600000X-0.750000X-0.600000X0.750000X-0.600000X0.750000X0.600000X0*%
%TD*%
%TA.AperFunction,ComponentPad*%
%ADD19O,2.000000X1.700000*%
%TD*%
%TA.AperFunction,SMDPad,CuDef*%
%ADD20RoundRect,0.250000X-0.337500X-0.475000X0.337500X-0.475000X0.337500X0.475000X-0.337500X0.475000X0*%
%TD*%
%TA.AperFunction,SMDPad,CuDef*%
%ADD21RoundRect,0.250000X-0.350000X-0.450000X0.350000X-0.450000X0.350000X0.450000X-0.350000X0.450000X0*%
%TD*%
%TA.AperFunction,SMDPad,CuDef*%
%ADD22RoundRect,0.250000X0.450000X-0.350000X0.450000X0.350000X-0.450000X0.350000X-0.450000X-0.350000X0*%
%TD*%
%TA.AperFunction,SMDPad,CuDef*%
%ADD23RoundRect,0.250000X0.350000X0.450000X-0.350000X0.450000X-0.350000X-0.450000X0.350000X-0.450000X0*%
%TD*%
%TA.AperFunction,SMDPad,CuDef*%
%ADD24RoundRect,0.250000X-0.450000X0.350000X-0.450000X-0.350000X0.450000X-0.350000X0.450000X0.350000X0*%
%TD*%
%TA.AperFunction,ViaPad*%
%ADD25C,0.800000*%
%TD*%
%TA.AperFunction,ViaPad*%
%ADD26C,0.500000*%
%TD*%
%TA.AperFunction,Conductor*%
%ADD27C,0.250000*%
%TD*%
%TA.AperFunction,Conductor*%
%ADD28C,0.500000*%
%TD*%
%TA.AperFunction,Conductor*%
%ADD29C,0.300000*%
%TD*%
G04 APERTURE END LIST*
D10*
X71050000Y-44600000D03*
D11*
X71050000Y-47100000D03*
X71050000Y-49600000D03*
X71050000Y-52100000D03*
X71050000Y-54600000D03*
X71050000Y-57100000D03*
X71050000Y-59600000D03*
D12*
X67900000Y-36250000D03*
D13*
X65400000Y-36250000D03*
X62900000Y-36250000D03*
X60400000Y-36250000D03*
X57900000Y-36250000D03*
D12*
X58400000Y-43000000D03*
D13*
X55900000Y-43000000D03*
X53400000Y-43000000D03*
X50900000Y-43000000D03*
X48400000Y-43000000D03*
X45900000Y-43000000D03*
X43400000Y-43000000D03*
D14*
X48200000Y-50275000D03*
D15*
X45700000Y-50275000D03*
D10*
X55700000Y-50200000D03*
D11*
X55700000Y-52700000D03*
X55700000Y-55200000D03*
X55700000Y-57700000D03*
X55700000Y-60200000D03*
X55700000Y-62700000D03*
X55700000Y-65200000D03*
D16*
X26300000Y-36725000D03*
D15*
X28800000Y-36725000D03*
D17*
X34050000Y-42837500D03*
X34700000Y-42837500D03*
X35350000Y-42837500D03*
X36000000Y-42837500D03*
X36650000Y-42837500D03*
X37300000Y-42837500D03*
X37950000Y-42837500D03*
X38600000Y-42837500D03*
X38600000Y-48562500D03*
X37950000Y-48562500D03*
X37300000Y-48562500D03*
X36650000Y-48562500D03*
X36000000Y-48562500D03*
X35350000Y-48562500D03*
X34700000Y-48562500D03*
X34050000Y-48562500D03*
D18*
X43900000Y-57100000D03*
D19*
X43900000Y-59600000D03*
D20*
X33682500Y-52280000D03*
X35757500Y-52280000D03*
D21*
X73125000Y-49600000D03*
X75125000Y-49600000D03*
D22*
X45950000Y-41025000D03*
X45950000Y-39025000D03*
D21*
X73125000Y-57100000D03*
X75125000Y-57100000D03*
X73125000Y-54600000D03*
X75125000Y-54600000D03*
X58750000Y-49600000D03*
X60750000Y-49600000D03*
D23*
X60750000Y-57100000D03*
X58750000Y-57100000D03*
X60750000Y-54600000D03*
X58750000Y-54600000D03*
D21*
X73125000Y-52075000D03*
X75125000Y-52075000D03*
D18*
X50700000Y-57100000D03*
D19*
X50700000Y-59600000D03*
D22*
X50950000Y-41025000D03*
X50950000Y-39025000D03*
D21*
X73125000Y-59600000D03*
X75125000Y-59600000D03*
D22*
X48450000Y-41025000D03*
X48450000Y-39025000D03*
X53450000Y-41025000D03*
X53450000Y-39025000D03*
D24*
X41250000Y-51000000D03*
X41250000Y-53000000D03*
D21*
X58750000Y-52100000D03*
X60750000Y-52100000D03*
D10*
X65300000Y-44600000D03*
D11*
X65300000Y-47100000D03*
X65300000Y-49600000D03*
X65300000Y-52100000D03*
X65300000Y-54600000D03*
X65300000Y-57100000D03*
X65300000Y-59600000D03*
D22*
X43450000Y-41025000D03*
X43450000Y-39025000D03*
D24*
X50700000Y-63600000D03*
X50700000Y-65600000D03*
D23*
X60750000Y-59600000D03*
X58750000Y-59600000D03*
D24*
X43900000Y-63600000D03*
X43900000Y-65600000D03*
D25*
X58420000Y-40894000D03*
X37084000Y-35814000D03*
X50000000Y-36000000D03*
X39000000Y-73500000D03*
X46900000Y-63500000D03*
X66200000Y-39200000D03*
X41250000Y-38750000D03*
X32258000Y-36830000D03*
X38150000Y-53350000D03*
X44300000Y-54800000D03*
X32004000Y-39878000D03*
X35300000Y-56300000D03*
X33150000Y-45250000D03*
D26*
X34100000Y-58400000D03*
D25*
X34700000Y-45110000D03*
X43000000Y-51250000D03*
D26*
X62240000Y-38910000D03*
X55276767Y-38906767D03*
X65975689Y-42724847D03*
X42475500Y-64775500D03*
X39065000Y-51035000D03*
D27*
X35274479Y-50000000D02*
X37600000Y-50000000D01*
X37600000Y-50000000D02*
X37950000Y-49650000D01*
X43050500Y-64537327D02*
X45862673Y-64537327D01*
X42237327Y-64200500D02*
X42713673Y-64200500D01*
X39000000Y-73500000D02*
X39000000Y-67437827D01*
X45862673Y-64537327D02*
X46900000Y-63500000D01*
X37950000Y-49650000D02*
X37950000Y-48562500D01*
X42713673Y-64200500D02*
X43050500Y-64537327D01*
X34700000Y-49425521D02*
X35274479Y-50000000D01*
X34700000Y-48562500D02*
X34700000Y-49425521D01*
X39000000Y-67437827D02*
X42237327Y-64200500D01*
D28*
X61417548Y-47100000D02*
X60822548Y-47695000D01*
X54799713Y-34036000D02*
X63186000Y-34036000D01*
X63186000Y-34036000D02*
X65400000Y-36250000D01*
X58605000Y-47695000D02*
X57600000Y-48700000D01*
X65300000Y-47100000D02*
X61417548Y-47100000D01*
X27082000Y-34798000D02*
X37846000Y-34798000D01*
X33682500Y-52280000D02*
X35300000Y-53897500D01*
X36100000Y-57100000D02*
X35300000Y-56300000D01*
X32004000Y-39878000D02*
X26653000Y-39878000D01*
X57600000Y-48700000D02*
X57600000Y-50838000D01*
X60822548Y-47695000D02*
X58605000Y-47695000D01*
X33682500Y-52280000D02*
X34045000Y-51917500D01*
X51835713Y-37000000D02*
X54799713Y-34036000D01*
X35300000Y-53897500D02*
X35300000Y-56300000D01*
X26300000Y-35580000D02*
X27082000Y-34798000D01*
X26653000Y-39878000D02*
X26300000Y-39525000D01*
X57600000Y-50838000D02*
X55700000Y-52738000D01*
X26300000Y-39525000D02*
X26300000Y-35580000D01*
X40048000Y-37000000D02*
X51835713Y-37000000D01*
X37846000Y-34798000D02*
X40048000Y-37000000D01*
X34045000Y-51917500D02*
X34045000Y-48570000D01*
X43900000Y-57100000D02*
X36100000Y-57100000D01*
D27*
X34100000Y-55700000D02*
X32400000Y-54000000D01*
X32400000Y-46000000D02*
X33150000Y-45250000D01*
X34100000Y-58400000D02*
X34100000Y-55700000D01*
X32400000Y-54000000D02*
X32400000Y-46000000D01*
X34050000Y-44350000D02*
X34050000Y-42837500D01*
X33150000Y-45250000D02*
X34050000Y-44350000D01*
X39734827Y-37500000D02*
X39809827Y-37575000D01*
X34700000Y-45110000D02*
X34700000Y-40970000D01*
X39809827Y-37575000D02*
X61575000Y-37575000D01*
X38170000Y-37500000D02*
X39734827Y-37500000D01*
X34700000Y-40970000D02*
X38170000Y-37500000D01*
X61575000Y-37575000D02*
X62900000Y-36250000D01*
X50950000Y-41025000D02*
X50950000Y-43100000D01*
X53450000Y-41025000D02*
X53450000Y-43100000D01*
X65300000Y-49600000D02*
X60750000Y-49600000D01*
X65300000Y-52100000D02*
X60750000Y-52100000D01*
X43450000Y-41025000D02*
X43450000Y-43100000D01*
X45950000Y-41025000D02*
X45950000Y-43100000D01*
X48450000Y-41025000D02*
X48450000Y-43100000D01*
X63453792Y-41519000D02*
X59672792Y-45300000D01*
X71050000Y-57100000D02*
X73125000Y-57100000D01*
X71050000Y-57100000D02*
X68400000Y-54450000D01*
X59672792Y-45300000D02*
X36100000Y-45300000D01*
X35350000Y-44550000D02*
X35350000Y-42837500D01*
X68400000Y-42200000D02*
X67719000Y-41519000D01*
X36100000Y-45300000D02*
X35350000Y-44550000D01*
X68400000Y-54450000D02*
X68400000Y-42200000D01*
X67719000Y-41519000D02*
X63453792Y-41519000D01*
X71050000Y-54600000D02*
X73125000Y-54600000D01*
X68850000Y-52400000D02*
X68850000Y-41950000D01*
X36000000Y-44200000D02*
X36000000Y-42837500D01*
X67969000Y-41069000D02*
X63267396Y-41069000D01*
X68850000Y-41950000D02*
X67969000Y-41069000D01*
X36650000Y-44850000D02*
X36000000Y-44200000D01*
X63267396Y-41069000D02*
X59486396Y-44850000D01*
X71050000Y-54600000D02*
X68850000Y-52400000D01*
X59486396Y-44850000D02*
X36650000Y-44850000D01*
X68419000Y-40619000D02*
X63081000Y-40619000D01*
X71050000Y-52100000D02*
X70350000Y-51400000D01*
X59300000Y-44400000D02*
X37100000Y-44400000D01*
X69300000Y-50350000D02*
X69300000Y-41500000D01*
X63081000Y-40619000D02*
X59300000Y-44400000D01*
X36650000Y-43950000D02*
X36650000Y-42837500D01*
X71025000Y-52075000D02*
X70350000Y-51400000D01*
X70350000Y-51400000D02*
X69300000Y-50350000D01*
X69300000Y-41500000D02*
X68419000Y-40619000D01*
X73125000Y-52075000D02*
X71025000Y-52075000D01*
X37100000Y-44400000D02*
X36650000Y-43950000D01*
X71050000Y-49600000D02*
X69750000Y-48300000D01*
X37300000Y-40500000D02*
X37300000Y-42837500D01*
X66350000Y-37750000D02*
X62036396Y-37750000D01*
X39775000Y-38025000D02*
X37300000Y-40500000D01*
X69750000Y-41150000D02*
X66350000Y-37750000D01*
X61761396Y-38025000D02*
X39775000Y-38025000D01*
X69750000Y-48300000D02*
X69750000Y-41150000D01*
X71050000Y-49600000D02*
X73125000Y-49600000D01*
X62036396Y-37750000D02*
X61761396Y-38025000D01*
D29*
X43900000Y-59600000D02*
X43900000Y-63600000D01*
D27*
X37300000Y-47500000D02*
X37700000Y-47100000D01*
X37300000Y-48562500D02*
X37300000Y-47500000D01*
X46100000Y-58600000D02*
X45100000Y-59600000D01*
X37700000Y-47100000D02*
X40063604Y-47100000D01*
X40063604Y-47100000D02*
X46100000Y-53136396D01*
X46100000Y-53136396D02*
X46100000Y-58600000D01*
X45100000Y-59600000D02*
X43900000Y-59600000D01*
X36950000Y-46650000D02*
X40250000Y-46650000D01*
X36650000Y-46950000D02*
X36950000Y-46650000D01*
X40250000Y-46650000D02*
X47100000Y-53500000D01*
X47100000Y-53500000D02*
X47100000Y-56000000D01*
X47100000Y-56000000D02*
X50700000Y-59600000D01*
X36650000Y-48562500D02*
X36650000Y-46950000D01*
X50700000Y-59600000D02*
X50700000Y-63600000D01*
X41750000Y-51500000D02*
X42750000Y-51500000D01*
X42750000Y-51500000D02*
X43000000Y-51250000D01*
X36400000Y-46200000D02*
X36000000Y-46600000D01*
X41250000Y-51000000D02*
X41750000Y-51500000D01*
X36000000Y-46600000D02*
X36000000Y-48562500D01*
X45700000Y-50275000D02*
X45700000Y-47650000D01*
X44250000Y-46200000D02*
X36400000Y-46200000D01*
X45700000Y-47650000D02*
X44250000Y-46200000D01*
X67369000Y-41969000D02*
X63640188Y-41969000D01*
X35350000Y-46450000D02*
X35350000Y-48562500D01*
X63640188Y-41969000D02*
X59859188Y-45750000D01*
X67950000Y-56500000D02*
X67950000Y-42550000D01*
X71050000Y-59600000D02*
X73125000Y-59600000D01*
X71050000Y-59600000D02*
X67950000Y-56500000D01*
X59859188Y-45750000D02*
X36050000Y-45750000D01*
X67950000Y-42550000D02*
X67369000Y-41969000D01*
X36050000Y-45750000D02*
X35350000Y-46450000D01*
X65300000Y-54600000D02*
X60750000Y-54600000D01*
X65300000Y-57100000D02*
X60750000Y-57100000D01*
X65300000Y-59600000D02*
X60750000Y-59600000D01*
X62240000Y-38910000D02*
X55280000Y-38910000D01*
X64279376Y-43425000D02*
X65541000Y-43425000D01*
X42475500Y-64775500D02*
X42475500Y-66775500D01*
X65541000Y-43425000D02*
X65975689Y-42990311D01*
X55280000Y-38910000D02*
X55276767Y-38906767D01*
X43300000Y-67600000D02*
X51400000Y-67600000D01*
X52900000Y-66100000D02*
X52900000Y-49082396D01*
X54862396Y-47120000D02*
X60584376Y-47120000D01*
X52900000Y-49082396D02*
X54862396Y-47120000D01*
X42475500Y-66775500D02*
X43300000Y-67600000D01*
X60584376Y-47120000D02*
X64279376Y-43425000D01*
X51400000Y-67600000D02*
X52900000Y-66100000D01*
X65975689Y-42990311D02*
X65975689Y-42724847D01*
X38600000Y-50570000D02*
X38600000Y-48570000D01*
X39065000Y-51035000D02*
X38600000Y-50570000D01*
%TA.AperFunction,Conductor*%
G36*
X46942012Y-56738370D02*
G01*
X46948595Y-56744499D01*
X49233882Y-59029786D01*
X49267908Y-59092098D01*
X49265263Y-59155777D01*
X49217189Y-59312757D01*
X49191751Y-59511410D01*
X49187815Y-59542144D01*
X49197630Y-59773178D01*
X49246351Y-59999240D01*
X49332575Y-60213815D01*
X49332577Y-60213819D01*
X49422504Y-60359868D01*
X49453821Y-60410730D01*
X49528856Y-60495987D01*
X49553209Y-60523658D01*
X49606602Y-60584324D01*
X49786524Y-60729600D01*
X49988409Y-60842380D01*
X49988417Y-60842382D01*
X49992404Y-60844186D01*
X50046237Y-60890474D01*
X50066499Y-60958518D01*
X50066500Y-60958999D01*
X50066500Y-62420761D01*
X50046498Y-62488882D01*
X49992842Y-62535375D01*
X49980133Y-62540365D01*
X49927265Y-62557883D01*
X49776347Y-62650970D01*
X49776341Y-62650975D01*
X49650975Y-62776341D01*
X49650970Y-62776347D01*
X49557885Y-62927262D01*
X49502113Y-63095572D01*
X49502112Y-63095579D01*
X49491500Y-63199446D01*
X49491500Y-64000544D01*
X49502112Y-64104425D01*
X49557885Y-64272738D01*
X49650970Y-64423652D01*
X49650975Y-64423658D01*
X49776341Y-64549024D01*
X49776347Y-64549029D01*
X49776348Y-64549030D01*
X49927262Y-64642115D01*
X49927263Y-64642115D01*
X49930771Y-64644279D01*
X49978249Y-64697065D01*
X49989652Y-64767140D01*
X49961359Y-64832256D01*
X49940133Y-64852388D01*
X49889953Y-64889952D01*
X49803100Y-65005976D01*
X49752453Y-65141761D01*
X49752451Y-65141769D01*
X49746000Y-65201777D01*
X49746000Y-65346000D01*
X51653999Y-65346000D01*
X51653999Y-65201797D01*
X51653997Y-65201773D01*
X51647547Y-65141767D01*
X51647547Y-65141765D01*
X51596899Y-65005976D01*
X51510046Y-64889952D01*
X51459866Y-64852388D01*
X51417320Y-64795553D01*
X51412254Y-64724737D01*
X51446279Y-64662425D01*
X51469228Y-64644279D01*
X51472734Y-64642116D01*
X51472738Y-64642115D01*
X51623652Y-64549030D01*
X51749030Y-64423652D01*
X51842115Y-64272738D01*
X51897887Y-64104426D01*
X51908500Y-64000545D01*
X51908499Y-63199456D01*
X51898261Y-63099240D01*
X51897887Y-63095574D01*
X51897886Y-63095572D01*
X51842115Y-62927262D01*
X51749030Y-62776348D01*
X51749029Y-62776347D01*
X51749024Y-62776341D01*
X51623658Y-62650975D01*
X51623652Y-62650970D01*
X51479182Y-62561860D01*
X51472738Y-62557885D01*
X51472736Y-62557884D01*
X51472734Y-62557883D01*
X51419867Y-62540365D01*
X51361496Y-62499951D01*
X51334240Y-62434395D01*
X51333500Y-62420761D01*
X51333500Y-60953607D01*
X51353502Y-60885486D01*
X51407158Y-60838993D01*
X51407203Y-60838972D01*
X51514929Y-60790278D01*
X51706523Y-60660783D01*
X51873476Y-60500772D01*
X52010985Y-60314847D01*
X52027991Y-60281116D01*
X52076519Y-60229295D01*
X52145361Y-60211936D01*
X52212659Y-60234551D01*
X52257048Y-60289960D01*
X52266500Y-60337842D01*
X52266500Y-65785405D01*
X52246498Y-65853526D01*
X52229599Y-65874495D01*
X52003326Y-66100769D01*
X51820174Y-66283921D01*
X51757862Y-66317946D01*
X51687046Y-66312881D01*
X51630211Y-66270334D01*
X51605400Y-66203814D01*
X51613024Y-66150791D01*
X51647547Y-66058234D01*
X51647548Y-66058230D01*
X51653999Y-65998222D01*
X51654000Y-65998205D01*
X51654000Y-65854000D01*
X50954000Y-65854000D01*
X50954000Y-66453999D01*
X51198203Y-66453999D01*
X51198226Y-66453997D01*
X51258232Y-66447547D01*
X51350791Y-66413024D01*
X51421607Y-66407958D01*
X51483920Y-66441983D01*
X51517945Y-66504294D01*
X51512881Y-66575110D01*
X51483920Y-66620174D01*
X51174498Y-66929596D01*
X51112188Y-66963620D01*
X51085405Y-66966500D01*
X43614595Y-66966500D01*
X43546474Y-66946498D01*
X43525499Y-66929595D01*
X43260068Y-66664163D01*
X43226043Y-66601851D01*
X43231108Y-66531035D01*
X43273655Y-66474200D01*
X43340175Y-66449389D01*
X43362634Y-66449790D01*
X43401788Y-66453999D01*
X43646000Y-66453999D01*
X43646000Y-65854000D01*
X44154000Y-65854000D01*
X44154000Y-66453999D01*
X44398203Y-66453999D01*
X44398226Y-66453997D01*
X44458232Y-66447547D01*
X44458234Y-66447547D01*
X44594023Y-66396899D01*
X44710047Y-66310047D01*
X44796899Y-66194023D01*
X44847546Y-66058238D01*
X44847548Y-66058230D01*
X44853999Y-65998222D01*
X44854000Y-65998205D01*
X44854000Y-65854000D01*
X49746001Y-65854000D01*
X49746001Y-65998202D01*
X49746002Y-65998226D01*
X49752452Y-66058232D01*
X49752452Y-66058234D01*
X49803100Y-66194023D01*
X49889952Y-66310047D01*
X50005976Y-66396899D01*
X50005975Y-66396899D01*
X50141761Y-66447546D01*
X50141769Y-66447548D01*
X50201785Y-66453999D01*
X50446000Y-66453999D01*
X50446000Y-65854000D01*
X49746001Y-65854000D01*
X44854000Y-65854000D01*
X44154000Y-65854000D01*
X43646000Y-65854000D01*
X43646000Y-65472000D01*
X43666002Y-65403879D01*
X43719658Y-65357386D01*
X43772000Y-65346000D01*
X44853999Y-65346000D01*
X44853999Y-65201797D01*
X44853997Y-65201773D01*
X44847547Y-65141767D01*
X44847547Y-65141765D01*
X44796899Y-65005976D01*
X44710046Y-64889952D01*
X44659866Y-64852388D01*
X44617320Y-64795553D01*
X44612254Y-64724737D01*
X44646279Y-64662425D01*
X44669228Y-64644279D01*
X44672734Y-64642116D01*
X44672738Y-64642115D01*
X44823652Y-64549030D01*
X44949030Y-64423652D01*
X45042115Y-64272738D01*
X45097887Y-64104426D01*
X45108500Y-64000545D01*
X45108499Y-63199456D01*
X45098261Y-63099240D01*
X45097887Y-63095574D01*
X45097886Y-63095572D01*
X45042115Y-62927262D01*
X44949030Y-62776348D01*
X44949029Y-62776347D01*
X44949024Y-62776341D01*
X44823658Y-62650975D01*
X44823652Y-62650970D01*
X44809328Y-62642135D01*
X44672738Y-62557885D01*
X44672734Y-62557883D01*
X44672735Y-62557883D01*
X44644867Y-62548649D01*
X44586495Y-62508235D01*
X44559240Y-62442679D01*
X44558500Y-62429045D01*
X44558500Y-60942307D01*
X44578502Y-60874186D01*
X44632158Y-60827693D01*
X44632359Y-60827601D01*
X44714929Y-60790278D01*
X44906523Y-60660783D01*
X45073476Y-60500772D01*
X45210985Y-60314847D01*
X45237923Y-60261417D01*
X45286448Y-60209599D01*
X45315271Y-60197150D01*
X45353593Y-60186018D01*
X45371024Y-60175708D01*
X45388780Y-60167009D01*
X45407617Y-60159552D01*
X45445786Y-60131818D01*
X45450744Y-60128562D01*
X45491362Y-60104542D01*
X45505685Y-60090218D01*
X45520724Y-60077374D01*
X45537107Y-60065472D01*
X45567193Y-60029103D01*
X45571161Y-60024741D01*
X46488657Y-59107245D01*
X46501092Y-59097284D01*
X46500905Y-59097057D01*
X46507009Y-59092005D01*
X46507018Y-59092000D01*
X46554999Y-59040904D01*
X46576135Y-59019769D01*
X46580437Y-59014221D01*
X46584267Y-59009735D01*
X46616586Y-58975321D01*
X46626345Y-58957567D01*
X46637204Y-58941038D01*
X46649614Y-58925040D01*
X46668354Y-58881732D01*
X46670965Y-58876404D01*
X46693695Y-58835060D01*
X46698733Y-58815435D01*
X46705138Y-58796730D01*
X46708071Y-58789953D01*
X46713181Y-58778145D01*
X46720561Y-58731547D01*
X46721762Y-58725740D01*
X46733500Y-58680030D01*
X46733500Y-58659774D01*
X46735051Y-58640063D01*
X46738220Y-58620057D01*
X46735120Y-58587265D01*
X46733780Y-58573080D01*
X46733500Y-58567148D01*
X46733500Y-56833594D01*
X46753502Y-56765473D01*
X46807158Y-56718980D01*
X46877432Y-56708876D01*
X46942012Y-56738370D01*
G37*
%TD.AperFunction*%
%TA.AperFunction,Conductor*%
G36*
X37899564Y-49676511D02*
G01*
X37950361Y-49726112D01*
X37966500Y-49787810D01*
X37966500Y-50486146D01*
X37964751Y-50501988D01*
X37965044Y-50502016D01*
X37964298Y-50509907D01*
X37966500Y-50579957D01*
X37966500Y-50609851D01*
X37966501Y-50609872D01*
X37967378Y-50616820D01*
X37967844Y-50622732D01*
X37969326Y-50669888D01*
X37969327Y-50669893D01*
X37974977Y-50689339D01*
X37978986Y-50708697D01*
X37981525Y-50728793D01*
X37981526Y-50728799D01*
X37998893Y-50772662D01*
X38000816Y-50778279D01*
X38013982Y-50823593D01*
X38024294Y-50841031D01*
X38032988Y-50858779D01*
X38040444Y-50877609D01*
X38040450Y-50877620D01*
X38068177Y-50915783D01*
X38071437Y-50920746D01*
X38095460Y-50961365D01*
X38109779Y-50975684D01*
X38122617Y-50990714D01*
X38130867Y-51002068D01*
X38134528Y-51007107D01*
X38157330Y-51025970D01*
X38170886Y-51037185D01*
X38175267Y-51041171D01*
X38233284Y-51099188D01*
X38290754Y-51156658D01*
X38320588Y-51204137D01*
X38360117Y-51317104D01*
X38377291Y-51366183D01*
X38464155Y-51504426D01*
X38468231Y-51510912D01*
X38589087Y-51631768D01*
X38589089Y-51631769D01*
X38589091Y-51631771D01*
X38733817Y-51722709D01*
X38895150Y-51779162D01*
X38895149Y-51779162D01*
X38912348Y-51781099D01*
X39065000Y-51798299D01*
X39234850Y-51779162D01*
X39396183Y-51722709D01*
X39540909Y-51631771D01*
X39661771Y-51510909D01*
X39752709Y-51366183D01*
X39796573Y-51240826D01*
X39837948Y-51183139D01*
X39903949Y-51156976D01*
X39973616Y-51170648D01*
X40024832Y-51219816D01*
X40041500Y-51282444D01*
X40041500Y-51400543D01*
X40052112Y-51504425D01*
X40107885Y-51672738D01*
X40200970Y-51823652D01*
X40200975Y-51823658D01*
X40326341Y-51949024D01*
X40326347Y-51949029D01*
X40326348Y-51949030D01*
X40477262Y-52042115D01*
X40477263Y-52042115D01*
X40480771Y-52044279D01*
X40528249Y-52097065D01*
X40539652Y-52167140D01*
X40511359Y-52232256D01*
X40490133Y-52252388D01*
X40439953Y-52289952D01*
X40353100Y-52405976D01*
X40302453Y-52541761D01*
X40302451Y-52541769D01*
X40296000Y-52601777D01*
X40296000Y-52746000D01*
X42203999Y-52746000D01*
X42203999Y-52601797D01*
X42203997Y-52601773D01*
X42197547Y-52541767D01*
X42197547Y-52541765D01*
X42146900Y-52405978D01*
X42093774Y-52335009D01*
X42068964Y-52268488D01*
X42084056Y-52199114D01*
X42134258Y-52148912D01*
X42194643Y-52133500D01*
X42666147Y-52133500D01*
X42681988Y-52135249D01*
X42682016Y-52134956D01*
X42689902Y-52135700D01*
X42689909Y-52135702D01*
X42759958Y-52133500D01*
X42773653Y-52133500D01*
X42799849Y-52136252D01*
X42904513Y-52158500D01*
X43095487Y-52158500D01*
X43282288Y-52118794D01*
X43456752Y-52041118D01*
X43611253Y-51928866D01*
X43704968Y-51824783D01*
X43765413Y-51787545D01*
X43836397Y-51788896D01*
X43887699Y-51820000D01*
X45429595Y-53361895D01*
X45463620Y-53424207D01*
X45466500Y-53450990D01*
X45466500Y-55939627D01*
X45446498Y-56007748D01*
X45392842Y-56054241D01*
X45322568Y-56064345D01*
X45257988Y-56034851D01*
X45251405Y-56028722D01*
X45123658Y-55900975D01*
X45123652Y-55900970D01*
X45108299Y-55891500D01*
X44972738Y-55807885D01*
X44869020Y-55773517D01*
X44804427Y-55752113D01*
X44804420Y-55752112D01*
X44700553Y-55741500D01*
X43099455Y-55741500D01*
X42995574Y-55752112D01*
X42827261Y-55807885D01*
X42676347Y-55900970D01*
X42676341Y-55900975D01*
X42550975Y-56026341D01*
X42550970Y-56026347D01*
X42457885Y-56177261D01*
X42457885Y-56177262D01*
X42434544Y-56247704D01*
X42432082Y-56255133D01*
X42391668Y-56313504D01*
X42326111Y-56340760D01*
X42312477Y-56341500D01*
X36466371Y-56341500D01*
X36398250Y-56321498D01*
X36377276Y-56304595D01*
X36220125Y-56147444D01*
X36189387Y-56097285D01*
X36186497Y-56088392D01*
X36134527Y-55928444D01*
X36098256Y-55865620D01*
X36075381Y-55825999D01*
X36058500Y-55762999D01*
X36058500Y-53961935D01*
X36059831Y-53943672D01*
X36061538Y-53932016D01*
X36063341Y-53919711D01*
X36060101Y-53882680D01*
X36058740Y-53867113D01*
X36058500Y-53861620D01*
X36058500Y-53853324D01*
X36057111Y-53841445D01*
X36054652Y-53820405D01*
X36047887Y-53743073D01*
X36047886Y-53743070D01*
X36047886Y-53743068D01*
X36046403Y-53735887D01*
X36046469Y-53735873D01*
X36044839Y-53728519D01*
X36044773Y-53728535D01*
X36043079Y-53721393D01*
X36043079Y-53721387D01*
X36016530Y-53648444D01*
X35992114Y-53574761D01*
X35992110Y-53574755D01*
X35989014Y-53568115D01*
X35989076Y-53568086D01*
X35985791Y-53561300D01*
X35985731Y-53561331D01*
X35982436Y-53554771D01*
X35982435Y-53554768D01*
X35958759Y-53518770D01*
X35939768Y-53489895D01*
X35915867Y-53451147D01*
X35897129Y-53382668D01*
X35918387Y-53314929D01*
X35972894Y-53269437D01*
X36023107Y-53258999D01*
X36143203Y-53258999D01*
X36143226Y-53258997D01*
X36189714Y-53254000D01*
X40296001Y-53254000D01*
X40296001Y-53398202D01*
X40296002Y-53398226D01*
X40302452Y-53458232D01*
X40302452Y-53458234D01*
X40353100Y-53594023D01*
X40439952Y-53710047D01*
X40555976Y-53796899D01*
X40555975Y-53796899D01*
X40691761Y-53847546D01*
X40691769Y-53847548D01*
X40751785Y-53853999D01*
X40996000Y-53853999D01*
X40996000Y-53254000D01*
X41504000Y-53254000D01*
X41504000Y-53853999D01*
X41748203Y-53853999D01*
X41748226Y-53853997D01*
X41808232Y-53847547D01*
X41808234Y-53847547D01*
X41944023Y-53796899D01*
X42060047Y-53710047D01*
X42146899Y-53594023D01*
X42197546Y-53458238D01*
X42197548Y-53458230D01*
X42203999Y-53398222D01*
X42204000Y-53398205D01*
X42204000Y-53254000D01*
X41504000Y-53254000D01*
X40996000Y-53254000D01*
X40296001Y-53254000D01*
X36189714Y-53254000D01*
X36203232Y-53252547D01*
X36203234Y-53252547D01*
X36339023Y-53201899D01*
X36455047Y-53115047D01*
X36541899Y-52999023D01*
X36592546Y-52863238D01*
X36592548Y-52863230D01*
X36598999Y-52803222D01*
X36599000Y-52803205D01*
X36599000Y-52534000D01*
X35629500Y-52534000D01*
X35561379Y-52513998D01*
X35514886Y-52460342D01*
X35503500Y-52408000D01*
X35503500Y-51301000D01*
X36011500Y-51301000D01*
X36011500Y-52026000D01*
X36598999Y-52026000D01*
X36598999Y-51756797D01*
X36598997Y-51756773D01*
X36592547Y-51696767D01*
X36592547Y-51696765D01*
X36541899Y-51560976D01*
X36455047Y-51444952D01*
X36339023Y-51358100D01*
X36339024Y-51358100D01*
X36203238Y-51307453D01*
X36203230Y-51307451D01*
X36143222Y-51301000D01*
X36011500Y-51301000D01*
X35503500Y-51301000D01*
X35371797Y-51301000D01*
X35371773Y-51301002D01*
X35311767Y-51307452D01*
X35311765Y-51307452D01*
X35175976Y-51358100D01*
X35059952Y-51444953D01*
X35030369Y-51484473D01*
X34973533Y-51527020D01*
X34902717Y-51532086D01*
X34840405Y-51498061D01*
X34806380Y-51435749D01*
X34803500Y-51408965D01*
X34803500Y-49862261D01*
X34823502Y-49794140D01*
X34877158Y-49747647D01*
X34947432Y-49737543D01*
X34977707Y-49745848D01*
X35091150Y-49792838D01*
X35210115Y-49808500D01*
X35489884Y-49808499D01*
X35608850Y-49792838D01*
X35626780Y-49785410D01*
X35697366Y-49777819D01*
X35723213Y-49785408D01*
X35741150Y-49792838D01*
X35860115Y-49808500D01*
X36139884Y-49808499D01*
X36258850Y-49792838D01*
X36276780Y-49785410D01*
X36347366Y-49777819D01*
X36373213Y-49785408D01*
X36391150Y-49792838D01*
X36510115Y-49808500D01*
X36789884Y-49808499D01*
X36908850Y-49792838D01*
X36926780Y-49785410D01*
X36997368Y-49777820D01*
X37023217Y-49785410D01*
X37027591Y-49787222D01*
X37041150Y-49792838D01*
X37160115Y-49808500D01*
X37439884Y-49808499D01*
X37558850Y-49792838D01*
X37706876Y-49731524D01*
X37763794Y-49687848D01*
X37830015Y-49662247D01*
X37899564Y-49676511D01*
G37*
%TD.AperFunction*%
%TA.AperFunction,Conductor*%
G36*
X42438121Y-38678502D02*
G01*
X42484614Y-38732158D01*
X42492247Y-38767248D01*
X42495999Y-38771000D01*
X44404000Y-38771000D01*
X44409610Y-38765389D01*
X44424001Y-38716379D01*
X44477657Y-38669886D01*
X44529999Y-38658500D01*
X44870000Y-38658500D01*
X44938121Y-38678502D01*
X44984614Y-38732158D01*
X44992247Y-38767248D01*
X44995999Y-38771000D01*
X46904000Y-38771000D01*
X46909610Y-38765389D01*
X46924001Y-38716379D01*
X46977657Y-38669886D01*
X47029999Y-38658500D01*
X47370000Y-38658500D01*
X47438121Y-38678502D01*
X47484614Y-38732158D01*
X47492247Y-38767248D01*
X47495999Y-38771000D01*
X49404000Y-38771000D01*
X49409610Y-38765389D01*
X49424001Y-38716379D01*
X49477657Y-38669886D01*
X49529999Y-38658500D01*
X49870000Y-38658500D01*
X49938121Y-38678502D01*
X49984614Y-38732158D01*
X49992247Y-38767248D01*
X49995999Y-38771000D01*
X51904000Y-38771000D01*
X51909610Y-38765389D01*
X51924001Y-38716379D01*
X51977657Y-38669886D01*
X52029999Y-38658500D01*
X52370000Y-38658500D01*
X52438121Y-38678502D01*
X52484614Y-38732158D01*
X52492247Y-38767248D01*
X52495999Y-38771000D01*
X53578000Y-38771000D01*
X53646121Y-38791002D01*
X53692614Y-38844658D01*
X53704000Y-38897000D01*
X53704000Y-39153000D01*
X53683998Y-39221121D01*
X53630342Y-39267614D01*
X53578000Y-39279000D01*
X52496001Y-39279000D01*
X52496001Y-39423202D01*
X52496002Y-39423226D01*
X52502452Y-39483232D01*
X52502452Y-39483234D01*
X52553100Y-39619023D01*
X52639952Y-39735047D01*
X52690132Y-39772610D01*
X52732679Y-39829446D01*
X52737745Y-39900261D01*
X52703720Y-39962574D01*
X52680771Y-39980719D01*
X52526353Y-40075966D01*
X52526341Y-40075975D01*
X52400975Y-40201341D01*
X52400970Y-40201347D01*
X52361746Y-40264940D01*
X52307885Y-40352262D01*
X52307884Y-40352263D01*
X52307241Y-40353307D01*
X52254455Y-40400785D01*
X52184380Y-40412188D01*
X52119264Y-40383896D01*
X52092759Y-40353307D01*
X52092115Y-40352263D01*
X52092115Y-40352262D01*
X51999030Y-40201348D01*
X51999029Y-40201347D01*
X51999024Y-40201341D01*
X51873658Y-40075975D01*
X51873652Y-40075970D01*
X51719228Y-39980720D01*
X51671750Y-39927934D01*
X51660347Y-39857859D01*
X51688640Y-39792743D01*
X51709868Y-39772610D01*
X51760045Y-39735048D01*
X51846899Y-39619023D01*
X51897546Y-39483238D01*
X51897548Y-39483230D01*
X51903999Y-39423222D01*
X51904000Y-39423205D01*
X51904000Y-39279000D01*
X49996001Y-39279000D01*
X49996001Y-39423202D01*
X49996002Y-39423226D01*
X50002452Y-39483232D01*
X50002452Y-39483234D01*
X50053100Y-39619023D01*
X50139952Y-39735047D01*
X50190132Y-39772610D01*
X50232679Y-39829446D01*
X50237745Y-39900261D01*
X50203720Y-39962574D01*
X50180771Y-39980719D01*
X50026353Y-40075966D01*
X50026341Y-40075975D01*
X49900975Y-40201341D01*
X49900966Y-40201353D01*
X49807239Y-40353307D01*
X49754453Y-40400785D01*
X49684379Y-40412188D01*
X49619263Y-40383895D01*
X49592758Y-40353306D01*
X49592116Y-40352265D01*
X49592115Y-40352262D01*
X49499030Y-40201348D01*
X49499027Y-40201345D01*
X49499024Y-40201341D01*
X49373658Y-40075975D01*
X49373652Y-40075970D01*
X49219228Y-39980720D01*
X49171750Y-39927934D01*
X49160347Y-39857859D01*
X49188640Y-39792743D01*
X49209868Y-39772610D01*
X49260045Y-39735048D01*
X49346899Y-39619023D01*
X49397546Y-39483238D01*
X49397548Y-39483230D01*
X49403999Y-39423222D01*
X49404000Y-39423205D01*
X49404000Y-39279000D01*
X47496001Y-39279000D01*
X47496001Y-39423202D01*
X47496002Y-39423226D01*
X47502452Y-39483232D01*
X47502452Y-39483234D01*
X47553100Y-39619023D01*
X47639952Y-39735047D01*
X47690132Y-39772610D01*
X47732679Y-39829446D01*
X47737745Y-39900261D01*
X47703720Y-39962574D01*
X47680771Y-39980719D01*
X47526353Y-40075966D01*
X47526341Y-40075975D01*
X47400975Y-40201341D01*
X47400970Y-40201347D01*
X47361746Y-40264940D01*
X47307885Y-40352262D01*
X47307884Y-40352263D01*
X47307241Y-40353307D01*
X47254455Y-40400785D01*
X47184380Y-40412188D01*
X47119264Y-40383896D01*
X47092759Y-40353307D01*
X47092115Y-40352263D01*
X47092115Y-40352262D01*
X46999030Y-40201348D01*
X46999029Y-40201347D01*
X46999024Y-40201341D01*
X46873658Y-40075975D01*
X46873652Y-40075970D01*
X46719228Y-39980720D01*
X46671750Y-39927934D01*
X46660347Y-39857859D01*
X46688640Y-39792743D01*
X46709868Y-39772610D01*
X46760045Y-39735048D01*
X46846899Y-39619023D01*
X46897546Y-39483238D01*
X46897548Y-39483230D01*
X46903999Y-39423222D01*
X46904000Y-39423205D01*
X46904000Y-39279000D01*
X44996001Y-39279000D01*
X44996001Y-39423202D01*
X44996002Y-39423226D01*
X45002452Y-39483232D01*
X45002452Y-39483234D01*
X45053100Y-39619023D01*
X45139952Y-39735047D01*
X45190132Y-39772610D01*
X45232679Y-39829446D01*
X45237745Y-39900261D01*
X45203720Y-39962574D01*
X45180771Y-39980719D01*
X45026353Y-40075966D01*
X45026341Y-40075975D01*
X44900975Y-40201341D01*
X44900970Y-40201347D01*
X44861746Y-40264940D01*
X44807885Y-40352262D01*
X44807884Y-40352263D01*
X44807241Y-40353307D01*
X44754455Y-40400785D01*
X44684380Y-40412188D01*
X44619264Y-40383896D01*
X44592759Y-40353307D01*
X44592115Y-40352263D01*
X44592115Y-40352262D01*
X44499030Y-40201348D01*
X44499029Y-40201347D01*
X44499024Y-40201341D01*
X44373658Y-40075975D01*
X44373652Y-40075970D01*
X44219228Y-39980720D01*
X44171750Y-39927934D01*
X44160347Y-39857859D01*
X44188640Y-39792743D01*
X44209868Y-39772610D01*
X44260045Y-39735048D01*
X44346899Y-39619023D01*
X44397546Y-39483238D01*
X44397548Y-39483230D01*
X44403999Y-39423222D01*
X44404000Y-39423205D01*
X44404000Y-39279000D01*
X42496001Y-39279000D01*
X42496001Y-39423202D01*
X42496002Y-39423226D01*
X42502452Y-39483232D01*
X42502452Y-39483234D01*
X42553100Y-39619023D01*
X42639952Y-39735047D01*
X42690132Y-39772610D01*
X42732679Y-39829446D01*
X42737745Y-39900261D01*
X42703720Y-39962574D01*
X42680771Y-39980719D01*
X42526353Y-40075966D01*
X42526341Y-40075975D01*
X42400975Y-40201341D01*
X42400970Y-40201347D01*
X42307885Y-40352262D01*
X42252113Y-40520572D01*
X42252112Y-40520579D01*
X42241500Y-40624446D01*
X42241500Y-41425544D01*
X42252112Y-41529425D01*
X42294577Y-41657577D01*
X42307885Y-41697738D01*
X42388293Y-41828100D01*
X42389523Y-41830093D01*
X42408260Y-41898573D01*
X42387001Y-41966311D01*
X42380315Y-41975395D01*
X42278523Y-42101464D01*
X42270400Y-42111524D01*
X42202912Y-42232332D01*
X42157619Y-42313410D01*
X42080582Y-42531442D01*
X42080582Y-42531443D01*
X42079946Y-42535152D01*
X42041500Y-42759375D01*
X42041500Y-42759377D01*
X42041500Y-42759378D01*
X42041500Y-43182713D01*
X42056198Y-43355417D01*
X42056199Y-43355421D01*
X42114468Y-43579203D01*
X42114472Y-43579215D01*
X42118715Y-43588600D01*
X42128548Y-43658912D01*
X42098807Y-43723379D01*
X42038933Y-43761532D01*
X42003901Y-43766500D01*
X39153381Y-43766500D01*
X39085260Y-43746498D01*
X39038767Y-43692842D01*
X39028663Y-43622568D01*
X39040184Y-43585160D01*
X39043974Y-43577406D01*
X39053999Y-43508599D01*
X39054000Y-43508591D01*
X39054000Y-43037500D01*
X38784500Y-43037500D01*
X38716379Y-43017498D01*
X38669886Y-42963842D01*
X38658500Y-42911500D01*
X38658500Y-42763500D01*
X38678502Y-42695379D01*
X38732158Y-42648886D01*
X38784500Y-42637500D01*
X39054000Y-42637500D01*
X39054000Y-42166408D01*
X39053999Y-42166400D01*
X39043974Y-42097593D01*
X39043973Y-42097591D01*
X38992086Y-41991454D01*
X38992085Y-41991452D01*
X38908547Y-41907914D01*
X38908543Y-41907911D01*
X38802412Y-41856027D01*
X38802403Y-41856024D01*
X38800000Y-41855674D01*
X38780711Y-41872353D01*
X38779998Y-41874783D01*
X38726342Y-41921276D01*
X38656068Y-41931380D01*
X38591488Y-41901886D01*
X38574038Y-41883367D01*
X38531154Y-41827482D01*
X38483987Y-41766013D01*
X38409075Y-41708530D01*
X38356878Y-41668477D01*
X38330104Y-41657387D01*
X38245100Y-41622177D01*
X38208848Y-41607161D01*
X38089887Y-41591500D01*
X38089885Y-41591500D01*
X38059500Y-41591500D01*
X37991379Y-41571498D01*
X37944886Y-41517842D01*
X37933500Y-41465500D01*
X37933500Y-40814594D01*
X37953502Y-40746473D01*
X37970405Y-40725499D01*
X40000499Y-38695405D01*
X40062811Y-38661379D01*
X40089594Y-38658500D01*
X42370000Y-38658500D01*
X42438121Y-38678502D01*
G37*
%TD.AperFunction*%
%TA.AperFunction,Conductor*%
G36*
X66103527Y-38403502D02*
G01*
X66124501Y-38420405D01*
X67474500Y-39770405D01*
X67508526Y-39832717D01*
X67503461Y-39903533D01*
X67460914Y-39960368D01*
X67394394Y-39985179D01*
X67385405Y-39985500D01*
X63164849Y-39985500D01*
X63149010Y-39983751D01*
X63148983Y-39984045D01*
X63141091Y-39983299D01*
X63071060Y-39985500D01*
X63041144Y-39985500D01*
X63034172Y-39986379D01*
X63028265Y-39986844D01*
X62981110Y-39988326D01*
X62981105Y-39988327D01*
X62961660Y-39993977D01*
X62942302Y-39997986D01*
X62922207Y-40000524D01*
X62922205Y-40000525D01*
X62878324Y-40017897D01*
X62872709Y-40019819D01*
X62827410Y-40032980D01*
X62827404Y-40032982D01*
X62809966Y-40043295D01*
X62792220Y-40051989D01*
X62773381Y-40059448D01*
X62773380Y-40059449D01*
X62735213Y-40087178D01*
X62730252Y-40090437D01*
X62689637Y-40114458D01*
X62675307Y-40128787D01*
X62660281Y-40141620D01*
X62643895Y-40153526D01*
X62643894Y-40153526D01*
X62613818Y-40189880D01*
X62609823Y-40194271D01*
X59586999Y-43217095D01*
X59524687Y-43251121D01*
X59497904Y-43254000D01*
X58801398Y-43254000D01*
X58836519Y-43199351D01*
X58875000Y-43068295D01*
X58875000Y-42931705D01*
X58836519Y-42800649D01*
X58801398Y-42746000D01*
X59503999Y-42746000D01*
X59503998Y-42226797D01*
X59503997Y-42226773D01*
X59497547Y-42166767D01*
X59497547Y-42166765D01*
X59446899Y-42030976D01*
X59360047Y-41914952D01*
X59244023Y-41828100D01*
X59244024Y-41828100D01*
X59108238Y-41777453D01*
X59108230Y-41777451D01*
X59048222Y-41771000D01*
X58654000Y-41771000D01*
X58654000Y-42593808D01*
X58535199Y-42539554D01*
X58433975Y-42525000D01*
X58366025Y-42525000D01*
X58264801Y-42539554D01*
X58146000Y-42593808D01*
X58146000Y-41771000D01*
X57751797Y-41771000D01*
X57751773Y-41771002D01*
X57691767Y-41777452D01*
X57691765Y-41777452D01*
X57555976Y-41828100D01*
X57439952Y-41914952D01*
X57353101Y-42030975D01*
X57302071Y-42167786D01*
X57259524Y-42224621D01*
X57193003Y-42249431D01*
X57123629Y-42234339D01*
X57079625Y-42194310D01*
X56960783Y-42018477D01*
X56800772Y-41851524D01*
X56800771Y-41851523D01*
X56800769Y-41851521D01*
X56614845Y-41714013D01*
X56457261Y-41634562D01*
X56408357Y-41609905D01*
X56408354Y-41609904D01*
X56408352Y-41609903D01*
X56282466Y-41571351D01*
X56187243Y-41542189D01*
X55957865Y-41512816D01*
X55957861Y-41512816D01*
X55957853Y-41512815D01*
X55726821Y-41522630D01*
X55500759Y-41571351D01*
X55286184Y-41657575D01*
X55286180Y-41657577D01*
X55089272Y-41778819D01*
X55089268Y-41778822D01*
X54915676Y-41931601D01*
X54770401Y-42111522D01*
X54758552Y-42132733D01*
X54707867Y-42182448D01*
X54638350Y-42196868D01*
X54572073Y-42171416D01*
X54544161Y-42141839D01*
X54538006Y-42132733D01*
X54465936Y-42026101D01*
X54444362Y-41958461D01*
X54462781Y-41889896D01*
X54481230Y-41866450D01*
X54499030Y-41848652D01*
X54592115Y-41697738D01*
X54647887Y-41529426D01*
X54658500Y-41425545D01*
X54658499Y-40624456D01*
X54656757Y-40607408D01*
X54647887Y-40520574D01*
X54633780Y-40478001D01*
X54592115Y-40352262D01*
X54499030Y-40201348D01*
X54499029Y-40201347D01*
X54499024Y-40201341D01*
X54373658Y-40075975D01*
X54373652Y-40075970D01*
X54219228Y-39980720D01*
X54171750Y-39927934D01*
X54160347Y-39857859D01*
X54188640Y-39792743D01*
X54209868Y-39772610D01*
X54260045Y-39735048D01*
X54346899Y-39619023D01*
X54397546Y-39483238D01*
X54397548Y-39483230D01*
X54403999Y-39423222D01*
X54403999Y-39380789D01*
X54424000Y-39312668D01*
X54477654Y-39266174D01*
X54547928Y-39256068D01*
X54612509Y-39285560D01*
X54636685Y-39313748D01*
X54653845Y-39341058D01*
X54679998Y-39382679D01*
X54800854Y-39503535D01*
X54800856Y-39503536D01*
X54800858Y-39503538D01*
X54945584Y-39594476D01*
X55106917Y-39650929D01*
X55106916Y-39650929D01*
X55124115Y-39652866D01*
X55276767Y-39670066D01*
X55446617Y-39650929D01*
X55607950Y-39594476D01*
X55633552Y-39578388D01*
X55658342Y-39562813D01*
X55725378Y-39543500D01*
X61786244Y-39543500D01*
X61853279Y-39562812D01*
X61908817Y-39597709D01*
X62070150Y-39654162D01*
X62070149Y-39654162D01*
X62087348Y-39656099D01*
X62240000Y-39673299D01*
X62409850Y-39654162D01*
X62571183Y-39597709D01*
X62715909Y-39506771D01*
X62836771Y-39385909D01*
X62927709Y-39241183D01*
X62984162Y-39079850D01*
X63003299Y-38910000D01*
X62984162Y-38740150D01*
X62927709Y-38578817D01*
X62927708Y-38578815D01*
X62927708Y-38578814D01*
X62926278Y-38576539D01*
X62925803Y-38574858D01*
X62924637Y-38572437D01*
X62925061Y-38572232D01*
X62906970Y-38508219D01*
X62927663Y-38440305D01*
X62981789Y-38394360D01*
X63032963Y-38383500D01*
X66035406Y-38383500D01*
X66103527Y-38403502D01*
G37*
%TD.AperFunction*%
%TA.AperFunction,Conductor*%
G36*
X86587747Y-30714529D02*
G01*
X86632256Y-30719148D01*
X86674887Y-30723572D01*
X86698884Y-30728457D01*
X86762397Y-30747975D01*
X86784998Y-30757411D01*
X86854190Y-30794570D01*
X86874537Y-30808199D01*
X86921035Y-30846384D01*
X86925890Y-30850371D01*
X86943214Y-30867677D01*
X86993123Y-30928331D01*
X87006771Y-30948662D01*
X87038297Y-31007227D01*
X87047718Y-31029701D01*
X87069190Y-31099105D01*
X87071243Y-31105742D01*
X87076454Y-31132742D01*
X87079847Y-31174361D01*
X87083654Y-31221062D01*
X87083812Y-31228010D01*
X87083726Y-31231107D01*
X87072745Y-31539534D01*
X87072667Y-31541624D01*
X87072657Y-31541656D01*
X87072664Y-31541712D01*
X87061338Y-31846616D01*
X87061338Y-31846617D01*
X87061246Y-31848965D01*
X87061235Y-31848999D01*
X87061243Y-31849057D01*
X87051530Y-32099500D01*
X87049465Y-32152735D01*
X87049465Y-32152737D01*
X87049365Y-32155187D01*
X87049354Y-32155222D01*
X87049361Y-32155284D01*
X87037098Y-32457950D01*
X87037098Y-32457951D01*
X87036989Y-32460515D01*
X87036977Y-32460551D01*
X87036985Y-32460616D01*
X87024233Y-32761716D01*
X87010803Y-33064989D01*
X86996838Y-33366540D01*
X86982283Y-33667025D01*
X86982284Y-33667025D01*
X86967095Y-33966810D01*
X86951273Y-34265394D01*
X86934764Y-34563261D01*
X86917582Y-34859738D01*
X86899654Y-35155621D01*
X86892507Y-35268478D01*
X86880991Y-35450335D01*
X86861562Y-35743956D01*
X86861562Y-35743957D01*
X86856266Y-35820574D01*
X86841292Y-36037211D01*
X86820247Y-36328816D01*
X86799411Y-36605424D01*
X86798324Y-36619848D01*
X86775499Y-36910259D01*
X86765314Y-37034525D01*
X86755948Y-37148801D01*
X86751838Y-37198940D01*
X86727162Y-37487751D01*
X86701565Y-37775252D01*
X86690140Y-37898476D01*
X86674987Y-38061906D01*
X86658068Y-38237183D01*
X86647399Y-38347704D01*
X86618742Y-38633016D01*
X86589057Y-38917193D01*
X86558281Y-39200605D01*
X86526364Y-39483478D01*
X86493317Y-39765492D01*
X86459098Y-40046796D01*
X86423688Y-40327347D01*
X86387497Y-40603825D01*
X86386283Y-40610378D01*
X86365825Y-40695474D01*
X86357813Y-40718618D01*
X86330073Y-40779005D01*
X86317732Y-40800166D01*
X86271763Y-40863834D01*
X86255562Y-40882205D01*
X86206961Y-40927549D01*
X86187556Y-40942411D01*
X86119574Y-40984697D01*
X86101117Y-40994166D01*
X86063304Y-41009780D01*
X86043535Y-41016093D01*
X85963698Y-41034508D01*
X85943170Y-41037491D01*
X85893868Y-41040545D01*
X85889971Y-41040666D01*
X81766509Y-41040666D01*
X81764919Y-41040543D01*
X81756816Y-41040665D01*
X81756749Y-41040666D01*
X81754675Y-41040666D01*
X81753968Y-41040706D01*
X81616251Y-41042771D01*
X81614043Y-41042609D01*
X81605103Y-41042935D01*
X81604993Y-41042939D01*
X81604920Y-41042941D01*
X81604919Y-41042941D01*
X81601675Y-41043030D01*
X81600794Y-41043127D01*
X81462900Y-41049304D01*
X81460256Y-41049227D01*
X81453515Y-41049724D01*
X81446548Y-41050041D01*
X81443913Y-41050438D01*
X81306745Y-41060641D01*
X81305726Y-41060647D01*
X81302430Y-41060960D01*
X81302314Y-41060971D01*
X81302247Y-41060977D01*
X81302246Y-41060977D01*
X81299724Y-41061202D01*
X81299003Y-41061315D01*
X81161759Y-41075565D01*
X81159119Y-41075626D01*
X81151675Y-41076610D01*
X81151674Y-41076610D01*
X81151568Y-41076624D01*
X81151492Y-41076632D01*
X81151489Y-41076632D01*
X81149970Y-41076792D01*
X81148937Y-41076973D01*
X81011140Y-41095326D01*
X81009092Y-41095438D01*
X81001442Y-41096616D01*
X81001377Y-41096626D01*
X81001261Y-41096642D01*
X81001260Y-41096642D01*
X80998682Y-41096997D01*
X80997609Y-41097237D01*
X80860760Y-41119475D01*
X80859024Y-41119631D01*
X80851835Y-41120924D01*
X80851746Y-41120940D01*
X80851654Y-41120956D01*
X80851653Y-41120956D01*
X80849364Y-41121354D01*
X80848553Y-41121552D01*
X80707208Y-41148670D01*
X80705949Y-41148823D01*
X80702837Y-41149509D01*
X80701588Y-41149750D01*
X80700642Y-41149994D01*
X80611246Y-41169775D01*
X80557888Y-41181582D01*
X80556861Y-41181757D01*
X80554816Y-41182263D01*
X80551989Y-41182897D01*
X80550886Y-41183248D01*
X80443885Y-41210091D01*
X80411159Y-41218300D01*
X80410043Y-41218516D01*
X80407698Y-41219169D01*
X80405337Y-41219765D01*
X80404249Y-41220136D01*
X80265609Y-41259047D01*
X80264768Y-41259225D01*
X80261602Y-41260172D01*
X80258245Y-41261152D01*
X80257426Y-41261469D01*
X80120991Y-41303865D01*
X80119996Y-41304099D01*
X80116649Y-41305215D01*
X80113886Y-41306094D01*
X80112967Y-41306470D01*
X79982323Y-41351042D01*
X79980551Y-41351496D01*
X79973013Y-41354217D01*
X79973012Y-41354217D01*
X79972915Y-41354252D01*
X79972839Y-41354279D01*
X79972838Y-41354279D01*
X79965283Y-41356963D01*
X79963846Y-41357626D01*
X79840564Y-41403490D01*
X79838515Y-41404062D01*
X79830533Y-41407222D01*
X79827290Y-41408459D01*
X79826435Y-41408874D01*
X79692512Y-41462899D01*
X79691480Y-41463258D01*
X79689607Y-41464072D01*
X79686840Y-41465190D01*
X79685760Y-41465746D01*
X79553832Y-41523180D01*
X79552748Y-41523575D01*
X79550196Y-41524765D01*
X79548045Y-41525705D01*
X79547064Y-41526230D01*
X79415786Y-41587665D01*
X79415092Y-41587943D01*
X79412458Y-41589223D01*
X79410105Y-41590350D01*
X79409342Y-41590785D01*
X79279441Y-41655918D01*
X79278781Y-41656207D01*
X79276457Y-41657414D01*
X79273404Y-41658967D01*
X79272515Y-41659525D01*
X79150836Y-41724710D01*
X79148852Y-41725585D01*
X79142267Y-41729301D01*
X79139675Y-41730706D01*
X79138797Y-41731281D01*
X79055541Y-41778822D01*
X79013186Y-41803006D01*
X79012384Y-41803407D01*
X79010036Y-41804806D01*
X79007578Y-41806245D01*
X79006923Y-41806695D01*
X78883276Y-41881805D01*
X78882319Y-41882309D01*
X78879868Y-41883877D01*
X78873545Y-41887760D01*
X78871804Y-41889079D01*
X78754955Y-41964464D01*
X78753964Y-41965026D01*
X78751937Y-41966408D01*
X78751937Y-41966409D01*
X78751827Y-41966484D01*
X78751784Y-41966512D01*
X78751782Y-41966513D01*
X78750394Y-41967416D01*
X78749651Y-41967971D01*
X78634101Y-42047042D01*
X78632496Y-42047969D01*
X78626088Y-42052525D01*
X78623405Y-42054406D01*
X78622775Y-42054927D01*
X78582570Y-42084076D01*
X78505746Y-42139775D01*
X78505051Y-42140220D01*
X78502705Y-42141980D01*
X78500745Y-42143426D01*
X78500060Y-42144010D01*
X78384994Y-42232332D01*
X78384114Y-42232923D01*
X78381818Y-42234767D01*
X78381818Y-42234768D01*
X78381757Y-42234817D01*
X78379460Y-42236594D01*
X78378649Y-42237340D01*
X78266546Y-42328380D01*
X78265620Y-42329039D01*
X78263358Y-42330970D01*
X78262041Y-42332047D01*
X78261326Y-42332714D01*
X78150484Y-42427921D01*
X78149830Y-42428420D01*
X78147630Y-42430373D01*
X78145415Y-42432322D01*
X78144855Y-42432894D01*
X78037597Y-42530322D01*
X78036594Y-42531126D01*
X78034734Y-42532920D01*
X78034732Y-42532922D01*
X78034676Y-42532976D01*
X78034598Y-42533047D01*
X78034596Y-42533049D01*
X78033166Y-42534351D01*
X78032408Y-42535152D01*
X77926990Y-42636419D01*
X77926286Y-42637029D01*
X77924576Y-42638740D01*
X77922527Y-42640733D01*
X77921856Y-42641501D01*
X77820325Y-42744675D01*
X77819569Y-42745351D01*
X77817428Y-42747621D01*
X77815109Y-42750016D01*
X77814489Y-42750779D01*
X77715750Y-42856969D01*
X77715090Y-42857606D01*
X77713370Y-42859531D01*
X77708365Y-42865005D01*
X77707145Y-42866621D01*
X77619062Y-42966943D01*
X77617701Y-42968268D01*
X77612471Y-42974450D01*
X77610731Y-42976485D01*
X77610260Y-42977120D01*
X77517650Y-43088928D01*
X77516905Y-43089714D01*
X77514854Y-43092305D01*
X77513088Y-43094466D01*
X77512496Y-43095325D01*
X77421187Y-43212318D01*
X77420586Y-43213008D01*
X77419043Y-43215066D01*
X77417155Y-43217523D01*
X77416597Y-43218393D01*
X77333010Y-43332138D01*
X77331597Y-43333763D01*
X77326873Y-43340485D01*
X77326872Y-43340487D01*
X77326820Y-43340561D01*
X77326765Y-43340637D01*
X77326764Y-43340639D01*
X77322348Y-43346740D01*
X77321275Y-43348577D01*
X77240733Y-43465029D01*
X77240105Y-43465817D01*
X77238283Y-43468570D01*
X77238281Y-43468573D01*
X77238236Y-43468641D01*
X77238178Y-43468726D01*
X77238177Y-43468729D01*
X77233893Y-43475005D01*
X77232840Y-43476936D01*
X77158473Y-43591265D01*
X77157162Y-43592985D01*
X77153301Y-43599217D01*
X77151700Y-43601705D01*
X77151200Y-43602652D01*
X77073893Y-43729141D01*
X77073375Y-43729893D01*
X77072032Y-43732189D01*
X77067843Y-43739241D01*
X77067151Y-43740699D01*
X76996454Y-43863960D01*
X76995865Y-43864856D01*
X76994490Y-43867388D01*
X76990724Y-43874049D01*
X76989862Y-43875998D01*
X76922094Y-44002100D01*
X76921623Y-44002888D01*
X76920723Y-44004649D01*
X76920722Y-44004651D01*
X76920676Y-44004741D01*
X76920637Y-44004815D01*
X76920636Y-44004816D01*
X76919011Y-44007899D01*
X76918634Y-44008804D01*
X76851985Y-44141408D01*
X76851478Y-44142310D01*
X76850629Y-44144109D01*
X76849185Y-44146996D01*
X76848757Y-44148099D01*
X76785704Y-44282536D01*
X76785416Y-44283079D01*
X76784367Y-44285390D01*
X76782866Y-44288650D01*
X76782527Y-44289606D01*
X76722674Y-44426735D01*
X76722415Y-44427285D01*
X76721896Y-44428520D01*
X76720688Y-44431356D01*
X76720403Y-44432206D01*
X76664952Y-44569169D01*
X76664610Y-44569869D01*
X76663265Y-44573335D01*
X76659861Y-44582045D01*
X76659429Y-44583593D01*
X76611847Y-44710783D01*
X76611067Y-44712473D01*
X76608508Y-44719708D01*
X76605757Y-44727230D01*
X76605265Y-44729132D01*
X76558891Y-44863903D01*
X76558521Y-44864800D01*
X76557634Y-44867558D01*
X76555371Y-44874269D01*
X76554906Y-44876223D01*
X76511346Y-45014629D01*
X76511045Y-45015483D01*
X76510689Y-45016719D01*
X76509798Y-45019558D01*
X76509550Y-45020697D01*
X76468728Y-45163457D01*
X76468361Y-45164502D01*
X76467669Y-45167166D01*
X76466958Y-45169665D01*
X76466740Y-45170768D01*
X76429400Y-45315694D01*
X76429122Y-45316594D01*
X76428623Y-45318716D01*
X76426455Y-45327297D01*
X76426148Y-45329484D01*
X76394350Y-45467878D01*
X76394052Y-45468916D01*
X76393568Y-45471289D01*
X76391686Y-45479568D01*
X76391414Y-45481936D01*
X76363062Y-45622128D01*
X76362858Y-45622961D01*
X76362538Y-45624722D01*
X76361881Y-45628037D01*
X76361765Y-45629141D01*
X76336095Y-45775850D01*
X76335948Y-45776503D01*
X76335552Y-45778955D01*
X76335023Y-45782125D01*
X76334947Y-45783041D01*
X76313995Y-45924693D01*
X76313469Y-45927047D01*
X76312636Y-45933881D01*
X76312240Y-45936568D01*
X76312170Y-45937720D01*
X76294164Y-46086478D01*
X76293995Y-46087492D01*
X76293827Y-46089258D01*
X76293827Y-46089261D01*
X76293819Y-46089345D01*
X76293807Y-46089445D01*
X76293807Y-46089448D01*
X76293541Y-46091665D01*
X76293495Y-46092776D01*
X76279437Y-46241942D01*
X76279280Y-46243015D01*
X76279127Y-46245248D01*
X76278285Y-46254314D01*
X76278345Y-46256833D01*
X76268792Y-46398409D01*
X76268676Y-46399417D01*
X76268584Y-46401487D01*
X76268042Y-46409974D01*
X76268145Y-46412294D01*
X76262364Y-46554362D01*
X76262277Y-46555274D01*
X76262220Y-46557928D01*
X76261953Y-46566092D01*
X76262080Y-46568033D01*
X76260113Y-46710559D01*
X76260030Y-46711672D01*
X76260059Y-46714375D01*
X76260059Y-46714379D01*
X76260060Y-46714473D01*
X76260059Y-46714563D01*
X76260059Y-46714565D01*
X76259985Y-46721242D01*
X76260179Y-46723543D01*
X76262068Y-46866573D01*
X76262014Y-46867548D01*
X76262126Y-46870994D01*
X76262198Y-46874329D01*
X76262298Y-46875266D01*
X76268069Y-47018001D01*
X76267991Y-47020317D01*
X76268449Y-47027407D01*
X76268565Y-47030060D01*
X76268702Y-47031145D01*
X76278350Y-47173210D01*
X76278322Y-47175329D01*
X76279053Y-47183560D01*
X76279715Y-47192446D01*
X76280107Y-47194575D01*
X76293623Y-47335798D01*
X76293658Y-47336662D01*
X76293955Y-47339272D01*
X76293955Y-47339275D01*
X76293965Y-47339363D01*
X76293975Y-47339458D01*
X76293975Y-47339459D01*
X76294841Y-47347684D01*
X76295228Y-47349558D01*
X76312721Y-47490763D01*
X76312786Y-47491807D01*
X76313209Y-47494700D01*
X76314134Y-47501793D01*
X76314609Y-47503878D01*
X76336235Y-47645663D01*
X76336346Y-47646864D01*
X76336818Y-47649480D01*
X76337274Y-47652424D01*
X76337562Y-47653581D01*
X76352084Y-47733500D01*
X76364037Y-47799289D01*
X76364170Y-47800453D01*
X76364787Y-47803425D01*
X76364787Y-47803427D01*
X76364809Y-47803533D01*
X76364823Y-47803608D01*
X76364823Y-47803609D01*
X76366197Y-47810970D01*
X76366841Y-47813166D01*
X76395686Y-47949889D01*
X76395830Y-47950778D01*
X76396320Y-47952890D01*
X76396988Y-47955980D01*
X76397315Y-47957035D01*
X76429527Y-48091182D01*
X76429853Y-48093281D01*
X76431957Y-48101303D01*
X76434287Y-48110625D01*
X76434954Y-48112433D01*
X76470598Y-48244743D01*
X76470784Y-48245650D01*
X76471628Y-48248561D01*
X76474267Y-48258152D01*
X76475126Y-48260266D01*
X76514066Y-48390554D01*
X76514319Y-48391663D01*
X76515299Y-48394680D01*
X76517685Y-48402577D01*
X76518618Y-48404779D01*
X76559967Y-48530604D01*
X76560518Y-48532815D01*
X76562901Y-48539531D01*
X76566364Y-48549922D01*
X76567399Y-48552069D01*
X76610902Y-48673349D01*
X76611509Y-48675592D01*
X76614363Y-48682999D01*
X76617835Y-48692546D01*
X76618889Y-48694626D01*
X76625292Y-48711079D01*
X76668416Y-48821889D01*
X76668753Y-48822905D01*
X76669623Y-48824987D01*
X76672942Y-48833470D01*
X76674109Y-48835665D01*
X76727296Y-48962268D01*
X76727620Y-48963170D01*
X76728629Y-48965440D01*
X76733049Y-48975853D01*
X76734267Y-48977924D01*
X76789573Y-49100394D01*
X76789912Y-49101299D01*
X76791329Y-49104282D01*
X76796118Y-49114699D01*
X76797240Y-49116502D01*
X76853462Y-49232732D01*
X76854354Y-49234996D01*
X76857652Y-49241393D01*
X76862447Y-49251273D01*
X76863865Y-49253423D01*
X76922908Y-49367728D01*
X76923697Y-49369606D01*
X76927519Y-49376654D01*
X76932093Y-49385368D01*
X76933255Y-49387079D01*
X76996539Y-49502105D01*
X76998814Y-49506240D01*
X76999233Y-49507137D01*
X77000901Y-49510034D01*
X77006070Y-49519192D01*
X77007052Y-49520553D01*
X77072709Y-49632839D01*
X77073648Y-49634777D01*
X77077654Y-49641299D01*
X77077655Y-49641301D01*
X77077690Y-49641358D01*
X77077750Y-49641460D01*
X77077751Y-49641461D01*
X77081361Y-49647600D01*
X77082708Y-49649449D01*
X77155771Y-49767236D01*
X77156386Y-49768379D01*
X77157892Y-49770653D01*
X77163356Y-49779533D01*
X77165229Y-49781820D01*
X77173324Y-49794140D01*
X77237293Y-49891500D01*
X77238954Y-49894027D01*
X77239596Y-49895169D01*
X77241390Y-49897736D01*
X77246765Y-49905950D01*
X77248576Y-49908073D01*
X77325738Y-50019082D01*
X77326362Y-50020117D01*
X77328164Y-50022572D01*
X77334822Y-50032133D01*
X77336608Y-50034067D01*
X77415961Y-50142093D01*
X77416647Y-50143147D01*
X77418088Y-50144990D01*
X77423313Y-50152134D01*
X77425202Y-50154160D01*
X77508499Y-50261541D01*
X77509273Y-50262691D01*
X77511191Y-50265010D01*
X77518351Y-50274362D01*
X77520701Y-50276627D01*
X77601213Y-50374971D01*
X77602579Y-50376923D01*
X77607338Y-50382453D01*
X77614922Y-50391671D01*
X77616784Y-50393389D01*
X77699686Y-50489376D01*
X77701233Y-50491494D01*
X77706502Y-50497268D01*
X77713509Y-50505396D01*
X77715587Y-50507241D01*
X77805924Y-50606403D01*
X77806729Y-50607404D01*
X77808596Y-50609335D01*
X77813500Y-50614744D01*
X77815513Y-50616535D01*
X77910524Y-50715409D01*
X77911352Y-50716398D01*
X77913529Y-50718538D01*
X77913530Y-50718540D01*
X77913590Y-50718599D01*
X77913660Y-50718672D01*
X77913661Y-50718672D01*
X77918178Y-50723383D01*
X77920118Y-50725040D01*
X78014529Y-50818168D01*
X78016129Y-50820006D01*
X78021431Y-50824976D01*
X78027593Y-50831022D01*
X78029493Y-50832511D01*
X78124300Y-50921121D01*
X78125944Y-50922934D01*
X78132014Y-50928330D01*
X78137766Y-50933670D01*
X78139639Y-50935078D01*
X78236922Y-51021176D01*
X78238991Y-51023359D01*
X78245218Y-51028523D01*
X78245219Y-51028524D01*
X78245301Y-51028592D01*
X78253878Y-51036281D01*
X78256667Y-51038110D01*
X78351899Y-51117859D01*
X78353867Y-51119856D01*
X78361147Y-51125608D01*
X78361148Y-51125609D01*
X78361229Y-51125673D01*
X78361291Y-51125725D01*
X78361292Y-51125725D01*
X78369869Y-51132919D01*
X78372307Y-51134443D01*
X78433825Y-51183139D01*
X78459041Y-51203100D01*
X78476498Y-51216918D01*
X78477389Y-51217721D01*
X78479737Y-51219482D01*
X78488944Y-51226736D01*
X78491243Y-51228080D01*
X78590508Y-51302262D01*
X78597119Y-51307202D01*
X78598094Y-51308043D01*
X78600761Y-51309924D01*
X78609290Y-51316290D01*
X78611724Y-51317647D01*
X78715387Y-51390674D01*
X78717493Y-51392444D01*
X78724248Y-51396917D01*
X78732716Y-51402887D01*
X78735264Y-51404220D01*
X78838983Y-51472974D01*
X78840971Y-51474616D01*
X78850058Y-51480318D01*
X78850059Y-51480319D01*
X78850110Y-51480351D01*
X78850213Y-51480419D01*
X78859032Y-51486241D01*
X78861484Y-51487431D01*
X78967685Y-51553538D01*
X78970091Y-51555387D01*
X78978352Y-51560177D01*
X78985942Y-51564921D01*
X78988624Y-51566166D01*
X79090697Y-51625681D01*
X79100045Y-51631131D01*
X79102255Y-51632669D01*
X79108841Y-51636261D01*
X79116302Y-51640593D01*
X79118880Y-51641707D01*
X79252213Y-51714048D01*
X79254753Y-51715702D01*
X79261245Y-51718949D01*
X79270455Y-51723960D01*
X79273514Y-51725101D01*
X79405845Y-51791460D01*
X79408659Y-51793206D01*
X79416131Y-51796619D01*
X79424443Y-51800825D01*
X79427619Y-51801925D01*
X79564274Y-51865045D01*
X79567123Y-51866644D01*
X79572084Y-51868711D01*
X79574722Y-51869882D01*
X79580630Y-51872668D01*
X79583986Y-51873744D01*
X79722513Y-51932428D01*
X79725215Y-51933865D01*
X79732759Y-51936772D01*
X79732760Y-51936773D01*
X79732856Y-51936810D01*
X79739951Y-51939823D01*
X79742833Y-51940666D01*
X79885407Y-51995772D01*
X79888406Y-51997198D01*
X79892902Y-51998732D01*
X79895726Y-51999771D01*
X79903439Y-52002821D01*
X79907006Y-52003661D01*
X80047160Y-52052768D01*
X80049957Y-52054032D01*
X80057673Y-52056453D01*
X80067744Y-52059999D01*
X80070942Y-52060634D01*
X80218451Y-52107115D01*
X80219962Y-52107708D01*
X80221268Y-52108063D01*
X80224107Y-52108906D01*
X80230342Y-52110918D01*
X80233722Y-52111545D01*
X80378978Y-52152296D01*
X80381975Y-52153414D01*
X80389159Y-52155155D01*
X80389161Y-52155157D01*
X80389260Y-52155181D01*
X80389337Y-52155203D01*
X80389338Y-52155202D01*
X80396751Y-52157321D01*
X80399991Y-52157827D01*
X80546545Y-52193962D01*
X80549580Y-52194993D01*
X80557164Y-52196581D01*
X80566915Y-52199018D01*
X80570259Y-52199371D01*
X80716366Y-52230506D01*
X80719107Y-52231322D01*
X80726283Y-52232620D01*
X80736596Y-52234803D01*
X80739627Y-52235020D01*
X80884823Y-52261151D01*
X80888257Y-52262103D01*
X80894986Y-52263038D01*
X80897791Y-52263492D01*
X80906479Y-52265100D01*
X80910004Y-52265235D01*
X81057082Y-52286874D01*
X81060037Y-52287560D01*
X81067439Y-52288398D01*
X81076930Y-52289808D01*
X81080146Y-52289851D01*
X81227496Y-52306712D01*
X81230865Y-52307415D01*
X81239110Y-52308043D01*
X81248510Y-52309158D01*
X81251942Y-52309092D01*
X81400431Y-52321242D01*
X81403785Y-52321810D01*
X81409819Y-52322070D01*
X81412899Y-52322279D01*
X81419873Y-52322922D01*
X81423649Y-52322742D01*
X81571952Y-52330035D01*
X81575380Y-52330529D01*
X81583847Y-52330623D01*
X81583848Y-52330624D01*
X81583938Y-52330625D01*
X81584030Y-52330630D01*
X81584030Y-52330629D01*
X81591365Y-52331028D01*
X81594694Y-52330802D01*
X81739024Y-52333175D01*
X81740884Y-52333467D01*
X81756693Y-52333467D01*
X81756815Y-52333469D01*
X81756815Y-52333468D01*
X81766554Y-52333628D01*
X81768330Y-52333467D01*
X82432184Y-52333467D01*
X82438692Y-52333804D01*
X82475752Y-52337650D01*
X82525835Y-52342848D01*
X82549824Y-52347730D01*
X82613348Y-52367252D01*
X82635938Y-52376683D01*
X82705136Y-52413845D01*
X82725484Y-52427475D01*
X82776837Y-52469647D01*
X82794167Y-52486961D01*
X82844065Y-52547601D01*
X82857716Y-52567937D01*
X82889209Y-52626440D01*
X82898669Y-52649036D01*
X82921813Y-52724091D01*
X82926721Y-52748088D01*
X82933647Y-52814184D01*
X82933822Y-52838656D01*
X82926473Y-52919956D01*
X82920668Y-52948008D01*
X82900237Y-53010068D01*
X82895765Y-53023658D01*
X82892416Y-53033830D01*
X82889792Y-53040497D01*
X82888477Y-53043349D01*
X82886817Y-53046954D01*
X82878996Y-53063406D01*
X82830090Y-53166274D01*
X82774455Y-53282593D01*
X82719076Y-53397624D01*
X82664555Y-53510083D01*
X82664555Y-53510084D01*
X82636263Y-53568011D01*
X82610335Y-53621099D01*
X82556636Y-53730194D01*
X82503114Y-53838039D01*
X82449976Y-53944203D01*
X82396765Y-54049569D01*
X82343589Y-54153904D01*
X82290559Y-54256981D01*
X82237236Y-54359630D01*
X82224017Y-54384831D01*
X82183735Y-54461622D01*
X82129898Y-54563239D01*
X82075620Y-54664675D01*
X82061044Y-54691643D01*
X82020789Y-54766122D01*
X81965484Y-54867433D01*
X81909419Y-54969124D01*
X81852527Y-55071315D01*
X81794845Y-55173928D01*
X81736128Y-55277406D01*
X81676400Y-55381706D01*
X81615600Y-55486932D01*
X81553496Y-55593494D01*
X81490073Y-55701421D01*
X81425185Y-55810965D01*
X81358762Y-55922250D01*
X81290920Y-56035093D01*
X81221179Y-56150297D01*
X81149749Y-56267530D01*
X81076749Y-56386609D01*
X81003842Y-56504856D01*
X80996874Y-56516066D01*
X80858158Y-56738370D01*
X80846587Y-56756914D01*
X80684018Y-57012591D01*
X80593257Y-57152594D01*
X80513592Y-57275477D01*
X80439679Y-57387243D01*
X80335080Y-57545407D01*
X80148327Y-57822098D01*
X79953124Y-58105361D01*
X79749212Y-58395068D01*
X79536381Y-58691025D01*
X79314522Y-58992896D01*
X79083338Y-59300612D01*
X78842630Y-59613957D01*
X78592211Y-59932711D01*
X78331808Y-60256755D01*
X78061355Y-60585719D01*
X77780475Y-60919611D01*
X77489074Y-61258096D01*
X77186871Y-61601063D01*
X76873733Y-61948229D01*
X76549413Y-62299444D01*
X76213720Y-62654493D01*
X75866312Y-63013313D01*
X75507191Y-63375494D01*
X75136053Y-63740938D01*
X74752689Y-64109448D01*
X74356844Y-64480875D01*
X73948362Y-64854968D01*
X73527064Y-65231506D01*
X73092703Y-65610328D01*
X72645031Y-65991271D01*
X72183928Y-66374064D01*
X71974328Y-66543800D01*
X71709091Y-66758591D01*
X71675077Y-66785457D01*
X71641526Y-66811956D01*
X70811481Y-67459762D01*
X70745798Y-67510389D01*
X70267456Y-67870390D01*
X69785401Y-68224664D01*
X69299668Y-68573284D01*
X68810345Y-68916285D01*
X68317452Y-69253749D01*
X67821141Y-69585666D01*
X67321481Y-69912090D01*
X66818482Y-70233105D01*
X66481256Y-70443364D01*
X66312164Y-70548792D01*
X65802669Y-70859149D01*
X65290154Y-71164178D01*
X64774589Y-71463985D01*
X64255890Y-71758708D01*
X63734426Y-72048222D01*
X63210079Y-72332684D01*
X62682863Y-72612168D01*
X62153123Y-72886581D01*
X62153124Y-72886581D01*
X62153114Y-72886586D01*
X61620571Y-73156155D01*
X61085502Y-73420823D01*
X60547834Y-73680709D01*
X60007808Y-73935777D01*
X59465501Y-74186077D01*
X58920705Y-74431782D01*
X58373810Y-74672797D01*
X57824645Y-74909278D01*
X57273561Y-75141151D01*
X56720252Y-75368624D01*
X56165137Y-75591603D01*
X55607942Y-75810273D01*
X55049091Y-76024544D01*
X54491490Y-76233403D01*
X54485043Y-76235431D01*
X54400299Y-76257172D01*
X54376094Y-76260923D01*
X54309760Y-76264670D01*
X54285287Y-76263668D01*
X54207498Y-76252843D01*
X54183679Y-76247124D01*
X54144008Y-76233403D01*
X54120885Y-76225405D01*
X54098627Y-76215187D01*
X54030778Y-76175643D01*
X54010915Y-76161311D01*
X53961060Y-76117373D01*
X53944346Y-76099469D01*
X53896585Y-76037119D01*
X53883652Y-76016320D01*
X53869777Y-75988242D01*
X53854216Y-75956754D01*
X53845552Y-75933849D01*
X53824860Y-75857386D01*
X53820895Y-75834613D01*
X53818281Y-75802182D01*
X53815581Y-75768678D01*
X53815377Y-75763615D01*
X53815377Y-74256008D01*
X53794513Y-74004214D01*
X53790857Y-73918377D01*
X53786129Y-73903040D01*
X53777804Y-73802568D01*
X53773264Y-73775364D01*
X53733904Y-73539488D01*
X53723817Y-73460720D01*
X53718569Y-73447591D01*
X53702912Y-73353761D01*
X53633717Y-73080516D01*
X53618457Y-73009711D01*
X53613044Y-72998880D01*
X53591215Y-72912679D01*
X53591213Y-72912673D01*
X53591214Y-72912674D01*
X53517456Y-72697828D01*
X53494402Y-72630673D01*
X53475568Y-72569173D01*
X53470338Y-72560578D01*
X53443474Y-72482325D01*
X53443474Y-72482326D01*
X53316585Y-72193048D01*
X53296154Y-72142204D01*
X53291455Y-72135758D01*
X53260702Y-72065647D01*
X53101034Y-71770607D01*
X53081468Y-71731802D01*
X53077634Y-71727368D01*
X53044143Y-71665482D01*
X53044141Y-71665479D01*
X53044140Y-71665477D01*
X53044141Y-71665478D01*
X52910940Y-71461599D01*
X52848730Y-71366380D01*
X52833047Y-71340908D01*
X52830389Y-71338307D01*
X52795279Y-71284567D01*
X52795276Y-71284563D01*
X52560705Y-70983185D01*
X52552642Y-70972284D01*
X52551452Y-70971297D01*
X52515812Y-70925506D01*
X52515812Y-70925507D01*
X52515810Y-70925504D01*
X52207643Y-70590747D01*
X51872886Y-70282580D01*
X51513823Y-70003111D01*
X51269872Y-69843730D01*
X51132912Y-69754249D01*
X51132913Y-69754250D01*
X51132908Y-69754247D01*
X50732743Y-69537688D01*
X50316064Y-69354916D01*
X50316065Y-69354916D01*
X49885716Y-69207176D01*
X49659679Y-69149936D01*
X49444629Y-69095478D01*
X48995830Y-69020587D01*
X48995826Y-69020586D01*
X48995822Y-69020586D01*
X48542382Y-68983013D01*
X48542379Y-68983013D01*
X48087375Y-68983013D01*
X48087372Y-68983013D01*
X47633932Y-69020586D01*
X47633927Y-69020586D01*
X47633924Y-69020587D01*
X47185125Y-69095478D01*
X46970074Y-69149936D01*
X46744038Y-69207176D01*
X46313689Y-69354916D01*
X46313690Y-69354916D01*
X45897011Y-69537688D01*
X45496846Y-69754247D01*
X45496841Y-69754250D01*
X45496842Y-69754249D01*
X45359882Y-69843730D01*
X45115931Y-70003111D01*
X44756868Y-70282580D01*
X44422111Y-70590747D01*
X44113944Y-70925504D01*
X44113942Y-70925507D01*
X44078299Y-70971300D01*
X44077314Y-70972008D01*
X44069041Y-70983195D01*
X43834478Y-71284563D01*
X43799361Y-71338312D01*
X43797136Y-71340210D01*
X43781003Y-71366411D01*
X43585614Y-71665477D01*
X43585613Y-71665478D01*
X43552118Y-71727370D01*
X43548868Y-71730643D01*
X43528711Y-71770622D01*
X43477074Y-71866040D01*
X43369052Y-72065647D01*
X43369052Y-72065648D01*
X43338297Y-72135760D01*
X43334256Y-72140567D01*
X43313155Y-72193078D01*
X43186280Y-72482326D01*
X43186280Y-72482325D01*
X43159414Y-72560583D01*
X43154835Y-72567047D01*
X43135332Y-72630730D01*
X43038541Y-72912673D01*
X43038540Y-72912674D01*
X43016708Y-72998883D01*
X43011861Y-73007086D01*
X42996027Y-73080552D01*
X42926842Y-73353762D01*
X42911182Y-73447600D01*
X42906331Y-73457616D01*
X42895841Y-73539535D01*
X42851950Y-73802568D01*
X42843572Y-73903676D01*
X42839019Y-73915474D01*
X42835238Y-74004241D01*
X42814377Y-74256008D01*
X42814377Y-77691886D01*
X42814040Y-77698396D01*
X42804993Y-77785537D01*
X42800109Y-77809537D01*
X42780593Y-77873046D01*
X42771156Y-77895650D01*
X42733997Y-77964841D01*
X42720364Y-77985193D01*
X42678193Y-78036543D01*
X42660881Y-78053871D01*
X42600241Y-78103769D01*
X42579907Y-78117419D01*
X42521224Y-78149010D01*
X42498998Y-78158355D01*
X42427128Y-78180760D01*
X42402395Y-78185821D01*
X42398659Y-78186202D01*
X42281484Y-78194558D01*
X42277094Y-78194718D01*
X42272482Y-78194724D01*
X42272172Y-78194724D01*
X42272172Y-78194714D01*
X42272098Y-78194724D01*
X42272058Y-78194725D01*
X42272057Y-78194725D01*
X42170740Y-78194790D01*
X42170740Y-78194786D01*
X42170709Y-78194790D01*
X42170700Y-78194791D01*
X42170699Y-78194791D01*
X42141270Y-78194796D01*
X42030533Y-78194771D01*
X41927893Y-78194675D01*
X41803963Y-78194494D01*
X41702606Y-78194328D01*
X41594202Y-78194169D01*
X41474068Y-78194040D01*
X41373449Y-78193977D01*
X41261618Y-78193955D01*
X41261444Y-78193955D01*
X41261420Y-78193955D01*
X41261419Y-78193955D01*
X41225476Y-78193956D01*
X41225475Y-78193956D01*
X41115171Y-78193975D01*
X41115170Y-78193975D01*
X41007626Y-78194008D01*
X41007625Y-78194008D01*
X40896882Y-78194056D01*
X40896881Y-78194056D01*
X40789710Y-78194116D01*
X40789709Y-78194116D01*
X40716375Y-78194169D01*
X40716374Y-78194169D01*
X40567392Y-78194317D01*
X40567391Y-78194317D01*
X40416119Y-78194514D01*
X40416118Y-78194514D01*
X40263517Y-78194755D01*
X40263516Y-78194755D01*
X40110541Y-78195034D01*
X40110540Y-78195034D01*
X39958149Y-78195345D01*
X39958147Y-78195345D01*
X39807298Y-78195681D01*
X39807296Y-78195681D01*
X39658945Y-78196039D01*
X39658943Y-78196039D01*
X39514048Y-78196410D01*
X39514046Y-78196410D01*
X39373564Y-78196790D01*
X39373562Y-78196790D01*
X39238450Y-78197174D01*
X39238448Y-78197174D01*
X39109663Y-78197554D01*
X39109661Y-78197554D01*
X38988160Y-78197926D01*
X38988158Y-78197926D01*
X38874900Y-78198283D01*
X38874898Y-78198283D01*
X38770839Y-78198619D01*
X38770837Y-78198619D01*
X38634091Y-78199074D01*
X38634089Y-78199074D01*
X38521875Y-78199455D01*
X38521873Y-78199455D01*
X38409933Y-78199842D01*
X38409931Y-78199842D01*
X38298257Y-78200235D01*
X38298255Y-78200235D01*
X38186837Y-78200635D01*
X38186835Y-78200635D01*
X38075666Y-78201041D01*
X38075664Y-78201041D01*
X37964734Y-78201454D01*
X37964732Y-78201454D01*
X37854033Y-78201873D01*
X37854030Y-78201873D01*
X37746702Y-78202286D01*
X37740659Y-78202019D01*
X37661503Y-78194703D01*
X37631671Y-78188233D01*
X37474676Y-78133576D01*
X37471798Y-78132495D01*
X37463744Y-78129243D01*
X37370390Y-78090800D01*
X37276269Y-78051282D01*
X37181148Y-78010564D01*
X37087849Y-77969870D01*
X36994765Y-77928525D01*
X36901845Y-77886507D01*
X36809082Y-77843811D01*
X36716616Y-77800501D01*
X36624383Y-77756547D01*
X36532448Y-77711980D01*
X36440640Y-77666716D01*
X36349201Y-77620876D01*
X36257898Y-77574339D01*
X36166976Y-77527233D01*
X36076110Y-77479385D01*
X35985666Y-77430989D01*
X35895494Y-77381965D01*
X35805626Y-77332328D01*
X35716079Y-77282090D01*
X35626762Y-77231198D01*
X35537739Y-77179687D01*
X35449083Y-77127598D01*
X35360665Y-77074857D01*
X35272517Y-77021477D01*
X35184796Y-76967555D01*
X35097261Y-76912942D01*
X35010118Y-76857764D01*
X34923376Y-76802025D01*
X34836865Y-76745619D01*
X34750733Y-76688637D01*
X34750732Y-76688637D01*
X34665040Y-76631120D01*
X34580821Y-76573771D01*
X34579482Y-76572859D01*
X34521930Y-76533103D01*
X34494437Y-76514112D01*
X34409787Y-76454798D01*
X34409786Y-76454797D01*
X34331380Y-76399072D01*
X34315615Y-76387743D01*
X34185515Y-76293639D01*
X34185514Y-76293639D01*
X34043825Y-76188967D01*
X33900384Y-76080705D01*
X33755294Y-75968795D01*
X33608435Y-75853003D01*
X33460017Y-75733352D01*
X33310016Y-75609682D01*
X33289765Y-75592605D01*
X33158446Y-75481865D01*
X33005437Y-75349866D01*
X32851026Y-75213571D01*
X32695167Y-75072800D01*
X32537947Y-74927479D01*
X32379472Y-74777563D01*
X32219702Y-74622865D01*
X32058765Y-74463360D01*
X31896669Y-74298909D01*
X31733406Y-74129351D01*
X31569098Y-73954659D01*
X31403816Y-73774759D01*
X31237529Y-73589463D01*
X31070258Y-73398638D01*
X30902147Y-73202291D01*
X30733186Y-73000252D01*
X30563429Y-72792427D01*
X30392884Y-72578667D01*
X30221668Y-72358953D01*
X30049758Y-72133093D01*
X29877278Y-71901086D01*
X29704217Y-71662754D01*
X29530634Y-71418007D01*
X29356514Y-71166658D01*
X29182108Y-70908894D01*
X29164039Y-70881840D01*
X29092572Y-70774171D01*
X29020956Y-70665202D01*
X28949053Y-70554707D01*
X28877050Y-70442949D01*
X28873505Y-70437399D01*
X28822876Y-70358127D01*
X28822875Y-70358126D01*
X28768815Y-70272848D01*
X28768815Y-70272847D01*
X28714468Y-70186472D01*
X28687718Y-70143635D01*
X28660165Y-70099511D01*
X28607379Y-70014349D01*
X28604547Y-70009270D01*
X28570864Y-69941664D01*
X28561044Y-69914556D01*
X28523760Y-69757316D01*
X28521619Y-69746138D01*
X28521620Y-69746136D01*
X28497545Y-69620449D01*
X28481698Y-69537688D01*
X28465676Y-69454014D01*
X28465677Y-69454013D01*
X28437727Y-69307982D01*
X28437728Y-69307980D01*
X28411916Y-69173066D01*
X28378285Y-68997210D01*
X28362985Y-68917176D01*
X28353942Y-68869869D01*
X28353941Y-68869868D01*
X28326061Y-68723973D01*
X28322507Y-68705373D01*
X28297056Y-68572142D01*
X28269046Y-68425459D01*
X28242852Y-68288234D01*
X28242340Y-68285121D01*
X28236035Y-68239695D01*
X28235480Y-68233351D01*
X28235118Y-68223422D01*
X28235333Y-68078115D01*
X28235892Y-68040140D01*
X28238170Y-67894120D01*
X28240557Y-67747787D01*
X28240556Y-67747786D01*
X28240592Y-67745620D01*
X28241191Y-67710062D01*
X28243026Y-67601125D01*
X28243025Y-67601123D01*
X28245550Y-67454125D01*
X28245707Y-67445000D01*
X28248101Y-67306772D01*
X28248100Y-67306771D01*
X28248364Y-67291563D01*
X28248363Y-67291546D01*
X28250653Y-67159054D01*
X28250652Y-67159053D01*
X28250915Y-67143883D01*
X28250911Y-67143845D01*
X28253178Y-67010955D01*
X28253177Y-67010953D01*
X28253177Y-67010941D01*
X28253435Y-66995822D01*
X28253429Y-66995771D01*
X28255649Y-66862466D01*
X28255648Y-66862465D01*
X28255900Y-66847381D01*
X28255891Y-66847297D01*
X28256292Y-66822320D01*
X28258038Y-66713573D01*
X28258037Y-66713570D01*
X28258037Y-66713557D01*
X28258206Y-66703058D01*
X28258199Y-66702949D01*
X28259612Y-66610408D01*
X28259939Y-66588991D01*
X28259966Y-66588863D01*
X28260795Y-66531035D01*
X28262109Y-66439273D01*
X28262139Y-66439129D01*
X28262461Y-66414717D01*
X28262462Y-66414717D01*
X28264119Y-66289115D01*
X28264153Y-66288953D01*
X28264443Y-66264531D01*
X28264445Y-66264530D01*
X28266240Y-66113691D01*
X28267816Y-65962578D01*
X28267815Y-65962577D01*
X28268077Y-65937490D01*
X28268037Y-65937278D01*
X28269275Y-65796380D01*
X28269249Y-65796145D01*
X28270207Y-65658893D01*
X28270206Y-65658892D01*
X28270206Y-65658886D01*
X28270380Y-65633982D01*
X28270331Y-65633729D01*
X28270893Y-65520930D01*
X28270927Y-65520661D01*
X28271330Y-65378269D01*
X28271388Y-65377981D01*
X28271401Y-65353371D01*
X28271402Y-65353371D01*
X28271485Y-65199519D01*
X28271484Y-65199518D01*
X28271498Y-65174911D01*
X28271435Y-65174600D01*
X28271186Y-65045317D01*
X28271185Y-65045314D01*
X28271184Y-65045161D01*
X28271166Y-65035710D01*
X28271139Y-65035393D01*
X28270480Y-64890555D01*
X28270479Y-64890554D01*
X28270416Y-64876555D01*
X28270373Y-64876207D01*
X28269525Y-64760619D01*
X28269596Y-64760251D01*
X28268955Y-64697887D01*
X28267736Y-64579296D01*
X28267735Y-64579294D01*
X28267594Y-64565535D01*
X28267546Y-64565146D01*
X28266430Y-64481594D01*
X28265645Y-64422773D01*
X28265644Y-64422772D01*
X28265324Y-64398765D01*
X28265238Y-64398362D01*
X28263462Y-64291325D01*
X28263540Y-64290905D01*
X28263039Y-64265835D01*
X28263040Y-64265835D01*
X28259885Y-64107879D01*
X28259618Y-64094504D01*
X28259559Y-64094069D01*
X28256163Y-63949480D01*
X28255609Y-63925891D01*
X28255508Y-63925434D01*
X28252548Y-63816445D01*
X28252632Y-63815971D01*
X28251847Y-63790627D01*
X28251848Y-63790627D01*
X28246897Y-63630717D01*
X28246896Y-63630715D01*
X28246635Y-63622266D01*
X28246584Y-63621784D01*
X28241305Y-63470545D01*
X28241298Y-63470325D01*
X28241297Y-63470324D01*
X28240851Y-63457523D01*
X28240780Y-63457034D01*
X28234123Y-63286168D01*
X28234018Y-63285717D01*
X28230836Y-63211079D01*
X28230903Y-63210678D01*
X28229708Y-63184595D01*
X28223995Y-63059923D01*
X28223994Y-63059921D01*
X28223417Y-63047330D01*
X28223357Y-63046939D01*
X28217882Y-62935343D01*
X28217881Y-62935342D01*
X28216762Y-62912531D01*
X28216666Y-62912127D01*
X28212764Y-62837634D01*
X28212829Y-62837217D01*
X28211367Y-62810999D01*
X28211369Y-62810998D01*
X28204420Y-62686291D01*
X28204419Y-62686289D01*
X28204409Y-62686133D01*
X28203736Y-62674042D01*
X28203670Y-62673628D01*
X28202330Y-62650970D01*
X28198387Y-62584280D01*
X28195731Y-62539356D01*
X28195626Y-62538930D01*
X28195404Y-62535375D01*
X28189269Y-62437320D01*
X28189268Y-62437319D01*
X28188270Y-62421362D01*
X28188184Y-62420926D01*
X28187644Y-62412757D01*
X28182154Y-62329663D01*
X28182184Y-62329228D01*
X28180202Y-62300762D01*
X28172376Y-62188348D01*
X28172375Y-62188347D01*
X28170840Y-62166286D01*
X28170727Y-62165844D01*
X28165269Y-62091302D01*
X28165334Y-62090851D01*
X28163273Y-62064032D01*
X28163274Y-62064032D01*
X28153688Y-61939296D01*
X28153687Y-61939294D01*
X28153683Y-61939253D01*
X28152802Y-61927780D01*
X28152724Y-61927336D01*
X28144681Y-61827467D01*
X28144690Y-61827005D01*
X28142350Y-61799230D01*
X28133153Y-61690083D01*
X28133152Y-61690082D01*
X28131338Y-61668549D01*
X28131216Y-61668091D01*
X28123714Y-61582880D01*
X28123738Y-61582411D01*
X28118734Y-61527923D01*
X28110718Y-61440632D01*
X28110717Y-61440630D01*
X28110715Y-61440618D01*
X28109707Y-61429633D01*
X28109620Y-61429169D01*
X28106076Y-61392129D01*
X28098771Y-61315792D01*
X28098770Y-61315791D01*
X28096742Y-61294593D01*
X28096625Y-61294167D01*
X28093314Y-61260787D01*
X28088843Y-61215708D01*
X28088841Y-61215706D01*
X28087371Y-61200878D01*
X28087284Y-61200493D01*
X28085629Y-61184324D01*
X28080442Y-61133639D01*
X28080458Y-61133237D01*
X28065854Y-60994823D01*
X28065745Y-60994440D01*
X28059175Y-60933990D01*
X28059188Y-60933593D01*
X28057226Y-60916057D01*
X28057227Y-60916056D01*
X28046035Y-60816022D01*
X28046034Y-60816020D01*
X28046028Y-60815968D01*
X28044863Y-60805555D01*
X28044784Y-60805165D01*
X28037854Y-60744963D01*
X28037899Y-60744562D01*
X28034569Y-60716421D01*
X28034570Y-60716421D01*
X28022742Y-60616470D01*
X28022741Y-60616468D01*
X28021528Y-60606217D01*
X28021447Y-60605830D01*
X28020646Y-60599240D01*
X28010615Y-60516743D01*
X28010614Y-60516742D01*
X28008138Y-60496379D01*
X28008022Y-60495987D01*
X28001788Y-60446061D01*
X28001831Y-60445651D01*
X27998180Y-60417165D01*
X27987786Y-60336053D01*
X27987794Y-60335639D01*
X27969655Y-60197657D01*
X27969534Y-60197262D01*
X27969518Y-60197146D01*
X27962802Y-60147314D01*
X27962842Y-60146899D01*
X27958879Y-60118205D01*
X27958881Y-60118204D01*
X27945090Y-60018335D01*
X27945089Y-60018334D01*
X27945073Y-60018225D01*
X27942356Y-59998545D01*
X27942234Y-59998154D01*
X27930990Y-59918650D01*
X27930989Y-59918649D01*
X27928206Y-59898970D01*
X27928083Y-59898579D01*
X27916555Y-59818950D01*
X27916554Y-59818948D01*
X27915196Y-59809566D01*
X27915105Y-59809168D01*
X27909773Y-59773178D01*
X27901780Y-59719227D01*
X27901779Y-59719226D01*
X27898900Y-59699792D01*
X27898772Y-59699392D01*
X27886020Y-59615270D01*
X27884043Y-59602227D01*
X27883929Y-59601802D01*
X27881507Y-59586187D01*
X27869909Y-59511412D01*
X27869908Y-59511411D01*
X27866933Y-59492231D01*
X27866798Y-59491813D01*
X27865742Y-59485154D01*
X27853446Y-59407639D01*
X27853445Y-59407637D01*
X27853433Y-59407567D01*
X27852031Y-59398725D01*
X27851934Y-59398324D01*
X27836630Y-59303941D01*
X27836628Y-59303938D01*
X27834570Y-59291243D01*
X27834456Y-59290829D01*
X27819458Y-59200305D01*
X27819457Y-59200303D01*
X27819450Y-59200267D01*
X27818015Y-59191600D01*
X27817915Y-59191192D01*
X27813195Y-59163298D01*
X27804530Y-59112084D01*
X27804510Y-59111655D01*
X27801963Y-59096912D01*
X27801964Y-59096911D01*
X27789287Y-59023515D01*
X27789317Y-59023073D01*
X27783359Y-58989268D01*
X27769339Y-58909728D01*
X27769336Y-58909420D01*
X27763817Y-58878542D01*
X27763836Y-58878237D01*
X27758392Y-58848190D01*
X27758393Y-58848190D01*
X27743166Y-58764149D01*
X27743158Y-58763722D01*
X27739545Y-58744157D01*
X27739546Y-58744156D01*
X27725981Y-58670703D01*
X27726007Y-58670265D01*
X27706569Y-58566975D01*
X27706593Y-58566540D01*
X27683961Y-58448458D01*
X27683935Y-58448039D01*
X27680558Y-58430734D01*
X27660704Y-58328979D01*
X27644196Y-58245847D01*
X27644187Y-58245540D01*
X27627091Y-58160510D01*
X27626978Y-58160197D01*
X27624703Y-58149031D01*
X27613160Y-58092382D01*
X27613181Y-58091912D01*
X27606852Y-58061424D01*
X27606853Y-58061424D01*
X27586883Y-57965228D01*
X27586866Y-57964770D01*
X27582589Y-57944538D01*
X27582590Y-57944537D01*
X27557874Y-57827609D01*
X27557873Y-57827608D01*
X27554228Y-57810361D01*
X27554072Y-57809941D01*
X27539550Y-57742438D01*
X27539567Y-57741985D01*
X27532828Y-57711192D01*
X27532829Y-57711192D01*
X27511925Y-57615676D01*
X27511906Y-57615237D01*
X27478977Y-57467239D01*
X27478862Y-57466882D01*
X27466655Y-57412757D01*
X27463590Y-57399167D01*
X27463589Y-57399166D01*
X27459778Y-57382267D01*
X27459648Y-57381925D01*
X27453265Y-57354000D01*
X27441478Y-57302436D01*
X27441456Y-57302009D01*
X27436624Y-57281197D01*
X27436625Y-57281196D01*
X27409200Y-57163069D01*
X27409198Y-57163066D01*
X27406767Y-57152594D01*
X27406638Y-57152203D01*
X27377569Y-57028858D01*
X27377415Y-57028462D01*
X27374464Y-57016123D01*
X27353345Y-56927808D01*
X27353344Y-56927806D01*
X27352595Y-56924673D01*
X27352540Y-56924491D01*
X27324879Y-56810444D01*
X27324878Y-56810443D01*
X27320929Y-56794158D01*
X27320781Y-56793782D01*
X27302390Y-56718980D01*
X27296059Y-56693230D01*
X27296058Y-56693229D01*
X27292078Y-56677039D01*
X27291933Y-56676675D01*
X27287478Y-56658793D01*
X27266890Y-56576149D01*
X27266889Y-56576148D01*
X27262879Y-56560051D01*
X27262739Y-56559700D01*
X27249970Y-56509093D01*
X27237377Y-56459180D01*
X27237376Y-56459178D01*
X27236607Y-56456130D01*
X27236550Y-56455946D01*
X27235396Y-56451430D01*
X27208357Y-56345572D01*
X27203457Y-56326389D01*
X27203322Y-56326058D01*
X27183068Y-56247700D01*
X27183044Y-56247367D01*
X27177381Y-56225694D01*
X27177382Y-56225693D01*
X27137131Y-56071642D01*
X27133007Y-56055858D01*
X27132886Y-56055565D01*
X27099934Y-55930734D01*
X27093251Y-55905415D01*
X27093125Y-55905110D01*
X27089495Y-55891501D01*
X27058023Y-55773518D01*
X27058022Y-55773517D01*
X27057979Y-55773359D01*
X27053866Y-55757939D01*
X27053739Y-55757631D01*
X27048337Y-55737595D01*
X27018941Y-55628563D01*
X27018940Y-55628562D01*
X27014770Y-55613094D01*
X27014635Y-55612768D01*
X27013427Y-55608336D01*
X26980058Y-55485884D01*
X26980057Y-55485883D01*
X26975867Y-55470507D01*
X26975735Y-55470195D01*
X26941288Y-55345136D01*
X26941287Y-55345134D01*
X26941235Y-55344948D01*
X26940543Y-55342435D01*
X26940494Y-55342288D01*
X26902542Y-55205970D01*
X26902541Y-55205969D01*
X26902514Y-55205875D01*
X26898313Y-55190784D01*
X26898180Y-55190472D01*
X26873019Y-55101050D01*
X26873016Y-55100699D01*
X26863786Y-55068231D01*
X26863787Y-55068231D01*
X26824776Y-54931004D01*
X26824775Y-54931003D01*
X26820510Y-54915998D01*
X26820378Y-54915693D01*
X26792148Y-54817384D01*
X26792118Y-54817057D01*
X26785635Y-54794699D01*
X26785636Y-54794699D01*
X26746063Y-54658216D01*
X26746062Y-54658215D01*
X26741756Y-54643363D01*
X26741632Y-54643078D01*
X26715864Y-54555029D01*
X26715860Y-54554722D01*
X26701929Y-54507532D01*
X26665706Y-54384834D01*
X26665705Y-54384832D01*
X26663135Y-54376127D01*
X26663035Y-54375862D01*
X26620329Y-54232392D01*
X26620217Y-54232137D01*
X26617926Y-54224499D01*
X26593033Y-54141516D01*
X26593028Y-54141261D01*
X26583064Y-54108279D01*
X26583065Y-54108279D01*
X26540565Y-53967592D01*
X26540564Y-53967591D01*
X26536157Y-53953002D01*
X26536065Y-53952794D01*
X26526006Y-53919709D01*
X26497275Y-53825213D01*
X26497274Y-53825212D01*
X26492850Y-53810660D01*
X26492765Y-53810470D01*
X26488615Y-53796899D01*
X26463312Y-53714167D01*
X26463308Y-53713976D01*
X26451741Y-53676348D01*
X26407806Y-53533430D01*
X26407805Y-53533429D01*
X26407786Y-53533369D01*
X26403344Y-53518918D01*
X26403278Y-53518770D01*
X26401650Y-53513499D01*
X26361454Y-53383334D01*
X26361453Y-53383333D01*
X26356979Y-53368844D01*
X26356919Y-53368709D01*
X26354806Y-53361895D01*
X26313906Y-53229972D01*
X26265077Y-53072999D01*
X26254939Y-53040497D01*
X26210361Y-52897587D01*
X26210326Y-52897509D01*
X26166673Y-52757865D01*
X26163224Y-52746833D01*
X26163223Y-52746832D01*
X26158697Y-52732352D01*
X26158670Y-52732293D01*
X26110025Y-52576948D01*
X26110024Y-52576947D01*
X26105484Y-52562448D01*
X26105467Y-52562410D01*
X26065779Y-52435822D01*
X26065778Y-52435790D01*
X26055256Y-52402255D01*
X26009241Y-52255602D01*
X26009241Y-52255587D01*
X25991516Y-52199114D01*
X25965452Y-52116070D01*
X25950897Y-52069694D01*
X25881119Y-51847365D01*
X25873681Y-51823658D01*
X25819948Y-51652385D01*
X25753810Y-51441428D01*
X25752031Y-51435749D01*
X25687104Y-51228444D01*
X25686455Y-51226373D01*
X25610118Y-50982321D01*
X25610117Y-50982320D01*
X25543587Y-50769265D01*
X25535034Y-50741875D01*
X25462206Y-50508192D01*
X25391118Y-50279565D01*
X25321834Y-50056147D01*
X25254273Y-49837632D01*
X25233634Y-49770651D01*
X25188356Y-49623705D01*
X25188355Y-49623704D01*
X25138799Y-49462270D01*
X25123872Y-49413643D01*
X25061123Y-49208379D01*
X25043532Y-49150570D01*
X24999648Y-49006360D01*
X24999647Y-49006358D01*
X24951496Y-48847335D01*
X24939279Y-48806987D01*
X24938194Y-48803385D01*
X24890796Y-48646002D01*
X24880572Y-48612053D01*
X24822798Y-48419102D01*
X24766183Y-48228847D01*
X24710585Y-48040778D01*
X24685691Y-47955980D01*
X24655661Y-47853684D01*
X24601776Y-47668772D01*
X24548532Y-47484652D01*
X24496015Y-47301589D01*
X24444091Y-47119079D01*
X24444090Y-47119078D01*
X24418219Y-47027365D01*
X24392730Y-46937003D01*
X24341538Y-46753931D01*
X24333116Y-46723543D01*
X24291054Y-46571768D01*
X24240686Y-46388369D01*
X24190626Y-46204425D01*
X24183184Y-46176827D01*
X24160353Y-46092158D01*
X24140407Y-46018186D01*
X24090428Y-45831133D01*
X24040270Y-45641685D01*
X24003869Y-45502948D01*
X23990027Y-45450190D01*
X23990026Y-45450189D01*
X23939566Y-45256144D01*
X23888856Y-45059430D01*
X23885931Y-45047987D01*
X23771096Y-44502553D01*
X23767116Y-44481233D01*
X23767117Y-44481233D01*
X23699884Y-44121069D01*
X23687973Y-44057248D01*
X23626566Y-43728218D01*
X23626566Y-43728214D01*
X23584441Y-43502453D01*
X23552515Y-43331351D01*
X23549170Y-43313417D01*
X23474654Y-42913962D01*
X23474655Y-42913961D01*
X23404201Y-42536191D01*
X23348481Y-42237340D01*
X23326457Y-42119220D01*
X23314376Y-42054406D01*
X23279342Y-41866447D01*
X23247836Y-41697420D01*
X23246262Y-41688975D01*
X23174753Y-41305215D01*
X23170655Y-41283224D01*
X23168698Y-41272720D01*
X23093760Y-40870436D01*
X23090507Y-40852968D01*
X23015790Y-40451746D01*
X22942760Y-40059448D01*
X22932912Y-40006542D01*
X22932459Y-40004109D01*
X22855933Y-39592881D01*
X22834715Y-39478819D01*
X22773925Y-39152031D01*
X22772554Y-39144659D01*
X22772555Y-39144659D01*
X22722424Y-38875066D01*
X22693497Y-38719495D01*
X22692038Y-38711643D01*
X22613825Y-38290867D01*
X22598395Y-38207811D01*
X22530118Y-37840319D01*
X22530117Y-37840318D01*
X22528942Y-37833995D01*
X22471661Y-37525544D01*
X24941500Y-37525544D01*
X24952112Y-37629425D01*
X25007885Y-37797738D01*
X25100970Y-37948652D01*
X25100975Y-37948658D01*
X25226341Y-38074024D01*
X25226347Y-38074029D01*
X25226348Y-38074030D01*
X25377262Y-38167115D01*
X25455132Y-38192918D01*
X25513503Y-38233330D01*
X25540760Y-38298886D01*
X25541500Y-38312522D01*
X25541500Y-39460559D01*
X25540170Y-39478819D01*
X25536659Y-39502786D01*
X25536659Y-39502794D01*
X25541260Y-39555372D01*
X25541500Y-39560866D01*
X25541500Y-39569182D01*
X25545347Y-39602094D01*
X25552112Y-39679419D01*
X25553596Y-39686606D01*
X25553531Y-39686619D01*
X25555165Y-39693989D01*
X25555229Y-39693975D01*
X25556921Y-39701116D01*
X25569272Y-39735048D01*
X25582943Y-39772610D01*
X25583473Y-39774064D01*
X25607885Y-39847736D01*
X25610987Y-39854388D01*
X25610926Y-39854416D01*
X25614211Y-39861202D01*
X25614270Y-39861173D01*
X25617560Y-39867724D01*
X25617564Y-39867731D01*
X25617565Y-39867732D01*
X25649641Y-39916501D01*
X25660233Y-39932605D01*
X25700967Y-39998648D01*
X25705522Y-40004408D01*
X25705468Y-40004450D01*
X25710228Y-40010292D01*
X25710279Y-40010250D01*
X25714993Y-40015868D01*
X25714998Y-40015873D01*
X25714999Y-40015874D01*
X25771482Y-40069163D01*
X26071098Y-40368779D01*
X26083065Y-40382627D01*
X26097531Y-40402058D01*
X26130838Y-40430006D01*
X26137975Y-40435994D01*
X26142021Y-40439702D01*
X26147899Y-40445580D01*
X26153669Y-40450142D01*
X26169622Y-40462757D01*
X26173896Y-40466136D01*
X26233360Y-40516032D01*
X26233366Y-40516035D01*
X26239495Y-40520067D01*
X26239457Y-40520123D01*
X26245813Y-40524172D01*
X26245849Y-40524115D01*
X26252089Y-40527963D01*
X26252094Y-40527967D01*
X26322453Y-40560775D01*
X26391812Y-40595609D01*
X26391819Y-40595610D01*
X26398707Y-40598118D01*
X26398684Y-40598180D01*
X26405810Y-40600657D01*
X26405831Y-40600595D01*
X26412788Y-40602899D01*
X26412793Y-40602902D01*
X26488822Y-40618600D01*
X26513487Y-40624446D01*
X26564343Y-40636500D01*
X26571632Y-40637352D01*
X26571624Y-40637418D01*
X26579122Y-40638184D01*
X26579128Y-40638118D01*
X26586435Y-40638756D01*
X26586442Y-40638758D01*
X26664045Y-40636500D01*
X31461413Y-40636500D01*
X31529534Y-40656502D01*
X31535471Y-40660562D01*
X31547248Y-40669118D01*
X31721712Y-40746794D01*
X31908513Y-40786500D01*
X32099487Y-40786500D01*
X32286288Y-40746794D01*
X32460752Y-40669118D01*
X32615253Y-40556866D01*
X32639556Y-40529875D01*
X32743034Y-40414951D01*
X32743035Y-40414949D01*
X32743040Y-40414944D01*
X32838527Y-40249556D01*
X32897542Y-40067928D01*
X32917504Y-39878000D01*
X32897542Y-39688072D01*
X32838527Y-39506444D01*
X32743040Y-39341056D01*
X32743038Y-39341054D01*
X32743034Y-39341048D01*
X32615255Y-39199135D01*
X32460752Y-39086882D01*
X32286288Y-39009206D01*
X32099487Y-38969500D01*
X31908513Y-38969500D01*
X31721711Y-39009206D01*
X31547245Y-39086883D01*
X31535476Y-39095435D01*
X31468609Y-39119294D01*
X31461413Y-39119500D01*
X27184500Y-39119500D01*
X27116379Y-39099498D01*
X27069886Y-39045842D01*
X27058500Y-38993500D01*
X27058500Y-38312522D01*
X27078502Y-38244401D01*
X27132158Y-38197908D01*
X27144857Y-38192921D01*
X27222738Y-38167115D01*
X27373652Y-38074030D01*
X27499030Y-37948652D01*
X27589059Y-37802691D01*
X27641844Y-37755215D01*
X27711919Y-37743812D01*
X27777035Y-37772104D01*
X27787260Y-37781651D01*
X27843665Y-37840502D01*
X27899230Y-37898478D01*
X28085154Y-38035986D01*
X28136564Y-38061906D01*
X28291643Y-38140095D01*
X28512757Y-38207811D01*
X28742135Y-38237184D01*
X28973178Y-38227369D01*
X29199238Y-38178649D01*
X29413813Y-38092426D01*
X29610730Y-37971179D01*
X29784324Y-37818398D01*
X29929600Y-37638476D01*
X30042380Y-37436591D01*
X30102038Y-37267744D01*
X30119417Y-37218557D01*
X30119417Y-37218556D01*
X30119417Y-37218555D01*
X30119419Y-37218550D01*
X30158500Y-36990625D01*
X30158500Y-36517287D01*
X30143801Y-36344582D01*
X30085530Y-36120793D01*
X29990278Y-35910071D01*
X29884154Y-35753056D01*
X29862581Y-35685417D01*
X29881000Y-35616852D01*
X29933565Y-35569129D01*
X29988547Y-35556500D01*
X37479629Y-35556500D01*
X37547750Y-35576502D01*
X37568724Y-35593405D01*
X38626724Y-36651405D01*
X38660750Y-36713717D01*
X38655685Y-36784532D01*
X38613138Y-36841368D01*
X38546618Y-36866179D01*
X38537629Y-36866500D01*
X38253853Y-36866500D01*
X38238011Y-36864750D01*
X38237984Y-36865044D01*
X38230092Y-36864298D01*
X38230091Y-36864298D01*
X38160042Y-36866500D01*
X38130144Y-36866500D01*
X38130140Y-36866500D01*
X38130130Y-36866501D01*
X38123179Y-36867379D01*
X38117267Y-36867844D01*
X38070113Y-36869326D01*
X38070111Y-36869327D01*
X38050656Y-36874978D01*
X38031303Y-36878986D01*
X38011211Y-36881524D01*
X38011204Y-36881525D01*
X38011203Y-36881526D01*
X38011201Y-36881526D01*
X38011200Y-36881527D01*
X37967339Y-36898892D01*
X37961724Y-36900815D01*
X37916407Y-36913982D01*
X37898964Y-36924297D01*
X37881218Y-36932990D01*
X37862382Y-36940448D01*
X37824209Y-36968181D01*
X37819248Y-36971440D01*
X37778638Y-36995458D01*
X37764311Y-37009784D01*
X37749285Y-37022617D01*
X37732895Y-37034525D01*
X37732893Y-37034527D01*
X37702808Y-37070892D01*
X37698812Y-37075283D01*
X34311336Y-40462757D01*
X34298901Y-40472721D01*
X34299089Y-40472948D01*
X34292980Y-40478001D01*
X34245016Y-40529078D01*
X34223866Y-40550227D01*
X34219560Y-40555777D01*
X34215714Y-40560279D01*
X34183417Y-40594674D01*
X34183411Y-40594683D01*
X34173651Y-40612435D01*
X34162803Y-40628950D01*
X34150386Y-40644958D01*
X34131645Y-40688264D01*
X34129034Y-40693594D01*
X34106305Y-40734939D01*
X34106303Y-40734944D01*
X34101267Y-40754559D01*
X34094864Y-40773262D01*
X34086819Y-40791852D01*
X34079437Y-40838456D01*
X34078233Y-40844268D01*
X34066500Y-40889968D01*
X34066500Y-40910223D01*
X34064949Y-40929933D01*
X34061780Y-40949942D01*
X34061780Y-40949943D01*
X34066220Y-40996917D01*
X34066500Y-41002850D01*
X34066500Y-41465500D01*
X34046498Y-41533621D01*
X33992842Y-41580114D01*
X33940504Y-41591500D01*
X33910117Y-41591500D01*
X33910107Y-41591501D01*
X33803046Y-41605595D01*
X33791150Y-41607162D01*
X33643121Y-41668477D01*
X33516013Y-41766013D01*
X33418477Y-41893121D01*
X33357161Y-42041151D01*
X33341500Y-42160112D01*
X33341500Y-43514883D01*
X33341501Y-43514892D01*
X33357162Y-43633851D01*
X33359689Y-43639952D01*
X33403821Y-43746498D01*
X33406908Y-43753949D01*
X33416499Y-43802167D01*
X33416499Y-44035404D01*
X33396497Y-44103525D01*
X33379595Y-44124499D01*
X33199500Y-44304595D01*
X33137188Y-44338620D01*
X33110404Y-44341500D01*
X33054513Y-44341500D01*
X32867711Y-44381206D01*
X32693247Y-44458882D01*
X32538744Y-44571135D01*
X32410965Y-44713048D01*
X32410958Y-44713058D01*
X32315476Y-44878438D01*
X32315473Y-44878445D01*
X32256457Y-45060072D01*
X32239092Y-45225292D01*
X32212079Y-45290949D01*
X32202877Y-45301216D01*
X32011336Y-45492757D01*
X31998901Y-45502721D01*
X31999089Y-45502948D01*
X31992980Y-45508001D01*
X31945016Y-45559078D01*
X31923866Y-45580227D01*
X31919560Y-45585777D01*
X31915714Y-45590279D01*
X31883417Y-45624674D01*
X31883411Y-45624683D01*
X31873651Y-45642435D01*
X31862803Y-45658950D01*
X31850386Y-45674958D01*
X31831645Y-45718264D01*
X31829034Y-45723594D01*
X31806305Y-45764939D01*
X31806303Y-45764944D01*
X31801267Y-45784559D01*
X31794864Y-45803262D01*
X31786819Y-45821852D01*
X31779437Y-45868456D01*
X31778233Y-45874268D01*
X31766500Y-45919968D01*
X31766500Y-45940223D01*
X31764949Y-45959933D01*
X31761780Y-45979942D01*
X31761779Y-45979946D01*
X31766219Y-46026919D01*
X31766499Y-46032850D01*
X31766500Y-53916146D01*
X31764751Y-53931988D01*
X31765044Y-53932016D01*
X31764297Y-53939908D01*
X31766499Y-54009957D01*
X31766499Y-54039861D01*
X31767378Y-54046821D01*
X31767844Y-54052733D01*
X31769326Y-54099888D01*
X31769327Y-54099893D01*
X31774977Y-54119339D01*
X31778986Y-54138697D01*
X31781525Y-54158793D01*
X31781526Y-54158799D01*
X31798893Y-54202662D01*
X31800816Y-54208279D01*
X31813982Y-54253593D01*
X31824294Y-54271031D01*
X31832988Y-54288779D01*
X31840444Y-54307609D01*
X31840450Y-54307620D01*
X31868177Y-54345783D01*
X31871437Y-54350746D01*
X31895460Y-54391365D01*
X31909779Y-54405684D01*
X31922617Y-54420714D01*
X31927055Y-54426822D01*
X31934528Y-54437107D01*
X31941052Y-54442504D01*
X31970886Y-54467185D01*
X31975267Y-54471171D01*
X32708522Y-55204426D01*
X33429595Y-55925499D01*
X33463621Y-55987811D01*
X33466500Y-56014594D01*
X33466500Y-57946244D01*
X33447187Y-58013279D01*
X33441188Y-58022828D01*
X33412290Y-58068817D01*
X33355837Y-58230151D01*
X33336701Y-58400000D01*
X33355837Y-58569848D01*
X33412290Y-58731182D01*
X33503231Y-58875912D01*
X33624087Y-58996768D01*
X33624089Y-58996769D01*
X33624091Y-58996771D01*
X33768817Y-59087709D01*
X33930150Y-59144162D01*
X33930149Y-59144162D01*
X33947348Y-59146099D01*
X34100000Y-59163299D01*
X34269850Y-59144162D01*
X34431183Y-59087709D01*
X34575909Y-58996771D01*
X34696771Y-58875909D01*
X34787709Y-58731183D01*
X34844162Y-58569850D01*
X34863299Y-58400000D01*
X34844162Y-58230150D01*
X34787709Y-58068817D01*
X34752812Y-58013279D01*
X34733500Y-57946244D01*
X34733500Y-57236277D01*
X34753502Y-57168156D01*
X34807158Y-57121663D01*
X34877432Y-57111559D01*
X34910745Y-57121169D01*
X35017712Y-57168794D01*
X35080769Y-57182197D01*
X35143243Y-57215925D01*
X35143668Y-57216349D01*
X35518092Y-57590773D01*
X35530065Y-57604627D01*
X35544531Y-57624058D01*
X35566074Y-57642135D01*
X35584975Y-57657994D01*
X35589021Y-57661702D01*
X35594900Y-57667581D01*
X35620895Y-57688135D01*
X35680360Y-57738032D01*
X35680366Y-57738035D01*
X35686495Y-57742067D01*
X35686458Y-57742122D01*
X35692811Y-57746169D01*
X35692847Y-57746113D01*
X35699092Y-57749965D01*
X35699095Y-57749967D01*
X35769452Y-57782775D01*
X35838812Y-57817609D01*
X35838813Y-57817609D01*
X35838817Y-57817611D01*
X35845713Y-57820121D01*
X35845689Y-57820185D01*
X35852805Y-57822659D01*
X35852827Y-57822595D01*
X35859791Y-57824903D01*
X35935849Y-57840607D01*
X35959777Y-57846278D01*
X36011344Y-57858500D01*
X36011350Y-57858500D01*
X36018633Y-57859352D01*
X36018625Y-57859419D01*
X36026122Y-57860185D01*
X36026128Y-57860119D01*
X36033435Y-57860757D01*
X36033442Y-57860759D01*
X36111080Y-57858500D01*
X42312477Y-57858500D01*
X42380598Y-57878502D01*
X42427091Y-57932158D01*
X42432079Y-57944860D01*
X42449323Y-57996899D01*
X42457885Y-58022738D01*
X42550970Y-58173652D01*
X42550975Y-58173658D01*
X42676341Y-58299024D01*
X42676347Y-58299029D01*
X42676348Y-58299030D01*
X42821014Y-58388261D01*
X42822306Y-58389058D01*
X42869784Y-58441844D01*
X42881187Y-58511919D01*
X42852894Y-58577035D01*
X42843344Y-58587265D01*
X42726521Y-58699230D01*
X42589013Y-58885154D01*
X42484903Y-59091647D01*
X42462960Y-59163299D01*
X42417189Y-59312757D01*
X42391751Y-59511410D01*
X42387815Y-59542144D01*
X42397630Y-59773178D01*
X42446351Y-59999240D01*
X42532575Y-60213815D01*
X42532577Y-60213819D01*
X42622504Y-60359868D01*
X42653821Y-60410730D01*
X42728856Y-60495987D01*
X42753209Y-60523658D01*
X42806602Y-60584324D01*
X42986524Y-60729600D01*
X43176951Y-60835979D01*
X43226665Y-60886663D01*
X43241500Y-60945978D01*
X43241500Y-62429045D01*
X43221498Y-62497166D01*
X43167842Y-62543659D01*
X43155133Y-62548649D01*
X43127265Y-62557883D01*
X42976347Y-62650970D01*
X42976341Y-62650975D01*
X42850975Y-62776341D01*
X42850970Y-62776347D01*
X42757885Y-62927262D01*
X42702113Y-63095572D01*
X42702112Y-63095579D01*
X42691500Y-63199446D01*
X42691500Y-63895543D01*
X42671498Y-63963664D01*
X42617842Y-64010157D01*
X42551394Y-64020751D01*
X42475500Y-64012201D01*
X42305651Y-64031337D01*
X42144317Y-64087790D01*
X41999587Y-64178731D01*
X41878731Y-64299587D01*
X41787790Y-64444317D01*
X41731337Y-64605651D01*
X41712201Y-64775500D01*
X41731337Y-64945348D01*
X41787791Y-65106683D01*
X41787793Y-65106687D01*
X41822686Y-65162218D01*
X41842000Y-65229255D01*
X41842000Y-66691646D01*
X41840251Y-66707488D01*
X41840544Y-66707516D01*
X41839798Y-66715407D01*
X41839798Y-66715409D01*
X41841178Y-66759311D01*
X41842000Y-66785457D01*
X41842000Y-66815351D01*
X41842001Y-66815372D01*
X41842878Y-66822320D01*
X41843344Y-66828232D01*
X41844826Y-66875388D01*
X41844827Y-66875393D01*
X41850477Y-66894839D01*
X41854486Y-66914197D01*
X41857025Y-66934293D01*
X41857026Y-66934299D01*
X41874393Y-66978162D01*
X41876316Y-66983779D01*
X41889482Y-67029093D01*
X41899794Y-67046531D01*
X41908488Y-67064279D01*
X41915944Y-67083109D01*
X41915950Y-67083120D01*
X41943677Y-67121283D01*
X41946937Y-67126246D01*
X41970960Y-67166865D01*
X41985279Y-67181184D01*
X41998117Y-67196214D01*
X42007656Y-67209343D01*
X42010028Y-67212607D01*
X42038294Y-67235991D01*
X42046386Y-67242685D01*
X42050767Y-67246671D01*
X42452997Y-67648901D01*
X42792752Y-67988656D01*
X42802722Y-68001100D01*
X42802950Y-68000913D01*
X42808001Y-68007019D01*
X42859078Y-68054983D01*
X42880223Y-68076129D01*
X42880227Y-68076132D01*
X42880230Y-68076135D01*
X42885782Y-68080442D01*
X42890269Y-68084273D01*
X42911852Y-68104541D01*
X42924677Y-68116585D01*
X42924679Y-68116586D01*
X42942428Y-68126343D01*
X42958953Y-68137198D01*
X42974959Y-68149614D01*
X43015149Y-68167005D01*
X43018262Y-68168352D01*
X43023583Y-68170958D01*
X43064940Y-68193695D01*
X43064948Y-68193697D01*
X43084558Y-68198732D01*
X43103267Y-68205137D01*
X43121855Y-68213181D01*
X43168477Y-68220564D01*
X43174262Y-68221763D01*
X43219970Y-68233500D01*
X43240224Y-68233500D01*
X43259934Y-68235051D01*
X43262141Y-68235400D01*
X43279943Y-68238220D01*
X43314472Y-68234956D01*
X43326917Y-68233780D01*
X43332850Y-68233500D01*
X51316147Y-68233500D01*
X51331988Y-68235249D01*
X51332016Y-68234956D01*
X51339902Y-68235700D01*
X51339909Y-68235702D01*
X51409958Y-68233500D01*
X51439856Y-68233500D01*
X51446818Y-68232619D01*
X51452719Y-68232154D01*
X51499889Y-68230673D01*
X51519347Y-68225019D01*
X51538694Y-68221013D01*
X51558797Y-68218474D01*
X51602679Y-68201099D01*
X51608274Y-68199183D01*
X51636816Y-68190891D01*
X51653591Y-68186019D01*
X51653595Y-68186017D01*
X51671026Y-68175708D01*
X51688780Y-68167009D01*
X51707617Y-68159552D01*
X51745786Y-68131818D01*
X51750744Y-68128562D01*
X51791362Y-68104542D01*
X51805685Y-68090218D01*
X51820724Y-68077374D01*
X51837107Y-68065472D01*
X51867193Y-68029103D01*
X51871161Y-68024741D01*
X53288657Y-66607245D01*
X53301092Y-66597284D01*
X53300905Y-66597057D01*
X53307009Y-66592005D01*
X53307018Y-66592000D01*
X53354999Y-66540904D01*
X53376134Y-66519770D01*
X53380429Y-66514232D01*
X53384271Y-66509731D01*
X53416586Y-66475321D01*
X53426345Y-66457567D01*
X53437197Y-66441046D01*
X53449613Y-66425041D01*
X53468347Y-66381748D01*
X53470961Y-66376412D01*
X53493694Y-66335061D01*
X53493695Y-66335060D01*
X53498733Y-66315435D01*
X53505138Y-66296730D01*
X53508432Y-66289118D01*
X53513181Y-66278145D01*
X53520563Y-66231525D01*
X53521761Y-66225744D01*
X53533500Y-66180030D01*
X53533500Y-66159769D01*
X53535051Y-66140058D01*
X53535125Y-66139592D01*
X53538219Y-66120057D01*
X53533778Y-66073076D01*
X53533500Y-66067179D01*
X53533500Y-49396989D01*
X53553502Y-49328869D01*
X53570405Y-49307895D01*
X55087896Y-47790405D01*
X55150208Y-47756379D01*
X55176991Y-47753500D01*
X57169627Y-47753500D01*
X57237748Y-47773502D01*
X57284241Y-47827158D01*
X57294345Y-47897432D01*
X57264851Y-47962012D01*
X57258722Y-47968596D01*
X57109222Y-48118095D01*
X57095373Y-48130063D01*
X57075948Y-48144525D01*
X57075944Y-48144529D01*
X57042007Y-48184971D01*
X57038300Y-48189017D01*
X57032421Y-48194897D01*
X57032412Y-48194907D01*
X57011863Y-48220896D01*
X56962270Y-48280001D01*
X56961965Y-48280364D01*
X56957935Y-48286491D01*
X56957880Y-48286455D01*
X56953825Y-48292820D01*
X56953882Y-48292855D01*
X56950028Y-48299101D01*
X56917220Y-48369458D01*
X56882391Y-48438812D01*
X56879882Y-48445707D01*
X56879820Y-48445684D01*
X56877343Y-48452810D01*
X56877404Y-48452831D01*
X56875097Y-48459790D01*
X56859392Y-48535849D01*
X56855807Y-48550975D01*
X56846465Y-48590397D01*
X56841500Y-48611345D01*
X56840648Y-48618634D01*
X56840581Y-48618626D01*
X56839814Y-48626126D01*
X56839881Y-48626132D01*
X56839241Y-48633442D01*
X56841500Y-48711079D01*
X56841500Y-49035956D01*
X56821498Y-49104077D01*
X56767842Y-49150570D01*
X56697568Y-49160674D01*
X56671467Y-49154011D01*
X56533238Y-49102453D01*
X56533230Y-49102451D01*
X56473222Y-49096000D01*
X55954000Y-49096000D01*
X55954000Y-49793808D01*
X55835199Y-49739554D01*
X55733975Y-49725000D01*
X55666025Y-49725000D01*
X55564801Y-49739554D01*
X55445999Y-49793808D01*
X55446000Y-49096000D01*
X54926797Y-49096000D01*
X54926773Y-49096002D01*
X54866767Y-49102452D01*
X54866765Y-49102452D01*
X54730976Y-49153100D01*
X54614952Y-49239952D01*
X54528100Y-49355976D01*
X54477453Y-49491761D01*
X54477451Y-49491769D01*
X54471000Y-49551777D01*
X54471000Y-49946000D01*
X55298602Y-49946000D01*
X55263481Y-50000649D01*
X55225000Y-50131705D01*
X55225000Y-50268295D01*
X55263481Y-50399351D01*
X55298602Y-50454000D01*
X54471001Y-50454000D01*
X54471001Y-50848202D01*
X54471002Y-50848226D01*
X54477452Y-50908233D01*
X54528100Y-51044023D01*
X54614952Y-51160047D01*
X54730975Y-51246898D01*
X54867786Y-51297928D01*
X54924621Y-51340475D01*
X54949431Y-51406995D01*
X54934339Y-51476369D01*
X54894309Y-51520375D01*
X54718478Y-51639216D01*
X54718477Y-51639217D01*
X54551521Y-51799230D01*
X54414013Y-51985154D01*
X54309903Y-52191647D01*
X54266471Y-52333469D01*
X54242189Y-52412757D01*
X54213476Y-52636985D01*
X54212815Y-52642144D01*
X54222630Y-52873178D01*
X54271351Y-53099240D01*
X54323884Y-53229972D01*
X54351174Y-53297887D01*
X54357575Y-53313815D01*
X54357577Y-53313819D01*
X54478819Y-53510727D01*
X54478821Y-53510730D01*
X54514241Y-53550975D01*
X54628588Y-53680900D01*
X54631602Y-53684324D01*
X54650063Y-53699230D01*
X54806089Y-53825212D01*
X54811524Y-53829600D01*
X54832733Y-53841448D01*
X54882446Y-53892129D01*
X54896869Y-53961645D01*
X54871418Y-54027923D01*
X54841839Y-54055838D01*
X54718478Y-54139216D01*
X54718477Y-54139217D01*
X54551521Y-54299230D01*
X54414013Y-54485154D01*
X54309903Y-54691647D01*
X54278317Y-54794787D01*
X54242189Y-54912757D01*
X54217142Y-55108357D01*
X54212815Y-55142144D01*
X54222630Y-55373178D01*
X54271351Y-55599240D01*
X54328494Y-55741445D01*
X54351174Y-55797887D01*
X54357575Y-55813815D01*
X54357577Y-55813819D01*
X54464709Y-55987811D01*
X54478821Y-56010730D01*
X54631602Y-56184324D01*
X54650063Y-56199230D01*
X54762420Y-56289952D01*
X54811524Y-56329600D01*
X54832733Y-56341448D01*
X54882446Y-56392129D01*
X54896869Y-56461645D01*
X54871418Y-56527923D01*
X54841839Y-56555838D01*
X54718478Y-56639216D01*
X54718477Y-56639217D01*
X54551521Y-56799230D01*
X54414013Y-56985154D01*
X54309903Y-57191647D01*
X54282479Y-57281196D01*
X54242189Y-57412757D01*
X54216261Y-57615237D01*
X54212815Y-57642144D01*
X54222630Y-57873178D01*
X54271351Y-58099240D01*
X54332488Y-58251384D01*
X54351174Y-58297887D01*
X54357575Y-58313815D01*
X54357577Y-58313819D01*
X54478819Y-58510727D01*
X54478821Y-58510730D01*
X54514241Y-58550975D01*
X54619228Y-58670265D01*
X54631602Y-58684324D01*
X54650063Y-58699230D01*
X54762420Y-58789952D01*
X54811524Y-58829600D01*
X54832733Y-58841448D01*
X54882446Y-58892129D01*
X54896869Y-58961645D01*
X54871418Y-59027923D01*
X54841839Y-59055838D01*
X54718478Y-59139216D01*
X54718477Y-59139217D01*
X54551521Y-59299230D01*
X54414013Y-59485154D01*
X54309903Y-59691647D01*
X54284935Y-59773178D01*
X54242189Y-59912757D01*
X54215881Y-60118205D01*
X54212815Y-60142144D01*
X54222630Y-60373178D01*
X54271351Y-60599240D01*
X54328763Y-60742114D01*
X54351174Y-60797887D01*
X54357575Y-60813815D01*
X54357577Y-60813819D01*
X54478819Y-61010727D01*
X54478821Y-61010730D01*
X54631602Y-61184324D01*
X54811524Y-61329600D01*
X54832733Y-61341448D01*
X54882446Y-61392129D01*
X54896869Y-61461645D01*
X54871418Y-61527923D01*
X54841839Y-61555838D01*
X54718478Y-61639216D01*
X54718477Y-61639217D01*
X54551521Y-61799230D01*
X54414013Y-61985154D01*
X54309903Y-62191647D01*
X54267770Y-62329228D01*
X54242189Y-62412757D01*
X54225978Y-62539356D01*
X54212815Y-62642144D01*
X54222630Y-62873178D01*
X54271351Y-63099240D01*
X54357575Y-63313815D01*
X54357577Y-63313819D01*
X54478819Y-63510727D01*
X54478822Y-63510731D01*
X54631601Y-63684323D01*
X54794644Y-63815971D01*
X54811524Y-63829600D01*
X54832733Y-63841448D01*
X54882446Y-63892129D01*
X54896869Y-63961645D01*
X54871418Y-64027923D01*
X54841839Y-64055838D01*
X54718478Y-64139216D01*
X54718477Y-64139217D01*
X54551521Y-64299230D01*
X54414013Y-64485154D01*
X54309903Y-64691647D01*
X54276488Y-64800759D01*
X54242189Y-64912757D01*
X54212864Y-65141765D01*
X54212815Y-65142144D01*
X54222630Y-65373178D01*
X54271351Y-65599240D01*
X54357575Y-65813815D01*
X54357577Y-65813819D01*
X54478819Y-66010727D01*
X54478822Y-66010731D01*
X54569437Y-66113691D01*
X54631602Y-66184324D01*
X54811524Y-66329600D01*
X55013409Y-66442380D01*
X55046294Y-66453999D01*
X55231442Y-66519417D01*
X55231446Y-66519417D01*
X55231450Y-66519419D01*
X55459375Y-66558500D01*
X55459379Y-66558500D01*
X55882713Y-66558500D01*
X56055418Y-66543801D01*
X56279207Y-66485530D01*
X56489929Y-66390278D01*
X56512534Y-66375000D01*
X64019341Y-66375000D01*
X64039937Y-66610411D01*
X64101096Y-66838661D01*
X64101098Y-66838665D01*
X64200966Y-67052832D01*
X64336498Y-67246392D01*
X64336502Y-67246397D01*
X64336505Y-67246401D01*
X64503599Y-67413495D01*
X64503603Y-67413498D01*
X64503607Y-67413501D01*
X64697167Y-67549033D01*
X64697166Y-67549033D01*
X64773304Y-67584537D01*
X64911337Y-67648903D01*
X65139592Y-67710063D01*
X65316034Y-67725500D01*
X65316035Y-67725500D01*
X65433965Y-67725500D01*
X65433966Y-67725500D01*
X65610408Y-67710063D01*
X65838663Y-67648903D01*
X66052829Y-67549035D01*
X66246401Y-67413495D01*
X66413495Y-67246401D01*
X66549035Y-67052830D01*
X66648903Y-66838663D01*
X66710063Y-66610408D01*
X66730659Y-66375000D01*
X66710063Y-66139592D01*
X66648903Y-65911337D01*
X66549035Y-65697171D01*
X66549034Y-65697169D01*
X66549033Y-65697167D01*
X66413501Y-65503607D01*
X66413497Y-65503602D01*
X66413495Y-65503599D01*
X66246401Y-65336505D01*
X66246397Y-65336502D01*
X66246392Y-65336498D01*
X66052832Y-65200966D01*
X66052833Y-65200966D01*
X65838665Y-65101098D01*
X65838661Y-65101096D01*
X65610411Y-65039937D01*
X65460506Y-65026822D01*
X65433966Y-65024500D01*
X65316034Y-65024500D01*
X65289494Y-65026822D01*
X65139588Y-65039937D01*
X64911338Y-65101096D01*
X64911334Y-65101098D01*
X64697167Y-65200966D01*
X64503607Y-65336498D01*
X64503596Y-65336507D01*
X64336507Y-65503596D01*
X64336502Y-65503602D01*
X64200965Y-65697169D01*
X64101098Y-65911334D01*
X64101096Y-65911338D01*
X64039937Y-66139588D01*
X64019341Y-66375000D01*
X56512534Y-66375000D01*
X56681523Y-66260783D01*
X56848476Y-66100772D01*
X56985985Y-65914847D01*
X57090095Y-65708357D01*
X57157811Y-65487243D01*
X57187184Y-65257865D01*
X57186093Y-65232190D01*
X57177369Y-65026821D01*
X57148001Y-64890555D01*
X57128649Y-64800762D01*
X57042426Y-64586187D01*
X57019547Y-64549030D01*
X56955073Y-64444317D01*
X56921179Y-64389270D01*
X56768398Y-64215676D01*
X56588476Y-64070400D01*
X56567264Y-64058550D01*
X56517552Y-64007869D01*
X56503131Y-63938352D01*
X56528582Y-63872074D01*
X56558161Y-63844161D01*
X56681523Y-63760783D01*
X56848476Y-63600772D01*
X56985985Y-63414847D01*
X57090095Y-63208357D01*
X57157811Y-62987243D01*
X57187184Y-62757865D01*
X57184143Y-62686291D01*
X57177369Y-62526821D01*
X57154640Y-62421362D01*
X57128649Y-62300762D01*
X57128119Y-62299444D01*
X57084803Y-62191647D01*
X57042426Y-62086187D01*
X57028709Y-62063910D01*
X56951980Y-61939294D01*
X56921179Y-61889270D01*
X56768398Y-61715676D01*
X56588476Y-61570400D01*
X56567264Y-61558550D01*
X56517552Y-61507869D01*
X56503131Y-61438352D01*
X56528582Y-61372074D01*
X56558161Y-61344161D01*
X56681523Y-61260783D01*
X56848476Y-61100772D01*
X56985985Y-60914847D01*
X57090095Y-60708357D01*
X57157811Y-60487243D01*
X57187184Y-60257865D01*
X57187162Y-60257349D01*
X57177369Y-60026821D01*
X57152786Y-59912757D01*
X57140123Y-59854000D01*
X57896001Y-59854000D01*
X57896001Y-60098202D01*
X57896002Y-60098226D01*
X57902452Y-60158232D01*
X57902452Y-60158234D01*
X57953100Y-60294023D01*
X58039952Y-60410047D01*
X58155976Y-60496899D01*
X58155975Y-60496899D01*
X58291761Y-60547546D01*
X58291769Y-60547548D01*
X58351785Y-60553999D01*
X58496000Y-60553999D01*
X58496000Y-59854000D01*
X57896001Y-59854000D01*
X57140123Y-59854000D01*
X57128649Y-59800762D01*
X57042426Y-59586187D01*
X56921179Y-59389270D01*
X56883097Y-59346000D01*
X57896000Y-59346000D01*
X58496000Y-59346000D01*
X58496000Y-58646000D01*
X58351797Y-58646000D01*
X58351773Y-58646002D01*
X58291767Y-58652452D01*
X58291765Y-58652452D01*
X58155976Y-58703100D01*
X58039952Y-58789952D01*
X57953100Y-58905976D01*
X57902453Y-59041761D01*
X57902451Y-59041769D01*
X57896000Y-59101777D01*
X57896000Y-59346000D01*
X56883097Y-59346000D01*
X56768398Y-59215676D01*
X56588476Y-59070400D01*
X56567264Y-59058550D01*
X56517552Y-59007869D01*
X56503131Y-58938352D01*
X56528582Y-58872074D01*
X56558161Y-58844161D01*
X56681523Y-58760783D01*
X56848476Y-58600772D01*
X56985985Y-58414847D01*
X57090095Y-58208357D01*
X57157811Y-57987243D01*
X57187184Y-57757865D01*
X57186848Y-57749967D01*
X57177369Y-57526821D01*
X57140123Y-57354000D01*
X57896001Y-57354000D01*
X57896001Y-57598202D01*
X57896002Y-57598226D01*
X57902452Y-57658232D01*
X57902452Y-57658234D01*
X57953100Y-57794023D01*
X58039952Y-57910047D01*
X58155976Y-57996899D01*
X58155975Y-57996899D01*
X58291761Y-58047546D01*
X58291769Y-58047548D01*
X58351785Y-58053999D01*
X58496000Y-58053999D01*
X58496000Y-57354000D01*
X57896001Y-57354000D01*
X57140123Y-57354000D01*
X57129011Y-57302441D01*
X57128649Y-57300762D01*
X57042426Y-57086187D01*
X56993064Y-57006019D01*
X56964437Y-56959526D01*
X56921179Y-56889270D01*
X56883097Y-56846000D01*
X57896000Y-56846000D01*
X58496000Y-56846000D01*
X58496000Y-56146000D01*
X58351797Y-56146000D01*
X58351773Y-56146002D01*
X58291767Y-56152452D01*
X58291765Y-56152452D01*
X58155976Y-56203100D01*
X58039952Y-56289952D01*
X57953100Y-56405976D01*
X57902453Y-56541761D01*
X57902451Y-56541769D01*
X57896000Y-56601777D01*
X57896000Y-56846000D01*
X56883097Y-56846000D01*
X56768398Y-56715676D01*
X56588476Y-56570400D01*
X56567264Y-56558550D01*
X56517552Y-56507869D01*
X56503131Y-56438352D01*
X56528582Y-56372074D01*
X56558161Y-56344161D01*
X56562098Y-56341500D01*
X56681523Y-56260783D01*
X56848476Y-56100772D01*
X56985985Y-55914847D01*
X57090095Y-55708357D01*
X57157811Y-55487243D01*
X57187184Y-55257865D01*
X57186555Y-55243061D01*
X57177369Y-55026821D01*
X57143099Y-54867812D01*
X57140122Y-54854000D01*
X57896001Y-54854000D01*
X57896001Y-55098202D01*
X57896002Y-55098226D01*
X57902452Y-55158232D01*
X57902452Y-55158234D01*
X57953100Y-55294023D01*
X58039952Y-55410047D01*
X58155976Y-55496899D01*
X58155975Y-55496899D01*
X58291761Y-55547546D01*
X58291769Y-55547548D01*
X58351785Y-55553999D01*
X58496000Y-55553999D01*
X58496000Y-54854000D01*
X57896001Y-54854000D01*
X57140122Y-54854000D01*
X57128649Y-54800762D01*
X57126213Y-54794701D01*
X57084803Y-54691647D01*
X57042426Y-54586187D01*
X57028296Y-54563239D01*
X56965728Y-54461622D01*
X56921179Y-54389270D01*
X56883097Y-54346000D01*
X57896000Y-54346000D01*
X58496000Y-54346000D01*
X58496000Y-53646000D01*
X58351797Y-53646000D01*
X58351773Y-53646002D01*
X58291767Y-53652452D01*
X58291765Y-53652452D01*
X58155976Y-53703100D01*
X58039952Y-53789952D01*
X57953100Y-53905976D01*
X57902453Y-54041761D01*
X57902451Y-54041769D01*
X57896000Y-54101777D01*
X57896000Y-54346000D01*
X56883097Y-54346000D01*
X56768398Y-54215676D01*
X56588476Y-54070400D01*
X56567264Y-54058550D01*
X56517552Y-54007869D01*
X56503131Y-53938352D01*
X56528582Y-53872074D01*
X56558161Y-53844161D01*
X56681523Y-53760783D01*
X56848476Y-53600772D01*
X56985985Y-53414847D01*
X57090095Y-53208357D01*
X57157811Y-52987243D01*
X57187184Y-52757865D01*
X57186715Y-52746833D01*
X57178633Y-52556584D01*
X57177369Y-52526822D01*
X57166583Y-52476778D01*
X57163041Y-52460342D01*
X57157520Y-52434724D01*
X57162721Y-52363919D01*
X57169109Y-52354000D01*
X57896001Y-52354000D01*
X57896001Y-52598202D01*
X57896002Y-52598226D01*
X57902452Y-52658232D01*
X57902452Y-52658234D01*
X57953100Y-52794023D01*
X58039952Y-52910047D01*
X58155976Y-52996899D01*
X58155975Y-52996899D01*
X58291761Y-53047546D01*
X58291769Y-53047548D01*
X58351785Y-53053999D01*
X58496000Y-53053999D01*
X58496000Y-52354000D01*
X57896001Y-52354000D01*
X57169109Y-52354000D01*
X57191594Y-52319085D01*
X57691247Y-51819432D01*
X57753556Y-51785410D01*
X57824371Y-51790474D01*
X57869434Y-51819435D01*
X57895999Y-51846000D01*
X58496000Y-51846000D01*
X58496000Y-51146000D01*
X58465866Y-51146000D01*
X58397745Y-51125998D01*
X58351252Y-51072342D01*
X58341148Y-51002068D01*
X58343260Y-50990955D01*
X58358500Y-50926656D01*
X58358500Y-50926655D01*
X58359352Y-50919368D01*
X58359419Y-50919375D01*
X58360185Y-50911877D01*
X58360119Y-50911872D01*
X58360757Y-50904565D01*
X58360759Y-50904558D01*
X58358500Y-50826920D01*
X58358500Y-50679999D01*
X58378502Y-50611878D01*
X58432158Y-50565385D01*
X58484500Y-50553999D01*
X58496000Y-50553999D01*
X58496000Y-49472000D01*
X58516002Y-49403879D01*
X58569658Y-49357386D01*
X58622000Y-49346000D01*
X58878000Y-49346000D01*
X58946121Y-49366002D01*
X58992614Y-49419658D01*
X59004000Y-49472000D01*
X59004000Y-50553999D01*
X59148203Y-50553999D01*
X59148226Y-50553997D01*
X59208232Y-50547547D01*
X59208234Y-50547547D01*
X59344023Y-50496899D01*
X59460048Y-50410045D01*
X59497610Y-50359868D01*
X59554445Y-50317320D01*
X59625260Y-50312254D01*
X59687573Y-50346278D01*
X59705720Y-50369228D01*
X59800970Y-50523652D01*
X59800975Y-50523658D01*
X59926341Y-50649024D01*
X59926345Y-50649027D01*
X59926348Y-50649030D01*
X60077262Y-50742115D01*
X60077265Y-50742116D01*
X60078306Y-50742758D01*
X60125785Y-50795544D01*
X60137188Y-50865618D01*
X60108896Y-50930734D01*
X60078307Y-50957239D01*
X59926353Y-51050966D01*
X59926341Y-51050975D01*
X59800975Y-51176341D01*
X59800966Y-51176353D01*
X59705719Y-51330771D01*
X59652933Y-51378249D01*
X59582858Y-51389652D01*
X59517743Y-51361359D01*
X59497610Y-51340132D01*
X59460047Y-51289952D01*
X59344023Y-51203100D01*
X59344024Y-51203100D01*
X59208238Y-51152453D01*
X59208230Y-51152451D01*
X59148222Y-51146000D01*
X59004000Y-51146000D01*
X59004000Y-53053999D01*
X59148203Y-53053999D01*
X59148226Y-53053997D01*
X59208232Y-53047547D01*
X59208234Y-53047547D01*
X59344023Y-52996899D01*
X59460048Y-52910045D01*
X59497610Y-52859868D01*
X59554445Y-52817320D01*
X59625260Y-52812254D01*
X59687573Y-52846278D01*
X59705720Y-52869228D01*
X59800970Y-53023652D01*
X59800975Y-53023658D01*
X59926341Y-53149024D01*
X59926347Y-53149029D01*
X59926348Y-53149030D01*
X60077262Y-53242115D01*
X60077263Y-53242115D01*
X60078307Y-53242759D01*
X60125785Y-53295545D01*
X60137188Y-53365620D01*
X60108896Y-53430736D01*
X60078307Y-53457241D01*
X60077263Y-53457884D01*
X60077262Y-53457885D01*
X60025366Y-53489895D01*
X59926347Y-53550970D01*
X59926341Y-53550975D01*
X59800975Y-53676341D01*
X59800966Y-53676353D01*
X59705719Y-53830771D01*
X59652933Y-53878249D01*
X59582858Y-53889652D01*
X59517743Y-53861359D01*
X59497610Y-53840132D01*
X59460047Y-53789952D01*
X59344023Y-53703100D01*
X59344024Y-53703100D01*
X59208238Y-53652453D01*
X59208230Y-53652451D01*
X59148222Y-53646000D01*
X59004000Y-53646000D01*
X59004000Y-55553999D01*
X59148203Y-55553999D01*
X59148226Y-55553997D01*
X59208232Y-55547547D01*
X59208234Y-55547547D01*
X59344023Y-55496899D01*
X59460048Y-55410045D01*
X59497610Y-55359868D01*
X59554445Y-55317320D01*
X59625260Y-55312254D01*
X59687573Y-55346278D01*
X59705720Y-55369228D01*
X59800970Y-55523652D01*
X59800975Y-55523658D01*
X59926341Y-55649024D01*
X59926345Y-55649027D01*
X59926348Y-55649030D01*
X60077262Y-55742115D01*
X60077265Y-55742116D01*
X60078306Y-55742758D01*
X60125785Y-55795544D01*
X60137188Y-55865618D01*
X60108896Y-55930734D01*
X60078307Y-55957239D01*
X59926353Y-56050966D01*
X59926341Y-56050975D01*
X59800975Y-56176341D01*
X59800966Y-56176353D01*
X59705719Y-56330771D01*
X59652933Y-56378249D01*
X59582858Y-56389652D01*
X59517743Y-56361359D01*
X59497610Y-56340132D01*
X59460047Y-56289952D01*
X59344023Y-56203100D01*
X59344024Y-56203100D01*
X59208238Y-56152453D01*
X59208230Y-56152451D01*
X59148222Y-56146000D01*
X59004000Y-56146000D01*
X59004000Y-58053999D01*
X59148203Y-58053999D01*
X59148226Y-58053997D01*
X59208232Y-58047547D01*
X59208234Y-58047547D01*
X59344023Y-57996899D01*
X59460048Y-57910045D01*
X59497610Y-57859868D01*
X59554445Y-57817320D01*
X59625260Y-57812254D01*
X59687573Y-57846278D01*
X59705720Y-57869228D01*
X59800970Y-58023652D01*
X59800975Y-58023658D01*
X59926341Y-58149024D01*
X59926347Y-58149029D01*
X59926348Y-58149030D01*
X60077262Y-58242115D01*
X60077263Y-58242115D01*
X60078307Y-58242759D01*
X60125785Y-58295545D01*
X60137188Y-58365620D01*
X60108896Y-58430736D01*
X60078307Y-58457241D01*
X60077263Y-58457884D01*
X60077262Y-58457885D01*
X60005683Y-58502035D01*
X59926347Y-58550970D01*
X59926341Y-58550975D01*
X59800975Y-58676341D01*
X59800966Y-58676353D01*
X59705719Y-58830771D01*
X59652933Y-58878249D01*
X59582858Y-58889652D01*
X59517743Y-58861359D01*
X59497610Y-58840132D01*
X59460047Y-58789952D01*
X59344023Y-58703100D01*
X59344024Y-58703100D01*
X59208238Y-58652453D01*
X59208230Y-58652451D01*
X59148222Y-58646000D01*
X59004000Y-58646000D01*
X59004000Y-60553999D01*
X59148203Y-60553999D01*
X59148226Y-60553997D01*
X59208232Y-60547547D01*
X59208234Y-60547547D01*
X59344023Y-60496899D01*
X59460048Y-60410045D01*
X59497610Y-60359868D01*
X59554445Y-60317320D01*
X59625260Y-60312254D01*
X59687573Y-60346278D01*
X59705720Y-60369228D01*
X59800970Y-60523652D01*
X59800975Y-60523658D01*
X59926341Y-60649024D01*
X59926347Y-60649029D01*
X59926348Y-60649030D01*
X60077262Y-60742115D01*
X60245574Y-60797887D01*
X60349455Y-60808500D01*
X61150544Y-60808499D01*
X61254426Y-60797887D01*
X61422738Y-60742115D01*
X61573652Y-60649030D01*
X61699030Y-60523652D01*
X61792115Y-60372738D01*
X61804408Y-60335639D01*
X61809635Y-60319867D01*
X61850049Y-60261496D01*
X61915605Y-60234240D01*
X61929239Y-60233500D01*
X63899308Y-60233500D01*
X63967429Y-60253502D01*
X64006600Y-60293437D01*
X64047504Y-60359868D01*
X64078821Y-60410730D01*
X64153856Y-60495987D01*
X64178209Y-60523658D01*
X64231602Y-60584324D01*
X64411524Y-60729600D01*
X64613409Y-60842380D01*
X64666075Y-60860988D01*
X64831442Y-60919417D01*
X64831446Y-60919417D01*
X64831450Y-60919419D01*
X65059375Y-60958500D01*
X65059379Y-60958500D01*
X65482713Y-60958500D01*
X65655418Y-60943801D01*
X65879207Y-60885530D01*
X66089929Y-60790278D01*
X66281523Y-60660783D01*
X66448476Y-60500772D01*
X66585985Y-60314847D01*
X66690095Y-60108357D01*
X66757811Y-59887243D01*
X66787184Y-59657865D01*
X66785374Y-59615267D01*
X66777369Y-59426821D01*
X66728648Y-59200759D01*
X66689159Y-59102488D01*
X66642426Y-58986187D01*
X66619454Y-58948879D01*
X66554977Y-58844161D01*
X66521179Y-58789270D01*
X66368398Y-58615676D01*
X66188476Y-58470400D01*
X66167264Y-58458550D01*
X66117552Y-58407869D01*
X66103131Y-58338352D01*
X66128582Y-58272074D01*
X66158161Y-58244161D01*
X66281523Y-58160783D01*
X66448476Y-58000772D01*
X66585985Y-57814847D01*
X66690095Y-57608357D01*
X66757811Y-57387243D01*
X66787184Y-57157865D01*
X66786943Y-57152203D01*
X66777369Y-56926821D01*
X66749870Y-56799228D01*
X66728649Y-56700762D01*
X66725718Y-56693469D01*
X66699757Y-56628861D01*
X66642426Y-56486187D01*
X66626056Y-56459601D01*
X66553986Y-56342552D01*
X66521179Y-56289270D01*
X66368398Y-56115676D01*
X66188476Y-55970400D01*
X66167264Y-55958550D01*
X66117552Y-55907869D01*
X66103131Y-55838352D01*
X66128582Y-55772074D01*
X66158161Y-55744161D01*
X66281523Y-55660783D01*
X66448476Y-55500772D01*
X66585985Y-55314847D01*
X66690095Y-55108357D01*
X66757811Y-54887243D01*
X66787184Y-54657865D01*
X66782802Y-54554722D01*
X66777369Y-54426821D01*
X66740869Y-54257462D01*
X66728649Y-54200762D01*
X66642426Y-53986187D01*
X66627493Y-53961935D01*
X66554977Y-53844161D01*
X66521179Y-53789270D01*
X66368398Y-53615676D01*
X66188476Y-53470400D01*
X66167264Y-53458550D01*
X66117552Y-53407869D01*
X66103131Y-53338352D01*
X66128582Y-53272074D01*
X66158161Y-53244161D01*
X66281523Y-53160783D01*
X66448476Y-53000772D01*
X66585985Y-52814847D01*
X66690095Y-52608357D01*
X66757811Y-52387243D01*
X66787184Y-52157865D01*
X66787182Y-52157828D01*
X66777369Y-51926821D01*
X66748572Y-51793206D01*
X66728649Y-51700762D01*
X66723899Y-51688942D01*
X66703918Y-51639216D01*
X66642426Y-51486187D01*
X66638874Y-51480419D01*
X66557179Y-51347737D01*
X66521179Y-51289270D01*
X66368398Y-51115676D01*
X66188476Y-50970400D01*
X66167264Y-50958550D01*
X66117552Y-50907869D01*
X66103131Y-50838352D01*
X66128582Y-50772074D01*
X66158161Y-50744161D01*
X66281523Y-50660783D01*
X66448476Y-50500772D01*
X66585985Y-50314847D01*
X66690095Y-50108357D01*
X66757811Y-49887243D01*
X66787184Y-49657865D01*
X66786826Y-49649449D01*
X66777369Y-49426821D01*
X66739535Y-49251273D01*
X66728649Y-49200762D01*
X66642426Y-48986187D01*
X66637338Y-48977924D01*
X66546732Y-48830771D01*
X66521179Y-48789270D01*
X66368398Y-48615676D01*
X66188476Y-48470400D01*
X66167264Y-48458550D01*
X66117552Y-48407869D01*
X66103131Y-48338352D01*
X66128582Y-48272074D01*
X66158161Y-48244161D01*
X66281523Y-48160783D01*
X66448476Y-48000772D01*
X66585985Y-47814847D01*
X66690095Y-47608357D01*
X66757811Y-47387243D01*
X66787184Y-47157865D01*
X66785536Y-47119079D01*
X66777369Y-46926821D01*
X66740108Y-46753931D01*
X66728649Y-46700762D01*
X66726447Y-46695283D01*
X66710070Y-46654525D01*
X66642426Y-46486187D01*
X66640371Y-46482850D01*
X66542728Y-46324268D01*
X66521179Y-46289270D01*
X66368398Y-46115676D01*
X66335796Y-46089352D01*
X66188479Y-45970402D01*
X66188477Y-45970401D01*
X66188476Y-45970400D01*
X66111297Y-45927285D01*
X66061584Y-45876602D01*
X66047163Y-45807086D01*
X66072614Y-45740808D01*
X66128716Y-45699231D01*
X66269026Y-45646897D01*
X66385047Y-45560047D01*
X66471899Y-45444023D01*
X66522546Y-45308238D01*
X66522548Y-45308230D01*
X66528999Y-45248222D01*
X66529000Y-45248205D01*
X66529000Y-44854000D01*
X65701398Y-44854000D01*
X65736519Y-44799351D01*
X65775000Y-44668295D01*
X65775000Y-44531705D01*
X65736519Y-44400649D01*
X65701398Y-44346000D01*
X66528999Y-44346000D01*
X66528998Y-43951797D01*
X66528997Y-43951773D01*
X66522547Y-43891767D01*
X66522547Y-43891765D01*
X66471899Y-43755975D01*
X66381724Y-43635513D01*
X66356914Y-43568992D01*
X66372006Y-43499618D01*
X66390738Y-43473757D01*
X66430673Y-43431231D01*
X66451824Y-43410081D01*
X66456134Y-43404523D01*
X66459963Y-43400040D01*
X66492275Y-43365632D01*
X66502035Y-43347876D01*
X66512884Y-43331361D01*
X66525303Y-43315352D01*
X66544052Y-43272021D01*
X66546642Y-43266734D01*
X66569384Y-43225371D01*
X66573052Y-43211082D01*
X66588406Y-43175376D01*
X66663398Y-43056030D01*
X66719851Y-42894697D01*
X66738988Y-42724847D01*
X66738987Y-42724846D01*
X66739780Y-42717816D01*
X66742049Y-42718071D01*
X66758990Y-42660379D01*
X66812646Y-42613886D01*
X66864988Y-42602500D01*
X67054406Y-42602500D01*
X67122527Y-42622502D01*
X67143501Y-42639405D01*
X67279595Y-42775499D01*
X67313621Y-42837811D01*
X67316500Y-42864594D01*
X67316500Y-56416146D01*
X67314751Y-56431988D01*
X67315044Y-56432016D01*
X67314298Y-56439907D01*
X67316500Y-56509957D01*
X67316500Y-56539851D01*
X67316501Y-56539872D01*
X67317378Y-56546820D01*
X67317844Y-56552732D01*
X67319326Y-56599888D01*
X67319327Y-56599893D01*
X67324977Y-56619339D01*
X67328986Y-56638697D01*
X67331525Y-56658793D01*
X67331526Y-56658799D01*
X67348893Y-56702662D01*
X67350816Y-56708279D01*
X67363982Y-56753593D01*
X67374294Y-56771031D01*
X67382988Y-56788779D01*
X67390444Y-56807609D01*
X67390450Y-56807620D01*
X67418177Y-56845783D01*
X67421437Y-56850746D01*
X67445460Y-56891365D01*
X67459779Y-56905684D01*
X67472617Y-56920714D01*
X67477055Y-56926822D01*
X67484528Y-56937107D01*
X67491052Y-56942504D01*
X67520886Y-56967185D01*
X67525267Y-56971171D01*
X69089272Y-58535177D01*
X69603020Y-59048925D01*
X69637046Y-59111237D01*
X69634402Y-59174915D01*
X69594889Y-59303941D01*
X69592189Y-59312757D01*
X69566751Y-59511410D01*
X69562815Y-59542144D01*
X69572630Y-59773178D01*
X69621351Y-59999240D01*
X69707575Y-60213815D01*
X69707577Y-60213819D01*
X69797504Y-60359868D01*
X69828821Y-60410730D01*
X69903856Y-60495987D01*
X69928209Y-60523658D01*
X69981602Y-60584324D01*
X70161524Y-60729600D01*
X70363409Y-60842380D01*
X70416075Y-60860988D01*
X70581442Y-60919417D01*
X70581446Y-60919417D01*
X70581450Y-60919419D01*
X70809375Y-60958500D01*
X70809379Y-60958500D01*
X71232713Y-60958500D01*
X71405418Y-60943801D01*
X71629207Y-60885530D01*
X71839929Y-60790278D01*
X72031523Y-60660783D01*
X72086246Y-60608334D01*
X72149264Y-60575641D01*
X72219956Y-60582207D01*
X72262524Y-60610207D01*
X72301341Y-60649024D01*
X72301347Y-60649029D01*
X72301348Y-60649030D01*
X72452262Y-60742115D01*
X72620574Y-60797887D01*
X72724455Y-60808500D01*
X73525544Y-60808499D01*
X73629426Y-60797887D01*
X73797738Y-60742115D01*
X73948652Y-60649030D01*
X74074030Y-60523652D01*
X74167115Y-60372738D01*
X74167116Y-60372734D01*
X74169279Y-60369228D01*
X74222065Y-60321750D01*
X74292140Y-60310347D01*
X74357255Y-60338639D01*
X74377388Y-60359866D01*
X74414952Y-60410046D01*
X74530976Y-60496899D01*
X74530975Y-60496899D01*
X74666761Y-60547546D01*
X74666769Y-60547548D01*
X74726785Y-60553999D01*
X74871000Y-60553999D01*
X74871000Y-59854000D01*
X75379000Y-59854000D01*
X75379000Y-60553999D01*
X75523203Y-60553999D01*
X75523226Y-60553997D01*
X75583232Y-60547547D01*
X75583234Y-60547547D01*
X75719023Y-60496899D01*
X75835047Y-60410047D01*
X75921899Y-60294023D01*
X75972546Y-60158238D01*
X75972548Y-60158230D01*
X75978999Y-60098222D01*
X75979000Y-60098205D01*
X75979000Y-59854000D01*
X75379000Y-59854000D01*
X74871000Y-59854000D01*
X74871000Y-58646000D01*
X75379000Y-58646000D01*
X75379000Y-59346000D01*
X75978999Y-59346000D01*
X75978999Y-59101797D01*
X75978997Y-59101773D01*
X75972547Y-59041767D01*
X75972547Y-59041765D01*
X75921899Y-58905976D01*
X75835047Y-58789952D01*
X75719023Y-58703100D01*
X75719024Y-58703100D01*
X75583238Y-58652453D01*
X75583230Y-58652451D01*
X75523222Y-58646000D01*
X75379000Y-58646000D01*
X74871000Y-58646000D01*
X74726797Y-58646000D01*
X74726773Y-58646002D01*
X74666767Y-58652452D01*
X74666765Y-58652452D01*
X74530976Y-58703100D01*
X74414952Y-58789953D01*
X74377388Y-58840133D01*
X74320552Y-58882680D01*
X74249736Y-58887744D01*
X74187424Y-58853719D01*
X74169279Y-58830771D01*
X74153897Y-58805833D01*
X74074030Y-58676348D01*
X74074029Y-58676347D01*
X74074024Y-58676341D01*
X73948658Y-58550975D01*
X73948652Y-58550970D01*
X73929596Y-58539216D01*
X73797738Y-58457885D01*
X73797733Y-58457883D01*
X73796692Y-58457241D01*
X73749214Y-58404455D01*
X73737811Y-58334380D01*
X73766103Y-58269265D01*
X73796692Y-58242759D01*
X73797733Y-58242116D01*
X73797738Y-58242115D01*
X73948652Y-58149030D01*
X74074030Y-58023652D01*
X74167115Y-57872738D01*
X74167116Y-57872734D01*
X74169279Y-57869228D01*
X74222065Y-57821750D01*
X74292140Y-57810347D01*
X74357255Y-57838639D01*
X74377388Y-57859866D01*
X74414952Y-57910046D01*
X74530976Y-57996899D01*
X74530975Y-57996899D01*
X74666761Y-58047546D01*
X74666769Y-58047548D01*
X74726785Y-58053999D01*
X74871000Y-58053999D01*
X74871000Y-57354000D01*
X75379000Y-57354000D01*
X75379000Y-58053999D01*
X75523203Y-58053999D01*
X75523226Y-58053997D01*
X75583232Y-58047547D01*
X75583234Y-58047547D01*
X75719023Y-57996899D01*
X75835047Y-57910047D01*
X75921899Y-57794023D01*
X75972546Y-57658238D01*
X75972548Y-57658230D01*
X75978999Y-57598222D01*
X75979000Y-57598205D01*
X75979000Y-57354000D01*
X75379000Y-57354000D01*
X74871000Y-57354000D01*
X74871000Y-56146000D01*
X75379000Y-56146000D01*
X75379000Y-56846000D01*
X75978999Y-56846000D01*
X75978999Y-56601797D01*
X75978997Y-56601773D01*
X75972547Y-56541767D01*
X75972547Y-56541765D01*
X75921899Y-56405976D01*
X75835047Y-56289952D01*
X75719023Y-56203100D01*
X75719024Y-56203100D01*
X75583238Y-56152453D01*
X75583230Y-56152451D01*
X75523222Y-56146000D01*
X75379000Y-56146000D01*
X74871000Y-56146000D01*
X74726797Y-56146000D01*
X74726773Y-56146002D01*
X74666767Y-56152452D01*
X74666765Y-56152452D01*
X74530976Y-56203100D01*
X74414952Y-56289953D01*
X74377388Y-56340133D01*
X74320552Y-56382680D01*
X74249736Y-56387744D01*
X74187424Y-56353719D01*
X74169279Y-56330771D01*
X74167115Y-56327262D01*
X74074030Y-56176348D01*
X74074029Y-56176347D01*
X74074024Y-56176341D01*
X73948658Y-56050975D01*
X73948652Y-56050970D01*
X73889677Y-56014594D01*
X73797738Y-55957885D01*
X73797737Y-55957884D01*
X73796692Y-55957240D01*
X73749214Y-55904454D01*
X73737811Y-55834379D01*
X73766104Y-55769263D01*
X73796693Y-55742758D01*
X73797732Y-55742116D01*
X73797738Y-55742115D01*
X73948652Y-55649030D01*
X74074030Y-55523652D01*
X74167115Y-55372738D01*
X74167116Y-55372734D01*
X74169279Y-55369228D01*
X74222065Y-55321750D01*
X74292140Y-55310347D01*
X74357255Y-55338639D01*
X74377388Y-55359866D01*
X74414952Y-55410046D01*
X74530976Y-55496899D01*
X74530975Y-55496899D01*
X74666761Y-55547546D01*
X74666769Y-55547548D01*
X74726785Y-55553999D01*
X74871000Y-55553999D01*
X74871000Y-54854000D01*
X75379000Y-54854000D01*
X75379000Y-55553999D01*
X75523203Y-55553999D01*
X75523226Y-55553997D01*
X75583232Y-55547547D01*
X75583234Y-55547547D01*
X75719023Y-55496899D01*
X75835047Y-55410047D01*
X75921899Y-55294023D01*
X75972546Y-55158238D01*
X75972548Y-55158230D01*
X75978999Y-55098222D01*
X75979000Y-55098205D01*
X75979000Y-54854000D01*
X75379000Y-54854000D01*
X74871000Y-54854000D01*
X74871000Y-53646000D01*
X75379000Y-53646000D01*
X75379000Y-54346000D01*
X75978999Y-54346000D01*
X75978999Y-54101797D01*
X75978997Y-54101773D01*
X75972547Y-54041767D01*
X75972547Y-54041765D01*
X75921899Y-53905976D01*
X75835047Y-53789952D01*
X75719023Y-53703100D01*
X75719024Y-53703100D01*
X75583238Y-53652453D01*
X75583230Y-53652451D01*
X75523222Y-53646000D01*
X75379000Y-53646000D01*
X74871000Y-53646000D01*
X74726797Y-53646000D01*
X74726773Y-53646002D01*
X74666767Y-53652452D01*
X74666765Y-53652452D01*
X74530976Y-53703100D01*
X74414952Y-53789953D01*
X74377388Y-53840133D01*
X74320552Y-53882680D01*
X74249736Y-53887744D01*
X74187424Y-53853719D01*
X74169279Y-53830771D01*
X74167115Y-53827262D01*
X74074030Y-53676348D01*
X74074029Y-53676347D01*
X74074024Y-53676341D01*
X73948658Y-53550975D01*
X73948652Y-53550970D01*
X73797738Y-53457885D01*
X73797732Y-53457883D01*
X73795383Y-53457104D01*
X73793976Y-53456130D01*
X73791086Y-53454783D01*
X73791316Y-53454289D01*
X73737012Y-53416694D01*
X73709754Y-53351138D01*
X73722265Y-53281253D01*
X73770574Y-53229225D01*
X73795379Y-53217896D01*
X73797738Y-53217115D01*
X73948652Y-53124030D01*
X74074030Y-52998652D01*
X74167115Y-52847738D01*
X74167116Y-52847734D01*
X74169279Y-52844228D01*
X74222065Y-52796750D01*
X74292140Y-52785347D01*
X74357255Y-52813639D01*
X74377388Y-52834866D01*
X74414952Y-52885046D01*
X74530976Y-52971899D01*
X74530975Y-52971899D01*
X74666761Y-53022546D01*
X74666769Y-53022548D01*
X74726785Y-53028999D01*
X74871000Y-53028999D01*
X74871000Y-52329000D01*
X75379000Y-52329000D01*
X75379000Y-53028999D01*
X75523203Y-53028999D01*
X75523226Y-53028997D01*
X75583232Y-53022547D01*
X75583234Y-53022547D01*
X75719023Y-52971899D01*
X75835047Y-52885047D01*
X75921899Y-52769023D01*
X75972546Y-52633238D01*
X75972548Y-52633230D01*
X75978999Y-52573222D01*
X75979000Y-52573205D01*
X75979000Y-52329000D01*
X75379000Y-52329000D01*
X74871000Y-52329000D01*
X74871000Y-51121000D01*
X75379000Y-51121000D01*
X75379000Y-51821000D01*
X75978999Y-51821000D01*
X75978999Y-51576797D01*
X75978997Y-51576773D01*
X75972547Y-51516767D01*
X75972547Y-51516765D01*
X75921899Y-51380976D01*
X75835047Y-51264952D01*
X75719023Y-51178100D01*
X75719024Y-51178100D01*
X75583238Y-51127453D01*
X75583230Y-51127451D01*
X75523222Y-51121000D01*
X75379000Y-51121000D01*
X74871000Y-51121000D01*
X74726797Y-51121000D01*
X74726773Y-51121002D01*
X74666767Y-51127452D01*
X74666765Y-51127452D01*
X74530976Y-51178100D01*
X74414952Y-51264953D01*
X74377388Y-51315133D01*
X74320552Y-51357680D01*
X74249736Y-51362744D01*
X74187424Y-51328719D01*
X74169279Y-51305771D01*
X74167115Y-51302262D01*
X74074030Y-51151348D01*
X74074029Y-51151347D01*
X74074024Y-51151341D01*
X73948658Y-51025975D01*
X73948652Y-51025970D01*
X73922887Y-51010078D01*
X73816956Y-50944738D01*
X73769480Y-50891955D01*
X73758077Y-50821880D01*
X73786369Y-50756765D01*
X73816954Y-50730262D01*
X73948652Y-50649030D01*
X74074030Y-50523652D01*
X74167115Y-50372738D01*
X74167116Y-50372734D01*
X74169279Y-50369228D01*
X74222065Y-50321750D01*
X74292140Y-50310347D01*
X74357255Y-50338639D01*
X74377388Y-50359866D01*
X74414952Y-50410046D01*
X74530976Y-50496899D01*
X74530975Y-50496899D01*
X74666761Y-50547546D01*
X74666769Y-50547548D01*
X74726785Y-50553999D01*
X74871000Y-50553999D01*
X74871000Y-49854000D01*
X75379000Y-49854000D01*
X75379000Y-50553999D01*
X75523203Y-50553999D01*
X75523226Y-50553997D01*
X75583232Y-50547547D01*
X75583234Y-50547547D01*
X75719023Y-50496899D01*
X75835047Y-50410047D01*
X75921899Y-50294023D01*
X75972546Y-50158238D01*
X75972548Y-50158230D01*
X75978999Y-50098222D01*
X75979000Y-50098205D01*
X75979000Y-49854000D01*
X75379000Y-49854000D01*
X74871000Y-49854000D01*
X74871000Y-48646000D01*
X75379000Y-48646000D01*
X75379000Y-49346000D01*
X75978999Y-49346000D01*
X75978999Y-49101797D01*
X75978997Y-49101773D01*
X75972547Y-49041767D01*
X75972547Y-49041765D01*
X75921899Y-48905976D01*
X75835047Y-48789952D01*
X75719023Y-48703100D01*
X75719024Y-48703100D01*
X75583238Y-48652453D01*
X75583230Y-48652451D01*
X75523222Y-48646000D01*
X75379000Y-48646000D01*
X74871000Y-48646000D01*
X74726797Y-48646000D01*
X74726773Y-48646002D01*
X74666767Y-48652452D01*
X74666765Y-48652452D01*
X74530976Y-48703100D01*
X74414952Y-48789953D01*
X74377388Y-48840133D01*
X74320552Y-48882680D01*
X74249736Y-48887744D01*
X74187424Y-48853719D01*
X74169279Y-48830771D01*
X74165770Y-48825082D01*
X74074030Y-48676348D01*
X74074029Y-48676347D01*
X74074024Y-48676341D01*
X73948658Y-48550975D01*
X73948652Y-48550970D01*
X73930233Y-48539609D01*
X73797738Y-48457885D01*
X73707317Y-48427923D01*
X73629427Y-48402113D01*
X73629420Y-48402112D01*
X73525553Y-48391500D01*
X72724455Y-48391500D01*
X72620574Y-48402112D01*
X72452261Y-48457885D01*
X72301347Y-48550970D01*
X72301341Y-48550975D01*
X72263924Y-48588392D01*
X72201612Y-48622417D01*
X72130796Y-48617351D01*
X72095679Y-48597331D01*
X71938476Y-48470400D01*
X71917264Y-48458550D01*
X71867552Y-48407869D01*
X71853131Y-48338352D01*
X71878582Y-48272074D01*
X71908161Y-48244161D01*
X72031523Y-48160783D01*
X72198476Y-48000772D01*
X72335985Y-47814847D01*
X72440095Y-47608357D01*
X72507811Y-47387243D01*
X72537184Y-47157865D01*
X72535536Y-47119079D01*
X72527369Y-46926821D01*
X72490108Y-46753931D01*
X72478649Y-46700762D01*
X72476447Y-46695283D01*
X72460070Y-46654525D01*
X72392426Y-46486187D01*
X72390371Y-46482850D01*
X72292728Y-46324268D01*
X72271179Y-46289270D01*
X72118398Y-46115676D01*
X72085796Y-46089352D01*
X71938479Y-45970402D01*
X71938477Y-45970401D01*
X71938476Y-45970400D01*
X71861297Y-45927285D01*
X71811584Y-45876602D01*
X71797163Y-45807086D01*
X71822614Y-45740808D01*
X71878716Y-45699231D01*
X72019026Y-45646897D01*
X72135047Y-45560047D01*
X72221899Y-45444023D01*
X72272546Y-45308238D01*
X72272548Y-45308230D01*
X72278999Y-45248222D01*
X72279000Y-45248205D01*
X72279000Y-44854000D01*
X71451398Y-44854000D01*
X71486519Y-44799351D01*
X71525000Y-44668295D01*
X71525000Y-44531705D01*
X71486519Y-44400649D01*
X71451398Y-44346000D01*
X72278999Y-44346000D01*
X72278999Y-43951797D01*
X72278997Y-43951773D01*
X72272547Y-43891767D01*
X72272547Y-43891765D01*
X72221899Y-43755976D01*
X72135047Y-43639952D01*
X72019023Y-43553100D01*
X72019024Y-43553100D01*
X71883238Y-43502453D01*
X71883230Y-43502451D01*
X71823222Y-43496000D01*
X71304000Y-43496000D01*
X71304000Y-44193808D01*
X71185199Y-44139554D01*
X71083975Y-44125000D01*
X71016025Y-44125000D01*
X70914801Y-44139554D01*
X70796000Y-44193808D01*
X70796000Y-43496000D01*
X70509500Y-43496000D01*
X70441379Y-43475998D01*
X70394886Y-43422342D01*
X70383500Y-43370000D01*
X70383500Y-41233855D01*
X70385249Y-41218014D01*
X70384956Y-41217987D01*
X70385701Y-41210094D01*
X70385702Y-41210091D01*
X70383500Y-41140041D01*
X70383500Y-41110144D01*
X70382619Y-41103178D01*
X70382155Y-41097282D01*
X70380673Y-41050110D01*
X70375022Y-41030663D01*
X70371012Y-41011300D01*
X70369569Y-40999875D01*
X70368474Y-40991203D01*
X70351099Y-40947320D01*
X70349179Y-40941711D01*
X70347741Y-40936760D01*
X70336018Y-40896407D01*
X70325706Y-40878970D01*
X70317010Y-40861221D01*
X70309552Y-40842383D01*
X70281812Y-40804203D01*
X70278564Y-40799258D01*
X70254542Y-40758638D01*
X70240214Y-40744310D01*
X70227384Y-40729289D01*
X70215472Y-40712893D01*
X70215469Y-40712891D01*
X70215469Y-40712890D01*
X70179107Y-40682808D01*
X70174726Y-40678822D01*
X67189999Y-37694094D01*
X67155973Y-37631782D01*
X67161038Y-37560966D01*
X67203585Y-37504131D01*
X67270105Y-37479320D01*
X67279094Y-37478999D01*
X67646000Y-37478999D01*
X67646000Y-36656191D01*
X67764801Y-36710446D01*
X67866025Y-36725000D01*
X67933975Y-36725000D01*
X68035199Y-36710446D01*
X68154000Y-36656191D01*
X68154000Y-37478999D01*
X68548203Y-37478999D01*
X68548226Y-37478997D01*
X68608232Y-37472547D01*
X68608234Y-37472547D01*
X68744023Y-37421899D01*
X68860047Y-37335047D01*
X68946899Y-37219023D01*
X68997546Y-37083238D01*
X68997548Y-37083230D01*
X69003999Y-37023222D01*
X69004000Y-37023205D01*
X69004000Y-36504000D01*
X68301398Y-36504000D01*
X68336519Y-36449351D01*
X68375000Y-36318295D01*
X68375000Y-36181705D01*
X68336519Y-36050649D01*
X68301398Y-35996000D01*
X69003999Y-35996000D01*
X69003999Y-35476797D01*
X69003997Y-35476773D01*
X68997547Y-35416767D01*
X68997547Y-35416765D01*
X68946899Y-35280976D01*
X68860047Y-35164952D01*
X68744023Y-35078100D01*
X68744024Y-35078100D01*
X68608238Y-35027453D01*
X68608230Y-35027451D01*
X68548222Y-35021000D01*
X68154000Y-35021000D01*
X68154000Y-35843808D01*
X68035199Y-35789554D01*
X67933975Y-35775000D01*
X67866025Y-35775000D01*
X67764801Y-35789554D01*
X67646000Y-35843808D01*
X67646000Y-35021000D01*
X67251797Y-35021000D01*
X67251773Y-35021002D01*
X67191767Y-35027452D01*
X67191765Y-35027452D01*
X67055976Y-35078100D01*
X66939952Y-35164952D01*
X66853101Y-35280975D01*
X66802071Y-35417786D01*
X66759524Y-35474621D01*
X66693003Y-35499431D01*
X66623629Y-35484339D01*
X66579625Y-35444310D01*
X66460783Y-35268477D01*
X66300772Y-35101524D01*
X66300771Y-35101523D01*
X66300769Y-35101521D01*
X66114845Y-34964013D01*
X65976833Y-34894430D01*
X65908357Y-34859905D01*
X65908354Y-34859904D01*
X65908352Y-34859903D01*
X65782466Y-34821351D01*
X65687243Y-34792189D01*
X65457865Y-34762816D01*
X65457861Y-34762816D01*
X65457853Y-34762815D01*
X65226820Y-34772630D01*
X65103460Y-34799216D01*
X65032654Y-34794014D01*
X64987820Y-34765139D01*
X63767908Y-33545227D01*
X63755936Y-33531375D01*
X63741469Y-33511942D01*
X63736154Y-33507482D01*
X63701024Y-33478003D01*
X63696970Y-33474289D01*
X63691107Y-33468425D01*
X63667805Y-33450000D01*
X82944341Y-33450000D01*
X82964937Y-33685411D01*
X83026096Y-33913661D01*
X83026098Y-33913665D01*
X83125966Y-34127832D01*
X83261498Y-34321392D01*
X83261502Y-34321397D01*
X83261505Y-34321401D01*
X83428599Y-34488495D01*
X83428603Y-34488498D01*
X83428607Y-34488501D01*
X83622167Y-34624033D01*
X83622166Y-34624033D01*
X83698304Y-34659537D01*
X83836337Y-34723903D01*
X84064592Y-34785063D01*
X84241034Y-34800500D01*
X84241035Y-34800500D01*
X84358965Y-34800500D01*
X84358966Y-34800500D01*
X84535408Y-34785063D01*
X84763663Y-34723903D01*
X84977829Y-34624035D01*
X85171401Y-34488495D01*
X85338495Y-34321401D01*
X85474035Y-34127830D01*
X85573903Y-33913663D01*
X85635063Y-33685408D01*
X85655659Y-33450000D01*
X85635063Y-33214592D01*
X85573903Y-32986337D01*
X85474035Y-32772171D01*
X85474034Y-32772169D01*
X85474033Y-32772167D01*
X85338501Y-32578607D01*
X85338497Y-32578602D01*
X85338495Y-32578599D01*
X85171401Y-32411505D01*
X85171397Y-32411502D01*
X85171392Y-32411498D01*
X84977832Y-32275966D01*
X84977833Y-32275966D01*
X84763665Y-32176098D01*
X84763661Y-32176096D01*
X84535411Y-32114937D01*
X84403076Y-32103359D01*
X84358966Y-32099500D01*
X84241034Y-32099500D01*
X84205745Y-32102587D01*
X84064588Y-32114937D01*
X83836338Y-32176096D01*
X83836334Y-32176098D01*
X83622167Y-32275966D01*
X83428607Y-32411498D01*
X83428596Y-32411507D01*
X83261507Y-32578596D01*
X83261502Y-32578602D01*
X83125965Y-32772169D01*
X83026098Y-32986334D01*
X83026096Y-32986338D01*
X82964937Y-33214588D01*
X82944341Y-33450000D01*
X63667805Y-33450000D01*
X63665103Y-33447863D01*
X63605640Y-33397968D01*
X63605638Y-33397967D01*
X63605636Y-33397965D01*
X63599506Y-33393933D01*
X63599541Y-33393878D01*
X63593187Y-33389829D01*
X63593153Y-33389886D01*
X63586906Y-33386033D01*
X63516540Y-33353220D01*
X63510554Y-33350214D01*
X63447188Y-33318391D01*
X63447186Y-33318390D01*
X63447183Y-33318389D01*
X63440289Y-33315880D01*
X63440311Y-33315817D01*
X63433189Y-33313341D01*
X63433169Y-33313404D01*
X63426209Y-33311097D01*
X63350150Y-33295392D01*
X63274652Y-33277499D01*
X63267367Y-33276648D01*
X63267374Y-33276580D01*
X63259877Y-33275814D01*
X63259872Y-33275881D01*
X63252559Y-33275241D01*
X63252558Y-33275241D01*
X63174920Y-33277500D01*
X54864154Y-33277500D01*
X54845894Y-33276170D01*
X54821924Y-33272659D01*
X54769328Y-33277260D01*
X54763835Y-33277500D01*
X54755530Y-33277500D01*
X54722617Y-33281347D01*
X54645287Y-33288112D01*
X54638102Y-33289596D01*
X54638089Y-33289533D01*
X54630716Y-33291168D01*
X54630731Y-33291231D01*
X54623594Y-33292922D01*
X54573660Y-33311097D01*
X54550647Y-33319473D01*
X54513811Y-33331679D01*
X54476974Y-33343886D01*
X54470325Y-33346987D01*
X54470296Y-33346926D01*
X54463505Y-33350214D01*
X54463535Y-33350273D01*
X54456982Y-33353563D01*
X54392107Y-33396232D01*
X54326064Y-33436968D01*
X54320301Y-33441525D01*
X54320260Y-33441473D01*
X54314417Y-33446233D01*
X54314459Y-33446283D01*
X54308841Y-33450996D01*
X54265281Y-33497167D01*
X54255549Y-33507482D01*
X52894874Y-34868158D01*
X51558437Y-36204595D01*
X51496125Y-36238620D01*
X51469342Y-36241500D01*
X40414371Y-36241500D01*
X40346250Y-36221498D01*
X40325276Y-36204595D01*
X38427908Y-34307227D01*
X38415936Y-34293375D01*
X38401469Y-34273942D01*
X38391349Y-34265450D01*
X38361024Y-34240003D01*
X38356970Y-34236289D01*
X38351107Y-34230425D01*
X38325104Y-34209864D01*
X38321525Y-34206861D01*
X38283553Y-34174999D01*
X40719341Y-34174999D01*
X40739937Y-34410411D01*
X40801096Y-34638661D01*
X40801098Y-34638665D01*
X40900966Y-34852832D01*
X41036498Y-35046392D01*
X41036502Y-35046397D01*
X41036505Y-35046401D01*
X41203599Y-35213495D01*
X41203603Y-35213498D01*
X41203607Y-35213501D01*
X41397167Y-35349033D01*
X41397166Y-35349033D01*
X41469436Y-35382733D01*
X41611337Y-35448903D01*
X41839592Y-35510063D01*
X42016034Y-35525500D01*
X42016035Y-35525500D01*
X42133965Y-35525500D01*
X42133966Y-35525500D01*
X42310408Y-35510063D01*
X42538663Y-35448903D01*
X42752829Y-35349035D01*
X42946401Y-35213495D01*
X43113495Y-35046401D01*
X43249035Y-34852830D01*
X43348903Y-34638663D01*
X43410063Y-34410408D01*
X43430659Y-34175000D01*
X43410063Y-33939592D01*
X43348903Y-33711337D01*
X43249035Y-33497171D01*
X43249034Y-33497169D01*
X43249033Y-33497167D01*
X43113501Y-33303607D01*
X43113497Y-33303602D01*
X43113495Y-33303599D01*
X42946401Y-33136505D01*
X42946397Y-33136502D01*
X42946392Y-33136498D01*
X42752832Y-33000966D01*
X42752833Y-33000966D01*
X42538665Y-32901098D01*
X42538661Y-32901096D01*
X42310411Y-32839937D01*
X42178076Y-32828359D01*
X42133966Y-32824500D01*
X42016034Y-32824500D01*
X41980745Y-32827587D01*
X41839588Y-32839937D01*
X41611338Y-32901096D01*
X41611334Y-32901098D01*
X41397167Y-33000966D01*
X41203607Y-33136498D01*
X41203596Y-33136507D01*
X41036507Y-33303596D01*
X41036502Y-33303602D01*
X40900965Y-33497169D01*
X40801098Y-33711334D01*
X40801096Y-33711338D01*
X40739937Y-33939588D01*
X40719341Y-34174999D01*
X38283553Y-34174999D01*
X38265640Y-34159968D01*
X38265638Y-34159967D01*
X38265636Y-34159965D01*
X38259506Y-34155933D01*
X38259541Y-34155878D01*
X38253187Y-34151829D01*
X38253153Y-34151886D01*
X38246906Y-34148033D01*
X38176540Y-34115220D01*
X38170554Y-34112214D01*
X38107188Y-34080391D01*
X38107186Y-34080390D01*
X38107183Y-34080389D01*
X38100289Y-34077880D01*
X38100311Y-34077817D01*
X38093189Y-34075341D01*
X38093169Y-34075404D01*
X38086209Y-34073097D01*
X38010150Y-34057392D01*
X37934652Y-34039499D01*
X37927367Y-34038648D01*
X37927374Y-34038580D01*
X37919877Y-34037814D01*
X37919872Y-34037881D01*
X37912559Y-34037241D01*
X37912558Y-34037241D01*
X37834920Y-34039500D01*
X27146441Y-34039500D01*
X27128181Y-34038170D01*
X27104211Y-34034659D01*
X27051615Y-34039260D01*
X27046122Y-34039500D01*
X27037817Y-34039500D01*
X27004904Y-34043347D01*
X26927574Y-34050112D01*
X26920389Y-34051596D01*
X26920376Y-34051533D01*
X26913003Y-34053168D01*
X26913018Y-34053231D01*
X26905881Y-34054922D01*
X26855947Y-34073097D01*
X26832934Y-34081473D01*
X26796098Y-34093679D01*
X26759261Y-34105886D01*
X26752612Y-34108987D01*
X26752583Y-34108926D01*
X26745792Y-34112214D01*
X26745822Y-34112273D01*
X26739269Y-34115563D01*
X26674394Y-34158232D01*
X26608351Y-34198968D01*
X26602588Y-34203525D01*
X26602547Y-34203473D01*
X26596704Y-34208233D01*
X26596746Y-34208283D01*
X26591128Y-34212996D01*
X26537836Y-34269482D01*
X25809225Y-34998092D01*
X25795376Y-35010062D01*
X25775943Y-35024530D01*
X25775942Y-35024531D01*
X25772342Y-35028821D01*
X25742007Y-35064971D01*
X25738300Y-35069017D01*
X25732421Y-35074897D01*
X25732412Y-35074907D01*
X25711863Y-35100896D01*
X25665945Y-35155621D01*
X25661965Y-35160364D01*
X25657935Y-35166491D01*
X25655840Y-35165113D01*
X25615462Y-35208336D01*
X25564159Y-35225213D01*
X25545581Y-35227111D01*
X25545575Y-35227112D01*
X25545574Y-35227113D01*
X25383026Y-35280975D01*
X25377262Y-35282885D01*
X25226347Y-35375970D01*
X25226341Y-35375975D01*
X25100975Y-35501341D01*
X25100970Y-35501347D01*
X25007885Y-35652262D01*
X24952113Y-35820572D01*
X24952112Y-35820579D01*
X24941500Y-35924446D01*
X24941500Y-37525544D01*
X22471661Y-37525544D01*
X22448857Y-37402744D01*
X22445369Y-37383960D01*
X22439344Y-37351501D01*
X22367454Y-36964209D01*
X22367453Y-36964208D01*
X22285966Y-36524994D01*
X22283872Y-36513706D01*
X22229685Y-36221498D01*
X22204444Y-36085383D01*
X22204443Y-36085382D01*
X22202472Y-36074750D01*
X22198005Y-36050649D01*
X22122945Y-35645656D01*
X22041521Y-35206095D01*
X22040094Y-35198392D01*
X21960227Y-34766981D01*
X21958719Y-34758835D01*
X21879116Y-34328597D01*
X21867439Y-34265448D01*
X21798244Y-33891224D01*
X21798243Y-33891223D01*
X21733109Y-33538733D01*
X21715340Y-33442569D01*
X21701255Y-33366294D01*
X21637464Y-33020832D01*
X21557593Y-32587988D01*
X21478213Y-32157475D01*
X21399340Y-31729382D01*
X21321641Y-31307316D01*
X21320795Y-31300868D01*
X21313922Y-31213520D01*
X21314383Y-31189037D01*
X21322084Y-31123036D01*
X21327270Y-31099115D01*
X21351300Y-31024322D01*
X21361016Y-31001858D01*
X21393205Y-30943712D01*
X21407083Y-30923552D01*
X21457708Y-30863484D01*
X21475225Y-30846391D01*
X21527228Y-30804697D01*
X21547397Y-30791486D01*
X21617197Y-30754784D01*
X21634042Y-30747442D01*
X21659682Y-30738432D01*
X21677419Y-30733622D01*
X21727539Y-30723887D01*
X21757681Y-30718032D01*
X21775944Y-30715853D01*
X21794015Y-30715027D01*
X21810885Y-30714258D01*
X21813758Y-30714192D01*
X86581239Y-30714192D01*
X86587747Y-30714529D01*
G37*
%TD.AperFunction*%
M02*
