%TF.GenerationSoftware,KiCad,Pcbnew,7.0.6*%
%TF.CreationDate,2023-07-13T14:44:58+02:00*%
%TF.ProjectId,LH_HeadLogicBoard_FreeJoy,4c485f48-6561-4644-9c6f-676963426f61,rev?*%
%TF.SameCoordinates,Original*%
%TF.FileFunction,Copper,L1,Top*%
%TF.FilePolarity,Positive*%
%FSLAX46Y46*%
G04 Gerber Fmt 4.6, Leading zero omitted, Abs format (unit mm)*
G04 Created by KiCad (PCBNEW 7.0.6) date 2023-07-13 14:44:58*
%MOMM*%
%LPD*%
G01*
G04 APERTURE LIST*
G04 Aperture macros list*
%AMRoundRect*
0 Rectangle with rounded corners*
0 $1 Rounding radius*
0 $2 $3 $4 $5 $6 $7 $8 $9 X,Y pos of 4 corners*
0 Add a 4 corners polygon primitive as box body*
4,1,4,$2,$3,$4,$5,$6,$7,$8,$9,$2,$3,0*
0 Add four circle primitives for the rounded corners*
1,1,$1+$1,$2,$3*
1,1,$1+$1,$4,$5*
1,1,$1+$1,$6,$7*
1,1,$1+$1,$8,$9*
0 Add four rect primitives between the rounded corners*
20,1,$1+$1,$2,$3,$4,$5,0*
20,1,$1+$1,$4,$5,$6,$7,0*
20,1,$1+$1,$6,$7,$8,$9,0*
20,1,$1+$1,$8,$9,$2,$3,0*%
G04 Aperture macros list end*
%TA.AperFunction,SMDPad,CuDef*%
%ADD10RoundRect,0.250000X-0.350000X-0.450000X0.350000X-0.450000X0.350000X0.450000X-0.350000X0.450000X0*%
%TD*%
%TA.AperFunction,SMDPad,CuDef*%
%ADD11RoundRect,0.250000X-0.337500X-0.475000X0.337500X-0.475000X0.337500X0.475000X-0.337500X0.475000X0*%
%TD*%
%TA.AperFunction,SMDPad,CuDef*%
%ADD12RoundRect,0.250000X0.475000X-0.337500X0.475000X0.337500X-0.475000X0.337500X-0.475000X-0.337500X0*%
%TD*%
%TA.AperFunction,ComponentPad*%
%ADD13RoundRect,0.250000X-0.725000X0.600000X-0.725000X-0.600000X0.725000X-0.600000X0.725000X0.600000X0*%
%TD*%
%TA.AperFunction,ComponentPad*%
%ADD14O,1.950000X1.700000*%
%TD*%
%TA.AperFunction,ComponentPad*%
%ADD15RoundRect,0.250000X0.600000X0.725000X-0.600000X0.725000X-0.600000X-0.725000X0.600000X-0.725000X0*%
%TD*%
%TA.AperFunction,ComponentPad*%
%ADD16O,1.700000X1.950000*%
%TD*%
%TA.AperFunction,ComponentPad*%
%ADD17RoundRect,0.250000X0.600000X0.750000X-0.600000X0.750000X-0.600000X-0.750000X0.600000X-0.750000X0*%
%TD*%
%TA.AperFunction,ComponentPad*%
%ADD18O,1.700000X2.000000*%
%TD*%
%TA.AperFunction,SMDPad,CuDef*%
%ADD19RoundRect,0.100000X0.100000X-0.637500X0.100000X0.637500X-0.100000X0.637500X-0.100000X-0.637500X0*%
%TD*%
%TA.AperFunction,ComponentPad*%
%ADD20RoundRect,0.250000X-0.600000X-0.750000X0.600000X-0.750000X0.600000X0.750000X-0.600000X0.750000X0*%
%TD*%
%TA.AperFunction,ComponentPad*%
%ADD21RoundRect,0.250000X-0.750000X0.600000X-0.750000X-0.600000X0.750000X-0.600000X0.750000X0.600000X0*%
%TD*%
%TA.AperFunction,ComponentPad*%
%ADD22O,2.000000X1.700000*%
%TD*%
%TA.AperFunction,ViaPad*%
%ADD23C,0.800000*%
%TD*%
%TA.AperFunction,ViaPad*%
%ADD24C,0.500000*%
%TD*%
%TA.AperFunction,Conductor*%
%ADD25C,0.250000*%
%TD*%
%TA.AperFunction,Conductor*%
%ADD26C,0.500000*%
%TD*%
G04 APERTURE END LIST*
D10*
X59750000Y-65250000D03*
X61750000Y-65250000D03*
X59750000Y-62750000D03*
X61750000Y-62750000D03*
D11*
X35862500Y-58800000D03*
X37937500Y-58800000D03*
D12*
X34050000Y-39912500D03*
X34050000Y-37837500D03*
D13*
X71050000Y-44600000D03*
D14*
X71050000Y-47100000D03*
X71050000Y-49600000D03*
X71050000Y-52100000D03*
X71050000Y-54600000D03*
X71050000Y-57100000D03*
X71050000Y-59600000D03*
D10*
X59750000Y-60250000D03*
X61750000Y-60250000D03*
D15*
X67900000Y-36250000D03*
D16*
X65400000Y-36250000D03*
X62900000Y-36250000D03*
X60400000Y-36250000D03*
X57900000Y-36250000D03*
D10*
X59750000Y-57750000D03*
X61750000Y-57750000D03*
D15*
X58400000Y-43000000D03*
D16*
X55900000Y-43000000D03*
X53400000Y-43000000D03*
X50900000Y-43000000D03*
X48400000Y-43000000D03*
X45900000Y-43000000D03*
X43400000Y-43000000D03*
D10*
X32900000Y-33375000D03*
X34900000Y-33375000D03*
D17*
X48200000Y-50275000D03*
D18*
X45700000Y-50275000D03*
D10*
X59775000Y-55250000D03*
X61775000Y-55250000D03*
D13*
X55700000Y-50200000D03*
D14*
X55700000Y-52700000D03*
X55700000Y-55200000D03*
X55700000Y-57700000D03*
X55700000Y-60200000D03*
X55700000Y-62700000D03*
X55700000Y-65200000D03*
D19*
X37425000Y-69587500D03*
X38075000Y-69587500D03*
X38725000Y-69587500D03*
X39375000Y-69587500D03*
X40025000Y-69587500D03*
X40675000Y-69587500D03*
X41325000Y-69587500D03*
X41975000Y-69587500D03*
X41975000Y-63862500D03*
X41325000Y-63862500D03*
X40675000Y-63862500D03*
X40025000Y-63862500D03*
X39375000Y-63862500D03*
X38725000Y-63862500D03*
X38075000Y-63862500D03*
X37425000Y-63862500D03*
D20*
X26300000Y-36725000D03*
D18*
X28800000Y-36725000D03*
D19*
X34050000Y-48569000D03*
X34700000Y-48569000D03*
X35350000Y-48569000D03*
X36000000Y-48569000D03*
X36650000Y-48569000D03*
X37300000Y-48569000D03*
X37950000Y-48569000D03*
X38600000Y-48569000D03*
X38600000Y-42844000D03*
X37950000Y-42844000D03*
X37300000Y-42844000D03*
X36650000Y-42844000D03*
X36000000Y-42844000D03*
X35350000Y-42844000D03*
X34700000Y-42844000D03*
X34050000Y-42844000D03*
D21*
X43900000Y-57100000D03*
D22*
X43900000Y-59600000D03*
D21*
X50700000Y-57100000D03*
D22*
X50700000Y-59600000D03*
D13*
X65300000Y-44600000D03*
D14*
X65300000Y-47100000D03*
X65300000Y-49600000D03*
X65300000Y-52100000D03*
X65300000Y-54600000D03*
X65300000Y-57100000D03*
X65300000Y-59600000D03*
D23*
X58420000Y-40894000D03*
X37084000Y-35814000D03*
X50000000Y-36000000D03*
X39000000Y-73500000D03*
X46900000Y-63500000D03*
X66200000Y-39200000D03*
X41250000Y-38750000D03*
X32258000Y-36830000D03*
X38150000Y-53350000D03*
X44300000Y-54800000D03*
X32004000Y-39878000D03*
X35300000Y-56300000D03*
X33150000Y-45250000D03*
D24*
X34100000Y-58400000D03*
D23*
X34700000Y-45110000D03*
X43000000Y-51250000D03*
D24*
X62240000Y-38910000D03*
X55276767Y-38906767D03*
X65975689Y-42724847D03*
X42475500Y-64775500D03*
X39065000Y-51035000D03*
D25*
X55700000Y-50238000D02*
X53912000Y-48450000D01*
D26*
X58450000Y-43100000D02*
X58450000Y-40924000D01*
D25*
X34700000Y-41400000D02*
X35400000Y-40700000D01*
D26*
X58450000Y-40924000D02*
X58420000Y-40894000D01*
D25*
X35400000Y-40700000D02*
X35400000Y-39187500D01*
X46900000Y-49100000D02*
X46900000Y-51472000D01*
X38075000Y-61625000D02*
X38075000Y-63862500D01*
X35400000Y-39187500D02*
X34050000Y-37837500D01*
X34700000Y-42844000D02*
X34700000Y-41400000D01*
X53912000Y-48450000D02*
X47550000Y-48450000D01*
X47550000Y-48450000D02*
X46900000Y-49100000D01*
D26*
X48200000Y-50275000D02*
X48200000Y-52638000D01*
X73042000Y-47100000D02*
X73914000Y-46228000D01*
X55700000Y-52738000D02*
X48300000Y-52738000D01*
X35862500Y-58800000D02*
X35862500Y-62300000D01*
X71050000Y-47100000D02*
X73042000Y-47100000D01*
X35862500Y-62300000D02*
X37425000Y-63862500D01*
X61468000Y-41148000D02*
X59690000Y-39370000D01*
X32004000Y-39878000D02*
X34015500Y-39878000D01*
X55950000Y-40951000D02*
X55950000Y-43100000D01*
X48200000Y-52638000D02*
X48200000Y-54600000D01*
X65300000Y-47100000D02*
X61468000Y-43268000D01*
X48300000Y-52738000D02*
X48200000Y-52638000D01*
X48200000Y-54600000D02*
X50700000Y-57100000D01*
X72390000Y-41402000D02*
X70552000Y-41402000D01*
X48200000Y-54600000D02*
X45700000Y-57100000D01*
X57531000Y-39370000D02*
X55950000Y-40951000D01*
X73914000Y-46228000D02*
X73914000Y-42926000D01*
X45700000Y-57100000D02*
X43900000Y-57100000D01*
X34050000Y-39912500D02*
X34045000Y-39917500D01*
X70552000Y-41402000D02*
X65400000Y-36250000D01*
X71050000Y-47100000D02*
X65300000Y-47100000D01*
X73914000Y-42926000D02*
X72390000Y-41402000D01*
X34015500Y-39878000D02*
X34050000Y-39912500D01*
X61468000Y-43268000D02*
X61468000Y-41148000D01*
X35862500Y-56862500D02*
X35300000Y-56300000D01*
X34045000Y-39917500D02*
X34045000Y-42836500D01*
X59690000Y-39370000D02*
X57531000Y-39370000D01*
X35862500Y-58800000D02*
X35862500Y-56862500D01*
D25*
X57900000Y-37096000D02*
X57900000Y-36250000D01*
X38600000Y-42836500D02*
X38600000Y-40410000D01*
X38910000Y-40100000D02*
X54896000Y-40100000D01*
X54896000Y-40100000D02*
X57900000Y-37096000D01*
X38600000Y-40410000D02*
X38910000Y-40100000D01*
X60400000Y-36250000D02*
X60400000Y-36016000D01*
X33150000Y-45250000D02*
X34050000Y-46150000D01*
X26700000Y-31400000D02*
X24300000Y-33800000D01*
X34100000Y-58400000D02*
X34100000Y-64900000D01*
X24300000Y-39100000D02*
X26700000Y-41500000D01*
X34100000Y-64900000D02*
X37425000Y-68225000D01*
X60400000Y-36016000D02*
X55784000Y-31400000D01*
X24300000Y-33800000D02*
X24300000Y-39100000D01*
X26700000Y-41500000D02*
X29400000Y-41500000D01*
X55784000Y-31400000D02*
X26700000Y-31400000D01*
X37425000Y-68225000D02*
X37425000Y-69595000D01*
X34050000Y-46150000D02*
X34050000Y-48569000D01*
X29400000Y-41500000D02*
X33150000Y-45250000D01*
X33400000Y-56600000D02*
X33400000Y-68300000D01*
X34700000Y-45110000D02*
X34700000Y-55300000D01*
X37700000Y-70900000D02*
X38075000Y-70525000D01*
X33400000Y-68300000D02*
X36000000Y-70900000D01*
X38075000Y-70525000D02*
X38075000Y-69595000D01*
X36000000Y-70900000D02*
X37700000Y-70900000D01*
X34700000Y-55300000D02*
X33400000Y-56600000D01*
X47530698Y-44655698D02*
X47111396Y-45075000D01*
X35350000Y-45540000D02*
X35350000Y-48576500D01*
X47111396Y-45075000D02*
X45261396Y-45075000D01*
X35590000Y-45300000D02*
X35350000Y-45540000D01*
X49394302Y-44655698D02*
X47530698Y-44655698D01*
X45261396Y-45075000D02*
X45036396Y-45300000D01*
X45036396Y-45300000D02*
X35590000Y-45300000D01*
X50950000Y-43100000D02*
X49394302Y-44655698D01*
X36450000Y-45750000D02*
X36000000Y-46200000D01*
X50018198Y-44668198D02*
X49580698Y-45105698D01*
X53450000Y-43100000D02*
X51881802Y-44668198D01*
X45222792Y-45750000D02*
X36450000Y-45750000D01*
X51881802Y-44668198D02*
X50018198Y-44668198D01*
X47717094Y-45105698D02*
X47297792Y-45525000D01*
X45447792Y-45525000D02*
X45222792Y-45750000D01*
X47297792Y-45525000D02*
X45447792Y-45525000D01*
X49580698Y-45105698D02*
X47717094Y-45105698D01*
X36000000Y-46200000D02*
X36000000Y-48576500D01*
X49767094Y-45555698D02*
X47903490Y-45555698D01*
X47259188Y-46200000D02*
X36970000Y-46200000D01*
X36650000Y-46520000D02*
X36650000Y-48576500D01*
X36970000Y-46200000D02*
X36650000Y-46520000D01*
X65300000Y-49600000D02*
X60870000Y-45170000D01*
X60870000Y-45170000D02*
X50152792Y-45170000D01*
X50152792Y-45170000D02*
X49767094Y-45555698D01*
X47903490Y-45555698D02*
X47259188Y-46200000D01*
X63541802Y-48478198D02*
X60683604Y-45620000D01*
X63541802Y-50341802D02*
X63541802Y-48478198D01*
X37620000Y-46650000D02*
X37300000Y-46970000D01*
X48089886Y-46005698D02*
X47445584Y-46650000D01*
X49954302Y-46005698D02*
X48089886Y-46005698D01*
X47445584Y-46650000D02*
X37620000Y-46650000D01*
X50340000Y-45620000D02*
X49954302Y-46005698D01*
X65300000Y-52100000D02*
X63541802Y-50341802D01*
X37300000Y-46970000D02*
X37300000Y-48576500D01*
X60683604Y-45620000D02*
X50340000Y-45620000D01*
X32900000Y-35061827D02*
X37300000Y-39461827D01*
X29550000Y-36725000D02*
X32900000Y-33375000D01*
X28800000Y-36725000D02*
X29550000Y-36725000D01*
X37300000Y-39461827D02*
X37300000Y-42836500D01*
X32900000Y-33375000D02*
X32900000Y-35061827D01*
X42603500Y-43946500D02*
X36796500Y-43946500D01*
X43450000Y-43100000D02*
X42603500Y-43946500D01*
X36650000Y-43800000D02*
X36650000Y-42836500D01*
X36796500Y-43946500D02*
X36650000Y-43800000D01*
X43021500Y-44396500D02*
X36216500Y-44396500D01*
X45950000Y-43100000D02*
X44650000Y-44400000D01*
X44650000Y-44400000D02*
X43025000Y-44400000D01*
X36216500Y-44396500D02*
X36000000Y-44180000D01*
X36000000Y-44180000D02*
X36000000Y-42836500D01*
X43025000Y-44400000D02*
X43021500Y-44396500D01*
X35560000Y-44850000D02*
X35350000Y-44640000D01*
X45061396Y-44625000D02*
X44836396Y-44850000D01*
X35350000Y-44640000D02*
X35350000Y-42836500D01*
X46925000Y-44625000D02*
X45061396Y-44625000D01*
X48450000Y-43100000D02*
X46925000Y-44625000D01*
X44836396Y-44850000D02*
X35560000Y-44850000D01*
X43975000Y-50275000D02*
X43000000Y-51250000D01*
X45700000Y-50275000D02*
X43975000Y-50275000D01*
X43000000Y-51250000D02*
X43000000Y-51000000D01*
X53550000Y-60686396D02*
X47086396Y-67150000D01*
X38725000Y-68865812D02*
X38725000Y-69595000D01*
X59738000Y-57738000D02*
X54462000Y-57738000D01*
X54462000Y-57738000D02*
X53550000Y-58650000D01*
X53550000Y-58650000D02*
X53550000Y-60686396D01*
X47086396Y-67150000D02*
X40440812Y-67150000D01*
X59750000Y-57750000D02*
X59738000Y-57738000D01*
X40440812Y-67150000D02*
X38725000Y-68865812D01*
X40627208Y-67600000D02*
X39375000Y-68852208D01*
X39375000Y-68852208D02*
X39375000Y-69595000D01*
X59750000Y-60250000D02*
X59738000Y-60238000D01*
X54634792Y-60238000D02*
X47272792Y-67600000D01*
X47272792Y-67600000D02*
X40627208Y-67600000D01*
X59738000Y-60238000D02*
X54634792Y-60238000D01*
X47459188Y-68050000D02*
X40813604Y-68050000D01*
X59738000Y-62738000D02*
X52771188Y-62738000D01*
X40025000Y-68838604D02*
X40025000Y-69595000D01*
X59750000Y-62750000D02*
X59738000Y-62738000D01*
X52771188Y-62738000D02*
X47459188Y-68050000D01*
X40813604Y-68050000D02*
X40025000Y-68838604D01*
X40675000Y-68825000D02*
X40675000Y-69595000D01*
X47645584Y-68500000D02*
X41000000Y-68500000D01*
X59738000Y-65238000D02*
X50907584Y-65238000D01*
X41000000Y-68500000D02*
X40675000Y-68825000D01*
X59750000Y-65250000D02*
X59738000Y-65238000D01*
X50907584Y-65238000D02*
X47645584Y-68500000D01*
X43050000Y-65113604D02*
X43050000Y-63598959D01*
X47631980Y-47100000D02*
X48276282Y-46455698D01*
X43300000Y-47100000D02*
X47631980Y-47100000D01*
X40675000Y-65075000D02*
X40950000Y-65350000D01*
X48276282Y-46455698D02*
X50144302Y-46455698D01*
X50530000Y-46070000D02*
X60497208Y-46070000D01*
X40950000Y-65350000D02*
X42813604Y-65350000D01*
X63091802Y-48664594D02*
X63091802Y-52391802D01*
X40800000Y-49600000D02*
X43300000Y-47100000D01*
X43050000Y-63598959D02*
X40800000Y-61348959D01*
X40675000Y-63855000D02*
X40675000Y-65075000D01*
X40800000Y-61348959D02*
X40800000Y-49600000D01*
X63091802Y-52391802D02*
X65300000Y-54600000D01*
X60497208Y-46070000D02*
X63091802Y-48664594D01*
X42813604Y-65350000D02*
X43050000Y-65113604D01*
X50144302Y-46455698D02*
X50530000Y-46070000D01*
X50344302Y-46905698D02*
X48462678Y-46905698D01*
X64000000Y-53936396D02*
X62641802Y-52578198D01*
X62641802Y-52578198D02*
X62641802Y-48850990D01*
X60310812Y-46520000D02*
X50730000Y-46520000D01*
X40025000Y-65425000D02*
X40025000Y-63855000D01*
X47818376Y-47550000D02*
X43486396Y-47550000D01*
X43000000Y-65800000D02*
X40400000Y-65800000D01*
X65300000Y-57100000D02*
X65300000Y-56661827D01*
X43486396Y-47550000D02*
X41250000Y-49786396D01*
X43500000Y-65300000D02*
X43000000Y-65800000D01*
X62641802Y-48850990D02*
X60310812Y-46520000D01*
X40400000Y-65800000D02*
X40025000Y-65425000D01*
X41250000Y-49786396D02*
X41250000Y-61162563D01*
X48462678Y-46905698D02*
X47818376Y-47550000D01*
X41250000Y-61162563D02*
X43500000Y-63412563D01*
X50730000Y-46520000D02*
X50344302Y-46905698D01*
X65300000Y-56661827D02*
X64000000Y-55361827D01*
X43500000Y-63412563D02*
X43500000Y-65300000D01*
X64000000Y-55361827D02*
X64000000Y-53936396D01*
X43950000Y-63226167D02*
X43950000Y-65550000D01*
X65300000Y-59600000D02*
X64000000Y-58300000D01*
X63550000Y-55548223D02*
X63550000Y-54122792D01*
X39850000Y-66250000D02*
X39375000Y-65775000D01*
X43672792Y-48000000D02*
X41700000Y-49972792D01*
X63550000Y-54122792D02*
X62191802Y-52764594D01*
X49960000Y-48000000D02*
X43672792Y-48000000D01*
X62191802Y-49037386D02*
X60124416Y-46970000D01*
X60124416Y-46970000D02*
X50990000Y-46970000D01*
X43250000Y-66250000D02*
X39850000Y-66250000D01*
X62191802Y-52764594D02*
X62191802Y-49037386D01*
X50990000Y-46970000D02*
X49960000Y-48000000D01*
X43950000Y-65550000D02*
X43250000Y-66250000D01*
X41700000Y-60976167D02*
X43950000Y-63226167D01*
X64000000Y-58300000D02*
X64000000Y-55998223D01*
X64000000Y-55998223D02*
X63550000Y-55548223D01*
X39375000Y-65775000D02*
X39375000Y-63855000D01*
X41700000Y-49972792D02*
X41700000Y-60976167D01*
X55688000Y-55250000D02*
X53100000Y-57838000D01*
X53100000Y-57838000D02*
X53100000Y-60500000D01*
X46900000Y-66700000D02*
X39663604Y-66700000D01*
X38725000Y-65761396D02*
X38725000Y-63855000D01*
X53100000Y-60500000D02*
X46900000Y-66700000D01*
X39663604Y-66700000D02*
X38725000Y-65761396D01*
D26*
X59875000Y-55263000D02*
X59900000Y-55238000D01*
D25*
X59775000Y-55250000D02*
X55688000Y-55250000D01*
X42475500Y-64355500D02*
X41975000Y-63855000D01*
X53444000Y-34544000D02*
X46472396Y-34544000D01*
X41873604Y-36500000D02*
X37950000Y-40423604D01*
X62240000Y-38910000D02*
X63422396Y-38910000D01*
X44516396Y-36500000D02*
X41873604Y-36500000D01*
X37950000Y-40423604D02*
X37950000Y-42836500D01*
X63422396Y-38910000D02*
X65975689Y-41463293D01*
X55276767Y-36376767D02*
X53444000Y-34544000D01*
X65975689Y-41463293D02*
X65975689Y-42724847D01*
X42475500Y-64775500D02*
X42475500Y-64355500D01*
X46472396Y-34544000D02*
X44516396Y-36500000D01*
X55276767Y-38906767D02*
X55276767Y-36376767D01*
X39065000Y-51035000D02*
X40349000Y-52319000D01*
X40349000Y-61556000D02*
X41325000Y-62532000D01*
X41325000Y-62532000D02*
X41325000Y-63855000D01*
X40349000Y-52319000D02*
X40349000Y-61556000D01*
%TA.AperFunction,Conductor*%
G36*
X26247408Y-30734194D02*
G01*
X26293901Y-30787850D01*
X26304005Y-30858124D01*
X26274511Y-30922704D01*
X26265542Y-30932040D01*
X26262894Y-30934526D01*
X26232808Y-30970892D01*
X26228812Y-30975283D01*
X23911336Y-33292757D01*
X23898901Y-33302721D01*
X23899089Y-33302948D01*
X23892980Y-33308001D01*
X23845016Y-33359078D01*
X23823866Y-33380227D01*
X23819560Y-33385777D01*
X23815714Y-33390279D01*
X23783417Y-33424674D01*
X23783411Y-33424683D01*
X23773651Y-33442435D01*
X23762803Y-33458950D01*
X23750386Y-33474958D01*
X23731645Y-33518264D01*
X23729034Y-33523594D01*
X23706305Y-33564939D01*
X23706303Y-33564944D01*
X23701267Y-33584559D01*
X23694864Y-33603262D01*
X23686819Y-33621852D01*
X23679437Y-33668456D01*
X23678233Y-33674268D01*
X23666500Y-33719968D01*
X23666500Y-33740223D01*
X23664949Y-33759933D01*
X23661780Y-33779942D01*
X23661779Y-33779946D01*
X23666219Y-33826919D01*
X23666499Y-33832850D01*
X23666500Y-39016146D01*
X23664751Y-39031988D01*
X23665044Y-39032016D01*
X23664298Y-39039907D01*
X23664298Y-39039909D01*
X23666171Y-39099498D01*
X23666500Y-39109957D01*
X23666500Y-39139851D01*
X23666501Y-39139872D01*
X23667378Y-39146820D01*
X23667844Y-39152732D01*
X23669326Y-39199888D01*
X23669327Y-39199893D01*
X23674977Y-39219339D01*
X23678986Y-39238697D01*
X23681525Y-39258793D01*
X23681526Y-39258799D01*
X23698893Y-39302662D01*
X23700816Y-39308279D01*
X23713982Y-39353593D01*
X23724294Y-39371031D01*
X23732988Y-39388779D01*
X23740444Y-39407609D01*
X23740450Y-39407620D01*
X23768177Y-39445783D01*
X23771437Y-39450746D01*
X23795460Y-39491365D01*
X23809779Y-39505684D01*
X23822617Y-39520714D01*
X23825336Y-39524456D01*
X23834528Y-39537107D01*
X23842256Y-39543500D01*
X23870886Y-39567185D01*
X23875267Y-39571171D01*
X25034356Y-40730260D01*
X26192753Y-41888657D01*
X26202720Y-41901097D01*
X26202947Y-41900910D01*
X26207999Y-41907017D01*
X26208000Y-41907018D01*
X26259095Y-41954999D01*
X26280231Y-41976135D01*
X26285770Y-41980431D01*
X26290282Y-41984285D01*
X26324678Y-42016585D01*
X26324682Y-42016588D01*
X26342430Y-42026345D01*
X26358957Y-42037201D01*
X26373099Y-42048171D01*
X26374960Y-42049614D01*
X26418259Y-42068351D01*
X26423585Y-42070960D01*
X26464935Y-42093693D01*
X26464938Y-42093694D01*
X26464940Y-42093695D01*
X26484562Y-42098733D01*
X26503263Y-42105135D01*
X26515814Y-42110567D01*
X26521852Y-42113180D01*
X26521853Y-42113180D01*
X26521855Y-42113181D01*
X26568477Y-42120564D01*
X26574262Y-42121763D01*
X26619970Y-42133500D01*
X26640224Y-42133500D01*
X26659934Y-42135051D01*
X26662141Y-42135400D01*
X26679943Y-42138220D01*
X26713870Y-42135012D01*
X26726917Y-42133780D01*
X26732850Y-42133500D01*
X29085406Y-42133500D01*
X29153527Y-42153502D01*
X29174501Y-42170405D01*
X32202877Y-45198782D01*
X32236903Y-45261094D01*
X32239092Y-45274706D01*
X32256457Y-45439927D01*
X32266677Y-45471380D01*
X32315473Y-45621556D01*
X32315476Y-45621561D01*
X32410958Y-45786941D01*
X32410965Y-45786951D01*
X32538744Y-45928864D01*
X32545857Y-45934032D01*
X32693248Y-46041118D01*
X32867712Y-46118794D01*
X33054513Y-46158500D01*
X33110406Y-46158500D01*
X33178527Y-46178502D01*
X33199501Y-46195405D01*
X33379595Y-46375499D01*
X33413621Y-46437811D01*
X33416500Y-46464594D01*
X33416500Y-47604331D01*
X33406909Y-47652548D01*
X33357162Y-47772649D01*
X33341500Y-47891612D01*
X33341500Y-49246383D01*
X33341501Y-49246392D01*
X33350963Y-49318264D01*
X33357162Y-49365350D01*
X33417827Y-49511809D01*
X33418477Y-49513378D01*
X33447958Y-49551797D01*
X33516013Y-49640487D01*
X33643124Y-49738024D01*
X33791150Y-49799338D01*
X33910115Y-49815000D01*
X33940498Y-49814999D01*
X34008618Y-49834999D01*
X34055112Y-49888653D01*
X34066500Y-49940999D01*
X34066500Y-54985404D01*
X34046498Y-55053525D01*
X34029595Y-55074499D01*
X33011336Y-56092757D01*
X32998901Y-56102721D01*
X32999089Y-56102948D01*
X32992980Y-56108001D01*
X32945015Y-56159079D01*
X32923866Y-56180227D01*
X32919560Y-56185777D01*
X32915714Y-56190279D01*
X32883417Y-56224674D01*
X32883411Y-56224683D01*
X32873651Y-56242435D01*
X32862803Y-56258950D01*
X32850386Y-56274958D01*
X32831645Y-56318264D01*
X32829034Y-56323594D01*
X32806305Y-56364939D01*
X32806303Y-56364944D01*
X32801267Y-56384559D01*
X32794864Y-56403262D01*
X32786819Y-56421852D01*
X32779437Y-56468456D01*
X32778233Y-56474268D01*
X32766500Y-56519968D01*
X32766500Y-56540223D01*
X32764949Y-56559933D01*
X32761780Y-56579941D01*
X32761779Y-56579943D01*
X32766219Y-56626915D01*
X32766499Y-56632846D01*
X32766499Y-68216146D01*
X32764751Y-68231988D01*
X32765044Y-68232016D01*
X32764298Y-68239907D01*
X32766500Y-68309957D01*
X32766500Y-68339851D01*
X32766501Y-68339872D01*
X32767378Y-68346820D01*
X32767844Y-68352732D01*
X32769326Y-68399888D01*
X32769327Y-68399893D01*
X32774977Y-68419339D01*
X32778986Y-68438697D01*
X32781525Y-68458793D01*
X32781526Y-68458799D01*
X32798893Y-68502662D01*
X32800816Y-68508279D01*
X32813982Y-68553593D01*
X32824294Y-68571031D01*
X32832988Y-68588779D01*
X32840444Y-68607609D01*
X32840450Y-68607620D01*
X32868177Y-68645783D01*
X32871437Y-68650746D01*
X32895460Y-68691365D01*
X32909779Y-68705684D01*
X32922617Y-68720714D01*
X32925122Y-68724161D01*
X32934528Y-68737107D01*
X32962794Y-68760491D01*
X32970886Y-68767185D01*
X32975267Y-68771171D01*
X34303598Y-70099502D01*
X35492753Y-71288657D01*
X35502720Y-71301097D01*
X35502947Y-71300910D01*
X35507999Y-71307017D01*
X35508000Y-71307018D01*
X35559094Y-71354998D01*
X35559095Y-71354999D01*
X35580225Y-71376130D01*
X35585768Y-71380430D01*
X35590281Y-71384285D01*
X35624679Y-71416586D01*
X35624680Y-71416586D01*
X35624682Y-71416588D01*
X35642429Y-71426344D01*
X35658959Y-71437202D01*
X35674959Y-71449613D01*
X35697925Y-71459551D01*
X35718251Y-71468347D01*
X35723585Y-71470959D01*
X35764940Y-71493695D01*
X35784562Y-71498733D01*
X35803263Y-71505135D01*
X35815814Y-71510567D01*
X35821852Y-71513180D01*
X35821853Y-71513180D01*
X35821855Y-71513181D01*
X35868477Y-71520564D01*
X35874262Y-71521763D01*
X35919970Y-71533500D01*
X35940224Y-71533500D01*
X35959934Y-71535051D01*
X35962141Y-71535400D01*
X35979943Y-71538220D01*
X36014472Y-71534956D01*
X36026917Y-71533780D01*
X36032850Y-71533500D01*
X37616147Y-71533500D01*
X37631988Y-71535249D01*
X37632016Y-71534956D01*
X37639902Y-71535700D01*
X37639909Y-71535702D01*
X37709958Y-71533500D01*
X37739856Y-71533500D01*
X37746818Y-71532619D01*
X37752719Y-71532154D01*
X37799889Y-71530673D01*
X37819347Y-71525019D01*
X37838694Y-71521013D01*
X37858797Y-71518474D01*
X37902679Y-71501099D01*
X37908274Y-71499183D01*
X37936816Y-71490891D01*
X37953591Y-71486019D01*
X37953595Y-71486017D01*
X37971026Y-71475708D01*
X37988780Y-71467009D01*
X38007617Y-71459552D01*
X38045786Y-71431818D01*
X38050744Y-71428562D01*
X38091362Y-71404542D01*
X38105685Y-71390218D01*
X38120724Y-71377374D01*
X38122431Y-71376134D01*
X38137107Y-71365472D01*
X38167202Y-71329092D01*
X38171161Y-71324742D01*
X38463661Y-71032242D01*
X38476096Y-71022281D01*
X38475909Y-71022054D01*
X38482014Y-71017003D01*
X38482015Y-71017001D01*
X38482018Y-71017000D01*
X38529984Y-70965920D01*
X38551135Y-70944770D01*
X38555445Y-70939212D01*
X38559274Y-70934729D01*
X38591586Y-70900321D01*
X38592419Y-70898804D01*
X38593387Y-70897842D01*
X38596247Y-70893906D01*
X38596881Y-70894367D01*
X38642760Y-70848744D01*
X38702837Y-70833499D01*
X38864884Y-70833499D01*
X38864892Y-70833498D01*
X38884869Y-70830868D01*
X38983850Y-70817838D01*
X39001780Y-70810410D01*
X39072366Y-70802819D01*
X39098213Y-70810408D01*
X39116150Y-70817838D01*
X39235115Y-70833500D01*
X39514884Y-70833499D01*
X39633850Y-70817838D01*
X39651780Y-70810410D01*
X39722366Y-70802819D01*
X39748213Y-70810408D01*
X39766150Y-70817838D01*
X39885115Y-70833500D01*
X40164884Y-70833499D01*
X40283850Y-70817838D01*
X40301780Y-70810410D01*
X40372366Y-70802819D01*
X40398213Y-70810408D01*
X40416150Y-70817838D01*
X40535115Y-70833500D01*
X40814884Y-70833499D01*
X40933850Y-70817838D01*
X40951780Y-70810410D01*
X41022366Y-70802819D01*
X41048213Y-70810408D01*
X41066150Y-70817838D01*
X41185115Y-70833500D01*
X41464884Y-70833499D01*
X41583850Y-70817838D01*
X41731876Y-70756524D01*
X41858987Y-70658987D01*
X41942348Y-70550349D01*
X41949038Y-70541632D01*
X42006376Y-70499765D01*
X42077247Y-70495544D01*
X42139150Y-70530309D01*
X42147001Y-70545103D01*
X42175000Y-70569324D01*
X42177408Y-70568974D01*
X42283545Y-70517086D01*
X42283547Y-70517085D01*
X42367085Y-70433547D01*
X42367086Y-70433545D01*
X42418973Y-70327408D01*
X42418974Y-70327406D01*
X42428999Y-70258599D01*
X42429000Y-70258591D01*
X42429000Y-69787500D01*
X42159499Y-69787500D01*
X42091378Y-69767498D01*
X42044885Y-69713842D01*
X42033499Y-69661500D01*
X42033499Y-69513500D01*
X42053501Y-69445379D01*
X42107157Y-69398886D01*
X42159499Y-69387500D01*
X42429000Y-69387500D01*
X42429000Y-69259500D01*
X42449002Y-69191379D01*
X42502658Y-69144886D01*
X42555000Y-69133500D01*
X46217546Y-69133500D01*
X46285667Y-69153502D01*
X46332160Y-69207158D01*
X46342264Y-69277432D01*
X46312770Y-69342012D01*
X46268160Y-69374887D01*
X46213448Y-69398886D01*
X45897011Y-69537688D01*
X45496846Y-69754247D01*
X45496841Y-69754250D01*
X45496842Y-69754249D01*
X45359882Y-69843730D01*
X45115931Y-70003111D01*
X44756868Y-70282580D01*
X44422111Y-70590747D01*
X44113944Y-70925504D01*
X44113942Y-70925507D01*
X44078299Y-70971300D01*
X44077314Y-70972008D01*
X44069041Y-70983195D01*
X43926247Y-71166658D01*
X43834475Y-71284567D01*
X43823798Y-71300910D01*
X43799361Y-71338312D01*
X43797136Y-71340210D01*
X43781003Y-71366411D01*
X43585614Y-71665477D01*
X43585613Y-71665478D01*
X43552118Y-71727370D01*
X43548868Y-71730643D01*
X43528711Y-71770622D01*
X43477074Y-71866040D01*
X43369052Y-72065647D01*
X43369052Y-72065648D01*
X43338297Y-72135760D01*
X43334256Y-72140567D01*
X43313155Y-72193078D01*
X43186280Y-72482326D01*
X43186280Y-72482325D01*
X43159414Y-72560583D01*
X43154835Y-72567047D01*
X43135332Y-72630730D01*
X43038541Y-72912673D01*
X43038540Y-72912674D01*
X43016708Y-72998883D01*
X43011861Y-73007086D01*
X42996027Y-73080552D01*
X42926842Y-73353762D01*
X42911182Y-73447600D01*
X42906331Y-73457616D01*
X42895841Y-73539535D01*
X42851950Y-73802568D01*
X42843572Y-73903676D01*
X42839019Y-73915474D01*
X42835238Y-74004241D01*
X42814377Y-74256008D01*
X42814377Y-77691886D01*
X42814040Y-77698396D01*
X42804993Y-77785537D01*
X42800109Y-77809537D01*
X42780593Y-77873046D01*
X42771156Y-77895650D01*
X42733997Y-77964841D01*
X42720364Y-77985193D01*
X42678193Y-78036543D01*
X42660881Y-78053871D01*
X42600241Y-78103769D01*
X42579907Y-78117419D01*
X42521224Y-78149010D01*
X42498998Y-78158355D01*
X42427128Y-78180760D01*
X42402395Y-78185821D01*
X42398659Y-78186202D01*
X42281484Y-78194558D01*
X42277094Y-78194718D01*
X42272482Y-78194724D01*
X42272172Y-78194724D01*
X42272172Y-78194714D01*
X42272098Y-78194724D01*
X42272058Y-78194725D01*
X42272057Y-78194725D01*
X42170740Y-78194790D01*
X42170740Y-78194786D01*
X42170709Y-78194790D01*
X42170700Y-78194791D01*
X42170699Y-78194791D01*
X42141270Y-78194796D01*
X42030533Y-78194771D01*
X41927893Y-78194675D01*
X41803963Y-78194494D01*
X41702606Y-78194328D01*
X41594202Y-78194169D01*
X41474068Y-78194040D01*
X41373449Y-78193977D01*
X41261618Y-78193955D01*
X41261444Y-78193955D01*
X41261420Y-78193955D01*
X41261419Y-78193955D01*
X41225476Y-78193956D01*
X41225475Y-78193956D01*
X41115171Y-78193975D01*
X41115170Y-78193975D01*
X41007626Y-78194008D01*
X41007625Y-78194008D01*
X40896882Y-78194056D01*
X40896881Y-78194056D01*
X40789710Y-78194116D01*
X40789709Y-78194116D01*
X40716375Y-78194169D01*
X40716374Y-78194169D01*
X40567392Y-78194317D01*
X40567391Y-78194317D01*
X40416119Y-78194514D01*
X40416118Y-78194514D01*
X40263517Y-78194755D01*
X40263516Y-78194755D01*
X40110541Y-78195034D01*
X40110540Y-78195034D01*
X39958149Y-78195345D01*
X39958147Y-78195345D01*
X39807298Y-78195681D01*
X39807296Y-78195681D01*
X39658945Y-78196039D01*
X39658943Y-78196039D01*
X39514048Y-78196410D01*
X39514046Y-78196410D01*
X39373564Y-78196790D01*
X39373562Y-78196790D01*
X39238450Y-78197174D01*
X39238448Y-78197174D01*
X39109663Y-78197554D01*
X39109661Y-78197554D01*
X38988160Y-78197926D01*
X38988158Y-78197926D01*
X38874900Y-78198283D01*
X38874898Y-78198283D01*
X38770839Y-78198619D01*
X38770837Y-78198619D01*
X38634091Y-78199074D01*
X38634089Y-78199074D01*
X38521875Y-78199455D01*
X38521873Y-78199455D01*
X38409933Y-78199842D01*
X38409931Y-78199842D01*
X38298257Y-78200235D01*
X38298255Y-78200235D01*
X38186837Y-78200635D01*
X38186835Y-78200635D01*
X38075666Y-78201041D01*
X38075664Y-78201041D01*
X37964734Y-78201454D01*
X37964732Y-78201454D01*
X37854033Y-78201873D01*
X37854030Y-78201873D01*
X37746702Y-78202286D01*
X37740659Y-78202019D01*
X37661503Y-78194703D01*
X37631671Y-78188233D01*
X37474676Y-78133576D01*
X37471798Y-78132495D01*
X37463744Y-78129243D01*
X37370390Y-78090800D01*
X37276269Y-78051282D01*
X37181148Y-78010564D01*
X37087849Y-77969870D01*
X36994765Y-77928525D01*
X36901845Y-77886507D01*
X36809082Y-77843811D01*
X36716616Y-77800501D01*
X36624383Y-77756547D01*
X36532448Y-77711980D01*
X36440640Y-77666716D01*
X36349201Y-77620876D01*
X36257898Y-77574339D01*
X36166976Y-77527233D01*
X36076110Y-77479385D01*
X35985666Y-77430989D01*
X35895494Y-77381965D01*
X35805626Y-77332328D01*
X35716079Y-77282090D01*
X35626762Y-77231198D01*
X35537739Y-77179687D01*
X35449083Y-77127598D01*
X35360665Y-77074857D01*
X35272517Y-77021477D01*
X35184796Y-76967555D01*
X35097261Y-76912942D01*
X35010118Y-76857764D01*
X34923376Y-76802025D01*
X34836865Y-76745619D01*
X34750733Y-76688637D01*
X34750732Y-76688637D01*
X34665040Y-76631120D01*
X34580821Y-76573771D01*
X34579482Y-76572859D01*
X34521930Y-76533103D01*
X34494437Y-76514112D01*
X34409787Y-76454798D01*
X34409786Y-76454797D01*
X34331380Y-76399072D01*
X34315615Y-76387743D01*
X34185515Y-76293639D01*
X34185514Y-76293639D01*
X34043825Y-76188967D01*
X33900384Y-76080705D01*
X33755294Y-75968795D01*
X33608435Y-75853003D01*
X33460017Y-75733352D01*
X33310016Y-75609682D01*
X33289765Y-75592605D01*
X33158446Y-75481865D01*
X33005437Y-75349866D01*
X32851026Y-75213571D01*
X32695167Y-75072800D01*
X32537947Y-74927479D01*
X32379472Y-74777563D01*
X32219702Y-74622865D01*
X32058765Y-74463360D01*
X31896669Y-74298909D01*
X31733406Y-74129351D01*
X31569098Y-73954659D01*
X31403816Y-73774759D01*
X31237529Y-73589463D01*
X31070258Y-73398638D01*
X30902147Y-73202291D01*
X30733186Y-73000252D01*
X30563429Y-72792427D01*
X30392884Y-72578667D01*
X30221668Y-72358953D01*
X30049758Y-72133093D01*
X29877278Y-71901086D01*
X29704217Y-71662754D01*
X29530634Y-71418007D01*
X29356514Y-71166658D01*
X29182108Y-70908894D01*
X29164039Y-70881840D01*
X29092572Y-70774171D01*
X29020956Y-70665202D01*
X28949053Y-70554707D01*
X28877050Y-70442949D01*
X28871044Y-70433545D01*
X28822876Y-70358127D01*
X28822875Y-70358126D01*
X28768815Y-70272848D01*
X28768815Y-70272847D01*
X28714468Y-70186472D01*
X28687718Y-70143635D01*
X28660165Y-70099511D01*
X28607379Y-70014349D01*
X28604547Y-70009270D01*
X28570864Y-69941664D01*
X28561044Y-69914556D01*
X28523760Y-69757316D01*
X28521619Y-69746138D01*
X28521620Y-69746136D01*
X28497545Y-69620449D01*
X28467470Y-69463382D01*
X28465677Y-69454013D01*
X28437727Y-69307982D01*
X28437728Y-69307980D01*
X28411916Y-69173066D01*
X28378285Y-68997210D01*
X28372218Y-68965472D01*
X28353942Y-68869869D01*
X28353941Y-68869868D01*
X28348058Y-68839081D01*
X28322507Y-68705373D01*
X28319831Y-68691365D01*
X28298199Y-68578124D01*
X28298198Y-68578123D01*
X28297056Y-68572142D01*
X28275413Y-68458799D01*
X28270358Y-68432326D01*
X28270357Y-68432325D01*
X28242852Y-68288234D01*
X28242340Y-68285121D01*
X28236065Y-68239909D01*
X28236034Y-68239688D01*
X28235480Y-68233351D01*
X28235118Y-68223422D01*
X28235333Y-68078115D01*
X28235892Y-68040140D01*
X28238170Y-67894120D01*
X28240557Y-67747787D01*
X28240556Y-67747786D01*
X28240592Y-67745620D01*
X28241191Y-67710062D01*
X28243026Y-67601125D01*
X28243025Y-67601123D01*
X28245550Y-67454125D01*
X28245707Y-67445000D01*
X28248101Y-67306772D01*
X28248100Y-67306771D01*
X28248364Y-67291563D01*
X28248363Y-67291546D01*
X28250653Y-67159054D01*
X28250652Y-67159053D01*
X28250915Y-67143883D01*
X28250911Y-67143845D01*
X28253178Y-67010955D01*
X28253177Y-67010953D01*
X28253177Y-67010941D01*
X28253435Y-66995822D01*
X28253429Y-66995771D01*
X28255649Y-66862466D01*
X28255648Y-66862465D01*
X28255900Y-66847381D01*
X28255891Y-66847297D01*
X28256030Y-66838661D01*
X28258038Y-66713573D01*
X28258037Y-66713570D01*
X28258037Y-66713557D01*
X28258206Y-66703058D01*
X28258199Y-66702949D01*
X28259939Y-66588993D01*
X28259966Y-66588863D01*
X28261447Y-66485531D01*
X28262109Y-66439273D01*
X28262139Y-66439129D01*
X28262461Y-66414717D01*
X28262462Y-66414717D01*
X28264119Y-66289115D01*
X28264153Y-66288953D01*
X28264443Y-66264531D01*
X28264445Y-66264530D01*
X28266240Y-66113691D01*
X28267816Y-65962578D01*
X28267815Y-65962577D01*
X28268077Y-65937490D01*
X28268037Y-65937278D01*
X28269147Y-65810983D01*
X28269146Y-65810982D01*
X28269275Y-65796380D01*
X28269249Y-65796145D01*
X28270207Y-65658893D01*
X28270206Y-65658892D01*
X28270206Y-65658886D01*
X28270380Y-65633982D01*
X28270331Y-65633729D01*
X28270893Y-65520930D01*
X28270927Y-65520661D01*
X28271330Y-65378269D01*
X28271388Y-65377981D01*
X28271401Y-65353371D01*
X28271402Y-65353371D01*
X28271485Y-65199519D01*
X28271484Y-65199518D01*
X28271498Y-65174911D01*
X28271435Y-65174600D01*
X28271186Y-65045317D01*
X28271185Y-65045314D01*
X28271184Y-65045161D01*
X28271166Y-65035710D01*
X28271139Y-65035393D01*
X28270480Y-64890555D01*
X28270479Y-64890554D01*
X28270416Y-64876555D01*
X28270373Y-64876207D01*
X28269525Y-64760619D01*
X28269596Y-64760251D01*
X28268892Y-64691765D01*
X28267736Y-64579296D01*
X28267735Y-64579294D01*
X28267594Y-64565535D01*
X28267546Y-64565146D01*
X28267180Y-64537744D01*
X28265645Y-64422773D01*
X28265644Y-64422772D01*
X28265324Y-64398765D01*
X28265238Y-64398362D01*
X28263462Y-64291325D01*
X28263540Y-64290905D01*
X28263039Y-64265835D01*
X28263040Y-64265835D01*
X28259885Y-64107879D01*
X28259618Y-64094504D01*
X28259559Y-64094069D01*
X28256163Y-63949480D01*
X28255609Y-63925891D01*
X28255508Y-63925434D01*
X28252548Y-63816445D01*
X28252632Y-63815971D01*
X28251847Y-63790627D01*
X28251848Y-63790627D01*
X28246897Y-63630717D01*
X28246896Y-63630715D01*
X28246635Y-63622266D01*
X28246584Y-63621784D01*
X28244429Y-63560047D01*
X28241298Y-63470325D01*
X28241297Y-63470324D01*
X28240851Y-63457523D01*
X28240780Y-63457034D01*
X28234123Y-63286168D01*
X28234018Y-63285717D01*
X28230836Y-63211079D01*
X28230903Y-63210678D01*
X28229708Y-63184595D01*
X28223995Y-63059923D01*
X28223994Y-63059921D01*
X28223417Y-63047330D01*
X28223357Y-63046939D01*
X28217882Y-62935343D01*
X28217881Y-62935342D01*
X28216762Y-62912531D01*
X28216666Y-62912127D01*
X28212764Y-62837634D01*
X28212829Y-62837217D01*
X28211367Y-62810999D01*
X28211369Y-62810998D01*
X28204420Y-62686291D01*
X28204419Y-62686289D01*
X28204409Y-62686133D01*
X28203736Y-62674042D01*
X28203670Y-62673628D01*
X28202838Y-62659562D01*
X28198110Y-62579595D01*
X28195731Y-62539356D01*
X28195626Y-62538930D01*
X28190339Y-62454426D01*
X28189269Y-62437320D01*
X28189268Y-62437319D01*
X28188270Y-62421362D01*
X28188184Y-62420926D01*
X28182154Y-62329663D01*
X28182184Y-62329228D01*
X28180163Y-62300206D01*
X28172376Y-62188348D01*
X28172375Y-62188347D01*
X28170840Y-62166286D01*
X28170727Y-62165844D01*
X28169243Y-62145574D01*
X28165269Y-62091302D01*
X28165334Y-62090851D01*
X28163273Y-62064032D01*
X28163274Y-62064032D01*
X28153688Y-61939296D01*
X28153687Y-61939294D01*
X28153683Y-61939253D01*
X28152802Y-61927780D01*
X28152724Y-61927336D01*
X28144681Y-61827467D01*
X28144690Y-61827005D01*
X28142350Y-61799230D01*
X28133153Y-61690083D01*
X28133152Y-61690082D01*
X28131338Y-61668549D01*
X28131216Y-61668091D01*
X28123714Y-61582880D01*
X28123738Y-61582411D01*
X28121171Y-61554455D01*
X28110718Y-61440632D01*
X28110717Y-61440630D01*
X28110715Y-61440618D01*
X28109707Y-61429633D01*
X28109620Y-61429169D01*
X28098771Y-61315792D01*
X28098770Y-61315791D01*
X28096742Y-61294593D01*
X28096625Y-61294167D01*
X28093314Y-61260787D01*
X28088843Y-61215708D01*
X28088841Y-61215706D01*
X28087371Y-61200878D01*
X28087284Y-61200493D01*
X28086982Y-61197546D01*
X28080442Y-61133639D01*
X28080458Y-61133237D01*
X28065854Y-60994823D01*
X28065745Y-60994440D01*
X28059175Y-60933990D01*
X28059188Y-60933593D01*
X28057226Y-60916057D01*
X28057227Y-60916056D01*
X28046035Y-60816022D01*
X28046034Y-60816020D01*
X28046028Y-60815968D01*
X28044863Y-60805555D01*
X28044784Y-60805165D01*
X28037854Y-60744963D01*
X28037899Y-60744562D01*
X28034569Y-60716421D01*
X28034570Y-60716421D01*
X28022742Y-60616470D01*
X28022741Y-60616468D01*
X28021528Y-60606217D01*
X28021447Y-60605830D01*
X28020665Y-60599398D01*
X28010615Y-60516743D01*
X28010614Y-60516742D01*
X28008138Y-60496379D01*
X28008022Y-60495987D01*
X28007316Y-60490331D01*
X28001788Y-60446061D01*
X28001831Y-60445651D01*
X27998180Y-60417165D01*
X27987786Y-60336053D01*
X27987794Y-60335639D01*
X27969655Y-60197657D01*
X27969534Y-60197262D01*
X27962803Y-60147314D01*
X27962842Y-60146899D01*
X27958879Y-60118205D01*
X27958881Y-60118204D01*
X27945090Y-60018335D01*
X27945089Y-60018334D01*
X27945073Y-60018225D01*
X27942356Y-59998545D01*
X27942234Y-59998154D01*
X27930990Y-59918650D01*
X27930989Y-59918649D01*
X27928206Y-59898970D01*
X27928083Y-59898579D01*
X27916555Y-59818950D01*
X27916554Y-59818948D01*
X27915196Y-59809566D01*
X27915105Y-59809168D01*
X27909773Y-59773178D01*
X27901780Y-59719227D01*
X27901779Y-59719226D01*
X27898900Y-59699792D01*
X27898772Y-59699392D01*
X27886020Y-59615270D01*
X27884043Y-59602227D01*
X27883929Y-59601802D01*
X27883299Y-59597738D01*
X27869909Y-59511412D01*
X27869908Y-59511411D01*
X27866933Y-59492231D01*
X27866798Y-59491813D01*
X27853446Y-59407639D01*
X27853445Y-59407637D01*
X27853433Y-59407567D01*
X27852031Y-59398725D01*
X27851934Y-59398324D01*
X27836630Y-59303941D01*
X27836628Y-59303938D01*
X27834570Y-59291243D01*
X27834456Y-59290829D01*
X27819458Y-59200305D01*
X27819457Y-59200303D01*
X27819450Y-59200267D01*
X27818015Y-59191600D01*
X27817915Y-59191192D01*
X27804530Y-59112084D01*
X27804510Y-59111655D01*
X27801963Y-59096912D01*
X27801964Y-59096911D01*
X27789287Y-59023515D01*
X27789317Y-59023073D01*
X27783146Y-58988063D01*
X27769339Y-58909728D01*
X27769336Y-58909420D01*
X27763817Y-58878542D01*
X27763836Y-58878237D01*
X27758392Y-58848190D01*
X27758393Y-58848190D01*
X27743166Y-58764149D01*
X27743158Y-58763722D01*
X27739545Y-58744157D01*
X27739546Y-58744156D01*
X27725981Y-58670703D01*
X27726007Y-58670265D01*
X27718096Y-58628230D01*
X27706568Y-58566975D01*
X27706593Y-58566540D01*
X27683961Y-58448458D01*
X27683935Y-58448039D01*
X27673729Y-58395735D01*
X27660704Y-58328979D01*
X27644196Y-58245847D01*
X27644187Y-58245540D01*
X27627091Y-58160510D01*
X27626978Y-58160197D01*
X27624021Y-58145684D01*
X27613160Y-58092382D01*
X27613181Y-58091912D01*
X27606852Y-58061424D01*
X27606853Y-58061424D01*
X27586883Y-57965228D01*
X27586866Y-57964770D01*
X27582589Y-57944538D01*
X27582590Y-57944537D01*
X27557874Y-57827609D01*
X27557873Y-57827608D01*
X27554228Y-57810361D01*
X27554072Y-57809941D01*
X27539550Y-57742438D01*
X27539567Y-57741985D01*
X27532828Y-57711192D01*
X27532829Y-57711192D01*
X27511925Y-57615676D01*
X27511906Y-57615237D01*
X27478977Y-57467239D01*
X27478862Y-57466882D01*
X27470156Y-57428279D01*
X27463590Y-57399167D01*
X27463589Y-57399166D01*
X27459778Y-57382267D01*
X27459648Y-57381925D01*
X27441478Y-57302436D01*
X27441456Y-57302009D01*
X27436624Y-57281197D01*
X27436625Y-57281196D01*
X27409200Y-57163069D01*
X27409198Y-57163066D01*
X27406767Y-57152594D01*
X27406638Y-57152203D01*
X27377569Y-57028858D01*
X27377415Y-57028462D01*
X27373771Y-57013226D01*
X27353345Y-56927808D01*
X27353344Y-56927806D01*
X27352595Y-56924673D01*
X27352540Y-56924491D01*
X27324879Y-56810444D01*
X27324878Y-56810443D01*
X27320929Y-56794158D01*
X27320781Y-56793782D01*
X27301748Y-56716371D01*
X27296059Y-56693230D01*
X27296058Y-56693229D01*
X27292078Y-56677039D01*
X27291933Y-56676675D01*
X27290658Y-56671556D01*
X27266890Y-56576149D01*
X27266889Y-56576148D01*
X27262879Y-56560051D01*
X27262739Y-56559700D01*
X27257825Y-56540223D01*
X27237377Y-56459180D01*
X27237376Y-56459178D01*
X27236607Y-56456130D01*
X27236550Y-56455946D01*
X27236281Y-56454894D01*
X27208357Y-56345574D01*
X27203457Y-56326389D01*
X27203322Y-56326058D01*
X27183068Y-56247700D01*
X27183044Y-56247367D01*
X27177381Y-56225694D01*
X27177382Y-56225693D01*
X27137131Y-56071642D01*
X27133007Y-56055858D01*
X27132886Y-56055565D01*
X27102282Y-55939627D01*
X27093251Y-55905415D01*
X27093125Y-55905110D01*
X27089548Y-55891701D01*
X27058023Y-55773518D01*
X27058022Y-55773517D01*
X27057979Y-55773359D01*
X27053866Y-55757939D01*
X27053739Y-55757631D01*
X27047048Y-55732815D01*
X27018941Y-55628563D01*
X27018940Y-55628562D01*
X27014770Y-55613094D01*
X27014635Y-55612768D01*
X27011416Y-55600955D01*
X26980058Y-55485884D01*
X26980057Y-55485883D01*
X26975867Y-55470507D01*
X26975735Y-55470195D01*
X26941288Y-55345136D01*
X26941287Y-55345134D01*
X26941235Y-55344948D01*
X26940543Y-55342435D01*
X26940494Y-55342288D01*
X26902542Y-55205970D01*
X26902541Y-55205969D01*
X26902514Y-55205875D01*
X26898313Y-55190784D01*
X26898180Y-55190472D01*
X26873019Y-55101050D01*
X26873016Y-55100699D01*
X26863786Y-55068231D01*
X26863787Y-55068231D01*
X26824776Y-54931004D01*
X26824775Y-54931003D01*
X26820510Y-54915998D01*
X26820378Y-54915693D01*
X26792148Y-54817384D01*
X26792118Y-54817057D01*
X26785635Y-54794699D01*
X26785636Y-54794699D01*
X26746063Y-54658216D01*
X26746062Y-54658215D01*
X26741756Y-54643363D01*
X26741632Y-54643078D01*
X26715864Y-54555029D01*
X26715860Y-54554722D01*
X26696792Y-54490133D01*
X26665706Y-54384834D01*
X26665705Y-54384832D01*
X26663135Y-54376127D01*
X26663035Y-54375862D01*
X26620329Y-54232392D01*
X26620217Y-54232137D01*
X26593033Y-54141516D01*
X26593028Y-54141261D01*
X26583064Y-54108279D01*
X26583065Y-54108279D01*
X26540565Y-53967592D01*
X26540564Y-53967591D01*
X26536157Y-53953002D01*
X26536065Y-53952794D01*
X26517620Y-53892129D01*
X26497275Y-53825213D01*
X26497274Y-53825212D01*
X26492850Y-53810660D01*
X26492765Y-53810470D01*
X26486282Y-53789272D01*
X26463312Y-53714167D01*
X26463308Y-53713976D01*
X26434900Y-53621566D01*
X26407806Y-53533430D01*
X26407805Y-53533429D01*
X26407786Y-53533369D01*
X26403344Y-53518918D01*
X26403278Y-53518770D01*
X26383844Y-53455838D01*
X26361454Y-53383334D01*
X26361453Y-53383333D01*
X26356979Y-53368844D01*
X26356919Y-53368709D01*
X26313906Y-53229972D01*
X26265077Y-53072999D01*
X26210361Y-52897587D01*
X26210326Y-52897509D01*
X26166673Y-52757865D01*
X26163224Y-52746833D01*
X26163223Y-52746832D01*
X26158697Y-52732352D01*
X26158670Y-52732293D01*
X26110025Y-52576948D01*
X26110024Y-52576947D01*
X26105484Y-52562448D01*
X26105467Y-52562410D01*
X26065779Y-52435822D01*
X26065778Y-52435790D01*
X26055256Y-52402255D01*
X26009241Y-52255602D01*
X26009241Y-52255587D01*
X25991486Y-52199018D01*
X25966307Y-52118793D01*
X25950897Y-52069694D01*
X25881245Y-51847767D01*
X25877418Y-51835568D01*
X25819364Y-51650524D01*
X25817892Y-51645830D01*
X25817893Y-51645830D01*
X25790770Y-51559319D01*
X25754193Y-51442649D01*
X25686062Y-51225114D01*
X25663507Y-51153007D01*
X25610118Y-50982321D01*
X25610117Y-50982320D01*
X25535748Y-50744161D01*
X25535034Y-50741875D01*
X25462206Y-50508192D01*
X25391118Y-50279565D01*
X25321834Y-50056147D01*
X25254273Y-49837632D01*
X25245613Y-49809526D01*
X25188356Y-49623705D01*
X25188355Y-49623704D01*
X25140698Y-49468456D01*
X25123872Y-49413643D01*
X25061123Y-49208379D01*
X25044301Y-49153100D01*
X24999648Y-49006360D01*
X24999647Y-49006358D01*
X24947298Y-48833470D01*
X24939279Y-48806987D01*
X24934822Y-48792189D01*
X24889892Y-48643001D01*
X24880572Y-48612053D01*
X24822798Y-48419102D01*
X24766183Y-48228847D01*
X24710585Y-48040778D01*
X24698839Y-48000767D01*
X24655661Y-47853684D01*
X24601776Y-47668772D01*
X24548532Y-47484652D01*
X24496015Y-47301589D01*
X24444091Y-47119079D01*
X24444090Y-47119078D01*
X24418219Y-47027365D01*
X24392730Y-46937003D01*
X24341538Y-46753931D01*
X24339497Y-46746568D01*
X24291054Y-46571768D01*
X24240686Y-46388369D01*
X24190626Y-46204425D01*
X24178242Y-46158500D01*
X24160520Y-46092776D01*
X24140407Y-46018186D01*
X24090428Y-45831133D01*
X24040270Y-45641685D01*
X23995588Y-45471386D01*
X23990027Y-45450190D01*
X23990026Y-45450189D01*
X23939566Y-45256144D01*
X23888856Y-45059430D01*
X23885931Y-45047987D01*
X23771096Y-44502553D01*
X23769523Y-44494129D01*
X23767116Y-44481234D01*
X23767117Y-44481233D01*
X23699884Y-44121069D01*
X23694086Y-44089999D01*
X23626566Y-43728218D01*
X23626566Y-43728214D01*
X23579319Y-43475005D01*
X23552662Y-43332138D01*
X23549092Y-43313000D01*
X23474654Y-42913962D01*
X23474655Y-42913961D01*
X23404201Y-42536191D01*
X23367273Y-42338129D01*
X23326457Y-42119220D01*
X23323098Y-42101199D01*
X23285800Y-41901097D01*
X23247836Y-41697420D01*
X23246262Y-41688975D01*
X23170231Y-41280949D01*
X23168700Y-41272732D01*
X23168701Y-41272732D01*
X23095437Y-40879437D01*
X23093500Y-40869039D01*
X23090507Y-40852968D01*
X23015786Y-40451725D01*
X22978151Y-40249561D01*
X22934322Y-40014122D01*
X22932461Y-40004121D01*
X22932462Y-40004121D01*
X22853612Y-39580405D01*
X22850340Y-39562813D01*
X22772956Y-39146820D01*
X22772554Y-39144659D01*
X22772555Y-39144659D01*
X22710698Y-38812003D01*
X22693497Y-38719495D01*
X22686716Y-38683015D01*
X22644337Y-38455016D01*
X22613941Y-38291485D01*
X22554353Y-37970759D01*
X22530118Y-37840319D01*
X22530117Y-37840318D01*
X22528931Y-37833935D01*
X22461566Y-37471179D01*
X22445369Y-37383960D01*
X22436290Y-37335047D01*
X22367454Y-36964209D01*
X22367453Y-36964208D01*
X22309846Y-36653705D01*
X22282666Y-36507203D01*
X22202294Y-36073787D01*
X22122945Y-35645656D01*
X22039417Y-35194735D01*
X22036904Y-35181163D01*
X21963574Y-34785062D01*
X21958719Y-34758835D01*
X21879116Y-34328597D01*
X21796001Y-33879092D01*
X21794916Y-33873222D01*
X21717663Y-33455144D01*
X21717662Y-33455143D01*
X21637464Y-33020832D01*
X21557593Y-32587988D01*
X21478213Y-32157475D01*
X21399340Y-31729382D01*
X21321641Y-31307316D01*
X21320795Y-31300868D01*
X21313922Y-31213520D01*
X21314383Y-31189037D01*
X21322084Y-31123036D01*
X21327270Y-31099115D01*
X21351300Y-31024322D01*
X21361016Y-31001858D01*
X21393205Y-30943712D01*
X21407083Y-30923552D01*
X21457708Y-30863484D01*
X21475225Y-30846391D01*
X21527228Y-30804697D01*
X21547397Y-30791486D01*
X21556273Y-30786819D01*
X21617197Y-30754784D01*
X21634042Y-30747442D01*
X21659682Y-30738432D01*
X21677419Y-30733622D01*
X21727539Y-30723887D01*
X21757681Y-30718032D01*
X21775944Y-30715853D01*
X21794015Y-30715027D01*
X21810885Y-30714258D01*
X21813758Y-30714192D01*
X26179287Y-30714192D01*
X26247408Y-30734194D01*
G37*
%TD.AperFunction*%
%TA.AperFunction,Conductor*%
G36*
X86587747Y-30714529D02*
G01*
X86632256Y-30719148D01*
X86674887Y-30723572D01*
X86698884Y-30728457D01*
X86762397Y-30747975D01*
X86784998Y-30757411D01*
X86854190Y-30794570D01*
X86874537Y-30808199D01*
X86921035Y-30846384D01*
X86925890Y-30850371D01*
X86943214Y-30867677D01*
X86993123Y-30928331D01*
X87006771Y-30948662D01*
X87038297Y-31007227D01*
X87047718Y-31029701D01*
X87069190Y-31099105D01*
X87071243Y-31105742D01*
X87076454Y-31132742D01*
X87079847Y-31174361D01*
X87083654Y-31221062D01*
X87083812Y-31228010D01*
X87083726Y-31231107D01*
X87072745Y-31539534D01*
X87072667Y-31541624D01*
X87072657Y-31541656D01*
X87072664Y-31541712D01*
X87061338Y-31846616D01*
X87061338Y-31846617D01*
X87061246Y-31848965D01*
X87061235Y-31848999D01*
X87061243Y-31849057D01*
X87051233Y-32107158D01*
X87049465Y-32152735D01*
X87049465Y-32152737D01*
X87049365Y-32155187D01*
X87049354Y-32155222D01*
X87049361Y-32155284D01*
X87037098Y-32457950D01*
X87037098Y-32457951D01*
X87036989Y-32460515D01*
X87036977Y-32460551D01*
X87036985Y-32460616D01*
X87024233Y-32761716D01*
X87010803Y-33064989D01*
X86996838Y-33366540D01*
X86982283Y-33667025D01*
X86982284Y-33667025D01*
X86967095Y-33966810D01*
X86951273Y-34265394D01*
X86934764Y-34563261D01*
X86917582Y-34859738D01*
X86899654Y-35155621D01*
X86886113Y-35369447D01*
X86880991Y-35450335D01*
X86861562Y-35743956D01*
X86861562Y-35743957D01*
X86852896Y-35869327D01*
X86841292Y-36037211D01*
X86830864Y-36181705D01*
X86820247Y-36328816D01*
X86799649Y-36602265D01*
X86798324Y-36619848D01*
X86775499Y-36910259D01*
X86761093Y-37086018D01*
X86756794Y-37138479D01*
X86751838Y-37198940D01*
X86727162Y-37487751D01*
X86701565Y-37775252D01*
X86679915Y-38008758D01*
X86674987Y-38061906D01*
X86647984Y-38341648D01*
X86647399Y-38347704D01*
X86618742Y-38633016D01*
X86589057Y-38917193D01*
X86558281Y-39200605D01*
X86526364Y-39483478D01*
X86493317Y-39765492D01*
X86459098Y-40046796D01*
X86423688Y-40327347D01*
X86387497Y-40603825D01*
X86386283Y-40610378D01*
X86365825Y-40695474D01*
X86357813Y-40718618D01*
X86330073Y-40779005D01*
X86317732Y-40800166D01*
X86271763Y-40863834D01*
X86255562Y-40882205D01*
X86206961Y-40927549D01*
X86187556Y-40942411D01*
X86119574Y-40984697D01*
X86101117Y-40994166D01*
X86063304Y-41009780D01*
X86043535Y-41016093D01*
X85963698Y-41034508D01*
X85943170Y-41037491D01*
X85893868Y-41040545D01*
X85889971Y-41040666D01*
X81766509Y-41040666D01*
X81764919Y-41040543D01*
X81756816Y-41040665D01*
X81756749Y-41040666D01*
X81754675Y-41040666D01*
X81753968Y-41040706D01*
X81616251Y-41042771D01*
X81614043Y-41042609D01*
X81605103Y-41042935D01*
X81604993Y-41042939D01*
X81604920Y-41042941D01*
X81604919Y-41042941D01*
X81601675Y-41043030D01*
X81600794Y-41043127D01*
X81462900Y-41049304D01*
X81460256Y-41049227D01*
X81453515Y-41049724D01*
X81446548Y-41050041D01*
X81443913Y-41050438D01*
X81306745Y-41060641D01*
X81305726Y-41060647D01*
X81302430Y-41060960D01*
X81302314Y-41060971D01*
X81302247Y-41060977D01*
X81302246Y-41060977D01*
X81299724Y-41061202D01*
X81299003Y-41061315D01*
X81161759Y-41075565D01*
X81159119Y-41075626D01*
X81151675Y-41076610D01*
X81151674Y-41076610D01*
X81151568Y-41076624D01*
X81151492Y-41076632D01*
X81151489Y-41076632D01*
X81149970Y-41076792D01*
X81148937Y-41076973D01*
X81011140Y-41095326D01*
X81009092Y-41095438D01*
X81001442Y-41096616D01*
X81001377Y-41096626D01*
X81001261Y-41096642D01*
X81001260Y-41096642D01*
X80998682Y-41096997D01*
X80997609Y-41097237D01*
X80860760Y-41119475D01*
X80859024Y-41119631D01*
X80851835Y-41120924D01*
X80851746Y-41120940D01*
X80851654Y-41120956D01*
X80851653Y-41120956D01*
X80849364Y-41121354D01*
X80848553Y-41121552D01*
X80707208Y-41148670D01*
X80705949Y-41148823D01*
X80702837Y-41149509D01*
X80701588Y-41149750D01*
X80700642Y-41149994D01*
X80611246Y-41169775D01*
X80557888Y-41181582D01*
X80556861Y-41181757D01*
X80554816Y-41182263D01*
X80551989Y-41182897D01*
X80550886Y-41183248D01*
X80445443Y-41209700D01*
X80411159Y-41218300D01*
X80410043Y-41218516D01*
X80407698Y-41219169D01*
X80405337Y-41219765D01*
X80404249Y-41220136D01*
X80265609Y-41259047D01*
X80264768Y-41259225D01*
X80261602Y-41260172D01*
X80258245Y-41261152D01*
X80257426Y-41261469D01*
X80120991Y-41303865D01*
X80119996Y-41304099D01*
X80116649Y-41305215D01*
X80113886Y-41306094D01*
X80112967Y-41306470D01*
X79982323Y-41351042D01*
X79980551Y-41351496D01*
X79973013Y-41354217D01*
X79973012Y-41354217D01*
X79972915Y-41354252D01*
X79972839Y-41354279D01*
X79972838Y-41354279D01*
X79965283Y-41356963D01*
X79963846Y-41357626D01*
X79840564Y-41403490D01*
X79838515Y-41404062D01*
X79830533Y-41407222D01*
X79827290Y-41408459D01*
X79826435Y-41408874D01*
X79692512Y-41462899D01*
X79691480Y-41463258D01*
X79689607Y-41464072D01*
X79686840Y-41465190D01*
X79685760Y-41465746D01*
X79553832Y-41523180D01*
X79552748Y-41523575D01*
X79550196Y-41524765D01*
X79548045Y-41525705D01*
X79547064Y-41526230D01*
X79415786Y-41587665D01*
X79415092Y-41587943D01*
X79412458Y-41589223D01*
X79410105Y-41590350D01*
X79409342Y-41590785D01*
X79279441Y-41655918D01*
X79278781Y-41656207D01*
X79276457Y-41657414D01*
X79273404Y-41658967D01*
X79272515Y-41659525D01*
X79150836Y-41724710D01*
X79148852Y-41725585D01*
X79142267Y-41729301D01*
X79139675Y-41730706D01*
X79138797Y-41731281D01*
X79055541Y-41778822D01*
X79013186Y-41803006D01*
X79012384Y-41803407D01*
X79010036Y-41804806D01*
X79007578Y-41806245D01*
X79006923Y-41806695D01*
X78883276Y-41881805D01*
X78882319Y-41882309D01*
X78879868Y-41883877D01*
X78873545Y-41887760D01*
X78871804Y-41889079D01*
X78754955Y-41964464D01*
X78753964Y-41965026D01*
X78751937Y-41966408D01*
X78751937Y-41966409D01*
X78751827Y-41966484D01*
X78751784Y-41966512D01*
X78751782Y-41966513D01*
X78750394Y-41967416D01*
X78749651Y-41967971D01*
X78634101Y-42047042D01*
X78632496Y-42047969D01*
X78626088Y-42052525D01*
X78623405Y-42054406D01*
X78622775Y-42054927D01*
X78604266Y-42068347D01*
X78505746Y-42139775D01*
X78505051Y-42140220D01*
X78502705Y-42141980D01*
X78500745Y-42143426D01*
X78500060Y-42144010D01*
X78384994Y-42232332D01*
X78384114Y-42232923D01*
X78381818Y-42234767D01*
X78381818Y-42234768D01*
X78381757Y-42234817D01*
X78379460Y-42236594D01*
X78378649Y-42237340D01*
X78266546Y-42328380D01*
X78265620Y-42329039D01*
X78263358Y-42330970D01*
X78262041Y-42332047D01*
X78261326Y-42332714D01*
X78150484Y-42427921D01*
X78149830Y-42428420D01*
X78147630Y-42430373D01*
X78145415Y-42432322D01*
X78144855Y-42432894D01*
X78037597Y-42530322D01*
X78036594Y-42531126D01*
X78034734Y-42532920D01*
X78034732Y-42532922D01*
X78034676Y-42532976D01*
X78034598Y-42533047D01*
X78034596Y-42533049D01*
X78033166Y-42534351D01*
X78032408Y-42535152D01*
X77926990Y-42636419D01*
X77926286Y-42637029D01*
X77924576Y-42638740D01*
X77922527Y-42640733D01*
X77921856Y-42641501D01*
X77820325Y-42744675D01*
X77819569Y-42745351D01*
X77817428Y-42747621D01*
X77815109Y-42750016D01*
X77814489Y-42750779D01*
X77715750Y-42856969D01*
X77715090Y-42857606D01*
X77713370Y-42859531D01*
X77708365Y-42865005D01*
X77707145Y-42866621D01*
X77619062Y-42966943D01*
X77617701Y-42968268D01*
X77612471Y-42974450D01*
X77610731Y-42976485D01*
X77610260Y-42977120D01*
X77517650Y-43088928D01*
X77516905Y-43089714D01*
X77514854Y-43092305D01*
X77513088Y-43094466D01*
X77512496Y-43095325D01*
X77421187Y-43212318D01*
X77420586Y-43213008D01*
X77419043Y-43215066D01*
X77417155Y-43217523D01*
X77416597Y-43218393D01*
X77333010Y-43332138D01*
X77331597Y-43333763D01*
X77326873Y-43340485D01*
X77326872Y-43340487D01*
X77326820Y-43340561D01*
X77326765Y-43340637D01*
X77326764Y-43340639D01*
X77322348Y-43346740D01*
X77321275Y-43348577D01*
X77240733Y-43465029D01*
X77240105Y-43465817D01*
X77238283Y-43468570D01*
X77238281Y-43468573D01*
X77238236Y-43468641D01*
X77238178Y-43468726D01*
X77238177Y-43468729D01*
X77233893Y-43475005D01*
X77232840Y-43476936D01*
X77158473Y-43591265D01*
X77157162Y-43592985D01*
X77153301Y-43599217D01*
X77151700Y-43601705D01*
X77151200Y-43602652D01*
X77073893Y-43729141D01*
X77073375Y-43729893D01*
X77072032Y-43732189D01*
X77067843Y-43739241D01*
X77067151Y-43740699D01*
X76996454Y-43863960D01*
X76995865Y-43864856D01*
X76994490Y-43867388D01*
X76990724Y-43874049D01*
X76989862Y-43875998D01*
X76922094Y-44002100D01*
X76921623Y-44002888D01*
X76920723Y-44004649D01*
X76920722Y-44004651D01*
X76920676Y-44004741D01*
X76920637Y-44004815D01*
X76920636Y-44004816D01*
X76919011Y-44007899D01*
X76918634Y-44008804D01*
X76851985Y-44141408D01*
X76851478Y-44142310D01*
X76850629Y-44144109D01*
X76849185Y-44146996D01*
X76848757Y-44148099D01*
X76785704Y-44282536D01*
X76785416Y-44283079D01*
X76784367Y-44285390D01*
X76782866Y-44288650D01*
X76782527Y-44289606D01*
X76722674Y-44426735D01*
X76722415Y-44427285D01*
X76721896Y-44428520D01*
X76720688Y-44431356D01*
X76720403Y-44432206D01*
X76664952Y-44569169D01*
X76664610Y-44569869D01*
X76663265Y-44573335D01*
X76659861Y-44582045D01*
X76659429Y-44583593D01*
X76611847Y-44710783D01*
X76611067Y-44712473D01*
X76608508Y-44719708D01*
X76605757Y-44727230D01*
X76605265Y-44729132D01*
X76558891Y-44863903D01*
X76558521Y-44864800D01*
X76557634Y-44867558D01*
X76555371Y-44874269D01*
X76554906Y-44876223D01*
X76511346Y-45014629D01*
X76511045Y-45015483D01*
X76510689Y-45016719D01*
X76509798Y-45019558D01*
X76509550Y-45020697D01*
X76468728Y-45163457D01*
X76468361Y-45164502D01*
X76467669Y-45167166D01*
X76466958Y-45169665D01*
X76466740Y-45170768D01*
X76429400Y-45315694D01*
X76429122Y-45316594D01*
X76428623Y-45318716D01*
X76426455Y-45327297D01*
X76426148Y-45329484D01*
X76394350Y-45467878D01*
X76394052Y-45468916D01*
X76393568Y-45471289D01*
X76391686Y-45479568D01*
X76391414Y-45481936D01*
X76363062Y-45622128D01*
X76362858Y-45622961D01*
X76362538Y-45624722D01*
X76361881Y-45628037D01*
X76361765Y-45629141D01*
X76336095Y-45775850D01*
X76335948Y-45776503D01*
X76335552Y-45778955D01*
X76335023Y-45782125D01*
X76334947Y-45783041D01*
X76313995Y-45924693D01*
X76313469Y-45927047D01*
X76312636Y-45933881D01*
X76312240Y-45936568D01*
X76312170Y-45937720D01*
X76294164Y-46086478D01*
X76293995Y-46087492D01*
X76293827Y-46089258D01*
X76293827Y-46089261D01*
X76293819Y-46089345D01*
X76293807Y-46089445D01*
X76293807Y-46089448D01*
X76293541Y-46091665D01*
X76293495Y-46092776D01*
X76279437Y-46241942D01*
X76279280Y-46243015D01*
X76279127Y-46245248D01*
X76278285Y-46254314D01*
X76278345Y-46256833D01*
X76268792Y-46398409D01*
X76268676Y-46399417D01*
X76268584Y-46401487D01*
X76268042Y-46409974D01*
X76268145Y-46412294D01*
X76262364Y-46554362D01*
X76262277Y-46555274D01*
X76262220Y-46557928D01*
X76261953Y-46566092D01*
X76262080Y-46568033D01*
X76260113Y-46710559D01*
X76260030Y-46711672D01*
X76260059Y-46714375D01*
X76260059Y-46714379D01*
X76260060Y-46714473D01*
X76260059Y-46714563D01*
X76260059Y-46714565D01*
X76259985Y-46721242D01*
X76260179Y-46723543D01*
X76262068Y-46866573D01*
X76262014Y-46867548D01*
X76262126Y-46870994D01*
X76262198Y-46874329D01*
X76262298Y-46875266D01*
X76268069Y-47018001D01*
X76267991Y-47020317D01*
X76268449Y-47027407D01*
X76268565Y-47030060D01*
X76268702Y-47031145D01*
X76278350Y-47173210D01*
X76278322Y-47175329D01*
X76279053Y-47183560D01*
X76279715Y-47192446D01*
X76280107Y-47194575D01*
X76293623Y-47335798D01*
X76293658Y-47336662D01*
X76293955Y-47339272D01*
X76293955Y-47339275D01*
X76293965Y-47339363D01*
X76293975Y-47339458D01*
X76293975Y-47339459D01*
X76294841Y-47347684D01*
X76295228Y-47349558D01*
X76312721Y-47490763D01*
X76312786Y-47491807D01*
X76313209Y-47494700D01*
X76314134Y-47501793D01*
X76314609Y-47503878D01*
X76336235Y-47645663D01*
X76336346Y-47646864D01*
X76336818Y-47649480D01*
X76337274Y-47652424D01*
X76337562Y-47653581D01*
X76345821Y-47699032D01*
X76364037Y-47799289D01*
X76364170Y-47800453D01*
X76364787Y-47803425D01*
X76364787Y-47803427D01*
X76364809Y-47803533D01*
X76364823Y-47803608D01*
X76364823Y-47803609D01*
X76366197Y-47810970D01*
X76366841Y-47813166D01*
X76395686Y-47949889D01*
X76395830Y-47950778D01*
X76396320Y-47952890D01*
X76396988Y-47955980D01*
X76397315Y-47957035D01*
X76429527Y-48091182D01*
X76429853Y-48093281D01*
X76431957Y-48101303D01*
X76434287Y-48110625D01*
X76434954Y-48112433D01*
X76470598Y-48244743D01*
X76470784Y-48245650D01*
X76471628Y-48248561D01*
X76474267Y-48258152D01*
X76475126Y-48260266D01*
X76514066Y-48390554D01*
X76514319Y-48391666D01*
X76515299Y-48394680D01*
X76517685Y-48402577D01*
X76518618Y-48404779D01*
X76559967Y-48530604D01*
X76560518Y-48532815D01*
X76562901Y-48539531D01*
X76566364Y-48549922D01*
X76567399Y-48552069D01*
X76610902Y-48673349D01*
X76611509Y-48675592D01*
X76614363Y-48682999D01*
X76617835Y-48692546D01*
X76618889Y-48694626D01*
X76668416Y-48821889D01*
X76668753Y-48822905D01*
X76669623Y-48824987D01*
X76672942Y-48833470D01*
X76674109Y-48835665D01*
X76727296Y-48962268D01*
X76727620Y-48963170D01*
X76728629Y-48965440D01*
X76733049Y-48975853D01*
X76734267Y-48977924D01*
X76789573Y-49100394D01*
X76789912Y-49101299D01*
X76791329Y-49104282D01*
X76796118Y-49114699D01*
X76797240Y-49116502D01*
X76853462Y-49232732D01*
X76854354Y-49234996D01*
X76857652Y-49241393D01*
X76862447Y-49251273D01*
X76863865Y-49253423D01*
X76922908Y-49367728D01*
X76923697Y-49369606D01*
X76927519Y-49376654D01*
X76932093Y-49385368D01*
X76933255Y-49387079D01*
X76994603Y-49498586D01*
X76998814Y-49506240D01*
X76999233Y-49507137D01*
X77000901Y-49510034D01*
X77006070Y-49519192D01*
X77007052Y-49520553D01*
X77072709Y-49632839D01*
X77073648Y-49634777D01*
X77077654Y-49641299D01*
X77077655Y-49641301D01*
X77077690Y-49641358D01*
X77077750Y-49641460D01*
X77077751Y-49641461D01*
X77081361Y-49647600D01*
X77082708Y-49649449D01*
X77155771Y-49767236D01*
X77156386Y-49768379D01*
X77157892Y-49770653D01*
X77163356Y-49779533D01*
X77165229Y-49781820D01*
X77176739Y-49799338D01*
X77234496Y-49887243D01*
X77238954Y-49894027D01*
X77239596Y-49895169D01*
X77241390Y-49897736D01*
X77246765Y-49905950D01*
X77248576Y-49908073D01*
X77325738Y-50019082D01*
X77326362Y-50020117D01*
X77328164Y-50022572D01*
X77334822Y-50032133D01*
X77336608Y-50034067D01*
X77415961Y-50142093D01*
X77416647Y-50143147D01*
X77418088Y-50144990D01*
X77423313Y-50152134D01*
X77425202Y-50154160D01*
X77508499Y-50261541D01*
X77509273Y-50262691D01*
X77511191Y-50265010D01*
X77518351Y-50274362D01*
X77520701Y-50276627D01*
X77601213Y-50374971D01*
X77602579Y-50376923D01*
X77607338Y-50382453D01*
X77614922Y-50391671D01*
X77616784Y-50393389D01*
X77699686Y-50489376D01*
X77701233Y-50491494D01*
X77706502Y-50497268D01*
X77713509Y-50505396D01*
X77715587Y-50507241D01*
X77805924Y-50606403D01*
X77806729Y-50607404D01*
X77808596Y-50609335D01*
X77813500Y-50614744D01*
X77815513Y-50616535D01*
X77910524Y-50715409D01*
X77911352Y-50716398D01*
X77913529Y-50718538D01*
X77913530Y-50718540D01*
X77913590Y-50718599D01*
X77913660Y-50718672D01*
X77913661Y-50718672D01*
X77918178Y-50723383D01*
X77920118Y-50725040D01*
X78014529Y-50818168D01*
X78016129Y-50820006D01*
X78021431Y-50824976D01*
X78027593Y-50831022D01*
X78029493Y-50832511D01*
X78124300Y-50921121D01*
X78125944Y-50922934D01*
X78132014Y-50928330D01*
X78137766Y-50933670D01*
X78139639Y-50935078D01*
X78236922Y-51021176D01*
X78238991Y-51023359D01*
X78245218Y-51028523D01*
X78245219Y-51028524D01*
X78245301Y-51028592D01*
X78253878Y-51036281D01*
X78256667Y-51038110D01*
X78351899Y-51117859D01*
X78353867Y-51119856D01*
X78361147Y-51125608D01*
X78361148Y-51125609D01*
X78361229Y-51125673D01*
X78361291Y-51125725D01*
X78361292Y-51125725D01*
X78369869Y-51132919D01*
X78372307Y-51134443D01*
X78476498Y-51216918D01*
X78477389Y-51217721D01*
X78479737Y-51219482D01*
X78488944Y-51226736D01*
X78491243Y-51228080D01*
X78586452Y-51299231D01*
X78597119Y-51307202D01*
X78598094Y-51308043D01*
X78600761Y-51309924D01*
X78609290Y-51316290D01*
X78611724Y-51317647D01*
X78715387Y-51390674D01*
X78717493Y-51392444D01*
X78724248Y-51396917D01*
X78732716Y-51402887D01*
X78735264Y-51404220D01*
X78838983Y-51472974D01*
X78840971Y-51474616D01*
X78850058Y-51480318D01*
X78850059Y-51480319D01*
X78850110Y-51480351D01*
X78850213Y-51480419D01*
X78859032Y-51486241D01*
X78861484Y-51487431D01*
X78967685Y-51553538D01*
X78970091Y-51555387D01*
X78978352Y-51560177D01*
X78985942Y-51564921D01*
X78988624Y-51566166D01*
X79083631Y-51621561D01*
X79100045Y-51631131D01*
X79102255Y-51632669D01*
X79108841Y-51636261D01*
X79116302Y-51640593D01*
X79118880Y-51641707D01*
X79252213Y-51714048D01*
X79254753Y-51715702D01*
X79261245Y-51718949D01*
X79270455Y-51723960D01*
X79273514Y-51725101D01*
X79405845Y-51791460D01*
X79408659Y-51793206D01*
X79416131Y-51796619D01*
X79424443Y-51800825D01*
X79427617Y-51801924D01*
X79451070Y-51812757D01*
X79564274Y-51865045D01*
X79567123Y-51866644D01*
X79572084Y-51868711D01*
X79574722Y-51869882D01*
X79580630Y-51872668D01*
X79583986Y-51873744D01*
X79722513Y-51932428D01*
X79725215Y-51933865D01*
X79732759Y-51936772D01*
X79732760Y-51936773D01*
X79732856Y-51936810D01*
X79739951Y-51939823D01*
X79742833Y-51940666D01*
X79885407Y-51995772D01*
X79888406Y-51997198D01*
X79892902Y-51998732D01*
X79895726Y-51999771D01*
X79903439Y-52002821D01*
X79907006Y-52003661D01*
X80047160Y-52052768D01*
X80049957Y-52054032D01*
X80057673Y-52056453D01*
X80067744Y-52059999D01*
X80070942Y-52060634D01*
X80218451Y-52107115D01*
X80219962Y-52107708D01*
X80221268Y-52108063D01*
X80224107Y-52108906D01*
X80230342Y-52110918D01*
X80233722Y-52111545D01*
X80378978Y-52152296D01*
X80381975Y-52153414D01*
X80389159Y-52155155D01*
X80389161Y-52155157D01*
X80389260Y-52155181D01*
X80389337Y-52155203D01*
X80389338Y-52155202D01*
X80396751Y-52157321D01*
X80399991Y-52157827D01*
X80546545Y-52193962D01*
X80549580Y-52194993D01*
X80557164Y-52196581D01*
X80566915Y-52199018D01*
X80570259Y-52199371D01*
X80716366Y-52230506D01*
X80719107Y-52231322D01*
X80726283Y-52232620D01*
X80736596Y-52234803D01*
X80739627Y-52235020D01*
X80884823Y-52261151D01*
X80888257Y-52262103D01*
X80894986Y-52263038D01*
X80897791Y-52263492D01*
X80906479Y-52265100D01*
X80910004Y-52265235D01*
X81057082Y-52286874D01*
X81060037Y-52287560D01*
X81067439Y-52288398D01*
X81076930Y-52289808D01*
X81080146Y-52289851D01*
X81227496Y-52306712D01*
X81230865Y-52307415D01*
X81239110Y-52308043D01*
X81248510Y-52309158D01*
X81251942Y-52309092D01*
X81400431Y-52321242D01*
X81403785Y-52321810D01*
X81409819Y-52322070D01*
X81412899Y-52322279D01*
X81419873Y-52322922D01*
X81423649Y-52322742D01*
X81571952Y-52330035D01*
X81575380Y-52330529D01*
X81583847Y-52330623D01*
X81583848Y-52330624D01*
X81583938Y-52330625D01*
X81584030Y-52330630D01*
X81584030Y-52330629D01*
X81591365Y-52331028D01*
X81594694Y-52330802D01*
X81739024Y-52333175D01*
X81740884Y-52333467D01*
X81756693Y-52333467D01*
X81756815Y-52333469D01*
X81756815Y-52333468D01*
X81766554Y-52333628D01*
X81768330Y-52333467D01*
X82432184Y-52333467D01*
X82438692Y-52333804D01*
X82475752Y-52337650D01*
X82525835Y-52342848D01*
X82549824Y-52347730D01*
X82613348Y-52367252D01*
X82635938Y-52376683D01*
X82705136Y-52413845D01*
X82725484Y-52427475D01*
X82776837Y-52469647D01*
X82794167Y-52486961D01*
X82844065Y-52547601D01*
X82857716Y-52567937D01*
X82889209Y-52626440D01*
X82898669Y-52649036D01*
X82921813Y-52724091D01*
X82926721Y-52748088D01*
X82933647Y-52814184D01*
X82933822Y-52838656D01*
X82926473Y-52919956D01*
X82920668Y-52948008D01*
X82892416Y-53033830D01*
X82889792Y-53040497D01*
X82888477Y-53043349D01*
X82886817Y-53046954D01*
X82874810Y-53072211D01*
X82830090Y-53166274D01*
X82774455Y-53282593D01*
X82719076Y-53397624D01*
X82664555Y-53510083D01*
X82664555Y-53510084D01*
X82653153Y-53533429D01*
X82610335Y-53621099D01*
X82556636Y-53730194D01*
X82503114Y-53838039D01*
X82449976Y-53944203D01*
X82396765Y-54049569D01*
X82343589Y-54153904D01*
X82290559Y-54256981D01*
X82237236Y-54359630D01*
X82224017Y-54384831D01*
X82183735Y-54461622D01*
X82129898Y-54563239D01*
X82075620Y-54664675D01*
X82060977Y-54691767D01*
X82020789Y-54766122D01*
X81965484Y-54867433D01*
X81909419Y-54969124D01*
X81852527Y-55071315D01*
X81794845Y-55173928D01*
X81736128Y-55277406D01*
X81676400Y-55381706D01*
X81615600Y-55486932D01*
X81553496Y-55593494D01*
X81490073Y-55701421D01*
X81425185Y-55810965D01*
X81358762Y-55922250D01*
X81290920Y-56035093D01*
X81221179Y-56150297D01*
X81149749Y-56267530D01*
X81076749Y-56386609D01*
X81003842Y-56504856D01*
X80996874Y-56516066D01*
X80846586Y-56756913D01*
X80846587Y-56756914D01*
X80684018Y-57012591D01*
X80528961Y-57251773D01*
X80513592Y-57275477D01*
X80367126Y-57496950D01*
X80335080Y-57545407D01*
X80148327Y-57822098D01*
X79953124Y-58105361D01*
X79749212Y-58395068D01*
X79536381Y-58691025D01*
X79314522Y-58992896D01*
X79083338Y-59300612D01*
X78842630Y-59613957D01*
X78592211Y-59932711D01*
X78331808Y-60256755D01*
X78061355Y-60585719D01*
X77780475Y-60919611D01*
X77489074Y-61258096D01*
X77186871Y-61601063D01*
X76873733Y-61948229D01*
X76549413Y-62299444D01*
X76213720Y-62654493D01*
X75866312Y-63013313D01*
X75507191Y-63375494D01*
X75136053Y-63740938D01*
X74752689Y-64109448D01*
X74356844Y-64480875D01*
X73948362Y-64854968D01*
X73527064Y-65231506D01*
X73092703Y-65610328D01*
X72645031Y-65991271D01*
X72183928Y-66374064D01*
X71974328Y-66543800D01*
X71709091Y-66758591D01*
X71667055Y-66791792D01*
X71641526Y-66811956D01*
X70811481Y-67459762D01*
X70745798Y-67510389D01*
X70267456Y-67870390D01*
X69785401Y-68224664D01*
X69299668Y-68573284D01*
X68810345Y-68916285D01*
X68317452Y-69253749D01*
X67821141Y-69585666D01*
X67321481Y-69912090D01*
X66818482Y-70233105D01*
X66363018Y-70517085D01*
X66312164Y-70548792D01*
X65802669Y-70859149D01*
X65290154Y-71164178D01*
X64774589Y-71463985D01*
X64255890Y-71758708D01*
X63734426Y-72048222D01*
X63210079Y-72332684D01*
X62682863Y-72612168D01*
X62153123Y-72886581D01*
X62153124Y-72886581D01*
X62153114Y-72886586D01*
X61620571Y-73156155D01*
X61085502Y-73420823D01*
X60547834Y-73680709D01*
X60007808Y-73935777D01*
X59465501Y-74186077D01*
X58920705Y-74431782D01*
X58373810Y-74672797D01*
X57824645Y-74909278D01*
X57273561Y-75141151D01*
X56720252Y-75368624D01*
X56165137Y-75591603D01*
X55607942Y-75810273D01*
X55049091Y-76024544D01*
X54491490Y-76233403D01*
X54485043Y-76235431D01*
X54400299Y-76257172D01*
X54376094Y-76260923D01*
X54309760Y-76264670D01*
X54285287Y-76263668D01*
X54207498Y-76252843D01*
X54183679Y-76247124D01*
X54144008Y-76233403D01*
X54120885Y-76225405D01*
X54098627Y-76215187D01*
X54030778Y-76175643D01*
X54010915Y-76161311D01*
X53961060Y-76117373D01*
X53944346Y-76099469D01*
X53896585Y-76037119D01*
X53883652Y-76016320D01*
X53869777Y-75988242D01*
X53854216Y-75956754D01*
X53845552Y-75933849D01*
X53824860Y-75857386D01*
X53820895Y-75834613D01*
X53818281Y-75802182D01*
X53815581Y-75768678D01*
X53815377Y-75763615D01*
X53815377Y-74256008D01*
X53794513Y-74004214D01*
X53790857Y-73918377D01*
X53786129Y-73903040D01*
X53777804Y-73802568D01*
X53773264Y-73775364D01*
X53733904Y-73539488D01*
X53723817Y-73460720D01*
X53718569Y-73447591D01*
X53702912Y-73353761D01*
X53633717Y-73080516D01*
X53618457Y-73009711D01*
X53613044Y-72998880D01*
X53591215Y-72912679D01*
X53591213Y-72912673D01*
X53591214Y-72912674D01*
X53517456Y-72697828D01*
X53494402Y-72630673D01*
X53475568Y-72569173D01*
X53470338Y-72560578D01*
X53443474Y-72482325D01*
X53443474Y-72482326D01*
X53316585Y-72193048D01*
X53296154Y-72142204D01*
X53291455Y-72135758D01*
X53260702Y-72065647D01*
X53101034Y-71770607D01*
X53081468Y-71731802D01*
X53077634Y-71727368D01*
X53044143Y-71665482D01*
X53044141Y-71665479D01*
X53044140Y-71665477D01*
X53044141Y-71665478D01*
X52887906Y-71426344D01*
X52848730Y-71366380D01*
X52833047Y-71340908D01*
X52830389Y-71338307D01*
X52809946Y-71307017D01*
X52795279Y-71284567D01*
X52795276Y-71284563D01*
X52560705Y-70983185D01*
X52552642Y-70972284D01*
X52551452Y-70971297D01*
X52515812Y-70925506D01*
X52515812Y-70925507D01*
X52515810Y-70925504D01*
X52207643Y-70590747D01*
X51872886Y-70282580D01*
X51513823Y-70003111D01*
X51269872Y-69843730D01*
X51132912Y-69754249D01*
X51132913Y-69754250D01*
X51132908Y-69754247D01*
X50732743Y-69537688D01*
X50316064Y-69354916D01*
X50316065Y-69354916D01*
X49885716Y-69207176D01*
X49603470Y-69135702D01*
X49444629Y-69095478D01*
X48995830Y-69020587D01*
X48995826Y-69020586D01*
X48995822Y-69020586D01*
X48542382Y-68983013D01*
X48542379Y-68983013D01*
X48362664Y-68983013D01*
X48294543Y-68963011D01*
X48248050Y-68909355D01*
X48237946Y-68839081D01*
X48267440Y-68774501D01*
X48273569Y-68767918D01*
X49689721Y-67351767D01*
X51133082Y-65908405D01*
X51195395Y-65874379D01*
X51222178Y-65871500D01*
X54322706Y-65871500D01*
X54390827Y-65891502D01*
X54429996Y-65931434D01*
X54478821Y-66010730D01*
X54530109Y-66069005D01*
X54622209Y-66173652D01*
X54631602Y-66184324D01*
X54811524Y-66329600D01*
X55013409Y-66442380D01*
X55059030Y-66458499D01*
X55231442Y-66519417D01*
X55231446Y-66519417D01*
X55231450Y-66519419D01*
X55459375Y-66558500D01*
X55459379Y-66558500D01*
X55882713Y-66558500D01*
X56055418Y-66543801D01*
X56279207Y-66485530D01*
X56489929Y-66390278D01*
X56681523Y-66260783D01*
X56848476Y-66100772D01*
X56980269Y-65922574D01*
X57036857Y-65879701D01*
X57081572Y-65871500D01*
X58566785Y-65871500D01*
X58634906Y-65891502D01*
X58681399Y-65945158D01*
X58686386Y-65957857D01*
X58707885Y-66022738D01*
X58756017Y-66100772D01*
X58800970Y-66173652D01*
X58800975Y-66173658D01*
X58926341Y-66299024D01*
X58926347Y-66299029D01*
X58926348Y-66299030D01*
X59077262Y-66392115D01*
X59245574Y-66447887D01*
X59349455Y-66458500D01*
X60150544Y-66458499D01*
X60254426Y-66447887D01*
X60422738Y-66392115D01*
X60450486Y-66375000D01*
X64019341Y-66375000D01*
X64039937Y-66610411D01*
X64101096Y-66838661D01*
X64101098Y-66838665D01*
X64200966Y-67052832D01*
X64336498Y-67246392D01*
X64336502Y-67246397D01*
X64336505Y-67246401D01*
X64503599Y-67413495D01*
X64503603Y-67413498D01*
X64503607Y-67413501D01*
X64697167Y-67549033D01*
X64697166Y-67549033D01*
X64773304Y-67584537D01*
X64911337Y-67648903D01*
X65139592Y-67710063D01*
X65316034Y-67725500D01*
X65316035Y-67725500D01*
X65433965Y-67725500D01*
X65433966Y-67725500D01*
X65610408Y-67710063D01*
X65838663Y-67648903D01*
X66052829Y-67549035D01*
X66246401Y-67413495D01*
X66413495Y-67246401D01*
X66549035Y-67052830D01*
X66648903Y-66838663D01*
X66710063Y-66610408D01*
X66730659Y-66375000D01*
X66710063Y-66139592D01*
X66648903Y-65911337D01*
X66549035Y-65697171D01*
X66549034Y-65697169D01*
X66549033Y-65697167D01*
X66413501Y-65503607D01*
X66413497Y-65503602D01*
X66413495Y-65503599D01*
X66246401Y-65336505D01*
X66246397Y-65336502D01*
X66246392Y-65336498D01*
X66052832Y-65200966D01*
X66052833Y-65200966D01*
X65838665Y-65101098D01*
X65838661Y-65101096D01*
X65610411Y-65039937D01*
X65478076Y-65028359D01*
X65433966Y-65024500D01*
X65316034Y-65024500D01*
X65280745Y-65027587D01*
X65139588Y-65039937D01*
X64911338Y-65101096D01*
X64911334Y-65101098D01*
X64697167Y-65200966D01*
X64503607Y-65336498D01*
X64503596Y-65336507D01*
X64336507Y-65503596D01*
X64336502Y-65503602D01*
X64200965Y-65697169D01*
X64101098Y-65911334D01*
X64101096Y-65911338D01*
X64039937Y-66139588D01*
X64019341Y-66375000D01*
X60450486Y-66375000D01*
X60573652Y-66299030D01*
X60699030Y-66173652D01*
X60792115Y-66022738D01*
X60792116Y-66022734D01*
X60794279Y-66019228D01*
X60847065Y-65971750D01*
X60917140Y-65960347D01*
X60982255Y-65988639D01*
X61002388Y-66009866D01*
X61039952Y-66060046D01*
X61155976Y-66146899D01*
X61155975Y-66146899D01*
X61291761Y-66197546D01*
X61291769Y-66197548D01*
X61351785Y-66203999D01*
X61496000Y-66203999D01*
X61496000Y-65504000D01*
X62004000Y-65504000D01*
X62004000Y-66203999D01*
X62148203Y-66203999D01*
X62148226Y-66203997D01*
X62208232Y-66197547D01*
X62208234Y-66197547D01*
X62344023Y-66146899D01*
X62460047Y-66060047D01*
X62546899Y-65944023D01*
X62597546Y-65808238D01*
X62597548Y-65808230D01*
X62603999Y-65748222D01*
X62604000Y-65748205D01*
X62604000Y-65504000D01*
X62004000Y-65504000D01*
X61496000Y-65504000D01*
X61496000Y-64296000D01*
X62004000Y-64296000D01*
X62004000Y-64996000D01*
X62603999Y-64996000D01*
X62603999Y-64751797D01*
X62603997Y-64751773D01*
X62597547Y-64691767D01*
X62597547Y-64691765D01*
X62546899Y-64555976D01*
X62460047Y-64439952D01*
X62344023Y-64353100D01*
X62344024Y-64353100D01*
X62208238Y-64302453D01*
X62208230Y-64302451D01*
X62148222Y-64296000D01*
X62004000Y-64296000D01*
X61496000Y-64296000D01*
X61351797Y-64296000D01*
X61351773Y-64296002D01*
X61291767Y-64302452D01*
X61291765Y-64302452D01*
X61155976Y-64353100D01*
X61039952Y-64439953D01*
X61002388Y-64490133D01*
X60945552Y-64532680D01*
X60874736Y-64537744D01*
X60812424Y-64503719D01*
X60794279Y-64480771D01*
X60781818Y-64460568D01*
X60699030Y-64326348D01*
X60699029Y-64326347D01*
X60699024Y-64326341D01*
X60573658Y-64200975D01*
X60573652Y-64200970D01*
X60555504Y-64189776D01*
X60422738Y-64107885D01*
X60422733Y-64107883D01*
X60421692Y-64107241D01*
X60374214Y-64054455D01*
X60362811Y-63984380D01*
X60391103Y-63919265D01*
X60421692Y-63892759D01*
X60422733Y-63892116D01*
X60422738Y-63892115D01*
X60573652Y-63799030D01*
X60699030Y-63673652D01*
X60792115Y-63522738D01*
X60792116Y-63522734D01*
X60794279Y-63519228D01*
X60847065Y-63471750D01*
X60917140Y-63460347D01*
X60982255Y-63488639D01*
X61002388Y-63509866D01*
X61039952Y-63560046D01*
X61155976Y-63646899D01*
X61155975Y-63646899D01*
X61291761Y-63697546D01*
X61291769Y-63697548D01*
X61351785Y-63703999D01*
X61496000Y-63703999D01*
X61496000Y-63004000D01*
X62004000Y-63004000D01*
X62004000Y-63703999D01*
X62148203Y-63703999D01*
X62148226Y-63703997D01*
X62208232Y-63697547D01*
X62208234Y-63697547D01*
X62344023Y-63646899D01*
X62460047Y-63560047D01*
X62546899Y-63444023D01*
X62597546Y-63308238D01*
X62597548Y-63308230D01*
X62603999Y-63248222D01*
X62604000Y-63248205D01*
X62604000Y-63004000D01*
X62004000Y-63004000D01*
X61496000Y-63004000D01*
X61496000Y-61796000D01*
X62004000Y-61796000D01*
X62004000Y-62496000D01*
X62603999Y-62496000D01*
X62603999Y-62251797D01*
X62603997Y-62251773D01*
X62597547Y-62191767D01*
X62597547Y-62191765D01*
X62546899Y-62055976D01*
X62460047Y-61939952D01*
X62344023Y-61853100D01*
X62344024Y-61853100D01*
X62208238Y-61802453D01*
X62208230Y-61802451D01*
X62148222Y-61796000D01*
X62004000Y-61796000D01*
X61496000Y-61796000D01*
X61351797Y-61796000D01*
X61351773Y-61796002D01*
X61291767Y-61802452D01*
X61291765Y-61802452D01*
X61155976Y-61853100D01*
X61039952Y-61939953D01*
X61002388Y-61990133D01*
X60945552Y-62032680D01*
X60874736Y-62037744D01*
X60812424Y-62003719D01*
X60794279Y-61980771D01*
X60781818Y-61960568D01*
X60699030Y-61826348D01*
X60699029Y-61826347D01*
X60699024Y-61826341D01*
X60573658Y-61700975D01*
X60573652Y-61700970D01*
X60563482Y-61694697D01*
X60422738Y-61607885D01*
X60422733Y-61607883D01*
X60421692Y-61607241D01*
X60374214Y-61554455D01*
X60362811Y-61484380D01*
X60391103Y-61419265D01*
X60421692Y-61392759D01*
X60422733Y-61392116D01*
X60422738Y-61392115D01*
X60573652Y-61299030D01*
X60699030Y-61173652D01*
X60792115Y-61022738D01*
X60792116Y-61022734D01*
X60794279Y-61019228D01*
X60847065Y-60971750D01*
X60917140Y-60960347D01*
X60982255Y-60988639D01*
X61002388Y-61009866D01*
X61039952Y-61060046D01*
X61155976Y-61146899D01*
X61155975Y-61146899D01*
X61291761Y-61197546D01*
X61291769Y-61197548D01*
X61351785Y-61203999D01*
X61496000Y-61203999D01*
X61496000Y-60504000D01*
X62004000Y-60504000D01*
X62004000Y-61203999D01*
X62148203Y-61203999D01*
X62148226Y-61203997D01*
X62208232Y-61197547D01*
X62208234Y-61197547D01*
X62344023Y-61146899D01*
X62460047Y-61060047D01*
X62546899Y-60944023D01*
X62597546Y-60808238D01*
X62597548Y-60808230D01*
X62603999Y-60748222D01*
X62604000Y-60748205D01*
X62604000Y-60504000D01*
X62004000Y-60504000D01*
X61496000Y-60504000D01*
X61496000Y-59296000D01*
X62004000Y-59296000D01*
X62004000Y-59996000D01*
X62603999Y-59996000D01*
X62603999Y-59751797D01*
X62603997Y-59751773D01*
X62597547Y-59691767D01*
X62597547Y-59691765D01*
X62546899Y-59555976D01*
X62460047Y-59439952D01*
X62344023Y-59353100D01*
X62344024Y-59353100D01*
X62208238Y-59302453D01*
X62208230Y-59302451D01*
X62148222Y-59296000D01*
X62004000Y-59296000D01*
X61496000Y-59296000D01*
X61351797Y-59296000D01*
X61351773Y-59296002D01*
X61291767Y-59302452D01*
X61291765Y-59302452D01*
X61155976Y-59353100D01*
X61039952Y-59439953D01*
X61002388Y-59490133D01*
X60945552Y-59532680D01*
X60874736Y-59537744D01*
X60812424Y-59503719D01*
X60794279Y-59480771D01*
X60776713Y-59452292D01*
X60699030Y-59326348D01*
X60699029Y-59326347D01*
X60699024Y-59326341D01*
X60573658Y-59200975D01*
X60573652Y-59200970D01*
X60557799Y-59191192D01*
X60422738Y-59107885D01*
X60422733Y-59107883D01*
X60421692Y-59107241D01*
X60374214Y-59054455D01*
X60362811Y-58984380D01*
X60391103Y-58919265D01*
X60421692Y-58892759D01*
X60422733Y-58892116D01*
X60422738Y-58892115D01*
X60573652Y-58799030D01*
X60699030Y-58673652D01*
X60792115Y-58522738D01*
X60792116Y-58522734D01*
X60794279Y-58519228D01*
X60847065Y-58471750D01*
X60917140Y-58460347D01*
X60982255Y-58488639D01*
X61002388Y-58509866D01*
X61039952Y-58560046D01*
X61155976Y-58646899D01*
X61155975Y-58646899D01*
X61291761Y-58697546D01*
X61291769Y-58697548D01*
X61351785Y-58703999D01*
X61496000Y-58703999D01*
X61496000Y-58004000D01*
X62004000Y-58004000D01*
X62004000Y-58703999D01*
X62148203Y-58703999D01*
X62148226Y-58703997D01*
X62208232Y-58697547D01*
X62208234Y-58697547D01*
X62344023Y-58646899D01*
X62460047Y-58560047D01*
X62546899Y-58444023D01*
X62597546Y-58308238D01*
X62597548Y-58308230D01*
X62603999Y-58248222D01*
X62604000Y-58248205D01*
X62604000Y-58004000D01*
X62004000Y-58004000D01*
X61496000Y-58004000D01*
X61496000Y-56796000D01*
X62004000Y-56796000D01*
X62004000Y-57496000D01*
X62603999Y-57496000D01*
X62603999Y-57251797D01*
X62603997Y-57251773D01*
X62597547Y-57191767D01*
X62597547Y-57191765D01*
X62546899Y-57055976D01*
X62460047Y-56939952D01*
X62344023Y-56853100D01*
X62344024Y-56853100D01*
X62208238Y-56802453D01*
X62208230Y-56802451D01*
X62148222Y-56796000D01*
X62004000Y-56796000D01*
X61496000Y-56796000D01*
X61351797Y-56796000D01*
X61351773Y-56796002D01*
X61291767Y-56802452D01*
X61291765Y-56802452D01*
X61155976Y-56853100D01*
X61039952Y-56939953D01*
X61002388Y-56990133D01*
X60945552Y-57032680D01*
X60874736Y-57037744D01*
X60812424Y-57003719D01*
X60794279Y-56980771D01*
X60792115Y-56977262D01*
X60699030Y-56826348D01*
X60699029Y-56826347D01*
X60699024Y-56826341D01*
X60573658Y-56700975D01*
X60573652Y-56700970D01*
X60561491Y-56693469D01*
X60433176Y-56614323D01*
X60385700Y-56561539D01*
X60374297Y-56491464D01*
X60402589Y-56426348D01*
X60441680Y-56396273D01*
X60441492Y-56395967D01*
X60444452Y-56394140D01*
X60446085Y-56392885D01*
X60447730Y-56392117D01*
X60447738Y-56392115D01*
X60598652Y-56299030D01*
X60724030Y-56173652D01*
X60817115Y-56022738D01*
X60817116Y-56022734D01*
X60819279Y-56019228D01*
X60872065Y-55971750D01*
X60942140Y-55960347D01*
X61007255Y-55988639D01*
X61027388Y-56009866D01*
X61064952Y-56060046D01*
X61180976Y-56146899D01*
X61180975Y-56146899D01*
X61316761Y-56197546D01*
X61316769Y-56197548D01*
X61376785Y-56203999D01*
X61521000Y-56203999D01*
X61521000Y-55504000D01*
X62029000Y-55504000D01*
X62029000Y-56203999D01*
X62173203Y-56203999D01*
X62173226Y-56203997D01*
X62233232Y-56197547D01*
X62233234Y-56197547D01*
X62369023Y-56146899D01*
X62485047Y-56060047D01*
X62571899Y-55944023D01*
X62622546Y-55808238D01*
X62622548Y-55808230D01*
X62628999Y-55748222D01*
X62629000Y-55748205D01*
X62629000Y-55504000D01*
X62029000Y-55504000D01*
X61521000Y-55504000D01*
X61521000Y-54296000D01*
X62029000Y-54296000D01*
X62029000Y-54996000D01*
X62628999Y-54996000D01*
X62628999Y-54751797D01*
X62628997Y-54751773D01*
X62622547Y-54691767D01*
X62622547Y-54691765D01*
X62571899Y-54555976D01*
X62485047Y-54439952D01*
X62369023Y-54353100D01*
X62369024Y-54353100D01*
X62233238Y-54302453D01*
X62233230Y-54302451D01*
X62173222Y-54296000D01*
X62029000Y-54296000D01*
X61521000Y-54296000D01*
X61376797Y-54296000D01*
X61376773Y-54296002D01*
X61316767Y-54302452D01*
X61316765Y-54302452D01*
X61180976Y-54353100D01*
X61064952Y-54439953D01*
X61027388Y-54490133D01*
X60970552Y-54532680D01*
X60899736Y-54537744D01*
X60837424Y-54503719D01*
X60819279Y-54480771D01*
X60817115Y-54477262D01*
X60724030Y-54326348D01*
X60724029Y-54326347D01*
X60724024Y-54326341D01*
X60598658Y-54200975D01*
X60598652Y-54200970D01*
X60598310Y-54200759D01*
X60447738Y-54107885D01*
X60334614Y-54070400D01*
X60279427Y-54052113D01*
X60279420Y-54052112D01*
X60175553Y-54041500D01*
X59374455Y-54041500D01*
X59270574Y-54052112D01*
X59102261Y-54107885D01*
X58951347Y-54200970D01*
X58951341Y-54200975D01*
X58825975Y-54326341D01*
X58825970Y-54326347D01*
X58732883Y-54477265D01*
X58715365Y-54530133D01*
X58674951Y-54588504D01*
X58609395Y-54615760D01*
X58595761Y-54616500D01*
X57131478Y-54616500D01*
X57063357Y-54596498D01*
X57024186Y-54556563D01*
X56921180Y-54389272D01*
X56921179Y-54389270D01*
X56768398Y-54215676D01*
X56588476Y-54070400D01*
X56567264Y-54058550D01*
X56517552Y-54007869D01*
X56503131Y-53938352D01*
X56528582Y-53872074D01*
X56558161Y-53844161D01*
X56681523Y-53760783D01*
X56848476Y-53600772D01*
X56985985Y-53414847D01*
X57090095Y-53208357D01*
X57157811Y-52987243D01*
X57187184Y-52757865D01*
X57186715Y-52746833D01*
X57177369Y-52526821D01*
X57150523Y-52402256D01*
X57128649Y-52300762D01*
X57123684Y-52288407D01*
X57102232Y-52235021D01*
X57042426Y-52086187D01*
X57026692Y-52060634D01*
X56950428Y-51936773D01*
X56921179Y-51889270D01*
X56768398Y-51715676D01*
X56692958Y-51654763D01*
X56588479Y-51570402D01*
X56588477Y-51570401D01*
X56588476Y-51570400D01*
X56511297Y-51527285D01*
X56461584Y-51476602D01*
X56447163Y-51407086D01*
X56472614Y-51340808D01*
X56528716Y-51299231D01*
X56669026Y-51246897D01*
X56785047Y-51160047D01*
X56871899Y-51044023D01*
X56922546Y-50908238D01*
X56922548Y-50908230D01*
X56928999Y-50848222D01*
X56929000Y-50848205D01*
X56929000Y-50454000D01*
X56101398Y-50454000D01*
X56136519Y-50399351D01*
X56175000Y-50268295D01*
X56175000Y-50131705D01*
X56136519Y-50000649D01*
X56101398Y-49946000D01*
X56928999Y-49946000D01*
X56928998Y-49551797D01*
X56928997Y-49551773D01*
X56922547Y-49491767D01*
X56922547Y-49491765D01*
X56871899Y-49355976D01*
X56785047Y-49239952D01*
X56669023Y-49153100D01*
X56669024Y-49153100D01*
X56533238Y-49102453D01*
X56533230Y-49102451D01*
X56473222Y-49096000D01*
X55954000Y-49096000D01*
X55954000Y-49793808D01*
X55835199Y-49739554D01*
X55733975Y-49725000D01*
X55666025Y-49725000D01*
X55564801Y-49739554D01*
X55445999Y-49793808D01*
X55446000Y-49096000D01*
X54926797Y-49096000D01*
X54926773Y-49096002D01*
X54866767Y-49102452D01*
X54866765Y-49102452D01*
X54730976Y-49153100D01*
X54614952Y-49239952D01*
X54528100Y-49355976D01*
X54477453Y-49491761D01*
X54477451Y-49491769D01*
X54471000Y-49551777D01*
X54471000Y-49946000D01*
X55298602Y-49946000D01*
X55263481Y-50000649D01*
X55225000Y-50131705D01*
X55225000Y-50268295D01*
X55263481Y-50399351D01*
X55298602Y-50454000D01*
X54471001Y-50454000D01*
X54471001Y-50848202D01*
X54471002Y-50848226D01*
X54477452Y-50908232D01*
X54477452Y-50908234D01*
X54528100Y-51044023D01*
X54614952Y-51160047D01*
X54730975Y-51246898D01*
X54867786Y-51297928D01*
X54924621Y-51340475D01*
X54949431Y-51406995D01*
X54934339Y-51476369D01*
X54894309Y-51520375D01*
X54722771Y-51636315D01*
X54718477Y-51639217D01*
X54551524Y-51799228D01*
X54455970Y-51928424D01*
X54399383Y-51971299D01*
X54354668Y-51979500D01*
X49111729Y-51979500D01*
X49043608Y-51959498D01*
X48997115Y-51905842D01*
X48987011Y-51835568D01*
X49016505Y-51770988D01*
X49072095Y-51733895D01*
X49122738Y-51717115D01*
X49273652Y-51624030D01*
X49399030Y-51498652D01*
X49492115Y-51347738D01*
X49547887Y-51179426D01*
X49558500Y-51075545D01*
X49558499Y-49474456D01*
X49547887Y-49370574D01*
X49492115Y-49202262D01*
X49399030Y-49051348D01*
X49399029Y-49051347D01*
X49399024Y-49051341D01*
X49273658Y-48925975D01*
X49273652Y-48925970D01*
X49243827Y-48907574D01*
X49177624Y-48866739D01*
X49130148Y-48813955D01*
X49118745Y-48743880D01*
X49147037Y-48678765D01*
X49206043Y-48639282D01*
X49243773Y-48633500D01*
X49876147Y-48633500D01*
X49891988Y-48635249D01*
X49892016Y-48634956D01*
X49899902Y-48635700D01*
X49899909Y-48635702D01*
X49969958Y-48633500D01*
X49999856Y-48633500D01*
X50006818Y-48632619D01*
X50012719Y-48632154D01*
X50059889Y-48630673D01*
X50079347Y-48625019D01*
X50098694Y-48621013D01*
X50118797Y-48618474D01*
X50162679Y-48601099D01*
X50168274Y-48599183D01*
X50196816Y-48590891D01*
X50213591Y-48586019D01*
X50213595Y-48586017D01*
X50231026Y-48575708D01*
X50248780Y-48567009D01*
X50267617Y-48559552D01*
X50305786Y-48531818D01*
X50310744Y-48528562D01*
X50351362Y-48504542D01*
X50365685Y-48490218D01*
X50380724Y-48477374D01*
X50397107Y-48465472D01*
X50427188Y-48429108D01*
X50431166Y-48424736D01*
X51215500Y-47640404D01*
X51277813Y-47606379D01*
X51304596Y-47603500D01*
X59809822Y-47603500D01*
X59877943Y-47623502D01*
X59898917Y-47640405D01*
X61521397Y-49262885D01*
X61555423Y-49325197D01*
X61558302Y-49351980D01*
X61558302Y-52680740D01*
X61556553Y-52696582D01*
X61556846Y-52696610D01*
X61556100Y-52704501D01*
X61556100Y-52704503D01*
X61557079Y-52735648D01*
X61558302Y-52774551D01*
X61558302Y-52804445D01*
X61558303Y-52804466D01*
X61559180Y-52811414D01*
X61559646Y-52817326D01*
X61561128Y-52864482D01*
X61561129Y-52864487D01*
X61566779Y-52883933D01*
X61570788Y-52903291D01*
X61573327Y-52923387D01*
X61573328Y-52923393D01*
X61590695Y-52967256D01*
X61592618Y-52972873D01*
X61605784Y-53018187D01*
X61616096Y-53035625D01*
X61624790Y-53053373D01*
X61632246Y-53072203D01*
X61632252Y-53072214D01*
X61659979Y-53110377D01*
X61663239Y-53115340D01*
X61687262Y-53155959D01*
X61701581Y-53170278D01*
X61714419Y-53185308D01*
X61723958Y-53198437D01*
X61726330Y-53201701D01*
X61734370Y-53208352D01*
X61762688Y-53231779D01*
X61767069Y-53235765D01*
X62341774Y-53810470D01*
X62879595Y-54348291D01*
X62913621Y-54410603D01*
X62916500Y-54437386D01*
X62916500Y-55464369D01*
X62914751Y-55480211D01*
X62915044Y-55480239D01*
X62914298Y-55488130D01*
X62916500Y-55558180D01*
X62916500Y-55588074D01*
X62916501Y-55588095D01*
X62917378Y-55595043D01*
X62917844Y-55600955D01*
X62919326Y-55648111D01*
X62919327Y-55648116D01*
X62924977Y-55667562D01*
X62928986Y-55686920D01*
X62931525Y-55707016D01*
X62931526Y-55707022D01*
X62948893Y-55750885D01*
X62950816Y-55756502D01*
X62963982Y-55801816D01*
X62974294Y-55819254D01*
X62982988Y-55837002D01*
X62990444Y-55855832D01*
X62990450Y-55855843D01*
X63018177Y-55894006D01*
X63021437Y-55898969D01*
X63045460Y-55939588D01*
X63059779Y-55953907D01*
X63072617Y-55968937D01*
X63074661Y-55971750D01*
X63084528Y-55985330D01*
X63088528Y-55988639D01*
X63120886Y-56015408D01*
X63125267Y-56019394D01*
X63228001Y-56122128D01*
X63329595Y-56223722D01*
X63363621Y-56286034D01*
X63366500Y-56312817D01*
X63366500Y-58216146D01*
X63364751Y-58231988D01*
X63365044Y-58232016D01*
X63364298Y-58239907D01*
X63366500Y-58309957D01*
X63366500Y-58339851D01*
X63366501Y-58339872D01*
X63367378Y-58346820D01*
X63367844Y-58352732D01*
X63369326Y-58399888D01*
X63369327Y-58399893D01*
X63374977Y-58419339D01*
X63378986Y-58438697D01*
X63381525Y-58458793D01*
X63381526Y-58458799D01*
X63398893Y-58502662D01*
X63400816Y-58508279D01*
X63413982Y-58553593D01*
X63424294Y-58571031D01*
X63432988Y-58588779D01*
X63440444Y-58607609D01*
X63440450Y-58607620D01*
X63468177Y-58645783D01*
X63471437Y-58650746D01*
X63495460Y-58691365D01*
X63509779Y-58705684D01*
X63522617Y-58720714D01*
X63532156Y-58733843D01*
X63534528Y-58737107D01*
X63562794Y-58760491D01*
X63570886Y-58767185D01*
X63575267Y-58771171D01*
X63716500Y-58912404D01*
X63853020Y-59048924D01*
X63887046Y-59111236D01*
X63884402Y-59174914D01*
X63842189Y-59312756D01*
X63837023Y-59353100D01*
X63815890Y-59518134D01*
X63812815Y-59542144D01*
X63822630Y-59773178D01*
X63871351Y-59999240D01*
X63957575Y-60213815D01*
X63957577Y-60213819D01*
X64032468Y-60335449D01*
X64078821Y-60410730D01*
X64231602Y-60584324D01*
X64411524Y-60729600D01*
X64613409Y-60842380D01*
X64678699Y-60865448D01*
X64831442Y-60919417D01*
X64831446Y-60919417D01*
X64831450Y-60919419D01*
X65059375Y-60958500D01*
X65059379Y-60958500D01*
X65482713Y-60958500D01*
X65655418Y-60943801D01*
X65879207Y-60885530D01*
X66089929Y-60790278D01*
X66281523Y-60660783D01*
X66448476Y-60500772D01*
X66585985Y-60314847D01*
X66690095Y-60108357D01*
X66757811Y-59887243D01*
X66787184Y-59657865D01*
X66785374Y-59615267D01*
X66777369Y-59426821D01*
X66755715Y-59326347D01*
X66728649Y-59200762D01*
X66728610Y-59200666D01*
X66692843Y-59111655D01*
X66642426Y-58986187D01*
X66641313Y-58984380D01*
X66554977Y-58844161D01*
X66521179Y-58789270D01*
X66368398Y-58615676D01*
X66188476Y-58470400D01*
X66167264Y-58458550D01*
X66117552Y-58407869D01*
X66103131Y-58338352D01*
X66128582Y-58272074D01*
X66158161Y-58244161D01*
X66281523Y-58160783D01*
X66448476Y-58000772D01*
X66585985Y-57814847D01*
X66690095Y-57608357D01*
X66757811Y-57387243D01*
X66787184Y-57157865D01*
X66786943Y-57152203D01*
X66777369Y-56926821D01*
X66757998Y-56836941D01*
X66728649Y-56700762D01*
X66725718Y-56693469D01*
X66689780Y-56604033D01*
X66642426Y-56486187D01*
X66633314Y-56471389D01*
X66553986Y-56342552D01*
X66521179Y-56289270D01*
X66368398Y-56115676D01*
X66188476Y-55970400D01*
X66167264Y-55958550D01*
X66117552Y-55907869D01*
X66103131Y-55838352D01*
X66128582Y-55772074D01*
X66158161Y-55744161D01*
X66162098Y-55741500D01*
X66281523Y-55660783D01*
X66448476Y-55500772D01*
X66585985Y-55314847D01*
X66690095Y-55108357D01*
X66757811Y-54887243D01*
X66787184Y-54657865D01*
X66785395Y-54615760D01*
X66777369Y-54426821D01*
X66755715Y-54326347D01*
X66728649Y-54200762D01*
X66642426Y-53986187D01*
X66616857Y-53944661D01*
X66554977Y-53844161D01*
X66521179Y-53789270D01*
X66368398Y-53615676D01*
X66188476Y-53470400D01*
X66167264Y-53458550D01*
X66117552Y-53407869D01*
X66103131Y-53338352D01*
X66128582Y-53272074D01*
X66158161Y-53244161D01*
X66281523Y-53160783D01*
X66448476Y-53000772D01*
X66585985Y-52814847D01*
X66690095Y-52608357D01*
X66757811Y-52387243D01*
X66787184Y-52157865D01*
X66787182Y-52157828D01*
X66777369Y-51926821D01*
X66748572Y-51793206D01*
X66728649Y-51700762D01*
X66642426Y-51486187D01*
X66638874Y-51480419D01*
X66521180Y-51289272D01*
X66521179Y-51289270D01*
X66368398Y-51115676D01*
X66188476Y-50970400D01*
X66167264Y-50958550D01*
X66117552Y-50907869D01*
X66103131Y-50838352D01*
X66128582Y-50772074D01*
X66158161Y-50744161D01*
X66160413Y-50742639D01*
X66281523Y-50660783D01*
X66448476Y-50500772D01*
X66585985Y-50314847D01*
X66690095Y-50108357D01*
X66757811Y-49887243D01*
X66787184Y-49657865D01*
X66787127Y-49656526D01*
X66777369Y-49426821D01*
X66755467Y-49325197D01*
X66728649Y-49200762D01*
X66642426Y-48986187D01*
X66637338Y-48977924D01*
X66541889Y-48822905D01*
X66521179Y-48789270D01*
X66368398Y-48615676D01*
X66188476Y-48470400D01*
X66167264Y-48458550D01*
X66117552Y-48407869D01*
X66103131Y-48338352D01*
X66128582Y-48272074D01*
X66158161Y-48244161D01*
X66281523Y-48160783D01*
X66448476Y-48000772D01*
X66515071Y-47910730D01*
X66515925Y-47909576D01*
X66572513Y-47866701D01*
X66617228Y-47858500D01*
X69726664Y-47858500D01*
X69794785Y-47878502D01*
X69825091Y-47906882D01*
X69825285Y-47906712D01*
X69827049Y-47908716D01*
X69827967Y-47909576D01*
X69828816Y-47910724D01*
X69828820Y-47910728D01*
X69828821Y-47910730D01*
X69981602Y-48084324D01*
X70161524Y-48229600D01*
X70182733Y-48241448D01*
X70232446Y-48292129D01*
X70246869Y-48361645D01*
X70221418Y-48427923D01*
X70191839Y-48455838D01*
X70068478Y-48539216D01*
X70068477Y-48539217D01*
X69901521Y-48699230D01*
X69764013Y-48885154D01*
X69659903Y-49091647D01*
X69618178Y-49227894D01*
X69592189Y-49312757D01*
X69565250Y-49523132D01*
X69562815Y-49542144D01*
X69572630Y-49773178D01*
X69621351Y-49999240D01*
X69707575Y-50213815D01*
X69707577Y-50213819D01*
X69828819Y-50410727D01*
X69828821Y-50410730D01*
X69981602Y-50584324D01*
X70012673Y-50609412D01*
X70147993Y-50718675D01*
X70161524Y-50729600D01*
X70182733Y-50741448D01*
X70232446Y-50792129D01*
X70246869Y-50861645D01*
X70221418Y-50927923D01*
X70191839Y-50955838D01*
X70068478Y-51039216D01*
X70068477Y-51039217D01*
X69901521Y-51199230D01*
X69764013Y-51385154D01*
X69659903Y-51591647D01*
X69617947Y-51728648D01*
X69592189Y-51812757D01*
X69562947Y-52041117D01*
X69562815Y-52042144D01*
X69572630Y-52273178D01*
X69621351Y-52499240D01*
X69707575Y-52713815D01*
X69707577Y-52713819D01*
X69828819Y-52910727D01*
X69828821Y-52910730D01*
X69981602Y-53084324D01*
X70020015Y-53115340D01*
X70135208Y-53208352D01*
X70161524Y-53229600D01*
X70182733Y-53241448D01*
X70232446Y-53292129D01*
X70246869Y-53361645D01*
X70221418Y-53427923D01*
X70191839Y-53455838D01*
X70068478Y-53539216D01*
X70068477Y-53539217D01*
X69901521Y-53699230D01*
X69764013Y-53885154D01*
X69659903Y-54091647D01*
X69626422Y-54200975D01*
X69592189Y-54312757D01*
X69567736Y-54503719D01*
X69562815Y-54542144D01*
X69572630Y-54773178D01*
X69621351Y-54999240D01*
X69678775Y-55142144D01*
X69704422Y-55205970D01*
X69707575Y-55213815D01*
X69707577Y-55213819D01*
X69828819Y-55410727D01*
X69828822Y-55410731D01*
X69958592Y-55558180D01*
X69981602Y-55584324D01*
X70017233Y-55613094D01*
X70133561Y-55707022D01*
X70161524Y-55729600D01*
X70182733Y-55741448D01*
X70232446Y-55792129D01*
X70246869Y-55861645D01*
X70221418Y-55927923D01*
X70191839Y-55955838D01*
X70068478Y-56039216D01*
X70068477Y-56039217D01*
X69901521Y-56199230D01*
X69764013Y-56385154D01*
X69659903Y-56591647D01*
X69626422Y-56700975D01*
X69592189Y-56812757D01*
X69565890Y-57018134D01*
X69562815Y-57042144D01*
X69572630Y-57273178D01*
X69621351Y-57499240D01*
X69663023Y-57602944D01*
X69706962Y-57712291D01*
X69707575Y-57713815D01*
X69707577Y-57713819D01*
X69802434Y-57867875D01*
X69828821Y-57910730D01*
X69981602Y-58084324D01*
X70045175Y-58135655D01*
X70156266Y-58225355D01*
X70161524Y-58229600D01*
X70182733Y-58241448D01*
X70232446Y-58292129D01*
X70246869Y-58361645D01*
X70221418Y-58427923D01*
X70191839Y-58455838D01*
X70068478Y-58539216D01*
X70068477Y-58539217D01*
X69901521Y-58699230D01*
X69764013Y-58885154D01*
X69659903Y-59091647D01*
X69626422Y-59200975D01*
X69592189Y-59312757D01*
X69565890Y-59518134D01*
X69562815Y-59542144D01*
X69572630Y-59773178D01*
X69621351Y-59999240D01*
X69707575Y-60213815D01*
X69707577Y-60213819D01*
X69782468Y-60335449D01*
X69828821Y-60410730D01*
X69981602Y-60584324D01*
X70161524Y-60729600D01*
X70363409Y-60842380D01*
X70428699Y-60865448D01*
X70581442Y-60919417D01*
X70581446Y-60919417D01*
X70581450Y-60919419D01*
X70809375Y-60958500D01*
X70809379Y-60958500D01*
X71232713Y-60958500D01*
X71405418Y-60943801D01*
X71629207Y-60885530D01*
X71839929Y-60790278D01*
X72031523Y-60660783D01*
X72198476Y-60500772D01*
X72335985Y-60314847D01*
X72440095Y-60108357D01*
X72507811Y-59887243D01*
X72537184Y-59657865D01*
X72535374Y-59615267D01*
X72527369Y-59426821D01*
X72505715Y-59326347D01*
X72478649Y-59200762D01*
X72478610Y-59200666D01*
X72442843Y-59111655D01*
X72392426Y-58986187D01*
X72391313Y-58984380D01*
X72304977Y-58844161D01*
X72271179Y-58789270D01*
X72118398Y-58615676D01*
X71938476Y-58470400D01*
X71917264Y-58458550D01*
X71867552Y-58407869D01*
X71853131Y-58338352D01*
X71878582Y-58272074D01*
X71908161Y-58244161D01*
X72031523Y-58160783D01*
X72198476Y-58000772D01*
X72335985Y-57814847D01*
X72440095Y-57608357D01*
X72507811Y-57387243D01*
X72537184Y-57157865D01*
X72536943Y-57152203D01*
X72527369Y-56926821D01*
X72507998Y-56836941D01*
X72478649Y-56700762D01*
X72475718Y-56693469D01*
X72439780Y-56604033D01*
X72392426Y-56486187D01*
X72383314Y-56471389D01*
X72303986Y-56342552D01*
X72271179Y-56289270D01*
X72118398Y-56115676D01*
X71938476Y-55970400D01*
X71917264Y-55958550D01*
X71867552Y-55907869D01*
X71853131Y-55838352D01*
X71878582Y-55772074D01*
X71908161Y-55744161D01*
X71912098Y-55741500D01*
X72031523Y-55660783D01*
X72198476Y-55500772D01*
X72335985Y-55314847D01*
X72440095Y-55108357D01*
X72507811Y-54887243D01*
X72537184Y-54657865D01*
X72535395Y-54615760D01*
X72527369Y-54426821D01*
X72505715Y-54326347D01*
X72478649Y-54200762D01*
X72392426Y-53986187D01*
X72366857Y-53944661D01*
X72304977Y-53844161D01*
X72271179Y-53789270D01*
X72118398Y-53615676D01*
X71938476Y-53470400D01*
X71917264Y-53458550D01*
X71867552Y-53407869D01*
X71853131Y-53338352D01*
X71878582Y-53272074D01*
X71908161Y-53244161D01*
X72031523Y-53160783D01*
X72198476Y-53000772D01*
X72335985Y-52814847D01*
X72440095Y-52608357D01*
X72507811Y-52387243D01*
X72537184Y-52157865D01*
X72537182Y-52157828D01*
X72527369Y-51926821D01*
X72498572Y-51793206D01*
X72478649Y-51700762D01*
X72392426Y-51486187D01*
X72388874Y-51480419D01*
X72271180Y-51289272D01*
X72271179Y-51289270D01*
X72118398Y-51115676D01*
X71938476Y-50970400D01*
X71917264Y-50958550D01*
X71867552Y-50907869D01*
X71853131Y-50838352D01*
X71878582Y-50772074D01*
X71908161Y-50744161D01*
X71910413Y-50742639D01*
X72031523Y-50660783D01*
X72198476Y-50500772D01*
X72335985Y-50314847D01*
X72440095Y-50108357D01*
X72507811Y-49887243D01*
X72537184Y-49657865D01*
X72537127Y-49656526D01*
X72527369Y-49426821D01*
X72505467Y-49325197D01*
X72478649Y-49200762D01*
X72392426Y-48986187D01*
X72387338Y-48977924D01*
X72291889Y-48822905D01*
X72271179Y-48789270D01*
X72118398Y-48615676D01*
X71938476Y-48470400D01*
X71917264Y-48458550D01*
X71867552Y-48407869D01*
X71853131Y-48338352D01*
X71878582Y-48272074D01*
X71908161Y-48244161D01*
X72031523Y-48160783D01*
X72198476Y-48000772D01*
X72265071Y-47910730D01*
X72265925Y-47909576D01*
X72322513Y-47866701D01*
X72367228Y-47858500D01*
X72977559Y-47858500D01*
X72995819Y-47859830D01*
X73000715Y-47860547D01*
X73019789Y-47863341D01*
X73053146Y-47860422D01*
X73072385Y-47858740D01*
X73077878Y-47858500D01*
X73086176Y-47858500D01*
X73086180Y-47858500D01*
X73112512Y-47855421D01*
X73119096Y-47854652D01*
X73130160Y-47853684D01*
X73196426Y-47847887D01*
X73196432Y-47847884D01*
X73203618Y-47846402D01*
X73203631Y-47846468D01*
X73210987Y-47844836D01*
X73210972Y-47844771D01*
X73218104Y-47843079D01*
X73218113Y-47843079D01*
X73291065Y-47816526D01*
X73364738Y-47792114D01*
X73364740Y-47792112D01*
X73371389Y-47789012D01*
X73371418Y-47789074D01*
X73378203Y-47785789D01*
X73378173Y-47785729D01*
X73384728Y-47782436D01*
X73384732Y-47782435D01*
X73449605Y-47739766D01*
X73515651Y-47699030D01*
X73515660Y-47699020D01*
X73521408Y-47694477D01*
X73521450Y-47694531D01*
X73527289Y-47689775D01*
X73527246Y-47689723D01*
X73532865Y-47685006D01*
X73532874Y-47685001D01*
X73586163Y-47628517D01*
X74404784Y-46809895D01*
X74418617Y-46797941D01*
X74438058Y-46783469D01*
X74472001Y-46743015D01*
X74475700Y-46738979D01*
X74481580Y-46733101D01*
X74502136Y-46707103D01*
X74552032Y-46647640D01*
X74552035Y-46647637D01*
X74556066Y-46641508D01*
X74556122Y-46641545D01*
X74560171Y-46635190D01*
X74560113Y-46635155D01*
X74563966Y-46628908D01*
X74596773Y-46558553D01*
X74608351Y-46535497D01*
X74631609Y-46489188D01*
X74631609Y-46489184D01*
X74634119Y-46482291D01*
X74634183Y-46482314D01*
X74636658Y-46475193D01*
X74636593Y-46475172D01*
X74638898Y-46468213D01*
X74638902Y-46468206D01*
X74652678Y-46401487D01*
X74654599Y-46392182D01*
X74672500Y-46316656D01*
X74673352Y-46309368D01*
X74673418Y-46309375D01*
X74674184Y-46301877D01*
X74674118Y-46301872D01*
X74674756Y-46294565D01*
X74674758Y-46294558D01*
X74672500Y-46216954D01*
X74672500Y-42990435D01*
X74673831Y-42972172D01*
X74677340Y-42948216D01*
X74677341Y-42948211D01*
X74674345Y-42913961D01*
X74672740Y-42895613D01*
X74672500Y-42890120D01*
X74672500Y-42881824D01*
X74672366Y-42880680D01*
X74668652Y-42848905D01*
X74661887Y-42771573D01*
X74661886Y-42771570D01*
X74661886Y-42771568D01*
X74660403Y-42764387D01*
X74660469Y-42764373D01*
X74658839Y-42757019D01*
X74658773Y-42757035D01*
X74657079Y-42749893D01*
X74657079Y-42749887D01*
X74630530Y-42676944D01*
X74606114Y-42603261D01*
X74606110Y-42603255D01*
X74603014Y-42596615D01*
X74603076Y-42596586D01*
X74599791Y-42589800D01*
X74599731Y-42589831D01*
X74596437Y-42583272D01*
X74596435Y-42583270D01*
X74596435Y-42583268D01*
X74553767Y-42518395D01*
X74513029Y-42452348D01*
X74513028Y-42452347D01*
X74508476Y-42446590D01*
X74508529Y-42446547D01*
X74503766Y-42440700D01*
X74503715Y-42440744D01*
X74498998Y-42435122D01*
X74442518Y-42381837D01*
X72971908Y-40911227D01*
X72959936Y-40897375D01*
X72958067Y-40894864D01*
X72945469Y-40877942D01*
X72941416Y-40874541D01*
X72905024Y-40844003D01*
X72900970Y-40840289D01*
X72895107Y-40834425D01*
X72875107Y-40818611D01*
X72869103Y-40813863D01*
X72809640Y-40763968D01*
X72809638Y-40763967D01*
X72809636Y-40763965D01*
X72803506Y-40759933D01*
X72803541Y-40759878D01*
X72797187Y-40755829D01*
X72797153Y-40755886D01*
X72790906Y-40752033D01*
X72720540Y-40719220D01*
X72697836Y-40707818D01*
X72651188Y-40684391D01*
X72651186Y-40684390D01*
X72651183Y-40684389D01*
X72644289Y-40681880D01*
X72644311Y-40681817D01*
X72637189Y-40679341D01*
X72637169Y-40679404D01*
X72630209Y-40677097D01*
X72554150Y-40661392D01*
X72478652Y-40643499D01*
X72471367Y-40642648D01*
X72471374Y-40642580D01*
X72463877Y-40641814D01*
X72463872Y-40641881D01*
X72456559Y-40641241D01*
X72456558Y-40641241D01*
X72378920Y-40643500D01*
X70918371Y-40643500D01*
X70850250Y-40623498D01*
X70829276Y-40606595D01*
X67916775Y-37694094D01*
X67882749Y-37631782D01*
X67887814Y-37560967D01*
X67930361Y-37504131D01*
X67996881Y-37479320D01*
X68005870Y-37478999D01*
X68548203Y-37478999D01*
X68548226Y-37478997D01*
X68608232Y-37472547D01*
X68608234Y-37472547D01*
X68744023Y-37421899D01*
X68860047Y-37335047D01*
X68946899Y-37219023D01*
X68997546Y-37083238D01*
X68997548Y-37083230D01*
X69003999Y-37023222D01*
X69004000Y-37023205D01*
X69004000Y-36504000D01*
X68301398Y-36504000D01*
X68336519Y-36449351D01*
X68375000Y-36318295D01*
X68375000Y-36181705D01*
X68336519Y-36050649D01*
X68301398Y-35996000D01*
X69003999Y-35996000D01*
X69003999Y-35476797D01*
X69003997Y-35476773D01*
X68997547Y-35416767D01*
X68997547Y-35416765D01*
X68946899Y-35280976D01*
X68860047Y-35164952D01*
X68744023Y-35078100D01*
X68744024Y-35078100D01*
X68608238Y-35027453D01*
X68608230Y-35027451D01*
X68548222Y-35021000D01*
X68154000Y-35021000D01*
X68154000Y-35843808D01*
X68035199Y-35789554D01*
X67933975Y-35775000D01*
X67866025Y-35775000D01*
X67764801Y-35789554D01*
X67646000Y-35843808D01*
X67646000Y-35021000D01*
X67251797Y-35021000D01*
X67251773Y-35021002D01*
X67191767Y-35027452D01*
X67191765Y-35027452D01*
X67055976Y-35078100D01*
X66939952Y-35164952D01*
X66853101Y-35280975D01*
X66802071Y-35417786D01*
X66759524Y-35474621D01*
X66693003Y-35499431D01*
X66623629Y-35484339D01*
X66579625Y-35444310D01*
X66460783Y-35268477D01*
X66300772Y-35101524D01*
X66300771Y-35101523D01*
X66300769Y-35101521D01*
X66114845Y-34964013D01*
X65979470Y-34895759D01*
X65908357Y-34859905D01*
X65908354Y-34859904D01*
X65908352Y-34859903D01*
X65782466Y-34821351D01*
X65687243Y-34792189D01*
X65457865Y-34762816D01*
X65457861Y-34762816D01*
X65457853Y-34762815D01*
X65226821Y-34772630D01*
X65000759Y-34821351D01*
X64786184Y-34907575D01*
X64786180Y-34907577D01*
X64589272Y-35028819D01*
X64589268Y-35028822D01*
X64415676Y-35181601D01*
X64270401Y-35361522D01*
X64258552Y-35382733D01*
X64207867Y-35432448D01*
X64138350Y-35446868D01*
X64072073Y-35421416D01*
X64044161Y-35391839D01*
X63960783Y-35268477D01*
X63800772Y-35101524D01*
X63800771Y-35101523D01*
X63800769Y-35101521D01*
X63614845Y-34964013D01*
X63479470Y-34895759D01*
X63408357Y-34859905D01*
X63408354Y-34859904D01*
X63408352Y-34859903D01*
X63282466Y-34821351D01*
X63187243Y-34792189D01*
X62957865Y-34762816D01*
X62957861Y-34762816D01*
X62957853Y-34762815D01*
X62726821Y-34772630D01*
X62500759Y-34821351D01*
X62286184Y-34907575D01*
X62286180Y-34907577D01*
X62089272Y-35028819D01*
X62089268Y-35028822D01*
X61915676Y-35181601D01*
X61770401Y-35361522D01*
X61758552Y-35382733D01*
X61707867Y-35432448D01*
X61638350Y-35446868D01*
X61572073Y-35421416D01*
X61544161Y-35391839D01*
X61460783Y-35268477D01*
X61300772Y-35101524D01*
X61300771Y-35101523D01*
X61300769Y-35101521D01*
X61114845Y-34964013D01*
X60979470Y-34895759D01*
X60908357Y-34859905D01*
X60908354Y-34859904D01*
X60908352Y-34859903D01*
X60782466Y-34821351D01*
X60687243Y-34792189D01*
X60457865Y-34762816D01*
X60457861Y-34762816D01*
X60457853Y-34762815D01*
X60226821Y-34772630D01*
X60150539Y-34789071D01*
X60079733Y-34783869D01*
X60034898Y-34754994D01*
X58729904Y-33450000D01*
X82944341Y-33450000D01*
X82964937Y-33685411D01*
X83026096Y-33913661D01*
X83026098Y-33913665D01*
X83125966Y-34127832D01*
X83261498Y-34321392D01*
X83261502Y-34321397D01*
X83261505Y-34321401D01*
X83428599Y-34488495D01*
X83428603Y-34488498D01*
X83428607Y-34488501D01*
X83622167Y-34624033D01*
X83622166Y-34624033D01*
X83698304Y-34659537D01*
X83836337Y-34723903D01*
X84064592Y-34785063D01*
X84241034Y-34800500D01*
X84241035Y-34800500D01*
X84358965Y-34800500D01*
X84358966Y-34800500D01*
X84535408Y-34785063D01*
X84763663Y-34723903D01*
X84977829Y-34624035D01*
X85171401Y-34488495D01*
X85338495Y-34321401D01*
X85474035Y-34127830D01*
X85573903Y-33913663D01*
X85635063Y-33685408D01*
X85655659Y-33450000D01*
X85635063Y-33214592D01*
X85573903Y-32986337D01*
X85474035Y-32772171D01*
X85474034Y-32772169D01*
X85474033Y-32772167D01*
X85338501Y-32578607D01*
X85338497Y-32578602D01*
X85338495Y-32578599D01*
X85171401Y-32411505D01*
X85171397Y-32411502D01*
X85171392Y-32411498D01*
X84977832Y-32275966D01*
X84977833Y-32275966D01*
X84763665Y-32176098D01*
X84763661Y-32176096D01*
X84535411Y-32114937D01*
X84403076Y-32103359D01*
X84358966Y-32099500D01*
X84241034Y-32099500D01*
X84205745Y-32102587D01*
X84064588Y-32114937D01*
X83836338Y-32176096D01*
X83836334Y-32176098D01*
X83622167Y-32275966D01*
X83428607Y-32411498D01*
X83428596Y-32411507D01*
X83261507Y-32578596D01*
X83261502Y-32578602D01*
X83125965Y-32772169D01*
X83026098Y-32986334D01*
X83026096Y-32986338D01*
X82964937Y-33214588D01*
X82944341Y-33450000D01*
X58729904Y-33450000D01*
X58181002Y-32901098D01*
X56291244Y-31011339D01*
X56281279Y-30998901D01*
X56281052Y-30999090D01*
X56276001Y-30992984D01*
X56276000Y-30992982D01*
X56224921Y-30945016D01*
X56217100Y-30937195D01*
X56209193Y-30929287D01*
X56175167Y-30866975D01*
X56180232Y-30796160D01*
X56222779Y-30739324D01*
X56289299Y-30714513D01*
X56298288Y-30714192D01*
X86581239Y-30714192D01*
X86587747Y-30714529D01*
G37*
%TD.AperFunction*%
%TA.AperFunction,Conductor*%
G36*
X48244032Y-55732815D02*
G01*
X48289095Y-55761776D01*
X49154595Y-56627276D01*
X49188621Y-56689588D01*
X49191500Y-56716371D01*
X49191500Y-57750544D01*
X49202112Y-57854425D01*
X49257885Y-58022738D01*
X49350970Y-58173652D01*
X49350975Y-58173658D01*
X49476341Y-58299024D01*
X49476347Y-58299029D01*
X49476348Y-58299030D01*
X49566159Y-58354426D01*
X49622306Y-58389058D01*
X49669784Y-58441844D01*
X49681187Y-58511919D01*
X49652894Y-58577035D01*
X49643344Y-58587265D01*
X49526521Y-58699230D01*
X49389013Y-58885154D01*
X49284903Y-59091647D01*
X49251422Y-59200975D01*
X49217189Y-59312757D01*
X49190890Y-59518134D01*
X49187815Y-59542144D01*
X49197630Y-59773178D01*
X49246351Y-59999240D01*
X49332575Y-60213815D01*
X49332577Y-60213819D01*
X49407468Y-60335449D01*
X49453821Y-60410730D01*
X49606602Y-60584324D01*
X49786524Y-60729600D01*
X49988409Y-60842380D01*
X50053699Y-60865448D01*
X50206442Y-60919417D01*
X50206446Y-60919417D01*
X50206450Y-60919419D01*
X50434375Y-60958500D01*
X50434379Y-60958500D01*
X50907713Y-60958500D01*
X51080418Y-60943801D01*
X51304207Y-60885530D01*
X51514929Y-60790278D01*
X51656082Y-60694874D01*
X51723718Y-60673302D01*
X51792284Y-60691721D01*
X51840007Y-60744286D01*
X51851735Y-60814307D01*
X51823746Y-60879553D01*
X51815731Y-60888363D01*
X46674500Y-66029595D01*
X46612188Y-66063621D01*
X46585405Y-66066500D01*
X44607286Y-66066500D01*
X44539165Y-66046498D01*
X44492672Y-65992842D01*
X44482568Y-65922568D01*
X44496699Y-65882421D01*
X44496464Y-65882319D01*
X44497920Y-65878952D01*
X44498834Y-65876358D01*
X44499609Y-65875045D01*
X44499613Y-65875041D01*
X44518347Y-65831748D01*
X44520961Y-65826412D01*
X44534796Y-65801247D01*
X44543695Y-65785060D01*
X44548733Y-65765435D01*
X44555138Y-65746730D01*
X44562636Y-65729404D01*
X44563181Y-65728145D01*
X44570563Y-65681525D01*
X44571761Y-65675744D01*
X44583500Y-65630030D01*
X44583500Y-65609769D01*
X44585051Y-65590058D01*
X44588219Y-65570056D01*
X44583780Y-65523089D01*
X44583500Y-65517157D01*
X44583500Y-63310021D01*
X44585249Y-63294179D01*
X44584956Y-63294152D01*
X44585700Y-63286266D01*
X44585702Y-63286259D01*
X44583500Y-63216195D01*
X44583500Y-63186311D01*
X44582620Y-63179349D01*
X44582156Y-63173460D01*
X44580674Y-63126278D01*
X44575020Y-63106819D01*
X44571012Y-63087464D01*
X44568474Y-63067370D01*
X44551103Y-63023496D01*
X44549189Y-63017907D01*
X44536019Y-62972574D01*
X44525703Y-62955131D01*
X44517005Y-62937376D01*
X44509552Y-62918550D01*
X44481818Y-62880377D01*
X44478558Y-62875414D01*
X44454542Y-62834805D01*
X44440214Y-62820477D01*
X44427384Y-62805456D01*
X44415472Y-62789060D01*
X44415469Y-62789058D01*
X44415469Y-62789057D01*
X44379107Y-62758975D01*
X44374726Y-62754989D01*
X42370405Y-60750667D01*
X42336379Y-60688355D01*
X42333500Y-60661572D01*
X42333500Y-60335449D01*
X42353502Y-60267328D01*
X42407158Y-60220835D01*
X42477432Y-60210731D01*
X42542012Y-60240225D01*
X42566788Y-60269380D01*
X42653821Y-60410730D01*
X42806602Y-60584324D01*
X42986524Y-60729600D01*
X43188409Y-60842380D01*
X43253699Y-60865448D01*
X43406442Y-60919417D01*
X43406446Y-60919417D01*
X43406450Y-60919419D01*
X43634375Y-60958500D01*
X43634379Y-60958500D01*
X44107713Y-60958500D01*
X44280418Y-60943801D01*
X44504207Y-60885530D01*
X44714929Y-60790278D01*
X44906523Y-60660783D01*
X45073476Y-60500772D01*
X45210985Y-60314847D01*
X45315095Y-60108357D01*
X45382811Y-59887243D01*
X45412184Y-59657865D01*
X45410374Y-59615267D01*
X45402369Y-59426821D01*
X45380715Y-59326347D01*
X45353649Y-59200762D01*
X45353610Y-59200666D01*
X45317843Y-59111655D01*
X45267426Y-58986187D01*
X45266313Y-58984380D01*
X45179977Y-58844161D01*
X45146179Y-58789270D01*
X45100270Y-58737107D01*
X44993398Y-58615675D01*
X44965976Y-58593534D01*
X44925542Y-58535177D01*
X44923076Y-58464223D01*
X44959363Y-58403200D01*
X44978979Y-58388265D01*
X45123652Y-58299030D01*
X45249030Y-58173652D01*
X45342115Y-58022738D01*
X45367918Y-57944865D01*
X45408332Y-57886496D01*
X45473889Y-57859240D01*
X45487523Y-57858500D01*
X45635559Y-57858500D01*
X45653819Y-57859830D01*
X45658715Y-57860547D01*
X45677789Y-57863341D01*
X45711146Y-57860422D01*
X45730385Y-57858740D01*
X45735878Y-57858500D01*
X45744176Y-57858500D01*
X45744180Y-57858500D01*
X45770512Y-57855421D01*
X45777096Y-57854652D01*
X45783861Y-57854060D01*
X45854426Y-57847887D01*
X45854432Y-57847884D01*
X45861618Y-57846402D01*
X45861631Y-57846468D01*
X45868987Y-57844836D01*
X45868972Y-57844771D01*
X45876104Y-57843079D01*
X45876113Y-57843079D01*
X45949065Y-57816526D01*
X46022738Y-57792114D01*
X46022740Y-57792112D01*
X46029389Y-57789012D01*
X46029418Y-57789074D01*
X46036203Y-57785789D01*
X46036173Y-57785729D01*
X46042728Y-57782436D01*
X46042732Y-57782435D01*
X46107605Y-57739766D01*
X46173651Y-57699030D01*
X46173660Y-57699020D01*
X46179408Y-57694477D01*
X46179450Y-57694531D01*
X46185289Y-57689775D01*
X46185246Y-57689723D01*
X46190865Y-57685006D01*
X46190874Y-57685001D01*
X46244163Y-57628517D01*
X47175206Y-56697474D01*
X48110905Y-55761776D01*
X48173217Y-55727750D01*
X48244032Y-55732815D01*
G37*
%TD.AperFunction*%
%TA.AperFunction,Conductor*%
G36*
X41984526Y-47303502D02*
G01*
X42031019Y-47357158D01*
X42041123Y-47427432D01*
X42011629Y-47492012D01*
X42005503Y-47498592D01*
X41731446Y-47772649D01*
X40411333Y-49092760D01*
X40398901Y-49102721D01*
X40399089Y-49102948D01*
X40392980Y-49108001D01*
X40345016Y-49159078D01*
X40323866Y-49180227D01*
X40319560Y-49185777D01*
X40315714Y-49190279D01*
X40283417Y-49224674D01*
X40283411Y-49224683D01*
X40273651Y-49242435D01*
X40262803Y-49258950D01*
X40250386Y-49274958D01*
X40231645Y-49318264D01*
X40229034Y-49323594D01*
X40206305Y-49364939D01*
X40206303Y-49364944D01*
X40201267Y-49384559D01*
X40194864Y-49403262D01*
X40186819Y-49421852D01*
X40179437Y-49468456D01*
X40178233Y-49474268D01*
X40166500Y-49519968D01*
X40166500Y-49540223D01*
X40164949Y-49559933D01*
X40161780Y-49579942D01*
X40161780Y-49579943D01*
X40166220Y-49626917D01*
X40166500Y-49632850D01*
X40166500Y-50936404D01*
X40146498Y-51004525D01*
X40092842Y-51051018D01*
X40022568Y-51061122D01*
X39957988Y-51031628D01*
X39951405Y-51025500D01*
X39896305Y-50970400D01*
X39839242Y-50913337D01*
X39809410Y-50865859D01*
X39807935Y-50861645D01*
X39752709Y-50703817D01*
X39661771Y-50559091D01*
X39661769Y-50559089D01*
X39661768Y-50559087D01*
X39540912Y-50438231D01*
X39396182Y-50347290D01*
X39274165Y-50304595D01*
X39234850Y-50290838D01*
X39234848Y-50290837D01*
X39234850Y-50290837D01*
X39065000Y-50271701D01*
X38895151Y-50290837D01*
X38733817Y-50347290D01*
X38589087Y-50438231D01*
X38468231Y-50559087D01*
X38377290Y-50703817D01*
X38320837Y-50865151D01*
X38301701Y-51034999D01*
X38320837Y-51204848D01*
X38377290Y-51366182D01*
X38468231Y-51510912D01*
X38589087Y-51631768D01*
X38589089Y-51631769D01*
X38589091Y-51631771D01*
X38733817Y-51722709D01*
X38895150Y-51779162D01*
X38895151Y-51779162D01*
X38895860Y-51779410D01*
X38943340Y-51809244D01*
X39678595Y-52544499D01*
X39712621Y-52606811D01*
X39715500Y-52633594D01*
X39715500Y-61472146D01*
X39713751Y-61487988D01*
X39714044Y-61488016D01*
X39713298Y-61495907D01*
X39715500Y-61565951D01*
X39715500Y-61595851D01*
X39715501Y-61595872D01*
X39716378Y-61602820D01*
X39716844Y-61608732D01*
X39718326Y-61655888D01*
X39718327Y-61655893D01*
X39723977Y-61675339D01*
X39727986Y-61694697D01*
X39730525Y-61714793D01*
X39730526Y-61714799D01*
X39747893Y-61758662D01*
X39749816Y-61764279D01*
X39762982Y-61809593D01*
X39773294Y-61827031D01*
X39781988Y-61844779D01*
X39789444Y-61863609D01*
X39789450Y-61863620D01*
X39817177Y-61901783D01*
X39820437Y-61906746D01*
X39844460Y-61947365D01*
X39858779Y-61961684D01*
X39871617Y-61976714D01*
X39872017Y-61977264D01*
X39883528Y-61993107D01*
X39896356Y-62003719D01*
X39919886Y-62023185D01*
X39924267Y-62027171D01*
X40132655Y-62235559D01*
X40303999Y-62406903D01*
X40338025Y-62469215D01*
X40332960Y-62540030D01*
X40290413Y-62596866D01*
X40223893Y-62621677D01*
X40198459Y-62620920D01*
X40189917Y-62619795D01*
X40164885Y-62616500D01*
X40164883Y-62616500D01*
X39885116Y-62616500D01*
X39885107Y-62616501D01*
X39766146Y-62632162D01*
X39766144Y-62632163D01*
X39748213Y-62639590D01*
X39677623Y-62647177D01*
X39651784Y-62639590D01*
X39633850Y-62632162D01*
X39633842Y-62632161D01*
X39514885Y-62616500D01*
X39514882Y-62616500D01*
X39235116Y-62616500D01*
X39235107Y-62616501D01*
X39116146Y-62632162D01*
X39116144Y-62632163D01*
X39098213Y-62639590D01*
X39027623Y-62647177D01*
X39001784Y-62639590D01*
X38983850Y-62632162D01*
X38983842Y-62632161D01*
X38864885Y-62616500D01*
X38864882Y-62616500D01*
X38585116Y-62616500D01*
X38585107Y-62616501D01*
X38478046Y-62630595D01*
X38466150Y-62632162D01*
X38318121Y-62693477D01*
X38191012Y-62791013D01*
X38174961Y-62811931D01*
X38117622Y-62853797D01*
X38046751Y-62858017D01*
X37984849Y-62823252D01*
X37975039Y-62811931D01*
X37958987Y-62791013D01*
X37831878Y-62693477D01*
X37814662Y-62686346D01*
X37720100Y-62647177D01*
X37683848Y-62632161D01*
X37564886Y-62616500D01*
X37303871Y-62616500D01*
X37235750Y-62596498D01*
X37214776Y-62579595D01*
X36657905Y-62022724D01*
X36623879Y-61960412D01*
X36621000Y-61933629D01*
X36621000Y-59976662D01*
X36641002Y-59908541D01*
X36668857Y-59877820D01*
X36673642Y-59874035D01*
X36673652Y-59874030D01*
X36799030Y-59748652D01*
X36892115Y-59597738D01*
X36916129Y-59525266D01*
X36956542Y-59466896D01*
X37022098Y-59439640D01*
X37091983Y-59452153D01*
X37144009Y-59500462D01*
X37151503Y-59516100D01*
X37153100Y-59519023D01*
X37239952Y-59635047D01*
X37355976Y-59721899D01*
X37355975Y-59721899D01*
X37491761Y-59772546D01*
X37491769Y-59772548D01*
X37551785Y-59778999D01*
X37683500Y-59778999D01*
X37683500Y-59054000D01*
X38191500Y-59054000D01*
X38191500Y-59778999D01*
X38323203Y-59778999D01*
X38323226Y-59778997D01*
X38383232Y-59772547D01*
X38383234Y-59772547D01*
X38519023Y-59721899D01*
X38635047Y-59635047D01*
X38721899Y-59519023D01*
X38772546Y-59383238D01*
X38772548Y-59383230D01*
X38778999Y-59323222D01*
X38779000Y-59323205D01*
X38779000Y-59054000D01*
X38191500Y-59054000D01*
X37683500Y-59054000D01*
X37683500Y-57821000D01*
X38191500Y-57821000D01*
X38191500Y-58546000D01*
X38778999Y-58546000D01*
X38778999Y-58276797D01*
X38778997Y-58276773D01*
X38772547Y-58216767D01*
X38772547Y-58216765D01*
X38721899Y-58080976D01*
X38635047Y-57964952D01*
X38519023Y-57878100D01*
X38519024Y-57878100D01*
X38383238Y-57827453D01*
X38383230Y-57827451D01*
X38323222Y-57821000D01*
X38191500Y-57821000D01*
X37683500Y-57821000D01*
X37551797Y-57821000D01*
X37551773Y-57821002D01*
X37491767Y-57827452D01*
X37491765Y-57827452D01*
X37355976Y-57878100D01*
X37239952Y-57964952D01*
X37153100Y-58080976D01*
X37148783Y-58088883D01*
X37147155Y-58087994D01*
X37111238Y-58135970D01*
X37044716Y-58160778D01*
X36975343Y-58145684D01*
X36925143Y-58095480D01*
X36916128Y-58074731D01*
X36892115Y-58002262D01*
X36799030Y-57851348D01*
X36673652Y-57725970D01*
X36673649Y-57725968D01*
X36668846Y-57722170D01*
X36627819Y-57664227D01*
X36621000Y-57623337D01*
X36621000Y-56926935D01*
X36622331Y-56908672D01*
X36625840Y-56884716D01*
X36625841Y-56884711D01*
X36623382Y-56856605D01*
X36621240Y-56832113D01*
X36621000Y-56826620D01*
X36621000Y-56818324D01*
X36620349Y-56812758D01*
X36617152Y-56785405D01*
X36610387Y-56708073D01*
X36610386Y-56708070D01*
X36610386Y-56708068D01*
X36608903Y-56700887D01*
X36608969Y-56700873D01*
X36607339Y-56693519D01*
X36607273Y-56693535D01*
X36605578Y-56686383D01*
X36579028Y-56613438D01*
X36565843Y-56573650D01*
X36554614Y-56539762D01*
X36554613Y-56539761D01*
X36554612Y-56539756D01*
X36551514Y-56533114D01*
X36551575Y-56533085D01*
X36548288Y-56526295D01*
X36548228Y-56526326D01*
X36544933Y-56519765D01*
X36502266Y-56454894D01*
X36461531Y-56388851D01*
X36461530Y-56388849D01*
X36461527Y-56388846D01*
X36456978Y-56383092D01*
X36457031Y-56383049D01*
X36452266Y-56377200D01*
X36452215Y-56377244D01*
X36447498Y-56371622D01*
X36391018Y-56318337D01*
X36315116Y-56242435D01*
X36220123Y-56147442D01*
X36189387Y-56097285D01*
X36176519Y-56057683D01*
X36134527Y-55928444D01*
X36039040Y-55763056D01*
X36039038Y-55763054D01*
X36039034Y-55763048D01*
X35911255Y-55621135D01*
X35756752Y-55508882D01*
X35738530Y-55500769D01*
X35582288Y-55431206D01*
X35582287Y-55431205D01*
X35582283Y-55431204D01*
X35434471Y-55399785D01*
X35371997Y-55366057D01*
X35337676Y-55303907D01*
X35335227Y-55288393D01*
X35333780Y-55273078D01*
X35333500Y-55267147D01*
X35333500Y-49940999D01*
X35353502Y-49872878D01*
X35407158Y-49826385D01*
X35459500Y-49814999D01*
X35489884Y-49814999D01*
X35489892Y-49814998D01*
X35531443Y-49809528D01*
X35608850Y-49799338D01*
X35626780Y-49791910D01*
X35697366Y-49784319D01*
X35723213Y-49791908D01*
X35741150Y-49799338D01*
X35860115Y-49815000D01*
X36139884Y-49814999D01*
X36258850Y-49799338D01*
X36276780Y-49791910D01*
X36347366Y-49784319D01*
X36373213Y-49791908D01*
X36391150Y-49799338D01*
X36510115Y-49815000D01*
X36789884Y-49814999D01*
X36908850Y-49799338D01*
X36926780Y-49791910D01*
X36997366Y-49784319D01*
X37023213Y-49791908D01*
X37041150Y-49799338D01*
X37160115Y-49815000D01*
X37439884Y-49814999D01*
X37558850Y-49799338D01*
X37576780Y-49791910D01*
X37647366Y-49784319D01*
X37673213Y-49791908D01*
X37691150Y-49799338D01*
X37810115Y-49815000D01*
X38089884Y-49814999D01*
X38208850Y-49799338D01*
X38356876Y-49738024D01*
X38483987Y-49640487D01*
X38567348Y-49531849D01*
X38574038Y-49523132D01*
X38631376Y-49481265D01*
X38702247Y-49477044D01*
X38764150Y-49511809D01*
X38772001Y-49526603D01*
X38800000Y-49550824D01*
X38802408Y-49550474D01*
X38908545Y-49498586D01*
X38908547Y-49498585D01*
X38992085Y-49415047D01*
X38992086Y-49415045D01*
X39043973Y-49308908D01*
X39043974Y-49308906D01*
X39053999Y-49240099D01*
X39054000Y-49240091D01*
X39054000Y-48769000D01*
X38784500Y-48769000D01*
X38716379Y-48748998D01*
X38669886Y-48695342D01*
X38658500Y-48643001D01*
X38658499Y-48495001D01*
X38678501Y-48426880D01*
X38732156Y-48380387D01*
X38784499Y-48369000D01*
X39054000Y-48369000D01*
X39054000Y-47897908D01*
X39053999Y-47897900D01*
X39043974Y-47829093D01*
X39043973Y-47829091D01*
X38992086Y-47722954D01*
X38992085Y-47722952D01*
X38908547Y-47639414D01*
X38908543Y-47639411D01*
X38802412Y-47587527D01*
X38802403Y-47587524D01*
X38800000Y-47587174D01*
X38780711Y-47603853D01*
X38779998Y-47606283D01*
X38726342Y-47652776D01*
X38656068Y-47662880D01*
X38591488Y-47633386D01*
X38574038Y-47614867D01*
X38478960Y-47490962D01*
X38480328Y-47489911D01*
X38451044Y-47436283D01*
X38456109Y-47365468D01*
X38498656Y-47308632D01*
X38565176Y-47283821D01*
X38574165Y-47283500D01*
X41916405Y-47283500D01*
X41984526Y-47303502D01*
G37*
%TD.AperFunction*%
%TA.AperFunction,Conductor*%
G36*
X44414512Y-50928502D02*
G01*
X44461005Y-50982158D01*
X44461206Y-50982600D01*
X44486300Y-51038113D01*
X44509722Y-51089929D01*
X44639217Y-51281523D01*
X44791947Y-51440879D01*
X44799230Y-51448478D01*
X44985154Y-51585986D01*
X45052841Y-51620112D01*
X45191643Y-51690095D01*
X45412757Y-51757811D01*
X45642135Y-51787184D01*
X45873178Y-51777369D01*
X46099238Y-51728649D01*
X46313813Y-51642426D01*
X46510730Y-51521179D01*
X46684324Y-51368398D01*
X46706464Y-51340977D01*
X46764818Y-51300542D01*
X46835771Y-51298074D01*
X46896796Y-51334358D01*
X46911735Y-51353981D01*
X46993315Y-51486241D01*
X47000970Y-51498652D01*
X47000975Y-51498658D01*
X47126341Y-51624024D01*
X47126347Y-51624029D01*
X47126348Y-51624030D01*
X47277262Y-51717115D01*
X47355132Y-51742918D01*
X47413503Y-51783330D01*
X47440760Y-51848886D01*
X47441500Y-51862522D01*
X47441500Y-52573559D01*
X47440170Y-52591819D01*
X47436659Y-52615786D01*
X47436659Y-52615794D01*
X47441260Y-52668372D01*
X47441500Y-52673866D01*
X47441500Y-54233628D01*
X47421498Y-54301749D01*
X47404595Y-54322723D01*
X45534123Y-56193194D01*
X45471811Y-56227220D01*
X45400995Y-56222155D01*
X45344160Y-56179608D01*
X45337787Y-56170246D01*
X45330899Y-56159079D01*
X45249030Y-56026348D01*
X45249029Y-56026347D01*
X45249024Y-56026341D01*
X45123658Y-55900975D01*
X45123652Y-55900970D01*
X45059896Y-55861645D01*
X44972738Y-55807885D01*
X44869020Y-55773517D01*
X44804427Y-55752113D01*
X44804420Y-55752112D01*
X44700553Y-55741500D01*
X43099455Y-55741500D01*
X42995574Y-55752112D01*
X42827261Y-55807885D01*
X42676347Y-55900970D01*
X42676341Y-55900975D01*
X42548595Y-56028722D01*
X42486283Y-56062748D01*
X42415468Y-56057683D01*
X42358632Y-56015136D01*
X42333821Y-55948616D01*
X42333500Y-55939627D01*
X42333500Y-52136015D01*
X42353502Y-52067894D01*
X42407158Y-52021401D01*
X42477432Y-52011297D01*
X42533560Y-52034079D01*
X42543248Y-52041118D01*
X42717712Y-52118794D01*
X42904513Y-52158500D01*
X43095487Y-52158500D01*
X43282288Y-52118794D01*
X43456752Y-52041118D01*
X43611253Y-51928866D01*
X43611651Y-51928424D01*
X43739034Y-51786951D01*
X43739035Y-51786949D01*
X43739040Y-51786944D01*
X43834527Y-51621556D01*
X43893542Y-51439928D01*
X43910907Y-51274706D01*
X43937920Y-51209050D01*
X43947122Y-51198781D01*
X44200500Y-50945404D01*
X44262812Y-50911379D01*
X44289595Y-50908500D01*
X44346391Y-50908500D01*
X44414512Y-50928502D01*
G37*
%TD.AperFunction*%
%TA.AperFunction,Conductor*%
G36*
X47224348Y-48653502D02*
G01*
X47270841Y-48707158D01*
X47280945Y-48777432D01*
X47251451Y-48842012D01*
X47222376Y-48866738D01*
X47206691Y-48876414D01*
X47126347Y-48925970D01*
X47126341Y-48925975D01*
X47000975Y-49051341D01*
X47000968Y-49051349D01*
X46910940Y-49197307D01*
X46858154Y-49244784D01*
X46788079Y-49256187D01*
X46722964Y-49227894D01*
X46712738Y-49218348D01*
X46600772Y-49101524D01*
X46600771Y-49101523D01*
X46600769Y-49101521D01*
X46414845Y-48964013D01*
X46258433Y-48885153D01*
X46232361Y-48872008D01*
X46180541Y-48823480D01*
X46163182Y-48754639D01*
X46185797Y-48687340D01*
X46241207Y-48642952D01*
X46289088Y-48633500D01*
X47156227Y-48633500D01*
X47224348Y-48653502D01*
G37*
%TD.AperFunction*%
%TA.AperFunction,Conductor*%
G36*
X59391750Y-40148502D02*
G01*
X59412724Y-40165405D01*
X60672595Y-41425276D01*
X60706621Y-41487588D01*
X60709500Y-41514371D01*
X60709500Y-43203559D01*
X60708170Y-43221819D01*
X60704659Y-43245789D01*
X60708789Y-43292998D01*
X60709260Y-43298372D01*
X60709500Y-43303866D01*
X60709500Y-43312182D01*
X60713347Y-43345094D01*
X60720112Y-43422419D01*
X60721596Y-43429606D01*
X60721531Y-43429619D01*
X60723165Y-43436989D01*
X60723229Y-43436975D01*
X60724921Y-43444116D01*
X60751473Y-43517064D01*
X60775885Y-43590736D01*
X60778987Y-43597388D01*
X60778926Y-43597416D01*
X60782211Y-43604202D01*
X60782270Y-43604173D01*
X60785560Y-43610724D01*
X60785564Y-43610731D01*
X60785565Y-43610732D01*
X60805044Y-43640348D01*
X60828233Y-43675605D01*
X60868967Y-43741648D01*
X60873522Y-43747408D01*
X60873468Y-43747450D01*
X60878228Y-43753292D01*
X60878279Y-43753250D01*
X60882993Y-43758868D01*
X60882998Y-43758873D01*
X60882999Y-43758874D01*
X60929908Y-43803130D01*
X60939482Y-43812163D01*
X63811575Y-46684256D01*
X63845601Y-46746568D01*
X63843076Y-46807483D01*
X63843315Y-46807535D01*
X63843017Y-46808915D01*
X63842963Y-46810227D01*
X63842190Y-46812751D01*
X63842186Y-46812767D01*
X63825573Y-46942504D01*
X63797081Y-47007532D01*
X63737954Y-47046833D01*
X63666966Y-47047929D01*
X63611499Y-47015594D01*
X61377244Y-44781339D01*
X61367279Y-44768901D01*
X61367052Y-44769090D01*
X61362001Y-44762984D01*
X61362000Y-44762982D01*
X61310921Y-44715016D01*
X61302932Y-44707027D01*
X61289777Y-44693871D01*
X61289772Y-44693866D01*
X61284225Y-44689563D01*
X61279717Y-44685712D01*
X61245325Y-44653417D01*
X61245319Y-44653413D01*
X61227563Y-44643651D01*
X61211047Y-44632802D01*
X61195041Y-44620386D01*
X61164289Y-44607078D01*
X61151740Y-44601648D01*
X61146408Y-44599036D01*
X61105061Y-44576305D01*
X61085436Y-44571266D01*
X61066736Y-44564864D01*
X61060695Y-44562250D01*
X61048145Y-44556819D01*
X61048143Y-44556818D01*
X61048142Y-44556818D01*
X61001542Y-44549437D01*
X60995729Y-44548233D01*
X60950030Y-44536500D01*
X60929776Y-44536500D01*
X60910066Y-44534949D01*
X60890057Y-44531780D01*
X60890056Y-44531780D01*
X60843083Y-44536220D01*
X60837150Y-44536500D01*
X56643570Y-44536500D01*
X56575449Y-44516498D01*
X56528956Y-44462842D01*
X56518852Y-44392568D01*
X56548346Y-44327988D01*
X56577503Y-44303210D01*
X56710730Y-44221179D01*
X56884324Y-44068398D01*
X57029600Y-43888476D01*
X57072714Y-43811297D01*
X57123396Y-43761584D01*
X57192912Y-43747163D01*
X57259190Y-43772614D01*
X57300767Y-43828716D01*
X57353100Y-43969023D01*
X57439952Y-44085047D01*
X57555976Y-44171899D01*
X57555975Y-44171899D01*
X57691761Y-44222546D01*
X57691769Y-44222548D01*
X57751785Y-44228999D01*
X58146000Y-44228999D01*
X58146000Y-43406191D01*
X58264801Y-43460446D01*
X58366025Y-43475000D01*
X58433975Y-43475000D01*
X58535199Y-43460446D01*
X58654000Y-43406191D01*
X58654000Y-44228999D01*
X59048203Y-44228999D01*
X59048226Y-44228997D01*
X59108232Y-44222547D01*
X59108234Y-44222547D01*
X59244023Y-44171899D01*
X59360047Y-44085047D01*
X59446899Y-43969023D01*
X59497546Y-43833238D01*
X59497548Y-43833230D01*
X59503999Y-43773222D01*
X59504000Y-43773205D01*
X59504000Y-43254000D01*
X58801398Y-43254000D01*
X58836519Y-43199351D01*
X58875000Y-43068295D01*
X58875000Y-42931705D01*
X58836519Y-42800649D01*
X58801398Y-42746000D01*
X59503999Y-42746000D01*
X59503998Y-42226797D01*
X59503997Y-42226773D01*
X59497547Y-42166767D01*
X59497547Y-42166765D01*
X59446899Y-42030976D01*
X59360047Y-41914952D01*
X59244023Y-41828100D01*
X59244024Y-41828100D01*
X59108238Y-41777453D01*
X59108230Y-41777451D01*
X59048222Y-41771000D01*
X58654000Y-41771000D01*
X58654000Y-42593808D01*
X58535199Y-42539554D01*
X58433975Y-42525000D01*
X58366025Y-42525000D01*
X58264801Y-42539554D01*
X58146000Y-42593808D01*
X58146000Y-41771000D01*
X57751797Y-41771000D01*
X57751773Y-41771002D01*
X57691767Y-41777452D01*
X57691765Y-41777452D01*
X57555976Y-41828100D01*
X57439952Y-41914952D01*
X57353101Y-42030975D01*
X57302071Y-42167786D01*
X57259524Y-42224621D01*
X57193003Y-42249431D01*
X57123629Y-42234339D01*
X57079625Y-42194310D01*
X56960783Y-42018477D01*
X56800772Y-41851524D01*
X56800768Y-41851521D01*
X56800764Y-41851517D01*
X56759575Y-41821053D01*
X56716701Y-41764464D01*
X56708500Y-41719751D01*
X56708500Y-41317371D01*
X56728502Y-41249250D01*
X56745405Y-41228276D01*
X57808276Y-40165405D01*
X57870588Y-40131379D01*
X57897371Y-40128500D01*
X59323629Y-40128500D01*
X59391750Y-40148502D01*
G37*
%TD.AperFunction*%
%TA.AperFunction,Conductor*%
G36*
X64227922Y-37078580D02*
G01*
X64255838Y-37108160D01*
X64271054Y-37130672D01*
X64339217Y-37231523D01*
X64485316Y-37383960D01*
X64499230Y-37398478D01*
X64685154Y-37535986D01*
X64734702Y-37560967D01*
X64891643Y-37640095D01*
X65112757Y-37707811D01*
X65342135Y-37737184D01*
X65573178Y-37727369D01*
X65696539Y-37700782D01*
X65767342Y-37705983D01*
X65812178Y-37734859D01*
X69970092Y-41892773D01*
X69982065Y-41906627D01*
X69996530Y-41926057D01*
X70036975Y-41959994D01*
X70041021Y-41963702D01*
X70046899Y-41969580D01*
X70072896Y-41990136D01*
X70132360Y-42040032D01*
X70132366Y-42040035D01*
X70138495Y-42044067D01*
X70138457Y-42044123D01*
X70144811Y-42048171D01*
X70144847Y-42048114D01*
X70151089Y-42051964D01*
X70151091Y-42051965D01*
X70151094Y-42051967D01*
X70221447Y-42084773D01*
X70290812Y-42119609D01*
X70290814Y-42119609D01*
X70297713Y-42122121D01*
X70297689Y-42122184D01*
X70304806Y-42124658D01*
X70304828Y-42124594D01*
X70311792Y-42126902D01*
X70387818Y-42142599D01*
X70463343Y-42160500D01*
X70470632Y-42161352D01*
X70470624Y-42161418D01*
X70478122Y-42162184D01*
X70478128Y-42162118D01*
X70485435Y-42162756D01*
X70485442Y-42162758D01*
X70563045Y-42160500D01*
X72023629Y-42160500D01*
X72091750Y-42180502D01*
X72112724Y-42197405D01*
X73118595Y-43203276D01*
X73152621Y-43265588D01*
X73155500Y-43292371D01*
X73155500Y-45861627D01*
X73135498Y-45929748D01*
X73118596Y-45950722D01*
X72764724Y-46304595D01*
X72702411Y-46338620D01*
X72675628Y-46341500D01*
X72373336Y-46341500D01*
X72305215Y-46321498D01*
X72274908Y-46293117D01*
X72274715Y-46293288D01*
X72272950Y-46291283D01*
X72272033Y-46290424D01*
X72271183Y-46289275D01*
X72232511Y-46245335D01*
X72118398Y-46115676D01*
X72085796Y-46089352D01*
X71938479Y-45970402D01*
X71938477Y-45970401D01*
X71938476Y-45970400D01*
X71861297Y-45927285D01*
X71811584Y-45876602D01*
X71797163Y-45807086D01*
X71822614Y-45740808D01*
X71878716Y-45699231D01*
X72019026Y-45646897D01*
X72135047Y-45560047D01*
X72221899Y-45444023D01*
X72272546Y-45308238D01*
X72272548Y-45308230D01*
X72278999Y-45248222D01*
X72279000Y-45248205D01*
X72279000Y-44854000D01*
X71451398Y-44854000D01*
X71486519Y-44799351D01*
X71525000Y-44668295D01*
X71525000Y-44531705D01*
X71486519Y-44400649D01*
X71451398Y-44346000D01*
X72278999Y-44346000D01*
X72278999Y-43951797D01*
X72278997Y-43951773D01*
X72272547Y-43891767D01*
X72272547Y-43891765D01*
X72221899Y-43755976D01*
X72135047Y-43639952D01*
X72019023Y-43553100D01*
X72019024Y-43553100D01*
X71883238Y-43502453D01*
X71883230Y-43502451D01*
X71823222Y-43496000D01*
X71304000Y-43496000D01*
X71304000Y-44193808D01*
X71185199Y-44139554D01*
X71083975Y-44125000D01*
X71016025Y-44125000D01*
X70914801Y-44139554D01*
X70796000Y-44193808D01*
X70796000Y-43496000D01*
X70276797Y-43496000D01*
X70276773Y-43496002D01*
X70216767Y-43502452D01*
X70216765Y-43502452D01*
X70080976Y-43553100D01*
X69964952Y-43639952D01*
X69878100Y-43755976D01*
X69827453Y-43891761D01*
X69827451Y-43891769D01*
X69821000Y-43951777D01*
X69821000Y-44346000D01*
X70648602Y-44346000D01*
X70613481Y-44400649D01*
X70575000Y-44531705D01*
X70575000Y-44668295D01*
X70613481Y-44799351D01*
X70648602Y-44854000D01*
X69821001Y-44854000D01*
X69821001Y-45248202D01*
X69821002Y-45248226D01*
X69827452Y-45308232D01*
X69827452Y-45308234D01*
X69878100Y-45444023D01*
X69964952Y-45560047D01*
X70080975Y-45646898D01*
X70217786Y-45697928D01*
X70274621Y-45740475D01*
X70299431Y-45806995D01*
X70284339Y-45876369D01*
X70244309Y-45920375D01*
X70068478Y-46039216D01*
X70068477Y-46039217D01*
X69901521Y-46199231D01*
X69901520Y-46199232D01*
X69834075Y-46290424D01*
X69777487Y-46333299D01*
X69732772Y-46341500D01*
X66623336Y-46341500D01*
X66555215Y-46321498D01*
X66524908Y-46293117D01*
X66524715Y-46293288D01*
X66522950Y-46291283D01*
X66522033Y-46290424D01*
X66521183Y-46289275D01*
X66482511Y-46245335D01*
X66368398Y-46115676D01*
X66335796Y-46089352D01*
X66188479Y-45970402D01*
X66188477Y-45970401D01*
X66188476Y-45970400D01*
X66111297Y-45927285D01*
X66061584Y-45876602D01*
X66047163Y-45807086D01*
X66072614Y-45740808D01*
X66128716Y-45699231D01*
X66269026Y-45646897D01*
X66385047Y-45560047D01*
X66471899Y-45444023D01*
X66522546Y-45308238D01*
X66522548Y-45308230D01*
X66528999Y-45248222D01*
X66529000Y-45248205D01*
X66529000Y-44854000D01*
X65701398Y-44854000D01*
X65736519Y-44799351D01*
X65775000Y-44668295D01*
X65775000Y-44531705D01*
X65736519Y-44400649D01*
X65701398Y-44346000D01*
X66528999Y-44346000D01*
X66528998Y-43951797D01*
X66528997Y-43951773D01*
X66522547Y-43891767D01*
X66522547Y-43891765D01*
X66471899Y-43755976D01*
X66385046Y-43639952D01*
X66331097Y-43599567D01*
X66288550Y-43542731D01*
X66283484Y-43471915D01*
X66317509Y-43409603D01*
X66339569Y-43392011D01*
X66360352Y-43378952D01*
X66451598Y-43321618D01*
X66572460Y-43200756D01*
X66663398Y-43056030D01*
X66719851Y-42894697D01*
X66738988Y-42724847D01*
X66719851Y-42554997D01*
X66663398Y-42393664D01*
X66663397Y-42393663D01*
X66663398Y-42393663D01*
X66649886Y-42372160D01*
X66628501Y-42338126D01*
X66609188Y-42271094D01*
X66609188Y-41547153D01*
X66610938Y-41531310D01*
X66610644Y-41531283D01*
X66611389Y-41523393D01*
X66611391Y-41523385D01*
X66609189Y-41453321D01*
X66609189Y-41423437D01*
X66608309Y-41416475D01*
X66607845Y-41410586D01*
X66606363Y-41363404D01*
X66600709Y-41343945D01*
X66596701Y-41324590D01*
X66594163Y-41304496D01*
X66576792Y-41260622D01*
X66574878Y-41255033D01*
X66561708Y-41209700D01*
X66551392Y-41192257D01*
X66542694Y-41174502D01*
X66535241Y-41155676D01*
X66510719Y-41121924D01*
X66507507Y-41117503D01*
X66504247Y-41112540D01*
X66499090Y-41103820D01*
X66480231Y-41071931D01*
X66465903Y-41057603D01*
X66453073Y-41042582D01*
X66441161Y-41026186D01*
X66441158Y-41026184D01*
X66441158Y-41026183D01*
X66404796Y-40996101D01*
X66400415Y-40992115D01*
X63929640Y-38521339D01*
X63919675Y-38508901D01*
X63919448Y-38509090D01*
X63914397Y-38502984D01*
X63914396Y-38502982D01*
X63863317Y-38455016D01*
X63856599Y-38448298D01*
X63842173Y-38433871D01*
X63842168Y-38433866D01*
X63836621Y-38429563D01*
X63832113Y-38425712D01*
X63797721Y-38393417D01*
X63797715Y-38393413D01*
X63779959Y-38383651D01*
X63763443Y-38372802D01*
X63747437Y-38360386D01*
X63716685Y-38347078D01*
X63704136Y-38341648D01*
X63698804Y-38339036D01*
X63657457Y-38316305D01*
X63637832Y-38311266D01*
X63619132Y-38304864D01*
X63600541Y-38296819D01*
X63600539Y-38296818D01*
X63600538Y-38296818D01*
X63553938Y-38289437D01*
X63548125Y-38288233D01*
X63502426Y-38276500D01*
X63482172Y-38276500D01*
X63462462Y-38274949D01*
X63442453Y-38271780D01*
X63442452Y-38271780D01*
X63395479Y-38276220D01*
X63389546Y-38276500D01*
X62693756Y-38276500D01*
X62626720Y-38257187D01*
X62594885Y-38237184D01*
X62571182Y-38222290D01*
X62471270Y-38187330D01*
X62409850Y-38165838D01*
X62409848Y-38165837D01*
X62409850Y-38165837D01*
X62240000Y-38146701D01*
X62070151Y-38165837D01*
X61908817Y-38222290D01*
X61764087Y-38313231D01*
X61643231Y-38434087D01*
X61552290Y-38578817D01*
X61495837Y-38740151D01*
X61481729Y-38865375D01*
X61476701Y-38910000D01*
X61479130Y-38931565D01*
X61495837Y-39079848D01*
X61552290Y-39241182D01*
X61603429Y-39322568D01*
X61639444Y-39379886D01*
X61643231Y-39385912D01*
X61764087Y-39506768D01*
X61764089Y-39506769D01*
X61764091Y-39506771D01*
X61908817Y-39597709D01*
X62070150Y-39654162D01*
X62070149Y-39654162D01*
X62087348Y-39656099D01*
X62240000Y-39673299D01*
X62409850Y-39654162D01*
X62571183Y-39597709D01*
X62626720Y-39562812D01*
X62693756Y-39543500D01*
X63107802Y-39543500D01*
X63175923Y-39563502D01*
X63196897Y-39580405D01*
X65305284Y-41688792D01*
X65339310Y-41751104D01*
X65342189Y-41777887D01*
X65342189Y-42271091D01*
X65322876Y-42338128D01*
X65287979Y-42393664D01*
X65231526Y-42554998D01*
X65212390Y-42724847D01*
X65231526Y-42894695D01*
X65287979Y-43056029D01*
X65329028Y-43121357D01*
X65370274Y-43187000D01*
X65378920Y-43200759D01*
X65499775Y-43321614D01*
X65499781Y-43321619D01*
X65506390Y-43325772D01*
X65553426Y-43378952D01*
X65564244Y-43449119D01*
X65554000Y-43472168D01*
X65554000Y-44193808D01*
X65435199Y-44139554D01*
X65333975Y-44125000D01*
X65266025Y-44125000D01*
X65164801Y-44139554D01*
X65046000Y-44193808D01*
X65046000Y-43496000D01*
X64526797Y-43496000D01*
X64526773Y-43496002D01*
X64466767Y-43502452D01*
X64466765Y-43502452D01*
X64330976Y-43553100D01*
X64214952Y-43639952D01*
X64128100Y-43755976D01*
X64077453Y-43891761D01*
X64077451Y-43891769D01*
X64071000Y-43951777D01*
X64071000Y-44494129D01*
X64050998Y-44562250D01*
X63997342Y-44608743D01*
X63927068Y-44618847D01*
X63862488Y-44589353D01*
X63855905Y-44583224D01*
X62263405Y-42990724D01*
X62229379Y-42928412D01*
X62226500Y-42901629D01*
X62226500Y-41212441D01*
X62227830Y-41194182D01*
X62229431Y-41183248D01*
X62231341Y-41170211D01*
X62228875Y-41142027D01*
X62226740Y-41117614D01*
X62226500Y-41112121D01*
X62226500Y-41103819D01*
X62222652Y-41070905D01*
X62221784Y-41060979D01*
X62215887Y-40993574D01*
X62215885Y-40993570D01*
X62214403Y-40986388D01*
X62214469Y-40986374D01*
X62212837Y-40979012D01*
X62212772Y-40979028D01*
X62211080Y-40971890D01*
X62200350Y-40942411D01*
X62184526Y-40898934D01*
X62160114Y-40825262D01*
X62160109Y-40825255D01*
X62157012Y-40818611D01*
X62157074Y-40818581D01*
X62153788Y-40811795D01*
X62153728Y-40811826D01*
X62150433Y-40805265D01*
X62107766Y-40740394D01*
X62073224Y-40684391D01*
X62067030Y-40674349D01*
X62067027Y-40674346D01*
X62062478Y-40668592D01*
X62062531Y-40668549D01*
X62057766Y-40662700D01*
X62057715Y-40662744D01*
X62052998Y-40657122D01*
X61996518Y-40603837D01*
X60271908Y-38879227D01*
X60259936Y-38865375D01*
X60255093Y-38858870D01*
X60245469Y-38845942D01*
X60245467Y-38845940D01*
X60205024Y-38812003D01*
X60200970Y-38808289D01*
X60195107Y-38802425D01*
X60169104Y-38781864D01*
X60109636Y-38731965D01*
X60103506Y-38727933D01*
X60103541Y-38727878D01*
X60097187Y-38723829D01*
X60097153Y-38723886D01*
X60090906Y-38720033D01*
X60020540Y-38687220D01*
X59953342Y-38653473D01*
X59951188Y-38652391D01*
X59951186Y-38652390D01*
X59951183Y-38652389D01*
X59944289Y-38649880D01*
X59944311Y-38649817D01*
X59937189Y-38647341D01*
X59937169Y-38647404D01*
X59930209Y-38645097D01*
X59854150Y-38629392D01*
X59778652Y-38611499D01*
X59771367Y-38610648D01*
X59771374Y-38610580D01*
X59763877Y-38609814D01*
X59763872Y-38609881D01*
X59756559Y-38609241D01*
X59756558Y-38609241D01*
X59678920Y-38611500D01*
X57595441Y-38611500D01*
X57577181Y-38610170D01*
X57567718Y-38608784D01*
X57503215Y-38579121D01*
X57464989Y-38519294D01*
X57465176Y-38448298D01*
X57496881Y-38395021D01*
X58163380Y-37728522D01*
X58225685Y-37694500D01*
X58299238Y-37678649D01*
X58513813Y-37592426D01*
X58710730Y-37471179D01*
X58884324Y-37318398D01*
X59029600Y-37138476D01*
X59041448Y-37117266D01*
X59092127Y-37067554D01*
X59161643Y-37053130D01*
X59227922Y-37078580D01*
X59255838Y-37108160D01*
X59271054Y-37130672D01*
X59339217Y-37231523D01*
X59485316Y-37383960D01*
X59499230Y-37398478D01*
X59685154Y-37535986D01*
X59734702Y-37560967D01*
X59891643Y-37640095D01*
X60112757Y-37707811D01*
X60342135Y-37737184D01*
X60573178Y-37727369D01*
X60799238Y-37678649D01*
X61013813Y-37592426D01*
X61210730Y-37471179D01*
X61384324Y-37318398D01*
X61529600Y-37138476D01*
X61541448Y-37117266D01*
X61592127Y-37067554D01*
X61661643Y-37053130D01*
X61727922Y-37078580D01*
X61755838Y-37108160D01*
X61771054Y-37130672D01*
X61839217Y-37231523D01*
X61985316Y-37383960D01*
X61999230Y-37398478D01*
X62185154Y-37535986D01*
X62234702Y-37560967D01*
X62391643Y-37640095D01*
X62612757Y-37707811D01*
X62842135Y-37737184D01*
X63073178Y-37727369D01*
X63299238Y-37678649D01*
X63513813Y-37592426D01*
X63710730Y-37471179D01*
X63884324Y-37318398D01*
X64029600Y-37138476D01*
X64041448Y-37117266D01*
X64092127Y-37067554D01*
X64161643Y-37053130D01*
X64227922Y-37078580D01*
G37*
%TD.AperFunction*%
%TA.AperFunction,Conductor*%
G36*
X32193239Y-35081831D02*
G01*
X32250074Y-35124378D01*
X32270202Y-35164732D01*
X32274976Y-35181163D01*
X32278986Y-35200524D01*
X32281525Y-35220620D01*
X32281526Y-35220626D01*
X32298893Y-35264489D01*
X32300816Y-35270106D01*
X32313982Y-35315420D01*
X32324294Y-35332858D01*
X32332988Y-35350606D01*
X32340444Y-35369436D01*
X32340450Y-35369447D01*
X32368177Y-35407610D01*
X32371437Y-35412573D01*
X32395460Y-35453192D01*
X32409779Y-35467511D01*
X32422617Y-35482541D01*
X32432156Y-35495670D01*
X32434528Y-35498934D01*
X32447981Y-35510063D01*
X32470886Y-35529012D01*
X32475267Y-35532998D01*
X33110752Y-36168483D01*
X33723174Y-36780905D01*
X33757200Y-36843217D01*
X33752135Y-36914032D01*
X33709588Y-36970868D01*
X33643068Y-36995679D01*
X33634080Y-36996000D01*
X33526797Y-36996000D01*
X33526773Y-36996002D01*
X33466767Y-37002452D01*
X33466765Y-37002452D01*
X33330976Y-37053100D01*
X33214952Y-37139952D01*
X33128100Y-37255976D01*
X33077453Y-37391761D01*
X33077451Y-37391769D01*
X33071000Y-37451777D01*
X33071000Y-37583500D01*
X34178000Y-37583500D01*
X34246121Y-37603502D01*
X34292614Y-37657158D01*
X34304000Y-37709500D01*
X34304000Y-37965500D01*
X34283998Y-38033621D01*
X34230342Y-38080114D01*
X34178000Y-38091500D01*
X33071001Y-38091500D01*
X33071001Y-38223202D01*
X33071002Y-38223226D01*
X33077452Y-38283232D01*
X33077452Y-38283234D01*
X33128100Y-38419023D01*
X33214952Y-38535047D01*
X33330976Y-38621899D01*
X33338883Y-38626217D01*
X33337993Y-38627846D01*
X33385960Y-38663748D01*
X33410777Y-38730266D01*
X33395692Y-38799641D01*
X33345494Y-38849848D01*
X33324733Y-38858870D01*
X33252264Y-38882884D01*
X33101347Y-38975970D01*
X33101341Y-38975975D01*
X32994722Y-39082595D01*
X32932410Y-39116621D01*
X32905627Y-39119500D01*
X32546587Y-39119500D01*
X32478466Y-39099498D01*
X32472524Y-39095435D01*
X32460754Y-39086883D01*
X32423878Y-39070465D01*
X32286288Y-39009206D01*
X32099487Y-38969500D01*
X31908513Y-38969500D01*
X31721711Y-39009206D01*
X31547247Y-39086882D01*
X31392744Y-39199135D01*
X31264965Y-39341048D01*
X31264958Y-39341058D01*
X31169476Y-39506438D01*
X31169473Y-39506444D01*
X31161244Y-39531770D01*
X31110457Y-39688072D01*
X31090496Y-39877999D01*
X31110457Y-40067927D01*
X31136638Y-40148502D01*
X31169473Y-40249556D01*
X31169476Y-40249561D01*
X31264958Y-40414941D01*
X31264965Y-40414951D01*
X31392744Y-40556864D01*
X31392747Y-40556866D01*
X31547248Y-40669118D01*
X31721712Y-40746794D01*
X31908513Y-40786500D01*
X32099487Y-40786500D01*
X32286288Y-40746794D01*
X32460752Y-40669118D01*
X32472524Y-40660564D01*
X32539391Y-40636706D01*
X32546587Y-40636500D01*
X32851891Y-40636500D01*
X32920012Y-40656502D01*
X32959131Y-40696352D01*
X32966227Y-40707856D01*
X32975970Y-40723652D01*
X32975975Y-40723658D01*
X33101341Y-40849024D01*
X33101345Y-40849027D01*
X33101348Y-40849030D01*
X33226647Y-40926315D01*
X33274125Y-40979099D01*
X33286500Y-41033555D01*
X33286500Y-42880682D01*
X33301920Y-43012612D01*
X33301921Y-43012614D01*
X33333901Y-43100478D01*
X33341500Y-43143572D01*
X33341500Y-43521383D01*
X33341501Y-43521392D01*
X33352403Y-43604202D01*
X33357162Y-43640350D01*
X33411947Y-43772614D01*
X33418477Y-43788378D01*
X33440865Y-43817554D01*
X33516013Y-43915487D01*
X33585782Y-43969023D01*
X33632329Y-44004741D01*
X33643124Y-44013024D01*
X33791150Y-44074338D01*
X33910115Y-44090000D01*
X34170490Y-44089999D01*
X34238610Y-44110001D01*
X34285103Y-44163656D01*
X34295208Y-44233930D01*
X34265715Y-44298511D01*
X34244551Y-44317935D01*
X34088744Y-44431135D01*
X33956541Y-44577963D01*
X33954546Y-44576167D01*
X33907741Y-44612232D01*
X33837002Y-44618281D01*
X33774223Y-44585126D01*
X33768432Y-44579107D01*
X33761254Y-44571134D01*
X33606752Y-44458882D01*
X33432288Y-44381206D01*
X33245487Y-44341500D01*
X33189594Y-44341500D01*
X33121473Y-44321498D01*
X33100499Y-44304595D01*
X29907244Y-41111339D01*
X29897279Y-41098901D01*
X29897052Y-41099090D01*
X29892001Y-41092984D01*
X29892000Y-41092982D01*
X29874581Y-41076625D01*
X29840921Y-41045016D01*
X29819777Y-41023871D01*
X29819772Y-41023866D01*
X29814225Y-41019563D01*
X29809717Y-41015712D01*
X29775325Y-40983417D01*
X29775319Y-40983413D01*
X29757563Y-40973651D01*
X29741047Y-40962802D01*
X29725041Y-40950386D01*
X29683669Y-40932483D01*
X29681740Y-40931648D01*
X29676408Y-40929036D01*
X29635061Y-40906305D01*
X29615436Y-40901266D01*
X29596736Y-40894864D01*
X29578145Y-40886819D01*
X29578143Y-40886818D01*
X29578142Y-40886818D01*
X29531542Y-40879437D01*
X29525729Y-40878233D01*
X29480030Y-40866500D01*
X29459776Y-40866500D01*
X29440066Y-40864949D01*
X29420057Y-40861780D01*
X29420056Y-40861780D01*
X29373083Y-40866220D01*
X29367150Y-40866500D01*
X27014594Y-40866500D01*
X26946473Y-40846498D01*
X26925499Y-40829595D01*
X24970405Y-38874500D01*
X24936379Y-38812188D01*
X24933500Y-38785405D01*
X24933500Y-38085373D01*
X24953502Y-38017252D01*
X25007158Y-37970759D01*
X25077432Y-37960655D01*
X25142012Y-37990149D01*
X25148595Y-37996278D01*
X25226341Y-38074024D01*
X25226347Y-38074029D01*
X25226348Y-38074030D01*
X25377262Y-38167115D01*
X25545574Y-38222887D01*
X25649455Y-38233500D01*
X26950544Y-38233499D01*
X27054426Y-38222887D01*
X27222738Y-38167115D01*
X27373652Y-38074030D01*
X27499030Y-37948652D01*
X27589059Y-37802691D01*
X27641844Y-37755215D01*
X27711919Y-37743812D01*
X27777035Y-37772104D01*
X27787260Y-37781651D01*
X27843665Y-37840502D01*
X27899230Y-37898478D01*
X28085154Y-38035986D01*
X28136564Y-38061906D01*
X28291643Y-38140095D01*
X28512757Y-38207811D01*
X28742135Y-38237184D01*
X28973178Y-38227369D01*
X29199238Y-38178649D01*
X29413813Y-38092426D01*
X29610730Y-37971179D01*
X29784324Y-37818398D01*
X29929600Y-37638476D01*
X30042380Y-37436591D01*
X30106196Y-37255976D01*
X30119417Y-37218557D01*
X30119417Y-37218555D01*
X30119419Y-37218550D01*
X30147223Y-37056387D01*
X30178450Y-36992627D01*
X30182293Y-36988609D01*
X32060112Y-35110790D01*
X32122423Y-35076766D01*
X32193239Y-35081831D01*
G37*
%TD.AperFunction*%
%TA.AperFunction,Conductor*%
G36*
X35187607Y-38252555D02*
G01*
X35216316Y-38274047D01*
X36629595Y-39687326D01*
X36663621Y-39749638D01*
X36666500Y-39776421D01*
X36666500Y-41472000D01*
X36646498Y-41540121D01*
X36592842Y-41586614D01*
X36540504Y-41598000D01*
X36510117Y-41598000D01*
X36510107Y-41598001D01*
X36403046Y-41612095D01*
X36391150Y-41613662D01*
X36373214Y-41621091D01*
X36302624Y-41628677D01*
X36276786Y-41621091D01*
X36258848Y-41613661D01*
X36181402Y-41603465D01*
X36139885Y-41598000D01*
X36139882Y-41598000D01*
X35860116Y-41598000D01*
X35860107Y-41598001D01*
X35753046Y-41612095D01*
X35741150Y-41613662D01*
X35723214Y-41621091D01*
X35652624Y-41628677D01*
X35626786Y-41621091D01*
X35608848Y-41613661D01*
X35531402Y-41603465D01*
X35489885Y-41598000D01*
X35489882Y-41598000D01*
X35210116Y-41598000D01*
X35210107Y-41598001D01*
X35103046Y-41612095D01*
X35091150Y-41613662D01*
X34977717Y-41660647D01*
X34907128Y-41668236D01*
X34843641Y-41636456D01*
X34807414Y-41575398D01*
X34803500Y-41544238D01*
X34803500Y-41039724D01*
X34823502Y-40971603D01*
X34863351Y-40932484D01*
X34998652Y-40849030D01*
X35124030Y-40723652D01*
X35217115Y-40572738D01*
X35272887Y-40404426D01*
X35283500Y-40300545D01*
X35283499Y-39524456D01*
X35276082Y-39451855D01*
X35272887Y-39420574D01*
X35260329Y-39382676D01*
X35217115Y-39252262D01*
X35124030Y-39101348D01*
X35124029Y-39101347D01*
X35124024Y-39101341D01*
X34998658Y-38975975D01*
X34998652Y-38975970D01*
X34998651Y-38975970D01*
X34847738Y-38882885D01*
X34847734Y-38882883D01*
X34847735Y-38882883D01*
X34775267Y-38858870D01*
X34716895Y-38818456D01*
X34689640Y-38752900D01*
X34702153Y-38683015D01*
X34750463Y-38630989D01*
X34766097Y-38623497D01*
X34769023Y-38621899D01*
X34885047Y-38535047D01*
X34971897Y-38419026D01*
X35009165Y-38319109D01*
X35051712Y-38262274D01*
X35118232Y-38237463D01*
X35187607Y-38252555D01*
G37*
%TD.AperFunction*%
%TA.AperFunction,Conductor*%
G36*
X53197527Y-35197502D02*
G01*
X53218500Y-35214404D01*
X54606363Y-36602267D01*
X54640387Y-36664577D01*
X54643267Y-36691360D01*
X54643267Y-38453011D01*
X54623954Y-38520046D01*
X54614602Y-38534930D01*
X54589057Y-38575584D01*
X54532604Y-38736918D01*
X54516571Y-38879227D01*
X54513468Y-38906767D01*
X54514643Y-38917193D01*
X54532604Y-39076615D01*
X54589058Y-39237950D01*
X54589060Y-39237954D01*
X54611372Y-39273463D01*
X54630679Y-39341784D01*
X54609984Y-39409697D01*
X54555858Y-39455641D01*
X54504686Y-39466500D01*
X40107198Y-39466500D01*
X40039077Y-39446498D01*
X39992584Y-39392842D01*
X39982480Y-39322568D01*
X40011974Y-39257988D01*
X40018103Y-39251405D01*
X40972690Y-38296819D01*
X42099103Y-37170405D01*
X42161416Y-37136379D01*
X42188199Y-37133500D01*
X44432543Y-37133500D01*
X44448384Y-37135249D01*
X44448412Y-37134956D01*
X44456298Y-37135700D01*
X44456305Y-37135702D01*
X44526354Y-37133500D01*
X44556252Y-37133500D01*
X44563214Y-37132619D01*
X44569115Y-37132154D01*
X44616285Y-37130673D01*
X44635743Y-37125019D01*
X44655090Y-37121013D01*
X44675193Y-37118474D01*
X44678232Y-37117271D01*
X44683693Y-37115108D01*
X44719075Y-37101099D01*
X44724670Y-37099183D01*
X44753212Y-37090891D01*
X44769987Y-37086019D01*
X44769991Y-37086017D01*
X44787422Y-37075708D01*
X44805176Y-37067009D01*
X44824013Y-37059552D01*
X44862182Y-37031818D01*
X44867140Y-37028562D01*
X44907758Y-37004542D01*
X44922081Y-36990218D01*
X44937120Y-36977374D01*
X44953503Y-36965472D01*
X44983584Y-36929108D01*
X44987562Y-36924736D01*
X46697896Y-35214404D01*
X46760209Y-35180379D01*
X46786992Y-35177500D01*
X53129406Y-35177500D01*
X53197527Y-35197502D01*
G37*
%TD.AperFunction*%
%TA.AperFunction,Conductor*%
G36*
X55537527Y-32053502D02*
G01*
X55558501Y-32070405D01*
X58036160Y-34548065D01*
X58070186Y-34610377D01*
X58065121Y-34681193D01*
X58022574Y-34738028D01*
X57956054Y-34762839D01*
X57952414Y-34763046D01*
X57726821Y-34772630D01*
X57500759Y-34821351D01*
X57286184Y-34907575D01*
X57286180Y-34907577D01*
X57089272Y-35028819D01*
X57089268Y-35028822D01*
X56915676Y-35181601D01*
X56773587Y-35357577D01*
X56770400Y-35361524D01*
X56704875Y-35478819D01*
X56657619Y-35563410D01*
X56580582Y-35781442D01*
X56580582Y-35781443D01*
X56580581Y-35781450D01*
X56541500Y-36009375D01*
X56541500Y-36009377D01*
X56541500Y-36009378D01*
X56541500Y-36432713D01*
X56556198Y-36605417D01*
X56556199Y-36605421D01*
X56614468Y-36829201D01*
X56614470Y-36829207D01*
X56676067Y-36965475D01*
X56706056Y-37031820D01*
X56709722Y-37039929D01*
X56776330Y-37138479D01*
X56792837Y-37162901D01*
X56814411Y-37230541D01*
X56795992Y-37299106D01*
X56777540Y-37322553D01*
X56125361Y-37974732D01*
X56063049Y-38008758D01*
X55992234Y-38003693D01*
X55935398Y-37961146D01*
X55910587Y-37894626D01*
X55910266Y-37885637D01*
X55910266Y-36460627D01*
X55912016Y-36444783D01*
X55911722Y-36444756D01*
X55912467Y-36436866D01*
X55912469Y-36436858D01*
X55910267Y-36366795D01*
X55910267Y-36336911D01*
X55909387Y-36329949D01*
X55908923Y-36324060D01*
X55907441Y-36276878D01*
X55901784Y-36257409D01*
X55897779Y-36238065D01*
X55895241Y-36217970D01*
X55877867Y-36174089D01*
X55875948Y-36168483D01*
X55862785Y-36123174D01*
X55852473Y-36105737D01*
X55843777Y-36087988D01*
X55836319Y-36069150D01*
X55808579Y-36030970D01*
X55805331Y-36026025D01*
X55781309Y-35985405D01*
X55766981Y-35971077D01*
X55754151Y-35956056D01*
X55742239Y-35939660D01*
X55742236Y-35939658D01*
X55742236Y-35939657D01*
X55705874Y-35909575D01*
X55701493Y-35905589D01*
X53951244Y-34155339D01*
X53941279Y-34142901D01*
X53941052Y-34143090D01*
X53936001Y-34136984D01*
X53936000Y-34136982D01*
X53884920Y-34089015D01*
X53874430Y-34078525D01*
X53863777Y-34067871D01*
X53863772Y-34067866D01*
X53858225Y-34063563D01*
X53853717Y-34059712D01*
X53819325Y-34027417D01*
X53819319Y-34027413D01*
X53801563Y-34017651D01*
X53785047Y-34006802D01*
X53769041Y-33994386D01*
X53734470Y-33979426D01*
X53725740Y-33975648D01*
X53720408Y-33973036D01*
X53679061Y-33950305D01*
X53659436Y-33945266D01*
X53640736Y-33938864D01*
X53622145Y-33930819D01*
X53622143Y-33930818D01*
X53622142Y-33930818D01*
X53575542Y-33923437D01*
X53569729Y-33922233D01*
X53524030Y-33910500D01*
X53503776Y-33910500D01*
X53484066Y-33908949D01*
X53464057Y-33905780D01*
X53464056Y-33905780D01*
X53417083Y-33910220D01*
X53411150Y-33910500D01*
X46556250Y-33910500D01*
X46540408Y-33908750D01*
X46540381Y-33909044D01*
X46532488Y-33908297D01*
X46462425Y-33910500D01*
X46432540Y-33910500D01*
X46432536Y-33910500D01*
X46432525Y-33910501D01*
X46425586Y-33911377D01*
X46419673Y-33911843D01*
X46372510Y-33913325D01*
X46372503Y-33913327D01*
X46353045Y-33918979D01*
X46333700Y-33922985D01*
X46313602Y-33925525D01*
X46313593Y-33925527D01*
X46269727Y-33942894D01*
X46264112Y-33944817D01*
X46218804Y-33957981D01*
X46201360Y-33968297D01*
X46183614Y-33976990D01*
X46164778Y-33984448D01*
X46126605Y-34012181D01*
X46121644Y-34015440D01*
X46081034Y-34039458D01*
X46066707Y-34053784D01*
X46051681Y-34066617D01*
X46035291Y-34078525D01*
X46035289Y-34078527D01*
X46005204Y-34114892D01*
X46001208Y-34119283D01*
X44290896Y-35829595D01*
X44228584Y-35863620D01*
X44201801Y-35866500D01*
X41957457Y-35866500D01*
X41941615Y-35864750D01*
X41941588Y-35865044D01*
X41933696Y-35864298D01*
X41933695Y-35864298D01*
X41863646Y-35866500D01*
X41833748Y-35866500D01*
X41833744Y-35866500D01*
X41833734Y-35866501D01*
X41826783Y-35867379D01*
X41820871Y-35867844D01*
X41773717Y-35869326D01*
X41773715Y-35869327D01*
X41754260Y-35874978D01*
X41734907Y-35878986D01*
X41714815Y-35881524D01*
X41714808Y-35881525D01*
X41714807Y-35881526D01*
X41714805Y-35881526D01*
X41714804Y-35881527D01*
X41670943Y-35898892D01*
X41665328Y-35900815D01*
X41620011Y-35913982D01*
X41602568Y-35924297D01*
X41584822Y-35932990D01*
X41565986Y-35940448D01*
X41527813Y-35968181D01*
X41522852Y-35971440D01*
X41482242Y-35995458D01*
X41467915Y-36009784D01*
X41452889Y-36022617D01*
X41436499Y-36034525D01*
X41436497Y-36034527D01*
X41406412Y-36070892D01*
X41402416Y-36075283D01*
X38126773Y-39350925D01*
X38064461Y-39384951D01*
X37993646Y-39379886D01*
X37936810Y-39337339D01*
X37920526Y-39308214D01*
X37918474Y-39303031D01*
X37918474Y-39303030D01*
X37901103Y-39259156D01*
X37899189Y-39253567D01*
X37886019Y-39208234D01*
X37875703Y-39190791D01*
X37867005Y-39173036D01*
X37859552Y-39154210D01*
X37831818Y-39116037D01*
X37828558Y-39111074D01*
X37804542Y-39070465D01*
X37790214Y-39056137D01*
X37777384Y-39041116D01*
X37765472Y-39024720D01*
X37765469Y-39024718D01*
X37765469Y-39024717D01*
X37729107Y-38994635D01*
X37724726Y-38990649D01*
X33570405Y-34836327D01*
X33536379Y-34774015D01*
X33533500Y-34747232D01*
X33533500Y-34611640D01*
X33553502Y-34543519D01*
X33593351Y-34504400D01*
X33723652Y-34424030D01*
X33849030Y-34298652D01*
X33942115Y-34147738D01*
X33942116Y-34147734D01*
X33944279Y-34144228D01*
X33997065Y-34096750D01*
X34067140Y-34085347D01*
X34132255Y-34113639D01*
X34152388Y-34134866D01*
X34189952Y-34185046D01*
X34305976Y-34271899D01*
X34305975Y-34271899D01*
X34441761Y-34322546D01*
X34441769Y-34322548D01*
X34501785Y-34328999D01*
X34646000Y-34328999D01*
X34646000Y-33629000D01*
X35154000Y-33629000D01*
X35154000Y-34328999D01*
X35298203Y-34328999D01*
X35298226Y-34328997D01*
X35358232Y-34322547D01*
X35358234Y-34322547D01*
X35494023Y-34271899D01*
X35610047Y-34185047D01*
X35617569Y-34174999D01*
X40719341Y-34174999D01*
X40739937Y-34410411D01*
X40801096Y-34638661D01*
X40801098Y-34638665D01*
X40900966Y-34852832D01*
X41036498Y-35046392D01*
X41036502Y-35046397D01*
X41036505Y-35046401D01*
X41203599Y-35213495D01*
X41203603Y-35213498D01*
X41203607Y-35213501D01*
X41397167Y-35349033D01*
X41397166Y-35349033D01*
X41469436Y-35382733D01*
X41611337Y-35448903D01*
X41743588Y-35484339D01*
X41798057Y-35498934D01*
X41839592Y-35510063D01*
X42016034Y-35525500D01*
X42016035Y-35525500D01*
X42133965Y-35525500D01*
X42133966Y-35525500D01*
X42310408Y-35510063D01*
X42538663Y-35448903D01*
X42752829Y-35349035D01*
X42946401Y-35213495D01*
X43113495Y-35046401D01*
X43249035Y-34852830D01*
X43348903Y-34638663D01*
X43410063Y-34410408D01*
X43430659Y-34175000D01*
X43410063Y-33939592D01*
X43408360Y-33933238D01*
X43379873Y-33826919D01*
X43348903Y-33711337D01*
X43249035Y-33497171D01*
X43249034Y-33497169D01*
X43249033Y-33497167D01*
X43113501Y-33303607D01*
X43113497Y-33303602D01*
X43113495Y-33303599D01*
X42946401Y-33136505D01*
X42946397Y-33136502D01*
X42946392Y-33136498D01*
X42752832Y-33000966D01*
X42752833Y-33000966D01*
X42538665Y-32901098D01*
X42538661Y-32901096D01*
X42310411Y-32839937D01*
X42178076Y-32828359D01*
X42133966Y-32824500D01*
X42016034Y-32824500D01*
X41980745Y-32827587D01*
X41839588Y-32839937D01*
X41611338Y-32901096D01*
X41611334Y-32901098D01*
X41397167Y-33000966D01*
X41203607Y-33136498D01*
X41203596Y-33136507D01*
X41036507Y-33303596D01*
X41036502Y-33303602D01*
X40900965Y-33497169D01*
X40801098Y-33711334D01*
X40801096Y-33711338D01*
X40739937Y-33939588D01*
X40719341Y-34174999D01*
X35617569Y-34174999D01*
X35696899Y-34069023D01*
X35747546Y-33933238D01*
X35747548Y-33933230D01*
X35753999Y-33873222D01*
X35754000Y-33873205D01*
X35754000Y-33629000D01*
X35154000Y-33629000D01*
X34646000Y-33629000D01*
X34646000Y-32421000D01*
X35154000Y-32421000D01*
X35154000Y-33121000D01*
X35753999Y-33121000D01*
X35753999Y-32876797D01*
X35753997Y-32876773D01*
X35747547Y-32816767D01*
X35747547Y-32816765D01*
X35696899Y-32680976D01*
X35610047Y-32564952D01*
X35494023Y-32478100D01*
X35494024Y-32478100D01*
X35358238Y-32427453D01*
X35358230Y-32427451D01*
X35298222Y-32421000D01*
X35154000Y-32421000D01*
X34646000Y-32421000D01*
X34501797Y-32421000D01*
X34501773Y-32421002D01*
X34441767Y-32427452D01*
X34441765Y-32427452D01*
X34305976Y-32478100D01*
X34189952Y-32564953D01*
X34152388Y-32615133D01*
X34095552Y-32657680D01*
X34024736Y-32662744D01*
X33962424Y-32628719D01*
X33944279Y-32605771D01*
X33933422Y-32588169D01*
X33849030Y-32451348D01*
X33849029Y-32451347D01*
X33849024Y-32451341D01*
X33723658Y-32325975D01*
X33723652Y-32325970D01*
X33627624Y-32266739D01*
X33580148Y-32213955D01*
X33568745Y-32143880D01*
X33597037Y-32078765D01*
X33656043Y-32039282D01*
X33693773Y-32033500D01*
X55469406Y-32033500D01*
X55537527Y-32053502D01*
G37*
%TD.AperFunction*%
M02*
