%TF.GenerationSoftware,KiCad,Pcbnew,7.0.6*%
%TF.CreationDate,2023-07-13T14:44:59+02:00*%
%TF.ProjectId,LH_HeadLogicBoard_FreeJoy,4c485f48-6561-4644-9c6f-676963426f61,rev?*%
%TF.SameCoordinates,Original*%
%TF.FileFunction,Legend,Bot*%
%TF.FilePolarity,Positive*%
%FSLAX46Y46*%
G04 Gerber Fmt 4.6, Leading zero omitted, Abs format (unit mm)*
G04 Created by KiCad (PCBNEW 7.0.6) date 2023-07-13 14:44:59*
%MOMM*%
%LPD*%
G01*
G04 APERTURE LIST*
G04 Aperture macros list*
%AMRoundRect*
0 Rectangle with rounded corners*
0 $1 Rounding radius*
0 $2 $3 $4 $5 $6 $7 $8 $9 X,Y pos of 4 corners*
0 Add a 4 corners polygon primitive as box body*
4,1,4,$2,$3,$4,$5,$6,$7,$8,$9,$2,$3,0*
0 Add four circle primitives for the rounded corners*
1,1,$1+$1,$2,$3*
1,1,$1+$1,$4,$5*
1,1,$1+$1,$6,$7*
1,1,$1+$1,$8,$9*
0 Add four rect primitives between the rounded corners*
20,1,$1+$1,$2,$3,$4,$5,0*
20,1,$1+$1,$4,$5,$6,$7,0*
20,1,$1+$1,$6,$7,$8,$9,0*
20,1,$1+$1,$8,$9,$2,$3,0*%
G04 Aperture macros list end*
%ADD10C,0.150000*%
%ADD11C,0.075000*%
%ADD12C,0.100000*%
%ADD13C,0.120000*%
%ADD14RoundRect,0.250000X-0.725000X0.600000X-0.725000X-0.600000X0.725000X-0.600000X0.725000X0.600000X0*%
%ADD15O,1.950000X1.700000*%
%ADD16RoundRect,0.250000X0.600000X0.725000X-0.600000X0.725000X-0.600000X-0.725000X0.600000X-0.725000X0*%
%ADD17O,1.700000X1.950000*%
%ADD18C,2.200000*%
%ADD19RoundRect,0.250000X0.600000X0.750000X-0.600000X0.750000X-0.600000X-0.750000X0.600000X-0.750000X0*%
%ADD20O,1.700000X2.000000*%
%ADD21RoundRect,0.250000X-0.600000X-0.750000X0.600000X-0.750000X0.600000X0.750000X-0.600000X0.750000X0*%
%ADD22RoundRect,0.100000X-0.100000X0.637500X-0.100000X-0.637500X0.100000X-0.637500X0.100000X0.637500X0*%
%ADD23RoundRect,0.250000X-0.750000X0.600000X-0.750000X-0.600000X0.750000X-0.600000X0.750000X0.600000X0*%
%ADD24O,2.000000X1.700000*%
%ADD25RoundRect,0.250000X-0.337500X-0.475000X0.337500X-0.475000X0.337500X0.475000X-0.337500X0.475000X0*%
%ADD26RoundRect,0.250000X-0.350000X-0.450000X0.350000X-0.450000X0.350000X0.450000X-0.350000X0.450000X0*%
%ADD27RoundRect,0.250000X0.450000X-0.350000X0.450000X0.350000X-0.450000X0.350000X-0.450000X-0.350000X0*%
%ADD28RoundRect,0.250000X0.350000X0.450000X-0.350000X0.450000X-0.350000X-0.450000X0.350000X-0.450000X0*%
%ADD29RoundRect,0.250000X-0.450000X0.350000X-0.450000X-0.350000X0.450000X-0.350000X0.450000X0.350000X0*%
G04 APERTURE END LIST*
D10*
X30349819Y-59008458D02*
X29349819Y-59008458D01*
X29349819Y-59008458D02*
X30349819Y-59579886D01*
X30349819Y-59579886D02*
X29349819Y-59579886D01*
X30349819Y-60198934D02*
X30302200Y-60103696D01*
X30302200Y-60103696D02*
X30254580Y-60056077D01*
X30254580Y-60056077D02*
X30159342Y-60008458D01*
X30159342Y-60008458D02*
X29873628Y-60008458D01*
X29873628Y-60008458D02*
X29778390Y-60056077D01*
X29778390Y-60056077D02*
X29730771Y-60103696D01*
X29730771Y-60103696D02*
X29683152Y-60198934D01*
X29683152Y-60198934D02*
X29683152Y-60341791D01*
X29683152Y-60341791D02*
X29730771Y-60437029D01*
X29730771Y-60437029D02*
X29778390Y-60484648D01*
X29778390Y-60484648D02*
X29873628Y-60532267D01*
X29873628Y-60532267D02*
X30159342Y-60532267D01*
X30159342Y-60532267D02*
X30254580Y-60484648D01*
X30254580Y-60484648D02*
X30302200Y-60437029D01*
X30302200Y-60437029D02*
X30349819Y-60341791D01*
X30349819Y-60341791D02*
X30349819Y-60198934D01*
X30349819Y-60960839D02*
X29349819Y-60960839D01*
X29349819Y-60960839D02*
X29349819Y-61341791D01*
X29349819Y-61341791D02*
X29397438Y-61437029D01*
X29397438Y-61437029D02*
X29445057Y-61484648D01*
X29445057Y-61484648D02*
X29540295Y-61532267D01*
X29540295Y-61532267D02*
X29683152Y-61532267D01*
X29683152Y-61532267D02*
X29778390Y-61484648D01*
X29778390Y-61484648D02*
X29826009Y-61437029D01*
X29826009Y-61437029D02*
X29873628Y-61341791D01*
X29873628Y-61341791D02*
X29873628Y-60960839D01*
X30349819Y-62103696D02*
X30302200Y-62008458D01*
X30302200Y-62008458D02*
X30206961Y-61960839D01*
X30206961Y-61960839D02*
X29349819Y-61960839D01*
X30349819Y-62913220D02*
X29826009Y-62913220D01*
X29826009Y-62913220D02*
X29730771Y-62865601D01*
X29730771Y-62865601D02*
X29683152Y-62770363D01*
X29683152Y-62770363D02*
X29683152Y-62579887D01*
X29683152Y-62579887D02*
X29730771Y-62484649D01*
X30302200Y-62913220D02*
X30349819Y-62817982D01*
X30349819Y-62817982D02*
X30349819Y-62579887D01*
X30349819Y-62579887D02*
X30302200Y-62484649D01*
X30302200Y-62484649D02*
X30206961Y-62437030D01*
X30206961Y-62437030D02*
X30111723Y-62437030D01*
X30111723Y-62437030D02*
X30016485Y-62484649D01*
X30016485Y-62484649D02*
X29968866Y-62579887D01*
X29968866Y-62579887D02*
X29968866Y-62817982D01*
X29968866Y-62817982D02*
X29921247Y-62913220D01*
X29683152Y-63389411D02*
X30349819Y-63389411D01*
X29778390Y-63389411D02*
X29730771Y-63437030D01*
X29730771Y-63437030D02*
X29683152Y-63532268D01*
X29683152Y-63532268D02*
X29683152Y-63675125D01*
X29683152Y-63675125D02*
X29730771Y-63770363D01*
X29730771Y-63770363D02*
X29826009Y-63817982D01*
X29826009Y-63817982D02*
X30349819Y-63817982D01*
X30349819Y-64294173D02*
X29349819Y-64294173D01*
X29349819Y-64294173D02*
X30349819Y-64865601D01*
X30349819Y-64865601D02*
X29349819Y-64865601D01*
X30349819Y-65484649D02*
X30302200Y-65389411D01*
X30302200Y-65389411D02*
X30254580Y-65341792D01*
X30254580Y-65341792D02*
X30159342Y-65294173D01*
X30159342Y-65294173D02*
X29873628Y-65294173D01*
X29873628Y-65294173D02*
X29778390Y-65341792D01*
X29778390Y-65341792D02*
X29730771Y-65389411D01*
X29730771Y-65389411D02*
X29683152Y-65484649D01*
X29683152Y-65484649D02*
X29683152Y-65627506D01*
X29683152Y-65627506D02*
X29730771Y-65722744D01*
X29730771Y-65722744D02*
X29778390Y-65770363D01*
X29778390Y-65770363D02*
X29873628Y-65817982D01*
X29873628Y-65817982D02*
X30159342Y-65817982D01*
X30159342Y-65817982D02*
X30254580Y-65770363D01*
X30254580Y-65770363D02*
X30302200Y-65722744D01*
X30302200Y-65722744D02*
X30349819Y-65627506D01*
X30349819Y-65627506D02*
X30349819Y-65484649D01*
X30349819Y-66246554D02*
X29683152Y-66246554D01*
X29778390Y-66246554D02*
X29730771Y-66294173D01*
X29730771Y-66294173D02*
X29683152Y-66389411D01*
X29683152Y-66389411D02*
X29683152Y-66532268D01*
X29683152Y-66532268D02*
X29730771Y-66627506D01*
X29730771Y-66627506D02*
X29826009Y-66675125D01*
X29826009Y-66675125D02*
X30349819Y-66675125D01*
X29826009Y-66675125D02*
X29730771Y-66722744D01*
X29730771Y-66722744D02*
X29683152Y-66817982D01*
X29683152Y-66817982D02*
X29683152Y-66960839D01*
X29683152Y-66960839D02*
X29730771Y-67056078D01*
X29730771Y-67056078D02*
X29826009Y-67103697D01*
X29826009Y-67103697D02*
X30349819Y-67103697D01*
X30349819Y-68008458D02*
X29826009Y-68008458D01*
X29826009Y-68008458D02*
X29730771Y-67960839D01*
X29730771Y-67960839D02*
X29683152Y-67865601D01*
X29683152Y-67865601D02*
X29683152Y-67675125D01*
X29683152Y-67675125D02*
X29730771Y-67579887D01*
X30302200Y-68008458D02*
X30349819Y-67913220D01*
X30349819Y-67913220D02*
X30349819Y-67675125D01*
X30349819Y-67675125D02*
X30302200Y-67579887D01*
X30302200Y-67579887D02*
X30206961Y-67532268D01*
X30206961Y-67532268D02*
X30111723Y-67532268D01*
X30111723Y-67532268D02*
X30016485Y-67579887D01*
X30016485Y-67579887D02*
X29968866Y-67675125D01*
X29968866Y-67675125D02*
X29968866Y-67913220D01*
X29968866Y-67913220D02*
X29921247Y-68008458D01*
X30349819Y-68913220D02*
X29349819Y-68913220D01*
X30302200Y-68913220D02*
X30349819Y-68817982D01*
X30349819Y-68817982D02*
X30349819Y-68627506D01*
X30349819Y-68627506D02*
X30302200Y-68532268D01*
X30302200Y-68532268D02*
X30254580Y-68484649D01*
X30254580Y-68484649D02*
X30159342Y-68437030D01*
X30159342Y-68437030D02*
X29873628Y-68437030D01*
X29873628Y-68437030D02*
X29778390Y-68484649D01*
X29778390Y-68484649D02*
X29730771Y-68532268D01*
X29730771Y-68532268D02*
X29683152Y-68627506D01*
X29683152Y-68627506D02*
X29683152Y-68817982D01*
X29683152Y-68817982D02*
X29730771Y-68913220D01*
X31436009Y-56151312D02*
X31436009Y-55817979D01*
X31959819Y-55817979D02*
X30959819Y-55817979D01*
X30959819Y-55817979D02*
X30959819Y-56294169D01*
X31959819Y-56817979D02*
X31912200Y-56722741D01*
X31912200Y-56722741D02*
X31816961Y-56675122D01*
X31816961Y-56675122D02*
X30959819Y-56675122D01*
X31959819Y-57627503D02*
X31436009Y-57627503D01*
X31436009Y-57627503D02*
X31340771Y-57579884D01*
X31340771Y-57579884D02*
X31293152Y-57484646D01*
X31293152Y-57484646D02*
X31293152Y-57294170D01*
X31293152Y-57294170D02*
X31340771Y-57198932D01*
X31912200Y-57627503D02*
X31959819Y-57532265D01*
X31959819Y-57532265D02*
X31959819Y-57294170D01*
X31959819Y-57294170D02*
X31912200Y-57198932D01*
X31912200Y-57198932D02*
X31816961Y-57151313D01*
X31816961Y-57151313D02*
X31721723Y-57151313D01*
X31721723Y-57151313D02*
X31626485Y-57198932D01*
X31626485Y-57198932D02*
X31578866Y-57294170D01*
X31578866Y-57294170D02*
X31578866Y-57532265D01*
X31578866Y-57532265D02*
X31531247Y-57627503D01*
X31293152Y-58103694D02*
X31959819Y-58103694D01*
X31388390Y-58103694D02*
X31340771Y-58151313D01*
X31340771Y-58151313D02*
X31293152Y-58246551D01*
X31293152Y-58246551D02*
X31293152Y-58389408D01*
X31293152Y-58389408D02*
X31340771Y-58484646D01*
X31340771Y-58484646D02*
X31436009Y-58532265D01*
X31436009Y-58532265D02*
X31959819Y-58532265D01*
X31959819Y-59008456D02*
X30959819Y-59008456D01*
X31578866Y-59103694D02*
X31959819Y-59389408D01*
X31293152Y-59389408D02*
X31674104Y-59008456D01*
X31912200Y-60198932D02*
X31959819Y-60103694D01*
X31959819Y-60103694D02*
X31959819Y-59913218D01*
X31959819Y-59913218D02*
X31912200Y-59817980D01*
X31912200Y-59817980D02*
X31816961Y-59770361D01*
X31816961Y-59770361D02*
X31436009Y-59770361D01*
X31436009Y-59770361D02*
X31340771Y-59817980D01*
X31340771Y-59817980D02*
X31293152Y-59913218D01*
X31293152Y-59913218D02*
X31293152Y-60103694D01*
X31293152Y-60103694D02*
X31340771Y-60198932D01*
X31340771Y-60198932D02*
X31436009Y-60246551D01*
X31436009Y-60246551D02*
X31531247Y-60246551D01*
X31531247Y-60246551D02*
X31626485Y-59770361D01*
X31959819Y-60675123D02*
X31293152Y-60675123D01*
X31483628Y-60675123D02*
X31388390Y-60722742D01*
X31388390Y-60722742D02*
X31340771Y-60770361D01*
X31340771Y-60770361D02*
X31293152Y-60865599D01*
X31293152Y-60865599D02*
X31293152Y-60960837D01*
X31959819Y-62532266D02*
X31959819Y-62056076D01*
X31959819Y-62056076D02*
X30959819Y-62056076D01*
X31912200Y-63246552D02*
X31959819Y-63151314D01*
X31959819Y-63151314D02*
X31959819Y-62960838D01*
X31959819Y-62960838D02*
X31912200Y-62865600D01*
X31912200Y-62865600D02*
X31816961Y-62817981D01*
X31816961Y-62817981D02*
X31436009Y-62817981D01*
X31436009Y-62817981D02*
X31340771Y-62865600D01*
X31340771Y-62865600D02*
X31293152Y-62960838D01*
X31293152Y-62960838D02*
X31293152Y-63151314D01*
X31293152Y-63151314D02*
X31340771Y-63246552D01*
X31340771Y-63246552D02*
X31436009Y-63294171D01*
X31436009Y-63294171D02*
X31531247Y-63294171D01*
X31531247Y-63294171D02*
X31626485Y-62817981D01*
X31293152Y-63579886D02*
X31293152Y-63960838D01*
X31959819Y-63722743D02*
X31102676Y-63722743D01*
X31102676Y-63722743D02*
X31007438Y-63770362D01*
X31007438Y-63770362D02*
X30959819Y-63865600D01*
X30959819Y-63865600D02*
X30959819Y-63960838D01*
X31293152Y-64151315D02*
X31293152Y-64532267D01*
X30959819Y-64294172D02*
X31816961Y-64294172D01*
X31816961Y-64294172D02*
X31912200Y-64341791D01*
X31912200Y-64341791D02*
X31959819Y-64437029D01*
X31959819Y-64437029D02*
X31959819Y-64532267D01*
X31959819Y-65627506D02*
X30959819Y-65627506D01*
X31436009Y-65627506D02*
X31436009Y-66198934D01*
X31959819Y-66198934D02*
X30959819Y-66198934D01*
X31959819Y-67103696D02*
X31436009Y-67103696D01*
X31436009Y-67103696D02*
X31340771Y-67056077D01*
X31340771Y-67056077D02*
X31293152Y-66960839D01*
X31293152Y-66960839D02*
X31293152Y-66770363D01*
X31293152Y-66770363D02*
X31340771Y-66675125D01*
X31912200Y-67103696D02*
X31959819Y-67008458D01*
X31959819Y-67008458D02*
X31959819Y-66770363D01*
X31959819Y-66770363D02*
X31912200Y-66675125D01*
X31912200Y-66675125D02*
X31816961Y-66627506D01*
X31816961Y-66627506D02*
X31721723Y-66627506D01*
X31721723Y-66627506D02*
X31626485Y-66675125D01*
X31626485Y-66675125D02*
X31578866Y-66770363D01*
X31578866Y-66770363D02*
X31578866Y-67008458D01*
X31578866Y-67008458D02*
X31531247Y-67103696D01*
X31293152Y-67579887D02*
X31959819Y-67579887D01*
X31388390Y-67579887D02*
X31340771Y-67627506D01*
X31340771Y-67627506D02*
X31293152Y-67722744D01*
X31293152Y-67722744D02*
X31293152Y-67865601D01*
X31293152Y-67865601D02*
X31340771Y-67960839D01*
X31340771Y-67960839D02*
X31436009Y-68008458D01*
X31436009Y-68008458D02*
X31959819Y-68008458D01*
X31959819Y-68913220D02*
X30959819Y-68913220D01*
X31912200Y-68913220D02*
X31959819Y-68817982D01*
X31959819Y-68817982D02*
X31959819Y-68627506D01*
X31959819Y-68627506D02*
X31912200Y-68532268D01*
X31912200Y-68532268D02*
X31864580Y-68484649D01*
X31864580Y-68484649D02*
X31769342Y-68437030D01*
X31769342Y-68437030D02*
X31483628Y-68437030D01*
X31483628Y-68437030D02*
X31388390Y-68484649D01*
X31388390Y-68484649D02*
X31340771Y-68532268D01*
X31340771Y-68532268D02*
X31293152Y-68627506D01*
X31293152Y-68627506D02*
X31293152Y-68817982D01*
X31293152Y-68817982D02*
X31340771Y-68913220D01*
X33046009Y-53817980D02*
X33046009Y-53484647D01*
X33569819Y-53484647D02*
X32569819Y-53484647D01*
X32569819Y-53484647D02*
X32569819Y-53960837D01*
X32569819Y-54627504D02*
X33284104Y-54627504D01*
X33284104Y-54627504D02*
X33426961Y-54579885D01*
X33426961Y-54579885D02*
X33522200Y-54484647D01*
X33522200Y-54484647D02*
X33569819Y-54341790D01*
X33569819Y-54341790D02*
X33569819Y-54246552D01*
X33569819Y-55865600D02*
X32569819Y-55865600D01*
X33046009Y-55865600D02*
X33046009Y-56437028D01*
X33569819Y-56437028D02*
X32569819Y-56437028D01*
X33522200Y-57294171D02*
X33569819Y-57198933D01*
X33569819Y-57198933D02*
X33569819Y-57008457D01*
X33569819Y-57008457D02*
X33522200Y-56913219D01*
X33522200Y-56913219D02*
X33426961Y-56865600D01*
X33426961Y-56865600D02*
X33046009Y-56865600D01*
X33046009Y-56865600D02*
X32950771Y-56913219D01*
X32950771Y-56913219D02*
X32903152Y-57008457D01*
X32903152Y-57008457D02*
X32903152Y-57198933D01*
X32903152Y-57198933D02*
X32950771Y-57294171D01*
X32950771Y-57294171D02*
X33046009Y-57341790D01*
X33046009Y-57341790D02*
X33141247Y-57341790D01*
X33141247Y-57341790D02*
X33236485Y-56865600D01*
X33569819Y-58198933D02*
X33046009Y-58198933D01*
X33046009Y-58198933D02*
X32950771Y-58151314D01*
X32950771Y-58151314D02*
X32903152Y-58056076D01*
X32903152Y-58056076D02*
X32903152Y-57865600D01*
X32903152Y-57865600D02*
X32950771Y-57770362D01*
X33522200Y-58198933D02*
X33569819Y-58103695D01*
X33569819Y-58103695D02*
X33569819Y-57865600D01*
X33569819Y-57865600D02*
X33522200Y-57770362D01*
X33522200Y-57770362D02*
X33426961Y-57722743D01*
X33426961Y-57722743D02*
X33331723Y-57722743D01*
X33331723Y-57722743D02*
X33236485Y-57770362D01*
X33236485Y-57770362D02*
X33188866Y-57865600D01*
X33188866Y-57865600D02*
X33188866Y-58103695D01*
X33188866Y-58103695D02*
X33141247Y-58198933D01*
X33569819Y-59103695D02*
X32569819Y-59103695D01*
X33522200Y-59103695D02*
X33569819Y-59008457D01*
X33569819Y-59008457D02*
X33569819Y-58817981D01*
X33569819Y-58817981D02*
X33522200Y-58722743D01*
X33522200Y-58722743D02*
X33474580Y-58675124D01*
X33474580Y-58675124D02*
X33379342Y-58627505D01*
X33379342Y-58627505D02*
X33093628Y-58627505D01*
X33093628Y-58627505D02*
X32998390Y-58675124D01*
X32998390Y-58675124D02*
X32950771Y-58722743D01*
X32950771Y-58722743D02*
X32903152Y-58817981D01*
X32903152Y-58817981D02*
X32903152Y-59008457D01*
X32903152Y-59008457D02*
X32950771Y-59103695D01*
X33569819Y-60817981D02*
X33569819Y-60341791D01*
X33569819Y-60341791D02*
X32569819Y-60341791D01*
X33569819Y-61294172D02*
X33522200Y-61198934D01*
X33522200Y-61198934D02*
X33474580Y-61151315D01*
X33474580Y-61151315D02*
X33379342Y-61103696D01*
X33379342Y-61103696D02*
X33093628Y-61103696D01*
X33093628Y-61103696D02*
X32998390Y-61151315D01*
X32998390Y-61151315D02*
X32950771Y-61198934D01*
X32950771Y-61198934D02*
X32903152Y-61294172D01*
X32903152Y-61294172D02*
X32903152Y-61437029D01*
X32903152Y-61437029D02*
X32950771Y-61532267D01*
X32950771Y-61532267D02*
X32998390Y-61579886D01*
X32998390Y-61579886D02*
X33093628Y-61627505D01*
X33093628Y-61627505D02*
X33379342Y-61627505D01*
X33379342Y-61627505D02*
X33474580Y-61579886D01*
X33474580Y-61579886D02*
X33522200Y-61532267D01*
X33522200Y-61532267D02*
X33569819Y-61437029D01*
X33569819Y-61437029D02*
X33569819Y-61294172D01*
X32903152Y-62484648D02*
X33712676Y-62484648D01*
X33712676Y-62484648D02*
X33807914Y-62437029D01*
X33807914Y-62437029D02*
X33855533Y-62389410D01*
X33855533Y-62389410D02*
X33903152Y-62294172D01*
X33903152Y-62294172D02*
X33903152Y-62151315D01*
X33903152Y-62151315D02*
X33855533Y-62056077D01*
X33522200Y-62484648D02*
X33569819Y-62389410D01*
X33569819Y-62389410D02*
X33569819Y-62198934D01*
X33569819Y-62198934D02*
X33522200Y-62103696D01*
X33522200Y-62103696D02*
X33474580Y-62056077D01*
X33474580Y-62056077D02*
X33379342Y-62008458D01*
X33379342Y-62008458D02*
X33093628Y-62008458D01*
X33093628Y-62008458D02*
X32998390Y-62056077D01*
X32998390Y-62056077D02*
X32950771Y-62103696D01*
X32950771Y-62103696D02*
X32903152Y-62198934D01*
X32903152Y-62198934D02*
X32903152Y-62389410D01*
X32903152Y-62389410D02*
X32950771Y-62484648D01*
X33569819Y-62960839D02*
X32903152Y-62960839D01*
X32569819Y-62960839D02*
X32617438Y-62913220D01*
X32617438Y-62913220D02*
X32665057Y-62960839D01*
X32665057Y-62960839D02*
X32617438Y-63008458D01*
X32617438Y-63008458D02*
X32569819Y-62960839D01*
X32569819Y-62960839D02*
X32665057Y-62960839D01*
X33522200Y-63865600D02*
X33569819Y-63770362D01*
X33569819Y-63770362D02*
X33569819Y-63579886D01*
X33569819Y-63579886D02*
X33522200Y-63484648D01*
X33522200Y-63484648D02*
X33474580Y-63437029D01*
X33474580Y-63437029D02*
X33379342Y-63389410D01*
X33379342Y-63389410D02*
X33093628Y-63389410D01*
X33093628Y-63389410D02*
X32998390Y-63437029D01*
X32998390Y-63437029D02*
X32950771Y-63484648D01*
X32950771Y-63484648D02*
X32903152Y-63579886D01*
X32903152Y-63579886D02*
X32903152Y-63770362D01*
X32903152Y-63770362D02*
X32950771Y-63865600D01*
X33046009Y-65389410D02*
X33093628Y-65532267D01*
X33093628Y-65532267D02*
X33141247Y-65579886D01*
X33141247Y-65579886D02*
X33236485Y-65627505D01*
X33236485Y-65627505D02*
X33379342Y-65627505D01*
X33379342Y-65627505D02*
X33474580Y-65579886D01*
X33474580Y-65579886D02*
X33522200Y-65532267D01*
X33522200Y-65532267D02*
X33569819Y-65437029D01*
X33569819Y-65437029D02*
X33569819Y-65056077D01*
X33569819Y-65056077D02*
X32569819Y-65056077D01*
X32569819Y-65056077D02*
X32569819Y-65389410D01*
X32569819Y-65389410D02*
X32617438Y-65484648D01*
X32617438Y-65484648D02*
X32665057Y-65532267D01*
X32665057Y-65532267D02*
X32760295Y-65579886D01*
X32760295Y-65579886D02*
X32855533Y-65579886D01*
X32855533Y-65579886D02*
X32950771Y-65532267D01*
X32950771Y-65532267D02*
X32998390Y-65484648D01*
X32998390Y-65484648D02*
X33046009Y-65389410D01*
X33046009Y-65389410D02*
X33046009Y-65056077D01*
X33569819Y-66198934D02*
X33522200Y-66103696D01*
X33522200Y-66103696D02*
X33474580Y-66056077D01*
X33474580Y-66056077D02*
X33379342Y-66008458D01*
X33379342Y-66008458D02*
X33093628Y-66008458D01*
X33093628Y-66008458D02*
X32998390Y-66056077D01*
X32998390Y-66056077D02*
X32950771Y-66103696D01*
X32950771Y-66103696D02*
X32903152Y-66198934D01*
X32903152Y-66198934D02*
X32903152Y-66341791D01*
X32903152Y-66341791D02*
X32950771Y-66437029D01*
X32950771Y-66437029D02*
X32998390Y-66484648D01*
X32998390Y-66484648D02*
X33093628Y-66532267D01*
X33093628Y-66532267D02*
X33379342Y-66532267D01*
X33379342Y-66532267D02*
X33474580Y-66484648D01*
X33474580Y-66484648D02*
X33522200Y-66437029D01*
X33522200Y-66437029D02*
X33569819Y-66341791D01*
X33569819Y-66341791D02*
X33569819Y-66198934D01*
X33569819Y-67389410D02*
X33046009Y-67389410D01*
X33046009Y-67389410D02*
X32950771Y-67341791D01*
X32950771Y-67341791D02*
X32903152Y-67246553D01*
X32903152Y-67246553D02*
X32903152Y-67056077D01*
X32903152Y-67056077D02*
X32950771Y-66960839D01*
X33522200Y-67389410D02*
X33569819Y-67294172D01*
X33569819Y-67294172D02*
X33569819Y-67056077D01*
X33569819Y-67056077D02*
X33522200Y-66960839D01*
X33522200Y-66960839D02*
X33426961Y-66913220D01*
X33426961Y-66913220D02*
X33331723Y-66913220D01*
X33331723Y-66913220D02*
X33236485Y-66960839D01*
X33236485Y-66960839D02*
X33188866Y-67056077D01*
X33188866Y-67056077D02*
X33188866Y-67294172D01*
X33188866Y-67294172D02*
X33141247Y-67389410D01*
X33569819Y-67865601D02*
X32903152Y-67865601D01*
X33093628Y-67865601D02*
X32998390Y-67913220D01*
X32998390Y-67913220D02*
X32950771Y-67960839D01*
X32950771Y-67960839D02*
X32903152Y-68056077D01*
X32903152Y-68056077D02*
X32903152Y-68151315D01*
X33569819Y-68913220D02*
X32569819Y-68913220D01*
X33522200Y-68913220D02*
X33569819Y-68817982D01*
X33569819Y-68817982D02*
X33569819Y-68627506D01*
X33569819Y-68627506D02*
X33522200Y-68532268D01*
X33522200Y-68532268D02*
X33474580Y-68484649D01*
X33474580Y-68484649D02*
X33379342Y-68437030D01*
X33379342Y-68437030D02*
X33093628Y-68437030D01*
X33093628Y-68437030D02*
X32998390Y-68484649D01*
X32998390Y-68484649D02*
X32950771Y-68532268D01*
X32950771Y-68532268D02*
X32903152Y-68627506D01*
X32903152Y-68627506D02*
X32903152Y-68817982D01*
X32903152Y-68817982D02*
X32950771Y-68913220D01*
D11*
X73970952Y-44351219D02*
X74018571Y-44327409D01*
X74018571Y-44327409D02*
X74090000Y-44327409D01*
X74090000Y-44327409D02*
X74161428Y-44351219D01*
X74161428Y-44351219D02*
X74209047Y-44398838D01*
X74209047Y-44398838D02*
X74232857Y-44446457D01*
X74232857Y-44446457D02*
X74256666Y-44541695D01*
X74256666Y-44541695D02*
X74256666Y-44613123D01*
X74256666Y-44613123D02*
X74232857Y-44708361D01*
X74232857Y-44708361D02*
X74209047Y-44755980D01*
X74209047Y-44755980D02*
X74161428Y-44803600D01*
X74161428Y-44803600D02*
X74090000Y-44827409D01*
X74090000Y-44827409D02*
X74042381Y-44827409D01*
X74042381Y-44827409D02*
X73970952Y-44803600D01*
X73970952Y-44803600D02*
X73947143Y-44779790D01*
X73947143Y-44779790D02*
X73947143Y-44613123D01*
X73947143Y-44613123D02*
X74042381Y-44613123D01*
X73732857Y-44827409D02*
X73732857Y-44327409D01*
X73732857Y-44327409D02*
X73447143Y-44827409D01*
X73447143Y-44827409D02*
X73447143Y-44327409D01*
X73209047Y-44827409D02*
X73209047Y-44327409D01*
X73209047Y-44327409D02*
X73089999Y-44327409D01*
X73089999Y-44327409D02*
X73018571Y-44351219D01*
X73018571Y-44351219D02*
X72970952Y-44398838D01*
X72970952Y-44398838D02*
X72947142Y-44446457D01*
X72947142Y-44446457D02*
X72923333Y-44541695D01*
X72923333Y-44541695D02*
X72923333Y-44613123D01*
X72923333Y-44613123D02*
X72947142Y-44708361D01*
X72947142Y-44708361D02*
X72970952Y-44755980D01*
X72970952Y-44755980D02*
X73018571Y-44803600D01*
X73018571Y-44803600D02*
X73089999Y-44827409D01*
X73089999Y-44827409D02*
X73209047Y-44827409D01*
X74185236Y-46867409D02*
X74018570Y-47367409D01*
X74018570Y-47367409D02*
X73851903Y-46867409D01*
X73470951Y-47343600D02*
X73518570Y-47367409D01*
X73518570Y-47367409D02*
X73613808Y-47367409D01*
X73613808Y-47367409D02*
X73661427Y-47343600D01*
X73661427Y-47343600D02*
X73685237Y-47319790D01*
X73685237Y-47319790D02*
X73709046Y-47272171D01*
X73709046Y-47272171D02*
X73709046Y-47129314D01*
X73709046Y-47129314D02*
X73685237Y-47081695D01*
X73685237Y-47081695D02*
X73661427Y-47057885D01*
X73661427Y-47057885D02*
X73613808Y-47034076D01*
X73613808Y-47034076D02*
X73518570Y-47034076D01*
X73518570Y-47034076D02*
X73470951Y-47057885D01*
X73042380Y-47343600D02*
X73089999Y-47367409D01*
X73089999Y-47367409D02*
X73185237Y-47367409D01*
X73185237Y-47367409D02*
X73232856Y-47343600D01*
X73232856Y-47343600D02*
X73256666Y-47319790D01*
X73256666Y-47319790D02*
X73280475Y-47272171D01*
X73280475Y-47272171D02*
X73280475Y-47129314D01*
X73280475Y-47129314D02*
X73256666Y-47081695D01*
X73256666Y-47081695D02*
X73232856Y-47057885D01*
X73232856Y-47057885D02*
X73185237Y-47034076D01*
X73185237Y-47034076D02*
X73089999Y-47034076D01*
X73089999Y-47034076D02*
X73042380Y-47057885D01*
X62720209Y-34295896D02*
X62696400Y-34319705D01*
X62696400Y-34319705D02*
X62672590Y-34391134D01*
X62672590Y-34391134D02*
X62672590Y-34438753D01*
X62672590Y-34438753D02*
X62696400Y-34510181D01*
X62696400Y-34510181D02*
X62744019Y-34557800D01*
X62744019Y-34557800D02*
X62791638Y-34581610D01*
X62791638Y-34581610D02*
X62886876Y-34605419D01*
X62886876Y-34605419D02*
X62958304Y-34605419D01*
X62958304Y-34605419D02*
X63053542Y-34581610D01*
X63053542Y-34581610D02*
X63101161Y-34557800D01*
X63101161Y-34557800D02*
X63148780Y-34510181D01*
X63148780Y-34510181D02*
X63172590Y-34438753D01*
X63172590Y-34438753D02*
X63172590Y-34391134D01*
X63172590Y-34391134D02*
X63148780Y-34319705D01*
X63148780Y-34319705D02*
X63124971Y-34295896D01*
X62672590Y-33843515D02*
X62672590Y-34081610D01*
X62672590Y-34081610D02*
X63172590Y-34081610D01*
X62672590Y-33676848D02*
X63172590Y-33676848D01*
X62672590Y-33391134D02*
X62958304Y-33605419D01*
X63172590Y-33391134D02*
X62886876Y-33676848D01*
X60220209Y-34295896D02*
X60196400Y-34319705D01*
X60196400Y-34319705D02*
X60172590Y-34391134D01*
X60172590Y-34391134D02*
X60172590Y-34438753D01*
X60172590Y-34438753D02*
X60196400Y-34510181D01*
X60196400Y-34510181D02*
X60244019Y-34557800D01*
X60244019Y-34557800D02*
X60291638Y-34581610D01*
X60291638Y-34581610D02*
X60386876Y-34605419D01*
X60386876Y-34605419D02*
X60458304Y-34605419D01*
X60458304Y-34605419D02*
X60553542Y-34581610D01*
X60553542Y-34581610D02*
X60601161Y-34557800D01*
X60601161Y-34557800D02*
X60648780Y-34510181D01*
X60648780Y-34510181D02*
X60672590Y-34438753D01*
X60672590Y-34438753D02*
X60672590Y-34391134D01*
X60672590Y-34391134D02*
X60648780Y-34319705D01*
X60648780Y-34319705D02*
X60624971Y-34295896D01*
X60434495Y-34081610D02*
X60434495Y-33914943D01*
X60172590Y-33843515D02*
X60172590Y-34081610D01*
X60172590Y-34081610D02*
X60672590Y-34081610D01*
X60672590Y-34081610D02*
X60672590Y-33843515D01*
X68148780Y-34319705D02*
X68172590Y-34367324D01*
X68172590Y-34367324D02*
X68172590Y-34438753D01*
X68172590Y-34438753D02*
X68148780Y-34510181D01*
X68148780Y-34510181D02*
X68101161Y-34557800D01*
X68101161Y-34557800D02*
X68053542Y-34581610D01*
X68053542Y-34581610D02*
X67958304Y-34605419D01*
X67958304Y-34605419D02*
X67886876Y-34605419D01*
X67886876Y-34605419D02*
X67791638Y-34581610D01*
X67791638Y-34581610D02*
X67744019Y-34557800D01*
X67744019Y-34557800D02*
X67696400Y-34510181D01*
X67696400Y-34510181D02*
X67672590Y-34438753D01*
X67672590Y-34438753D02*
X67672590Y-34391134D01*
X67672590Y-34391134D02*
X67696400Y-34319705D01*
X67696400Y-34319705D02*
X67720209Y-34295896D01*
X67720209Y-34295896D02*
X67886876Y-34295896D01*
X67886876Y-34295896D02*
X67886876Y-34391134D01*
X67672590Y-34081610D02*
X68172590Y-34081610D01*
X68172590Y-34081610D02*
X67672590Y-33795896D01*
X67672590Y-33795896D02*
X68172590Y-33795896D01*
X67672590Y-33557800D02*
X68172590Y-33557800D01*
X68172590Y-33557800D02*
X68172590Y-33438752D01*
X68172590Y-33438752D02*
X68148780Y-33367324D01*
X68148780Y-33367324D02*
X68101161Y-33319705D01*
X68101161Y-33319705D02*
X68053542Y-33295895D01*
X68053542Y-33295895D02*
X67958304Y-33272086D01*
X67958304Y-33272086D02*
X67886876Y-33272086D01*
X67886876Y-33272086D02*
X67791638Y-33295895D01*
X67791638Y-33295895D02*
X67744019Y-33319705D01*
X67744019Y-33319705D02*
X67696400Y-33367324D01*
X67696400Y-33367324D02*
X67672590Y-33438752D01*
X67672590Y-33438752D02*
X67672590Y-33557800D01*
X65672590Y-34653038D02*
X65172590Y-34486372D01*
X65172590Y-34486372D02*
X65672590Y-34319705D01*
X65196400Y-33938753D02*
X65172590Y-33986372D01*
X65172590Y-33986372D02*
X65172590Y-34081610D01*
X65172590Y-34081610D02*
X65196400Y-34129229D01*
X65196400Y-34129229D02*
X65220209Y-34153039D01*
X65220209Y-34153039D02*
X65267828Y-34176848D01*
X65267828Y-34176848D02*
X65410685Y-34176848D01*
X65410685Y-34176848D02*
X65458304Y-34153039D01*
X65458304Y-34153039D02*
X65482114Y-34129229D01*
X65482114Y-34129229D02*
X65505923Y-34081610D01*
X65505923Y-34081610D02*
X65505923Y-33986372D01*
X65505923Y-33986372D02*
X65482114Y-33938753D01*
X65196400Y-33510182D02*
X65172590Y-33557801D01*
X65172590Y-33557801D02*
X65172590Y-33653039D01*
X65172590Y-33653039D02*
X65196400Y-33700658D01*
X65196400Y-33700658D02*
X65220209Y-33724468D01*
X65220209Y-33724468D02*
X65267828Y-33748277D01*
X65267828Y-33748277D02*
X65410685Y-33748277D01*
X65410685Y-33748277D02*
X65458304Y-33724468D01*
X65458304Y-33724468D02*
X65482114Y-33700658D01*
X65482114Y-33700658D02*
X65505923Y-33653039D01*
X65505923Y-33653039D02*
X65505923Y-33557801D01*
X65505923Y-33557801D02*
X65482114Y-33510182D01*
X57672590Y-34581610D02*
X58172590Y-34581610D01*
X58172590Y-34581610D02*
X57815447Y-34414943D01*
X57815447Y-34414943D02*
X58172590Y-34248277D01*
X58172590Y-34248277D02*
X57672590Y-34248277D01*
X57672590Y-34010181D02*
X58172590Y-34010181D01*
X57696400Y-33795895D02*
X57672590Y-33724467D01*
X57672590Y-33724467D02*
X57672590Y-33605419D01*
X57672590Y-33605419D02*
X57696400Y-33557800D01*
X57696400Y-33557800D02*
X57720209Y-33533991D01*
X57720209Y-33533991D02*
X57767828Y-33510181D01*
X57767828Y-33510181D02*
X57815447Y-33510181D01*
X57815447Y-33510181D02*
X57863066Y-33533991D01*
X57863066Y-33533991D02*
X57886876Y-33557800D01*
X57886876Y-33557800D02*
X57910685Y-33605419D01*
X57910685Y-33605419D02*
X57934495Y-33700657D01*
X57934495Y-33700657D02*
X57958304Y-33748276D01*
X57958304Y-33748276D02*
X57982114Y-33772086D01*
X57982114Y-33772086D02*
X58029733Y-33795895D01*
X58029733Y-33795895D02*
X58077352Y-33795895D01*
X58077352Y-33795895D02*
X58124971Y-33772086D01*
X58124971Y-33772086D02*
X58148780Y-33748276D01*
X58148780Y-33748276D02*
X58172590Y-33700657D01*
X58172590Y-33700657D02*
X58172590Y-33581610D01*
X58172590Y-33581610D02*
X58148780Y-33510181D01*
X58172590Y-33200658D02*
X58172590Y-33105420D01*
X58172590Y-33105420D02*
X58148780Y-33057801D01*
X58148780Y-33057801D02*
X58101161Y-33010182D01*
X58101161Y-33010182D02*
X58005923Y-32986372D01*
X58005923Y-32986372D02*
X57839257Y-32986372D01*
X57839257Y-32986372D02*
X57744019Y-33010182D01*
X57744019Y-33010182D02*
X57696400Y-33057801D01*
X57696400Y-33057801D02*
X57672590Y-33105420D01*
X57672590Y-33105420D02*
X57672590Y-33200658D01*
X57672590Y-33200658D02*
X57696400Y-33248277D01*
X57696400Y-33248277D02*
X57744019Y-33295896D01*
X57744019Y-33295896D02*
X57839257Y-33319705D01*
X57839257Y-33319705D02*
X58005923Y-33319705D01*
X58005923Y-33319705D02*
X58101161Y-33295896D01*
X58101161Y-33295896D02*
X58148780Y-33248277D01*
X58148780Y-33248277D02*
X58172590Y-33200658D01*
X58648780Y-45920952D02*
X58672590Y-45968571D01*
X58672590Y-45968571D02*
X58672590Y-46040000D01*
X58672590Y-46040000D02*
X58648780Y-46111428D01*
X58648780Y-46111428D02*
X58601161Y-46159047D01*
X58601161Y-46159047D02*
X58553542Y-46182857D01*
X58553542Y-46182857D02*
X58458304Y-46206666D01*
X58458304Y-46206666D02*
X58386876Y-46206666D01*
X58386876Y-46206666D02*
X58291638Y-46182857D01*
X58291638Y-46182857D02*
X58244019Y-46159047D01*
X58244019Y-46159047D02*
X58196400Y-46111428D01*
X58196400Y-46111428D02*
X58172590Y-46040000D01*
X58172590Y-46040000D02*
X58172590Y-45992381D01*
X58172590Y-45992381D02*
X58196400Y-45920952D01*
X58196400Y-45920952D02*
X58220209Y-45897143D01*
X58220209Y-45897143D02*
X58386876Y-45897143D01*
X58386876Y-45897143D02*
X58386876Y-45992381D01*
X58172590Y-45682857D02*
X58672590Y-45682857D01*
X58672590Y-45682857D02*
X58172590Y-45397143D01*
X58172590Y-45397143D02*
X58672590Y-45397143D01*
X58172590Y-45159047D02*
X58672590Y-45159047D01*
X58672590Y-45159047D02*
X58672590Y-45039999D01*
X58672590Y-45039999D02*
X58648780Y-44968571D01*
X58648780Y-44968571D02*
X58601161Y-44920952D01*
X58601161Y-44920952D02*
X58553542Y-44897142D01*
X58553542Y-44897142D02*
X58458304Y-44873333D01*
X58458304Y-44873333D02*
X58386876Y-44873333D01*
X58386876Y-44873333D02*
X58291638Y-44897142D01*
X58291638Y-44897142D02*
X58244019Y-44920952D01*
X58244019Y-44920952D02*
X58196400Y-44968571D01*
X58196400Y-44968571D02*
X58172590Y-45039999D01*
X58172590Y-45039999D02*
X58172590Y-45159047D01*
X56132590Y-46135236D02*
X55632590Y-45968570D01*
X55632590Y-45968570D02*
X56132590Y-45801903D01*
X55656400Y-45420951D02*
X55632590Y-45468570D01*
X55632590Y-45468570D02*
X55632590Y-45563808D01*
X55632590Y-45563808D02*
X55656400Y-45611427D01*
X55656400Y-45611427D02*
X55680209Y-45635237D01*
X55680209Y-45635237D02*
X55727828Y-45659046D01*
X55727828Y-45659046D02*
X55870685Y-45659046D01*
X55870685Y-45659046D02*
X55918304Y-45635237D01*
X55918304Y-45635237D02*
X55942114Y-45611427D01*
X55942114Y-45611427D02*
X55965923Y-45563808D01*
X55965923Y-45563808D02*
X55965923Y-45468570D01*
X55965923Y-45468570D02*
X55942114Y-45420951D01*
X55656400Y-44992380D02*
X55632590Y-45039999D01*
X55632590Y-45039999D02*
X55632590Y-45135237D01*
X55632590Y-45135237D02*
X55656400Y-45182856D01*
X55656400Y-45182856D02*
X55680209Y-45206666D01*
X55680209Y-45206666D02*
X55727828Y-45230475D01*
X55727828Y-45230475D02*
X55870685Y-45230475D01*
X55870685Y-45230475D02*
X55918304Y-45206666D01*
X55918304Y-45206666D02*
X55942114Y-45182856D01*
X55942114Y-45182856D02*
X55965923Y-45135237D01*
X55965923Y-45135237D02*
X55965923Y-45039999D01*
X55965923Y-45039999D02*
X55942114Y-44992380D01*
D12*
X47557143Y-51739366D02*
X47938096Y-51739366D01*
X47747619Y-51548890D02*
X47747619Y-51929842D01*
X48414286Y-52048890D02*
X48176191Y-52048890D01*
X48176191Y-52048890D02*
X48152382Y-51810795D01*
X48152382Y-51810795D02*
X48176191Y-51834604D01*
X48176191Y-51834604D02*
X48223810Y-51858414D01*
X48223810Y-51858414D02*
X48342858Y-51858414D01*
X48342858Y-51858414D02*
X48390477Y-51834604D01*
X48390477Y-51834604D02*
X48414286Y-51810795D01*
X48414286Y-51810795D02*
X48438096Y-51763176D01*
X48438096Y-51763176D02*
X48438096Y-51644128D01*
X48438096Y-51644128D02*
X48414286Y-51596509D01*
X48414286Y-51596509D02*
X48390477Y-51572700D01*
X48390477Y-51572700D02*
X48342858Y-51548890D01*
X48342858Y-51548890D02*
X48223810Y-51548890D01*
X48223810Y-51548890D02*
X48176191Y-51572700D01*
X48176191Y-51572700D02*
X48152382Y-51596509D01*
X48580953Y-52048890D02*
X48747619Y-51548890D01*
X48747619Y-51548890D02*
X48914286Y-52048890D01*
X45199999Y-52048890D02*
X45295237Y-52048890D01*
X45295237Y-52048890D02*
X45342856Y-52025080D01*
X45342856Y-52025080D02*
X45390475Y-51977461D01*
X45390475Y-51977461D02*
X45414285Y-51882223D01*
X45414285Y-51882223D02*
X45414285Y-51715557D01*
X45414285Y-51715557D02*
X45390475Y-51620319D01*
X45390475Y-51620319D02*
X45342856Y-51572700D01*
X45342856Y-51572700D02*
X45295237Y-51548890D01*
X45295237Y-51548890D02*
X45199999Y-51548890D01*
X45199999Y-51548890D02*
X45152380Y-51572700D01*
X45152380Y-51572700D02*
X45104761Y-51620319D01*
X45104761Y-51620319D02*
X45080952Y-51715557D01*
X45080952Y-51715557D02*
X45080952Y-51882223D01*
X45080952Y-51882223D02*
X45104761Y-51977461D01*
X45104761Y-51977461D02*
X45152380Y-52025080D01*
X45152380Y-52025080D02*
X45199999Y-52048890D01*
X45628571Y-52048890D02*
X45628571Y-51644128D01*
X45628571Y-51644128D02*
X45652381Y-51596509D01*
X45652381Y-51596509D02*
X45676190Y-51572700D01*
X45676190Y-51572700D02*
X45723809Y-51548890D01*
X45723809Y-51548890D02*
X45819047Y-51548890D01*
X45819047Y-51548890D02*
X45866666Y-51572700D01*
X45866666Y-51572700D02*
X45890476Y-51596509D01*
X45890476Y-51596509D02*
X45914285Y-51644128D01*
X45914285Y-51644128D02*
X45914285Y-52048890D01*
X46080953Y-52048890D02*
X46366667Y-52048890D01*
X46223810Y-51548890D02*
X46223810Y-52048890D01*
D11*
X54103038Y-52427409D02*
X53936372Y-52927409D01*
X53936372Y-52927409D02*
X53769705Y-52427409D01*
X53388753Y-52903600D02*
X53436372Y-52927409D01*
X53436372Y-52927409D02*
X53531610Y-52927409D01*
X53531610Y-52927409D02*
X53579229Y-52903600D01*
X53579229Y-52903600D02*
X53603039Y-52879790D01*
X53603039Y-52879790D02*
X53626848Y-52832171D01*
X53626848Y-52832171D02*
X53626848Y-52689314D01*
X53626848Y-52689314D02*
X53603039Y-52641695D01*
X53603039Y-52641695D02*
X53579229Y-52617885D01*
X53579229Y-52617885D02*
X53531610Y-52594076D01*
X53531610Y-52594076D02*
X53436372Y-52594076D01*
X53436372Y-52594076D02*
X53388753Y-52617885D01*
X52960182Y-52903600D02*
X53007801Y-52927409D01*
X53007801Y-52927409D02*
X53103039Y-52927409D01*
X53103039Y-52927409D02*
X53150658Y-52903600D01*
X53150658Y-52903600D02*
X53174468Y-52879790D01*
X53174468Y-52879790D02*
X53198277Y-52832171D01*
X53198277Y-52832171D02*
X53198277Y-52689314D01*
X53198277Y-52689314D02*
X53174468Y-52641695D01*
X53174468Y-52641695D02*
X53150658Y-52617885D01*
X53150658Y-52617885D02*
X53103039Y-52594076D01*
X53103039Y-52594076D02*
X53007801Y-52594076D01*
X53007801Y-52594076D02*
X52960182Y-52617885D01*
X53769705Y-49951219D02*
X53817324Y-49927409D01*
X53817324Y-49927409D02*
X53888753Y-49927409D01*
X53888753Y-49927409D02*
X53960181Y-49951219D01*
X53960181Y-49951219D02*
X54007800Y-49998838D01*
X54007800Y-49998838D02*
X54031610Y-50046457D01*
X54031610Y-50046457D02*
X54055419Y-50141695D01*
X54055419Y-50141695D02*
X54055419Y-50213123D01*
X54055419Y-50213123D02*
X54031610Y-50308361D01*
X54031610Y-50308361D02*
X54007800Y-50355980D01*
X54007800Y-50355980D02*
X53960181Y-50403600D01*
X53960181Y-50403600D02*
X53888753Y-50427409D01*
X53888753Y-50427409D02*
X53841134Y-50427409D01*
X53841134Y-50427409D02*
X53769705Y-50403600D01*
X53769705Y-50403600D02*
X53745896Y-50379790D01*
X53745896Y-50379790D02*
X53745896Y-50213123D01*
X53745896Y-50213123D02*
X53841134Y-50213123D01*
X53531610Y-50427409D02*
X53531610Y-49927409D01*
X53531610Y-49927409D02*
X53245896Y-50427409D01*
X53245896Y-50427409D02*
X53245896Y-49927409D01*
X53007800Y-50427409D02*
X53007800Y-49927409D01*
X53007800Y-49927409D02*
X52888752Y-49927409D01*
X52888752Y-49927409D02*
X52817324Y-49951219D01*
X52817324Y-49951219D02*
X52769705Y-49998838D01*
X52769705Y-49998838D02*
X52745895Y-50046457D01*
X52745895Y-50046457D02*
X52722086Y-50141695D01*
X52722086Y-50141695D02*
X52722086Y-50213123D01*
X52722086Y-50213123D02*
X52745895Y-50308361D01*
X52745895Y-50308361D02*
X52769705Y-50355980D01*
X52769705Y-50355980D02*
X52817324Y-50403600D01*
X52817324Y-50403600D02*
X52888752Y-50427409D01*
X52888752Y-50427409D02*
X53007800Y-50427409D01*
X25704763Y-38997590D02*
X25871429Y-38497590D01*
X25871429Y-38497590D02*
X26038096Y-38997590D01*
X26419048Y-38521400D02*
X26371429Y-38497590D01*
X26371429Y-38497590D02*
X26276191Y-38497590D01*
X26276191Y-38497590D02*
X26228572Y-38521400D01*
X26228572Y-38521400D02*
X26204762Y-38545209D01*
X26204762Y-38545209D02*
X26180953Y-38592828D01*
X26180953Y-38592828D02*
X26180953Y-38735685D01*
X26180953Y-38735685D02*
X26204762Y-38783304D01*
X26204762Y-38783304D02*
X26228572Y-38807114D01*
X26228572Y-38807114D02*
X26276191Y-38830923D01*
X26276191Y-38830923D02*
X26371429Y-38830923D01*
X26371429Y-38830923D02*
X26419048Y-38807114D01*
X26847619Y-38521400D02*
X26800000Y-38497590D01*
X26800000Y-38497590D02*
X26704762Y-38497590D01*
X26704762Y-38497590D02*
X26657143Y-38521400D01*
X26657143Y-38521400D02*
X26633333Y-38545209D01*
X26633333Y-38545209D02*
X26609524Y-38592828D01*
X26609524Y-38592828D02*
X26609524Y-38735685D01*
X26609524Y-38735685D02*
X26633333Y-38783304D01*
X26633333Y-38783304D02*
X26657143Y-38807114D01*
X26657143Y-38807114D02*
X26704762Y-38830923D01*
X26704762Y-38830923D02*
X26800000Y-38830923D01*
X26800000Y-38830923D02*
X26847619Y-38807114D01*
X28299999Y-38997590D02*
X28395237Y-38997590D01*
X28395237Y-38997590D02*
X28442856Y-38973780D01*
X28442856Y-38973780D02*
X28490475Y-38926161D01*
X28490475Y-38926161D02*
X28514285Y-38830923D01*
X28514285Y-38830923D02*
X28514285Y-38664257D01*
X28514285Y-38664257D02*
X28490475Y-38569019D01*
X28490475Y-38569019D02*
X28442856Y-38521400D01*
X28442856Y-38521400D02*
X28395237Y-38497590D01*
X28395237Y-38497590D02*
X28299999Y-38497590D01*
X28299999Y-38497590D02*
X28252380Y-38521400D01*
X28252380Y-38521400D02*
X28204761Y-38569019D01*
X28204761Y-38569019D02*
X28180952Y-38664257D01*
X28180952Y-38664257D02*
X28180952Y-38830923D01*
X28180952Y-38830923D02*
X28204761Y-38926161D01*
X28204761Y-38926161D02*
X28252380Y-38973780D01*
X28252380Y-38973780D02*
X28299999Y-38997590D01*
X28728571Y-38997590D02*
X28728571Y-38592828D01*
X28728571Y-38592828D02*
X28752381Y-38545209D01*
X28752381Y-38545209D02*
X28776190Y-38521400D01*
X28776190Y-38521400D02*
X28823809Y-38497590D01*
X28823809Y-38497590D02*
X28919047Y-38497590D01*
X28919047Y-38497590D02*
X28966666Y-38521400D01*
X28966666Y-38521400D02*
X28990476Y-38545209D01*
X28990476Y-38545209D02*
X29014285Y-38592828D01*
X29014285Y-38592828D02*
X29014285Y-38997590D01*
X29180953Y-38997590D02*
X29466667Y-38997590D01*
X29323810Y-38497590D02*
X29323810Y-38997590D01*
D10*
X32329819Y-44938095D02*
X33139342Y-44938095D01*
X33139342Y-44938095D02*
X33234580Y-44985714D01*
X33234580Y-44985714D02*
X33282200Y-45033333D01*
X33282200Y-45033333D02*
X33329819Y-45128571D01*
X33329819Y-45128571D02*
X33329819Y-45319047D01*
X33329819Y-45319047D02*
X33282200Y-45414285D01*
X33282200Y-45414285D02*
X33234580Y-45461904D01*
X33234580Y-45461904D02*
X33139342Y-45509523D01*
X33139342Y-45509523D02*
X32329819Y-45509523D01*
X32425057Y-45938095D02*
X32377438Y-45985714D01*
X32377438Y-45985714D02*
X32329819Y-46080952D01*
X32329819Y-46080952D02*
X32329819Y-46319047D01*
X32329819Y-46319047D02*
X32377438Y-46414285D01*
X32377438Y-46414285D02*
X32425057Y-46461904D01*
X32425057Y-46461904D02*
X32520295Y-46509523D01*
X32520295Y-46509523D02*
X32615533Y-46509523D01*
X32615533Y-46509523D02*
X32758390Y-46461904D01*
X32758390Y-46461904D02*
X33329819Y-45890476D01*
X33329819Y-45890476D02*
X33329819Y-46509523D01*
X45154819Y-58066666D02*
X45869104Y-58066666D01*
X45869104Y-58066666D02*
X46011961Y-58019047D01*
X46011961Y-58019047D02*
X46107200Y-57923809D01*
X46107200Y-57923809D02*
X46154819Y-57780952D01*
X46154819Y-57780952D02*
X46154819Y-57685714D01*
X45154819Y-58447619D02*
X45154819Y-59114285D01*
X45154819Y-59114285D02*
X46154819Y-58685714D01*
X37659580Y-52033333D02*
X37707200Y-51985714D01*
X37707200Y-51985714D02*
X37754819Y-51842857D01*
X37754819Y-51842857D02*
X37754819Y-51747619D01*
X37754819Y-51747619D02*
X37707200Y-51604762D01*
X37707200Y-51604762D02*
X37611961Y-51509524D01*
X37611961Y-51509524D02*
X37516723Y-51461905D01*
X37516723Y-51461905D02*
X37326247Y-51414286D01*
X37326247Y-51414286D02*
X37183390Y-51414286D01*
X37183390Y-51414286D02*
X36992914Y-51461905D01*
X36992914Y-51461905D02*
X36897676Y-51509524D01*
X36897676Y-51509524D02*
X36802438Y-51604762D01*
X36802438Y-51604762D02*
X36754819Y-51747619D01*
X36754819Y-51747619D02*
X36754819Y-51842857D01*
X36754819Y-51842857D02*
X36802438Y-51985714D01*
X36802438Y-51985714D02*
X36850057Y-52033333D01*
X37754819Y-52985714D02*
X37754819Y-52414286D01*
X37754819Y-52700000D02*
X36754819Y-52700000D01*
X36754819Y-52700000D02*
X36897676Y-52604762D01*
X36897676Y-52604762D02*
X36992914Y-52509524D01*
X36992914Y-52509524D02*
X37040533Y-52414286D01*
X77189456Y-50953754D02*
X77088441Y-50381335D01*
X77593517Y-50549693D02*
X76886410Y-49842587D01*
X76886410Y-49842587D02*
X76617036Y-50111961D01*
X76617036Y-50111961D02*
X76583364Y-50212976D01*
X76583364Y-50212976D02*
X76583364Y-50280319D01*
X76583364Y-50280319D02*
X76617036Y-50381335D01*
X76617036Y-50381335D02*
X76718051Y-50482350D01*
X76718051Y-50482350D02*
X76819067Y-50516022D01*
X76819067Y-50516022D02*
X76886410Y-50516022D01*
X76886410Y-50516022D02*
X76987425Y-50482350D01*
X76987425Y-50482350D02*
X77256799Y-50212976D01*
X76381334Y-50953754D02*
X76415006Y-50852739D01*
X76415006Y-50852739D02*
X76415006Y-50785396D01*
X76415006Y-50785396D02*
X76381334Y-50684380D01*
X76381334Y-50684380D02*
X76347662Y-50650709D01*
X76347662Y-50650709D02*
X76246647Y-50617037D01*
X76246647Y-50617037D02*
X76179303Y-50617037D01*
X76179303Y-50617037D02*
X76078288Y-50650709D01*
X76078288Y-50650709D02*
X75943601Y-50785396D01*
X75943601Y-50785396D02*
X75909929Y-50886411D01*
X75909929Y-50886411D02*
X75909929Y-50953754D01*
X75909929Y-50953754D02*
X75943601Y-51054770D01*
X75943601Y-51054770D02*
X75977273Y-51088441D01*
X75977273Y-51088441D02*
X76078288Y-51122113D01*
X76078288Y-51122113D02*
X76145632Y-51122113D01*
X76145632Y-51122113D02*
X76246647Y-51088441D01*
X76246647Y-51088441D02*
X76381334Y-50953754D01*
X76381334Y-50953754D02*
X76482349Y-50920083D01*
X76482349Y-50920083D02*
X76549693Y-50920083D01*
X76549693Y-50920083D02*
X76650708Y-50953754D01*
X76650708Y-50953754D02*
X76785395Y-51088441D01*
X76785395Y-51088441D02*
X76819067Y-51189457D01*
X76819067Y-51189457D02*
X76819067Y-51256800D01*
X76819067Y-51256800D02*
X76785395Y-51357815D01*
X76785395Y-51357815D02*
X76650708Y-51492502D01*
X76650708Y-51492502D02*
X76549693Y-51526174D01*
X76549693Y-51526174D02*
X76482349Y-51526174D01*
X76482349Y-51526174D02*
X76381334Y-51492502D01*
X76381334Y-51492502D02*
X76246647Y-51357815D01*
X76246647Y-51357815D02*
X76212975Y-51256800D01*
X76212975Y-51256800D02*
X76212975Y-51189457D01*
X76212975Y-51189457D02*
X76246647Y-51088441D01*
X46380819Y-36187142D02*
X45904628Y-35853809D01*
X46380819Y-35615714D02*
X45380819Y-35615714D01*
X45380819Y-35615714D02*
X45380819Y-35996666D01*
X45380819Y-35996666D02*
X45428438Y-36091904D01*
X45428438Y-36091904D02*
X45476057Y-36139523D01*
X45476057Y-36139523D02*
X45571295Y-36187142D01*
X45571295Y-36187142D02*
X45714152Y-36187142D01*
X45714152Y-36187142D02*
X45809390Y-36139523D01*
X45809390Y-36139523D02*
X45857009Y-36091904D01*
X45857009Y-36091904D02*
X45904628Y-35996666D01*
X45904628Y-35996666D02*
X45904628Y-35615714D01*
X45476057Y-36568095D02*
X45428438Y-36615714D01*
X45428438Y-36615714D02*
X45380819Y-36710952D01*
X45380819Y-36710952D02*
X45380819Y-36949047D01*
X45380819Y-36949047D02*
X45428438Y-37044285D01*
X45428438Y-37044285D02*
X45476057Y-37091904D01*
X45476057Y-37091904D02*
X45571295Y-37139523D01*
X45571295Y-37139523D02*
X45666533Y-37139523D01*
X45666533Y-37139523D02*
X45809390Y-37091904D01*
X45809390Y-37091904D02*
X46380819Y-36520476D01*
X46380819Y-36520476D02*
X46380819Y-37139523D01*
X45380819Y-37996666D02*
X45380819Y-37806190D01*
X45380819Y-37806190D02*
X45428438Y-37710952D01*
X45428438Y-37710952D02*
X45476057Y-37663333D01*
X45476057Y-37663333D02*
X45618914Y-37568095D01*
X45618914Y-37568095D02*
X45809390Y-37520476D01*
X45809390Y-37520476D02*
X46190342Y-37520476D01*
X46190342Y-37520476D02*
X46285580Y-37568095D01*
X46285580Y-37568095D02*
X46333200Y-37615714D01*
X46333200Y-37615714D02*
X46380819Y-37710952D01*
X46380819Y-37710952D02*
X46380819Y-37901428D01*
X46380819Y-37901428D02*
X46333200Y-37996666D01*
X46333200Y-37996666D02*
X46285580Y-38044285D01*
X46285580Y-38044285D02*
X46190342Y-38091904D01*
X46190342Y-38091904D02*
X45952247Y-38091904D01*
X45952247Y-38091904D02*
X45857009Y-38044285D01*
X45857009Y-38044285D02*
X45809390Y-37996666D01*
X45809390Y-37996666D02*
X45761771Y-37901428D01*
X45761771Y-37901428D02*
X45761771Y-37710952D01*
X45761771Y-37710952D02*
X45809390Y-37615714D01*
X45809390Y-37615714D02*
X45857009Y-37568095D01*
X45857009Y-37568095D02*
X45952247Y-37520476D01*
X77776174Y-57617036D02*
X77675159Y-57044617D01*
X78180235Y-57212975D02*
X77473128Y-56505869D01*
X77473128Y-56505869D02*
X77203754Y-56775243D01*
X77203754Y-56775243D02*
X77170082Y-56876258D01*
X77170082Y-56876258D02*
X77170082Y-56943601D01*
X77170082Y-56943601D02*
X77203754Y-57044617D01*
X77203754Y-57044617D02*
X77304769Y-57145632D01*
X77304769Y-57145632D02*
X77405785Y-57179304D01*
X77405785Y-57179304D02*
X77473128Y-57179304D01*
X77473128Y-57179304D02*
X77574143Y-57145632D01*
X77574143Y-57145632D02*
X77843517Y-56876258D01*
X77102739Y-58290471D02*
X77506800Y-57886410D01*
X77304769Y-58088441D02*
X76597663Y-57381334D01*
X76597663Y-57381334D02*
X76766021Y-57415006D01*
X76766021Y-57415006D02*
X76900708Y-57415006D01*
X76900708Y-57415006D02*
X77001724Y-57381334D01*
X76429304Y-58963907D02*
X76833365Y-58559846D01*
X76631334Y-58761876D02*
X75924227Y-58054769D01*
X75924227Y-58054769D02*
X76092586Y-58088441D01*
X76092586Y-58088441D02*
X76227273Y-58088441D01*
X76227273Y-58088441D02*
X76328288Y-58054769D01*
X77716174Y-55367036D02*
X77615159Y-54794617D01*
X78120235Y-54962975D02*
X77413128Y-54255869D01*
X77413128Y-54255869D02*
X77143754Y-54525243D01*
X77143754Y-54525243D02*
X77110082Y-54626258D01*
X77110082Y-54626258D02*
X77110082Y-54693601D01*
X77110082Y-54693601D02*
X77143754Y-54794617D01*
X77143754Y-54794617D02*
X77244769Y-54895632D01*
X77244769Y-54895632D02*
X77345785Y-54929304D01*
X77345785Y-54929304D02*
X77413128Y-54929304D01*
X77413128Y-54929304D02*
X77514143Y-54895632D01*
X77514143Y-54895632D02*
X77783517Y-54626258D01*
X77042739Y-56040471D02*
X77446800Y-55636410D01*
X77244769Y-55838441D02*
X76537663Y-55131334D01*
X76537663Y-55131334D02*
X76706021Y-55165006D01*
X76706021Y-55165006D02*
X76840708Y-55165006D01*
X76840708Y-55165006D02*
X76941724Y-55131334D01*
X76133601Y-55670082D02*
X76066258Y-55670082D01*
X76066258Y-55670082D02*
X75965243Y-55703754D01*
X75965243Y-55703754D02*
X75796884Y-55872113D01*
X75796884Y-55872113D02*
X75763212Y-55973128D01*
X75763212Y-55973128D02*
X75763212Y-56040472D01*
X75763212Y-56040472D02*
X75796884Y-56141487D01*
X75796884Y-56141487D02*
X75864227Y-56208830D01*
X75864227Y-56208830D02*
X75998914Y-56276174D01*
X75998914Y-56276174D02*
X76807036Y-56276174D01*
X76807036Y-56276174D02*
X76369304Y-56713907D01*
D12*
X57731109Y-49516666D02*
X57493014Y-49350000D01*
X57731109Y-49230952D02*
X57231109Y-49230952D01*
X57231109Y-49230952D02*
X57231109Y-49421428D01*
X57231109Y-49421428D02*
X57254919Y-49469047D01*
X57254919Y-49469047D02*
X57278728Y-49492857D01*
X57278728Y-49492857D02*
X57326347Y-49516666D01*
X57326347Y-49516666D02*
X57397776Y-49516666D01*
X57397776Y-49516666D02*
X57445395Y-49492857D01*
X57445395Y-49492857D02*
X57469204Y-49469047D01*
X57469204Y-49469047D02*
X57493014Y-49421428D01*
X57493014Y-49421428D02*
X57493014Y-49230952D01*
X57231109Y-49969047D02*
X57231109Y-49730952D01*
X57231109Y-49730952D02*
X57469204Y-49707143D01*
X57469204Y-49707143D02*
X57445395Y-49730952D01*
X57445395Y-49730952D02*
X57421585Y-49778571D01*
X57421585Y-49778571D02*
X57421585Y-49897619D01*
X57421585Y-49897619D02*
X57445395Y-49945238D01*
X57445395Y-49945238D02*
X57469204Y-49969047D01*
X57469204Y-49969047D02*
X57516823Y-49992857D01*
X57516823Y-49992857D02*
X57635871Y-49992857D01*
X57635871Y-49992857D02*
X57683490Y-49969047D01*
X57683490Y-49969047D02*
X57707300Y-49945238D01*
X57707300Y-49945238D02*
X57731109Y-49897619D01*
X57731109Y-49897619D02*
X57731109Y-49778571D01*
X57731109Y-49778571D02*
X57707300Y-49730952D01*
X57707300Y-49730952D02*
X57683490Y-49707143D01*
X57701109Y-57016666D02*
X57463014Y-56850000D01*
X57701109Y-56730952D02*
X57201109Y-56730952D01*
X57201109Y-56730952D02*
X57201109Y-56921428D01*
X57201109Y-56921428D02*
X57224919Y-56969047D01*
X57224919Y-56969047D02*
X57248728Y-56992857D01*
X57248728Y-56992857D02*
X57296347Y-57016666D01*
X57296347Y-57016666D02*
X57367776Y-57016666D01*
X57367776Y-57016666D02*
X57415395Y-56992857D01*
X57415395Y-56992857D02*
X57439204Y-56969047D01*
X57439204Y-56969047D02*
X57463014Y-56921428D01*
X57463014Y-56921428D02*
X57463014Y-56730952D01*
X57248728Y-57207143D02*
X57224919Y-57230952D01*
X57224919Y-57230952D02*
X57201109Y-57278571D01*
X57201109Y-57278571D02*
X57201109Y-57397619D01*
X57201109Y-57397619D02*
X57224919Y-57445238D01*
X57224919Y-57445238D02*
X57248728Y-57469047D01*
X57248728Y-57469047D02*
X57296347Y-57492857D01*
X57296347Y-57492857D02*
X57343966Y-57492857D01*
X57343966Y-57492857D02*
X57415395Y-57469047D01*
X57415395Y-57469047D02*
X57701109Y-57183333D01*
X57701109Y-57183333D02*
X57701109Y-57492857D01*
X57691109Y-54516666D02*
X57453014Y-54350000D01*
X57691109Y-54230952D02*
X57191109Y-54230952D01*
X57191109Y-54230952D02*
X57191109Y-54421428D01*
X57191109Y-54421428D02*
X57214919Y-54469047D01*
X57214919Y-54469047D02*
X57238728Y-54492857D01*
X57238728Y-54492857D02*
X57286347Y-54516666D01*
X57286347Y-54516666D02*
X57357776Y-54516666D01*
X57357776Y-54516666D02*
X57405395Y-54492857D01*
X57405395Y-54492857D02*
X57429204Y-54469047D01*
X57429204Y-54469047D02*
X57453014Y-54421428D01*
X57453014Y-54421428D02*
X57453014Y-54230952D01*
X57191109Y-54683333D02*
X57191109Y-54992857D01*
X57191109Y-54992857D02*
X57381585Y-54826190D01*
X57381585Y-54826190D02*
X57381585Y-54897619D01*
X57381585Y-54897619D02*
X57405395Y-54945238D01*
X57405395Y-54945238D02*
X57429204Y-54969047D01*
X57429204Y-54969047D02*
X57476823Y-54992857D01*
X57476823Y-54992857D02*
X57595871Y-54992857D01*
X57595871Y-54992857D02*
X57643490Y-54969047D01*
X57643490Y-54969047D02*
X57667300Y-54945238D01*
X57667300Y-54945238D02*
X57691109Y-54897619D01*
X57691109Y-54897619D02*
X57691109Y-54754762D01*
X57691109Y-54754762D02*
X57667300Y-54707143D01*
X57667300Y-54707143D02*
X57643490Y-54683333D01*
D10*
X77776174Y-52867036D02*
X77675159Y-52294617D01*
X78180235Y-52462975D02*
X77473128Y-51755869D01*
X77473128Y-51755869D02*
X77203754Y-52025243D01*
X77203754Y-52025243D02*
X77170082Y-52126258D01*
X77170082Y-52126258D02*
X77170082Y-52193601D01*
X77170082Y-52193601D02*
X77203754Y-52294617D01*
X77203754Y-52294617D02*
X77304769Y-52395632D01*
X77304769Y-52395632D02*
X77405785Y-52429304D01*
X77405785Y-52429304D02*
X77473128Y-52429304D01*
X77473128Y-52429304D02*
X77574143Y-52395632D01*
X77574143Y-52395632D02*
X77843517Y-52126258D01*
X77102739Y-53540471D02*
X77506800Y-53136410D01*
X77304769Y-53338441D02*
X76597663Y-52631334D01*
X76597663Y-52631334D02*
X76766021Y-52665006D01*
X76766021Y-52665006D02*
X76900708Y-52665006D01*
X76900708Y-52665006D02*
X77001724Y-52631334D01*
X75957899Y-53271098D02*
X75890556Y-53338441D01*
X75890556Y-53338441D02*
X75856884Y-53439456D01*
X75856884Y-53439456D02*
X75856884Y-53506800D01*
X75856884Y-53506800D02*
X75890556Y-53607815D01*
X75890556Y-53607815D02*
X75991571Y-53776174D01*
X75991571Y-53776174D02*
X76159930Y-53944533D01*
X76159930Y-53944533D02*
X76328288Y-54045548D01*
X76328288Y-54045548D02*
X76429304Y-54079220D01*
X76429304Y-54079220D02*
X76496647Y-54079220D01*
X76496647Y-54079220D02*
X76597662Y-54045548D01*
X76597662Y-54045548D02*
X76665006Y-53978204D01*
X76665006Y-53978204D02*
X76698678Y-53877189D01*
X76698678Y-53877189D02*
X76698678Y-53809846D01*
X76698678Y-53809846D02*
X76665006Y-53708830D01*
X76665006Y-53708830D02*
X76563991Y-53540472D01*
X76563991Y-53540472D02*
X76395632Y-53372113D01*
X76395632Y-53372113D02*
X76227273Y-53271098D01*
X76227273Y-53271098D02*
X76126258Y-53237426D01*
X76126258Y-53237426D02*
X76058914Y-53237426D01*
X76058914Y-53237426D02*
X75957899Y-53271098D01*
X52054819Y-58166666D02*
X52769104Y-58166666D01*
X52769104Y-58166666D02*
X52911961Y-58119047D01*
X52911961Y-58119047D02*
X53007200Y-58023809D01*
X53007200Y-58023809D02*
X53054819Y-57880952D01*
X53054819Y-57880952D02*
X53054819Y-57785714D01*
X52054819Y-59071428D02*
X52054819Y-58880952D01*
X52054819Y-58880952D02*
X52102438Y-58785714D01*
X52102438Y-58785714D02*
X52150057Y-58738095D01*
X52150057Y-58738095D02*
X52292914Y-58642857D01*
X52292914Y-58642857D02*
X52483390Y-58595238D01*
X52483390Y-58595238D02*
X52864342Y-58595238D01*
X52864342Y-58595238D02*
X52959580Y-58642857D01*
X52959580Y-58642857D02*
X53007200Y-58690476D01*
X53007200Y-58690476D02*
X53054819Y-58785714D01*
X53054819Y-58785714D02*
X53054819Y-58976190D01*
X53054819Y-58976190D02*
X53007200Y-59071428D01*
X53007200Y-59071428D02*
X52959580Y-59119047D01*
X52959580Y-59119047D02*
X52864342Y-59166666D01*
X52864342Y-59166666D02*
X52626247Y-59166666D01*
X52626247Y-59166666D02*
X52531009Y-59119047D01*
X52531009Y-59119047D02*
X52483390Y-59071428D01*
X52483390Y-59071428D02*
X52435771Y-58976190D01*
X52435771Y-58976190D02*
X52435771Y-58785714D01*
X52435771Y-58785714D02*
X52483390Y-58690476D01*
X52483390Y-58690476D02*
X52531009Y-58642857D01*
X52531009Y-58642857D02*
X52626247Y-58595238D01*
X51300819Y-36187142D02*
X50824628Y-35853809D01*
X51300819Y-35615714D02*
X50300819Y-35615714D01*
X50300819Y-35615714D02*
X50300819Y-35996666D01*
X50300819Y-35996666D02*
X50348438Y-36091904D01*
X50348438Y-36091904D02*
X50396057Y-36139523D01*
X50396057Y-36139523D02*
X50491295Y-36187142D01*
X50491295Y-36187142D02*
X50634152Y-36187142D01*
X50634152Y-36187142D02*
X50729390Y-36139523D01*
X50729390Y-36139523D02*
X50777009Y-36091904D01*
X50777009Y-36091904D02*
X50824628Y-35996666D01*
X50824628Y-35996666D02*
X50824628Y-35615714D01*
X50396057Y-36568095D02*
X50348438Y-36615714D01*
X50348438Y-36615714D02*
X50300819Y-36710952D01*
X50300819Y-36710952D02*
X50300819Y-36949047D01*
X50300819Y-36949047D02*
X50348438Y-37044285D01*
X50348438Y-37044285D02*
X50396057Y-37091904D01*
X50396057Y-37091904D02*
X50491295Y-37139523D01*
X50491295Y-37139523D02*
X50586533Y-37139523D01*
X50586533Y-37139523D02*
X50729390Y-37091904D01*
X50729390Y-37091904D02*
X51300819Y-36520476D01*
X51300819Y-36520476D02*
X51300819Y-37139523D01*
X51300819Y-37615714D02*
X51300819Y-37806190D01*
X51300819Y-37806190D02*
X51253200Y-37901428D01*
X51253200Y-37901428D02*
X51205580Y-37949047D01*
X51205580Y-37949047D02*
X51062723Y-38044285D01*
X51062723Y-38044285D02*
X50872247Y-38091904D01*
X50872247Y-38091904D02*
X50491295Y-38091904D01*
X50491295Y-38091904D02*
X50396057Y-38044285D01*
X50396057Y-38044285D02*
X50348438Y-37996666D01*
X50348438Y-37996666D02*
X50300819Y-37901428D01*
X50300819Y-37901428D02*
X50300819Y-37710952D01*
X50300819Y-37710952D02*
X50348438Y-37615714D01*
X50348438Y-37615714D02*
X50396057Y-37568095D01*
X50396057Y-37568095D02*
X50491295Y-37520476D01*
X50491295Y-37520476D02*
X50729390Y-37520476D01*
X50729390Y-37520476D02*
X50824628Y-37568095D01*
X50824628Y-37568095D02*
X50872247Y-37615714D01*
X50872247Y-37615714D02*
X50919866Y-37710952D01*
X50919866Y-37710952D02*
X50919866Y-37901428D01*
X50919866Y-37901428D02*
X50872247Y-37996666D01*
X50872247Y-37996666D02*
X50824628Y-38044285D01*
X50824628Y-38044285D02*
X50729390Y-38091904D01*
X74291666Y-61704819D02*
X74624999Y-61228628D01*
X74863094Y-61704819D02*
X74863094Y-60704819D01*
X74863094Y-60704819D02*
X74482142Y-60704819D01*
X74482142Y-60704819D02*
X74386904Y-60752438D01*
X74386904Y-60752438D02*
X74339285Y-60800057D01*
X74339285Y-60800057D02*
X74291666Y-60895295D01*
X74291666Y-60895295D02*
X74291666Y-61038152D01*
X74291666Y-61038152D02*
X74339285Y-61133390D01*
X74339285Y-61133390D02*
X74386904Y-61181009D01*
X74386904Y-61181009D02*
X74482142Y-61228628D01*
X74482142Y-61228628D02*
X74863094Y-61228628D01*
X73815475Y-61704819D02*
X73624999Y-61704819D01*
X73624999Y-61704819D02*
X73529761Y-61657200D01*
X73529761Y-61657200D02*
X73482142Y-61609580D01*
X73482142Y-61609580D02*
X73386904Y-61466723D01*
X73386904Y-61466723D02*
X73339285Y-61276247D01*
X73339285Y-61276247D02*
X73339285Y-60895295D01*
X73339285Y-60895295D02*
X73386904Y-60800057D01*
X73386904Y-60800057D02*
X73434523Y-60752438D01*
X73434523Y-60752438D02*
X73529761Y-60704819D01*
X73529761Y-60704819D02*
X73720237Y-60704819D01*
X73720237Y-60704819D02*
X73815475Y-60752438D01*
X73815475Y-60752438D02*
X73863094Y-60800057D01*
X73863094Y-60800057D02*
X73910713Y-60895295D01*
X73910713Y-60895295D02*
X73910713Y-61133390D01*
X73910713Y-61133390D02*
X73863094Y-61228628D01*
X73863094Y-61228628D02*
X73815475Y-61276247D01*
X73815475Y-61276247D02*
X73720237Y-61323866D01*
X73720237Y-61323866D02*
X73529761Y-61323866D01*
X73529761Y-61323866D02*
X73434523Y-61276247D01*
X73434523Y-61276247D02*
X73386904Y-61228628D01*
X73386904Y-61228628D02*
X73339285Y-61133390D01*
X48840819Y-36187142D02*
X48364628Y-35853809D01*
X48840819Y-35615714D02*
X47840819Y-35615714D01*
X47840819Y-35615714D02*
X47840819Y-35996666D01*
X47840819Y-35996666D02*
X47888438Y-36091904D01*
X47888438Y-36091904D02*
X47936057Y-36139523D01*
X47936057Y-36139523D02*
X48031295Y-36187142D01*
X48031295Y-36187142D02*
X48174152Y-36187142D01*
X48174152Y-36187142D02*
X48269390Y-36139523D01*
X48269390Y-36139523D02*
X48317009Y-36091904D01*
X48317009Y-36091904D02*
X48364628Y-35996666D01*
X48364628Y-35996666D02*
X48364628Y-35615714D01*
X47840819Y-36520476D02*
X47840819Y-37139523D01*
X47840819Y-37139523D02*
X48221771Y-36806190D01*
X48221771Y-36806190D02*
X48221771Y-36949047D01*
X48221771Y-36949047D02*
X48269390Y-37044285D01*
X48269390Y-37044285D02*
X48317009Y-37091904D01*
X48317009Y-37091904D02*
X48412247Y-37139523D01*
X48412247Y-37139523D02*
X48650342Y-37139523D01*
X48650342Y-37139523D02*
X48745580Y-37091904D01*
X48745580Y-37091904D02*
X48793200Y-37044285D01*
X48793200Y-37044285D02*
X48840819Y-36949047D01*
X48840819Y-36949047D02*
X48840819Y-36663333D01*
X48840819Y-36663333D02*
X48793200Y-36568095D01*
X48793200Y-36568095D02*
X48745580Y-36520476D01*
X47840819Y-37758571D02*
X47840819Y-37853809D01*
X47840819Y-37853809D02*
X47888438Y-37949047D01*
X47888438Y-37949047D02*
X47936057Y-37996666D01*
X47936057Y-37996666D02*
X48031295Y-38044285D01*
X48031295Y-38044285D02*
X48221771Y-38091904D01*
X48221771Y-38091904D02*
X48459866Y-38091904D01*
X48459866Y-38091904D02*
X48650342Y-38044285D01*
X48650342Y-38044285D02*
X48745580Y-37996666D01*
X48745580Y-37996666D02*
X48793200Y-37949047D01*
X48793200Y-37949047D02*
X48840819Y-37853809D01*
X48840819Y-37853809D02*
X48840819Y-37758571D01*
X48840819Y-37758571D02*
X48793200Y-37663333D01*
X48793200Y-37663333D02*
X48745580Y-37615714D01*
X48745580Y-37615714D02*
X48650342Y-37568095D01*
X48650342Y-37568095D02*
X48459866Y-37520476D01*
X48459866Y-37520476D02*
X48221771Y-37520476D01*
X48221771Y-37520476D02*
X48031295Y-37568095D01*
X48031295Y-37568095D02*
X47936057Y-37615714D01*
X47936057Y-37615714D02*
X47888438Y-37663333D01*
X47888438Y-37663333D02*
X47840819Y-37758571D01*
X54014819Y-36187142D02*
X53538628Y-35853809D01*
X54014819Y-35615714D02*
X53014819Y-35615714D01*
X53014819Y-35615714D02*
X53014819Y-35996666D01*
X53014819Y-35996666D02*
X53062438Y-36091904D01*
X53062438Y-36091904D02*
X53110057Y-36139523D01*
X53110057Y-36139523D02*
X53205295Y-36187142D01*
X53205295Y-36187142D02*
X53348152Y-36187142D01*
X53348152Y-36187142D02*
X53443390Y-36139523D01*
X53443390Y-36139523D02*
X53491009Y-36091904D01*
X53491009Y-36091904D02*
X53538628Y-35996666D01*
X53538628Y-35996666D02*
X53538628Y-35615714D01*
X53110057Y-36568095D02*
X53062438Y-36615714D01*
X53062438Y-36615714D02*
X53014819Y-36710952D01*
X53014819Y-36710952D02*
X53014819Y-36949047D01*
X53014819Y-36949047D02*
X53062438Y-37044285D01*
X53062438Y-37044285D02*
X53110057Y-37091904D01*
X53110057Y-37091904D02*
X53205295Y-37139523D01*
X53205295Y-37139523D02*
X53300533Y-37139523D01*
X53300533Y-37139523D02*
X53443390Y-37091904D01*
X53443390Y-37091904D02*
X54014819Y-36520476D01*
X54014819Y-36520476D02*
X54014819Y-37139523D01*
X53443390Y-37710952D02*
X53395771Y-37615714D01*
X53395771Y-37615714D02*
X53348152Y-37568095D01*
X53348152Y-37568095D02*
X53252914Y-37520476D01*
X53252914Y-37520476D02*
X53205295Y-37520476D01*
X53205295Y-37520476D02*
X53110057Y-37568095D01*
X53110057Y-37568095D02*
X53062438Y-37615714D01*
X53062438Y-37615714D02*
X53014819Y-37710952D01*
X53014819Y-37710952D02*
X53014819Y-37901428D01*
X53014819Y-37901428D02*
X53062438Y-37996666D01*
X53062438Y-37996666D02*
X53110057Y-38044285D01*
X53110057Y-38044285D02*
X53205295Y-38091904D01*
X53205295Y-38091904D02*
X53252914Y-38091904D01*
X53252914Y-38091904D02*
X53348152Y-38044285D01*
X53348152Y-38044285D02*
X53395771Y-37996666D01*
X53395771Y-37996666D02*
X53443390Y-37901428D01*
X53443390Y-37901428D02*
X53443390Y-37710952D01*
X53443390Y-37710952D02*
X53491009Y-37615714D01*
X53491009Y-37615714D02*
X53538628Y-37568095D01*
X53538628Y-37568095D02*
X53633866Y-37520476D01*
X53633866Y-37520476D02*
X53824342Y-37520476D01*
X53824342Y-37520476D02*
X53919580Y-37568095D01*
X53919580Y-37568095D02*
X53967200Y-37615714D01*
X53967200Y-37615714D02*
X54014819Y-37710952D01*
X54014819Y-37710952D02*
X54014819Y-37901428D01*
X54014819Y-37901428D02*
X53967200Y-37996666D01*
X53967200Y-37996666D02*
X53919580Y-38044285D01*
X53919580Y-38044285D02*
X53824342Y-38091904D01*
X53824342Y-38091904D02*
X53633866Y-38091904D01*
X53633866Y-38091904D02*
X53538628Y-38044285D01*
X53538628Y-38044285D02*
X53491009Y-37996666D01*
X53491009Y-37996666D02*
X53443390Y-37901428D01*
X40204819Y-51833333D02*
X39728628Y-51500000D01*
X40204819Y-51261905D02*
X39204819Y-51261905D01*
X39204819Y-51261905D02*
X39204819Y-51642857D01*
X39204819Y-51642857D02*
X39252438Y-51738095D01*
X39252438Y-51738095D02*
X39300057Y-51785714D01*
X39300057Y-51785714D02*
X39395295Y-51833333D01*
X39395295Y-51833333D02*
X39538152Y-51833333D01*
X39538152Y-51833333D02*
X39633390Y-51785714D01*
X39633390Y-51785714D02*
X39681009Y-51738095D01*
X39681009Y-51738095D02*
X39728628Y-51642857D01*
X39728628Y-51642857D02*
X39728628Y-51261905D01*
X39204819Y-52166667D02*
X39204819Y-52833333D01*
X39204819Y-52833333D02*
X40204819Y-52404762D01*
D12*
X57711109Y-52016666D02*
X57473014Y-51850000D01*
X57711109Y-51730952D02*
X57211109Y-51730952D01*
X57211109Y-51730952D02*
X57211109Y-51921428D01*
X57211109Y-51921428D02*
X57234919Y-51969047D01*
X57234919Y-51969047D02*
X57258728Y-51992857D01*
X57258728Y-51992857D02*
X57306347Y-52016666D01*
X57306347Y-52016666D02*
X57377776Y-52016666D01*
X57377776Y-52016666D02*
X57425395Y-51992857D01*
X57425395Y-51992857D02*
X57449204Y-51969047D01*
X57449204Y-51969047D02*
X57473014Y-51921428D01*
X57473014Y-51921428D02*
X57473014Y-51730952D01*
X57377776Y-52445238D02*
X57711109Y-52445238D01*
X57187300Y-52326190D02*
X57544442Y-52207143D01*
X57544442Y-52207143D02*
X57544442Y-52516666D01*
D10*
X66654819Y-44266666D02*
X67369104Y-44266666D01*
X67369104Y-44266666D02*
X67511961Y-44219047D01*
X67511961Y-44219047D02*
X67607200Y-44123809D01*
X67607200Y-44123809D02*
X67654819Y-43980952D01*
X67654819Y-43980952D02*
X67654819Y-43885714D01*
X66654819Y-44647619D02*
X66654819Y-45266666D01*
X66654819Y-45266666D02*
X67035771Y-44933333D01*
X67035771Y-44933333D02*
X67035771Y-45076190D01*
X67035771Y-45076190D02*
X67083390Y-45171428D01*
X67083390Y-45171428D02*
X67131009Y-45219047D01*
X67131009Y-45219047D02*
X67226247Y-45266666D01*
X67226247Y-45266666D02*
X67464342Y-45266666D01*
X67464342Y-45266666D02*
X67559580Y-45219047D01*
X67559580Y-45219047D02*
X67607200Y-45171428D01*
X67607200Y-45171428D02*
X67654819Y-45076190D01*
X67654819Y-45076190D02*
X67654819Y-44790476D01*
X67654819Y-44790476D02*
X67607200Y-44695238D01*
X67607200Y-44695238D02*
X67559580Y-44647619D01*
X42204819Y-39357142D02*
X41728628Y-39023809D01*
X42204819Y-38785714D02*
X41204819Y-38785714D01*
X41204819Y-38785714D02*
X41204819Y-39166666D01*
X41204819Y-39166666D02*
X41252438Y-39261904D01*
X41252438Y-39261904D02*
X41300057Y-39309523D01*
X41300057Y-39309523D02*
X41395295Y-39357142D01*
X41395295Y-39357142D02*
X41538152Y-39357142D01*
X41538152Y-39357142D02*
X41633390Y-39309523D01*
X41633390Y-39309523D02*
X41681009Y-39261904D01*
X41681009Y-39261904D02*
X41728628Y-39166666D01*
X41728628Y-39166666D02*
X41728628Y-38785714D01*
X41300057Y-39738095D02*
X41252438Y-39785714D01*
X41252438Y-39785714D02*
X41204819Y-39880952D01*
X41204819Y-39880952D02*
X41204819Y-40119047D01*
X41204819Y-40119047D02*
X41252438Y-40214285D01*
X41252438Y-40214285D02*
X41300057Y-40261904D01*
X41300057Y-40261904D02*
X41395295Y-40309523D01*
X41395295Y-40309523D02*
X41490533Y-40309523D01*
X41490533Y-40309523D02*
X41633390Y-40261904D01*
X41633390Y-40261904D02*
X42204819Y-39690476D01*
X42204819Y-39690476D02*
X42204819Y-40309523D01*
X41204819Y-41214285D02*
X41204819Y-40738095D01*
X41204819Y-40738095D02*
X41681009Y-40690476D01*
X41681009Y-40690476D02*
X41633390Y-40738095D01*
X41633390Y-40738095D02*
X41585771Y-40833333D01*
X41585771Y-40833333D02*
X41585771Y-41071428D01*
X41585771Y-41071428D02*
X41633390Y-41166666D01*
X41633390Y-41166666D02*
X41681009Y-41214285D01*
X41681009Y-41214285D02*
X41776247Y-41261904D01*
X41776247Y-41261904D02*
X42014342Y-41261904D01*
X42014342Y-41261904D02*
X42109580Y-41214285D01*
X42109580Y-41214285D02*
X42157200Y-41166666D01*
X42157200Y-41166666D02*
X42204819Y-41071428D01*
X42204819Y-41071428D02*
X42204819Y-40833333D01*
X42204819Y-40833333D02*
X42157200Y-40738095D01*
X42157200Y-40738095D02*
X42109580Y-40690476D01*
X49504819Y-64433333D02*
X49028628Y-64100000D01*
X49504819Y-63861905D02*
X48504819Y-63861905D01*
X48504819Y-63861905D02*
X48504819Y-64242857D01*
X48504819Y-64242857D02*
X48552438Y-64338095D01*
X48552438Y-64338095D02*
X48600057Y-64385714D01*
X48600057Y-64385714D02*
X48695295Y-64433333D01*
X48695295Y-64433333D02*
X48838152Y-64433333D01*
X48838152Y-64433333D02*
X48933390Y-64385714D01*
X48933390Y-64385714D02*
X48981009Y-64338095D01*
X48981009Y-64338095D02*
X49028628Y-64242857D01*
X49028628Y-64242857D02*
X49028628Y-63861905D01*
X48504819Y-65290476D02*
X48504819Y-65100000D01*
X48504819Y-65100000D02*
X48552438Y-65004762D01*
X48552438Y-65004762D02*
X48600057Y-64957143D01*
X48600057Y-64957143D02*
X48742914Y-64861905D01*
X48742914Y-64861905D02*
X48933390Y-64814286D01*
X48933390Y-64814286D02*
X49314342Y-64814286D01*
X49314342Y-64814286D02*
X49409580Y-64861905D01*
X49409580Y-64861905D02*
X49457200Y-64909524D01*
X49457200Y-64909524D02*
X49504819Y-65004762D01*
X49504819Y-65004762D02*
X49504819Y-65195238D01*
X49504819Y-65195238D02*
X49457200Y-65290476D01*
X49457200Y-65290476D02*
X49409580Y-65338095D01*
X49409580Y-65338095D02*
X49314342Y-65385714D01*
X49314342Y-65385714D02*
X49076247Y-65385714D01*
X49076247Y-65385714D02*
X48981009Y-65338095D01*
X48981009Y-65338095D02*
X48933390Y-65290476D01*
X48933390Y-65290476D02*
X48885771Y-65195238D01*
X48885771Y-65195238D02*
X48885771Y-65004762D01*
X48885771Y-65004762D02*
X48933390Y-64909524D01*
X48933390Y-64909524D02*
X48981009Y-64861905D01*
X48981009Y-64861905D02*
X49076247Y-64814286D01*
D12*
X57721109Y-59516666D02*
X57483014Y-59350000D01*
X57721109Y-59230952D02*
X57221109Y-59230952D01*
X57221109Y-59230952D02*
X57221109Y-59421428D01*
X57221109Y-59421428D02*
X57244919Y-59469047D01*
X57244919Y-59469047D02*
X57268728Y-59492857D01*
X57268728Y-59492857D02*
X57316347Y-59516666D01*
X57316347Y-59516666D02*
X57387776Y-59516666D01*
X57387776Y-59516666D02*
X57435395Y-59492857D01*
X57435395Y-59492857D02*
X57459204Y-59469047D01*
X57459204Y-59469047D02*
X57483014Y-59421428D01*
X57483014Y-59421428D02*
X57483014Y-59230952D01*
X57721109Y-59992857D02*
X57721109Y-59707143D01*
X57721109Y-59850000D02*
X57221109Y-59850000D01*
X57221109Y-59850000D02*
X57292538Y-59802381D01*
X57292538Y-59802381D02*
X57340157Y-59754762D01*
X57340157Y-59754762D02*
X57363966Y-59707143D01*
D10*
X42704819Y-63957142D02*
X42228628Y-63623809D01*
X42704819Y-63385714D02*
X41704819Y-63385714D01*
X41704819Y-63385714D02*
X41704819Y-63766666D01*
X41704819Y-63766666D02*
X41752438Y-63861904D01*
X41752438Y-63861904D02*
X41800057Y-63909523D01*
X41800057Y-63909523D02*
X41895295Y-63957142D01*
X41895295Y-63957142D02*
X42038152Y-63957142D01*
X42038152Y-63957142D02*
X42133390Y-63909523D01*
X42133390Y-63909523D02*
X42181009Y-63861904D01*
X42181009Y-63861904D02*
X42228628Y-63766666D01*
X42228628Y-63766666D02*
X42228628Y-63385714D01*
X41800057Y-64338095D02*
X41752438Y-64385714D01*
X41752438Y-64385714D02*
X41704819Y-64480952D01*
X41704819Y-64480952D02*
X41704819Y-64719047D01*
X41704819Y-64719047D02*
X41752438Y-64814285D01*
X41752438Y-64814285D02*
X41800057Y-64861904D01*
X41800057Y-64861904D02*
X41895295Y-64909523D01*
X41895295Y-64909523D02*
X41990533Y-64909523D01*
X41990533Y-64909523D02*
X42133390Y-64861904D01*
X42133390Y-64861904D02*
X42704819Y-64290476D01*
X42704819Y-64290476D02*
X42704819Y-64909523D01*
X41704819Y-65242857D02*
X41704819Y-65909523D01*
X41704819Y-65909523D02*
X42704819Y-65480952D01*
D13*
X39060000Y-45700000D02*
X39060000Y-43500000D01*
X39060000Y-45700000D02*
X39060000Y-47900000D01*
X33590000Y-45700000D02*
X33590000Y-42100000D01*
X33590000Y-45700000D02*
X33590000Y-47900000D01*
X41150000Y-54250000D02*
X42400000Y-54250000D01*
X47410000Y-54540000D02*
X47410000Y-62160000D01*
X41440000Y-54540000D02*
X47410000Y-54540000D01*
X43700000Y-54550000D02*
X43700000Y-55300000D01*
X42200000Y-54550000D02*
X42200000Y-56350000D01*
X41450000Y-54550000D02*
X42200000Y-54550000D01*
X46650000Y-55300000D02*
X46650000Y-58350000D01*
X43700000Y-55300000D02*
X46650000Y-55300000D01*
X41150000Y-55500000D02*
X41150000Y-54250000D01*
X42200000Y-56350000D02*
X41450000Y-56350000D01*
X41450000Y-56350000D02*
X41450000Y-54550000D01*
X42200000Y-57850000D02*
X42200000Y-58850000D01*
X41450000Y-57850000D02*
X42200000Y-57850000D01*
X42200000Y-58850000D02*
X41450000Y-58850000D01*
X41450000Y-58850000D02*
X41450000Y-57850000D01*
X42200000Y-60350000D02*
X42200000Y-62150000D01*
X41450000Y-60350000D02*
X42200000Y-60350000D01*
X46650000Y-61400000D02*
X46650000Y-58350000D01*
X43700000Y-61400000D02*
X46650000Y-61400000D01*
X43700000Y-62150000D02*
X43700000Y-61400000D01*
X42200000Y-62150000D02*
X41450000Y-62150000D01*
X41450000Y-62150000D02*
X41450000Y-60350000D01*
X47410000Y-62160000D02*
X41440000Y-62160000D01*
X41440000Y-62160000D02*
X41440000Y-54540000D01*
X34458748Y-51545000D02*
X34981252Y-51545000D01*
X34458748Y-53015000D02*
X34981252Y-53015000D01*
X73897936Y-48865000D02*
X74352064Y-48865000D01*
X73897936Y-50335000D02*
X74352064Y-50335000D01*
X45215000Y-40252064D02*
X45215000Y-39797936D01*
X46685000Y-40252064D02*
X46685000Y-39797936D01*
X73897936Y-56365000D02*
X74352064Y-56365000D01*
X73897936Y-57835000D02*
X74352064Y-57835000D01*
X73897936Y-53865000D02*
X74352064Y-53865000D01*
X73897936Y-55335000D02*
X74352064Y-55335000D01*
X59522936Y-48865000D02*
X59977064Y-48865000D01*
X59522936Y-50335000D02*
X59977064Y-50335000D01*
X59977064Y-57835000D02*
X59522936Y-57835000D01*
X59977064Y-56365000D02*
X59522936Y-56365000D01*
X59977064Y-55335000D02*
X59522936Y-55335000D01*
X59977064Y-53865000D02*
X59522936Y-53865000D01*
X73897936Y-51340000D02*
X74352064Y-51340000D01*
X73897936Y-52810000D02*
X74352064Y-52810000D01*
X47950000Y-54250000D02*
X49200000Y-54250000D01*
X54210000Y-54540000D02*
X54210000Y-62160000D01*
X48240000Y-54540000D02*
X54210000Y-54540000D01*
X50500000Y-54550000D02*
X50500000Y-55300000D01*
X49000000Y-54550000D02*
X49000000Y-56350000D01*
X48250000Y-54550000D02*
X49000000Y-54550000D01*
X53450000Y-55300000D02*
X53450000Y-58350000D01*
X50500000Y-55300000D02*
X53450000Y-55300000D01*
X47950000Y-55500000D02*
X47950000Y-54250000D01*
X49000000Y-56350000D02*
X48250000Y-56350000D01*
X48250000Y-56350000D02*
X48250000Y-54550000D01*
X49000000Y-57850000D02*
X49000000Y-58850000D01*
X48250000Y-57850000D02*
X49000000Y-57850000D01*
X49000000Y-58850000D02*
X48250000Y-58850000D01*
X48250000Y-58850000D02*
X48250000Y-57850000D01*
X49000000Y-60350000D02*
X49000000Y-62150000D01*
X48250000Y-60350000D02*
X49000000Y-60350000D01*
X53450000Y-61400000D02*
X53450000Y-58350000D01*
X50500000Y-61400000D02*
X53450000Y-61400000D01*
X50500000Y-62150000D02*
X50500000Y-61400000D01*
X49000000Y-62150000D02*
X48250000Y-62150000D01*
X48250000Y-62150000D02*
X48250000Y-60350000D01*
X54210000Y-62160000D02*
X48240000Y-62160000D01*
X48240000Y-62160000D02*
X48240000Y-54540000D01*
X50215000Y-40252064D02*
X50215000Y-39797936D01*
X51685000Y-40252064D02*
X51685000Y-39797936D01*
X73897936Y-58865000D02*
X74352064Y-58865000D01*
X73897936Y-60335000D02*
X74352064Y-60335000D01*
X47715000Y-40252064D02*
X47715000Y-39797936D01*
X49185000Y-40252064D02*
X49185000Y-39797936D01*
X52715000Y-40252064D02*
X52715000Y-39797936D01*
X54185000Y-40252064D02*
X54185000Y-39797936D01*
X41985000Y-51772936D02*
X41985000Y-52227064D01*
X40515000Y-51772936D02*
X40515000Y-52227064D01*
X59522936Y-51365000D02*
X59977064Y-51365000D01*
X59522936Y-52835000D02*
X59977064Y-52835000D01*
X62550000Y-41750000D02*
X63800000Y-41750000D01*
X68810000Y-42040000D02*
X68810000Y-62160000D01*
X62840000Y-42040000D02*
X68810000Y-42040000D01*
X65100000Y-42050000D02*
X65100000Y-42800000D01*
X63600000Y-42050000D02*
X63600000Y-43850000D01*
X62850000Y-42050000D02*
X63600000Y-42050000D01*
X68050000Y-42800000D02*
X68050000Y-52100000D01*
X65100000Y-42800000D02*
X68050000Y-42800000D01*
X62550000Y-43000000D02*
X62550000Y-41750000D01*
X63600000Y-43850000D02*
X62850000Y-43850000D01*
X62850000Y-43850000D02*
X62850000Y-42050000D01*
X63600000Y-45350000D02*
X63600000Y-58850000D01*
X62850000Y-45350000D02*
X63600000Y-45350000D01*
X63600000Y-58850000D02*
X62850000Y-58850000D01*
X62850000Y-58850000D02*
X62850000Y-45350000D01*
X63600000Y-60350000D02*
X63600000Y-62150000D01*
X62850000Y-60350000D02*
X63600000Y-60350000D01*
X68050000Y-61400000D02*
X68050000Y-52100000D01*
X65100000Y-61400000D02*
X68050000Y-61400000D01*
X65100000Y-62150000D02*
X65100000Y-61400000D01*
X63600000Y-62150000D02*
X62850000Y-62150000D01*
X62850000Y-62150000D02*
X62850000Y-60350000D01*
X68810000Y-62160000D02*
X62840000Y-62160000D01*
X62840000Y-62160000D02*
X62840000Y-42040000D01*
X42715000Y-40252064D02*
X42715000Y-39797936D01*
X44185000Y-40252064D02*
X44185000Y-39797936D01*
X51435000Y-64372936D02*
X51435000Y-64827064D01*
X49965000Y-64372936D02*
X49965000Y-64827064D01*
X59977064Y-60335000D02*
X59522936Y-60335000D01*
X59977064Y-58865000D02*
X59522936Y-58865000D01*
X44635000Y-64372936D02*
X44635000Y-64827064D01*
X43165000Y-64372936D02*
X43165000Y-64827064D01*
%LPC*%
D14*
X71050000Y-44600000D03*
D15*
X71050000Y-47100000D03*
X71050000Y-49600000D03*
X71050000Y-52100000D03*
X71050000Y-54600000D03*
X71050000Y-57100000D03*
X71050000Y-59600000D03*
D16*
X67900000Y-36250000D03*
D17*
X65400000Y-36250000D03*
X62900000Y-36250000D03*
X60400000Y-36250000D03*
X57900000Y-36250000D03*
D16*
X58400000Y-43000000D03*
D17*
X55900000Y-43000000D03*
X53400000Y-43000000D03*
X50900000Y-43000000D03*
X48400000Y-43000000D03*
X45900000Y-43000000D03*
X43400000Y-43000000D03*
D18*
X84300000Y-33450000D03*
X42075000Y-34175000D03*
D19*
X48200000Y-50275000D03*
D20*
X45700000Y-50275000D03*
D14*
X55700000Y-50200000D03*
D15*
X55700000Y-52700000D03*
X55700000Y-55200000D03*
X55700000Y-57700000D03*
X55700000Y-60200000D03*
X55700000Y-62700000D03*
X55700000Y-65200000D03*
D21*
X26300000Y-36725000D03*
D20*
X28800000Y-36725000D03*
D22*
X34050000Y-42837500D03*
X34700000Y-42837500D03*
X35350000Y-42837500D03*
X36000000Y-42837500D03*
X36650000Y-42837500D03*
X37300000Y-42837500D03*
X37950000Y-42837500D03*
X38600000Y-42837500D03*
X38600000Y-48562500D03*
X37950000Y-48562500D03*
X37300000Y-48562500D03*
X36650000Y-48562500D03*
X36000000Y-48562500D03*
X35350000Y-48562500D03*
X34700000Y-48562500D03*
X34050000Y-48562500D03*
D23*
X43900000Y-57100000D03*
D24*
X43900000Y-59600000D03*
D25*
X33682500Y-52280000D03*
X35757500Y-52280000D03*
D26*
X73125000Y-49600000D03*
X75125000Y-49600000D03*
D27*
X45950000Y-41025000D03*
X45950000Y-39025000D03*
D26*
X73125000Y-57100000D03*
X75125000Y-57100000D03*
X73125000Y-54600000D03*
X75125000Y-54600000D03*
X58750000Y-49600000D03*
X60750000Y-49600000D03*
D28*
X60750000Y-57100000D03*
X58750000Y-57100000D03*
X60750000Y-54600000D03*
X58750000Y-54600000D03*
D26*
X73125000Y-52075000D03*
X75125000Y-52075000D03*
D23*
X50700000Y-57100000D03*
D24*
X50700000Y-59600000D03*
D27*
X50950000Y-41025000D03*
X50950000Y-39025000D03*
D26*
X73125000Y-59600000D03*
X75125000Y-59600000D03*
D27*
X48450000Y-41025000D03*
X48450000Y-39025000D03*
X53450000Y-41025000D03*
X53450000Y-39025000D03*
D29*
X41250000Y-51000000D03*
X41250000Y-53000000D03*
D26*
X58750000Y-52100000D03*
X60750000Y-52100000D03*
D14*
X65300000Y-44600000D03*
D15*
X65300000Y-47100000D03*
X65300000Y-49600000D03*
X65300000Y-52100000D03*
X65300000Y-54600000D03*
X65300000Y-57100000D03*
X65300000Y-59600000D03*
D27*
X43450000Y-41025000D03*
X43450000Y-39025000D03*
D29*
X50700000Y-63600000D03*
X50700000Y-65600000D03*
D28*
X60750000Y-59600000D03*
X58750000Y-59600000D03*
D29*
X43900000Y-63600000D03*
X43900000Y-65600000D03*
%LPD*%
M02*
