%TF.GenerationSoftware,KiCad,Pcbnew,7.0.6*%
%TF.CreationDate,2023-07-13T14:44:59+02:00*%
%TF.ProjectId,LH_HeadLogicBoard_FreeJoy,4c485f48-6561-4644-9c6f-676963426f61,rev?*%
%TF.SameCoordinates,Original*%
%TF.FileFunction,Legend,Top*%
%TF.FilePolarity,Positive*%
%FSLAX46Y46*%
G04 Gerber Fmt 4.6, Leading zero omitted, Abs format (unit mm)*
G04 Created by KiCad (PCBNEW 7.0.6) date 2023-07-13 14:44:59*
%MOMM*%
%LPD*%
G01*
G04 APERTURE LIST*
G04 Aperture macros list*
%AMRoundRect*
0 Rectangle with rounded corners*
0 $1 Rounding radius*
0 $2 $3 $4 $5 $6 $7 $8 $9 X,Y pos of 4 corners*
0 Add a 4 corners polygon primitive as box body*
4,1,4,$2,$3,$4,$5,$6,$7,$8,$9,$2,$3,0*
0 Add four circle primitives for the rounded corners*
1,1,$1+$1,$2,$3*
1,1,$1+$1,$4,$5*
1,1,$1+$1,$6,$7*
1,1,$1+$1,$8,$9*
0 Add four rect primitives between the rounded corners*
20,1,$1+$1,$2,$3,$4,$5,0*
20,1,$1+$1,$4,$5,$6,$7,0*
20,1,$1+$1,$6,$7,$8,$9,0*
20,1,$1+$1,$8,$9,$2,$3,0*%
G04 Aperture macros list end*
%ADD10C,0.150000*%
%ADD11C,0.075000*%
%ADD12C,0.120000*%
%ADD13RoundRect,0.250000X-0.350000X-0.450000X0.350000X-0.450000X0.350000X0.450000X-0.350000X0.450000X0*%
%ADD14RoundRect,0.250000X-0.337500X-0.475000X0.337500X-0.475000X0.337500X0.475000X-0.337500X0.475000X0*%
%ADD15RoundRect,0.250000X0.475000X-0.337500X0.475000X0.337500X-0.475000X0.337500X-0.475000X-0.337500X0*%
%ADD16RoundRect,0.250000X-0.725000X0.600000X-0.725000X-0.600000X0.725000X-0.600000X0.725000X0.600000X0*%
%ADD17O,1.950000X1.700000*%
%ADD18RoundRect,0.250000X0.600000X0.725000X-0.600000X0.725000X-0.600000X-0.725000X0.600000X-0.725000X0*%
%ADD19O,1.700000X1.950000*%
%ADD20C,2.200000*%
%ADD21RoundRect,0.250000X0.600000X0.750000X-0.600000X0.750000X-0.600000X-0.750000X0.600000X-0.750000X0*%
%ADD22O,1.700000X2.000000*%
%ADD23RoundRect,0.100000X0.100000X-0.637500X0.100000X0.637500X-0.100000X0.637500X-0.100000X-0.637500X0*%
%ADD24RoundRect,0.250000X-0.600000X-0.750000X0.600000X-0.750000X0.600000X0.750000X-0.600000X0.750000X0*%
%ADD25RoundRect,0.250000X-0.750000X0.600000X-0.750000X-0.600000X0.750000X-0.600000X0.750000X0.600000X0*%
%ADD26O,2.000000X1.700000*%
G04 APERTURE END LIST*
D10*
X30349819Y-69063220D02*
X29349819Y-69063220D01*
X29349819Y-69063220D02*
X30349819Y-68491792D01*
X30349819Y-68491792D02*
X29349819Y-68491792D01*
X30349819Y-67872744D02*
X30302200Y-67967982D01*
X30302200Y-67967982D02*
X30254580Y-68015601D01*
X30254580Y-68015601D02*
X30159342Y-68063220D01*
X30159342Y-68063220D02*
X29873628Y-68063220D01*
X29873628Y-68063220D02*
X29778390Y-68015601D01*
X29778390Y-68015601D02*
X29730771Y-67967982D01*
X29730771Y-67967982D02*
X29683152Y-67872744D01*
X29683152Y-67872744D02*
X29683152Y-67729887D01*
X29683152Y-67729887D02*
X29730771Y-67634649D01*
X29730771Y-67634649D02*
X29778390Y-67587030D01*
X29778390Y-67587030D02*
X29873628Y-67539411D01*
X29873628Y-67539411D02*
X30159342Y-67539411D01*
X30159342Y-67539411D02*
X30254580Y-67587030D01*
X30254580Y-67587030D02*
X30302200Y-67634649D01*
X30302200Y-67634649D02*
X30349819Y-67729887D01*
X30349819Y-67729887D02*
X30349819Y-67872744D01*
X30349819Y-67110839D02*
X29349819Y-67110839D01*
X29349819Y-67110839D02*
X29349819Y-66729887D01*
X29349819Y-66729887D02*
X29397438Y-66634649D01*
X29397438Y-66634649D02*
X29445057Y-66587030D01*
X29445057Y-66587030D02*
X29540295Y-66539411D01*
X29540295Y-66539411D02*
X29683152Y-66539411D01*
X29683152Y-66539411D02*
X29778390Y-66587030D01*
X29778390Y-66587030D02*
X29826009Y-66634649D01*
X29826009Y-66634649D02*
X29873628Y-66729887D01*
X29873628Y-66729887D02*
X29873628Y-67110839D01*
X30349819Y-65967982D02*
X30302200Y-66063220D01*
X30302200Y-66063220D02*
X30206961Y-66110839D01*
X30206961Y-66110839D02*
X29349819Y-66110839D01*
X30349819Y-65158458D02*
X29826009Y-65158458D01*
X29826009Y-65158458D02*
X29730771Y-65206077D01*
X29730771Y-65206077D02*
X29683152Y-65301315D01*
X29683152Y-65301315D02*
X29683152Y-65491791D01*
X29683152Y-65491791D02*
X29730771Y-65587029D01*
X30302200Y-65158458D02*
X30349819Y-65253696D01*
X30349819Y-65253696D02*
X30349819Y-65491791D01*
X30349819Y-65491791D02*
X30302200Y-65587029D01*
X30302200Y-65587029D02*
X30206961Y-65634648D01*
X30206961Y-65634648D02*
X30111723Y-65634648D01*
X30111723Y-65634648D02*
X30016485Y-65587029D01*
X30016485Y-65587029D02*
X29968866Y-65491791D01*
X29968866Y-65491791D02*
X29968866Y-65253696D01*
X29968866Y-65253696D02*
X29921247Y-65158458D01*
X29683152Y-64682267D02*
X30349819Y-64682267D01*
X29778390Y-64682267D02*
X29730771Y-64634648D01*
X29730771Y-64634648D02*
X29683152Y-64539410D01*
X29683152Y-64539410D02*
X29683152Y-64396553D01*
X29683152Y-64396553D02*
X29730771Y-64301315D01*
X29730771Y-64301315D02*
X29826009Y-64253696D01*
X29826009Y-64253696D02*
X30349819Y-64253696D01*
X30349819Y-63777505D02*
X29349819Y-63777505D01*
X29349819Y-63777505D02*
X30349819Y-63206077D01*
X30349819Y-63206077D02*
X29349819Y-63206077D01*
X30349819Y-62587029D02*
X30302200Y-62682267D01*
X30302200Y-62682267D02*
X30254580Y-62729886D01*
X30254580Y-62729886D02*
X30159342Y-62777505D01*
X30159342Y-62777505D02*
X29873628Y-62777505D01*
X29873628Y-62777505D02*
X29778390Y-62729886D01*
X29778390Y-62729886D02*
X29730771Y-62682267D01*
X29730771Y-62682267D02*
X29683152Y-62587029D01*
X29683152Y-62587029D02*
X29683152Y-62444172D01*
X29683152Y-62444172D02*
X29730771Y-62348934D01*
X29730771Y-62348934D02*
X29778390Y-62301315D01*
X29778390Y-62301315D02*
X29873628Y-62253696D01*
X29873628Y-62253696D02*
X30159342Y-62253696D01*
X30159342Y-62253696D02*
X30254580Y-62301315D01*
X30254580Y-62301315D02*
X30302200Y-62348934D01*
X30302200Y-62348934D02*
X30349819Y-62444172D01*
X30349819Y-62444172D02*
X30349819Y-62587029D01*
X30349819Y-61825124D02*
X29683152Y-61825124D01*
X29778390Y-61825124D02*
X29730771Y-61777505D01*
X29730771Y-61777505D02*
X29683152Y-61682267D01*
X29683152Y-61682267D02*
X29683152Y-61539410D01*
X29683152Y-61539410D02*
X29730771Y-61444172D01*
X29730771Y-61444172D02*
X29826009Y-61396553D01*
X29826009Y-61396553D02*
X30349819Y-61396553D01*
X29826009Y-61396553D02*
X29730771Y-61348934D01*
X29730771Y-61348934D02*
X29683152Y-61253696D01*
X29683152Y-61253696D02*
X29683152Y-61110839D01*
X29683152Y-61110839D02*
X29730771Y-61015600D01*
X29730771Y-61015600D02*
X29826009Y-60967981D01*
X29826009Y-60967981D02*
X30349819Y-60967981D01*
X30349819Y-60063220D02*
X29826009Y-60063220D01*
X29826009Y-60063220D02*
X29730771Y-60110839D01*
X29730771Y-60110839D02*
X29683152Y-60206077D01*
X29683152Y-60206077D02*
X29683152Y-60396553D01*
X29683152Y-60396553D02*
X29730771Y-60491791D01*
X30302200Y-60063220D02*
X30349819Y-60158458D01*
X30349819Y-60158458D02*
X30349819Y-60396553D01*
X30349819Y-60396553D02*
X30302200Y-60491791D01*
X30302200Y-60491791D02*
X30206961Y-60539410D01*
X30206961Y-60539410D02*
X30111723Y-60539410D01*
X30111723Y-60539410D02*
X30016485Y-60491791D01*
X30016485Y-60491791D02*
X29968866Y-60396553D01*
X29968866Y-60396553D02*
X29968866Y-60158458D01*
X29968866Y-60158458D02*
X29921247Y-60063220D01*
X30349819Y-59158458D02*
X29349819Y-59158458D01*
X30302200Y-59158458D02*
X30349819Y-59253696D01*
X30349819Y-59253696D02*
X30349819Y-59444172D01*
X30349819Y-59444172D02*
X30302200Y-59539410D01*
X30302200Y-59539410D02*
X30254580Y-59587029D01*
X30254580Y-59587029D02*
X30159342Y-59634648D01*
X30159342Y-59634648D02*
X29873628Y-59634648D01*
X29873628Y-59634648D02*
X29778390Y-59587029D01*
X29778390Y-59587029D02*
X29730771Y-59539410D01*
X29730771Y-59539410D02*
X29683152Y-59444172D01*
X29683152Y-59444172D02*
X29683152Y-59253696D01*
X29683152Y-59253696D02*
X29730771Y-59158458D01*
X31436009Y-68729887D02*
X31436009Y-69063220D01*
X31959819Y-69063220D02*
X30959819Y-69063220D01*
X30959819Y-69063220D02*
X30959819Y-68587030D01*
X31959819Y-68063220D02*
X31912200Y-68158458D01*
X31912200Y-68158458D02*
X31816961Y-68206077D01*
X31816961Y-68206077D02*
X30959819Y-68206077D01*
X31959819Y-67253696D02*
X31436009Y-67253696D01*
X31436009Y-67253696D02*
X31340771Y-67301315D01*
X31340771Y-67301315D02*
X31293152Y-67396553D01*
X31293152Y-67396553D02*
X31293152Y-67587029D01*
X31293152Y-67587029D02*
X31340771Y-67682267D01*
X31912200Y-67253696D02*
X31959819Y-67348934D01*
X31959819Y-67348934D02*
X31959819Y-67587029D01*
X31959819Y-67587029D02*
X31912200Y-67682267D01*
X31912200Y-67682267D02*
X31816961Y-67729886D01*
X31816961Y-67729886D02*
X31721723Y-67729886D01*
X31721723Y-67729886D02*
X31626485Y-67682267D01*
X31626485Y-67682267D02*
X31578866Y-67587029D01*
X31578866Y-67587029D02*
X31578866Y-67348934D01*
X31578866Y-67348934D02*
X31531247Y-67253696D01*
X31293152Y-66777505D02*
X31959819Y-66777505D01*
X31388390Y-66777505D02*
X31340771Y-66729886D01*
X31340771Y-66729886D02*
X31293152Y-66634648D01*
X31293152Y-66634648D02*
X31293152Y-66491791D01*
X31293152Y-66491791D02*
X31340771Y-66396553D01*
X31340771Y-66396553D02*
X31436009Y-66348934D01*
X31436009Y-66348934D02*
X31959819Y-66348934D01*
X31959819Y-65872743D02*
X30959819Y-65872743D01*
X31578866Y-65777505D02*
X31959819Y-65491791D01*
X31293152Y-65491791D02*
X31674104Y-65872743D01*
X31912200Y-64682267D02*
X31959819Y-64777505D01*
X31959819Y-64777505D02*
X31959819Y-64967981D01*
X31959819Y-64967981D02*
X31912200Y-65063219D01*
X31912200Y-65063219D02*
X31816961Y-65110838D01*
X31816961Y-65110838D02*
X31436009Y-65110838D01*
X31436009Y-65110838D02*
X31340771Y-65063219D01*
X31340771Y-65063219D02*
X31293152Y-64967981D01*
X31293152Y-64967981D02*
X31293152Y-64777505D01*
X31293152Y-64777505D02*
X31340771Y-64682267D01*
X31340771Y-64682267D02*
X31436009Y-64634648D01*
X31436009Y-64634648D02*
X31531247Y-64634648D01*
X31531247Y-64634648D02*
X31626485Y-65110838D01*
X31959819Y-64206076D02*
X31293152Y-64206076D01*
X31483628Y-64206076D02*
X31388390Y-64158457D01*
X31388390Y-64158457D02*
X31340771Y-64110838D01*
X31340771Y-64110838D02*
X31293152Y-64015600D01*
X31293152Y-64015600D02*
X31293152Y-63920362D01*
X31959819Y-62348933D02*
X31959819Y-62825123D01*
X31959819Y-62825123D02*
X30959819Y-62825123D01*
X31912200Y-61634647D02*
X31959819Y-61729885D01*
X31959819Y-61729885D02*
X31959819Y-61920361D01*
X31959819Y-61920361D02*
X31912200Y-62015599D01*
X31912200Y-62015599D02*
X31816961Y-62063218D01*
X31816961Y-62063218D02*
X31436009Y-62063218D01*
X31436009Y-62063218D02*
X31340771Y-62015599D01*
X31340771Y-62015599D02*
X31293152Y-61920361D01*
X31293152Y-61920361D02*
X31293152Y-61729885D01*
X31293152Y-61729885D02*
X31340771Y-61634647D01*
X31340771Y-61634647D02*
X31436009Y-61587028D01*
X31436009Y-61587028D02*
X31531247Y-61587028D01*
X31531247Y-61587028D02*
X31626485Y-62063218D01*
X31293152Y-61301313D02*
X31293152Y-60920361D01*
X31959819Y-61158456D02*
X31102676Y-61158456D01*
X31102676Y-61158456D02*
X31007438Y-61110837D01*
X31007438Y-61110837D02*
X30959819Y-61015599D01*
X30959819Y-61015599D02*
X30959819Y-60920361D01*
X31293152Y-60729884D02*
X31293152Y-60348932D01*
X30959819Y-60587027D02*
X31816961Y-60587027D01*
X31816961Y-60587027D02*
X31912200Y-60539408D01*
X31912200Y-60539408D02*
X31959819Y-60444170D01*
X31959819Y-60444170D02*
X31959819Y-60348932D01*
X31959819Y-59253693D02*
X30959819Y-59253693D01*
X31436009Y-59253693D02*
X31436009Y-58682265D01*
X31959819Y-58682265D02*
X30959819Y-58682265D01*
X31959819Y-57777503D02*
X31436009Y-57777503D01*
X31436009Y-57777503D02*
X31340771Y-57825122D01*
X31340771Y-57825122D02*
X31293152Y-57920360D01*
X31293152Y-57920360D02*
X31293152Y-58110836D01*
X31293152Y-58110836D02*
X31340771Y-58206074D01*
X31912200Y-57777503D02*
X31959819Y-57872741D01*
X31959819Y-57872741D02*
X31959819Y-58110836D01*
X31959819Y-58110836D02*
X31912200Y-58206074D01*
X31912200Y-58206074D02*
X31816961Y-58253693D01*
X31816961Y-58253693D02*
X31721723Y-58253693D01*
X31721723Y-58253693D02*
X31626485Y-58206074D01*
X31626485Y-58206074D02*
X31578866Y-58110836D01*
X31578866Y-58110836D02*
X31578866Y-57872741D01*
X31578866Y-57872741D02*
X31531247Y-57777503D01*
X31293152Y-57301312D02*
X31959819Y-57301312D01*
X31388390Y-57301312D02*
X31340771Y-57253693D01*
X31340771Y-57253693D02*
X31293152Y-57158455D01*
X31293152Y-57158455D02*
X31293152Y-57015598D01*
X31293152Y-57015598D02*
X31340771Y-56920360D01*
X31340771Y-56920360D02*
X31436009Y-56872741D01*
X31436009Y-56872741D02*
X31959819Y-56872741D01*
X31959819Y-55967979D02*
X30959819Y-55967979D01*
X31912200Y-55967979D02*
X31959819Y-56063217D01*
X31959819Y-56063217D02*
X31959819Y-56253693D01*
X31959819Y-56253693D02*
X31912200Y-56348931D01*
X31912200Y-56348931D02*
X31864580Y-56396550D01*
X31864580Y-56396550D02*
X31769342Y-56444169D01*
X31769342Y-56444169D02*
X31483628Y-56444169D01*
X31483628Y-56444169D02*
X31388390Y-56396550D01*
X31388390Y-56396550D02*
X31340771Y-56348931D01*
X31340771Y-56348931D02*
X31293152Y-56253693D01*
X31293152Y-56253693D02*
X31293152Y-56063217D01*
X31293152Y-56063217D02*
X31340771Y-55967979D01*
X33046009Y-68729887D02*
X33046009Y-69063220D01*
X33569819Y-69063220D02*
X32569819Y-69063220D01*
X32569819Y-69063220D02*
X32569819Y-68587030D01*
X32569819Y-67920363D02*
X33284104Y-67920363D01*
X33284104Y-67920363D02*
X33426961Y-67967982D01*
X33426961Y-67967982D02*
X33522200Y-68063220D01*
X33522200Y-68063220D02*
X33569819Y-68206077D01*
X33569819Y-68206077D02*
X33569819Y-68301315D01*
X33569819Y-66682267D02*
X32569819Y-66682267D01*
X33046009Y-66682267D02*
X33046009Y-66110839D01*
X33569819Y-66110839D02*
X32569819Y-66110839D01*
X33522200Y-65253696D02*
X33569819Y-65348934D01*
X33569819Y-65348934D02*
X33569819Y-65539410D01*
X33569819Y-65539410D02*
X33522200Y-65634648D01*
X33522200Y-65634648D02*
X33426961Y-65682267D01*
X33426961Y-65682267D02*
X33046009Y-65682267D01*
X33046009Y-65682267D02*
X32950771Y-65634648D01*
X32950771Y-65634648D02*
X32903152Y-65539410D01*
X32903152Y-65539410D02*
X32903152Y-65348934D01*
X32903152Y-65348934D02*
X32950771Y-65253696D01*
X32950771Y-65253696D02*
X33046009Y-65206077D01*
X33046009Y-65206077D02*
X33141247Y-65206077D01*
X33141247Y-65206077D02*
X33236485Y-65682267D01*
X33569819Y-64348934D02*
X33046009Y-64348934D01*
X33046009Y-64348934D02*
X32950771Y-64396553D01*
X32950771Y-64396553D02*
X32903152Y-64491791D01*
X32903152Y-64491791D02*
X32903152Y-64682267D01*
X32903152Y-64682267D02*
X32950771Y-64777505D01*
X33522200Y-64348934D02*
X33569819Y-64444172D01*
X33569819Y-64444172D02*
X33569819Y-64682267D01*
X33569819Y-64682267D02*
X33522200Y-64777505D01*
X33522200Y-64777505D02*
X33426961Y-64825124D01*
X33426961Y-64825124D02*
X33331723Y-64825124D01*
X33331723Y-64825124D02*
X33236485Y-64777505D01*
X33236485Y-64777505D02*
X33188866Y-64682267D01*
X33188866Y-64682267D02*
X33188866Y-64444172D01*
X33188866Y-64444172D02*
X33141247Y-64348934D01*
X33569819Y-63444172D02*
X32569819Y-63444172D01*
X33522200Y-63444172D02*
X33569819Y-63539410D01*
X33569819Y-63539410D02*
X33569819Y-63729886D01*
X33569819Y-63729886D02*
X33522200Y-63825124D01*
X33522200Y-63825124D02*
X33474580Y-63872743D01*
X33474580Y-63872743D02*
X33379342Y-63920362D01*
X33379342Y-63920362D02*
X33093628Y-63920362D01*
X33093628Y-63920362D02*
X32998390Y-63872743D01*
X32998390Y-63872743D02*
X32950771Y-63825124D01*
X32950771Y-63825124D02*
X32903152Y-63729886D01*
X32903152Y-63729886D02*
X32903152Y-63539410D01*
X32903152Y-63539410D02*
X32950771Y-63444172D01*
X33569819Y-61729886D02*
X33569819Y-62206076D01*
X33569819Y-62206076D02*
X32569819Y-62206076D01*
X33569819Y-61253695D02*
X33522200Y-61348933D01*
X33522200Y-61348933D02*
X33474580Y-61396552D01*
X33474580Y-61396552D02*
X33379342Y-61444171D01*
X33379342Y-61444171D02*
X33093628Y-61444171D01*
X33093628Y-61444171D02*
X32998390Y-61396552D01*
X32998390Y-61396552D02*
X32950771Y-61348933D01*
X32950771Y-61348933D02*
X32903152Y-61253695D01*
X32903152Y-61253695D02*
X32903152Y-61110838D01*
X32903152Y-61110838D02*
X32950771Y-61015600D01*
X32950771Y-61015600D02*
X32998390Y-60967981D01*
X32998390Y-60967981D02*
X33093628Y-60920362D01*
X33093628Y-60920362D02*
X33379342Y-60920362D01*
X33379342Y-60920362D02*
X33474580Y-60967981D01*
X33474580Y-60967981D02*
X33522200Y-61015600D01*
X33522200Y-61015600D02*
X33569819Y-61110838D01*
X33569819Y-61110838D02*
X33569819Y-61253695D01*
X32903152Y-60063219D02*
X33712676Y-60063219D01*
X33712676Y-60063219D02*
X33807914Y-60110838D01*
X33807914Y-60110838D02*
X33855533Y-60158457D01*
X33855533Y-60158457D02*
X33903152Y-60253695D01*
X33903152Y-60253695D02*
X33903152Y-60396552D01*
X33903152Y-60396552D02*
X33855533Y-60491790D01*
X33522200Y-60063219D02*
X33569819Y-60158457D01*
X33569819Y-60158457D02*
X33569819Y-60348933D01*
X33569819Y-60348933D02*
X33522200Y-60444171D01*
X33522200Y-60444171D02*
X33474580Y-60491790D01*
X33474580Y-60491790D02*
X33379342Y-60539409D01*
X33379342Y-60539409D02*
X33093628Y-60539409D01*
X33093628Y-60539409D02*
X32998390Y-60491790D01*
X32998390Y-60491790D02*
X32950771Y-60444171D01*
X32950771Y-60444171D02*
X32903152Y-60348933D01*
X32903152Y-60348933D02*
X32903152Y-60158457D01*
X32903152Y-60158457D02*
X32950771Y-60063219D01*
X33569819Y-59587028D02*
X32903152Y-59587028D01*
X32569819Y-59587028D02*
X32617438Y-59634647D01*
X32617438Y-59634647D02*
X32665057Y-59587028D01*
X32665057Y-59587028D02*
X32617438Y-59539409D01*
X32617438Y-59539409D02*
X32569819Y-59587028D01*
X32569819Y-59587028D02*
X32665057Y-59587028D01*
X33522200Y-58682267D02*
X33569819Y-58777505D01*
X33569819Y-58777505D02*
X33569819Y-58967981D01*
X33569819Y-58967981D02*
X33522200Y-59063219D01*
X33522200Y-59063219D02*
X33474580Y-59110838D01*
X33474580Y-59110838D02*
X33379342Y-59158457D01*
X33379342Y-59158457D02*
X33093628Y-59158457D01*
X33093628Y-59158457D02*
X32998390Y-59110838D01*
X32998390Y-59110838D02*
X32950771Y-59063219D01*
X32950771Y-59063219D02*
X32903152Y-58967981D01*
X32903152Y-58967981D02*
X32903152Y-58777505D01*
X32903152Y-58777505D02*
X32950771Y-58682267D01*
X33046009Y-57158457D02*
X33093628Y-57015600D01*
X33093628Y-57015600D02*
X33141247Y-56967981D01*
X33141247Y-56967981D02*
X33236485Y-56920362D01*
X33236485Y-56920362D02*
X33379342Y-56920362D01*
X33379342Y-56920362D02*
X33474580Y-56967981D01*
X33474580Y-56967981D02*
X33522200Y-57015600D01*
X33522200Y-57015600D02*
X33569819Y-57110838D01*
X33569819Y-57110838D02*
X33569819Y-57491790D01*
X33569819Y-57491790D02*
X32569819Y-57491790D01*
X32569819Y-57491790D02*
X32569819Y-57158457D01*
X32569819Y-57158457D02*
X32617438Y-57063219D01*
X32617438Y-57063219D02*
X32665057Y-57015600D01*
X32665057Y-57015600D02*
X32760295Y-56967981D01*
X32760295Y-56967981D02*
X32855533Y-56967981D01*
X32855533Y-56967981D02*
X32950771Y-57015600D01*
X32950771Y-57015600D02*
X32998390Y-57063219D01*
X32998390Y-57063219D02*
X33046009Y-57158457D01*
X33046009Y-57158457D02*
X33046009Y-57491790D01*
X33569819Y-56348933D02*
X33522200Y-56444171D01*
X33522200Y-56444171D02*
X33474580Y-56491790D01*
X33474580Y-56491790D02*
X33379342Y-56539409D01*
X33379342Y-56539409D02*
X33093628Y-56539409D01*
X33093628Y-56539409D02*
X32998390Y-56491790D01*
X32998390Y-56491790D02*
X32950771Y-56444171D01*
X32950771Y-56444171D02*
X32903152Y-56348933D01*
X32903152Y-56348933D02*
X32903152Y-56206076D01*
X32903152Y-56206076D02*
X32950771Y-56110838D01*
X32950771Y-56110838D02*
X32998390Y-56063219D01*
X32998390Y-56063219D02*
X33093628Y-56015600D01*
X33093628Y-56015600D02*
X33379342Y-56015600D01*
X33379342Y-56015600D02*
X33474580Y-56063219D01*
X33474580Y-56063219D02*
X33522200Y-56110838D01*
X33522200Y-56110838D02*
X33569819Y-56206076D01*
X33569819Y-56206076D02*
X33569819Y-56348933D01*
X33569819Y-55158457D02*
X33046009Y-55158457D01*
X33046009Y-55158457D02*
X32950771Y-55206076D01*
X32950771Y-55206076D02*
X32903152Y-55301314D01*
X32903152Y-55301314D02*
X32903152Y-55491790D01*
X32903152Y-55491790D02*
X32950771Y-55587028D01*
X33522200Y-55158457D02*
X33569819Y-55253695D01*
X33569819Y-55253695D02*
X33569819Y-55491790D01*
X33569819Y-55491790D02*
X33522200Y-55587028D01*
X33522200Y-55587028D02*
X33426961Y-55634647D01*
X33426961Y-55634647D02*
X33331723Y-55634647D01*
X33331723Y-55634647D02*
X33236485Y-55587028D01*
X33236485Y-55587028D02*
X33188866Y-55491790D01*
X33188866Y-55491790D02*
X33188866Y-55253695D01*
X33188866Y-55253695D02*
X33141247Y-55158457D01*
X33569819Y-54682266D02*
X32903152Y-54682266D01*
X33093628Y-54682266D02*
X32998390Y-54634647D01*
X32998390Y-54634647D02*
X32950771Y-54587028D01*
X32950771Y-54587028D02*
X32903152Y-54491790D01*
X32903152Y-54491790D02*
X32903152Y-54396552D01*
X33569819Y-53634647D02*
X32569819Y-53634647D01*
X33522200Y-53634647D02*
X33569819Y-53729885D01*
X33569819Y-53729885D02*
X33569819Y-53920361D01*
X33569819Y-53920361D02*
X33522200Y-54015599D01*
X33522200Y-54015599D02*
X33474580Y-54063218D01*
X33474580Y-54063218D02*
X33379342Y-54110837D01*
X33379342Y-54110837D02*
X33093628Y-54110837D01*
X33093628Y-54110837D02*
X32998390Y-54063218D01*
X32998390Y-54063218D02*
X32950771Y-54015599D01*
X32950771Y-54015599D02*
X32903152Y-53920361D01*
X32903152Y-53920361D02*
X32903152Y-53729885D01*
X32903152Y-53729885D02*
X32950771Y-53634647D01*
D11*
X63352409Y-65559428D02*
X63114314Y-65726094D01*
X63352409Y-65845142D02*
X62852409Y-65845142D01*
X62852409Y-65845142D02*
X62852409Y-65654666D01*
X62852409Y-65654666D02*
X62876219Y-65607047D01*
X62876219Y-65607047D02*
X62900028Y-65583237D01*
X62900028Y-65583237D02*
X62947647Y-65559428D01*
X62947647Y-65559428D02*
X63019076Y-65559428D01*
X63019076Y-65559428D02*
X63066695Y-65583237D01*
X63066695Y-65583237D02*
X63090504Y-65607047D01*
X63090504Y-65607047D02*
X63114314Y-65654666D01*
X63114314Y-65654666D02*
X63114314Y-65845142D01*
X63352409Y-65083237D02*
X63352409Y-65368951D01*
X63352409Y-65226094D02*
X62852409Y-65226094D01*
X62852409Y-65226094D02*
X62923838Y-65273713D01*
X62923838Y-65273713D02*
X62971457Y-65321332D01*
X62971457Y-65321332D02*
X62995266Y-65368951D01*
X62852409Y-64916571D02*
X62852409Y-64607047D01*
X62852409Y-64607047D02*
X63042885Y-64773714D01*
X63042885Y-64773714D02*
X63042885Y-64702285D01*
X63042885Y-64702285D02*
X63066695Y-64654666D01*
X63066695Y-64654666D02*
X63090504Y-64630857D01*
X63090504Y-64630857D02*
X63138123Y-64607047D01*
X63138123Y-64607047D02*
X63257171Y-64607047D01*
X63257171Y-64607047D02*
X63304790Y-64630857D01*
X63304790Y-64630857D02*
X63328600Y-64654666D01*
X63328600Y-64654666D02*
X63352409Y-64702285D01*
X63352409Y-64702285D02*
X63352409Y-64845142D01*
X63352409Y-64845142D02*
X63328600Y-64892761D01*
X63328600Y-64892761D02*
X63304790Y-64916571D01*
X62757590Y-62420571D02*
X62995685Y-62253905D01*
X62757590Y-62134857D02*
X63257590Y-62134857D01*
X63257590Y-62134857D02*
X63257590Y-62325333D01*
X63257590Y-62325333D02*
X63233780Y-62372952D01*
X63233780Y-62372952D02*
X63209971Y-62396762D01*
X63209971Y-62396762D02*
X63162352Y-62420571D01*
X63162352Y-62420571D02*
X63090923Y-62420571D01*
X63090923Y-62420571D02*
X63043304Y-62396762D01*
X63043304Y-62396762D02*
X63019495Y-62372952D01*
X63019495Y-62372952D02*
X62995685Y-62325333D01*
X62995685Y-62325333D02*
X62995685Y-62134857D01*
X62757590Y-62896762D02*
X62757590Y-62611048D01*
X62757590Y-62753905D02*
X63257590Y-62753905D01*
X63257590Y-62753905D02*
X63186161Y-62706286D01*
X63186161Y-62706286D02*
X63138542Y-62658667D01*
X63138542Y-62658667D02*
X63114733Y-62611048D01*
X63257590Y-63349142D02*
X63257590Y-63111047D01*
X63257590Y-63111047D02*
X63019495Y-63087238D01*
X63019495Y-63087238D02*
X63043304Y-63111047D01*
X63043304Y-63111047D02*
X63067114Y-63158666D01*
X63067114Y-63158666D02*
X63067114Y-63277714D01*
X63067114Y-63277714D02*
X63043304Y-63325333D01*
X63043304Y-63325333D02*
X63019495Y-63349142D01*
X63019495Y-63349142D02*
X62971876Y-63372952D01*
X62971876Y-63372952D02*
X62852828Y-63372952D01*
X62852828Y-63372952D02*
X62805209Y-63349142D01*
X62805209Y-63349142D02*
X62781400Y-63325333D01*
X62781400Y-63325333D02*
X62757590Y-63277714D01*
X62757590Y-63277714D02*
X62757590Y-63158666D01*
X62757590Y-63158666D02*
X62781400Y-63111047D01*
X62781400Y-63111047D02*
X62805209Y-63087238D01*
D10*
X36733333Y-57479580D02*
X36685714Y-57527200D01*
X36685714Y-57527200D02*
X36542857Y-57574819D01*
X36542857Y-57574819D02*
X36447619Y-57574819D01*
X36447619Y-57574819D02*
X36304762Y-57527200D01*
X36304762Y-57527200D02*
X36209524Y-57431961D01*
X36209524Y-57431961D02*
X36161905Y-57336723D01*
X36161905Y-57336723D02*
X36114286Y-57146247D01*
X36114286Y-57146247D02*
X36114286Y-57003390D01*
X36114286Y-57003390D02*
X36161905Y-56812914D01*
X36161905Y-56812914D02*
X36209524Y-56717676D01*
X36209524Y-56717676D02*
X36304762Y-56622438D01*
X36304762Y-56622438D02*
X36447619Y-56574819D01*
X36447619Y-56574819D02*
X36542857Y-56574819D01*
X36542857Y-56574819D02*
X36685714Y-56622438D01*
X36685714Y-56622438D02*
X36733333Y-56670057D01*
X37066667Y-56574819D02*
X37685714Y-56574819D01*
X37685714Y-56574819D02*
X37352381Y-56955771D01*
X37352381Y-56955771D02*
X37495238Y-56955771D01*
X37495238Y-56955771D02*
X37590476Y-57003390D01*
X37590476Y-57003390D02*
X37638095Y-57051009D01*
X37638095Y-57051009D02*
X37685714Y-57146247D01*
X37685714Y-57146247D02*
X37685714Y-57384342D01*
X37685714Y-57384342D02*
X37638095Y-57479580D01*
X37638095Y-57479580D02*
X37590476Y-57527200D01*
X37590476Y-57527200D02*
X37495238Y-57574819D01*
X37495238Y-57574819D02*
X37209524Y-57574819D01*
X37209524Y-57574819D02*
X37114286Y-57527200D01*
X37114286Y-57527200D02*
X37066667Y-57479580D01*
X32729580Y-39041666D02*
X32777200Y-39089285D01*
X32777200Y-39089285D02*
X32824819Y-39232142D01*
X32824819Y-39232142D02*
X32824819Y-39327380D01*
X32824819Y-39327380D02*
X32777200Y-39470237D01*
X32777200Y-39470237D02*
X32681961Y-39565475D01*
X32681961Y-39565475D02*
X32586723Y-39613094D01*
X32586723Y-39613094D02*
X32396247Y-39660713D01*
X32396247Y-39660713D02*
X32253390Y-39660713D01*
X32253390Y-39660713D02*
X32062914Y-39613094D01*
X32062914Y-39613094D02*
X31967676Y-39565475D01*
X31967676Y-39565475D02*
X31872438Y-39470237D01*
X31872438Y-39470237D02*
X31824819Y-39327380D01*
X31824819Y-39327380D02*
X31824819Y-39232142D01*
X31824819Y-39232142D02*
X31872438Y-39089285D01*
X31872438Y-39089285D02*
X31920057Y-39041666D01*
X31920057Y-38660713D02*
X31872438Y-38613094D01*
X31872438Y-38613094D02*
X31824819Y-38517856D01*
X31824819Y-38517856D02*
X31824819Y-38279761D01*
X31824819Y-38279761D02*
X31872438Y-38184523D01*
X31872438Y-38184523D02*
X31920057Y-38136904D01*
X31920057Y-38136904D02*
X32015295Y-38089285D01*
X32015295Y-38089285D02*
X32110533Y-38089285D01*
X32110533Y-38089285D02*
X32253390Y-38136904D01*
X32253390Y-38136904D02*
X32824819Y-38708332D01*
X32824819Y-38708332D02*
X32824819Y-38089285D01*
X68454819Y-44933333D02*
X69169104Y-44933333D01*
X69169104Y-44933333D02*
X69311961Y-44980952D01*
X69311961Y-44980952D02*
X69407200Y-45076190D01*
X69407200Y-45076190D02*
X69454819Y-45219047D01*
X69454819Y-45219047D02*
X69454819Y-45314285D01*
X68550057Y-44504761D02*
X68502438Y-44457142D01*
X68502438Y-44457142D02*
X68454819Y-44361904D01*
X68454819Y-44361904D02*
X68454819Y-44123809D01*
X68454819Y-44123809D02*
X68502438Y-44028571D01*
X68502438Y-44028571D02*
X68550057Y-43980952D01*
X68550057Y-43980952D02*
X68645295Y-43933333D01*
X68645295Y-43933333D02*
X68740533Y-43933333D01*
X68740533Y-43933333D02*
X68883390Y-43980952D01*
X68883390Y-43980952D02*
X69454819Y-44552380D01*
X69454819Y-44552380D02*
X69454819Y-43933333D01*
D11*
X62937590Y-59920571D02*
X63175685Y-59753905D01*
X62937590Y-59634857D02*
X63437590Y-59634857D01*
X63437590Y-59634857D02*
X63437590Y-59825333D01*
X63437590Y-59825333D02*
X63413780Y-59872952D01*
X63413780Y-59872952D02*
X63389971Y-59896762D01*
X63389971Y-59896762D02*
X63342352Y-59920571D01*
X63342352Y-59920571D02*
X63270923Y-59920571D01*
X63270923Y-59920571D02*
X63223304Y-59896762D01*
X63223304Y-59896762D02*
X63199495Y-59872952D01*
X63199495Y-59872952D02*
X63175685Y-59825333D01*
X63175685Y-59825333D02*
X63175685Y-59634857D01*
X62937590Y-60396762D02*
X62937590Y-60111048D01*
X62937590Y-60253905D02*
X63437590Y-60253905D01*
X63437590Y-60253905D02*
X63366161Y-60206286D01*
X63366161Y-60206286D02*
X63318542Y-60158667D01*
X63318542Y-60158667D02*
X63294733Y-60111048D01*
X63437590Y-60825333D02*
X63437590Y-60730095D01*
X63437590Y-60730095D02*
X63413780Y-60682476D01*
X63413780Y-60682476D02*
X63389971Y-60658666D01*
X63389971Y-60658666D02*
X63318542Y-60611047D01*
X63318542Y-60611047D02*
X63223304Y-60587238D01*
X63223304Y-60587238D02*
X63032828Y-60587238D01*
X63032828Y-60587238D02*
X62985209Y-60611047D01*
X62985209Y-60611047D02*
X62961400Y-60634857D01*
X62961400Y-60634857D02*
X62937590Y-60682476D01*
X62937590Y-60682476D02*
X62937590Y-60777714D01*
X62937590Y-60777714D02*
X62961400Y-60825333D01*
X62961400Y-60825333D02*
X62985209Y-60849142D01*
X62985209Y-60849142D02*
X63032828Y-60872952D01*
X63032828Y-60872952D02*
X63151876Y-60872952D01*
X63151876Y-60872952D02*
X63199495Y-60849142D01*
X63199495Y-60849142D02*
X63223304Y-60825333D01*
X63223304Y-60825333D02*
X63247114Y-60777714D01*
X63247114Y-60777714D02*
X63247114Y-60682476D01*
X63247114Y-60682476D02*
X63223304Y-60634857D01*
X63223304Y-60634857D02*
X63199495Y-60611047D01*
X63199495Y-60611047D02*
X63151876Y-60587238D01*
D10*
X67416666Y-33704819D02*
X67416666Y-34419104D01*
X67416666Y-34419104D02*
X67369047Y-34561961D01*
X67369047Y-34561961D02*
X67273809Y-34657200D01*
X67273809Y-34657200D02*
X67130952Y-34704819D01*
X67130952Y-34704819D02*
X67035714Y-34704819D01*
X68035714Y-34133390D02*
X67940476Y-34085771D01*
X67940476Y-34085771D02*
X67892857Y-34038152D01*
X67892857Y-34038152D02*
X67845238Y-33942914D01*
X67845238Y-33942914D02*
X67845238Y-33895295D01*
X67845238Y-33895295D02*
X67892857Y-33800057D01*
X67892857Y-33800057D02*
X67940476Y-33752438D01*
X67940476Y-33752438D02*
X68035714Y-33704819D01*
X68035714Y-33704819D02*
X68226190Y-33704819D01*
X68226190Y-33704819D02*
X68321428Y-33752438D01*
X68321428Y-33752438D02*
X68369047Y-33800057D01*
X68369047Y-33800057D02*
X68416666Y-33895295D01*
X68416666Y-33895295D02*
X68416666Y-33942914D01*
X68416666Y-33942914D02*
X68369047Y-34038152D01*
X68369047Y-34038152D02*
X68321428Y-34085771D01*
X68321428Y-34085771D02*
X68226190Y-34133390D01*
X68226190Y-34133390D02*
X68035714Y-34133390D01*
X68035714Y-34133390D02*
X67940476Y-34181009D01*
X67940476Y-34181009D02*
X67892857Y-34228628D01*
X67892857Y-34228628D02*
X67845238Y-34323866D01*
X67845238Y-34323866D02*
X67845238Y-34514342D01*
X67845238Y-34514342D02*
X67892857Y-34609580D01*
X67892857Y-34609580D02*
X67940476Y-34657200D01*
X67940476Y-34657200D02*
X68035714Y-34704819D01*
X68035714Y-34704819D02*
X68226190Y-34704819D01*
X68226190Y-34704819D02*
X68321428Y-34657200D01*
X68321428Y-34657200D02*
X68369047Y-34609580D01*
X68369047Y-34609580D02*
X68416666Y-34514342D01*
X68416666Y-34514342D02*
X68416666Y-34323866D01*
X68416666Y-34323866D02*
X68369047Y-34228628D01*
X68369047Y-34228628D02*
X68321428Y-34181009D01*
X68321428Y-34181009D02*
X68226190Y-34133390D01*
D11*
X62807590Y-57460571D02*
X63045685Y-57293905D01*
X62807590Y-57174857D02*
X63307590Y-57174857D01*
X63307590Y-57174857D02*
X63307590Y-57365333D01*
X63307590Y-57365333D02*
X63283780Y-57412952D01*
X63283780Y-57412952D02*
X63259971Y-57436762D01*
X63259971Y-57436762D02*
X63212352Y-57460571D01*
X63212352Y-57460571D02*
X63140923Y-57460571D01*
X63140923Y-57460571D02*
X63093304Y-57436762D01*
X63093304Y-57436762D02*
X63069495Y-57412952D01*
X63069495Y-57412952D02*
X63045685Y-57365333D01*
X63045685Y-57365333D02*
X63045685Y-57174857D01*
X62807590Y-57936762D02*
X62807590Y-57651048D01*
X62807590Y-57793905D02*
X63307590Y-57793905D01*
X63307590Y-57793905D02*
X63236161Y-57746286D01*
X63236161Y-57746286D02*
X63188542Y-57698667D01*
X63188542Y-57698667D02*
X63164733Y-57651048D01*
X63307590Y-58103428D02*
X63307590Y-58436761D01*
X63307590Y-58436761D02*
X62807590Y-58222476D01*
D10*
X55190476Y-40454819D02*
X55190476Y-41169104D01*
X55190476Y-41169104D02*
X55142857Y-41311961D01*
X55142857Y-41311961D02*
X55047619Y-41407200D01*
X55047619Y-41407200D02*
X54904762Y-41454819D01*
X54904762Y-41454819D02*
X54809524Y-41454819D01*
X56190476Y-41454819D02*
X55619048Y-41454819D01*
X55904762Y-41454819D02*
X55904762Y-40454819D01*
X55904762Y-40454819D02*
X55809524Y-40597676D01*
X55809524Y-40597676D02*
X55714286Y-40692914D01*
X55714286Y-40692914D02*
X55619048Y-40740533D01*
X56809524Y-40454819D02*
X56904762Y-40454819D01*
X56904762Y-40454819D02*
X57000000Y-40502438D01*
X57000000Y-40502438D02*
X57047619Y-40550057D01*
X57047619Y-40550057D02*
X57095238Y-40645295D01*
X57095238Y-40645295D02*
X57142857Y-40835771D01*
X57142857Y-40835771D02*
X57142857Y-41073866D01*
X57142857Y-41073866D02*
X57095238Y-41264342D01*
X57095238Y-41264342D02*
X57047619Y-41359580D01*
X57047619Y-41359580D02*
X57000000Y-41407200D01*
X57000000Y-41407200D02*
X56904762Y-41454819D01*
X56904762Y-41454819D02*
X56809524Y-41454819D01*
X56809524Y-41454819D02*
X56714286Y-41407200D01*
X56714286Y-41407200D02*
X56666667Y-41359580D01*
X56666667Y-41359580D02*
X56619048Y-41264342D01*
X56619048Y-41264342D02*
X56571429Y-41073866D01*
X56571429Y-41073866D02*
X56571429Y-40835771D01*
X56571429Y-40835771D02*
X56619048Y-40645295D01*
X56619048Y-40645295D02*
X56666667Y-40550057D01*
X56666667Y-40550057D02*
X56714286Y-40502438D01*
X56714286Y-40502438D02*
X56809524Y-40454819D01*
X36695142Y-33728819D02*
X36361809Y-33252628D01*
X36123714Y-33728819D02*
X36123714Y-32728819D01*
X36123714Y-32728819D02*
X36504666Y-32728819D01*
X36504666Y-32728819D02*
X36599904Y-32776438D01*
X36599904Y-32776438D02*
X36647523Y-32824057D01*
X36647523Y-32824057D02*
X36695142Y-32919295D01*
X36695142Y-32919295D02*
X36695142Y-33062152D01*
X36695142Y-33062152D02*
X36647523Y-33157390D01*
X36647523Y-33157390D02*
X36599904Y-33205009D01*
X36599904Y-33205009D02*
X36504666Y-33252628D01*
X36504666Y-33252628D02*
X36123714Y-33252628D01*
X37647523Y-33728819D02*
X37076095Y-33728819D01*
X37361809Y-33728819D02*
X37361809Y-32728819D01*
X37361809Y-32728819D02*
X37266571Y-32871676D01*
X37266571Y-32871676D02*
X37171333Y-32966914D01*
X37171333Y-32966914D02*
X37076095Y-33014533D01*
X38218952Y-33157390D02*
X38123714Y-33109771D01*
X38123714Y-33109771D02*
X38076095Y-33062152D01*
X38076095Y-33062152D02*
X38028476Y-32966914D01*
X38028476Y-32966914D02*
X38028476Y-32919295D01*
X38028476Y-32919295D02*
X38076095Y-32824057D01*
X38076095Y-32824057D02*
X38123714Y-32776438D01*
X38123714Y-32776438D02*
X38218952Y-32728819D01*
X38218952Y-32728819D02*
X38409428Y-32728819D01*
X38409428Y-32728819D02*
X38504666Y-32776438D01*
X38504666Y-32776438D02*
X38552285Y-32824057D01*
X38552285Y-32824057D02*
X38599904Y-32919295D01*
X38599904Y-32919295D02*
X38599904Y-32966914D01*
X38599904Y-32966914D02*
X38552285Y-33062152D01*
X38552285Y-33062152D02*
X38504666Y-33109771D01*
X38504666Y-33109771D02*
X38409428Y-33157390D01*
X38409428Y-33157390D02*
X38218952Y-33157390D01*
X38218952Y-33157390D02*
X38123714Y-33205009D01*
X38123714Y-33205009D02*
X38076095Y-33252628D01*
X38076095Y-33252628D02*
X38028476Y-33347866D01*
X38028476Y-33347866D02*
X38028476Y-33538342D01*
X38028476Y-33538342D02*
X38076095Y-33633580D01*
X38076095Y-33633580D02*
X38123714Y-33681200D01*
X38123714Y-33681200D02*
X38218952Y-33728819D01*
X38218952Y-33728819D02*
X38409428Y-33728819D01*
X38409428Y-33728819D02*
X38504666Y-33681200D01*
X38504666Y-33681200D02*
X38552285Y-33633580D01*
X38552285Y-33633580D02*
X38599904Y-33538342D01*
X38599904Y-33538342D02*
X38599904Y-33347866D01*
X38599904Y-33347866D02*
X38552285Y-33252628D01*
X38552285Y-33252628D02*
X38504666Y-33205009D01*
X38504666Y-33205009D02*
X38409428Y-33157390D01*
X47916666Y-47704819D02*
X47916666Y-48419104D01*
X47916666Y-48419104D02*
X47869047Y-48561961D01*
X47869047Y-48561961D02*
X47773809Y-48657200D01*
X47773809Y-48657200D02*
X47630952Y-48704819D01*
X47630952Y-48704819D02*
X47535714Y-48704819D01*
X48869047Y-47704819D02*
X48392857Y-47704819D01*
X48392857Y-47704819D02*
X48345238Y-48181009D01*
X48345238Y-48181009D02*
X48392857Y-48133390D01*
X48392857Y-48133390D02*
X48488095Y-48085771D01*
X48488095Y-48085771D02*
X48726190Y-48085771D01*
X48726190Y-48085771D02*
X48821428Y-48133390D01*
X48821428Y-48133390D02*
X48869047Y-48181009D01*
X48869047Y-48181009D02*
X48916666Y-48276247D01*
X48916666Y-48276247D02*
X48916666Y-48514342D01*
X48916666Y-48514342D02*
X48869047Y-48609580D01*
X48869047Y-48609580D02*
X48821428Y-48657200D01*
X48821428Y-48657200D02*
X48726190Y-48704819D01*
X48726190Y-48704819D02*
X48488095Y-48704819D01*
X48488095Y-48704819D02*
X48392857Y-48657200D01*
X48392857Y-48657200D02*
X48345238Y-48609580D01*
D11*
X62947590Y-54920571D02*
X63185685Y-54753905D01*
X62947590Y-54634857D02*
X63447590Y-54634857D01*
X63447590Y-54634857D02*
X63447590Y-54825333D01*
X63447590Y-54825333D02*
X63423780Y-54872952D01*
X63423780Y-54872952D02*
X63399971Y-54896762D01*
X63399971Y-54896762D02*
X63352352Y-54920571D01*
X63352352Y-54920571D02*
X63280923Y-54920571D01*
X63280923Y-54920571D02*
X63233304Y-54896762D01*
X63233304Y-54896762D02*
X63209495Y-54872952D01*
X63209495Y-54872952D02*
X63185685Y-54825333D01*
X63185685Y-54825333D02*
X63185685Y-54634857D01*
X62947590Y-55396762D02*
X62947590Y-55111048D01*
X62947590Y-55253905D02*
X63447590Y-55253905D01*
X63447590Y-55253905D02*
X63376161Y-55206286D01*
X63376161Y-55206286D02*
X63328542Y-55158667D01*
X63328542Y-55158667D02*
X63304733Y-55111048D01*
X63280923Y-55825333D02*
X62947590Y-55825333D01*
X63471400Y-55706285D02*
X63114257Y-55587238D01*
X63114257Y-55587238D02*
X63114257Y-55896761D01*
D10*
X53204819Y-50583333D02*
X53919104Y-50583333D01*
X53919104Y-50583333D02*
X54061961Y-50630952D01*
X54061961Y-50630952D02*
X54157200Y-50726190D01*
X54157200Y-50726190D02*
X54204819Y-50869047D01*
X54204819Y-50869047D02*
X54204819Y-50964285D01*
X54204819Y-49583333D02*
X54204819Y-50154761D01*
X54204819Y-49869047D02*
X53204819Y-49869047D01*
X53204819Y-49869047D02*
X53347676Y-49964285D01*
X53347676Y-49964285D02*
X53442914Y-50059523D01*
X53442914Y-50059523D02*
X53490533Y-50154761D01*
X35704819Y-67486904D02*
X36514342Y-67486904D01*
X36514342Y-67486904D02*
X36609580Y-67439285D01*
X36609580Y-67439285D02*
X36657200Y-67391666D01*
X36657200Y-67391666D02*
X36704819Y-67296428D01*
X36704819Y-67296428D02*
X36704819Y-67105952D01*
X36704819Y-67105952D02*
X36657200Y-67010714D01*
X36657200Y-67010714D02*
X36609580Y-66963095D01*
X36609580Y-66963095D02*
X36514342Y-66915476D01*
X36514342Y-66915476D02*
X35704819Y-66915476D01*
X35704819Y-66534523D02*
X35704819Y-65915476D01*
X35704819Y-65915476D02*
X36085771Y-66248809D01*
X36085771Y-66248809D02*
X36085771Y-66105952D01*
X36085771Y-66105952D02*
X36133390Y-66010714D01*
X36133390Y-66010714D02*
X36181009Y-65963095D01*
X36181009Y-65963095D02*
X36276247Y-65915476D01*
X36276247Y-65915476D02*
X36514342Y-65915476D01*
X36514342Y-65915476D02*
X36609580Y-65963095D01*
X36609580Y-65963095D02*
X36657200Y-66010714D01*
X36657200Y-66010714D02*
X36704819Y-66105952D01*
X36704819Y-66105952D02*
X36704819Y-66391666D01*
X36704819Y-66391666D02*
X36657200Y-66486904D01*
X36657200Y-66486904D02*
X36609580Y-66534523D01*
X25916666Y-38204819D02*
X25916666Y-38919104D01*
X25916666Y-38919104D02*
X25869047Y-39061961D01*
X25869047Y-39061961D02*
X25773809Y-39157200D01*
X25773809Y-39157200D02*
X25630952Y-39204819D01*
X25630952Y-39204819D02*
X25535714Y-39204819D01*
X26440476Y-39204819D02*
X26630952Y-39204819D01*
X26630952Y-39204819D02*
X26726190Y-39157200D01*
X26726190Y-39157200D02*
X26773809Y-39109580D01*
X26773809Y-39109580D02*
X26869047Y-38966723D01*
X26869047Y-38966723D02*
X26916666Y-38776247D01*
X26916666Y-38776247D02*
X26916666Y-38395295D01*
X26916666Y-38395295D02*
X26869047Y-38300057D01*
X26869047Y-38300057D02*
X26821428Y-38252438D01*
X26821428Y-38252438D02*
X26726190Y-38204819D01*
X26726190Y-38204819D02*
X26535714Y-38204819D01*
X26535714Y-38204819D02*
X26440476Y-38252438D01*
X26440476Y-38252438D02*
X26392857Y-38300057D01*
X26392857Y-38300057D02*
X26345238Y-38395295D01*
X26345238Y-38395295D02*
X26345238Y-38633390D01*
X26345238Y-38633390D02*
X26392857Y-38728628D01*
X26392857Y-38728628D02*
X26440476Y-38776247D01*
X26440476Y-38776247D02*
X26535714Y-38823866D01*
X26535714Y-38823866D02*
X26726190Y-38823866D01*
X26726190Y-38823866D02*
X26821428Y-38776247D01*
X26821428Y-38776247D02*
X26869047Y-38728628D01*
X26869047Y-38728628D02*
X26916666Y-38633390D01*
X32329819Y-46468404D02*
X33139342Y-46468404D01*
X33139342Y-46468404D02*
X33234580Y-46420785D01*
X33234580Y-46420785D02*
X33282200Y-46373166D01*
X33282200Y-46373166D02*
X33329819Y-46277928D01*
X33329819Y-46277928D02*
X33329819Y-46087452D01*
X33329819Y-46087452D02*
X33282200Y-45992214D01*
X33282200Y-45992214D02*
X33234580Y-45944595D01*
X33234580Y-45944595D02*
X33139342Y-45896976D01*
X33139342Y-45896976D02*
X32329819Y-45896976D01*
X33329819Y-44896976D02*
X33329819Y-45468404D01*
X33329819Y-45182690D02*
X32329819Y-45182690D01*
X32329819Y-45182690D02*
X32472676Y-45277928D01*
X32472676Y-45277928D02*
X32567914Y-45373166D01*
X32567914Y-45373166D02*
X32615533Y-45468404D01*
D11*
X45663627Y-59327409D02*
X45758865Y-59327409D01*
X45758865Y-59327409D02*
X45806484Y-59351219D01*
X45806484Y-59351219D02*
X45854103Y-59398838D01*
X45854103Y-59398838D02*
X45877913Y-59494076D01*
X45877913Y-59494076D02*
X45877913Y-59660742D01*
X45877913Y-59660742D02*
X45854103Y-59755980D01*
X45854103Y-59755980D02*
X45806484Y-59803600D01*
X45806484Y-59803600D02*
X45758865Y-59827409D01*
X45758865Y-59827409D02*
X45663627Y-59827409D01*
X45663627Y-59827409D02*
X45616008Y-59803600D01*
X45616008Y-59803600D02*
X45568389Y-59755980D01*
X45568389Y-59755980D02*
X45544580Y-59660742D01*
X45544580Y-59660742D02*
X45544580Y-59494076D01*
X45544580Y-59494076D02*
X45568389Y-59398838D01*
X45568389Y-59398838D02*
X45616008Y-59351219D01*
X45616008Y-59351219D02*
X45663627Y-59327409D01*
X46092199Y-59327409D02*
X46092199Y-59732171D01*
X46092199Y-59732171D02*
X46116009Y-59779790D01*
X46116009Y-59779790D02*
X46139818Y-59803600D01*
X46139818Y-59803600D02*
X46187437Y-59827409D01*
X46187437Y-59827409D02*
X46282675Y-59827409D01*
X46282675Y-59827409D02*
X46330294Y-59803600D01*
X46330294Y-59803600D02*
X46354104Y-59779790D01*
X46354104Y-59779790D02*
X46377913Y-59732171D01*
X46377913Y-59732171D02*
X46377913Y-59327409D01*
X46544581Y-59327409D02*
X46830295Y-59327409D01*
X46687438Y-59827409D02*
X46687438Y-59327409D01*
X45496961Y-56827409D02*
X45663627Y-57327409D01*
X45663627Y-57327409D02*
X45830294Y-56827409D01*
X46211246Y-57303600D02*
X46163627Y-57327409D01*
X46163627Y-57327409D02*
X46068389Y-57327409D01*
X46068389Y-57327409D02*
X46020770Y-57303600D01*
X46020770Y-57303600D02*
X45996960Y-57279790D01*
X45996960Y-57279790D02*
X45973151Y-57232171D01*
X45973151Y-57232171D02*
X45973151Y-57089314D01*
X45973151Y-57089314D02*
X45996960Y-57041695D01*
X45996960Y-57041695D02*
X46020770Y-57017885D01*
X46020770Y-57017885D02*
X46068389Y-56994076D01*
X46068389Y-56994076D02*
X46163627Y-56994076D01*
X46163627Y-56994076D02*
X46211246Y-57017885D01*
X46639817Y-57303600D02*
X46592198Y-57327409D01*
X46592198Y-57327409D02*
X46496960Y-57327409D01*
X46496960Y-57327409D02*
X46449341Y-57303600D01*
X46449341Y-57303600D02*
X46425531Y-57279790D01*
X46425531Y-57279790D02*
X46401722Y-57232171D01*
X46401722Y-57232171D02*
X46401722Y-57089314D01*
X46401722Y-57089314D02*
X46425531Y-57041695D01*
X46425531Y-57041695D02*
X46449341Y-57017885D01*
X46449341Y-57017885D02*
X46496960Y-56994076D01*
X46496960Y-56994076D02*
X46592198Y-56994076D01*
X46592198Y-56994076D02*
X46639817Y-57017885D01*
X49022590Y-59099999D02*
X49022590Y-59195237D01*
X49022590Y-59195237D02*
X48998780Y-59242856D01*
X48998780Y-59242856D02*
X48951161Y-59290475D01*
X48951161Y-59290475D02*
X48855923Y-59314285D01*
X48855923Y-59314285D02*
X48689257Y-59314285D01*
X48689257Y-59314285D02*
X48594019Y-59290475D01*
X48594019Y-59290475D02*
X48546400Y-59242856D01*
X48546400Y-59242856D02*
X48522590Y-59195237D01*
X48522590Y-59195237D02*
X48522590Y-59099999D01*
X48522590Y-59099999D02*
X48546400Y-59052380D01*
X48546400Y-59052380D02*
X48594019Y-59004761D01*
X48594019Y-59004761D02*
X48689257Y-58980952D01*
X48689257Y-58980952D02*
X48855923Y-58980952D01*
X48855923Y-58980952D02*
X48951161Y-59004761D01*
X48951161Y-59004761D02*
X48998780Y-59052380D01*
X48998780Y-59052380D02*
X49022590Y-59099999D01*
X49022590Y-59528571D02*
X48617828Y-59528571D01*
X48617828Y-59528571D02*
X48570209Y-59552381D01*
X48570209Y-59552381D02*
X48546400Y-59576190D01*
X48546400Y-59576190D02*
X48522590Y-59623809D01*
X48522590Y-59623809D02*
X48522590Y-59719047D01*
X48522590Y-59719047D02*
X48546400Y-59766666D01*
X48546400Y-59766666D02*
X48570209Y-59790476D01*
X48570209Y-59790476D02*
X48617828Y-59814285D01*
X48617828Y-59814285D02*
X49022590Y-59814285D01*
X49022590Y-59980953D02*
X49022590Y-60266667D01*
X48522590Y-60123810D02*
X49022590Y-60123810D01*
X49022590Y-56504763D02*
X48522590Y-56671429D01*
X48522590Y-56671429D02*
X49022590Y-56838096D01*
X48546400Y-57219048D02*
X48522590Y-57171429D01*
X48522590Y-57171429D02*
X48522590Y-57076191D01*
X48522590Y-57076191D02*
X48546400Y-57028572D01*
X48546400Y-57028572D02*
X48570209Y-57004762D01*
X48570209Y-57004762D02*
X48617828Y-56980953D01*
X48617828Y-56980953D02*
X48760685Y-56980953D01*
X48760685Y-56980953D02*
X48808304Y-57004762D01*
X48808304Y-57004762D02*
X48832114Y-57028572D01*
X48832114Y-57028572D02*
X48855923Y-57076191D01*
X48855923Y-57076191D02*
X48855923Y-57171429D01*
X48855923Y-57171429D02*
X48832114Y-57219048D01*
X48546400Y-57647619D02*
X48522590Y-57600000D01*
X48522590Y-57600000D02*
X48522590Y-57504762D01*
X48522590Y-57504762D02*
X48546400Y-57457143D01*
X48546400Y-57457143D02*
X48570209Y-57433333D01*
X48570209Y-57433333D02*
X48617828Y-57409524D01*
X48617828Y-57409524D02*
X48760685Y-57409524D01*
X48760685Y-57409524D02*
X48808304Y-57433333D01*
X48808304Y-57433333D02*
X48832114Y-57457143D01*
X48832114Y-57457143D02*
X48855923Y-57504762D01*
X48855923Y-57504762D02*
X48855923Y-57600000D01*
X48855923Y-57600000D02*
X48832114Y-57647619D01*
X62164763Y-46867409D02*
X62331429Y-47367409D01*
X62331429Y-47367409D02*
X62498096Y-46867409D01*
X62879048Y-47343600D02*
X62831429Y-47367409D01*
X62831429Y-47367409D02*
X62736191Y-47367409D01*
X62736191Y-47367409D02*
X62688572Y-47343600D01*
X62688572Y-47343600D02*
X62664762Y-47319790D01*
X62664762Y-47319790D02*
X62640953Y-47272171D01*
X62640953Y-47272171D02*
X62640953Y-47129314D01*
X62640953Y-47129314D02*
X62664762Y-47081695D01*
X62664762Y-47081695D02*
X62688572Y-47057885D01*
X62688572Y-47057885D02*
X62736191Y-47034076D01*
X62736191Y-47034076D02*
X62831429Y-47034076D01*
X62831429Y-47034076D02*
X62879048Y-47057885D01*
X63307619Y-47343600D02*
X63260000Y-47367409D01*
X63260000Y-47367409D02*
X63164762Y-47367409D01*
X63164762Y-47367409D02*
X63117143Y-47343600D01*
X63117143Y-47343600D02*
X63093333Y-47319790D01*
X63093333Y-47319790D02*
X63069524Y-47272171D01*
X63069524Y-47272171D02*
X63069524Y-47129314D01*
X63069524Y-47129314D02*
X63093333Y-47081695D01*
X63093333Y-47081695D02*
X63117143Y-47057885D01*
X63117143Y-47057885D02*
X63164762Y-47034076D01*
X63164762Y-47034076D02*
X63260000Y-47034076D01*
X63260000Y-47034076D02*
X63307619Y-47057885D01*
X62379047Y-44351219D02*
X62331428Y-44327409D01*
X62331428Y-44327409D02*
X62259999Y-44327409D01*
X62259999Y-44327409D02*
X62188571Y-44351219D01*
X62188571Y-44351219D02*
X62140952Y-44398838D01*
X62140952Y-44398838D02*
X62117142Y-44446457D01*
X62117142Y-44446457D02*
X62093333Y-44541695D01*
X62093333Y-44541695D02*
X62093333Y-44613123D01*
X62093333Y-44613123D02*
X62117142Y-44708361D01*
X62117142Y-44708361D02*
X62140952Y-44755980D01*
X62140952Y-44755980D02*
X62188571Y-44803600D01*
X62188571Y-44803600D02*
X62259999Y-44827409D01*
X62259999Y-44827409D02*
X62307618Y-44827409D01*
X62307618Y-44827409D02*
X62379047Y-44803600D01*
X62379047Y-44803600D02*
X62402856Y-44779790D01*
X62402856Y-44779790D02*
X62402856Y-44613123D01*
X62402856Y-44613123D02*
X62307618Y-44613123D01*
X62617142Y-44827409D02*
X62617142Y-44327409D01*
X62617142Y-44327409D02*
X62902856Y-44827409D01*
X62902856Y-44827409D02*
X62902856Y-44327409D01*
X63140952Y-44827409D02*
X63140952Y-44327409D01*
X63140952Y-44327409D02*
X63260000Y-44327409D01*
X63260000Y-44327409D02*
X63331428Y-44351219D01*
X63331428Y-44351219D02*
X63379047Y-44398838D01*
X63379047Y-44398838D02*
X63402857Y-44446457D01*
X63402857Y-44446457D02*
X63426666Y-44541695D01*
X63426666Y-44541695D02*
X63426666Y-44613123D01*
X63426666Y-44613123D02*
X63402857Y-44708361D01*
X63402857Y-44708361D02*
X63379047Y-44755980D01*
X63379047Y-44755980D02*
X63331428Y-44803600D01*
X63331428Y-44803600D02*
X63260000Y-44827409D01*
X63260000Y-44827409D02*
X63140952Y-44827409D01*
D12*
X60522936Y-64515000D02*
X60977064Y-64515000D01*
X60522936Y-65985000D02*
X60977064Y-65985000D01*
X60522936Y-62015000D02*
X60977064Y-62015000D01*
X60522936Y-63485000D02*
X60977064Y-63485000D01*
X36638748Y-58065000D02*
X37161252Y-58065000D01*
X36638748Y-59535000D02*
X37161252Y-59535000D01*
X33315000Y-39136252D02*
X33315000Y-38613748D01*
X34785000Y-39136252D02*
X34785000Y-38613748D01*
X73800000Y-41750000D02*
X72550000Y-41750000D01*
X73510000Y-42040000D02*
X67540000Y-42040000D01*
X67540000Y-42040000D02*
X67540000Y-62160000D01*
X73500000Y-42050000D02*
X72750000Y-42050000D01*
X72750000Y-42050000D02*
X72750000Y-43850000D01*
X71250000Y-42050000D02*
X71250000Y-42800000D01*
X71250000Y-42800000D02*
X68300000Y-42800000D01*
X68300000Y-42800000D02*
X68300000Y-52100000D01*
X73800000Y-43000000D02*
X73800000Y-41750000D01*
X73500000Y-43850000D02*
X73500000Y-42050000D01*
X72750000Y-43850000D02*
X73500000Y-43850000D01*
X73500000Y-45350000D02*
X72750000Y-45350000D01*
X72750000Y-45350000D02*
X72750000Y-58850000D01*
X73500000Y-58850000D02*
X73500000Y-45350000D01*
X72750000Y-58850000D02*
X73500000Y-58850000D01*
X73500000Y-60350000D02*
X72750000Y-60350000D01*
X72750000Y-60350000D02*
X72750000Y-62150000D01*
X71250000Y-61400000D02*
X68300000Y-61400000D01*
X68300000Y-61400000D02*
X68300000Y-52100000D01*
X73500000Y-62150000D02*
X73500000Y-60350000D01*
X72750000Y-62150000D02*
X73500000Y-62150000D01*
X71250000Y-62150000D02*
X71250000Y-61400000D01*
X73510000Y-62160000D02*
X73510000Y-42040000D01*
X67540000Y-62160000D02*
X73510000Y-62160000D01*
X60522936Y-59515000D02*
X60977064Y-59515000D01*
X60522936Y-60985000D02*
X60977064Y-60985000D01*
X70750000Y-39000000D02*
X70750000Y-37750000D01*
X70460000Y-38710000D02*
X70460000Y-32740000D01*
X70460000Y-32740000D02*
X55340000Y-32740000D01*
X70450000Y-38700000D02*
X70450000Y-37950000D01*
X70450000Y-37950000D02*
X68650000Y-37950000D01*
X70450000Y-36450000D02*
X69700000Y-36450000D01*
X69700000Y-36450000D02*
X69700000Y-33500000D01*
X69700000Y-33500000D02*
X62900000Y-33500000D01*
X69500000Y-39000000D02*
X70750000Y-39000000D01*
X68650000Y-38700000D02*
X70450000Y-38700000D01*
X68650000Y-37950000D02*
X68650000Y-38700000D01*
X67150000Y-38700000D02*
X67150000Y-37950000D01*
X67150000Y-37950000D02*
X58650000Y-37950000D01*
X58650000Y-38700000D02*
X67150000Y-38700000D01*
X58650000Y-37950000D02*
X58650000Y-38700000D01*
X57150000Y-38700000D02*
X57150000Y-37950000D01*
X57150000Y-37950000D02*
X55350000Y-37950000D01*
X56100000Y-36450000D02*
X56100000Y-33500000D01*
X56100000Y-33500000D02*
X62900000Y-33500000D01*
X55350000Y-38700000D02*
X57150000Y-38700000D01*
X55350000Y-37950000D02*
X55350000Y-38700000D01*
X55350000Y-36450000D02*
X56100000Y-36450000D01*
X55340000Y-38710000D02*
X70460000Y-38710000D01*
X55340000Y-32740000D02*
X55340000Y-38710000D01*
X60522936Y-57015000D02*
X60977064Y-57015000D01*
X60522936Y-58485000D02*
X60977064Y-58485000D01*
X61250000Y-45750000D02*
X61250000Y-44500000D01*
X60960000Y-45460000D02*
X60960000Y-39490000D01*
X60960000Y-39490000D02*
X40840000Y-39490000D01*
X60950000Y-45450000D02*
X60950000Y-44700000D01*
X60950000Y-44700000D02*
X59150000Y-44700000D01*
X60950000Y-43200000D02*
X60200000Y-43200000D01*
X60200000Y-43200000D02*
X60200000Y-40250000D01*
X60200000Y-40250000D02*
X50900000Y-40250000D01*
X60000000Y-45750000D02*
X61250000Y-45750000D01*
X59150000Y-45450000D02*
X60950000Y-45450000D01*
X59150000Y-44700000D02*
X59150000Y-45450000D01*
X57650000Y-45450000D02*
X57650000Y-44700000D01*
X57650000Y-44700000D02*
X44150000Y-44700000D01*
X44150000Y-45450000D02*
X57650000Y-45450000D01*
X44150000Y-44700000D02*
X44150000Y-45450000D01*
X42650000Y-45450000D02*
X42650000Y-44700000D01*
X42650000Y-44700000D02*
X40850000Y-44700000D01*
X41600000Y-43200000D02*
X41600000Y-40250000D01*
X41600000Y-40250000D02*
X50900000Y-40250000D01*
X40850000Y-45450000D02*
X42650000Y-45450000D01*
X40850000Y-44700000D02*
X40850000Y-45450000D01*
X40850000Y-43200000D02*
X41600000Y-43200000D01*
X40840000Y-45460000D02*
X60960000Y-45460000D01*
X40840000Y-39490000D02*
X40840000Y-45460000D01*
X33672936Y-32640000D02*
X34127064Y-32640000D01*
X33672936Y-34110000D02*
X34127064Y-34110000D01*
X51050000Y-53025000D02*
X51050000Y-51775000D01*
X50760000Y-52735000D02*
X50760000Y-46765000D01*
X50760000Y-46765000D02*
X43140000Y-46765000D01*
X50750000Y-52725000D02*
X50750000Y-51975000D01*
X50750000Y-51975000D02*
X48950000Y-51975000D01*
X50750000Y-50475000D02*
X50000000Y-50475000D01*
X50000000Y-50475000D02*
X50000000Y-47525000D01*
X50000000Y-47525000D02*
X46950000Y-47525000D01*
X49800000Y-53025000D02*
X51050000Y-53025000D01*
X48950000Y-52725000D02*
X50750000Y-52725000D01*
X48950000Y-51975000D02*
X48950000Y-52725000D01*
X47450000Y-52725000D02*
X47450000Y-51975000D01*
X47450000Y-51975000D02*
X46450000Y-51975000D01*
X46450000Y-52725000D02*
X47450000Y-52725000D01*
X46450000Y-51975000D02*
X46450000Y-52725000D01*
X44950000Y-52725000D02*
X44950000Y-51975000D01*
X44950000Y-51975000D02*
X43150000Y-51975000D01*
X43900000Y-50475000D02*
X43900000Y-47525000D01*
X43900000Y-47525000D02*
X46950000Y-47525000D01*
X43150000Y-52725000D02*
X44950000Y-52725000D01*
X43150000Y-51975000D02*
X43150000Y-52725000D01*
X43150000Y-50475000D02*
X43900000Y-50475000D01*
X43140000Y-52735000D02*
X50760000Y-52735000D01*
X43140000Y-46765000D02*
X43140000Y-52735000D01*
X60547936Y-54515000D02*
X61002064Y-54515000D01*
X60547936Y-55985000D02*
X61002064Y-55985000D01*
X58450000Y-47350000D02*
X57200000Y-47350000D01*
X58160000Y-47640000D02*
X52190000Y-47640000D01*
X52190000Y-47640000D02*
X52190000Y-67760000D01*
X58150000Y-47650000D02*
X57400000Y-47650000D01*
X57400000Y-47650000D02*
X57400000Y-49450000D01*
X55900000Y-47650000D02*
X55900000Y-48400000D01*
X55900000Y-48400000D02*
X52950000Y-48400000D01*
X52950000Y-48400000D02*
X52950000Y-57700000D01*
X58450000Y-48600000D02*
X58450000Y-47350000D01*
X58150000Y-49450000D02*
X58150000Y-47650000D01*
X57400000Y-49450000D02*
X58150000Y-49450000D01*
X58150000Y-50950000D02*
X57400000Y-50950000D01*
X57400000Y-50950000D02*
X57400000Y-64450000D01*
X58150000Y-64450000D02*
X58150000Y-50950000D01*
X57400000Y-64450000D02*
X58150000Y-64450000D01*
X58150000Y-65950000D02*
X57400000Y-65950000D01*
X57400000Y-65950000D02*
X57400000Y-67750000D01*
X55900000Y-67000000D02*
X52950000Y-67000000D01*
X52950000Y-67000000D02*
X52950000Y-57700000D01*
X58150000Y-67750000D02*
X58150000Y-65950000D01*
X57400000Y-67750000D02*
X58150000Y-67750000D01*
X55900000Y-67750000D02*
X55900000Y-67000000D01*
X58160000Y-67760000D02*
X58160000Y-47640000D01*
X52190000Y-67760000D02*
X58160000Y-67760000D01*
X36965000Y-66725000D02*
X36965000Y-70325000D01*
X36965000Y-66725000D02*
X36965000Y-64525000D01*
X42435000Y-66725000D02*
X42435000Y-68925000D01*
X42435000Y-66725000D02*
X42435000Y-64525000D01*
X23450000Y-33975000D02*
X23450000Y-35225000D01*
X23740000Y-34265000D02*
X23740000Y-40235000D01*
X23740000Y-40235000D02*
X31360000Y-40235000D01*
X23750000Y-34275000D02*
X23750000Y-35025000D01*
X23750000Y-35025000D02*
X25550000Y-35025000D01*
X23750000Y-36525000D02*
X24500000Y-36525000D01*
X24500000Y-36525000D02*
X24500000Y-39475000D01*
X24500000Y-39475000D02*
X27550000Y-39475000D01*
X24700000Y-33975000D02*
X23450000Y-33975000D01*
X25550000Y-34275000D02*
X23750000Y-34275000D01*
X25550000Y-35025000D02*
X25550000Y-34275000D01*
X27050000Y-34275000D02*
X27050000Y-35025000D01*
X27050000Y-35025000D02*
X28050000Y-35025000D01*
X28050000Y-34275000D02*
X27050000Y-34275000D01*
X28050000Y-35025000D02*
X28050000Y-34275000D01*
X29550000Y-34275000D02*
X29550000Y-35025000D01*
X29550000Y-35025000D02*
X31350000Y-35025000D01*
X30600000Y-36525000D02*
X30600000Y-39475000D01*
X30600000Y-39475000D02*
X27550000Y-39475000D01*
X31350000Y-34275000D02*
X29550000Y-34275000D01*
X31350000Y-35025000D02*
X31350000Y-34275000D01*
X31350000Y-36525000D02*
X30600000Y-36525000D01*
X31360000Y-34265000D02*
X23740000Y-34265000D01*
X31360000Y-40235000D02*
X31360000Y-34265000D01*
X33590000Y-45706500D02*
X33590000Y-49306500D01*
X33590000Y-45706500D02*
X33590000Y-43506500D01*
X39060000Y-45706500D02*
X39060000Y-47906500D01*
X39060000Y-45706500D02*
X39060000Y-43506500D01*
%LPC*%
D13*
X59750000Y-65250000D03*
X61750000Y-65250000D03*
X59750000Y-62750000D03*
X61750000Y-62750000D03*
D14*
X35862500Y-58800000D03*
X37937500Y-58800000D03*
D15*
X34050000Y-39912500D03*
X34050000Y-37837500D03*
D16*
X71050000Y-44600000D03*
D17*
X71050000Y-47100000D03*
X71050000Y-49600000D03*
X71050000Y-52100000D03*
X71050000Y-54600000D03*
X71050000Y-57100000D03*
X71050000Y-59600000D03*
D13*
X59750000Y-60250000D03*
X61750000Y-60250000D03*
D18*
X67900000Y-36250000D03*
D19*
X65400000Y-36250000D03*
X62900000Y-36250000D03*
X60400000Y-36250000D03*
X57900000Y-36250000D03*
D13*
X59750000Y-57750000D03*
X61750000Y-57750000D03*
D18*
X58400000Y-43000000D03*
D19*
X55900000Y-43000000D03*
X53400000Y-43000000D03*
X50900000Y-43000000D03*
X48400000Y-43000000D03*
X45900000Y-43000000D03*
X43400000Y-43000000D03*
D20*
X84300000Y-33450000D03*
D13*
X32900000Y-33375000D03*
X34900000Y-33375000D03*
D20*
X42075000Y-34175000D03*
D21*
X48200000Y-50275000D03*
D22*
X45700000Y-50275000D03*
D13*
X59775000Y-55250000D03*
X61775000Y-55250000D03*
D16*
X55700000Y-50200000D03*
D17*
X55700000Y-52700000D03*
X55700000Y-55200000D03*
X55700000Y-57700000D03*
X55700000Y-60200000D03*
X55700000Y-62700000D03*
X55700000Y-65200000D03*
D23*
X37425000Y-69587500D03*
X38075000Y-69587500D03*
X38725000Y-69587500D03*
X39375000Y-69587500D03*
X40025000Y-69587500D03*
X40675000Y-69587500D03*
X41325000Y-69587500D03*
X41975000Y-69587500D03*
X41975000Y-63862500D03*
X41325000Y-63862500D03*
X40675000Y-63862500D03*
X40025000Y-63862500D03*
X39375000Y-63862500D03*
X38725000Y-63862500D03*
X38075000Y-63862500D03*
X37425000Y-63862500D03*
D24*
X26300000Y-36725000D03*
D22*
X28800000Y-36725000D03*
D23*
X34050000Y-48569000D03*
X34700000Y-48569000D03*
X35350000Y-48569000D03*
X36000000Y-48569000D03*
X36650000Y-48569000D03*
X37300000Y-48569000D03*
X37950000Y-48569000D03*
X38600000Y-48569000D03*
X38600000Y-42844000D03*
X37950000Y-42844000D03*
X37300000Y-42844000D03*
X36650000Y-42844000D03*
X36000000Y-42844000D03*
X35350000Y-42844000D03*
X34700000Y-42844000D03*
X34050000Y-42844000D03*
D25*
X43900000Y-57100000D03*
D26*
X43900000Y-59600000D03*
D25*
X50700000Y-57100000D03*
D26*
X50700000Y-59600000D03*
D16*
X65300000Y-44600000D03*
D17*
X65300000Y-47100000D03*
X65300000Y-49600000D03*
X65300000Y-52100000D03*
X65300000Y-54600000D03*
X65300000Y-57100000D03*
X65300000Y-59600000D03*
%LPD*%
M02*
