%TF.GenerationSoftware,KiCad,Pcbnew,7.0.5*%
%TF.CreationDate,2023-06-18T14:53:10+02:00*%
%TF.ProjectId,RKJXM1015004_Angled,524b4a58-4d31-4303-9135-3030345f416e,rev?*%
%TF.SameCoordinates,Original*%
%TF.FileFunction,Legend,Bot*%
%TF.FilePolarity,Positive*%
%FSLAX46Y46*%
G04 Gerber Fmt 4.6, Leading zero omitted, Abs format (unit mm)*
G04 Created by KiCad (PCBNEW 7.0.5) date 2023-06-18 14:53:10*
%MOMM*%
%LPD*%
G01*
G04 APERTURE LIST*
%ADD10C,0.100000*%
%ADD11C,1.100000*%
%ADD12C,1.600000*%
%ADD13C,2.200000*%
G04 APERTURE END LIST*
D10*
X42647718Y-31380953D02*
X42647718Y-31619048D01*
X42790575Y-31333334D02*
X42290575Y-31500000D01*
X42290575Y-31500000D02*
X42790575Y-31666667D01*
X37928670Y-28835714D02*
X37952480Y-28907142D01*
X37952480Y-28907142D02*
X37976289Y-28930952D01*
X37976289Y-28930952D02*
X38023908Y-28954761D01*
X38023908Y-28954761D02*
X38095337Y-28954761D01*
X38095337Y-28954761D02*
X38142956Y-28930952D01*
X38142956Y-28930952D02*
X38166766Y-28907142D01*
X38166766Y-28907142D02*
X38190575Y-28859523D01*
X38190575Y-28859523D02*
X38190575Y-28669047D01*
X38190575Y-28669047D02*
X37690575Y-28669047D01*
X37690575Y-28669047D02*
X37690575Y-28835714D01*
X37690575Y-28835714D02*
X37714385Y-28883333D01*
X37714385Y-28883333D02*
X37738194Y-28907142D01*
X37738194Y-28907142D02*
X37785813Y-28930952D01*
X37785813Y-28930952D02*
X37833432Y-28930952D01*
X37833432Y-28930952D02*
X37881051Y-28907142D01*
X37881051Y-28907142D02*
X37904861Y-28883333D01*
X37904861Y-28883333D02*
X37928670Y-28835714D01*
X37928670Y-28835714D02*
X37928670Y-28669047D01*
X35542956Y-33654761D02*
X35566766Y-33630952D01*
X35566766Y-33630952D02*
X35590575Y-33559523D01*
X35590575Y-33559523D02*
X35590575Y-33511904D01*
X35590575Y-33511904D02*
X35566766Y-33440476D01*
X35566766Y-33440476D02*
X35519146Y-33392857D01*
X35519146Y-33392857D02*
X35471527Y-33369047D01*
X35471527Y-33369047D02*
X35376289Y-33345238D01*
X35376289Y-33345238D02*
X35304861Y-33345238D01*
X35304861Y-33345238D02*
X35209623Y-33369047D01*
X35209623Y-33369047D02*
X35162004Y-33392857D01*
X35162004Y-33392857D02*
X35114385Y-33440476D01*
X35114385Y-33440476D02*
X35090575Y-33511904D01*
X35090575Y-33511904D02*
X35090575Y-33559523D01*
X35090575Y-33559523D02*
X35114385Y-33630952D01*
X35114385Y-33630952D02*
X35138194Y-33654761D01*
X40190575Y-36069047D02*
X39690575Y-36069047D01*
X39690575Y-36069047D02*
X39690575Y-36188095D01*
X39690575Y-36188095D02*
X39714385Y-36259523D01*
X39714385Y-36259523D02*
X39762004Y-36307142D01*
X39762004Y-36307142D02*
X39809623Y-36330952D01*
X39809623Y-36330952D02*
X39904861Y-36354761D01*
X39904861Y-36354761D02*
X39976289Y-36354761D01*
X39976289Y-36354761D02*
X40071527Y-36330952D01*
X40071527Y-36330952D02*
X40119146Y-36307142D01*
X40119146Y-36307142D02*
X40166766Y-36259523D01*
X40166766Y-36259523D02*
X40190575Y-36188095D01*
X40190575Y-36188095D02*
X40190575Y-36069047D01*
X35142956Y-31107142D02*
X35166766Y-31083333D01*
X35166766Y-31083333D02*
X35190575Y-31011904D01*
X35190575Y-31011904D02*
X35190575Y-30964285D01*
X35190575Y-30964285D02*
X35166766Y-30892857D01*
X35166766Y-30892857D02*
X35119146Y-30845238D01*
X35119146Y-30845238D02*
X35071527Y-30821428D01*
X35071527Y-30821428D02*
X34976289Y-30797619D01*
X34976289Y-30797619D02*
X34904861Y-30797619D01*
X34904861Y-30797619D02*
X34809623Y-30821428D01*
X34809623Y-30821428D02*
X34762004Y-30845238D01*
X34762004Y-30845238D02*
X34714385Y-30892857D01*
X34714385Y-30892857D02*
X34690575Y-30964285D01*
X34690575Y-30964285D02*
X34690575Y-31011904D01*
X34690575Y-31011904D02*
X34714385Y-31083333D01*
X34714385Y-31083333D02*
X34738194Y-31107142D01*
X34690575Y-31416666D02*
X34690575Y-31511904D01*
X34690575Y-31511904D02*
X34714385Y-31559523D01*
X34714385Y-31559523D02*
X34762004Y-31607142D01*
X34762004Y-31607142D02*
X34857242Y-31630952D01*
X34857242Y-31630952D02*
X35023908Y-31630952D01*
X35023908Y-31630952D02*
X35119146Y-31607142D01*
X35119146Y-31607142D02*
X35166766Y-31559523D01*
X35166766Y-31559523D02*
X35190575Y-31511904D01*
X35190575Y-31511904D02*
X35190575Y-31416666D01*
X35190575Y-31416666D02*
X35166766Y-31369047D01*
X35166766Y-31369047D02*
X35119146Y-31321428D01*
X35119146Y-31321428D02*
X35023908Y-31297619D01*
X35023908Y-31297619D02*
X34857242Y-31297619D01*
X34857242Y-31297619D02*
X34762004Y-31321428D01*
X34762004Y-31321428D02*
X34714385Y-31369047D01*
X34714385Y-31369047D02*
X34690575Y-31416666D01*
X35190575Y-31845238D02*
X34690575Y-31845238D01*
X34690575Y-31845238D02*
X35047718Y-32011905D01*
X35047718Y-32011905D02*
X34690575Y-32178571D01*
X34690575Y-32178571D02*
X35190575Y-32178571D01*
X38190575Y-35007142D02*
X37690575Y-35007142D01*
X37690575Y-35007142D02*
X37690575Y-35197618D01*
X37690575Y-35197618D02*
X37714385Y-35245237D01*
X37714385Y-35245237D02*
X37738194Y-35269047D01*
X37738194Y-35269047D02*
X37785813Y-35292856D01*
X37785813Y-35292856D02*
X37857242Y-35292856D01*
X37857242Y-35292856D02*
X37904861Y-35269047D01*
X37904861Y-35269047D02*
X37928670Y-35245237D01*
X37928670Y-35245237D02*
X37952480Y-35197618D01*
X37952480Y-35197618D02*
X37952480Y-35007142D01*
X37690575Y-35507142D02*
X38095337Y-35507142D01*
X38095337Y-35507142D02*
X38142956Y-35530952D01*
X38142956Y-35530952D02*
X38166766Y-35554761D01*
X38166766Y-35554761D02*
X38190575Y-35602380D01*
X38190575Y-35602380D02*
X38190575Y-35697618D01*
X38190575Y-35697618D02*
X38166766Y-35745237D01*
X38166766Y-35745237D02*
X38142956Y-35769047D01*
X38142956Y-35769047D02*
X38095337Y-35792856D01*
X38095337Y-35792856D02*
X37690575Y-35792856D01*
X38166766Y-36007143D02*
X38190575Y-36078571D01*
X38190575Y-36078571D02*
X38190575Y-36197619D01*
X38190575Y-36197619D02*
X38166766Y-36245238D01*
X38166766Y-36245238D02*
X38142956Y-36269047D01*
X38142956Y-36269047D02*
X38095337Y-36292857D01*
X38095337Y-36292857D02*
X38047718Y-36292857D01*
X38047718Y-36292857D02*
X38000099Y-36269047D01*
X38000099Y-36269047D02*
X37976289Y-36245238D01*
X37976289Y-36245238D02*
X37952480Y-36197619D01*
X37952480Y-36197619D02*
X37928670Y-36102381D01*
X37928670Y-36102381D02*
X37904861Y-36054762D01*
X37904861Y-36054762D02*
X37881051Y-36030952D01*
X37881051Y-36030952D02*
X37833432Y-36007143D01*
X37833432Y-36007143D02*
X37785813Y-36007143D01*
X37785813Y-36007143D02*
X37738194Y-36030952D01*
X37738194Y-36030952D02*
X37714385Y-36054762D01*
X37714385Y-36054762D02*
X37690575Y-36102381D01*
X37690575Y-36102381D02*
X37690575Y-36221428D01*
X37690575Y-36221428D02*
X37714385Y-36292857D01*
X38190575Y-36507142D02*
X37690575Y-36507142D01*
X37928670Y-36507142D02*
X37928670Y-36792856D01*
X38190575Y-36792856D02*
X37690575Y-36792856D01*
X35934385Y-34469047D02*
X35910575Y-34421428D01*
X35910575Y-34421428D02*
X35910575Y-34349999D01*
X35910575Y-34349999D02*
X35934385Y-34278571D01*
X35934385Y-34278571D02*
X35982004Y-34230952D01*
X35982004Y-34230952D02*
X36029623Y-34207142D01*
X36029623Y-34207142D02*
X36124861Y-34183333D01*
X36124861Y-34183333D02*
X36196289Y-34183333D01*
X36196289Y-34183333D02*
X36291527Y-34207142D01*
X36291527Y-34207142D02*
X36339146Y-34230952D01*
X36339146Y-34230952D02*
X36386766Y-34278571D01*
X36386766Y-34278571D02*
X36410575Y-34349999D01*
X36410575Y-34349999D02*
X36410575Y-34397618D01*
X36410575Y-34397618D02*
X36386766Y-34469047D01*
X36386766Y-34469047D02*
X36362956Y-34492856D01*
X36362956Y-34492856D02*
X36196289Y-34492856D01*
X36196289Y-34492856D02*
X36196289Y-34397618D01*
X36410575Y-34707142D02*
X35910575Y-34707142D01*
X35910575Y-34707142D02*
X36410575Y-34992856D01*
X36410575Y-34992856D02*
X35910575Y-34992856D01*
X36410575Y-35230952D02*
X35910575Y-35230952D01*
X35910575Y-35230952D02*
X35910575Y-35350000D01*
X35910575Y-35350000D02*
X35934385Y-35421428D01*
X35934385Y-35421428D02*
X35982004Y-35469047D01*
X35982004Y-35469047D02*
X36029623Y-35492857D01*
X36029623Y-35492857D02*
X36124861Y-35516666D01*
X36124861Y-35516666D02*
X36196289Y-35516666D01*
X36196289Y-35516666D02*
X36291527Y-35492857D01*
X36291527Y-35492857D02*
X36339146Y-35469047D01*
X36339146Y-35469047D02*
X36386766Y-35421428D01*
X36386766Y-35421428D02*
X36410575Y-35350000D01*
X36410575Y-35350000D02*
X36410575Y-35230952D01*
X43190575Y-32607142D02*
X42690575Y-32607142D01*
X42690575Y-32607142D02*
X42690575Y-32797618D01*
X42690575Y-32797618D02*
X42714385Y-32845237D01*
X42714385Y-32845237D02*
X42738194Y-32869047D01*
X42738194Y-32869047D02*
X42785813Y-32892856D01*
X42785813Y-32892856D02*
X42857242Y-32892856D01*
X42857242Y-32892856D02*
X42904861Y-32869047D01*
X42904861Y-32869047D02*
X42928670Y-32845237D01*
X42928670Y-32845237D02*
X42952480Y-32797618D01*
X42952480Y-32797618D02*
X42952480Y-32607142D01*
X42690575Y-33107142D02*
X43095337Y-33107142D01*
X43095337Y-33107142D02*
X43142956Y-33130952D01*
X43142956Y-33130952D02*
X43166766Y-33154761D01*
X43166766Y-33154761D02*
X43190575Y-33202380D01*
X43190575Y-33202380D02*
X43190575Y-33297618D01*
X43190575Y-33297618D02*
X43166766Y-33345237D01*
X43166766Y-33345237D02*
X43142956Y-33369047D01*
X43142956Y-33369047D02*
X43095337Y-33392856D01*
X43095337Y-33392856D02*
X42690575Y-33392856D01*
X43166766Y-33607143D02*
X43190575Y-33678571D01*
X43190575Y-33678571D02*
X43190575Y-33797619D01*
X43190575Y-33797619D02*
X43166766Y-33845238D01*
X43166766Y-33845238D02*
X43142956Y-33869047D01*
X43142956Y-33869047D02*
X43095337Y-33892857D01*
X43095337Y-33892857D02*
X43047718Y-33892857D01*
X43047718Y-33892857D02*
X43000099Y-33869047D01*
X43000099Y-33869047D02*
X42976289Y-33845238D01*
X42976289Y-33845238D02*
X42952480Y-33797619D01*
X42952480Y-33797619D02*
X42928670Y-33702381D01*
X42928670Y-33702381D02*
X42904861Y-33654762D01*
X42904861Y-33654762D02*
X42881051Y-33630952D01*
X42881051Y-33630952D02*
X42833432Y-33607143D01*
X42833432Y-33607143D02*
X42785813Y-33607143D01*
X42785813Y-33607143D02*
X42738194Y-33630952D01*
X42738194Y-33630952D02*
X42714385Y-33654762D01*
X42714385Y-33654762D02*
X42690575Y-33702381D01*
X42690575Y-33702381D02*
X42690575Y-33821428D01*
X42690575Y-33821428D02*
X42714385Y-33892857D01*
X43190575Y-34107142D02*
X42690575Y-34107142D01*
X42928670Y-34107142D02*
X42928670Y-34392856D01*
X43190575Y-34392856D02*
X42690575Y-34392856D01*
X40190575Y-28207142D02*
X39690575Y-28207142D01*
X39690575Y-28207142D02*
X39690575Y-28397618D01*
X39690575Y-28397618D02*
X39714385Y-28445237D01*
X39714385Y-28445237D02*
X39738194Y-28469047D01*
X39738194Y-28469047D02*
X39785813Y-28492856D01*
X39785813Y-28492856D02*
X39857242Y-28492856D01*
X39857242Y-28492856D02*
X39904861Y-28469047D01*
X39904861Y-28469047D02*
X39928670Y-28445237D01*
X39928670Y-28445237D02*
X39952480Y-28397618D01*
X39952480Y-28397618D02*
X39952480Y-28207142D01*
X39690575Y-28707142D02*
X40095337Y-28707142D01*
X40095337Y-28707142D02*
X40142956Y-28730952D01*
X40142956Y-28730952D02*
X40166766Y-28754761D01*
X40166766Y-28754761D02*
X40190575Y-28802380D01*
X40190575Y-28802380D02*
X40190575Y-28897618D01*
X40190575Y-28897618D02*
X40166766Y-28945237D01*
X40166766Y-28945237D02*
X40142956Y-28969047D01*
X40142956Y-28969047D02*
X40095337Y-28992856D01*
X40095337Y-28992856D02*
X39690575Y-28992856D01*
X40166766Y-29207143D02*
X40190575Y-29278571D01*
X40190575Y-29278571D02*
X40190575Y-29397619D01*
X40190575Y-29397619D02*
X40166766Y-29445238D01*
X40166766Y-29445238D02*
X40142956Y-29469047D01*
X40142956Y-29469047D02*
X40095337Y-29492857D01*
X40095337Y-29492857D02*
X40047718Y-29492857D01*
X40047718Y-29492857D02*
X40000099Y-29469047D01*
X40000099Y-29469047D02*
X39976289Y-29445238D01*
X39976289Y-29445238D02*
X39952480Y-29397619D01*
X39952480Y-29397619D02*
X39928670Y-29302381D01*
X39928670Y-29302381D02*
X39904861Y-29254762D01*
X39904861Y-29254762D02*
X39881051Y-29230952D01*
X39881051Y-29230952D02*
X39833432Y-29207143D01*
X39833432Y-29207143D02*
X39785813Y-29207143D01*
X39785813Y-29207143D02*
X39738194Y-29230952D01*
X39738194Y-29230952D02*
X39714385Y-29254762D01*
X39714385Y-29254762D02*
X39690575Y-29302381D01*
X39690575Y-29302381D02*
X39690575Y-29421428D01*
X39690575Y-29421428D02*
X39714385Y-29492857D01*
X40190575Y-29707142D02*
X39690575Y-29707142D01*
X39928670Y-29707142D02*
X39928670Y-29992856D01*
X40190575Y-29992856D02*
X39690575Y-29992856D01*
%LPC*%
D11*
X35964466Y-31500000D03*
D12*
X36264466Y-36650000D03*
X37964466Y-37850000D03*
X44314466Y-33500000D03*
X39964466Y-27150000D03*
X33614466Y-31500000D03*
X43914466Y-31500000D03*
X37964466Y-27550000D03*
X34014466Y-33500000D03*
X39964466Y-37450000D03*
D13*
X46035534Y-39571068D03*
X31893398Y-25428932D03*
%LPD*%
M02*
