%TF.GenerationSoftware,KiCad,Pcbnew,7.0.5*%
%TF.CreationDate,2023-06-18T14:53:14+02:00*%
%TF.ProjectId,RKJXM1015004_Angled,524b4a58-4d31-4303-9135-3030345f416e,rev?*%
%TF.SameCoordinates,Original*%
%TF.FileFunction,Drillmap*%
%TF.FilePolarity,Positive*%
%FSLAX45Y45*%
G04 Gerber Fmt 4.5, Leading zero omitted, Abs format (unit mm)*
G04 Created by KiCad (PCBNEW 7.0.5) date 2023-06-18 14:53:14*
%MOMM*%
%LPD*%
G01*
G04 APERTURE LIST*
%ADD10C,0.100000*%
%ADD11C,0.200000*%
G04 APERTURE END LIST*
D10*
X3320114Y-3550564D02*
G75*
G03*
X3595883Y-3826335I576646J300874D01*
G01*
X3351181Y-2232558D02*
G75*
G03*
X2879006Y-2704735I-161841J-310335D01*
G01*
X4472783Y-2949436D02*
G75*
G03*
X4197010Y-2673665I-576333J-300564D01*
G01*
X4913888Y-3795265D02*
X4472781Y-2949437D01*
X2879006Y-2704735D02*
X3320113Y-3550565D01*
X4441712Y-4267441D02*
X3595883Y-3826335D01*
X4441711Y-4267442D02*
G75*
G03*
X4913888Y-3795265I161842J310335D01*
G01*
X4197010Y-2673665D02*
X3351181Y-2232559D01*
D11*
D10*
X3311447Y-3100000D02*
X3411447Y-3200000D01*
X3411447Y-3100000D02*
X3311447Y-3200000D01*
X3351447Y-3300000D02*
X3451447Y-3400000D01*
X3451447Y-3300000D02*
X3351447Y-3400000D01*
X3576447Y-3615000D02*
X3676447Y-3715000D01*
X3676447Y-3615000D02*
X3576447Y-3715000D01*
X3746447Y-2705000D02*
X3846447Y-2805000D01*
X3846447Y-2705000D02*
X3746447Y-2805000D01*
X3746447Y-3735000D02*
X3846447Y-3835000D01*
X3846447Y-3735000D02*
X3746447Y-3835000D01*
X3946447Y-2665000D02*
X4046447Y-2765000D01*
X4046447Y-2665000D02*
X3946447Y-2765000D01*
X3946447Y-3695000D02*
X4046447Y-3795000D01*
X4046447Y-3695000D02*
X3946447Y-3795000D01*
X4341447Y-3100000D02*
X4441447Y-3200000D01*
X4441447Y-3100000D02*
X4341447Y-3200000D01*
X4381447Y-3300000D02*
X4481447Y-3400000D01*
X4481447Y-3300000D02*
X4381447Y-3400000D01*
D11*
X3095116Y-4623591D02*
X3095116Y-4423591D01*
X3095116Y-4423591D02*
X3142735Y-4423591D01*
X3142735Y-4423591D02*
X3171307Y-4433115D01*
X3171307Y-4433115D02*
X3190355Y-4452163D01*
X3190355Y-4452163D02*
X3199878Y-4471210D01*
X3199878Y-4471210D02*
X3209402Y-4509305D01*
X3209402Y-4509305D02*
X3209402Y-4537877D01*
X3209402Y-4537877D02*
X3199878Y-4575972D01*
X3199878Y-4575972D02*
X3190355Y-4595020D01*
X3190355Y-4595020D02*
X3171307Y-4614067D01*
X3171307Y-4614067D02*
X3142735Y-4623591D01*
X3142735Y-4623591D02*
X3095116Y-4623591D01*
X3295116Y-4623591D02*
X3295116Y-4490258D01*
X3295116Y-4528353D02*
X3304640Y-4509305D01*
X3304640Y-4509305D02*
X3314164Y-4499782D01*
X3314164Y-4499782D02*
X3333212Y-4490258D01*
X3333212Y-4490258D02*
X3352259Y-4490258D01*
X3418926Y-4623591D02*
X3418926Y-4490258D01*
X3418926Y-4423591D02*
X3409402Y-4433115D01*
X3409402Y-4433115D02*
X3418926Y-4442639D01*
X3418926Y-4442639D02*
X3428450Y-4433115D01*
X3428450Y-4433115D02*
X3418926Y-4423591D01*
X3418926Y-4423591D02*
X3418926Y-4442639D01*
X3542735Y-4623591D02*
X3523688Y-4614067D01*
X3523688Y-4614067D02*
X3514164Y-4595020D01*
X3514164Y-4595020D02*
X3514164Y-4423591D01*
X3647497Y-4623591D02*
X3628450Y-4614067D01*
X3628450Y-4614067D02*
X3618926Y-4595020D01*
X3618926Y-4595020D02*
X3618926Y-4423591D01*
X3876069Y-4623591D02*
X3876069Y-4423591D01*
X3876069Y-4423591D02*
X3942736Y-4566448D01*
X3942736Y-4566448D02*
X4009402Y-4423591D01*
X4009402Y-4423591D02*
X4009402Y-4623591D01*
X4190355Y-4623591D02*
X4190355Y-4518829D01*
X4190355Y-4518829D02*
X4180831Y-4499782D01*
X4180831Y-4499782D02*
X4161783Y-4490258D01*
X4161783Y-4490258D02*
X4123688Y-4490258D01*
X4123688Y-4490258D02*
X4104640Y-4499782D01*
X4190355Y-4614067D02*
X4171307Y-4623591D01*
X4171307Y-4623591D02*
X4123688Y-4623591D01*
X4123688Y-4623591D02*
X4104640Y-4614067D01*
X4104640Y-4614067D02*
X4095116Y-4595020D01*
X4095116Y-4595020D02*
X4095116Y-4575972D01*
X4095116Y-4575972D02*
X4104640Y-4556925D01*
X4104640Y-4556925D02*
X4123688Y-4547401D01*
X4123688Y-4547401D02*
X4171307Y-4547401D01*
X4171307Y-4547401D02*
X4190355Y-4537877D01*
X4285593Y-4490258D02*
X4285593Y-4690258D01*
X4285593Y-4499782D02*
X4304640Y-4490258D01*
X4304640Y-4490258D02*
X4342736Y-4490258D01*
X4342736Y-4490258D02*
X4361783Y-4499782D01*
X4361783Y-4499782D02*
X4371307Y-4509305D01*
X4371307Y-4509305D02*
X4380831Y-4528353D01*
X4380831Y-4528353D02*
X4380831Y-4585496D01*
X4380831Y-4585496D02*
X4371307Y-4604544D01*
X4371307Y-4604544D02*
X4361783Y-4614067D01*
X4361783Y-4614067D02*
X4342736Y-4623591D01*
X4342736Y-4623591D02*
X4304640Y-4623591D01*
X4304640Y-4623591D02*
X4285593Y-4614067D01*
X4466545Y-4604544D02*
X4476069Y-4614067D01*
X4476069Y-4614067D02*
X4466545Y-4623591D01*
X4466545Y-4623591D02*
X4457021Y-4614067D01*
X4457021Y-4614067D02*
X4466545Y-4604544D01*
X4466545Y-4604544D02*
X4466545Y-4623591D01*
X4466545Y-4499782D02*
X4476069Y-4509305D01*
X4476069Y-4509305D02*
X4466545Y-4518829D01*
X4466545Y-4518829D02*
X4457021Y-4509305D01*
X4457021Y-4509305D02*
X4466545Y-4499782D01*
X4466545Y-4499782D02*
X4466545Y-4518829D01*
D10*
X2734340Y-4902107D02*
X2834340Y-5002107D01*
X2834340Y-4902107D02*
X2734340Y-5002107D01*
D11*
X3199878Y-5043591D02*
X3085593Y-5043591D01*
X3142735Y-5043591D02*
X3142735Y-4843591D01*
X3142735Y-4843591D02*
X3123688Y-4872163D01*
X3123688Y-4872163D02*
X3104640Y-4891210D01*
X3104640Y-4891210D02*
X3085593Y-4900734D01*
X3285593Y-5024544D02*
X3295116Y-5034067D01*
X3295116Y-5034067D02*
X3285593Y-5043591D01*
X3285593Y-5043591D02*
X3276069Y-5034067D01*
X3276069Y-5034067D02*
X3285593Y-5024544D01*
X3285593Y-5024544D02*
X3285593Y-5043591D01*
X3418926Y-4843591D02*
X3437974Y-4843591D01*
X3437974Y-4843591D02*
X3457021Y-4853115D01*
X3457021Y-4853115D02*
X3466545Y-4862639D01*
X3466545Y-4862639D02*
X3476069Y-4881686D01*
X3476069Y-4881686D02*
X3485593Y-4919782D01*
X3485593Y-4919782D02*
X3485593Y-4967401D01*
X3485593Y-4967401D02*
X3476069Y-5005496D01*
X3476069Y-5005496D02*
X3466545Y-5024544D01*
X3466545Y-5024544D02*
X3457021Y-5034067D01*
X3457021Y-5034067D02*
X3437974Y-5043591D01*
X3437974Y-5043591D02*
X3418926Y-5043591D01*
X3418926Y-5043591D02*
X3399878Y-5034067D01*
X3399878Y-5034067D02*
X3390355Y-5024544D01*
X3390355Y-5024544D02*
X3380831Y-5005496D01*
X3380831Y-5005496D02*
X3371307Y-4967401D01*
X3371307Y-4967401D02*
X3371307Y-4919782D01*
X3371307Y-4919782D02*
X3380831Y-4881686D01*
X3380831Y-4881686D02*
X3390355Y-4862639D01*
X3390355Y-4862639D02*
X3399878Y-4853115D01*
X3399878Y-4853115D02*
X3418926Y-4843591D01*
X3609402Y-4843591D02*
X3628450Y-4843591D01*
X3628450Y-4843591D02*
X3647497Y-4853115D01*
X3647497Y-4853115D02*
X3657021Y-4862639D01*
X3657021Y-4862639D02*
X3666545Y-4881686D01*
X3666545Y-4881686D02*
X3676069Y-4919782D01*
X3676069Y-4919782D02*
X3676069Y-4967401D01*
X3676069Y-4967401D02*
X3666545Y-5005496D01*
X3666545Y-5005496D02*
X3657021Y-5024544D01*
X3657021Y-5024544D02*
X3647497Y-5034067D01*
X3647497Y-5034067D02*
X3628450Y-5043591D01*
X3628450Y-5043591D02*
X3609402Y-5043591D01*
X3609402Y-5043591D02*
X3590355Y-5034067D01*
X3590355Y-5034067D02*
X3580831Y-5024544D01*
X3580831Y-5024544D02*
X3571307Y-5005496D01*
X3571307Y-5005496D02*
X3561783Y-4967401D01*
X3561783Y-4967401D02*
X3561783Y-4919782D01*
X3561783Y-4919782D02*
X3571307Y-4881686D01*
X3571307Y-4881686D02*
X3580831Y-4862639D01*
X3580831Y-4862639D02*
X3590355Y-4853115D01*
X3590355Y-4853115D02*
X3609402Y-4843591D01*
X3799878Y-4843591D02*
X3818926Y-4843591D01*
X3818926Y-4843591D02*
X3837974Y-4853115D01*
X3837974Y-4853115D02*
X3847497Y-4862639D01*
X3847497Y-4862639D02*
X3857021Y-4881686D01*
X3857021Y-4881686D02*
X3866545Y-4919782D01*
X3866545Y-4919782D02*
X3866545Y-4967401D01*
X3866545Y-4967401D02*
X3857021Y-5005496D01*
X3857021Y-5005496D02*
X3847497Y-5024544D01*
X3847497Y-5024544D02*
X3837974Y-5034067D01*
X3837974Y-5034067D02*
X3818926Y-5043591D01*
X3818926Y-5043591D02*
X3799878Y-5043591D01*
X3799878Y-5043591D02*
X3780831Y-5034067D01*
X3780831Y-5034067D02*
X3771307Y-5024544D01*
X3771307Y-5024544D02*
X3761783Y-5005496D01*
X3761783Y-5005496D02*
X3752259Y-4967401D01*
X3752259Y-4967401D02*
X3752259Y-4919782D01*
X3752259Y-4919782D02*
X3761783Y-4881686D01*
X3761783Y-4881686D02*
X3771307Y-4862639D01*
X3771307Y-4862639D02*
X3780831Y-4853115D01*
X3780831Y-4853115D02*
X3799878Y-4843591D01*
X3952259Y-5043591D02*
X3952259Y-4910258D01*
X3952259Y-4929305D02*
X3961783Y-4919782D01*
X3961783Y-4919782D02*
X3980831Y-4910258D01*
X3980831Y-4910258D02*
X4009402Y-4910258D01*
X4009402Y-4910258D02*
X4028450Y-4919782D01*
X4028450Y-4919782D02*
X4037974Y-4938829D01*
X4037974Y-4938829D02*
X4037974Y-5043591D01*
X4037974Y-4938829D02*
X4047497Y-4919782D01*
X4047497Y-4919782D02*
X4066545Y-4910258D01*
X4066545Y-4910258D02*
X4095116Y-4910258D01*
X4095116Y-4910258D02*
X4114164Y-4919782D01*
X4114164Y-4919782D02*
X4123688Y-4938829D01*
X4123688Y-4938829D02*
X4123688Y-5043591D01*
X4218926Y-5043591D02*
X4218926Y-4910258D01*
X4218926Y-4929305D02*
X4228450Y-4919782D01*
X4228450Y-4919782D02*
X4247498Y-4910258D01*
X4247498Y-4910258D02*
X4276069Y-4910258D01*
X4276069Y-4910258D02*
X4295117Y-4919782D01*
X4295117Y-4919782D02*
X4304640Y-4938829D01*
X4304640Y-4938829D02*
X4304640Y-5043591D01*
X4304640Y-4938829D02*
X4314164Y-4919782D01*
X4314164Y-4919782D02*
X4333212Y-4910258D01*
X4333212Y-4910258D02*
X4361783Y-4910258D01*
X4361783Y-4910258D02*
X4380831Y-4919782D01*
X4380831Y-4919782D02*
X4390355Y-4938829D01*
X4390355Y-4938829D02*
X4390355Y-5043591D01*
X4780831Y-4834067D02*
X4609402Y-5091210D01*
X5037974Y-4843591D02*
X5057022Y-4843591D01*
X5057022Y-4843591D02*
X5076069Y-4853115D01*
X5076069Y-4853115D02*
X5085593Y-4862639D01*
X5085593Y-4862639D02*
X5095117Y-4881686D01*
X5095117Y-4881686D02*
X5104641Y-4919782D01*
X5104641Y-4919782D02*
X5104641Y-4967401D01*
X5104641Y-4967401D02*
X5095117Y-5005496D01*
X5095117Y-5005496D02*
X5085593Y-5024544D01*
X5085593Y-5024544D02*
X5076069Y-5034067D01*
X5076069Y-5034067D02*
X5057022Y-5043591D01*
X5057022Y-5043591D02*
X5037974Y-5043591D01*
X5037974Y-5043591D02*
X5018926Y-5034067D01*
X5018926Y-5034067D02*
X5009402Y-5024544D01*
X5009402Y-5024544D02*
X4999879Y-5005496D01*
X4999879Y-5005496D02*
X4990355Y-4967401D01*
X4990355Y-4967401D02*
X4990355Y-4919782D01*
X4990355Y-4919782D02*
X4999879Y-4881686D01*
X4999879Y-4881686D02*
X5009402Y-4862639D01*
X5009402Y-4862639D02*
X5018926Y-4853115D01*
X5018926Y-4853115D02*
X5037974Y-4843591D01*
X5190355Y-5024544D02*
X5199879Y-5034067D01*
X5199879Y-5034067D02*
X5190355Y-5043591D01*
X5190355Y-5043591D02*
X5180831Y-5034067D01*
X5180831Y-5034067D02*
X5190355Y-5024544D01*
X5190355Y-5024544D02*
X5190355Y-5043591D01*
X5323688Y-4843591D02*
X5342736Y-4843591D01*
X5342736Y-4843591D02*
X5361783Y-4853115D01*
X5361783Y-4853115D02*
X5371307Y-4862639D01*
X5371307Y-4862639D02*
X5380831Y-4881686D01*
X5380831Y-4881686D02*
X5390355Y-4919782D01*
X5390355Y-4919782D02*
X5390355Y-4967401D01*
X5390355Y-4967401D02*
X5380831Y-5005496D01*
X5380831Y-5005496D02*
X5371307Y-5024544D01*
X5371307Y-5024544D02*
X5361783Y-5034067D01*
X5361783Y-5034067D02*
X5342736Y-5043591D01*
X5342736Y-5043591D02*
X5323688Y-5043591D01*
X5323688Y-5043591D02*
X5304641Y-5034067D01*
X5304641Y-5034067D02*
X5295117Y-5024544D01*
X5295117Y-5024544D02*
X5285593Y-5005496D01*
X5285593Y-5005496D02*
X5276069Y-4967401D01*
X5276069Y-4967401D02*
X5276069Y-4919782D01*
X5276069Y-4919782D02*
X5285593Y-4881686D01*
X5285593Y-4881686D02*
X5295117Y-4862639D01*
X5295117Y-4862639D02*
X5304641Y-4853115D01*
X5304641Y-4853115D02*
X5323688Y-4843591D01*
X5457022Y-4843591D02*
X5580831Y-4843591D01*
X5580831Y-4843591D02*
X5514164Y-4919782D01*
X5514164Y-4919782D02*
X5542736Y-4919782D01*
X5542736Y-4919782D02*
X5561783Y-4929305D01*
X5561783Y-4929305D02*
X5571307Y-4938829D01*
X5571307Y-4938829D02*
X5580831Y-4957877D01*
X5580831Y-4957877D02*
X5580831Y-5005496D01*
X5580831Y-5005496D02*
X5571307Y-5024544D01*
X5571307Y-5024544D02*
X5561783Y-5034067D01*
X5561783Y-5034067D02*
X5542736Y-5043591D01*
X5542736Y-5043591D02*
X5485593Y-5043591D01*
X5485593Y-5043591D02*
X5466545Y-5034067D01*
X5466545Y-5034067D02*
X5457022Y-5024544D01*
X5676069Y-5043591D02*
X5714164Y-5043591D01*
X5714164Y-5043591D02*
X5733212Y-5034067D01*
X5733212Y-5034067D02*
X5742736Y-5024544D01*
X5742736Y-5024544D02*
X5761783Y-4995972D01*
X5761783Y-4995972D02*
X5771307Y-4957877D01*
X5771307Y-4957877D02*
X5771307Y-4881686D01*
X5771307Y-4881686D02*
X5761783Y-4862639D01*
X5761783Y-4862639D02*
X5752260Y-4853115D01*
X5752260Y-4853115D02*
X5733212Y-4843591D01*
X5733212Y-4843591D02*
X5695117Y-4843591D01*
X5695117Y-4843591D02*
X5676069Y-4853115D01*
X5676069Y-4853115D02*
X5666545Y-4862639D01*
X5666545Y-4862639D02*
X5657021Y-4881686D01*
X5657021Y-4881686D02*
X5657021Y-4929305D01*
X5657021Y-4929305D02*
X5666545Y-4948353D01*
X5666545Y-4948353D02*
X5676069Y-4957877D01*
X5676069Y-4957877D02*
X5695117Y-4967401D01*
X5695117Y-4967401D02*
X5733212Y-4967401D01*
X5733212Y-4967401D02*
X5752260Y-4957877D01*
X5752260Y-4957877D02*
X5761783Y-4948353D01*
X5761783Y-4948353D02*
X5771307Y-4929305D01*
X5942736Y-4910258D02*
X5942736Y-5043591D01*
X5895117Y-4834067D02*
X5847498Y-4976925D01*
X5847498Y-4976925D02*
X5971307Y-4976925D01*
X6037974Y-4843591D02*
X6037974Y-4881686D01*
X6114164Y-4843591D02*
X6114164Y-4881686D01*
X6409403Y-5119782D02*
X6399879Y-5110258D01*
X6399879Y-5110258D02*
X6380831Y-5081686D01*
X6380831Y-5081686D02*
X6371307Y-5062639D01*
X6371307Y-5062639D02*
X6361783Y-5034067D01*
X6361783Y-5034067D02*
X6352260Y-4986448D01*
X6352260Y-4986448D02*
X6352260Y-4948353D01*
X6352260Y-4948353D02*
X6361783Y-4900734D01*
X6361783Y-4900734D02*
X6371307Y-4872163D01*
X6371307Y-4872163D02*
X6380831Y-4853115D01*
X6380831Y-4853115D02*
X6399879Y-4824544D01*
X6399879Y-4824544D02*
X6409403Y-4815020D01*
X6495117Y-5043591D02*
X6533212Y-5043591D01*
X6533212Y-5043591D02*
X6552260Y-5034067D01*
X6552260Y-5034067D02*
X6561783Y-5024544D01*
X6561783Y-5024544D02*
X6580831Y-4995972D01*
X6580831Y-4995972D02*
X6590355Y-4957877D01*
X6590355Y-4957877D02*
X6590355Y-4881686D01*
X6590355Y-4881686D02*
X6580831Y-4862639D01*
X6580831Y-4862639D02*
X6571307Y-4853115D01*
X6571307Y-4853115D02*
X6552260Y-4843591D01*
X6552260Y-4843591D02*
X6514164Y-4843591D01*
X6514164Y-4843591D02*
X6495117Y-4853115D01*
X6495117Y-4853115D02*
X6485593Y-4862639D01*
X6485593Y-4862639D02*
X6476069Y-4881686D01*
X6476069Y-4881686D02*
X6476069Y-4929305D01*
X6476069Y-4929305D02*
X6485593Y-4948353D01*
X6485593Y-4948353D02*
X6495117Y-4957877D01*
X6495117Y-4957877D02*
X6514164Y-4967401D01*
X6514164Y-4967401D02*
X6552260Y-4967401D01*
X6552260Y-4967401D02*
X6571307Y-4957877D01*
X6571307Y-4957877D02*
X6580831Y-4948353D01*
X6580831Y-4948353D02*
X6590355Y-4929305D01*
X6828450Y-5043591D02*
X6828450Y-4843591D01*
X6914164Y-5043591D02*
X6914164Y-4938829D01*
X6914164Y-4938829D02*
X6904641Y-4919782D01*
X6904641Y-4919782D02*
X6885593Y-4910258D01*
X6885593Y-4910258D02*
X6857022Y-4910258D01*
X6857022Y-4910258D02*
X6837974Y-4919782D01*
X6837974Y-4919782D02*
X6828450Y-4929305D01*
X7037974Y-5043591D02*
X7018926Y-5034067D01*
X7018926Y-5034067D02*
X7009403Y-5024544D01*
X7009403Y-5024544D02*
X6999879Y-5005496D01*
X6999879Y-5005496D02*
X6999879Y-4948353D01*
X6999879Y-4948353D02*
X7009403Y-4929305D01*
X7009403Y-4929305D02*
X7018926Y-4919782D01*
X7018926Y-4919782D02*
X7037974Y-4910258D01*
X7037974Y-4910258D02*
X7066545Y-4910258D01*
X7066545Y-4910258D02*
X7085593Y-4919782D01*
X7085593Y-4919782D02*
X7095117Y-4929305D01*
X7095117Y-4929305D02*
X7104641Y-4948353D01*
X7104641Y-4948353D02*
X7104641Y-5005496D01*
X7104641Y-5005496D02*
X7095117Y-5024544D01*
X7095117Y-5024544D02*
X7085593Y-5034067D01*
X7085593Y-5034067D02*
X7066545Y-5043591D01*
X7066545Y-5043591D02*
X7037974Y-5043591D01*
X7218926Y-5043591D02*
X7199879Y-5034067D01*
X7199879Y-5034067D02*
X7190355Y-5015020D01*
X7190355Y-5015020D02*
X7190355Y-4843591D01*
X7371307Y-5034067D02*
X7352260Y-5043591D01*
X7352260Y-5043591D02*
X7314164Y-5043591D01*
X7314164Y-5043591D02*
X7295117Y-5034067D01*
X7295117Y-5034067D02*
X7285593Y-5015020D01*
X7285593Y-5015020D02*
X7285593Y-4938829D01*
X7285593Y-4938829D02*
X7295117Y-4919782D01*
X7295117Y-4919782D02*
X7314164Y-4910258D01*
X7314164Y-4910258D02*
X7352260Y-4910258D01*
X7352260Y-4910258D02*
X7371307Y-4919782D01*
X7371307Y-4919782D02*
X7380831Y-4938829D01*
X7380831Y-4938829D02*
X7380831Y-4957877D01*
X7380831Y-4957877D02*
X7285593Y-4976925D01*
X7457022Y-5034067D02*
X7476069Y-5043591D01*
X7476069Y-5043591D02*
X7514164Y-5043591D01*
X7514164Y-5043591D02*
X7533212Y-5034067D01*
X7533212Y-5034067D02*
X7542736Y-5015020D01*
X7542736Y-5015020D02*
X7542736Y-5005496D01*
X7542736Y-5005496D02*
X7533212Y-4986448D01*
X7533212Y-4986448D02*
X7514164Y-4976925D01*
X7514164Y-4976925D02*
X7485593Y-4976925D01*
X7485593Y-4976925D02*
X7466545Y-4967401D01*
X7466545Y-4967401D02*
X7457022Y-4948353D01*
X7457022Y-4948353D02*
X7457022Y-4938829D01*
X7457022Y-4938829D02*
X7466545Y-4919782D01*
X7466545Y-4919782D02*
X7485593Y-4910258D01*
X7485593Y-4910258D02*
X7514164Y-4910258D01*
X7514164Y-4910258D02*
X7533212Y-4919782D01*
X7609403Y-5119782D02*
X7618926Y-5110258D01*
X7618926Y-5110258D02*
X7637974Y-5081686D01*
X7637974Y-5081686D02*
X7647498Y-5062639D01*
X7647498Y-5062639D02*
X7657022Y-5034067D01*
X7657022Y-5034067D02*
X7666545Y-4986448D01*
X7666545Y-4986448D02*
X7666545Y-4948353D01*
X7666545Y-4948353D02*
X7657022Y-4900734D01*
X7657022Y-4900734D02*
X7647498Y-4872163D01*
X7647498Y-4872163D02*
X7637974Y-4853115D01*
X7637974Y-4853115D02*
X7618926Y-4824544D01*
X7618926Y-4824544D02*
X7609403Y-4815020D01*
M02*
