%TF.GenerationSoftware,KiCad,Pcbnew,7.0.5*%
%TF.CreationDate,2023-06-18T14:48:46+02:00*%
%TF.ProjectId,LH_RKJXM1015004_thumb,4c485f52-4b4a-4584-9d31-303135303034,rev?*%
%TF.SameCoordinates,Original*%
%TF.FileFunction,Drillmap*%
%TF.FilePolarity,Positive*%
%FSLAX45Y45*%
G04 Gerber Fmt 4.5, Leading zero omitted, Abs format (unit mm)*
G04 Created by KiCad (PCBNEW 7.0.5) date 2023-06-18 14:48:46*
%MOMM*%
%LPD*%
G01*
G04 APERTURE LIST*
%ADD10C,0.100000*%
%ADD11C,0.200000*%
%ADD12C,0.110000*%
%ADD13C,0.220000*%
G04 APERTURE END LIST*
D10*
X7600001Y-4500001D02*
X6181686Y-4500001D01*
X7600001Y-4500001D02*
G75*
G03*
X8250001Y-3850001I-1J650001D01*
G01*
X6181686Y-2520161D02*
X6181686Y-4500001D01*
X6181686Y-2520161D02*
X6289183Y-2528051D01*
X6395148Y-2537625D01*
X6499459Y-2548932D01*
X6601990Y-2562022D01*
X6702619Y-2576942D01*
X6801223Y-2593741D01*
X6897678Y-2612469D01*
X6991861Y-2633174D01*
X7083649Y-2655904D01*
X7172918Y-2680709D01*
X7259545Y-2707637D01*
X7343406Y-2736738D01*
X7424379Y-2768059D01*
X7502340Y-2801650D01*
X7577166Y-2837560D01*
X7648733Y-2875836D01*
X7716918Y-2916529D01*
X7781598Y-2959686D01*
X7842649Y-3005357D01*
X7899949Y-3053591D01*
X7953373Y-3104435D01*
X8002798Y-3157939D01*
X8048102Y-3214152D01*
X8089160Y-3273122D01*
X8125850Y-3334898D01*
X8158048Y-3399529D01*
X8185631Y-3467064D01*
X8208475Y-3537551D01*
X8226458Y-3611040D01*
X8239455Y-3687578D01*
X8247344Y-3767216D01*
X8250001Y-3850001D01*
D11*
D12*
X7583895Y-3481173D02*
X7693895Y-3591173D01*
X7693895Y-3481173D02*
X7583895Y-3591173D01*
D13*
X6510000Y-2850000D02*
G75*
G03*
X6510000Y-2850000I-110000J0D01*
G01*
X6510000Y-4300000D02*
G75*
G03*
X6510000Y-4300000I-110000J0D01*
G01*
D11*
X6437462Y-4816485D02*
X6437462Y-4616485D01*
X6437462Y-4616485D02*
X6485081Y-4616485D01*
X6485081Y-4616485D02*
X6513653Y-4626009D01*
X6513653Y-4626009D02*
X6532700Y-4645056D01*
X6532700Y-4645056D02*
X6542224Y-4664104D01*
X6542224Y-4664104D02*
X6551748Y-4702199D01*
X6551748Y-4702199D02*
X6551748Y-4730770D01*
X6551748Y-4730770D02*
X6542224Y-4768866D01*
X6542224Y-4768866D02*
X6532700Y-4787913D01*
X6532700Y-4787913D02*
X6513653Y-4806961D01*
X6513653Y-4806961D02*
X6485081Y-4816485D01*
X6485081Y-4816485D02*
X6437462Y-4816485D01*
X6637462Y-4816485D02*
X6637462Y-4683151D01*
X6637462Y-4721247D02*
X6646986Y-4702199D01*
X6646986Y-4702199D02*
X6656510Y-4692675D01*
X6656510Y-4692675D02*
X6675558Y-4683151D01*
X6675558Y-4683151D02*
X6694605Y-4683151D01*
X6761272Y-4816485D02*
X6761272Y-4683151D01*
X6761272Y-4616485D02*
X6751748Y-4626009D01*
X6751748Y-4626009D02*
X6761272Y-4635532D01*
X6761272Y-4635532D02*
X6770796Y-4626009D01*
X6770796Y-4626009D02*
X6761272Y-4616485D01*
X6761272Y-4616485D02*
X6761272Y-4635532D01*
X6885081Y-4816485D02*
X6866034Y-4806961D01*
X6866034Y-4806961D02*
X6856510Y-4787913D01*
X6856510Y-4787913D02*
X6856510Y-4616485D01*
X6989843Y-4816485D02*
X6970796Y-4806961D01*
X6970796Y-4806961D02*
X6961272Y-4787913D01*
X6961272Y-4787913D02*
X6961272Y-4616485D01*
X7218415Y-4816485D02*
X7218415Y-4616485D01*
X7218415Y-4616485D02*
X7285081Y-4759342D01*
X7285081Y-4759342D02*
X7351748Y-4616485D01*
X7351748Y-4616485D02*
X7351748Y-4816485D01*
X7532700Y-4816485D02*
X7532700Y-4711723D01*
X7532700Y-4711723D02*
X7523177Y-4692675D01*
X7523177Y-4692675D02*
X7504129Y-4683151D01*
X7504129Y-4683151D02*
X7466034Y-4683151D01*
X7466034Y-4683151D02*
X7446986Y-4692675D01*
X7532700Y-4806961D02*
X7513653Y-4816485D01*
X7513653Y-4816485D02*
X7466034Y-4816485D01*
X7466034Y-4816485D02*
X7446986Y-4806961D01*
X7446986Y-4806961D02*
X7437462Y-4787913D01*
X7437462Y-4787913D02*
X7437462Y-4768866D01*
X7437462Y-4768866D02*
X7446986Y-4749818D01*
X7446986Y-4749818D02*
X7466034Y-4740294D01*
X7466034Y-4740294D02*
X7513653Y-4740294D01*
X7513653Y-4740294D02*
X7532700Y-4730770D01*
X7627939Y-4683151D02*
X7627939Y-4883151D01*
X7627939Y-4692675D02*
X7646986Y-4683151D01*
X7646986Y-4683151D02*
X7685081Y-4683151D01*
X7685081Y-4683151D02*
X7704129Y-4692675D01*
X7704129Y-4692675D02*
X7713653Y-4702199D01*
X7713653Y-4702199D02*
X7723177Y-4721247D01*
X7723177Y-4721247D02*
X7723177Y-4778389D01*
X7723177Y-4778389D02*
X7713653Y-4797437D01*
X7713653Y-4797437D02*
X7704129Y-4806961D01*
X7704129Y-4806961D02*
X7685081Y-4816485D01*
X7685081Y-4816485D02*
X7646986Y-4816485D01*
X7646986Y-4816485D02*
X7627939Y-4806961D01*
X7808891Y-4797437D02*
X7818415Y-4806961D01*
X7818415Y-4806961D02*
X7808891Y-4816485D01*
X7808891Y-4816485D02*
X7799367Y-4806961D01*
X7799367Y-4806961D02*
X7808891Y-4797437D01*
X7808891Y-4797437D02*
X7808891Y-4816485D01*
X7808891Y-4692675D02*
X7818415Y-4702199D01*
X7818415Y-4702199D02*
X7808891Y-4711723D01*
X7808891Y-4711723D02*
X7799367Y-4702199D01*
X7799367Y-4702199D02*
X7808891Y-4692675D01*
X7808891Y-4692675D02*
X7808891Y-4711723D01*
D12*
X6066686Y-5090001D02*
X6176686Y-5200001D01*
X6176686Y-5090001D02*
X6066686Y-5200001D01*
D11*
X6542224Y-5236485D02*
X6427939Y-5236485D01*
X6485081Y-5236485D02*
X6485081Y-5036485D01*
X6485081Y-5036485D02*
X6466034Y-5065056D01*
X6466034Y-5065056D02*
X6446986Y-5084104D01*
X6446986Y-5084104D02*
X6427939Y-5093628D01*
X6627939Y-5217437D02*
X6637462Y-5226961D01*
X6637462Y-5226961D02*
X6627939Y-5236485D01*
X6627939Y-5236485D02*
X6618415Y-5226961D01*
X6618415Y-5226961D02*
X6627939Y-5217437D01*
X6627939Y-5217437D02*
X6627939Y-5236485D01*
X6827939Y-5236485D02*
X6713653Y-5236485D01*
X6770796Y-5236485D02*
X6770796Y-5036485D01*
X6770796Y-5036485D02*
X6751748Y-5065056D01*
X6751748Y-5065056D02*
X6732700Y-5084104D01*
X6732700Y-5084104D02*
X6713653Y-5093628D01*
X6951748Y-5036485D02*
X6970796Y-5036485D01*
X6970796Y-5036485D02*
X6989843Y-5046009D01*
X6989843Y-5046009D02*
X6999367Y-5055532D01*
X6999367Y-5055532D02*
X7008891Y-5074580D01*
X7008891Y-5074580D02*
X7018415Y-5112675D01*
X7018415Y-5112675D02*
X7018415Y-5160294D01*
X7018415Y-5160294D02*
X7008891Y-5198389D01*
X7008891Y-5198389D02*
X6999367Y-5217437D01*
X6999367Y-5217437D02*
X6989843Y-5226961D01*
X6989843Y-5226961D02*
X6970796Y-5236485D01*
X6970796Y-5236485D02*
X6951748Y-5236485D01*
X6951748Y-5236485D02*
X6932700Y-5226961D01*
X6932700Y-5226961D02*
X6923177Y-5217437D01*
X6923177Y-5217437D02*
X6913653Y-5198389D01*
X6913653Y-5198389D02*
X6904129Y-5160294D01*
X6904129Y-5160294D02*
X6904129Y-5112675D01*
X6904129Y-5112675D02*
X6913653Y-5074580D01*
X6913653Y-5074580D02*
X6923177Y-5055532D01*
X6923177Y-5055532D02*
X6932700Y-5046009D01*
X6932700Y-5046009D02*
X6951748Y-5036485D01*
X7142224Y-5036485D02*
X7161272Y-5036485D01*
X7161272Y-5036485D02*
X7180320Y-5046009D01*
X7180320Y-5046009D02*
X7189843Y-5055532D01*
X7189843Y-5055532D02*
X7199367Y-5074580D01*
X7199367Y-5074580D02*
X7208891Y-5112675D01*
X7208891Y-5112675D02*
X7208891Y-5160294D01*
X7208891Y-5160294D02*
X7199367Y-5198389D01*
X7199367Y-5198389D02*
X7189843Y-5217437D01*
X7189843Y-5217437D02*
X7180320Y-5226961D01*
X7180320Y-5226961D02*
X7161272Y-5236485D01*
X7161272Y-5236485D02*
X7142224Y-5236485D01*
X7142224Y-5236485D02*
X7123177Y-5226961D01*
X7123177Y-5226961D02*
X7113653Y-5217437D01*
X7113653Y-5217437D02*
X7104129Y-5198389D01*
X7104129Y-5198389D02*
X7094605Y-5160294D01*
X7094605Y-5160294D02*
X7094605Y-5112675D01*
X7094605Y-5112675D02*
X7104129Y-5074580D01*
X7104129Y-5074580D02*
X7113653Y-5055532D01*
X7113653Y-5055532D02*
X7123177Y-5046009D01*
X7123177Y-5046009D02*
X7142224Y-5036485D01*
X7294605Y-5236485D02*
X7294605Y-5103151D01*
X7294605Y-5122199D02*
X7304129Y-5112675D01*
X7304129Y-5112675D02*
X7323177Y-5103151D01*
X7323177Y-5103151D02*
X7351748Y-5103151D01*
X7351748Y-5103151D02*
X7370796Y-5112675D01*
X7370796Y-5112675D02*
X7380320Y-5131723D01*
X7380320Y-5131723D02*
X7380320Y-5236485D01*
X7380320Y-5131723D02*
X7389843Y-5112675D01*
X7389843Y-5112675D02*
X7408891Y-5103151D01*
X7408891Y-5103151D02*
X7437462Y-5103151D01*
X7437462Y-5103151D02*
X7456510Y-5112675D01*
X7456510Y-5112675D02*
X7466034Y-5131723D01*
X7466034Y-5131723D02*
X7466034Y-5236485D01*
X7561272Y-5236485D02*
X7561272Y-5103151D01*
X7561272Y-5122199D02*
X7570796Y-5112675D01*
X7570796Y-5112675D02*
X7589843Y-5103151D01*
X7589843Y-5103151D02*
X7618415Y-5103151D01*
X7618415Y-5103151D02*
X7637462Y-5112675D01*
X7637462Y-5112675D02*
X7646986Y-5131723D01*
X7646986Y-5131723D02*
X7646986Y-5236485D01*
X7646986Y-5131723D02*
X7656510Y-5112675D01*
X7656510Y-5112675D02*
X7675558Y-5103151D01*
X7675558Y-5103151D02*
X7704129Y-5103151D01*
X7704129Y-5103151D02*
X7723177Y-5112675D01*
X7723177Y-5112675D02*
X7732701Y-5131723D01*
X7732701Y-5131723D02*
X7732701Y-5236485D01*
X8123177Y-5026961D02*
X7951748Y-5284104D01*
X8380320Y-5036485D02*
X8399367Y-5036485D01*
X8399367Y-5036485D02*
X8418415Y-5046009D01*
X8418415Y-5046009D02*
X8427939Y-5055532D01*
X8427939Y-5055532D02*
X8437463Y-5074580D01*
X8437463Y-5074580D02*
X8446986Y-5112675D01*
X8446986Y-5112675D02*
X8446986Y-5160294D01*
X8446986Y-5160294D02*
X8437463Y-5198389D01*
X8437463Y-5198389D02*
X8427939Y-5217437D01*
X8427939Y-5217437D02*
X8418415Y-5226961D01*
X8418415Y-5226961D02*
X8399367Y-5236485D01*
X8399367Y-5236485D02*
X8380320Y-5236485D01*
X8380320Y-5236485D02*
X8361272Y-5226961D01*
X8361272Y-5226961D02*
X8351748Y-5217437D01*
X8351748Y-5217437D02*
X8342224Y-5198389D01*
X8342224Y-5198389D02*
X8332701Y-5160294D01*
X8332701Y-5160294D02*
X8332701Y-5112675D01*
X8332701Y-5112675D02*
X8342224Y-5074580D01*
X8342224Y-5074580D02*
X8351748Y-5055532D01*
X8351748Y-5055532D02*
X8361272Y-5046009D01*
X8361272Y-5046009D02*
X8380320Y-5036485D01*
X8532701Y-5217437D02*
X8542225Y-5226961D01*
X8542225Y-5226961D02*
X8532701Y-5236485D01*
X8532701Y-5236485D02*
X8523177Y-5226961D01*
X8523177Y-5226961D02*
X8532701Y-5217437D01*
X8532701Y-5217437D02*
X8532701Y-5236485D01*
X8666034Y-5036485D02*
X8685082Y-5036485D01*
X8685082Y-5036485D02*
X8704129Y-5046009D01*
X8704129Y-5046009D02*
X8713653Y-5055532D01*
X8713653Y-5055532D02*
X8723177Y-5074580D01*
X8723177Y-5074580D02*
X8732701Y-5112675D01*
X8732701Y-5112675D02*
X8732701Y-5160294D01*
X8732701Y-5160294D02*
X8723177Y-5198389D01*
X8723177Y-5198389D02*
X8713653Y-5217437D01*
X8713653Y-5217437D02*
X8704129Y-5226961D01*
X8704129Y-5226961D02*
X8685082Y-5236485D01*
X8685082Y-5236485D02*
X8666034Y-5236485D01*
X8666034Y-5236485D02*
X8646986Y-5226961D01*
X8646986Y-5226961D02*
X8637463Y-5217437D01*
X8637463Y-5217437D02*
X8627939Y-5198389D01*
X8627939Y-5198389D02*
X8618415Y-5160294D01*
X8618415Y-5160294D02*
X8618415Y-5112675D01*
X8618415Y-5112675D02*
X8627939Y-5074580D01*
X8627939Y-5074580D02*
X8637463Y-5055532D01*
X8637463Y-5055532D02*
X8646986Y-5046009D01*
X8646986Y-5046009D02*
X8666034Y-5036485D01*
X8904129Y-5103151D02*
X8904129Y-5236485D01*
X8856510Y-5026961D02*
X8808891Y-5169818D01*
X8808891Y-5169818D02*
X8932701Y-5169818D01*
X8989844Y-5036485D02*
X9113653Y-5036485D01*
X9113653Y-5036485D02*
X9046986Y-5112675D01*
X9046986Y-5112675D02*
X9075558Y-5112675D01*
X9075558Y-5112675D02*
X9094606Y-5122199D01*
X9094606Y-5122199D02*
X9104129Y-5131723D01*
X9104129Y-5131723D02*
X9113653Y-5150770D01*
X9113653Y-5150770D02*
X9113653Y-5198389D01*
X9113653Y-5198389D02*
X9104129Y-5217437D01*
X9104129Y-5217437D02*
X9094606Y-5226961D01*
X9094606Y-5226961D02*
X9075558Y-5236485D01*
X9075558Y-5236485D02*
X9018415Y-5236485D01*
X9018415Y-5236485D02*
X8999367Y-5226961D01*
X8999367Y-5226961D02*
X8989844Y-5217437D01*
X9180320Y-5036485D02*
X9304129Y-5036485D01*
X9304129Y-5036485D02*
X9237463Y-5112675D01*
X9237463Y-5112675D02*
X9266034Y-5112675D01*
X9266034Y-5112675D02*
X9285082Y-5122199D01*
X9285082Y-5122199D02*
X9294606Y-5131723D01*
X9294606Y-5131723D02*
X9304129Y-5150770D01*
X9304129Y-5150770D02*
X9304129Y-5198389D01*
X9304129Y-5198389D02*
X9294606Y-5217437D01*
X9294606Y-5217437D02*
X9285082Y-5226961D01*
X9285082Y-5226961D02*
X9266034Y-5236485D01*
X9266034Y-5236485D02*
X9208891Y-5236485D01*
X9208891Y-5236485D02*
X9189844Y-5226961D01*
X9189844Y-5226961D02*
X9180320Y-5217437D01*
X9380320Y-5036485D02*
X9380320Y-5074580D01*
X9456510Y-5036485D02*
X9456510Y-5074580D01*
X9751749Y-5312675D02*
X9742225Y-5303151D01*
X9742225Y-5303151D02*
X9723177Y-5274580D01*
X9723177Y-5274580D02*
X9713653Y-5255532D01*
X9713653Y-5255532D02*
X9704129Y-5226961D01*
X9704129Y-5226961D02*
X9694606Y-5179342D01*
X9694606Y-5179342D02*
X9694606Y-5141247D01*
X9694606Y-5141247D02*
X9704129Y-5093628D01*
X9704129Y-5093628D02*
X9713653Y-5065056D01*
X9713653Y-5065056D02*
X9723177Y-5046009D01*
X9723177Y-5046009D02*
X9742225Y-5017437D01*
X9742225Y-5017437D02*
X9751749Y-5007913D01*
X9932701Y-5236485D02*
X9818415Y-5236485D01*
X9875558Y-5236485D02*
X9875558Y-5036485D01*
X9875558Y-5036485D02*
X9856510Y-5065056D01*
X9856510Y-5065056D02*
X9837463Y-5084104D01*
X9837463Y-5084104D02*
X9818415Y-5093628D01*
X10170796Y-5236485D02*
X10170796Y-5036485D01*
X10256510Y-5236485D02*
X10256510Y-5131723D01*
X10256510Y-5131723D02*
X10246987Y-5112675D01*
X10246987Y-5112675D02*
X10227939Y-5103151D01*
X10227939Y-5103151D02*
X10199368Y-5103151D01*
X10199368Y-5103151D02*
X10180320Y-5112675D01*
X10180320Y-5112675D02*
X10170796Y-5122199D01*
X10380320Y-5236485D02*
X10361272Y-5226961D01*
X10361272Y-5226961D02*
X10351749Y-5217437D01*
X10351749Y-5217437D02*
X10342225Y-5198389D01*
X10342225Y-5198389D02*
X10342225Y-5141247D01*
X10342225Y-5141247D02*
X10351749Y-5122199D01*
X10351749Y-5122199D02*
X10361272Y-5112675D01*
X10361272Y-5112675D02*
X10380320Y-5103151D01*
X10380320Y-5103151D02*
X10408891Y-5103151D01*
X10408891Y-5103151D02*
X10427939Y-5112675D01*
X10427939Y-5112675D02*
X10437463Y-5122199D01*
X10437463Y-5122199D02*
X10446987Y-5141247D01*
X10446987Y-5141247D02*
X10446987Y-5198389D01*
X10446987Y-5198389D02*
X10437463Y-5217437D01*
X10437463Y-5217437D02*
X10427939Y-5226961D01*
X10427939Y-5226961D02*
X10408891Y-5236485D01*
X10408891Y-5236485D02*
X10380320Y-5236485D01*
X10561272Y-5236485D02*
X10542225Y-5226961D01*
X10542225Y-5226961D02*
X10532701Y-5207913D01*
X10532701Y-5207913D02*
X10532701Y-5036485D01*
X10713653Y-5226961D02*
X10694606Y-5236485D01*
X10694606Y-5236485D02*
X10656510Y-5236485D01*
X10656510Y-5236485D02*
X10637463Y-5226961D01*
X10637463Y-5226961D02*
X10627939Y-5207913D01*
X10627939Y-5207913D02*
X10627939Y-5131723D01*
X10627939Y-5131723D02*
X10637463Y-5112675D01*
X10637463Y-5112675D02*
X10656510Y-5103151D01*
X10656510Y-5103151D02*
X10694606Y-5103151D01*
X10694606Y-5103151D02*
X10713653Y-5112675D01*
X10713653Y-5112675D02*
X10723177Y-5131723D01*
X10723177Y-5131723D02*
X10723177Y-5150770D01*
X10723177Y-5150770D02*
X10627939Y-5169818D01*
X10789844Y-5312675D02*
X10799368Y-5303151D01*
X10799368Y-5303151D02*
X10818415Y-5274580D01*
X10818415Y-5274580D02*
X10827939Y-5255532D01*
X10827939Y-5255532D02*
X10837463Y-5226961D01*
X10837463Y-5226961D02*
X10846987Y-5179342D01*
X10846987Y-5179342D02*
X10846987Y-5141247D01*
X10846987Y-5141247D02*
X10837463Y-5093628D01*
X10837463Y-5093628D02*
X10827939Y-5065056D01*
X10827939Y-5065056D02*
X10818415Y-5046009D01*
X10818415Y-5046009D02*
X10799368Y-5017437D01*
X10799368Y-5017437D02*
X10789844Y-5007913D01*
X11151749Y-5312675D02*
X11142225Y-5303151D01*
X11142225Y-5303151D02*
X11123177Y-5274580D01*
X11123177Y-5274580D02*
X11113653Y-5255532D01*
X11113653Y-5255532D02*
X11104130Y-5226961D01*
X11104130Y-5226961D02*
X11094606Y-5179342D01*
X11094606Y-5179342D02*
X11094606Y-5141247D01*
X11094606Y-5141247D02*
X11104130Y-5093628D01*
X11104130Y-5093628D02*
X11113653Y-5065056D01*
X11113653Y-5065056D02*
X11123177Y-5046009D01*
X11123177Y-5046009D02*
X11142225Y-5017437D01*
X11142225Y-5017437D02*
X11151749Y-5007913D01*
X11227939Y-5103151D02*
X11227939Y-5236485D01*
X11227939Y-5122199D02*
X11237463Y-5112675D01*
X11237463Y-5112675D02*
X11256510Y-5103151D01*
X11256510Y-5103151D02*
X11285082Y-5103151D01*
X11285082Y-5103151D02*
X11304129Y-5112675D01*
X11304129Y-5112675D02*
X11313653Y-5131723D01*
X11313653Y-5131723D02*
X11313653Y-5236485D01*
X11437463Y-5236485D02*
X11418415Y-5226961D01*
X11418415Y-5226961D02*
X11408891Y-5217437D01*
X11408891Y-5217437D02*
X11399368Y-5198389D01*
X11399368Y-5198389D02*
X11399368Y-5141247D01*
X11399368Y-5141247D02*
X11408891Y-5122199D01*
X11408891Y-5122199D02*
X11418415Y-5112675D01*
X11418415Y-5112675D02*
X11437463Y-5103151D01*
X11437463Y-5103151D02*
X11466034Y-5103151D01*
X11466034Y-5103151D02*
X11485082Y-5112675D01*
X11485082Y-5112675D02*
X11494606Y-5122199D01*
X11494606Y-5122199D02*
X11504129Y-5141247D01*
X11504129Y-5141247D02*
X11504129Y-5198389D01*
X11504129Y-5198389D02*
X11494606Y-5217437D01*
X11494606Y-5217437D02*
X11485082Y-5226961D01*
X11485082Y-5226961D02*
X11466034Y-5236485D01*
X11466034Y-5236485D02*
X11437463Y-5236485D01*
X11561272Y-5103151D02*
X11637463Y-5103151D01*
X11589844Y-5036485D02*
X11589844Y-5207913D01*
X11589844Y-5207913D02*
X11599368Y-5226961D01*
X11599368Y-5226961D02*
X11618415Y-5236485D01*
X11618415Y-5236485D02*
X11637463Y-5236485D01*
X11856510Y-5103151D02*
X11856510Y-5303151D01*
X11856510Y-5112675D02*
X11875558Y-5103151D01*
X11875558Y-5103151D02*
X11913653Y-5103151D01*
X11913653Y-5103151D02*
X11932701Y-5112675D01*
X11932701Y-5112675D02*
X11942225Y-5122199D01*
X11942225Y-5122199D02*
X11951749Y-5141247D01*
X11951749Y-5141247D02*
X11951749Y-5198389D01*
X11951749Y-5198389D02*
X11942225Y-5217437D01*
X11942225Y-5217437D02*
X11932701Y-5226961D01*
X11932701Y-5226961D02*
X11913653Y-5236485D01*
X11913653Y-5236485D02*
X11875558Y-5236485D01*
X11875558Y-5236485D02*
X11856510Y-5226961D01*
X12066034Y-5236485D02*
X12046987Y-5226961D01*
X12046987Y-5226961D02*
X12037463Y-5207913D01*
X12037463Y-5207913D02*
X12037463Y-5036485D01*
X12227939Y-5236485D02*
X12227939Y-5131723D01*
X12227939Y-5131723D02*
X12218415Y-5112675D01*
X12218415Y-5112675D02*
X12199368Y-5103151D01*
X12199368Y-5103151D02*
X12161272Y-5103151D01*
X12161272Y-5103151D02*
X12142225Y-5112675D01*
X12227939Y-5226961D02*
X12208891Y-5236485D01*
X12208891Y-5236485D02*
X12161272Y-5236485D01*
X12161272Y-5236485D02*
X12142225Y-5226961D01*
X12142225Y-5226961D02*
X12132701Y-5207913D01*
X12132701Y-5207913D02*
X12132701Y-5188866D01*
X12132701Y-5188866D02*
X12142225Y-5169818D01*
X12142225Y-5169818D02*
X12161272Y-5160294D01*
X12161272Y-5160294D02*
X12208891Y-5160294D01*
X12208891Y-5160294D02*
X12227939Y-5150770D01*
X12294606Y-5103151D02*
X12370796Y-5103151D01*
X12323177Y-5036485D02*
X12323177Y-5207913D01*
X12323177Y-5207913D02*
X12332701Y-5226961D01*
X12332701Y-5226961D02*
X12351749Y-5236485D01*
X12351749Y-5236485D02*
X12370796Y-5236485D01*
X12513653Y-5226961D02*
X12494606Y-5236485D01*
X12494606Y-5236485D02*
X12456510Y-5236485D01*
X12456510Y-5236485D02*
X12437463Y-5226961D01*
X12437463Y-5226961D02*
X12427939Y-5207913D01*
X12427939Y-5207913D02*
X12427939Y-5131723D01*
X12427939Y-5131723D02*
X12437463Y-5112675D01*
X12437463Y-5112675D02*
X12456510Y-5103151D01*
X12456510Y-5103151D02*
X12494606Y-5103151D01*
X12494606Y-5103151D02*
X12513653Y-5112675D01*
X12513653Y-5112675D02*
X12523177Y-5131723D01*
X12523177Y-5131723D02*
X12523177Y-5150770D01*
X12523177Y-5150770D02*
X12427939Y-5169818D01*
X12694606Y-5236485D02*
X12694606Y-5036485D01*
X12694606Y-5226961D02*
X12675558Y-5236485D01*
X12675558Y-5236485D02*
X12637463Y-5236485D01*
X12637463Y-5236485D02*
X12618415Y-5226961D01*
X12618415Y-5226961D02*
X12608891Y-5217437D01*
X12608891Y-5217437D02*
X12599368Y-5198389D01*
X12599368Y-5198389D02*
X12599368Y-5141247D01*
X12599368Y-5141247D02*
X12608891Y-5122199D01*
X12608891Y-5122199D02*
X12618415Y-5112675D01*
X12618415Y-5112675D02*
X12637463Y-5103151D01*
X12637463Y-5103151D02*
X12675558Y-5103151D01*
X12675558Y-5103151D02*
X12694606Y-5112675D01*
X12770796Y-5312675D02*
X12780320Y-5303151D01*
X12780320Y-5303151D02*
X12799368Y-5274580D01*
X12799368Y-5274580D02*
X12808891Y-5255532D01*
X12808891Y-5255532D02*
X12818415Y-5226961D01*
X12818415Y-5226961D02*
X12827939Y-5179342D01*
X12827939Y-5179342D02*
X12827939Y-5141247D01*
X12827939Y-5141247D02*
X12818415Y-5093628D01*
X12818415Y-5093628D02*
X12808891Y-5065056D01*
X12808891Y-5065056D02*
X12799368Y-5046009D01*
X12799368Y-5046009D02*
X12780320Y-5017437D01*
X12780320Y-5017437D02*
X12770796Y-5007913D01*
X6176686Y-5409001D02*
G75*
G03*
X6176686Y-5409001I-100000J0D01*
G01*
X6427939Y-5319532D02*
X6437462Y-5310009D01*
X6437462Y-5310009D02*
X6456510Y-5300485D01*
X6456510Y-5300485D02*
X6504129Y-5300485D01*
X6504129Y-5300485D02*
X6523177Y-5310009D01*
X6523177Y-5310009D02*
X6532700Y-5319532D01*
X6532700Y-5319532D02*
X6542224Y-5338580D01*
X6542224Y-5338580D02*
X6542224Y-5357628D01*
X6542224Y-5357628D02*
X6532700Y-5386199D01*
X6532700Y-5386199D02*
X6418415Y-5500485D01*
X6418415Y-5500485D02*
X6542224Y-5500485D01*
X6627939Y-5481437D02*
X6637462Y-5490961D01*
X6637462Y-5490961D02*
X6627939Y-5500485D01*
X6627939Y-5500485D02*
X6618415Y-5490961D01*
X6618415Y-5490961D02*
X6627939Y-5481437D01*
X6627939Y-5481437D02*
X6627939Y-5500485D01*
X6713653Y-5319532D02*
X6723177Y-5310009D01*
X6723177Y-5310009D02*
X6742224Y-5300485D01*
X6742224Y-5300485D02*
X6789843Y-5300485D01*
X6789843Y-5300485D02*
X6808891Y-5310009D01*
X6808891Y-5310009D02*
X6818415Y-5319532D01*
X6818415Y-5319532D02*
X6827939Y-5338580D01*
X6827939Y-5338580D02*
X6827939Y-5357628D01*
X6827939Y-5357628D02*
X6818415Y-5386199D01*
X6818415Y-5386199D02*
X6704129Y-5500485D01*
X6704129Y-5500485D02*
X6827939Y-5500485D01*
X6951748Y-5300485D02*
X6970796Y-5300485D01*
X6970796Y-5300485D02*
X6989843Y-5310009D01*
X6989843Y-5310009D02*
X6999367Y-5319532D01*
X6999367Y-5319532D02*
X7008891Y-5338580D01*
X7008891Y-5338580D02*
X7018415Y-5376675D01*
X7018415Y-5376675D02*
X7018415Y-5424294D01*
X7018415Y-5424294D02*
X7008891Y-5462389D01*
X7008891Y-5462389D02*
X6999367Y-5481437D01*
X6999367Y-5481437D02*
X6989843Y-5490961D01*
X6989843Y-5490961D02*
X6970796Y-5500485D01*
X6970796Y-5500485D02*
X6951748Y-5500485D01*
X6951748Y-5500485D02*
X6932700Y-5490961D01*
X6932700Y-5490961D02*
X6923177Y-5481437D01*
X6923177Y-5481437D02*
X6913653Y-5462389D01*
X6913653Y-5462389D02*
X6904129Y-5424294D01*
X6904129Y-5424294D02*
X6904129Y-5376675D01*
X6904129Y-5376675D02*
X6913653Y-5338580D01*
X6913653Y-5338580D02*
X6923177Y-5319532D01*
X6923177Y-5319532D02*
X6932700Y-5310009D01*
X6932700Y-5310009D02*
X6951748Y-5300485D01*
X7142224Y-5300485D02*
X7161272Y-5300485D01*
X7161272Y-5300485D02*
X7180320Y-5310009D01*
X7180320Y-5310009D02*
X7189843Y-5319532D01*
X7189843Y-5319532D02*
X7199367Y-5338580D01*
X7199367Y-5338580D02*
X7208891Y-5376675D01*
X7208891Y-5376675D02*
X7208891Y-5424294D01*
X7208891Y-5424294D02*
X7199367Y-5462389D01*
X7199367Y-5462389D02*
X7189843Y-5481437D01*
X7189843Y-5481437D02*
X7180320Y-5490961D01*
X7180320Y-5490961D02*
X7161272Y-5500485D01*
X7161272Y-5500485D02*
X7142224Y-5500485D01*
X7142224Y-5500485D02*
X7123177Y-5490961D01*
X7123177Y-5490961D02*
X7113653Y-5481437D01*
X7113653Y-5481437D02*
X7104129Y-5462389D01*
X7104129Y-5462389D02*
X7094605Y-5424294D01*
X7094605Y-5424294D02*
X7094605Y-5376675D01*
X7094605Y-5376675D02*
X7104129Y-5338580D01*
X7104129Y-5338580D02*
X7113653Y-5319532D01*
X7113653Y-5319532D02*
X7123177Y-5310009D01*
X7123177Y-5310009D02*
X7142224Y-5300485D01*
X7294605Y-5500485D02*
X7294605Y-5367151D01*
X7294605Y-5386199D02*
X7304129Y-5376675D01*
X7304129Y-5376675D02*
X7323177Y-5367151D01*
X7323177Y-5367151D02*
X7351748Y-5367151D01*
X7351748Y-5367151D02*
X7370796Y-5376675D01*
X7370796Y-5376675D02*
X7380320Y-5395723D01*
X7380320Y-5395723D02*
X7380320Y-5500485D01*
X7380320Y-5395723D02*
X7389843Y-5376675D01*
X7389843Y-5376675D02*
X7408891Y-5367151D01*
X7408891Y-5367151D02*
X7437462Y-5367151D01*
X7437462Y-5367151D02*
X7456510Y-5376675D01*
X7456510Y-5376675D02*
X7466034Y-5395723D01*
X7466034Y-5395723D02*
X7466034Y-5500485D01*
X7561272Y-5500485D02*
X7561272Y-5367151D01*
X7561272Y-5386199D02*
X7570796Y-5376675D01*
X7570796Y-5376675D02*
X7589843Y-5367151D01*
X7589843Y-5367151D02*
X7618415Y-5367151D01*
X7618415Y-5367151D02*
X7637462Y-5376675D01*
X7637462Y-5376675D02*
X7646986Y-5395723D01*
X7646986Y-5395723D02*
X7646986Y-5500485D01*
X7646986Y-5395723D02*
X7656510Y-5376675D01*
X7656510Y-5376675D02*
X7675558Y-5367151D01*
X7675558Y-5367151D02*
X7704129Y-5367151D01*
X7704129Y-5367151D02*
X7723177Y-5376675D01*
X7723177Y-5376675D02*
X7732701Y-5395723D01*
X7732701Y-5395723D02*
X7732701Y-5500485D01*
X8123177Y-5290961D02*
X7951748Y-5548104D01*
X8380320Y-5300485D02*
X8399367Y-5300485D01*
X8399367Y-5300485D02*
X8418415Y-5310009D01*
X8418415Y-5310009D02*
X8427939Y-5319532D01*
X8427939Y-5319532D02*
X8437463Y-5338580D01*
X8437463Y-5338580D02*
X8446986Y-5376675D01*
X8446986Y-5376675D02*
X8446986Y-5424294D01*
X8446986Y-5424294D02*
X8437463Y-5462389D01*
X8437463Y-5462389D02*
X8427939Y-5481437D01*
X8427939Y-5481437D02*
X8418415Y-5490961D01*
X8418415Y-5490961D02*
X8399367Y-5500485D01*
X8399367Y-5500485D02*
X8380320Y-5500485D01*
X8380320Y-5500485D02*
X8361272Y-5490961D01*
X8361272Y-5490961D02*
X8351748Y-5481437D01*
X8351748Y-5481437D02*
X8342224Y-5462389D01*
X8342224Y-5462389D02*
X8332701Y-5424294D01*
X8332701Y-5424294D02*
X8332701Y-5376675D01*
X8332701Y-5376675D02*
X8342224Y-5338580D01*
X8342224Y-5338580D02*
X8351748Y-5319532D01*
X8351748Y-5319532D02*
X8361272Y-5310009D01*
X8361272Y-5310009D02*
X8380320Y-5300485D01*
X8532701Y-5481437D02*
X8542225Y-5490961D01*
X8542225Y-5490961D02*
X8532701Y-5500485D01*
X8532701Y-5500485D02*
X8523177Y-5490961D01*
X8523177Y-5490961D02*
X8532701Y-5481437D01*
X8532701Y-5481437D02*
X8532701Y-5500485D01*
X8666034Y-5300485D02*
X8685082Y-5300485D01*
X8685082Y-5300485D02*
X8704129Y-5310009D01*
X8704129Y-5310009D02*
X8713653Y-5319532D01*
X8713653Y-5319532D02*
X8723177Y-5338580D01*
X8723177Y-5338580D02*
X8732701Y-5376675D01*
X8732701Y-5376675D02*
X8732701Y-5424294D01*
X8732701Y-5424294D02*
X8723177Y-5462389D01*
X8723177Y-5462389D02*
X8713653Y-5481437D01*
X8713653Y-5481437D02*
X8704129Y-5490961D01*
X8704129Y-5490961D02*
X8685082Y-5500485D01*
X8685082Y-5500485D02*
X8666034Y-5500485D01*
X8666034Y-5500485D02*
X8646986Y-5490961D01*
X8646986Y-5490961D02*
X8637463Y-5481437D01*
X8637463Y-5481437D02*
X8627939Y-5462389D01*
X8627939Y-5462389D02*
X8618415Y-5424294D01*
X8618415Y-5424294D02*
X8618415Y-5376675D01*
X8618415Y-5376675D02*
X8627939Y-5338580D01*
X8627939Y-5338580D02*
X8637463Y-5319532D01*
X8637463Y-5319532D02*
X8646986Y-5310009D01*
X8646986Y-5310009D02*
X8666034Y-5300485D01*
X8846986Y-5386199D02*
X8827939Y-5376675D01*
X8827939Y-5376675D02*
X8818415Y-5367151D01*
X8818415Y-5367151D02*
X8808891Y-5348104D01*
X8808891Y-5348104D02*
X8808891Y-5338580D01*
X8808891Y-5338580D02*
X8818415Y-5319532D01*
X8818415Y-5319532D02*
X8827939Y-5310009D01*
X8827939Y-5310009D02*
X8846986Y-5300485D01*
X8846986Y-5300485D02*
X8885082Y-5300485D01*
X8885082Y-5300485D02*
X8904129Y-5310009D01*
X8904129Y-5310009D02*
X8913653Y-5319532D01*
X8913653Y-5319532D02*
X8923177Y-5338580D01*
X8923177Y-5338580D02*
X8923177Y-5348104D01*
X8923177Y-5348104D02*
X8913653Y-5367151D01*
X8913653Y-5367151D02*
X8904129Y-5376675D01*
X8904129Y-5376675D02*
X8885082Y-5386199D01*
X8885082Y-5386199D02*
X8846986Y-5386199D01*
X8846986Y-5386199D02*
X8827939Y-5395723D01*
X8827939Y-5395723D02*
X8818415Y-5405247D01*
X8818415Y-5405247D02*
X8808891Y-5424294D01*
X8808891Y-5424294D02*
X8808891Y-5462389D01*
X8808891Y-5462389D02*
X8818415Y-5481437D01*
X8818415Y-5481437D02*
X8827939Y-5490961D01*
X8827939Y-5490961D02*
X8846986Y-5500485D01*
X8846986Y-5500485D02*
X8885082Y-5500485D01*
X8885082Y-5500485D02*
X8904129Y-5490961D01*
X8904129Y-5490961D02*
X8913653Y-5481437D01*
X8913653Y-5481437D02*
X8923177Y-5462389D01*
X8923177Y-5462389D02*
X8923177Y-5424294D01*
X8923177Y-5424294D02*
X8913653Y-5405247D01*
X8913653Y-5405247D02*
X8904129Y-5395723D01*
X8904129Y-5395723D02*
X8885082Y-5386199D01*
X9094606Y-5300485D02*
X9056510Y-5300485D01*
X9056510Y-5300485D02*
X9037463Y-5310009D01*
X9037463Y-5310009D02*
X9027939Y-5319532D01*
X9027939Y-5319532D02*
X9008891Y-5348104D01*
X9008891Y-5348104D02*
X8999367Y-5386199D01*
X8999367Y-5386199D02*
X8999367Y-5462389D01*
X8999367Y-5462389D02*
X9008891Y-5481437D01*
X9008891Y-5481437D02*
X9018415Y-5490961D01*
X9018415Y-5490961D02*
X9037463Y-5500485D01*
X9037463Y-5500485D02*
X9075558Y-5500485D01*
X9075558Y-5500485D02*
X9094606Y-5490961D01*
X9094606Y-5490961D02*
X9104129Y-5481437D01*
X9104129Y-5481437D02*
X9113653Y-5462389D01*
X9113653Y-5462389D02*
X9113653Y-5414770D01*
X9113653Y-5414770D02*
X9104129Y-5395723D01*
X9104129Y-5395723D02*
X9094606Y-5386199D01*
X9094606Y-5386199D02*
X9075558Y-5376675D01*
X9075558Y-5376675D02*
X9037463Y-5376675D01*
X9037463Y-5376675D02*
X9018415Y-5386199D01*
X9018415Y-5386199D02*
X9008891Y-5395723D01*
X9008891Y-5395723D02*
X8999367Y-5414770D01*
X9285082Y-5300485D02*
X9246986Y-5300485D01*
X9246986Y-5300485D02*
X9227939Y-5310009D01*
X9227939Y-5310009D02*
X9218415Y-5319532D01*
X9218415Y-5319532D02*
X9199367Y-5348104D01*
X9199367Y-5348104D02*
X9189844Y-5386199D01*
X9189844Y-5386199D02*
X9189844Y-5462389D01*
X9189844Y-5462389D02*
X9199367Y-5481437D01*
X9199367Y-5481437D02*
X9208891Y-5490961D01*
X9208891Y-5490961D02*
X9227939Y-5500485D01*
X9227939Y-5500485D02*
X9266034Y-5500485D01*
X9266034Y-5500485D02*
X9285082Y-5490961D01*
X9285082Y-5490961D02*
X9294606Y-5481437D01*
X9294606Y-5481437D02*
X9304129Y-5462389D01*
X9304129Y-5462389D02*
X9304129Y-5414770D01*
X9304129Y-5414770D02*
X9294606Y-5395723D01*
X9294606Y-5395723D02*
X9285082Y-5386199D01*
X9285082Y-5386199D02*
X9266034Y-5376675D01*
X9266034Y-5376675D02*
X9227939Y-5376675D01*
X9227939Y-5376675D02*
X9208891Y-5386199D01*
X9208891Y-5386199D02*
X9199367Y-5395723D01*
X9199367Y-5395723D02*
X9189844Y-5414770D01*
X9380320Y-5300485D02*
X9380320Y-5338580D01*
X9456510Y-5300485D02*
X9456510Y-5338580D01*
X9751749Y-5576675D02*
X9742225Y-5567151D01*
X9742225Y-5567151D02*
X9723177Y-5538580D01*
X9723177Y-5538580D02*
X9713653Y-5519532D01*
X9713653Y-5519532D02*
X9704129Y-5490961D01*
X9704129Y-5490961D02*
X9694606Y-5443342D01*
X9694606Y-5443342D02*
X9694606Y-5405247D01*
X9694606Y-5405247D02*
X9704129Y-5357628D01*
X9704129Y-5357628D02*
X9713653Y-5329056D01*
X9713653Y-5329056D02*
X9723177Y-5310009D01*
X9723177Y-5310009D02*
X9742225Y-5281437D01*
X9742225Y-5281437D02*
X9751749Y-5271913D01*
X9818415Y-5319532D02*
X9827939Y-5310009D01*
X9827939Y-5310009D02*
X9846987Y-5300485D01*
X9846987Y-5300485D02*
X9894606Y-5300485D01*
X9894606Y-5300485D02*
X9913653Y-5310009D01*
X9913653Y-5310009D02*
X9923177Y-5319532D01*
X9923177Y-5319532D02*
X9932701Y-5338580D01*
X9932701Y-5338580D02*
X9932701Y-5357628D01*
X9932701Y-5357628D02*
X9923177Y-5386199D01*
X9923177Y-5386199D02*
X9808891Y-5500485D01*
X9808891Y-5500485D02*
X9932701Y-5500485D01*
X10170796Y-5500485D02*
X10170796Y-5300485D01*
X10256510Y-5500485D02*
X10256510Y-5395723D01*
X10256510Y-5395723D02*
X10246987Y-5376675D01*
X10246987Y-5376675D02*
X10227939Y-5367151D01*
X10227939Y-5367151D02*
X10199368Y-5367151D01*
X10199368Y-5367151D02*
X10180320Y-5376675D01*
X10180320Y-5376675D02*
X10170796Y-5386199D01*
X10380320Y-5500485D02*
X10361272Y-5490961D01*
X10361272Y-5490961D02*
X10351749Y-5481437D01*
X10351749Y-5481437D02*
X10342225Y-5462389D01*
X10342225Y-5462389D02*
X10342225Y-5405247D01*
X10342225Y-5405247D02*
X10351749Y-5386199D01*
X10351749Y-5386199D02*
X10361272Y-5376675D01*
X10361272Y-5376675D02*
X10380320Y-5367151D01*
X10380320Y-5367151D02*
X10408891Y-5367151D01*
X10408891Y-5367151D02*
X10427939Y-5376675D01*
X10427939Y-5376675D02*
X10437463Y-5386199D01*
X10437463Y-5386199D02*
X10446987Y-5405247D01*
X10446987Y-5405247D02*
X10446987Y-5462389D01*
X10446987Y-5462389D02*
X10437463Y-5481437D01*
X10437463Y-5481437D02*
X10427939Y-5490961D01*
X10427939Y-5490961D02*
X10408891Y-5500485D01*
X10408891Y-5500485D02*
X10380320Y-5500485D01*
X10561272Y-5500485D02*
X10542225Y-5490961D01*
X10542225Y-5490961D02*
X10532701Y-5471913D01*
X10532701Y-5471913D02*
X10532701Y-5300485D01*
X10713653Y-5490961D02*
X10694606Y-5500485D01*
X10694606Y-5500485D02*
X10656510Y-5500485D01*
X10656510Y-5500485D02*
X10637463Y-5490961D01*
X10637463Y-5490961D02*
X10627939Y-5471913D01*
X10627939Y-5471913D02*
X10627939Y-5395723D01*
X10627939Y-5395723D02*
X10637463Y-5376675D01*
X10637463Y-5376675D02*
X10656510Y-5367151D01*
X10656510Y-5367151D02*
X10694606Y-5367151D01*
X10694606Y-5367151D02*
X10713653Y-5376675D01*
X10713653Y-5376675D02*
X10723177Y-5395723D01*
X10723177Y-5395723D02*
X10723177Y-5414770D01*
X10723177Y-5414770D02*
X10627939Y-5433818D01*
X10799368Y-5490961D02*
X10818415Y-5500485D01*
X10818415Y-5500485D02*
X10856510Y-5500485D01*
X10856510Y-5500485D02*
X10875558Y-5490961D01*
X10875558Y-5490961D02*
X10885082Y-5471913D01*
X10885082Y-5471913D02*
X10885082Y-5462389D01*
X10885082Y-5462389D02*
X10875558Y-5443342D01*
X10875558Y-5443342D02*
X10856510Y-5433818D01*
X10856510Y-5433818D02*
X10827939Y-5433818D01*
X10827939Y-5433818D02*
X10808891Y-5424294D01*
X10808891Y-5424294D02*
X10799368Y-5405247D01*
X10799368Y-5405247D02*
X10799368Y-5395723D01*
X10799368Y-5395723D02*
X10808891Y-5376675D01*
X10808891Y-5376675D02*
X10827939Y-5367151D01*
X10827939Y-5367151D02*
X10856510Y-5367151D01*
X10856510Y-5367151D02*
X10875558Y-5376675D01*
X10951749Y-5576675D02*
X10961272Y-5567151D01*
X10961272Y-5567151D02*
X10980320Y-5538580D01*
X10980320Y-5538580D02*
X10989844Y-5519532D01*
X10989844Y-5519532D02*
X10999368Y-5490961D01*
X10999368Y-5490961D02*
X11008891Y-5443342D01*
X11008891Y-5443342D02*
X11008891Y-5405247D01*
X11008891Y-5405247D02*
X10999368Y-5357628D01*
X10999368Y-5357628D02*
X10989844Y-5329056D01*
X10989844Y-5329056D02*
X10980320Y-5310009D01*
X10980320Y-5310009D02*
X10961272Y-5281437D01*
X10961272Y-5281437D02*
X10951749Y-5271913D01*
X11313653Y-5576675D02*
X11304129Y-5567151D01*
X11304129Y-5567151D02*
X11285082Y-5538580D01*
X11285082Y-5538580D02*
X11275558Y-5519532D01*
X11275558Y-5519532D02*
X11266034Y-5490961D01*
X11266034Y-5490961D02*
X11256510Y-5443342D01*
X11256510Y-5443342D02*
X11256510Y-5405247D01*
X11256510Y-5405247D02*
X11266034Y-5357628D01*
X11266034Y-5357628D02*
X11275558Y-5329056D01*
X11275558Y-5329056D02*
X11285082Y-5310009D01*
X11285082Y-5310009D02*
X11304129Y-5281437D01*
X11304129Y-5281437D02*
X11313653Y-5271913D01*
X11389844Y-5367151D02*
X11389844Y-5500485D01*
X11389844Y-5386199D02*
X11399368Y-5376675D01*
X11399368Y-5376675D02*
X11418415Y-5367151D01*
X11418415Y-5367151D02*
X11446987Y-5367151D01*
X11446987Y-5367151D02*
X11466034Y-5376675D01*
X11466034Y-5376675D02*
X11475558Y-5395723D01*
X11475558Y-5395723D02*
X11475558Y-5500485D01*
X11599368Y-5500485D02*
X11580320Y-5490961D01*
X11580320Y-5490961D02*
X11570796Y-5481437D01*
X11570796Y-5481437D02*
X11561272Y-5462389D01*
X11561272Y-5462389D02*
X11561272Y-5405247D01*
X11561272Y-5405247D02*
X11570796Y-5386199D01*
X11570796Y-5386199D02*
X11580320Y-5376675D01*
X11580320Y-5376675D02*
X11599368Y-5367151D01*
X11599368Y-5367151D02*
X11627939Y-5367151D01*
X11627939Y-5367151D02*
X11646987Y-5376675D01*
X11646987Y-5376675D02*
X11656510Y-5386199D01*
X11656510Y-5386199D02*
X11666034Y-5405247D01*
X11666034Y-5405247D02*
X11666034Y-5462389D01*
X11666034Y-5462389D02*
X11656510Y-5481437D01*
X11656510Y-5481437D02*
X11646987Y-5490961D01*
X11646987Y-5490961D02*
X11627939Y-5500485D01*
X11627939Y-5500485D02*
X11599368Y-5500485D01*
X11723177Y-5367151D02*
X11799368Y-5367151D01*
X11751749Y-5300485D02*
X11751749Y-5471913D01*
X11751749Y-5471913D02*
X11761272Y-5490961D01*
X11761272Y-5490961D02*
X11780320Y-5500485D01*
X11780320Y-5500485D02*
X11799368Y-5500485D01*
X12018415Y-5367151D02*
X12018415Y-5567151D01*
X12018415Y-5376675D02*
X12037463Y-5367151D01*
X12037463Y-5367151D02*
X12075558Y-5367151D01*
X12075558Y-5367151D02*
X12094606Y-5376675D01*
X12094606Y-5376675D02*
X12104130Y-5386199D01*
X12104130Y-5386199D02*
X12113653Y-5405247D01*
X12113653Y-5405247D02*
X12113653Y-5462389D01*
X12113653Y-5462389D02*
X12104130Y-5481437D01*
X12104130Y-5481437D02*
X12094606Y-5490961D01*
X12094606Y-5490961D02*
X12075558Y-5500485D01*
X12075558Y-5500485D02*
X12037463Y-5500485D01*
X12037463Y-5500485D02*
X12018415Y-5490961D01*
X12227939Y-5500485D02*
X12208891Y-5490961D01*
X12208891Y-5490961D02*
X12199368Y-5471913D01*
X12199368Y-5471913D02*
X12199368Y-5300485D01*
X12389844Y-5500485D02*
X12389844Y-5395723D01*
X12389844Y-5395723D02*
X12380320Y-5376675D01*
X12380320Y-5376675D02*
X12361272Y-5367151D01*
X12361272Y-5367151D02*
X12323177Y-5367151D01*
X12323177Y-5367151D02*
X12304130Y-5376675D01*
X12389844Y-5490961D02*
X12370796Y-5500485D01*
X12370796Y-5500485D02*
X12323177Y-5500485D01*
X12323177Y-5500485D02*
X12304130Y-5490961D01*
X12304130Y-5490961D02*
X12294606Y-5471913D01*
X12294606Y-5471913D02*
X12294606Y-5452866D01*
X12294606Y-5452866D02*
X12304130Y-5433818D01*
X12304130Y-5433818D02*
X12323177Y-5424294D01*
X12323177Y-5424294D02*
X12370796Y-5424294D01*
X12370796Y-5424294D02*
X12389844Y-5414770D01*
X12456511Y-5367151D02*
X12532701Y-5367151D01*
X12485082Y-5300485D02*
X12485082Y-5471913D01*
X12485082Y-5471913D02*
X12494606Y-5490961D01*
X12494606Y-5490961D02*
X12513653Y-5500485D01*
X12513653Y-5500485D02*
X12532701Y-5500485D01*
X12675558Y-5490961D02*
X12656511Y-5500485D01*
X12656511Y-5500485D02*
X12618415Y-5500485D01*
X12618415Y-5500485D02*
X12599368Y-5490961D01*
X12599368Y-5490961D02*
X12589844Y-5471913D01*
X12589844Y-5471913D02*
X12589844Y-5395723D01*
X12589844Y-5395723D02*
X12599368Y-5376675D01*
X12599368Y-5376675D02*
X12618415Y-5367151D01*
X12618415Y-5367151D02*
X12656511Y-5367151D01*
X12656511Y-5367151D02*
X12675558Y-5376675D01*
X12675558Y-5376675D02*
X12685082Y-5395723D01*
X12685082Y-5395723D02*
X12685082Y-5414770D01*
X12685082Y-5414770D02*
X12589844Y-5433818D01*
X12856511Y-5500485D02*
X12856511Y-5300485D01*
X12856511Y-5490961D02*
X12837463Y-5500485D01*
X12837463Y-5500485D02*
X12799368Y-5500485D01*
X12799368Y-5500485D02*
X12780320Y-5490961D01*
X12780320Y-5490961D02*
X12770796Y-5481437D01*
X12770796Y-5481437D02*
X12761272Y-5462389D01*
X12761272Y-5462389D02*
X12761272Y-5405247D01*
X12761272Y-5405247D02*
X12770796Y-5386199D01*
X12770796Y-5386199D02*
X12780320Y-5376675D01*
X12780320Y-5376675D02*
X12799368Y-5367151D01*
X12799368Y-5367151D02*
X12837463Y-5367151D01*
X12837463Y-5367151D02*
X12856511Y-5376675D01*
X12932701Y-5576675D02*
X12942225Y-5567151D01*
X12942225Y-5567151D02*
X12961272Y-5538580D01*
X12961272Y-5538580D02*
X12970796Y-5519532D01*
X12970796Y-5519532D02*
X12980320Y-5490961D01*
X12980320Y-5490961D02*
X12989844Y-5443342D01*
X12989844Y-5443342D02*
X12989844Y-5405247D01*
X12989844Y-5405247D02*
X12980320Y-5357628D01*
X12980320Y-5357628D02*
X12970796Y-5329056D01*
X12970796Y-5329056D02*
X12961272Y-5310009D01*
X12961272Y-5310009D02*
X12942225Y-5281437D01*
X12942225Y-5281437D02*
X12932701Y-5271913D01*
M02*
