%TF.GenerationSoftware,KiCad,Pcbnew,7.0.5*%
%TF.CreationDate,2023-06-18T14:42:30+02:00*%
%TF.ProjectId,RH_RKJXM1015004_FacePlateTilted,52485f52-4b4a-4584-9d31-303135303034,rev?*%
%TF.SameCoordinates,Original*%
%TF.FileFunction,Drillmap*%
%TF.FilePolarity,Positive*%
%FSLAX45Y45*%
G04 Gerber Fmt 4.5, Leading zero omitted, Abs format (unit mm)*
G04 Created by KiCad (PCBNEW 7.0.5) date 2023-06-18 14:42:30*
%MOMM*%
%LPD*%
G01*
G04 APERTURE LIST*
%ADD10C,0.100000*%
%ADD11C,0.200000*%
G04 APERTURE END LIST*
D10*
X5294813Y-6342900D02*
G75*
G03*
X5756987Y-6035007I-94753J643060D01*
G01*
X5767662Y-4762669D02*
X4889923Y-5128602D01*
X4142173Y-5988571D02*
G75*
G03*
X4421070Y-6471635I235167J-186269D01*
G01*
X6155834Y-5164534D02*
G75*
G03*
X5767662Y-4762669I-272735J124964D01*
G01*
X4889923Y-5128600D02*
G75*
G03*
X4690535Y-5296256I310147J-571240D01*
G01*
X6155836Y-5164535D02*
X5756987Y-6035007D01*
X4142172Y-5988570D02*
X4690535Y-5296256D01*
X4421070Y-6471635D02*
X5294813Y-6342897D01*
D11*
D10*
X4615000Y-5550000D02*
X4715000Y-5650000D01*
X4715000Y-5550000D02*
X4615000Y-5650000D01*
X4655000Y-5750000D02*
X4755000Y-5850000D01*
X4755000Y-5750000D02*
X4655000Y-5850000D01*
X4735000Y-5380000D02*
X4835000Y-5480000D01*
X4835000Y-5380000D02*
X4735000Y-5480000D01*
X5050000Y-5155000D02*
X5150000Y-5255000D01*
X5150000Y-5155000D02*
X5050000Y-5255000D01*
X5050000Y-6185000D02*
X5150000Y-6285000D01*
X5150000Y-6185000D02*
X5050000Y-6285000D01*
X5250000Y-5115000D02*
X5350000Y-5215000D01*
X5350000Y-5115000D02*
X5250000Y-5215000D01*
X5250000Y-6145000D02*
X5350000Y-6245000D01*
X5350000Y-6145000D02*
X5250000Y-6245000D01*
X5645000Y-5550000D02*
X5745000Y-5650000D01*
X5745000Y-5550000D02*
X5645000Y-5650000D01*
X5685000Y-5750000D02*
X5785000Y-5850000D01*
X5785000Y-5750000D02*
X5685000Y-5850000D01*
D11*
X4333117Y-6791323D02*
X4333117Y-6591323D01*
X4333117Y-6591323D02*
X4380736Y-6591323D01*
X4380736Y-6591323D02*
X4409308Y-6600847D01*
X4409308Y-6600847D02*
X4428355Y-6619895D01*
X4428355Y-6619895D02*
X4437879Y-6638942D01*
X4437879Y-6638942D02*
X4447403Y-6677037D01*
X4447403Y-6677037D02*
X4447403Y-6705609D01*
X4447403Y-6705609D02*
X4437879Y-6743704D01*
X4437879Y-6743704D02*
X4428355Y-6762752D01*
X4428355Y-6762752D02*
X4409308Y-6781799D01*
X4409308Y-6781799D02*
X4380736Y-6791323D01*
X4380736Y-6791323D02*
X4333117Y-6791323D01*
X4533117Y-6791323D02*
X4533117Y-6657990D01*
X4533117Y-6696085D02*
X4542641Y-6677037D01*
X4542641Y-6677037D02*
X4552165Y-6667514D01*
X4552165Y-6667514D02*
X4571213Y-6657990D01*
X4571213Y-6657990D02*
X4590260Y-6657990D01*
X4656927Y-6791323D02*
X4656927Y-6657990D01*
X4656927Y-6591323D02*
X4647403Y-6600847D01*
X4647403Y-6600847D02*
X4656927Y-6610371D01*
X4656927Y-6610371D02*
X4666451Y-6600847D01*
X4666451Y-6600847D02*
X4656927Y-6591323D01*
X4656927Y-6591323D02*
X4656927Y-6610371D01*
X4780736Y-6791323D02*
X4761689Y-6781799D01*
X4761689Y-6781799D02*
X4752165Y-6762752D01*
X4752165Y-6762752D02*
X4752165Y-6591323D01*
X4885498Y-6791323D02*
X4866451Y-6781799D01*
X4866451Y-6781799D02*
X4856927Y-6762752D01*
X4856927Y-6762752D02*
X4856927Y-6591323D01*
X5114070Y-6791323D02*
X5114070Y-6591323D01*
X5114070Y-6591323D02*
X5180736Y-6734180D01*
X5180736Y-6734180D02*
X5247403Y-6591323D01*
X5247403Y-6591323D02*
X5247403Y-6791323D01*
X5428355Y-6791323D02*
X5428355Y-6686561D01*
X5428355Y-6686561D02*
X5418832Y-6667514D01*
X5418832Y-6667514D02*
X5399784Y-6657990D01*
X5399784Y-6657990D02*
X5361689Y-6657990D01*
X5361689Y-6657990D02*
X5342641Y-6667514D01*
X5428355Y-6781799D02*
X5409308Y-6791323D01*
X5409308Y-6791323D02*
X5361689Y-6791323D01*
X5361689Y-6791323D02*
X5342641Y-6781799D01*
X5342641Y-6781799D02*
X5333117Y-6762752D01*
X5333117Y-6762752D02*
X5333117Y-6743704D01*
X5333117Y-6743704D02*
X5342641Y-6724657D01*
X5342641Y-6724657D02*
X5361689Y-6715133D01*
X5361689Y-6715133D02*
X5409308Y-6715133D01*
X5409308Y-6715133D02*
X5428355Y-6705609D01*
X5523594Y-6657990D02*
X5523594Y-6857990D01*
X5523594Y-6667514D02*
X5542641Y-6657990D01*
X5542641Y-6657990D02*
X5580736Y-6657990D01*
X5580736Y-6657990D02*
X5599784Y-6667514D01*
X5599784Y-6667514D02*
X5609308Y-6677037D01*
X5609308Y-6677037D02*
X5618832Y-6696085D01*
X5618832Y-6696085D02*
X5618832Y-6753228D01*
X5618832Y-6753228D02*
X5609308Y-6772276D01*
X5609308Y-6772276D02*
X5599784Y-6781799D01*
X5599784Y-6781799D02*
X5580736Y-6791323D01*
X5580736Y-6791323D02*
X5542641Y-6791323D01*
X5542641Y-6791323D02*
X5523594Y-6781799D01*
X5704546Y-6772276D02*
X5714070Y-6781799D01*
X5714070Y-6781799D02*
X5704546Y-6791323D01*
X5704546Y-6791323D02*
X5695022Y-6781799D01*
X5695022Y-6781799D02*
X5704546Y-6772276D01*
X5704546Y-6772276D02*
X5704546Y-6791323D01*
X5704546Y-6667514D02*
X5714070Y-6677037D01*
X5714070Y-6677037D02*
X5704546Y-6686561D01*
X5704546Y-6686561D02*
X5695022Y-6677037D01*
X5695022Y-6677037D02*
X5704546Y-6667514D01*
X5704546Y-6667514D02*
X5704546Y-6686561D01*
D10*
X3972340Y-7069839D02*
X4072340Y-7169839D01*
X4072340Y-7069839D02*
X3972340Y-7169839D01*
D11*
X4437879Y-7211323D02*
X4323594Y-7211323D01*
X4380736Y-7211323D02*
X4380736Y-7011323D01*
X4380736Y-7011323D02*
X4361689Y-7039895D01*
X4361689Y-7039895D02*
X4342641Y-7058942D01*
X4342641Y-7058942D02*
X4323594Y-7068466D01*
X4523594Y-7192276D02*
X4533117Y-7201799D01*
X4533117Y-7201799D02*
X4523594Y-7211323D01*
X4523594Y-7211323D02*
X4514070Y-7201799D01*
X4514070Y-7201799D02*
X4523594Y-7192276D01*
X4523594Y-7192276D02*
X4523594Y-7211323D01*
X4656927Y-7011323D02*
X4675975Y-7011323D01*
X4675975Y-7011323D02*
X4695022Y-7020847D01*
X4695022Y-7020847D02*
X4704546Y-7030371D01*
X4704546Y-7030371D02*
X4714070Y-7049418D01*
X4714070Y-7049418D02*
X4723594Y-7087514D01*
X4723594Y-7087514D02*
X4723594Y-7135133D01*
X4723594Y-7135133D02*
X4714070Y-7173228D01*
X4714070Y-7173228D02*
X4704546Y-7192276D01*
X4704546Y-7192276D02*
X4695022Y-7201799D01*
X4695022Y-7201799D02*
X4675975Y-7211323D01*
X4675975Y-7211323D02*
X4656927Y-7211323D01*
X4656927Y-7211323D02*
X4637879Y-7201799D01*
X4637879Y-7201799D02*
X4628355Y-7192276D01*
X4628355Y-7192276D02*
X4618832Y-7173228D01*
X4618832Y-7173228D02*
X4609308Y-7135133D01*
X4609308Y-7135133D02*
X4609308Y-7087514D01*
X4609308Y-7087514D02*
X4618832Y-7049418D01*
X4618832Y-7049418D02*
X4628355Y-7030371D01*
X4628355Y-7030371D02*
X4637879Y-7020847D01*
X4637879Y-7020847D02*
X4656927Y-7011323D01*
X4847403Y-7011323D02*
X4866451Y-7011323D01*
X4866451Y-7011323D02*
X4885498Y-7020847D01*
X4885498Y-7020847D02*
X4895022Y-7030371D01*
X4895022Y-7030371D02*
X4904546Y-7049418D01*
X4904546Y-7049418D02*
X4914070Y-7087514D01*
X4914070Y-7087514D02*
X4914070Y-7135133D01*
X4914070Y-7135133D02*
X4904546Y-7173228D01*
X4904546Y-7173228D02*
X4895022Y-7192276D01*
X4895022Y-7192276D02*
X4885498Y-7201799D01*
X4885498Y-7201799D02*
X4866451Y-7211323D01*
X4866451Y-7211323D02*
X4847403Y-7211323D01*
X4847403Y-7211323D02*
X4828355Y-7201799D01*
X4828355Y-7201799D02*
X4818832Y-7192276D01*
X4818832Y-7192276D02*
X4809308Y-7173228D01*
X4809308Y-7173228D02*
X4799784Y-7135133D01*
X4799784Y-7135133D02*
X4799784Y-7087514D01*
X4799784Y-7087514D02*
X4809308Y-7049418D01*
X4809308Y-7049418D02*
X4818832Y-7030371D01*
X4818832Y-7030371D02*
X4828355Y-7020847D01*
X4828355Y-7020847D02*
X4847403Y-7011323D01*
X5037879Y-7011323D02*
X5056927Y-7011323D01*
X5056927Y-7011323D02*
X5075975Y-7020847D01*
X5075975Y-7020847D02*
X5085498Y-7030371D01*
X5085498Y-7030371D02*
X5095022Y-7049418D01*
X5095022Y-7049418D02*
X5104546Y-7087514D01*
X5104546Y-7087514D02*
X5104546Y-7135133D01*
X5104546Y-7135133D02*
X5095022Y-7173228D01*
X5095022Y-7173228D02*
X5085498Y-7192276D01*
X5085498Y-7192276D02*
X5075975Y-7201799D01*
X5075975Y-7201799D02*
X5056927Y-7211323D01*
X5056927Y-7211323D02*
X5037879Y-7211323D01*
X5037879Y-7211323D02*
X5018832Y-7201799D01*
X5018832Y-7201799D02*
X5009308Y-7192276D01*
X5009308Y-7192276D02*
X4999784Y-7173228D01*
X4999784Y-7173228D02*
X4990260Y-7135133D01*
X4990260Y-7135133D02*
X4990260Y-7087514D01*
X4990260Y-7087514D02*
X4999784Y-7049418D01*
X4999784Y-7049418D02*
X5009308Y-7030371D01*
X5009308Y-7030371D02*
X5018832Y-7020847D01*
X5018832Y-7020847D02*
X5037879Y-7011323D01*
X5190260Y-7211323D02*
X5190260Y-7077990D01*
X5190260Y-7097037D02*
X5199784Y-7087514D01*
X5199784Y-7087514D02*
X5218832Y-7077990D01*
X5218832Y-7077990D02*
X5247403Y-7077990D01*
X5247403Y-7077990D02*
X5266451Y-7087514D01*
X5266451Y-7087514D02*
X5275975Y-7106561D01*
X5275975Y-7106561D02*
X5275975Y-7211323D01*
X5275975Y-7106561D02*
X5285498Y-7087514D01*
X5285498Y-7087514D02*
X5304546Y-7077990D01*
X5304546Y-7077990D02*
X5333117Y-7077990D01*
X5333117Y-7077990D02*
X5352165Y-7087514D01*
X5352165Y-7087514D02*
X5361689Y-7106561D01*
X5361689Y-7106561D02*
X5361689Y-7211323D01*
X5456927Y-7211323D02*
X5456927Y-7077990D01*
X5456927Y-7097037D02*
X5466451Y-7087514D01*
X5466451Y-7087514D02*
X5485498Y-7077990D01*
X5485498Y-7077990D02*
X5514070Y-7077990D01*
X5514070Y-7077990D02*
X5533117Y-7087514D01*
X5533117Y-7087514D02*
X5542641Y-7106561D01*
X5542641Y-7106561D02*
X5542641Y-7211323D01*
X5542641Y-7106561D02*
X5552165Y-7087514D01*
X5552165Y-7087514D02*
X5571213Y-7077990D01*
X5571213Y-7077990D02*
X5599784Y-7077990D01*
X5599784Y-7077990D02*
X5618832Y-7087514D01*
X5618832Y-7087514D02*
X5628355Y-7106561D01*
X5628355Y-7106561D02*
X5628355Y-7211323D01*
X6018832Y-7001799D02*
X5847403Y-7258942D01*
X6275975Y-7011323D02*
X6295022Y-7011323D01*
X6295022Y-7011323D02*
X6314070Y-7020847D01*
X6314070Y-7020847D02*
X6323594Y-7030371D01*
X6323594Y-7030371D02*
X6333117Y-7049418D01*
X6333117Y-7049418D02*
X6342641Y-7087514D01*
X6342641Y-7087514D02*
X6342641Y-7135133D01*
X6342641Y-7135133D02*
X6333117Y-7173228D01*
X6333117Y-7173228D02*
X6323594Y-7192276D01*
X6323594Y-7192276D02*
X6314070Y-7201799D01*
X6314070Y-7201799D02*
X6295022Y-7211323D01*
X6295022Y-7211323D02*
X6275975Y-7211323D01*
X6275975Y-7211323D02*
X6256927Y-7201799D01*
X6256927Y-7201799D02*
X6247403Y-7192276D01*
X6247403Y-7192276D02*
X6237879Y-7173228D01*
X6237879Y-7173228D02*
X6228356Y-7135133D01*
X6228356Y-7135133D02*
X6228356Y-7087514D01*
X6228356Y-7087514D02*
X6237879Y-7049418D01*
X6237879Y-7049418D02*
X6247403Y-7030371D01*
X6247403Y-7030371D02*
X6256927Y-7020847D01*
X6256927Y-7020847D02*
X6275975Y-7011323D01*
X6428356Y-7192276D02*
X6437879Y-7201799D01*
X6437879Y-7201799D02*
X6428356Y-7211323D01*
X6428356Y-7211323D02*
X6418832Y-7201799D01*
X6418832Y-7201799D02*
X6428356Y-7192276D01*
X6428356Y-7192276D02*
X6428356Y-7211323D01*
X6561689Y-7011323D02*
X6580737Y-7011323D01*
X6580737Y-7011323D02*
X6599784Y-7020847D01*
X6599784Y-7020847D02*
X6609308Y-7030371D01*
X6609308Y-7030371D02*
X6618832Y-7049418D01*
X6618832Y-7049418D02*
X6628356Y-7087514D01*
X6628356Y-7087514D02*
X6628356Y-7135133D01*
X6628356Y-7135133D02*
X6618832Y-7173228D01*
X6618832Y-7173228D02*
X6609308Y-7192276D01*
X6609308Y-7192276D02*
X6599784Y-7201799D01*
X6599784Y-7201799D02*
X6580737Y-7211323D01*
X6580737Y-7211323D02*
X6561689Y-7211323D01*
X6561689Y-7211323D02*
X6542641Y-7201799D01*
X6542641Y-7201799D02*
X6533117Y-7192276D01*
X6533117Y-7192276D02*
X6523594Y-7173228D01*
X6523594Y-7173228D02*
X6514070Y-7135133D01*
X6514070Y-7135133D02*
X6514070Y-7087514D01*
X6514070Y-7087514D02*
X6523594Y-7049418D01*
X6523594Y-7049418D02*
X6533117Y-7030371D01*
X6533117Y-7030371D02*
X6542641Y-7020847D01*
X6542641Y-7020847D02*
X6561689Y-7011323D01*
X6695022Y-7011323D02*
X6818832Y-7011323D01*
X6818832Y-7011323D02*
X6752165Y-7087514D01*
X6752165Y-7087514D02*
X6780737Y-7087514D01*
X6780737Y-7087514D02*
X6799784Y-7097037D01*
X6799784Y-7097037D02*
X6809308Y-7106561D01*
X6809308Y-7106561D02*
X6818832Y-7125609D01*
X6818832Y-7125609D02*
X6818832Y-7173228D01*
X6818832Y-7173228D02*
X6809308Y-7192276D01*
X6809308Y-7192276D02*
X6799784Y-7201799D01*
X6799784Y-7201799D02*
X6780737Y-7211323D01*
X6780737Y-7211323D02*
X6723594Y-7211323D01*
X6723594Y-7211323D02*
X6704546Y-7201799D01*
X6704546Y-7201799D02*
X6695022Y-7192276D01*
X6914070Y-7211323D02*
X6952165Y-7211323D01*
X6952165Y-7211323D02*
X6971213Y-7201799D01*
X6971213Y-7201799D02*
X6980737Y-7192276D01*
X6980737Y-7192276D02*
X6999784Y-7163704D01*
X6999784Y-7163704D02*
X7009308Y-7125609D01*
X7009308Y-7125609D02*
X7009308Y-7049418D01*
X7009308Y-7049418D02*
X6999784Y-7030371D01*
X6999784Y-7030371D02*
X6990260Y-7020847D01*
X6990260Y-7020847D02*
X6971213Y-7011323D01*
X6971213Y-7011323D02*
X6933117Y-7011323D01*
X6933117Y-7011323D02*
X6914070Y-7020847D01*
X6914070Y-7020847D02*
X6904546Y-7030371D01*
X6904546Y-7030371D02*
X6895022Y-7049418D01*
X6895022Y-7049418D02*
X6895022Y-7097037D01*
X6895022Y-7097037D02*
X6904546Y-7116085D01*
X6904546Y-7116085D02*
X6914070Y-7125609D01*
X6914070Y-7125609D02*
X6933117Y-7135133D01*
X6933117Y-7135133D02*
X6971213Y-7135133D01*
X6971213Y-7135133D02*
X6990260Y-7125609D01*
X6990260Y-7125609D02*
X6999784Y-7116085D01*
X6999784Y-7116085D02*
X7009308Y-7097037D01*
X7180737Y-7077990D02*
X7180737Y-7211323D01*
X7133117Y-7001799D02*
X7085498Y-7144657D01*
X7085498Y-7144657D02*
X7209308Y-7144657D01*
X7275975Y-7011323D02*
X7275975Y-7049418D01*
X7352165Y-7011323D02*
X7352165Y-7049418D01*
X7647403Y-7287514D02*
X7637879Y-7277990D01*
X7637879Y-7277990D02*
X7618832Y-7249418D01*
X7618832Y-7249418D02*
X7609308Y-7230371D01*
X7609308Y-7230371D02*
X7599784Y-7201799D01*
X7599784Y-7201799D02*
X7590260Y-7154180D01*
X7590260Y-7154180D02*
X7590260Y-7116085D01*
X7590260Y-7116085D02*
X7599784Y-7068466D01*
X7599784Y-7068466D02*
X7609308Y-7039895D01*
X7609308Y-7039895D02*
X7618832Y-7020847D01*
X7618832Y-7020847D02*
X7637879Y-6992276D01*
X7637879Y-6992276D02*
X7647403Y-6982752D01*
X7733118Y-7211323D02*
X7771213Y-7211323D01*
X7771213Y-7211323D02*
X7790260Y-7201799D01*
X7790260Y-7201799D02*
X7799784Y-7192276D01*
X7799784Y-7192276D02*
X7818832Y-7163704D01*
X7818832Y-7163704D02*
X7828356Y-7125609D01*
X7828356Y-7125609D02*
X7828356Y-7049418D01*
X7828356Y-7049418D02*
X7818832Y-7030371D01*
X7818832Y-7030371D02*
X7809308Y-7020847D01*
X7809308Y-7020847D02*
X7790260Y-7011323D01*
X7790260Y-7011323D02*
X7752165Y-7011323D01*
X7752165Y-7011323D02*
X7733118Y-7020847D01*
X7733118Y-7020847D02*
X7723594Y-7030371D01*
X7723594Y-7030371D02*
X7714070Y-7049418D01*
X7714070Y-7049418D02*
X7714070Y-7097037D01*
X7714070Y-7097037D02*
X7723594Y-7116085D01*
X7723594Y-7116085D02*
X7733118Y-7125609D01*
X7733118Y-7125609D02*
X7752165Y-7135133D01*
X7752165Y-7135133D02*
X7790260Y-7135133D01*
X7790260Y-7135133D02*
X7809308Y-7125609D01*
X7809308Y-7125609D02*
X7818832Y-7116085D01*
X7818832Y-7116085D02*
X7828356Y-7097037D01*
X8066451Y-7211323D02*
X8066451Y-7011323D01*
X8152165Y-7211323D02*
X8152165Y-7106561D01*
X8152165Y-7106561D02*
X8142641Y-7087514D01*
X8142641Y-7087514D02*
X8123594Y-7077990D01*
X8123594Y-7077990D02*
X8095022Y-7077990D01*
X8095022Y-7077990D02*
X8075975Y-7087514D01*
X8075975Y-7087514D02*
X8066451Y-7097037D01*
X8275975Y-7211323D02*
X8256927Y-7201799D01*
X8256927Y-7201799D02*
X8247403Y-7192276D01*
X8247403Y-7192276D02*
X8237880Y-7173228D01*
X8237880Y-7173228D02*
X8237880Y-7116085D01*
X8237880Y-7116085D02*
X8247403Y-7097037D01*
X8247403Y-7097037D02*
X8256927Y-7087514D01*
X8256927Y-7087514D02*
X8275975Y-7077990D01*
X8275975Y-7077990D02*
X8304546Y-7077990D01*
X8304546Y-7077990D02*
X8323594Y-7087514D01*
X8323594Y-7087514D02*
X8333118Y-7097037D01*
X8333118Y-7097037D02*
X8342641Y-7116085D01*
X8342641Y-7116085D02*
X8342641Y-7173228D01*
X8342641Y-7173228D02*
X8333118Y-7192276D01*
X8333118Y-7192276D02*
X8323594Y-7201799D01*
X8323594Y-7201799D02*
X8304546Y-7211323D01*
X8304546Y-7211323D02*
X8275975Y-7211323D01*
X8456927Y-7211323D02*
X8437880Y-7201799D01*
X8437880Y-7201799D02*
X8428356Y-7182752D01*
X8428356Y-7182752D02*
X8428356Y-7011323D01*
X8609308Y-7201799D02*
X8590261Y-7211323D01*
X8590261Y-7211323D02*
X8552165Y-7211323D01*
X8552165Y-7211323D02*
X8533118Y-7201799D01*
X8533118Y-7201799D02*
X8523594Y-7182752D01*
X8523594Y-7182752D02*
X8523594Y-7106561D01*
X8523594Y-7106561D02*
X8533118Y-7087514D01*
X8533118Y-7087514D02*
X8552165Y-7077990D01*
X8552165Y-7077990D02*
X8590261Y-7077990D01*
X8590261Y-7077990D02*
X8609308Y-7087514D01*
X8609308Y-7087514D02*
X8618832Y-7106561D01*
X8618832Y-7106561D02*
X8618832Y-7125609D01*
X8618832Y-7125609D02*
X8523594Y-7144657D01*
X8695023Y-7201799D02*
X8714070Y-7211323D01*
X8714070Y-7211323D02*
X8752165Y-7211323D01*
X8752165Y-7211323D02*
X8771213Y-7201799D01*
X8771213Y-7201799D02*
X8780737Y-7182752D01*
X8780737Y-7182752D02*
X8780737Y-7173228D01*
X8780737Y-7173228D02*
X8771213Y-7154180D01*
X8771213Y-7154180D02*
X8752165Y-7144657D01*
X8752165Y-7144657D02*
X8723594Y-7144657D01*
X8723594Y-7144657D02*
X8704546Y-7135133D01*
X8704546Y-7135133D02*
X8695023Y-7116085D01*
X8695023Y-7116085D02*
X8695023Y-7106561D01*
X8695023Y-7106561D02*
X8704546Y-7087514D01*
X8704546Y-7087514D02*
X8723594Y-7077990D01*
X8723594Y-7077990D02*
X8752165Y-7077990D01*
X8752165Y-7077990D02*
X8771213Y-7087514D01*
X8847404Y-7287514D02*
X8856927Y-7277990D01*
X8856927Y-7277990D02*
X8875975Y-7249418D01*
X8875975Y-7249418D02*
X8885499Y-7230371D01*
X8885499Y-7230371D02*
X8895023Y-7201799D01*
X8895023Y-7201799D02*
X8904546Y-7154180D01*
X8904546Y-7154180D02*
X8904546Y-7116085D01*
X8904546Y-7116085D02*
X8895023Y-7068466D01*
X8895023Y-7068466D02*
X8885499Y-7039895D01*
X8885499Y-7039895D02*
X8875975Y-7020847D01*
X8875975Y-7020847D02*
X8856927Y-6992276D01*
X8856927Y-6992276D02*
X8847404Y-6982752D01*
M02*
