%TF.GenerationSoftware,KiCad,Pcbnew,7.0.9*%
%TF.CreationDate,2023-12-16T21:12:57+01:00*%
%TF.ProjectId,RH_GripLogicBoard_FreeJoy,52485f47-7269-4704-9c6f-676963426f61,rev?*%
%TF.SameCoordinates,Original*%
%TF.FileFunction,Drillmap*%
%TF.FilePolarity,Positive*%
%FSLAX45Y45*%
G04 Gerber Fmt 4.5, Leading zero omitted, Abs format (unit mm)*
G04 Created by KiCad (PCBNEW 7.0.9) date 2023-12-16 21:12:57*
%MOMM*%
%LPD*%
G01*
G04 APERTURE LIST*
%ADD10C,0.100000*%
%ADD11C,0.200000*%
%ADD12C,0.220000*%
G04 APERTURE END LIST*
D10*
X5221382Y-1500000D02*
X5226238Y-1513965D01*
X5231079Y-1527936D01*
X5235905Y-1541912D01*
X5240717Y-1555893D01*
X5245514Y-1569879D01*
X5250297Y-1583870D01*
X5255065Y-1597866D01*
X5259818Y-1611866D01*
X5264556Y-1625871D01*
X5269280Y-1639880D01*
X5272421Y-1649223D01*
X2387609Y-2518496D02*
X2381768Y-2501710D01*
X2375872Y-2484825D01*
X2369923Y-2467850D01*
X2363922Y-2450794D01*
X2357874Y-2433664D01*
X2351778Y-2416470D01*
X2345638Y-2399219D01*
X2339456Y-2381921D01*
X2333233Y-2364584D01*
X2326973Y-2347216D01*
X2320676Y-2329825D01*
X2314346Y-2312421D01*
X2307984Y-2295011D01*
X2301593Y-2277605D01*
X2295174Y-2260210D01*
X2288730Y-2242835D01*
X2282263Y-2225489D01*
X2275775Y-2208180D01*
X2269268Y-2190917D01*
X2262745Y-2173708D01*
X2256207Y-2156561D01*
X2249656Y-2139485D01*
X2243096Y-2122489D01*
X2236527Y-2105581D01*
X2229952Y-2088769D01*
X2223374Y-2072062D01*
X2216793Y-2055468D01*
X2210214Y-2038997D01*
X2203637Y-2022656D01*
X2197064Y-2006453D01*
X2190499Y-1990399D01*
X2183942Y-1974500D01*
X5337876Y-1849037D02*
X5363294Y-1929450D01*
X5387897Y-2008897D01*
X5411697Y-2087354D01*
X5434709Y-2164798D01*
X5456947Y-2241206D01*
X5478424Y-2316553D01*
X5499154Y-2390817D01*
X5519150Y-2463974D01*
X5538427Y-2536001D01*
X5556998Y-2606874D01*
X5574877Y-2676569D01*
X5592078Y-2745064D01*
X5608615Y-2812335D01*
X5624500Y-2878358D01*
X5639749Y-2943110D01*
X5654374Y-3006567D01*
X5668390Y-3068706D01*
X5681810Y-3129503D01*
X5694648Y-3188936D01*
X5706917Y-3246980D01*
X5718632Y-3303612D01*
X5729807Y-3358809D01*
X5740454Y-3412547D01*
X5750588Y-3464803D01*
X5760223Y-3515553D01*
X5769372Y-3564774D01*
X5778049Y-3612442D01*
X5786268Y-3658534D01*
X5794042Y-3703027D01*
X5801385Y-3745896D01*
X5808312Y-3787119D01*
X5814835Y-3826672D01*
X5883126Y-4305763D02*
X5887260Y-4339788D01*
X5891308Y-4373841D01*
X5895272Y-4407921D01*
X5899150Y-4442026D01*
X5902945Y-4476154D01*
X5906657Y-4510305D01*
X5910286Y-4544475D01*
X5913833Y-4578665D01*
X5917299Y-4612872D01*
X5920685Y-4647094D01*
X5923991Y-4681330D01*
X5927218Y-4715579D01*
X5930367Y-4749838D01*
X5933437Y-4784107D01*
X5936431Y-4818383D01*
X5939348Y-4852666D01*
X5942189Y-4886953D01*
X5944956Y-4921242D01*
X5947647Y-4955533D01*
X5950266Y-4989824D01*
X5952811Y-5024112D01*
X5955283Y-5058397D01*
X5957684Y-5092677D01*
X5960014Y-5126951D01*
X5962273Y-5161216D01*
X5964463Y-5195471D01*
X5966584Y-5229714D01*
X5968636Y-5263945D01*
X5970621Y-5298161D01*
X5972539Y-5332361D01*
X5974390Y-5366543D01*
X5976176Y-5400705D01*
X3025974Y-5371256D02*
X3023191Y-5339729D01*
X3020372Y-5308300D01*
X3017513Y-5276965D01*
X3014609Y-5245716D01*
X3011659Y-5214548D01*
X3008658Y-5183454D01*
X3005602Y-5152429D01*
X3002488Y-5121465D01*
X2999312Y-5090558D01*
X2996072Y-5059700D01*
X2992763Y-5028886D01*
X2989381Y-4998109D01*
X2985924Y-4967364D01*
X2982388Y-4936643D01*
X2978769Y-4905942D01*
X2975063Y-4875253D01*
X2971267Y-4844571D01*
X2967378Y-4813890D01*
X2963392Y-4783203D01*
X2959305Y-4752504D01*
X2955114Y-4721786D01*
X2950816Y-4691045D01*
X2946406Y-4660273D01*
X2941881Y-4629465D01*
X2937238Y-4598614D01*
X2932473Y-4567715D01*
X2927582Y-4536760D01*
X2922562Y-4505744D01*
X2917410Y-4474661D01*
X2912122Y-4443505D01*
X2906694Y-4412268D01*
X2901123Y-4380946D01*
X5991815Y-5779622D02*
X5992309Y-5795468D01*
X5992844Y-5813104D01*
X5993411Y-5832346D01*
X5993705Y-5842510D01*
X5994003Y-5853005D01*
X5994304Y-5863808D01*
X5994608Y-5874896D01*
X5994913Y-5886244D01*
X5995218Y-5897830D01*
X5995522Y-5909631D01*
X5995824Y-5921622D01*
X5996123Y-5933781D01*
X5996417Y-5946085D01*
X5996705Y-5958509D01*
X5996986Y-5971031D01*
X5997259Y-5983628D01*
X5997523Y-5996275D01*
X5997777Y-6008950D01*
X5998019Y-6021629D01*
X5998248Y-6034288D01*
X5998464Y-6046906D01*
X5998664Y-6059457D01*
X5998849Y-6071920D01*
X5999016Y-6084270D01*
X5999165Y-6096484D01*
X5999294Y-6108538D01*
X5999402Y-6120410D01*
X5999488Y-6132077D01*
X5999551Y-6143513D01*
X2901123Y-4380946D02*
X2892468Y-4333654D01*
X2883525Y-4286372D01*
X2874302Y-4239103D01*
X2864803Y-4191848D01*
X2855035Y-4144611D01*
X2845003Y-4097395D01*
X2834715Y-4050203D01*
X2824174Y-4003036D01*
X2813389Y-3955898D01*
X2802363Y-3908792D01*
X2791104Y-3861720D01*
X2779616Y-3814684D01*
X2767907Y-3767689D01*
X2755982Y-3720735D01*
X2743847Y-3673827D01*
X2731507Y-3626966D01*
X2718969Y-3580156D01*
X2706239Y-3533399D01*
X2693322Y-3486698D01*
X2680225Y-3440056D01*
X2666953Y-3393475D01*
X2653513Y-3346958D01*
X2639909Y-3300507D01*
X2626149Y-3254126D01*
X2612237Y-3207818D01*
X2598181Y-3161584D01*
X2583985Y-3115428D01*
X2569657Y-3069352D01*
X2555200Y-3023359D01*
X2540623Y-2977452D01*
X2525930Y-2931634D01*
X2511127Y-2885907D01*
X3104263Y-6367101D02*
X3102492Y-6342277D01*
X3100619Y-6316283D01*
X3098651Y-6289195D01*
X3096593Y-6261091D01*
X3094451Y-6232046D01*
X3092230Y-6202136D01*
X3089938Y-6171439D01*
X3087578Y-6140030D01*
X3085158Y-6107985D01*
X3082683Y-6075382D01*
X3080158Y-6042296D01*
X3077590Y-6008804D01*
X3074984Y-5974983D01*
X3072346Y-5940907D01*
X3069682Y-5906655D01*
X3066998Y-5872302D01*
X3064298Y-5837924D01*
X3061590Y-5803599D01*
X3058879Y-5769402D01*
X3056170Y-5735409D01*
X3053470Y-5701697D01*
X3050784Y-5668343D01*
X3048117Y-5635423D01*
X3045477Y-5603013D01*
X3042868Y-5571189D01*
X3040297Y-5540028D01*
X3037768Y-5509606D01*
X3035288Y-5479999D01*
X3032863Y-5451285D01*
X3030499Y-5423539D01*
X3028200Y-5396837D01*
X3025974Y-5371256D01*
X5221382Y-1500000D02*
X1965873Y-1500000D01*
X2183942Y-1974500D02*
X2177660Y-1959396D01*
X2171341Y-1944326D01*
X2164983Y-1929288D01*
X2158588Y-1914281D01*
X2152157Y-1899303D01*
X2145689Y-1884352D01*
X2139184Y-1869427D01*
X2132644Y-1854526D01*
X2126069Y-1839648D01*
X2119458Y-1824791D01*
X2112813Y-1809953D01*
X2106133Y-1795133D01*
X2099419Y-1780329D01*
X2092671Y-1765540D01*
X2085890Y-1750764D01*
X2079077Y-1735999D01*
X2072230Y-1721244D01*
X2065352Y-1706497D01*
X2058441Y-1691756D01*
X2051500Y-1677021D01*
X2044527Y-1662289D01*
X2037523Y-1647559D01*
X2030489Y-1632828D01*
X2023424Y-1618097D01*
X2016331Y-1603362D01*
X2009207Y-1588623D01*
X2002055Y-1573877D01*
X1994874Y-1559124D01*
X1987665Y-1544361D01*
X1980429Y-1529587D01*
X1973164Y-1514801D01*
X1965873Y-1500000D01*
X5976176Y-5400705D02*
X5976779Y-5412532D01*
X5977375Y-5424362D01*
X5977963Y-5436194D01*
X5978543Y-5448029D01*
X5979117Y-5459865D01*
X5979683Y-5471703D01*
X5980241Y-5483542D01*
X5980792Y-5495383D01*
X5981335Y-5507226D01*
X5981871Y-5519070D01*
X5982400Y-5530914D01*
X5982921Y-5542760D01*
X5983435Y-5554606D01*
X5983941Y-5566453D01*
X5984441Y-5578300D01*
X5984932Y-5590148D01*
X5985417Y-5601995D01*
X5985894Y-5613843D01*
X5986364Y-5625690D01*
X5986827Y-5637538D01*
X5987282Y-5649384D01*
X5987730Y-5661230D01*
X5988171Y-5673075D01*
X5988605Y-5684920D01*
X5989031Y-5696763D01*
X5989450Y-5708605D01*
X5989862Y-5720446D01*
X5990267Y-5732285D01*
X5990665Y-5744122D01*
X5991055Y-5755957D01*
X5991439Y-5767791D01*
X5991815Y-5779622D01*
X2511127Y-2885907D02*
X2507382Y-2874405D01*
X2503620Y-2862874D01*
X2499840Y-2851316D01*
X2496044Y-2839734D01*
X2492233Y-2828131D01*
X2488408Y-2816511D01*
X2484571Y-2804876D01*
X2480721Y-2793230D01*
X2476861Y-2781576D01*
X2472992Y-2769916D01*
X2469113Y-2758255D01*
X2465228Y-2746595D01*
X2461336Y-2734940D01*
X2457438Y-2723292D01*
X2453537Y-2711654D01*
X2449632Y-2700031D01*
X2445725Y-2688424D01*
X2441818Y-2676838D01*
X2437910Y-2665275D01*
X2434003Y-2653738D01*
X2430099Y-2642231D01*
X2426198Y-2630756D01*
X2422302Y-2619317D01*
X2418411Y-2607917D01*
X2414526Y-2596559D01*
X2410649Y-2585246D01*
X2406781Y-2573982D01*
X2402923Y-2562769D01*
X2399075Y-2551611D01*
X2395240Y-2540511D01*
X2391417Y-2529471D01*
X2387609Y-2518496D01*
X5814835Y-3826672D02*
X5817263Y-3841589D01*
X5819671Y-3856511D01*
X5822059Y-3871438D01*
X5824428Y-3886369D01*
X5826777Y-3901305D01*
X5829107Y-3916246D01*
X5831418Y-3931191D01*
X5833710Y-3946140D01*
X5835982Y-3961094D01*
X5838236Y-3976051D01*
X5840470Y-3991012D01*
X5842685Y-4005976D01*
X5844882Y-4020943D01*
X5847060Y-4035914D01*
X5849219Y-4050888D01*
X5851359Y-4065865D01*
X5853481Y-4080845D01*
X5855585Y-4095827D01*
X5857669Y-4110812D01*
X5859736Y-4125799D01*
X5861784Y-4140788D01*
X5863814Y-4155779D01*
X5865826Y-4170771D01*
X5867820Y-4185766D01*
X5869795Y-4200762D01*
X5871753Y-4215759D01*
X5873693Y-4230758D01*
X5875615Y-4245758D01*
X5877519Y-4260758D01*
X5879406Y-4275759D01*
X5881274Y-4290761D01*
X5883126Y-4305763D01*
X3129812Y-6763231D02*
X3129106Y-6751070D01*
X3128394Y-6738898D01*
X3127677Y-6726714D01*
X3126954Y-6714518D01*
X3126225Y-6702311D01*
X3125490Y-6690090D01*
X3124749Y-6677857D01*
X3124003Y-6665611D01*
X3123251Y-6653351D01*
X3122492Y-6641078D01*
X3121728Y-6628792D01*
X3120958Y-6616491D01*
X3120182Y-6604175D01*
X3119399Y-6591846D01*
X3118611Y-6579501D01*
X3117817Y-6567141D01*
X3117016Y-6554765D01*
X3116210Y-6542374D01*
X3115397Y-6529967D01*
X3114578Y-6517544D01*
X3113753Y-6505104D01*
X3112922Y-6492648D01*
X3112085Y-6480174D01*
X3111241Y-6467683D01*
X3110391Y-6455175D01*
X3109535Y-6442649D01*
X3108672Y-6430104D01*
X3107803Y-6417541D01*
X3106928Y-6404960D01*
X3106046Y-6392360D01*
X3105158Y-6379740D01*
X3104263Y-6367101D01*
X5983166Y-6763231D02*
X3129812Y-6763231D01*
X5999551Y-6143513D02*
X5999613Y-6162063D01*
X5999629Y-6180602D01*
X5999601Y-6199131D01*
X5999530Y-6217653D01*
X5999416Y-6236169D01*
X5999262Y-6254680D01*
X5999068Y-6273190D01*
X5998835Y-6291699D01*
X5998563Y-6310209D01*
X5998255Y-6328722D01*
X5997911Y-6347240D01*
X5997532Y-6365765D01*
X5997119Y-6384298D01*
X5996673Y-6402842D01*
X5996195Y-6421397D01*
X5995686Y-6439966D01*
X5995686Y-6439966D02*
X5995256Y-6454886D01*
X5994806Y-6469805D01*
X5994341Y-6484692D01*
X5993860Y-6499517D01*
X5993368Y-6514248D01*
X5992865Y-6528854D01*
X5992354Y-6543305D01*
X5991838Y-6557569D01*
X5991317Y-6571615D01*
X5990795Y-6585413D01*
X5990273Y-6598930D01*
X5989754Y-6612137D01*
X5989239Y-6625002D01*
X5988731Y-6637495D01*
X5988232Y-6649583D01*
X5987744Y-6661236D01*
X5987269Y-6672424D01*
X5986810Y-6683114D01*
X5986368Y-6693277D01*
X5985544Y-6711894D01*
X5984815Y-6728027D01*
X5984198Y-6741428D01*
X5983710Y-6751848D01*
X5983189Y-6762755D01*
X5983166Y-6763231D01*
X5272421Y-1649223D02*
X5276595Y-1661670D01*
X5280758Y-1674122D01*
X5284909Y-1686580D01*
X5289050Y-1699043D01*
X5293179Y-1711512D01*
X5297298Y-1723986D01*
X5301405Y-1736466D01*
X5305502Y-1748951D01*
X5309587Y-1761442D01*
X5313661Y-1773938D01*
X5317725Y-1786440D01*
X5321777Y-1798948D01*
X5325818Y-1811462D01*
X5329848Y-1823981D01*
X5333868Y-1836506D01*
X5337876Y-1849037D01*
D11*
D12*
X2983000Y-2329000D02*
X3203000Y-2549000D01*
X3203000Y-2329000D02*
X2983000Y-2549000D01*
X5521000Y-5575000D02*
X5741000Y-5795000D01*
X5741000Y-5575000D02*
X5521000Y-5795000D01*
D11*
X2221650Y-7079714D02*
X2221650Y-6879714D01*
X2221650Y-6879714D02*
X2269269Y-6879714D01*
X2269269Y-6879714D02*
X2297840Y-6889238D01*
X2297840Y-6889238D02*
X2316888Y-6908286D01*
X2316888Y-6908286D02*
X2326412Y-6927333D01*
X2326412Y-6927333D02*
X2335935Y-6965429D01*
X2335935Y-6965429D02*
X2335935Y-6994000D01*
X2335935Y-6994000D02*
X2326412Y-7032095D01*
X2326412Y-7032095D02*
X2316888Y-7051143D01*
X2316888Y-7051143D02*
X2297840Y-7070191D01*
X2297840Y-7070191D02*
X2269269Y-7079714D01*
X2269269Y-7079714D02*
X2221650Y-7079714D01*
X2421650Y-7079714D02*
X2421650Y-6946381D01*
X2421650Y-6984476D02*
X2431173Y-6965429D01*
X2431173Y-6965429D02*
X2440697Y-6955905D01*
X2440697Y-6955905D02*
X2459745Y-6946381D01*
X2459745Y-6946381D02*
X2478793Y-6946381D01*
X2545459Y-7079714D02*
X2545459Y-6946381D01*
X2545459Y-6879714D02*
X2535935Y-6889238D01*
X2535935Y-6889238D02*
X2545459Y-6898762D01*
X2545459Y-6898762D02*
X2554983Y-6889238D01*
X2554983Y-6889238D02*
X2545459Y-6879714D01*
X2545459Y-6879714D02*
X2545459Y-6898762D01*
X2669269Y-7079714D02*
X2650221Y-7070191D01*
X2650221Y-7070191D02*
X2640697Y-7051143D01*
X2640697Y-7051143D02*
X2640697Y-6879714D01*
X2774031Y-7079714D02*
X2754983Y-7070191D01*
X2754983Y-7070191D02*
X2745459Y-7051143D01*
X2745459Y-7051143D02*
X2745459Y-6879714D01*
X3002602Y-7079714D02*
X3002602Y-6879714D01*
X3002602Y-6879714D02*
X3069269Y-7022572D01*
X3069269Y-7022572D02*
X3135935Y-6879714D01*
X3135935Y-6879714D02*
X3135935Y-7079714D01*
X3316888Y-7079714D02*
X3316888Y-6974953D01*
X3316888Y-6974953D02*
X3307364Y-6955905D01*
X3307364Y-6955905D02*
X3288316Y-6946381D01*
X3288316Y-6946381D02*
X3250221Y-6946381D01*
X3250221Y-6946381D02*
X3231173Y-6955905D01*
X3316888Y-7070191D02*
X3297840Y-7079714D01*
X3297840Y-7079714D02*
X3250221Y-7079714D01*
X3250221Y-7079714D02*
X3231173Y-7070191D01*
X3231173Y-7070191D02*
X3221650Y-7051143D01*
X3221650Y-7051143D02*
X3221650Y-7032095D01*
X3221650Y-7032095D02*
X3231173Y-7013048D01*
X3231173Y-7013048D02*
X3250221Y-7003524D01*
X3250221Y-7003524D02*
X3297840Y-7003524D01*
X3297840Y-7003524D02*
X3316888Y-6994000D01*
X3412126Y-6946381D02*
X3412126Y-7146381D01*
X3412126Y-6955905D02*
X3431173Y-6946381D01*
X3431173Y-6946381D02*
X3469269Y-6946381D01*
X3469269Y-6946381D02*
X3488316Y-6955905D01*
X3488316Y-6955905D02*
X3497840Y-6965429D01*
X3497840Y-6965429D02*
X3507364Y-6984476D01*
X3507364Y-6984476D02*
X3507364Y-7041619D01*
X3507364Y-7041619D02*
X3497840Y-7060667D01*
X3497840Y-7060667D02*
X3488316Y-7070191D01*
X3488316Y-7070191D02*
X3469269Y-7079714D01*
X3469269Y-7079714D02*
X3431173Y-7079714D01*
X3431173Y-7079714D02*
X3412126Y-7070191D01*
X3593078Y-7060667D02*
X3602602Y-7070191D01*
X3602602Y-7070191D02*
X3593078Y-7079714D01*
X3593078Y-7079714D02*
X3583554Y-7070191D01*
X3583554Y-7070191D02*
X3593078Y-7060667D01*
X3593078Y-7060667D02*
X3593078Y-7079714D01*
X3593078Y-6955905D02*
X3602602Y-6965429D01*
X3602602Y-6965429D02*
X3593078Y-6974953D01*
X3593078Y-6974953D02*
X3583554Y-6965429D01*
X3583554Y-6965429D02*
X3593078Y-6955905D01*
X3593078Y-6955905D02*
X3593078Y-6974953D01*
X1760873Y-7308231D02*
X1960873Y-7508231D01*
X1960873Y-7308231D02*
X1760873Y-7508231D01*
X2212126Y-7318762D02*
X2221650Y-7309238D01*
X2221650Y-7309238D02*
X2240697Y-7299714D01*
X2240697Y-7299714D02*
X2288316Y-7299714D01*
X2288316Y-7299714D02*
X2307364Y-7309238D01*
X2307364Y-7309238D02*
X2316888Y-7318762D01*
X2316888Y-7318762D02*
X2326412Y-7337810D01*
X2326412Y-7337810D02*
X2326412Y-7356857D01*
X2326412Y-7356857D02*
X2316888Y-7385429D01*
X2316888Y-7385429D02*
X2202602Y-7499714D01*
X2202602Y-7499714D02*
X2326412Y-7499714D01*
X2412126Y-7480667D02*
X2421650Y-7490191D01*
X2421650Y-7490191D02*
X2412126Y-7499714D01*
X2412126Y-7499714D02*
X2402602Y-7490191D01*
X2402602Y-7490191D02*
X2412126Y-7480667D01*
X2412126Y-7480667D02*
X2412126Y-7499714D01*
X2497840Y-7318762D02*
X2507364Y-7309238D01*
X2507364Y-7309238D02*
X2526412Y-7299714D01*
X2526412Y-7299714D02*
X2574031Y-7299714D01*
X2574031Y-7299714D02*
X2593078Y-7309238D01*
X2593078Y-7309238D02*
X2602602Y-7318762D01*
X2602602Y-7318762D02*
X2612126Y-7337810D01*
X2612126Y-7337810D02*
X2612126Y-7356857D01*
X2612126Y-7356857D02*
X2602602Y-7385429D01*
X2602602Y-7385429D02*
X2488316Y-7499714D01*
X2488316Y-7499714D02*
X2612126Y-7499714D01*
X2735935Y-7299714D02*
X2754983Y-7299714D01*
X2754983Y-7299714D02*
X2774031Y-7309238D01*
X2774031Y-7309238D02*
X2783554Y-7318762D01*
X2783554Y-7318762D02*
X2793078Y-7337810D01*
X2793078Y-7337810D02*
X2802602Y-7375905D01*
X2802602Y-7375905D02*
X2802602Y-7423524D01*
X2802602Y-7423524D02*
X2793078Y-7461619D01*
X2793078Y-7461619D02*
X2783554Y-7480667D01*
X2783554Y-7480667D02*
X2774031Y-7490191D01*
X2774031Y-7490191D02*
X2754983Y-7499714D01*
X2754983Y-7499714D02*
X2735935Y-7499714D01*
X2735935Y-7499714D02*
X2716888Y-7490191D01*
X2716888Y-7490191D02*
X2707364Y-7480667D01*
X2707364Y-7480667D02*
X2697840Y-7461619D01*
X2697840Y-7461619D02*
X2688316Y-7423524D01*
X2688316Y-7423524D02*
X2688316Y-7375905D01*
X2688316Y-7375905D02*
X2697840Y-7337810D01*
X2697840Y-7337810D02*
X2707364Y-7318762D01*
X2707364Y-7318762D02*
X2716888Y-7309238D01*
X2716888Y-7309238D02*
X2735935Y-7299714D01*
X2926411Y-7299714D02*
X2945459Y-7299714D01*
X2945459Y-7299714D02*
X2964507Y-7309238D01*
X2964507Y-7309238D02*
X2974031Y-7318762D01*
X2974031Y-7318762D02*
X2983554Y-7337810D01*
X2983554Y-7337810D02*
X2993078Y-7375905D01*
X2993078Y-7375905D02*
X2993078Y-7423524D01*
X2993078Y-7423524D02*
X2983554Y-7461619D01*
X2983554Y-7461619D02*
X2974031Y-7480667D01*
X2974031Y-7480667D02*
X2964507Y-7490191D01*
X2964507Y-7490191D02*
X2945459Y-7499714D01*
X2945459Y-7499714D02*
X2926411Y-7499714D01*
X2926411Y-7499714D02*
X2907364Y-7490191D01*
X2907364Y-7490191D02*
X2897840Y-7480667D01*
X2897840Y-7480667D02*
X2888316Y-7461619D01*
X2888316Y-7461619D02*
X2878792Y-7423524D01*
X2878792Y-7423524D02*
X2878792Y-7375905D01*
X2878792Y-7375905D02*
X2888316Y-7337810D01*
X2888316Y-7337810D02*
X2897840Y-7318762D01*
X2897840Y-7318762D02*
X2907364Y-7309238D01*
X2907364Y-7309238D02*
X2926411Y-7299714D01*
X3078792Y-7499714D02*
X3078792Y-7366381D01*
X3078792Y-7385429D02*
X3088316Y-7375905D01*
X3088316Y-7375905D02*
X3107364Y-7366381D01*
X3107364Y-7366381D02*
X3135935Y-7366381D01*
X3135935Y-7366381D02*
X3154983Y-7375905D01*
X3154983Y-7375905D02*
X3164507Y-7394953D01*
X3164507Y-7394953D02*
X3164507Y-7499714D01*
X3164507Y-7394953D02*
X3174031Y-7375905D01*
X3174031Y-7375905D02*
X3193078Y-7366381D01*
X3193078Y-7366381D02*
X3221650Y-7366381D01*
X3221650Y-7366381D02*
X3240697Y-7375905D01*
X3240697Y-7375905D02*
X3250221Y-7394953D01*
X3250221Y-7394953D02*
X3250221Y-7499714D01*
X3345459Y-7499714D02*
X3345459Y-7366381D01*
X3345459Y-7385429D02*
X3354983Y-7375905D01*
X3354983Y-7375905D02*
X3374031Y-7366381D01*
X3374031Y-7366381D02*
X3402602Y-7366381D01*
X3402602Y-7366381D02*
X3421650Y-7375905D01*
X3421650Y-7375905D02*
X3431173Y-7394953D01*
X3431173Y-7394953D02*
X3431173Y-7499714D01*
X3431173Y-7394953D02*
X3440697Y-7375905D01*
X3440697Y-7375905D02*
X3459745Y-7366381D01*
X3459745Y-7366381D02*
X3488316Y-7366381D01*
X3488316Y-7366381D02*
X3507364Y-7375905D01*
X3507364Y-7375905D02*
X3516888Y-7394953D01*
X3516888Y-7394953D02*
X3516888Y-7499714D01*
X3907364Y-7290191D02*
X3735935Y-7547333D01*
X4164507Y-7299714D02*
X4183555Y-7299714D01*
X4183555Y-7299714D02*
X4202602Y-7309238D01*
X4202602Y-7309238D02*
X4212126Y-7318762D01*
X4212126Y-7318762D02*
X4221650Y-7337810D01*
X4221650Y-7337810D02*
X4231174Y-7375905D01*
X4231174Y-7375905D02*
X4231174Y-7423524D01*
X4231174Y-7423524D02*
X4221650Y-7461619D01*
X4221650Y-7461619D02*
X4212126Y-7480667D01*
X4212126Y-7480667D02*
X4202602Y-7490191D01*
X4202602Y-7490191D02*
X4183555Y-7499714D01*
X4183555Y-7499714D02*
X4164507Y-7499714D01*
X4164507Y-7499714D02*
X4145459Y-7490191D01*
X4145459Y-7490191D02*
X4135935Y-7480667D01*
X4135935Y-7480667D02*
X4126412Y-7461619D01*
X4126412Y-7461619D02*
X4116888Y-7423524D01*
X4116888Y-7423524D02*
X4116888Y-7375905D01*
X4116888Y-7375905D02*
X4126412Y-7337810D01*
X4126412Y-7337810D02*
X4135935Y-7318762D01*
X4135935Y-7318762D02*
X4145459Y-7309238D01*
X4145459Y-7309238D02*
X4164507Y-7299714D01*
X4316888Y-7480667D02*
X4326412Y-7490191D01*
X4326412Y-7490191D02*
X4316888Y-7499714D01*
X4316888Y-7499714D02*
X4307364Y-7490191D01*
X4307364Y-7490191D02*
X4316888Y-7480667D01*
X4316888Y-7480667D02*
X4316888Y-7499714D01*
X4450221Y-7299714D02*
X4469269Y-7299714D01*
X4469269Y-7299714D02*
X4488317Y-7309238D01*
X4488317Y-7309238D02*
X4497840Y-7318762D01*
X4497840Y-7318762D02*
X4507364Y-7337810D01*
X4507364Y-7337810D02*
X4516888Y-7375905D01*
X4516888Y-7375905D02*
X4516888Y-7423524D01*
X4516888Y-7423524D02*
X4507364Y-7461619D01*
X4507364Y-7461619D02*
X4497840Y-7480667D01*
X4497840Y-7480667D02*
X4488317Y-7490191D01*
X4488317Y-7490191D02*
X4469269Y-7499714D01*
X4469269Y-7499714D02*
X4450221Y-7499714D01*
X4450221Y-7499714D02*
X4431174Y-7490191D01*
X4431174Y-7490191D02*
X4421650Y-7480667D01*
X4421650Y-7480667D02*
X4412126Y-7461619D01*
X4412126Y-7461619D02*
X4402602Y-7423524D01*
X4402602Y-7423524D02*
X4402602Y-7375905D01*
X4402602Y-7375905D02*
X4412126Y-7337810D01*
X4412126Y-7337810D02*
X4421650Y-7318762D01*
X4421650Y-7318762D02*
X4431174Y-7309238D01*
X4431174Y-7309238D02*
X4450221Y-7299714D01*
X4631174Y-7385429D02*
X4612126Y-7375905D01*
X4612126Y-7375905D02*
X4602602Y-7366381D01*
X4602602Y-7366381D02*
X4593078Y-7347333D01*
X4593078Y-7347333D02*
X4593078Y-7337810D01*
X4593078Y-7337810D02*
X4602602Y-7318762D01*
X4602602Y-7318762D02*
X4612126Y-7309238D01*
X4612126Y-7309238D02*
X4631174Y-7299714D01*
X4631174Y-7299714D02*
X4669269Y-7299714D01*
X4669269Y-7299714D02*
X4688317Y-7309238D01*
X4688317Y-7309238D02*
X4697840Y-7318762D01*
X4697840Y-7318762D02*
X4707364Y-7337810D01*
X4707364Y-7337810D02*
X4707364Y-7347333D01*
X4707364Y-7347333D02*
X4697840Y-7366381D01*
X4697840Y-7366381D02*
X4688317Y-7375905D01*
X4688317Y-7375905D02*
X4669269Y-7385429D01*
X4669269Y-7385429D02*
X4631174Y-7385429D01*
X4631174Y-7385429D02*
X4612126Y-7394953D01*
X4612126Y-7394953D02*
X4602602Y-7404476D01*
X4602602Y-7404476D02*
X4593078Y-7423524D01*
X4593078Y-7423524D02*
X4593078Y-7461619D01*
X4593078Y-7461619D02*
X4602602Y-7480667D01*
X4602602Y-7480667D02*
X4612126Y-7490191D01*
X4612126Y-7490191D02*
X4631174Y-7499714D01*
X4631174Y-7499714D02*
X4669269Y-7499714D01*
X4669269Y-7499714D02*
X4688317Y-7490191D01*
X4688317Y-7490191D02*
X4697840Y-7480667D01*
X4697840Y-7480667D02*
X4707364Y-7461619D01*
X4707364Y-7461619D02*
X4707364Y-7423524D01*
X4707364Y-7423524D02*
X4697840Y-7404476D01*
X4697840Y-7404476D02*
X4688317Y-7394953D01*
X4688317Y-7394953D02*
X4669269Y-7385429D01*
X4878793Y-7299714D02*
X4840697Y-7299714D01*
X4840697Y-7299714D02*
X4821650Y-7309238D01*
X4821650Y-7309238D02*
X4812126Y-7318762D01*
X4812126Y-7318762D02*
X4793078Y-7347333D01*
X4793078Y-7347333D02*
X4783555Y-7385429D01*
X4783555Y-7385429D02*
X4783555Y-7461619D01*
X4783555Y-7461619D02*
X4793078Y-7480667D01*
X4793078Y-7480667D02*
X4802602Y-7490191D01*
X4802602Y-7490191D02*
X4821650Y-7499714D01*
X4821650Y-7499714D02*
X4859745Y-7499714D01*
X4859745Y-7499714D02*
X4878793Y-7490191D01*
X4878793Y-7490191D02*
X4888317Y-7480667D01*
X4888317Y-7480667D02*
X4897840Y-7461619D01*
X4897840Y-7461619D02*
X4897840Y-7414000D01*
X4897840Y-7414000D02*
X4888317Y-7394953D01*
X4888317Y-7394953D02*
X4878793Y-7385429D01*
X4878793Y-7385429D02*
X4859745Y-7375905D01*
X4859745Y-7375905D02*
X4821650Y-7375905D01*
X4821650Y-7375905D02*
X4802602Y-7385429D01*
X4802602Y-7385429D02*
X4793078Y-7394953D01*
X4793078Y-7394953D02*
X4783555Y-7414000D01*
X5069269Y-7299714D02*
X5031174Y-7299714D01*
X5031174Y-7299714D02*
X5012126Y-7309238D01*
X5012126Y-7309238D02*
X5002602Y-7318762D01*
X5002602Y-7318762D02*
X4983555Y-7347333D01*
X4983555Y-7347333D02*
X4974031Y-7385429D01*
X4974031Y-7385429D02*
X4974031Y-7461619D01*
X4974031Y-7461619D02*
X4983555Y-7480667D01*
X4983555Y-7480667D02*
X4993078Y-7490191D01*
X4993078Y-7490191D02*
X5012126Y-7499714D01*
X5012126Y-7499714D02*
X5050221Y-7499714D01*
X5050221Y-7499714D02*
X5069269Y-7490191D01*
X5069269Y-7490191D02*
X5078793Y-7480667D01*
X5078793Y-7480667D02*
X5088317Y-7461619D01*
X5088317Y-7461619D02*
X5088317Y-7414000D01*
X5088317Y-7414000D02*
X5078793Y-7394953D01*
X5078793Y-7394953D02*
X5069269Y-7385429D01*
X5069269Y-7385429D02*
X5050221Y-7375905D01*
X5050221Y-7375905D02*
X5012126Y-7375905D01*
X5012126Y-7375905D02*
X4993078Y-7385429D01*
X4993078Y-7385429D02*
X4983555Y-7394953D01*
X4983555Y-7394953D02*
X4974031Y-7414000D01*
X5164507Y-7299714D02*
X5164507Y-7337810D01*
X5240698Y-7299714D02*
X5240698Y-7337810D01*
X5535936Y-7575905D02*
X5526412Y-7566381D01*
X5526412Y-7566381D02*
X5507364Y-7537810D01*
X5507364Y-7537810D02*
X5497840Y-7518762D01*
X5497840Y-7518762D02*
X5488317Y-7490191D01*
X5488317Y-7490191D02*
X5478793Y-7442572D01*
X5478793Y-7442572D02*
X5478793Y-7404476D01*
X5478793Y-7404476D02*
X5488317Y-7356857D01*
X5488317Y-7356857D02*
X5497840Y-7328286D01*
X5497840Y-7328286D02*
X5507364Y-7309238D01*
X5507364Y-7309238D02*
X5526412Y-7280667D01*
X5526412Y-7280667D02*
X5535936Y-7271143D01*
X5602602Y-7318762D02*
X5612126Y-7309238D01*
X5612126Y-7309238D02*
X5631174Y-7299714D01*
X5631174Y-7299714D02*
X5678793Y-7299714D01*
X5678793Y-7299714D02*
X5697840Y-7309238D01*
X5697840Y-7309238D02*
X5707364Y-7318762D01*
X5707364Y-7318762D02*
X5716888Y-7337810D01*
X5716888Y-7337810D02*
X5716888Y-7356857D01*
X5716888Y-7356857D02*
X5707364Y-7385429D01*
X5707364Y-7385429D02*
X5593078Y-7499714D01*
X5593078Y-7499714D02*
X5716888Y-7499714D01*
X5954983Y-7499714D02*
X5954983Y-7299714D01*
X6040698Y-7499714D02*
X6040698Y-7394953D01*
X6040698Y-7394953D02*
X6031174Y-7375905D01*
X6031174Y-7375905D02*
X6012126Y-7366381D01*
X6012126Y-7366381D02*
X5983555Y-7366381D01*
X5983555Y-7366381D02*
X5964507Y-7375905D01*
X5964507Y-7375905D02*
X5954983Y-7385429D01*
X6164507Y-7499714D02*
X6145459Y-7490191D01*
X6145459Y-7490191D02*
X6135936Y-7480667D01*
X6135936Y-7480667D02*
X6126412Y-7461619D01*
X6126412Y-7461619D02*
X6126412Y-7404476D01*
X6126412Y-7404476D02*
X6135936Y-7385429D01*
X6135936Y-7385429D02*
X6145459Y-7375905D01*
X6145459Y-7375905D02*
X6164507Y-7366381D01*
X6164507Y-7366381D02*
X6193079Y-7366381D01*
X6193079Y-7366381D02*
X6212126Y-7375905D01*
X6212126Y-7375905D02*
X6221650Y-7385429D01*
X6221650Y-7385429D02*
X6231174Y-7404476D01*
X6231174Y-7404476D02*
X6231174Y-7461619D01*
X6231174Y-7461619D02*
X6221650Y-7480667D01*
X6221650Y-7480667D02*
X6212126Y-7490191D01*
X6212126Y-7490191D02*
X6193079Y-7499714D01*
X6193079Y-7499714D02*
X6164507Y-7499714D01*
X6345459Y-7499714D02*
X6326412Y-7490191D01*
X6326412Y-7490191D02*
X6316888Y-7471143D01*
X6316888Y-7471143D02*
X6316888Y-7299714D01*
X6497840Y-7490191D02*
X6478793Y-7499714D01*
X6478793Y-7499714D02*
X6440698Y-7499714D01*
X6440698Y-7499714D02*
X6421650Y-7490191D01*
X6421650Y-7490191D02*
X6412126Y-7471143D01*
X6412126Y-7471143D02*
X6412126Y-7394953D01*
X6412126Y-7394953D02*
X6421650Y-7375905D01*
X6421650Y-7375905D02*
X6440698Y-7366381D01*
X6440698Y-7366381D02*
X6478793Y-7366381D01*
X6478793Y-7366381D02*
X6497840Y-7375905D01*
X6497840Y-7375905D02*
X6507364Y-7394953D01*
X6507364Y-7394953D02*
X6507364Y-7414000D01*
X6507364Y-7414000D02*
X6412126Y-7433048D01*
X6583555Y-7490191D02*
X6602602Y-7499714D01*
X6602602Y-7499714D02*
X6640698Y-7499714D01*
X6640698Y-7499714D02*
X6659745Y-7490191D01*
X6659745Y-7490191D02*
X6669269Y-7471143D01*
X6669269Y-7471143D02*
X6669269Y-7461619D01*
X6669269Y-7461619D02*
X6659745Y-7442572D01*
X6659745Y-7442572D02*
X6640698Y-7433048D01*
X6640698Y-7433048D02*
X6612126Y-7433048D01*
X6612126Y-7433048D02*
X6593079Y-7423524D01*
X6593079Y-7423524D02*
X6583555Y-7404476D01*
X6583555Y-7404476D02*
X6583555Y-7394953D01*
X6583555Y-7394953D02*
X6593079Y-7375905D01*
X6593079Y-7375905D02*
X6612126Y-7366381D01*
X6612126Y-7366381D02*
X6640698Y-7366381D01*
X6640698Y-7366381D02*
X6659745Y-7375905D01*
X6735936Y-7575905D02*
X6745460Y-7566381D01*
X6745460Y-7566381D02*
X6764507Y-7537810D01*
X6764507Y-7537810D02*
X6774031Y-7518762D01*
X6774031Y-7518762D02*
X6783555Y-7490191D01*
X6783555Y-7490191D02*
X6793079Y-7442572D01*
X6793079Y-7442572D02*
X6793079Y-7404476D01*
X6793079Y-7404476D02*
X6783555Y-7356857D01*
X6783555Y-7356857D02*
X6774031Y-7328286D01*
X6774031Y-7328286D02*
X6764507Y-7309238D01*
X6764507Y-7309238D02*
X6745460Y-7280667D01*
X6745460Y-7280667D02*
X6735936Y-7271143D01*
X7097841Y-7575905D02*
X7088317Y-7566381D01*
X7088317Y-7566381D02*
X7069269Y-7537810D01*
X7069269Y-7537810D02*
X7059745Y-7518762D01*
X7059745Y-7518762D02*
X7050221Y-7490191D01*
X7050221Y-7490191D02*
X7040698Y-7442572D01*
X7040698Y-7442572D02*
X7040698Y-7404476D01*
X7040698Y-7404476D02*
X7050221Y-7356857D01*
X7050221Y-7356857D02*
X7059745Y-7328286D01*
X7059745Y-7328286D02*
X7069269Y-7309238D01*
X7069269Y-7309238D02*
X7088317Y-7280667D01*
X7088317Y-7280667D02*
X7097841Y-7271143D01*
X7174031Y-7366381D02*
X7174031Y-7499714D01*
X7174031Y-7385429D02*
X7183555Y-7375905D01*
X7183555Y-7375905D02*
X7202602Y-7366381D01*
X7202602Y-7366381D02*
X7231174Y-7366381D01*
X7231174Y-7366381D02*
X7250221Y-7375905D01*
X7250221Y-7375905D02*
X7259745Y-7394953D01*
X7259745Y-7394953D02*
X7259745Y-7499714D01*
X7383555Y-7499714D02*
X7364507Y-7490191D01*
X7364507Y-7490191D02*
X7354983Y-7480667D01*
X7354983Y-7480667D02*
X7345460Y-7461619D01*
X7345460Y-7461619D02*
X7345460Y-7404476D01*
X7345460Y-7404476D02*
X7354983Y-7385429D01*
X7354983Y-7385429D02*
X7364507Y-7375905D01*
X7364507Y-7375905D02*
X7383555Y-7366381D01*
X7383555Y-7366381D02*
X7412126Y-7366381D01*
X7412126Y-7366381D02*
X7431174Y-7375905D01*
X7431174Y-7375905D02*
X7440698Y-7385429D01*
X7440698Y-7385429D02*
X7450221Y-7404476D01*
X7450221Y-7404476D02*
X7450221Y-7461619D01*
X7450221Y-7461619D02*
X7440698Y-7480667D01*
X7440698Y-7480667D02*
X7431174Y-7490191D01*
X7431174Y-7490191D02*
X7412126Y-7499714D01*
X7412126Y-7499714D02*
X7383555Y-7499714D01*
X7507364Y-7366381D02*
X7583555Y-7366381D01*
X7535936Y-7299714D02*
X7535936Y-7471143D01*
X7535936Y-7471143D02*
X7545460Y-7490191D01*
X7545460Y-7490191D02*
X7564507Y-7499714D01*
X7564507Y-7499714D02*
X7583555Y-7499714D01*
X7802602Y-7366381D02*
X7802602Y-7566381D01*
X7802602Y-7375905D02*
X7821650Y-7366381D01*
X7821650Y-7366381D02*
X7859745Y-7366381D01*
X7859745Y-7366381D02*
X7878793Y-7375905D01*
X7878793Y-7375905D02*
X7888317Y-7385429D01*
X7888317Y-7385429D02*
X7897841Y-7404476D01*
X7897841Y-7404476D02*
X7897841Y-7461619D01*
X7897841Y-7461619D02*
X7888317Y-7480667D01*
X7888317Y-7480667D02*
X7878793Y-7490191D01*
X7878793Y-7490191D02*
X7859745Y-7499714D01*
X7859745Y-7499714D02*
X7821650Y-7499714D01*
X7821650Y-7499714D02*
X7802602Y-7490191D01*
X8012126Y-7499714D02*
X7993079Y-7490191D01*
X7993079Y-7490191D02*
X7983555Y-7471143D01*
X7983555Y-7471143D02*
X7983555Y-7299714D01*
X8174031Y-7499714D02*
X8174031Y-7394953D01*
X8174031Y-7394953D02*
X8164507Y-7375905D01*
X8164507Y-7375905D02*
X8145460Y-7366381D01*
X8145460Y-7366381D02*
X8107364Y-7366381D01*
X8107364Y-7366381D02*
X8088317Y-7375905D01*
X8174031Y-7490191D02*
X8154983Y-7499714D01*
X8154983Y-7499714D02*
X8107364Y-7499714D01*
X8107364Y-7499714D02*
X8088317Y-7490191D01*
X8088317Y-7490191D02*
X8078793Y-7471143D01*
X8078793Y-7471143D02*
X8078793Y-7452095D01*
X8078793Y-7452095D02*
X8088317Y-7433048D01*
X8088317Y-7433048D02*
X8107364Y-7423524D01*
X8107364Y-7423524D02*
X8154983Y-7423524D01*
X8154983Y-7423524D02*
X8174031Y-7414000D01*
X8240698Y-7366381D02*
X8316888Y-7366381D01*
X8269269Y-7299714D02*
X8269269Y-7471143D01*
X8269269Y-7471143D02*
X8278793Y-7490191D01*
X8278793Y-7490191D02*
X8297841Y-7499714D01*
X8297841Y-7499714D02*
X8316888Y-7499714D01*
X8459745Y-7490191D02*
X8440698Y-7499714D01*
X8440698Y-7499714D02*
X8402603Y-7499714D01*
X8402603Y-7499714D02*
X8383555Y-7490191D01*
X8383555Y-7490191D02*
X8374031Y-7471143D01*
X8374031Y-7471143D02*
X8374031Y-7394953D01*
X8374031Y-7394953D02*
X8383555Y-7375905D01*
X8383555Y-7375905D02*
X8402603Y-7366381D01*
X8402603Y-7366381D02*
X8440698Y-7366381D01*
X8440698Y-7366381D02*
X8459745Y-7375905D01*
X8459745Y-7375905D02*
X8469269Y-7394953D01*
X8469269Y-7394953D02*
X8469269Y-7414000D01*
X8469269Y-7414000D02*
X8374031Y-7433048D01*
X8640698Y-7499714D02*
X8640698Y-7299714D01*
X8640698Y-7490191D02*
X8621650Y-7499714D01*
X8621650Y-7499714D02*
X8583555Y-7499714D01*
X8583555Y-7499714D02*
X8564507Y-7490191D01*
X8564507Y-7490191D02*
X8554984Y-7480667D01*
X8554984Y-7480667D02*
X8545460Y-7461619D01*
X8545460Y-7461619D02*
X8545460Y-7404476D01*
X8545460Y-7404476D02*
X8554984Y-7385429D01*
X8554984Y-7385429D02*
X8564507Y-7375905D01*
X8564507Y-7375905D02*
X8583555Y-7366381D01*
X8583555Y-7366381D02*
X8621650Y-7366381D01*
X8621650Y-7366381D02*
X8640698Y-7375905D01*
X8716888Y-7575905D02*
X8726412Y-7566381D01*
X8726412Y-7566381D02*
X8745460Y-7537810D01*
X8745460Y-7537810D02*
X8754984Y-7518762D01*
X8754984Y-7518762D02*
X8764507Y-7490191D01*
X8764507Y-7490191D02*
X8774031Y-7442572D01*
X8774031Y-7442572D02*
X8774031Y-7404476D01*
X8774031Y-7404476D02*
X8764507Y-7356857D01*
X8764507Y-7356857D02*
X8754984Y-7328286D01*
X8754984Y-7328286D02*
X8745460Y-7309238D01*
X8745460Y-7309238D02*
X8726412Y-7280667D01*
X8726412Y-7280667D02*
X8716888Y-7271143D01*
M02*
