%TF.GenerationSoftware,KiCad,Pcbnew,7.0.6*%
%TF.CreationDate,2023-07-13T14:38:49+02:00*%
%TF.ProjectId,RH_GripLogicBoard_FreeJoy,52485f47-7269-4704-9c6f-676963426f61,rev?*%
%TF.SameCoordinates,Original*%
%TF.FileFunction,Legend,Top*%
%TF.FilePolarity,Positive*%
%FSLAX46Y46*%
G04 Gerber Fmt 4.6, Leading zero omitted, Abs format (unit mm)*
G04 Created by KiCad (PCBNEW 7.0.6) date 2023-07-13 14:38:49*
%MOMM*%
%LPD*%
G01*
G04 APERTURE LIST*
G04 Aperture macros list*
%AMRoundRect*
0 Rectangle with rounded corners*
0 $1 Rounding radius*
0 $2 $3 $4 $5 $6 $7 $8 $9 X,Y pos of 4 corners*
0 Add a 4 corners polygon primitive as box body*
4,1,4,$2,$3,$4,$5,$6,$7,$8,$9,$2,$3,0*
0 Add four circle primitives for the rounded corners*
1,1,$1+$1,$2,$3*
1,1,$1+$1,$4,$5*
1,1,$1+$1,$6,$7*
1,1,$1+$1,$8,$9*
0 Add four rect primitives between the rounded corners*
20,1,$1+$1,$2,$3,$4,$5,0*
20,1,$1+$1,$4,$5,$6,$7,0*
20,1,$1+$1,$6,$7,$8,$9,0*
20,1,$1+$1,$8,$9,$2,$3,0*%
G04 Aperture macros list end*
%ADD10C,0.150000*%
%ADD11C,0.100000*%
%ADD12C,0.120000*%
%ADD13RoundRect,0.250000X-0.600000X-0.725000X0.600000X-0.725000X0.600000X0.725000X-0.600000X0.725000X0*%
%ADD14O,1.700000X1.950000*%
%ADD15RoundRect,0.250000X0.600000X0.725000X-0.600000X0.725000X-0.600000X-0.725000X0.600000X-0.725000X0*%
%ADD16C,2.200000*%
%ADD17RoundRect,0.250000X-0.097227X0.574524X-0.574524X0.097227X0.097227X-0.574524X0.574524X-0.097227X0*%
%ADD18RoundRect,0.250000X0.450000X-0.350000X0.450000X0.350000X-0.450000X0.350000X-0.450000X-0.350000X0*%
%ADD19RoundRect,0.100000X-0.521491X0.380070X0.380070X-0.521491X0.521491X-0.380070X-0.380070X0.521491X0*%
%ADD20RoundRect,0.250000X0.600000X0.750000X-0.600000X0.750000X-0.600000X-0.750000X0.600000X-0.750000X0*%
%ADD21O,1.700000X2.000000*%
%ADD22RoundRect,0.250000X-0.350000X-0.450000X0.350000X-0.450000X0.350000X0.450000X-0.350000X0.450000X0*%
%ADD23RoundRect,0.250000X0.574524X0.097227X0.097227X0.574524X-0.574524X-0.097227X-0.097227X-0.574524X0*%
G04 APERTURE END LIST*
D10*
X33546666Y-56864819D02*
X33546666Y-57579104D01*
X33546666Y-57579104D02*
X33499047Y-57721961D01*
X33499047Y-57721961D02*
X33403809Y-57817200D01*
X33403809Y-57817200D02*
X33260952Y-57864819D01*
X33260952Y-57864819D02*
X33165714Y-57864819D01*
X34451428Y-56864819D02*
X34260952Y-56864819D01*
X34260952Y-56864819D02*
X34165714Y-56912438D01*
X34165714Y-56912438D02*
X34118095Y-56960057D01*
X34118095Y-56960057D02*
X34022857Y-57102914D01*
X34022857Y-57102914D02*
X33975238Y-57293390D01*
X33975238Y-57293390D02*
X33975238Y-57674342D01*
X33975238Y-57674342D02*
X34022857Y-57769580D01*
X34022857Y-57769580D02*
X34070476Y-57817200D01*
X34070476Y-57817200D02*
X34165714Y-57864819D01*
X34165714Y-57864819D02*
X34356190Y-57864819D01*
X34356190Y-57864819D02*
X34451428Y-57817200D01*
X34451428Y-57817200D02*
X34499047Y-57769580D01*
X34499047Y-57769580D02*
X34546666Y-57674342D01*
X34546666Y-57674342D02*
X34546666Y-57436247D01*
X34546666Y-57436247D02*
X34499047Y-57341009D01*
X34499047Y-57341009D02*
X34451428Y-57293390D01*
X34451428Y-57293390D02*
X34356190Y-57245771D01*
X34356190Y-57245771D02*
X34165714Y-57245771D01*
X34165714Y-57245771D02*
X34070476Y-57293390D01*
X34070476Y-57293390D02*
X34022857Y-57341009D01*
X34022857Y-57341009D02*
X33975238Y-57436247D01*
X51056666Y-23284819D02*
X51056666Y-23999104D01*
X51056666Y-23999104D02*
X51009047Y-24141961D01*
X51009047Y-24141961D02*
X50913809Y-24237200D01*
X50913809Y-24237200D02*
X50770952Y-24284819D01*
X50770952Y-24284819D02*
X50675714Y-24284819D01*
X51437619Y-23284819D02*
X52056666Y-23284819D01*
X52056666Y-23284819D02*
X51723333Y-23665771D01*
X51723333Y-23665771D02*
X51866190Y-23665771D01*
X51866190Y-23665771D02*
X51961428Y-23713390D01*
X51961428Y-23713390D02*
X52009047Y-23761009D01*
X52009047Y-23761009D02*
X52056666Y-23856247D01*
X52056666Y-23856247D02*
X52056666Y-24094342D01*
X52056666Y-24094342D02*
X52009047Y-24189580D01*
X52009047Y-24189580D02*
X51961428Y-24237200D01*
X51961428Y-24237200D02*
X51866190Y-24284819D01*
X51866190Y-24284819D02*
X51580476Y-24284819D01*
X51580476Y-24284819D02*
X51485238Y-24237200D01*
X51485238Y-24237200D02*
X51437619Y-24189580D01*
D11*
X38810951Y-29512419D02*
X38810951Y-28512419D01*
X38810951Y-28893371D02*
X38906189Y-28845752D01*
X38906189Y-28845752D02*
X39096665Y-28845752D01*
X39096665Y-28845752D02*
X39191903Y-28893371D01*
X39191903Y-28893371D02*
X39239522Y-28940990D01*
X39239522Y-28940990D02*
X39287141Y-29036228D01*
X39287141Y-29036228D02*
X39287141Y-29321942D01*
X39287141Y-29321942D02*
X39239522Y-29417180D01*
X39239522Y-29417180D02*
X39191903Y-29464800D01*
X39191903Y-29464800D02*
X39096665Y-29512419D01*
X39096665Y-29512419D02*
X38906189Y-29512419D01*
X38906189Y-29512419D02*
X38810951Y-29464800D01*
X39715713Y-29512419D02*
X39715713Y-28845752D01*
X39715713Y-29036228D02*
X39763332Y-28940990D01*
X39763332Y-28940990D02*
X39810951Y-28893371D01*
X39810951Y-28893371D02*
X39906189Y-28845752D01*
X39906189Y-28845752D02*
X40001427Y-28845752D01*
X40715713Y-29464800D02*
X40620475Y-29512419D01*
X40620475Y-29512419D02*
X40429999Y-29512419D01*
X40429999Y-29512419D02*
X40334761Y-29464800D01*
X40334761Y-29464800D02*
X40287142Y-29369561D01*
X40287142Y-29369561D02*
X40287142Y-28988609D01*
X40287142Y-28988609D02*
X40334761Y-28893371D01*
X40334761Y-28893371D02*
X40429999Y-28845752D01*
X40429999Y-28845752D02*
X40620475Y-28845752D01*
X40620475Y-28845752D02*
X40715713Y-28893371D01*
X40715713Y-28893371D02*
X40763332Y-28988609D01*
X40763332Y-28988609D02*
X40763332Y-29083847D01*
X40763332Y-29083847D02*
X40287142Y-29179085D01*
X41620475Y-29512419D02*
X41620475Y-28988609D01*
X41620475Y-28988609D02*
X41572856Y-28893371D01*
X41572856Y-28893371D02*
X41477618Y-28845752D01*
X41477618Y-28845752D02*
X41287142Y-28845752D01*
X41287142Y-28845752D02*
X41191904Y-28893371D01*
X41620475Y-29464800D02*
X41525237Y-29512419D01*
X41525237Y-29512419D02*
X41287142Y-29512419D01*
X41287142Y-29512419D02*
X41191904Y-29464800D01*
X41191904Y-29464800D02*
X41144285Y-29369561D01*
X41144285Y-29369561D02*
X41144285Y-29274323D01*
X41144285Y-29274323D02*
X41191904Y-29179085D01*
X41191904Y-29179085D02*
X41287142Y-29131466D01*
X41287142Y-29131466D02*
X41525237Y-29131466D01*
X41525237Y-29131466D02*
X41620475Y-29083847D01*
X42096666Y-29512419D02*
X42096666Y-28512419D01*
X42191904Y-29131466D02*
X42477618Y-29512419D01*
X42477618Y-28845752D02*
X42096666Y-29226704D01*
X43049047Y-29512419D02*
X42953809Y-29464800D01*
X42953809Y-29464800D02*
X42906190Y-29369561D01*
X42906190Y-29369561D02*
X42906190Y-28512419D01*
X43810952Y-29464800D02*
X43715714Y-29512419D01*
X43715714Y-29512419D02*
X43525238Y-29512419D01*
X43525238Y-29512419D02*
X43430000Y-29464800D01*
X43430000Y-29464800D02*
X43382381Y-29369561D01*
X43382381Y-29369561D02*
X43382381Y-28988609D01*
X43382381Y-28988609D02*
X43430000Y-28893371D01*
X43430000Y-28893371D02*
X43525238Y-28845752D01*
X43525238Y-28845752D02*
X43715714Y-28845752D01*
X43715714Y-28845752D02*
X43810952Y-28893371D01*
X43810952Y-28893371D02*
X43858571Y-28988609D01*
X43858571Y-28988609D02*
X43858571Y-29083847D01*
X43858571Y-29083847D02*
X43382381Y-29179085D01*
X44191905Y-28845752D02*
X44430000Y-29512419D01*
X44430000Y-29512419D02*
X44668095Y-28845752D01*
X45430000Y-29464800D02*
X45334762Y-29512419D01*
X45334762Y-29512419D02*
X45144286Y-29512419D01*
X45144286Y-29512419D02*
X45049048Y-29464800D01*
X45049048Y-29464800D02*
X45001429Y-29369561D01*
X45001429Y-29369561D02*
X45001429Y-28988609D01*
X45001429Y-28988609D02*
X45049048Y-28893371D01*
X45049048Y-28893371D02*
X45144286Y-28845752D01*
X45144286Y-28845752D02*
X45334762Y-28845752D01*
X45334762Y-28845752D02*
X45430000Y-28893371D01*
X45430000Y-28893371D02*
X45477619Y-28988609D01*
X45477619Y-28988609D02*
X45477619Y-29083847D01*
X45477619Y-29083847D02*
X45001429Y-29179085D01*
X45906191Y-29512419D02*
X45906191Y-28845752D01*
X45906191Y-29036228D02*
X45953810Y-28940990D01*
X45953810Y-28940990D02*
X46001429Y-28893371D01*
X46001429Y-28893371D02*
X46096667Y-28845752D01*
X46096667Y-28845752D02*
X46191905Y-28845752D01*
D10*
X40753333Y-33139580D02*
X40705714Y-33187200D01*
X40705714Y-33187200D02*
X40562857Y-33234819D01*
X40562857Y-33234819D02*
X40467619Y-33234819D01*
X40467619Y-33234819D02*
X40324762Y-33187200D01*
X40324762Y-33187200D02*
X40229524Y-33091961D01*
X40229524Y-33091961D02*
X40181905Y-32996723D01*
X40181905Y-32996723D02*
X40134286Y-32806247D01*
X40134286Y-32806247D02*
X40134286Y-32663390D01*
X40134286Y-32663390D02*
X40181905Y-32472914D01*
X40181905Y-32472914D02*
X40229524Y-32377676D01*
X40229524Y-32377676D02*
X40324762Y-32282438D01*
X40324762Y-32282438D02*
X40467619Y-32234819D01*
X40467619Y-32234819D02*
X40562857Y-32234819D01*
X40562857Y-32234819D02*
X40705714Y-32282438D01*
X40705714Y-32282438D02*
X40753333Y-32330057D01*
X41134286Y-32330057D02*
X41181905Y-32282438D01*
X41181905Y-32282438D02*
X41277143Y-32234819D01*
X41277143Y-32234819D02*
X41515238Y-32234819D01*
X41515238Y-32234819D02*
X41610476Y-32282438D01*
X41610476Y-32282438D02*
X41658095Y-32330057D01*
X41658095Y-32330057D02*
X41705714Y-32425295D01*
X41705714Y-32425295D02*
X41705714Y-32520533D01*
X41705714Y-32520533D02*
X41658095Y-32663390D01*
X41658095Y-32663390D02*
X41086667Y-33234819D01*
X41086667Y-33234819D02*
X41705714Y-33234819D01*
X56346666Y-62144819D02*
X56346666Y-62859104D01*
X56346666Y-62859104D02*
X56299047Y-63001961D01*
X56299047Y-63001961D02*
X56203809Y-63097200D01*
X56203809Y-63097200D02*
X56060952Y-63144819D01*
X56060952Y-63144819D02*
X55965714Y-63144819D01*
X57346666Y-63144819D02*
X56775238Y-63144819D01*
X57060952Y-63144819D02*
X57060952Y-62144819D01*
X57060952Y-62144819D02*
X56965714Y-62287676D01*
X56965714Y-62287676D02*
X56870476Y-62382914D01*
X56870476Y-62382914D02*
X56775238Y-62430533D01*
X44463333Y-32104819D02*
X44130000Y-31628628D01*
X43891905Y-32104819D02*
X43891905Y-31104819D01*
X43891905Y-31104819D02*
X44272857Y-31104819D01*
X44272857Y-31104819D02*
X44368095Y-31152438D01*
X44368095Y-31152438D02*
X44415714Y-31200057D01*
X44415714Y-31200057D02*
X44463333Y-31295295D01*
X44463333Y-31295295D02*
X44463333Y-31438152D01*
X44463333Y-31438152D02*
X44415714Y-31533390D01*
X44415714Y-31533390D02*
X44368095Y-31581009D01*
X44368095Y-31581009D02*
X44272857Y-31628628D01*
X44272857Y-31628628D02*
X43891905Y-31628628D01*
X45034762Y-31533390D02*
X44939524Y-31485771D01*
X44939524Y-31485771D02*
X44891905Y-31438152D01*
X44891905Y-31438152D02*
X44844286Y-31342914D01*
X44844286Y-31342914D02*
X44844286Y-31295295D01*
X44844286Y-31295295D02*
X44891905Y-31200057D01*
X44891905Y-31200057D02*
X44939524Y-31152438D01*
X44939524Y-31152438D02*
X45034762Y-31104819D01*
X45034762Y-31104819D02*
X45225238Y-31104819D01*
X45225238Y-31104819D02*
X45320476Y-31152438D01*
X45320476Y-31152438D02*
X45368095Y-31200057D01*
X45368095Y-31200057D02*
X45415714Y-31295295D01*
X45415714Y-31295295D02*
X45415714Y-31342914D01*
X45415714Y-31342914D02*
X45368095Y-31438152D01*
X45368095Y-31438152D02*
X45320476Y-31485771D01*
X45320476Y-31485771D02*
X45225238Y-31533390D01*
X45225238Y-31533390D02*
X45034762Y-31533390D01*
X45034762Y-31533390D02*
X44939524Y-31581009D01*
X44939524Y-31581009D02*
X44891905Y-31628628D01*
X44891905Y-31628628D02*
X44844286Y-31723866D01*
X44844286Y-31723866D02*
X44844286Y-31914342D01*
X44844286Y-31914342D02*
X44891905Y-32009580D01*
X44891905Y-32009580D02*
X44939524Y-32057200D01*
X44939524Y-32057200D02*
X45034762Y-32104819D01*
X45034762Y-32104819D02*
X45225238Y-32104819D01*
X45225238Y-32104819D02*
X45320476Y-32057200D01*
X45320476Y-32057200D02*
X45368095Y-32009580D01*
X45368095Y-32009580D02*
X45415714Y-31914342D01*
X45415714Y-31914342D02*
X45415714Y-31723866D01*
X45415714Y-31723866D02*
X45368095Y-31628628D01*
X45368095Y-31628628D02*
X45320476Y-31581009D01*
X45320476Y-31581009D02*
X45225238Y-31533390D01*
X34386271Y-32386232D02*
X33813851Y-32958652D01*
X33813851Y-32958652D02*
X33780179Y-33059667D01*
X33780179Y-33059667D02*
X33780179Y-33127011D01*
X33780179Y-33127011D02*
X33813851Y-33228026D01*
X33813851Y-33228026D02*
X33948538Y-33362713D01*
X33948538Y-33362713D02*
X34049553Y-33396385D01*
X34049553Y-33396385D02*
X34116897Y-33396385D01*
X34116897Y-33396385D02*
X34217912Y-33362713D01*
X34217912Y-33362713D02*
X34790332Y-32790293D01*
X35026034Y-33160683D02*
X35093377Y-33160683D01*
X35093377Y-33160683D02*
X35194393Y-33194354D01*
X35194393Y-33194354D02*
X35362751Y-33362713D01*
X35362751Y-33362713D02*
X35396423Y-33463728D01*
X35396423Y-33463728D02*
X35396423Y-33531072D01*
X35396423Y-33531072D02*
X35362751Y-33632087D01*
X35362751Y-33632087D02*
X35295408Y-33699431D01*
X35295408Y-33699431D02*
X35160721Y-33766774D01*
X35160721Y-33766774D02*
X34352599Y-33766774D01*
X34352599Y-33766774D02*
X34790332Y-34204507D01*
X48846666Y-16484819D02*
X48846666Y-17199104D01*
X48846666Y-17199104D02*
X48799047Y-17341961D01*
X48799047Y-17341961D02*
X48703809Y-17437200D01*
X48703809Y-17437200D02*
X48560952Y-17484819D01*
X48560952Y-17484819D02*
X48465714Y-17484819D01*
X49275238Y-16580057D02*
X49322857Y-16532438D01*
X49322857Y-16532438D02*
X49418095Y-16484819D01*
X49418095Y-16484819D02*
X49656190Y-16484819D01*
X49656190Y-16484819D02*
X49751428Y-16532438D01*
X49751428Y-16532438D02*
X49799047Y-16580057D01*
X49799047Y-16580057D02*
X49846666Y-16675295D01*
X49846666Y-16675295D02*
X49846666Y-16770533D01*
X49846666Y-16770533D02*
X49799047Y-16913390D01*
X49799047Y-16913390D02*
X49227619Y-17484819D01*
X49227619Y-17484819D02*
X49846666Y-17484819D01*
D11*
X35972419Y-22745237D02*
X34972419Y-22745237D01*
X35448609Y-22745237D02*
X35448609Y-22173809D01*
X35972419Y-22173809D02*
X34972419Y-22173809D01*
X35924800Y-21316666D02*
X35972419Y-21411904D01*
X35972419Y-21411904D02*
X35972419Y-21602380D01*
X35972419Y-21602380D02*
X35924800Y-21697618D01*
X35924800Y-21697618D02*
X35829561Y-21745237D01*
X35829561Y-21745237D02*
X35448609Y-21745237D01*
X35448609Y-21745237D02*
X35353371Y-21697618D01*
X35353371Y-21697618D02*
X35305752Y-21602380D01*
X35305752Y-21602380D02*
X35305752Y-21411904D01*
X35305752Y-21411904D02*
X35353371Y-21316666D01*
X35353371Y-21316666D02*
X35448609Y-21269047D01*
X35448609Y-21269047D02*
X35543847Y-21269047D01*
X35543847Y-21269047D02*
X35639085Y-21745237D01*
X35972419Y-20411904D02*
X35448609Y-20411904D01*
X35448609Y-20411904D02*
X35353371Y-20459523D01*
X35353371Y-20459523D02*
X35305752Y-20554761D01*
X35305752Y-20554761D02*
X35305752Y-20745237D01*
X35305752Y-20745237D02*
X35353371Y-20840475D01*
X35924800Y-20411904D02*
X35972419Y-20507142D01*
X35972419Y-20507142D02*
X35972419Y-20745237D01*
X35972419Y-20745237D02*
X35924800Y-20840475D01*
X35924800Y-20840475D02*
X35829561Y-20888094D01*
X35829561Y-20888094D02*
X35734323Y-20888094D01*
X35734323Y-20888094D02*
X35639085Y-20840475D01*
X35639085Y-20840475D02*
X35591466Y-20745237D01*
X35591466Y-20745237D02*
X35591466Y-20507142D01*
X35591466Y-20507142D02*
X35543847Y-20411904D01*
X35972419Y-19507142D02*
X34972419Y-19507142D01*
X35924800Y-19507142D02*
X35972419Y-19602380D01*
X35972419Y-19602380D02*
X35972419Y-19792856D01*
X35972419Y-19792856D02*
X35924800Y-19888094D01*
X35924800Y-19888094D02*
X35877180Y-19935713D01*
X35877180Y-19935713D02*
X35781942Y-19983332D01*
X35781942Y-19983332D02*
X35496228Y-19983332D01*
X35496228Y-19983332D02*
X35400990Y-19935713D01*
X35400990Y-19935713D02*
X35353371Y-19888094D01*
X35353371Y-19888094D02*
X35305752Y-19792856D01*
X35305752Y-19792856D02*
X35305752Y-19602380D01*
X35305752Y-19602380D02*
X35353371Y-19507142D01*
X35972419Y-18554761D02*
X35972419Y-19030951D01*
X35972419Y-19030951D02*
X34972419Y-19030951D01*
X35972419Y-18078570D02*
X35924800Y-18173808D01*
X35924800Y-18173808D02*
X35877180Y-18221427D01*
X35877180Y-18221427D02*
X35781942Y-18269046D01*
X35781942Y-18269046D02*
X35496228Y-18269046D01*
X35496228Y-18269046D02*
X35400990Y-18221427D01*
X35400990Y-18221427D02*
X35353371Y-18173808D01*
X35353371Y-18173808D02*
X35305752Y-18078570D01*
X35305752Y-18078570D02*
X35305752Y-17935713D01*
X35305752Y-17935713D02*
X35353371Y-17840475D01*
X35353371Y-17840475D02*
X35400990Y-17792856D01*
X35400990Y-17792856D02*
X35496228Y-17745237D01*
X35496228Y-17745237D02*
X35781942Y-17745237D01*
X35781942Y-17745237D02*
X35877180Y-17792856D01*
X35877180Y-17792856D02*
X35924800Y-17840475D01*
X35924800Y-17840475D02*
X35972419Y-17935713D01*
X35972419Y-17935713D02*
X35972419Y-18078570D01*
X35305752Y-16888094D02*
X36115276Y-16888094D01*
X36115276Y-16888094D02*
X36210514Y-16935713D01*
X36210514Y-16935713D02*
X36258133Y-16983332D01*
X36258133Y-16983332D02*
X36305752Y-17078570D01*
X36305752Y-17078570D02*
X36305752Y-17221427D01*
X36305752Y-17221427D02*
X36258133Y-17316665D01*
X35924800Y-16888094D02*
X35972419Y-16983332D01*
X35972419Y-16983332D02*
X35972419Y-17173808D01*
X35972419Y-17173808D02*
X35924800Y-17269046D01*
X35924800Y-17269046D02*
X35877180Y-17316665D01*
X35877180Y-17316665D02*
X35781942Y-17364284D01*
X35781942Y-17364284D02*
X35496228Y-17364284D01*
X35496228Y-17364284D02*
X35400990Y-17316665D01*
X35400990Y-17316665D02*
X35353371Y-17269046D01*
X35353371Y-17269046D02*
X35305752Y-17173808D01*
X35305752Y-17173808D02*
X35305752Y-16983332D01*
X35305752Y-16983332D02*
X35353371Y-16888094D01*
X35972419Y-16411903D02*
X35305752Y-16411903D01*
X34972419Y-16411903D02*
X35020038Y-16459522D01*
X35020038Y-16459522D02*
X35067657Y-16411903D01*
X35067657Y-16411903D02*
X35020038Y-16364284D01*
X35020038Y-16364284D02*
X34972419Y-16411903D01*
X34972419Y-16411903D02*
X35067657Y-16411903D01*
X35924800Y-15507142D02*
X35972419Y-15602380D01*
X35972419Y-15602380D02*
X35972419Y-15792856D01*
X35972419Y-15792856D02*
X35924800Y-15888094D01*
X35924800Y-15888094D02*
X35877180Y-15935713D01*
X35877180Y-15935713D02*
X35781942Y-15983332D01*
X35781942Y-15983332D02*
X35496228Y-15983332D01*
X35496228Y-15983332D02*
X35400990Y-15935713D01*
X35400990Y-15935713D02*
X35353371Y-15888094D01*
X35353371Y-15888094D02*
X35305752Y-15792856D01*
X35305752Y-15792856D02*
X35305752Y-15602380D01*
X35305752Y-15602380D02*
X35353371Y-15507142D01*
D10*
X54336666Y-36974819D02*
X54336666Y-37689104D01*
X54336666Y-37689104D02*
X54289047Y-37831961D01*
X54289047Y-37831961D02*
X54193809Y-37927200D01*
X54193809Y-37927200D02*
X54050952Y-37974819D01*
X54050952Y-37974819D02*
X53955714Y-37974819D01*
X55289047Y-36974819D02*
X54812857Y-36974819D01*
X54812857Y-36974819D02*
X54765238Y-37451009D01*
X54765238Y-37451009D02*
X54812857Y-37403390D01*
X54812857Y-37403390D02*
X54908095Y-37355771D01*
X54908095Y-37355771D02*
X55146190Y-37355771D01*
X55146190Y-37355771D02*
X55241428Y-37403390D01*
X55241428Y-37403390D02*
X55289047Y-37451009D01*
X55289047Y-37451009D02*
X55336666Y-37546247D01*
X55336666Y-37546247D02*
X55336666Y-37784342D01*
X55336666Y-37784342D02*
X55289047Y-37879580D01*
X55289047Y-37879580D02*
X55241428Y-37927200D01*
X55241428Y-37927200D02*
X55146190Y-37974819D01*
X55146190Y-37974819D02*
X54908095Y-37974819D01*
X54908095Y-37974819D02*
X54812857Y-37927200D01*
X54812857Y-37927200D02*
X54765238Y-37879580D01*
X56863333Y-50664819D02*
X56530000Y-50188628D01*
X56291905Y-50664819D02*
X56291905Y-49664819D01*
X56291905Y-49664819D02*
X56672857Y-49664819D01*
X56672857Y-49664819D02*
X56768095Y-49712438D01*
X56768095Y-49712438D02*
X56815714Y-49760057D01*
X56815714Y-49760057D02*
X56863333Y-49855295D01*
X56863333Y-49855295D02*
X56863333Y-49998152D01*
X56863333Y-49998152D02*
X56815714Y-50093390D01*
X56815714Y-50093390D02*
X56768095Y-50141009D01*
X56768095Y-50141009D02*
X56672857Y-50188628D01*
X56672857Y-50188628D02*
X56291905Y-50188628D01*
X57815714Y-50664819D02*
X57244286Y-50664819D01*
X57530000Y-50664819D02*
X57530000Y-49664819D01*
X57530000Y-49664819D02*
X57434762Y-49807676D01*
X57434762Y-49807676D02*
X57339524Y-49902914D01*
X57339524Y-49902914D02*
X57244286Y-49950533D01*
X46053333Y-37864819D02*
X45720000Y-37388628D01*
X45481905Y-37864819D02*
X45481905Y-36864819D01*
X45481905Y-36864819D02*
X45862857Y-36864819D01*
X45862857Y-36864819D02*
X45958095Y-36912438D01*
X45958095Y-36912438D02*
X46005714Y-36960057D01*
X46005714Y-36960057D02*
X46053333Y-37055295D01*
X46053333Y-37055295D02*
X46053333Y-37198152D01*
X46053333Y-37198152D02*
X46005714Y-37293390D01*
X46005714Y-37293390D02*
X45958095Y-37341009D01*
X45958095Y-37341009D02*
X45862857Y-37388628D01*
X45862857Y-37388628D02*
X45481905Y-37388628D01*
X46434286Y-36960057D02*
X46481905Y-36912438D01*
X46481905Y-36912438D02*
X46577143Y-36864819D01*
X46577143Y-36864819D02*
X46815238Y-36864819D01*
X46815238Y-36864819D02*
X46910476Y-36912438D01*
X46910476Y-36912438D02*
X46958095Y-36960057D01*
X46958095Y-36960057D02*
X47005714Y-37055295D01*
X47005714Y-37055295D02*
X47005714Y-37150533D01*
X47005714Y-37150533D02*
X46958095Y-37293390D01*
X46958095Y-37293390D02*
X46386667Y-37864819D01*
X46386667Y-37864819D02*
X47005714Y-37864819D01*
X52836666Y-30274819D02*
X52836666Y-30989104D01*
X52836666Y-30989104D02*
X52789047Y-31131961D01*
X52789047Y-31131961D02*
X52693809Y-31227200D01*
X52693809Y-31227200D02*
X52550952Y-31274819D01*
X52550952Y-31274819D02*
X52455714Y-31274819D01*
X53217619Y-30274819D02*
X53884285Y-30274819D01*
X53884285Y-30274819D02*
X53455714Y-31274819D01*
X30336666Y-16574819D02*
X30336666Y-17289104D01*
X30336666Y-17289104D02*
X30289047Y-17431961D01*
X30289047Y-17431961D02*
X30193809Y-17527200D01*
X30193809Y-17527200D02*
X30050952Y-17574819D01*
X30050952Y-17574819D02*
X29955714Y-17574819D01*
X30955714Y-17003390D02*
X30860476Y-16955771D01*
X30860476Y-16955771D02*
X30812857Y-16908152D01*
X30812857Y-16908152D02*
X30765238Y-16812914D01*
X30765238Y-16812914D02*
X30765238Y-16765295D01*
X30765238Y-16765295D02*
X30812857Y-16670057D01*
X30812857Y-16670057D02*
X30860476Y-16622438D01*
X30860476Y-16622438D02*
X30955714Y-16574819D01*
X30955714Y-16574819D02*
X31146190Y-16574819D01*
X31146190Y-16574819D02*
X31241428Y-16622438D01*
X31241428Y-16622438D02*
X31289047Y-16670057D01*
X31289047Y-16670057D02*
X31336666Y-16765295D01*
X31336666Y-16765295D02*
X31336666Y-16812914D01*
X31336666Y-16812914D02*
X31289047Y-16908152D01*
X31289047Y-16908152D02*
X31241428Y-16955771D01*
X31241428Y-16955771D02*
X31146190Y-17003390D01*
X31146190Y-17003390D02*
X30955714Y-17003390D01*
X30955714Y-17003390D02*
X30860476Y-17051009D01*
X30860476Y-17051009D02*
X30812857Y-17098628D01*
X30812857Y-17098628D02*
X30765238Y-17193866D01*
X30765238Y-17193866D02*
X30765238Y-17384342D01*
X30765238Y-17384342D02*
X30812857Y-17479580D01*
X30812857Y-17479580D02*
X30860476Y-17527200D01*
X30860476Y-17527200D02*
X30955714Y-17574819D01*
X30955714Y-17574819D02*
X31146190Y-17574819D01*
X31146190Y-17574819D02*
X31241428Y-17527200D01*
X31241428Y-17527200D02*
X31289047Y-17479580D01*
X31289047Y-17479580D02*
X31336666Y-17384342D01*
X31336666Y-17384342D02*
X31336666Y-17193866D01*
X31336666Y-17193866D02*
X31289047Y-17098628D01*
X31289047Y-17098628D02*
X31241428Y-17051009D01*
X31241428Y-17051009D02*
X31146190Y-17003390D01*
X55436666Y-43874819D02*
X55436666Y-44589104D01*
X55436666Y-44589104D02*
X55389047Y-44731961D01*
X55389047Y-44731961D02*
X55293809Y-44827200D01*
X55293809Y-44827200D02*
X55150952Y-44874819D01*
X55150952Y-44874819D02*
X55055714Y-44874819D01*
X56341428Y-44208152D02*
X56341428Y-44874819D01*
X56103333Y-43827200D02*
X55865238Y-44541485D01*
X55865238Y-44541485D02*
X56484285Y-44541485D01*
X42266271Y-41136232D02*
X41693851Y-41708652D01*
X41693851Y-41708652D02*
X41660179Y-41809667D01*
X41660179Y-41809667D02*
X41660179Y-41877011D01*
X41660179Y-41877011D02*
X41693851Y-41978026D01*
X41693851Y-41978026D02*
X41828538Y-42112713D01*
X41828538Y-42112713D02*
X41929553Y-42146385D01*
X41929553Y-42146385D02*
X41996897Y-42146385D01*
X41996897Y-42146385D02*
X42097912Y-42112713D01*
X42097912Y-42112713D02*
X42670332Y-41540293D01*
X42670332Y-42954507D02*
X42266271Y-42550446D01*
X42468301Y-42752476D02*
X43175408Y-42045370D01*
X43175408Y-42045370D02*
X43007049Y-42079041D01*
X43007049Y-42079041D02*
X42872362Y-42079041D01*
X42872362Y-42079041D02*
X42771347Y-42045370D01*
X21953333Y-17004819D02*
X21620000Y-16528628D01*
X21381905Y-17004819D02*
X21381905Y-16004819D01*
X21381905Y-16004819D02*
X21762857Y-16004819D01*
X21762857Y-16004819D02*
X21858095Y-16052438D01*
X21858095Y-16052438D02*
X21905714Y-16100057D01*
X21905714Y-16100057D02*
X21953333Y-16195295D01*
X21953333Y-16195295D02*
X21953333Y-16338152D01*
X21953333Y-16338152D02*
X21905714Y-16433390D01*
X21905714Y-16433390D02*
X21858095Y-16481009D01*
X21858095Y-16481009D02*
X21762857Y-16528628D01*
X21762857Y-16528628D02*
X21381905Y-16528628D01*
X22429524Y-17004819D02*
X22620000Y-17004819D01*
X22620000Y-17004819D02*
X22715238Y-16957200D01*
X22715238Y-16957200D02*
X22762857Y-16909580D01*
X22762857Y-16909580D02*
X22858095Y-16766723D01*
X22858095Y-16766723D02*
X22905714Y-16576247D01*
X22905714Y-16576247D02*
X22905714Y-16195295D01*
X22905714Y-16195295D02*
X22858095Y-16100057D01*
X22858095Y-16100057D02*
X22810476Y-16052438D01*
X22810476Y-16052438D02*
X22715238Y-16004819D01*
X22715238Y-16004819D02*
X22524762Y-16004819D01*
X22524762Y-16004819D02*
X22429524Y-16052438D01*
X22429524Y-16052438D02*
X22381905Y-16100057D01*
X22381905Y-16100057D02*
X22334286Y-16195295D01*
X22334286Y-16195295D02*
X22334286Y-16433390D01*
X22334286Y-16433390D02*
X22381905Y-16528628D01*
X22381905Y-16528628D02*
X22429524Y-16576247D01*
X22429524Y-16576247D02*
X22524762Y-16623866D01*
X22524762Y-16623866D02*
X22715238Y-16623866D01*
X22715238Y-16623866D02*
X22810476Y-16576247D01*
X22810476Y-16576247D02*
X22858095Y-16528628D01*
X22858095Y-16528628D02*
X22905714Y-16433390D01*
X46603333Y-46709580D02*
X46555714Y-46757200D01*
X46555714Y-46757200D02*
X46412857Y-46804819D01*
X46412857Y-46804819D02*
X46317619Y-46804819D01*
X46317619Y-46804819D02*
X46174762Y-46757200D01*
X46174762Y-46757200D02*
X46079524Y-46661961D01*
X46079524Y-46661961D02*
X46031905Y-46566723D01*
X46031905Y-46566723D02*
X45984286Y-46376247D01*
X45984286Y-46376247D02*
X45984286Y-46233390D01*
X45984286Y-46233390D02*
X46031905Y-46042914D01*
X46031905Y-46042914D02*
X46079524Y-45947676D01*
X46079524Y-45947676D02*
X46174762Y-45852438D01*
X46174762Y-45852438D02*
X46317619Y-45804819D01*
X46317619Y-45804819D02*
X46412857Y-45804819D01*
X46412857Y-45804819D02*
X46555714Y-45852438D01*
X46555714Y-45852438D02*
X46603333Y-45900057D01*
X47555714Y-46804819D02*
X46984286Y-46804819D01*
X47270000Y-46804819D02*
X47270000Y-45804819D01*
X47270000Y-45804819D02*
X47174762Y-45947676D01*
X47174762Y-45947676D02*
X47079524Y-46042914D01*
X47079524Y-46042914D02*
X46984286Y-46090533D01*
D12*
X31040000Y-52770000D02*
X31040000Y-54020000D01*
X31330000Y-53060000D02*
X31330000Y-59030000D01*
X31330000Y-59030000D02*
X51450000Y-59030000D01*
X31340000Y-53070000D02*
X31340000Y-53820000D01*
X31340000Y-53820000D02*
X33140000Y-53820000D01*
X31340000Y-55320000D02*
X32090000Y-55320000D01*
X32090000Y-55320000D02*
X32090000Y-58270000D01*
X32090000Y-58270000D02*
X41390000Y-58270000D01*
X32290000Y-52770000D02*
X31040000Y-52770000D01*
X33140000Y-53070000D02*
X31340000Y-53070000D01*
X33140000Y-53820000D02*
X33140000Y-53070000D01*
X34640000Y-53070000D02*
X34640000Y-53820000D01*
X34640000Y-53820000D02*
X48140000Y-53820000D01*
X48140000Y-53070000D02*
X34640000Y-53070000D01*
X48140000Y-53820000D02*
X48140000Y-53070000D01*
X49640000Y-53070000D02*
X49640000Y-53820000D01*
X49640000Y-53820000D02*
X51440000Y-53820000D01*
X50690000Y-55320000D02*
X50690000Y-58270000D01*
X50690000Y-58270000D02*
X41390000Y-58270000D01*
X51440000Y-53070000D02*
X49640000Y-53070000D01*
X51440000Y-53820000D02*
X51440000Y-53070000D01*
X51440000Y-55320000D02*
X50690000Y-55320000D01*
X51450000Y-53060000D02*
X31330000Y-53060000D01*
X51450000Y-59030000D02*
X51450000Y-53060000D01*
X54240000Y-28580000D02*
X54240000Y-27330000D01*
X53950000Y-28290000D02*
X53950000Y-22320000D01*
X53950000Y-22320000D02*
X38830000Y-22320000D01*
X53940000Y-28280000D02*
X53940000Y-27530000D01*
X53940000Y-27530000D02*
X52140000Y-27530000D01*
X53940000Y-26030000D02*
X53190000Y-26030000D01*
X53190000Y-26030000D02*
X53190000Y-23080000D01*
X53190000Y-23080000D02*
X46390000Y-23080000D01*
X52990000Y-28580000D02*
X54240000Y-28580000D01*
X52140000Y-28280000D02*
X53940000Y-28280000D01*
X52140000Y-27530000D02*
X52140000Y-28280000D01*
X50640000Y-28280000D02*
X50640000Y-27530000D01*
X50640000Y-27530000D02*
X42140000Y-27530000D01*
X42140000Y-28280000D02*
X50640000Y-28280000D01*
X42140000Y-27530000D02*
X42140000Y-28280000D01*
X40640000Y-28280000D02*
X40640000Y-27530000D01*
X40640000Y-27530000D02*
X38840000Y-27530000D01*
X39590000Y-26030000D02*
X39590000Y-23080000D01*
X39590000Y-23080000D02*
X46390000Y-23080000D01*
X38840000Y-28280000D02*
X40640000Y-28280000D01*
X38840000Y-27530000D02*
X38840000Y-28280000D01*
X38840000Y-26030000D02*
X39590000Y-26030000D01*
X38830000Y-28290000D02*
X53950000Y-28290000D01*
X38830000Y-22320000D02*
X38830000Y-28290000D01*
X39574457Y-35074990D02*
X39204990Y-35444457D01*
X38535010Y-34035543D02*
X38165543Y-34405010D01*
X59530000Y-67360000D02*
X59530000Y-66110000D01*
X59240000Y-67070000D02*
X59240000Y-61100000D01*
X59240000Y-61100000D02*
X36620000Y-61100000D01*
X59230000Y-67060000D02*
X59230000Y-66310000D01*
X59230000Y-66310000D02*
X57430000Y-66310000D01*
X59230000Y-64810000D02*
X58480000Y-64810000D01*
X58480000Y-64810000D02*
X58480000Y-61860000D01*
X58480000Y-61860000D02*
X47930000Y-61860000D01*
X58280000Y-67360000D02*
X59530000Y-67360000D01*
X57430000Y-67060000D02*
X59230000Y-67060000D01*
X57430000Y-66310000D02*
X57430000Y-67060000D01*
X55930000Y-67060000D02*
X55930000Y-66310000D01*
X55930000Y-66310000D02*
X39930000Y-66310000D01*
X39930000Y-67060000D02*
X55930000Y-67060000D01*
X39930000Y-66310000D02*
X39930000Y-67060000D01*
X38430000Y-67060000D02*
X38430000Y-66310000D01*
X38430000Y-66310000D02*
X36630000Y-66310000D01*
X37380000Y-64810000D02*
X37380000Y-61860000D01*
X37380000Y-61860000D02*
X47930000Y-61860000D01*
X36630000Y-67060000D02*
X38430000Y-67060000D01*
X36630000Y-66310000D02*
X36630000Y-67060000D01*
X36630000Y-64810000D02*
X37380000Y-64810000D01*
X36620000Y-67070000D02*
X59240000Y-67070000D01*
X36620000Y-61100000D02*
X36620000Y-67070000D01*
X45895000Y-31867064D02*
X45895000Y-31412936D01*
X47365000Y-31867064D02*
X47365000Y-31412936D01*
X34033937Y-33816063D02*
X31488353Y-31270479D01*
X34033937Y-33816063D02*
X35589572Y-35371698D01*
X30166063Y-37683937D02*
X28610428Y-36128302D01*
X30166063Y-37683937D02*
X31721698Y-39239572D01*
X52030000Y-21780000D02*
X52030000Y-20530000D01*
X51740000Y-21490000D02*
X51740000Y-15520000D01*
X51740000Y-15520000D02*
X36620000Y-15520000D01*
X51730000Y-21480000D02*
X51730000Y-20730000D01*
X51730000Y-20730000D02*
X49930000Y-20730000D01*
X51730000Y-19230000D02*
X50980000Y-19230000D01*
X50980000Y-19230000D02*
X50980000Y-16280000D01*
X50980000Y-16280000D02*
X44180000Y-16280000D01*
X50780000Y-21780000D02*
X52030000Y-21780000D01*
X49930000Y-21480000D02*
X51730000Y-21480000D01*
X49930000Y-20730000D02*
X49930000Y-21480000D01*
X48430000Y-21480000D02*
X48430000Y-20730000D01*
X48430000Y-20730000D02*
X39930000Y-20730000D01*
X39930000Y-21480000D02*
X48430000Y-21480000D01*
X39930000Y-20730000D02*
X39930000Y-21480000D01*
X38430000Y-21480000D02*
X38430000Y-20730000D01*
X38430000Y-20730000D02*
X36630000Y-20730000D01*
X37380000Y-19230000D02*
X37380000Y-16280000D01*
X37380000Y-16280000D02*
X44180000Y-16280000D01*
X36630000Y-21480000D02*
X38430000Y-21480000D01*
X36630000Y-20730000D02*
X36630000Y-21480000D01*
X36630000Y-19230000D02*
X37380000Y-19230000D01*
X36620000Y-21490000D02*
X51740000Y-21490000D01*
X36620000Y-15520000D02*
X36620000Y-21490000D01*
X57480000Y-42190000D02*
X57480000Y-40940000D01*
X57190000Y-41900000D02*
X57190000Y-35930000D01*
X57190000Y-35930000D02*
X49570000Y-35930000D01*
X57180000Y-41890000D02*
X57180000Y-41140000D01*
X57180000Y-41140000D02*
X55380000Y-41140000D01*
X57180000Y-39640000D02*
X56430000Y-39640000D01*
X56430000Y-39640000D02*
X56430000Y-36690000D01*
X56430000Y-36690000D02*
X53380000Y-36690000D01*
X56230000Y-42190000D02*
X57480000Y-42190000D01*
X55380000Y-41890000D02*
X57180000Y-41890000D01*
X55380000Y-41140000D02*
X55380000Y-41890000D01*
X53880000Y-41890000D02*
X53880000Y-41140000D01*
X53880000Y-41140000D02*
X52880000Y-41140000D01*
X52880000Y-41890000D02*
X53880000Y-41890000D01*
X52880000Y-41140000D02*
X52880000Y-41890000D01*
X51380000Y-41890000D02*
X51380000Y-41140000D01*
X51380000Y-41140000D02*
X49580000Y-41140000D01*
X50330000Y-39640000D02*
X50330000Y-36690000D01*
X50330000Y-36690000D02*
X53380000Y-36690000D01*
X49580000Y-41890000D02*
X51380000Y-41890000D01*
X49580000Y-41140000D02*
X49580000Y-41890000D01*
X49580000Y-39640000D02*
X50330000Y-39640000D01*
X49570000Y-41900000D02*
X57190000Y-41900000D01*
X49570000Y-35930000D02*
X49570000Y-41900000D01*
X53972936Y-49365000D02*
X54427064Y-49365000D01*
X53972936Y-50835000D02*
X54427064Y-50835000D01*
X47405000Y-37647064D02*
X47405000Y-37192936D01*
X48875000Y-37647064D02*
X48875000Y-37192936D01*
X56010000Y-35390000D02*
X56010000Y-34140000D01*
X55720000Y-35100000D02*
X55720000Y-29130000D01*
X55720000Y-29130000D02*
X48100000Y-29130000D01*
X55710000Y-35090000D02*
X55710000Y-34340000D01*
X55710000Y-34340000D02*
X53910000Y-34340000D01*
X55710000Y-32840000D02*
X54960000Y-32840000D01*
X54960000Y-32840000D02*
X54960000Y-29890000D01*
X54960000Y-29890000D02*
X51910000Y-29890000D01*
X54760000Y-35390000D02*
X56010000Y-35390000D01*
X53910000Y-35090000D02*
X55710000Y-35090000D01*
X53910000Y-34340000D02*
X53910000Y-35090000D01*
X52410000Y-35090000D02*
X52410000Y-34340000D01*
X52410000Y-34340000D02*
X51410000Y-34340000D01*
X51410000Y-35090000D02*
X52410000Y-35090000D01*
X51410000Y-34340000D02*
X51410000Y-35090000D01*
X49910000Y-35090000D02*
X49910000Y-34340000D01*
X49910000Y-34340000D02*
X48110000Y-34340000D01*
X48860000Y-32840000D02*
X48860000Y-29890000D01*
X48860000Y-29890000D02*
X51910000Y-29890000D01*
X48110000Y-35090000D02*
X49910000Y-35090000D01*
X48110000Y-34340000D02*
X48110000Y-35090000D01*
X48110000Y-32840000D02*
X48860000Y-32840000D01*
X48100000Y-35100000D02*
X55720000Y-35100000D01*
X48100000Y-29130000D02*
X48100000Y-35100000D01*
X33550000Y-21785000D02*
X33550000Y-20535000D01*
X33260000Y-21495000D02*
X33260000Y-15525000D01*
X33260000Y-15525000D02*
X25640000Y-15525000D01*
X33250000Y-21485000D02*
X33250000Y-20735000D01*
X33250000Y-20735000D02*
X31450000Y-20735000D01*
X33250000Y-19235000D02*
X32500000Y-19235000D01*
X32500000Y-19235000D02*
X32500000Y-16285000D01*
X32500000Y-16285000D02*
X29450000Y-16285000D01*
X32300000Y-21785000D02*
X33550000Y-21785000D01*
X31450000Y-21485000D02*
X33250000Y-21485000D01*
X31450000Y-20735000D02*
X31450000Y-21485000D01*
X29950000Y-21485000D02*
X29950000Y-20735000D01*
X29950000Y-20735000D02*
X28950000Y-20735000D01*
X28950000Y-21485000D02*
X29950000Y-21485000D01*
X28950000Y-20735000D02*
X28950000Y-21485000D01*
X27450000Y-21485000D02*
X27450000Y-20735000D01*
X27450000Y-20735000D02*
X25650000Y-20735000D01*
X26400000Y-19235000D02*
X26400000Y-16285000D01*
X26400000Y-16285000D02*
X29450000Y-16285000D01*
X25650000Y-21485000D02*
X27450000Y-21485000D01*
X25650000Y-20735000D02*
X25650000Y-21485000D01*
X25650000Y-19235000D02*
X26400000Y-19235000D01*
X25640000Y-21495000D02*
X33260000Y-21495000D01*
X25640000Y-15525000D02*
X25640000Y-21495000D01*
X58550000Y-49000000D02*
X58550000Y-47750000D01*
X58260000Y-48710000D02*
X58260000Y-42740000D01*
X58260000Y-42740000D02*
X50640000Y-42740000D01*
X58250000Y-48700000D02*
X58250000Y-47950000D01*
X58250000Y-47950000D02*
X56450000Y-47950000D01*
X58250000Y-46450000D02*
X57500000Y-46450000D01*
X57500000Y-46450000D02*
X57500000Y-43500000D01*
X57500000Y-43500000D02*
X54450000Y-43500000D01*
X57300000Y-49000000D02*
X58550000Y-49000000D01*
X56450000Y-48700000D02*
X58250000Y-48700000D01*
X56450000Y-47950000D02*
X56450000Y-48700000D01*
X54950000Y-48700000D02*
X54950000Y-47950000D01*
X54950000Y-47950000D02*
X53950000Y-47950000D01*
X53950000Y-48700000D02*
X54950000Y-48700000D01*
X53950000Y-47950000D02*
X53950000Y-48700000D01*
X52450000Y-48700000D02*
X52450000Y-47950000D01*
X52450000Y-47950000D02*
X50650000Y-47950000D01*
X51400000Y-46450000D02*
X51400000Y-43500000D01*
X51400000Y-43500000D02*
X54450000Y-43500000D01*
X50650000Y-48700000D02*
X52450000Y-48700000D01*
X50650000Y-47950000D02*
X50650000Y-48700000D01*
X50650000Y-46450000D02*
X51400000Y-46450000D01*
X50640000Y-48710000D02*
X58260000Y-48710000D01*
X50640000Y-42740000D02*
X50640000Y-48710000D01*
X41913937Y-42566063D02*
X39368353Y-40020479D01*
X41913937Y-42566063D02*
X43469572Y-44121698D01*
X38046063Y-46433937D02*
X36490428Y-44878302D01*
X38046063Y-46433937D02*
X39601698Y-47989572D01*
X23405000Y-18237064D02*
X23405000Y-17782936D01*
X24875000Y-18237064D02*
X24875000Y-17782936D01*
X45865010Y-44514457D02*
X45495543Y-44144990D01*
X46904457Y-43475010D02*
X46534990Y-43105543D01*
%LPC*%
D13*
X33890000Y-55520000D03*
D14*
X36390000Y-55520000D03*
X38890000Y-55520000D03*
X41390000Y-55520000D03*
X43890000Y-55520000D03*
X46390000Y-55520000D03*
X48890000Y-55520000D03*
D15*
X51390000Y-25830000D03*
D14*
X48890000Y-25830000D03*
X46390000Y-25830000D03*
X43890000Y-25830000D03*
X41390000Y-25830000D03*
D16*
X30930000Y-24390000D03*
D17*
X39603623Y-34006377D03*
X38136377Y-35473623D03*
D16*
X56310000Y-56850000D03*
D15*
X56680000Y-64610000D03*
D14*
X54180000Y-64610000D03*
X51680000Y-64610000D03*
X49180000Y-64610000D03*
X46680000Y-64610000D03*
X44180000Y-64610000D03*
X41680000Y-64610000D03*
X39180000Y-64610000D03*
D18*
X46630000Y-32640000D03*
X46630000Y-30640000D03*
D19*
X31684575Y-32117239D03*
X31224955Y-32576858D03*
X30765336Y-33036478D03*
X30305717Y-33496097D03*
X29846097Y-33955717D03*
X29386478Y-34415336D03*
X28926858Y-34874955D03*
X28467239Y-35334575D03*
X32515425Y-39382761D03*
X32975045Y-38923142D03*
X33434664Y-38463522D03*
X33894283Y-38003903D03*
X34353903Y-37544283D03*
X34813522Y-37084664D03*
X35273142Y-36625045D03*
X35732761Y-36165425D03*
D15*
X49180000Y-19030000D03*
D14*
X46680000Y-19030000D03*
X44180000Y-19030000D03*
X41680000Y-19030000D03*
X39180000Y-19030000D03*
D20*
X54630000Y-39440000D03*
D21*
X52130000Y-39440000D03*
D22*
X53200000Y-50100000D03*
X55200000Y-50100000D03*
D18*
X48140000Y-38420000D03*
X48140000Y-36420000D03*
D20*
X53160000Y-32640000D03*
D21*
X50660000Y-32640000D03*
D20*
X30700000Y-19035000D03*
D21*
X28200000Y-19035000D03*
D20*
X55700000Y-46250000D03*
D21*
X53200000Y-46250000D03*
D19*
X39564575Y-40867239D03*
X39104955Y-41326858D03*
X38645336Y-41786478D03*
X38185717Y-42246097D03*
X37726097Y-42705717D03*
X37266478Y-43165336D03*
X36806858Y-43624955D03*
X36347239Y-44084575D03*
X40395425Y-48132761D03*
X40855045Y-47673142D03*
X41314664Y-47213522D03*
X41774283Y-46753903D03*
X42233903Y-46294283D03*
X42693522Y-45834664D03*
X43153142Y-45375045D03*
X43612761Y-44915425D03*
D18*
X24140000Y-19010000D03*
X24140000Y-17010000D03*
D23*
X46933623Y-44543623D03*
X45466377Y-43076377D03*
%LPD*%
M02*
