%TF.GenerationSoftware,KiCad,Pcbnew,7.0.6*%
%TF.CreationDate,2023-07-13T14:38:49+02:00*%
%TF.ProjectId,RH_GripLogicBoard_FreeJoy,52485f47-7269-4704-9c6f-676963426f61,rev?*%
%TF.SameCoordinates,Original*%
%TF.FileFunction,Copper,L1,Top*%
%TF.FilePolarity,Positive*%
%FSLAX46Y46*%
G04 Gerber Fmt 4.6, Leading zero omitted, Abs format (unit mm)*
G04 Created by KiCad (PCBNEW 7.0.6) date 2023-07-13 14:38:49*
%MOMM*%
%LPD*%
G01*
G04 APERTURE LIST*
G04 Aperture macros list*
%AMRoundRect*
0 Rectangle with rounded corners*
0 $1 Rounding radius*
0 $2 $3 $4 $5 $6 $7 $8 $9 X,Y pos of 4 corners*
0 Add a 4 corners polygon primitive as box body*
4,1,4,$2,$3,$4,$5,$6,$7,$8,$9,$2,$3,0*
0 Add four circle primitives for the rounded corners*
1,1,$1+$1,$2,$3*
1,1,$1+$1,$4,$5*
1,1,$1+$1,$6,$7*
1,1,$1+$1,$8,$9*
0 Add four rect primitives between the rounded corners*
20,1,$1+$1,$2,$3,$4,$5,0*
20,1,$1+$1,$4,$5,$6,$7,0*
20,1,$1+$1,$6,$7,$8,$9,0*
20,1,$1+$1,$8,$9,$2,$3,0*%
G04 Aperture macros list end*
%TA.AperFunction,ComponentPad*%
%ADD10RoundRect,0.250000X-0.600000X-0.725000X0.600000X-0.725000X0.600000X0.725000X-0.600000X0.725000X0*%
%TD*%
%TA.AperFunction,ComponentPad*%
%ADD11O,1.700000X1.950000*%
%TD*%
%TA.AperFunction,ComponentPad*%
%ADD12RoundRect,0.250000X0.600000X0.725000X-0.600000X0.725000X-0.600000X-0.725000X0.600000X-0.725000X0*%
%TD*%
%TA.AperFunction,SMDPad,CuDef*%
%ADD13RoundRect,0.250000X-0.097227X0.574524X-0.574524X0.097227X0.097227X-0.574524X0.574524X-0.097227X0*%
%TD*%
%TA.AperFunction,SMDPad,CuDef*%
%ADD14RoundRect,0.250000X0.450000X-0.350000X0.450000X0.350000X-0.450000X0.350000X-0.450000X-0.350000X0*%
%TD*%
%TA.AperFunction,SMDPad,CuDef*%
%ADD15RoundRect,0.100000X-0.521491X0.380070X0.380070X-0.521491X0.521491X-0.380070X-0.380070X0.521491X0*%
%TD*%
%TA.AperFunction,ComponentPad*%
%ADD16RoundRect,0.250000X0.600000X0.750000X-0.600000X0.750000X-0.600000X-0.750000X0.600000X-0.750000X0*%
%TD*%
%TA.AperFunction,ComponentPad*%
%ADD17O,1.700000X2.000000*%
%TD*%
%TA.AperFunction,SMDPad,CuDef*%
%ADD18RoundRect,0.250000X-0.350000X-0.450000X0.350000X-0.450000X0.350000X0.450000X-0.350000X0.450000X0*%
%TD*%
%TA.AperFunction,SMDPad,CuDef*%
%ADD19RoundRect,0.250000X0.574524X0.097227X0.097227X0.574524X-0.574524X-0.097227X-0.097227X-0.574524X0*%
%TD*%
%TA.AperFunction,ViaPad*%
%ADD20C,0.800000*%
%TD*%
%TA.AperFunction,ViaPad*%
%ADD21C,0.500000*%
%TD*%
%TA.AperFunction,Conductor*%
%ADD22C,0.500000*%
%TD*%
%TA.AperFunction,Conductor*%
%ADD23C,0.250000*%
%TD*%
G04 APERTURE END LIST*
D10*
X33890000Y-55520000D03*
D11*
X36390000Y-55520000D03*
X38890000Y-55520000D03*
X41390000Y-55520000D03*
X43890000Y-55520000D03*
X46390000Y-55520000D03*
X48890000Y-55520000D03*
D12*
X51390000Y-25830000D03*
D11*
X48890000Y-25830000D03*
X46390000Y-25830000D03*
X43890000Y-25830000D03*
X41390000Y-25830000D03*
D13*
X39603623Y-34006377D03*
X38136377Y-35473623D03*
D12*
X56680000Y-64610000D03*
D11*
X54180000Y-64610000D03*
X51680000Y-64610000D03*
X49180000Y-64610000D03*
X46680000Y-64610000D03*
X44180000Y-64610000D03*
X41680000Y-64610000D03*
X39180000Y-64610000D03*
D14*
X46630000Y-32640000D03*
X46630000Y-30640000D03*
D15*
X31684575Y-32117239D03*
X31224955Y-32576858D03*
X30765336Y-33036478D03*
X30305717Y-33496097D03*
X29846097Y-33955717D03*
X29386478Y-34415336D03*
X28926858Y-34874955D03*
X28467239Y-35334575D03*
X32515425Y-39382761D03*
X32975045Y-38923142D03*
X33434664Y-38463522D03*
X33894283Y-38003903D03*
X34353903Y-37544283D03*
X34813522Y-37084664D03*
X35273142Y-36625045D03*
X35732761Y-36165425D03*
D12*
X49180000Y-19030000D03*
D11*
X46680000Y-19030000D03*
X44180000Y-19030000D03*
X41680000Y-19030000D03*
X39180000Y-19030000D03*
D16*
X54630000Y-39440000D03*
D17*
X52130000Y-39440000D03*
D18*
X53200000Y-50100000D03*
X55200000Y-50100000D03*
D14*
X48140000Y-38420000D03*
X48140000Y-36420000D03*
D16*
X53160000Y-32640000D03*
D17*
X50660000Y-32640000D03*
D16*
X30700000Y-19035000D03*
D17*
X28200000Y-19035000D03*
D16*
X55700000Y-46250000D03*
D17*
X53200000Y-46250000D03*
D15*
X39564575Y-40867239D03*
X39104955Y-41326858D03*
X38645336Y-41786478D03*
X38185717Y-42246097D03*
X37726097Y-42705717D03*
X37266478Y-43165336D03*
X36806858Y-43624955D03*
X36347239Y-44084575D03*
X40395425Y-48132761D03*
X40855045Y-47673142D03*
X41314664Y-47213522D03*
X41774283Y-46753903D03*
X42233903Y-46294283D03*
X42693522Y-45834664D03*
X43153142Y-45375045D03*
X43612761Y-44915425D03*
D14*
X24140000Y-19010000D03*
X24140000Y-17010000D03*
D19*
X46933623Y-44543623D03*
X45466377Y-43076377D03*
D20*
X48920000Y-48020000D03*
X37770000Y-29620000D03*
D21*
X27930000Y-22810000D03*
X55230000Y-50090000D03*
D20*
X41370000Y-40620000D03*
D21*
X32595500Y-33970000D03*
X38190000Y-40410000D03*
D20*
X29620000Y-30070000D03*
D21*
X49042639Y-45111342D03*
X38958645Y-42970344D03*
X48890885Y-45794185D03*
X38651288Y-43598703D03*
X48500323Y-46374500D03*
X38020000Y-43900000D03*
X39860000Y-46730000D03*
X33810000Y-40680000D03*
D22*
X54180000Y-64610000D02*
X52020000Y-66770000D01*
X36424563Y-35473623D02*
X35732761Y-36165425D01*
X56250000Y-46800000D02*
X55700000Y-46250000D01*
X48890000Y-25830000D02*
X48890000Y-23340000D01*
X30700000Y-18290000D02*
X30700000Y-19035000D01*
X46680000Y-18030000D02*
X45220000Y-16570000D01*
X45220000Y-16570000D02*
X32420000Y-16570000D01*
X48890000Y-26686827D02*
X48890000Y-25830000D01*
X38136377Y-35473623D02*
X35745000Y-33082246D01*
X56250000Y-50839949D02*
X56250000Y-46800000D01*
X35370000Y-32707246D02*
X35370000Y-24720000D01*
X54180000Y-52909949D02*
X56250000Y-50839949D01*
X53160000Y-32640000D02*
X53160000Y-30956827D01*
X55700000Y-40510000D02*
X54630000Y-39440000D01*
X48890000Y-23340000D02*
X46680000Y-21130000D01*
X32420000Y-16570000D02*
X30700000Y-18290000D01*
X30700000Y-20050000D02*
X30700000Y-19035000D01*
X53160000Y-30956827D02*
X48890000Y-26686827D01*
X54180000Y-64610000D02*
X54180000Y-52909949D01*
X38420000Y-66770000D02*
X36390000Y-64740000D01*
X52020000Y-66770000D02*
X38420000Y-66770000D01*
X45466377Y-43076377D02*
X45451809Y-43076377D01*
X46680000Y-21130000D02*
X46680000Y-19030000D01*
X54630000Y-39440000D02*
X54630000Y-34110000D01*
X45466377Y-42803623D02*
X38136377Y-35473623D01*
X36390000Y-64740000D02*
X36390000Y-55520000D01*
X38136377Y-35473623D02*
X36424563Y-35473623D01*
X35370000Y-24720000D02*
X30700000Y-20050000D01*
X45466377Y-43076377D02*
X45466377Y-42803623D01*
X46680000Y-19030000D02*
X46680000Y-18030000D01*
X35745000Y-33082246D02*
X35370000Y-32707246D01*
X55700000Y-46250000D02*
X55700000Y-40510000D01*
X54630000Y-34110000D02*
X53160000Y-32640000D01*
X45451809Y-43076377D02*
X43612761Y-44915425D01*
D23*
X33671903Y-39620000D02*
X34170000Y-39620000D01*
X30070000Y-35098859D02*
X29381174Y-34410033D01*
X30765336Y-33036478D02*
X30305717Y-33496097D01*
X35273142Y-36625045D02*
X35275045Y-36625045D01*
X30305717Y-33496097D02*
X29846097Y-33955717D01*
X34170000Y-39620000D02*
X34570000Y-39220000D01*
X34570000Y-38679619D02*
X33899587Y-38009206D01*
X29846097Y-33955717D02*
X29386478Y-34415336D01*
X29570000Y-35970000D02*
X30070000Y-35470000D01*
X30070000Y-35470000D02*
X30070000Y-35098859D01*
X29102665Y-35970000D02*
X29570000Y-35970000D01*
X32980348Y-38928445D02*
X33671903Y-39620000D01*
X34570000Y-39220000D02*
X34570000Y-38679619D01*
X28461936Y-35329271D02*
X29102665Y-35970000D01*
X32595500Y-33970000D02*
X32595500Y-33947403D01*
X44180000Y-23620000D02*
X46390000Y-25830000D01*
X39099652Y-41319652D02*
X38190000Y-40410000D01*
X44180000Y-19030000D02*
X44180000Y-23620000D01*
X39099652Y-41321555D02*
X39099652Y-41319652D01*
X32595500Y-33947403D02*
X31219652Y-32571555D01*
X36370000Y-39520000D02*
X33920000Y-41970000D01*
X39559271Y-40861936D02*
X38217335Y-39520000D01*
X43970000Y-61900000D02*
X43270000Y-61900000D01*
X33170000Y-33602665D02*
X33170000Y-35470000D01*
X29637335Y-30070000D02*
X33170000Y-33602665D01*
X37648905Y-56278905D02*
X37648905Y-52348905D01*
X33070000Y-41970000D02*
X33920000Y-41970000D01*
X39568064Y-40861936D02*
X39559271Y-40861936D01*
X30970000Y-39870000D02*
X33070000Y-41970000D01*
X43270000Y-61900000D02*
X37648905Y-56278905D01*
X30970000Y-37670000D02*
X30970000Y-39870000D01*
X29620000Y-30070000D02*
X29637335Y-30070000D01*
X33170000Y-35470000D02*
X30970000Y-37670000D01*
X46680000Y-64610000D02*
X43970000Y-61900000D01*
X33920000Y-48620000D02*
X33920000Y-41970000D01*
X37648905Y-52348905D02*
X33920000Y-48620000D01*
X38217335Y-39520000D02*
X36370000Y-39520000D01*
X41180000Y-48917335D02*
X41180000Y-50000000D01*
X46870000Y-58420000D02*
X49180000Y-60730000D01*
X40400729Y-48138064D02*
X41180000Y-48917335D01*
X41180000Y-50000000D02*
X40170000Y-51010000D01*
X49180000Y-60730000D02*
X49180000Y-64610000D01*
X41370000Y-58420000D02*
X46870000Y-58420000D01*
X40170000Y-51010000D02*
X40170000Y-57220000D01*
X40170000Y-57220000D02*
X41370000Y-58420000D01*
X41390000Y-55520000D02*
X41390000Y-53480000D01*
X43440000Y-51430000D02*
X43440000Y-49338859D01*
X43440000Y-49338859D02*
X41319967Y-47218826D01*
X41390000Y-53480000D02*
X43440000Y-51430000D01*
X43890000Y-55520000D02*
X43890000Y-48869619D01*
X43890000Y-48869619D02*
X41779587Y-46759206D01*
X36520000Y-41020000D02*
X37878858Y-41020000D01*
X38890000Y-49740000D02*
X34370000Y-45220000D01*
X38890000Y-55520000D02*
X38890000Y-49740000D01*
X34370000Y-43170000D02*
X36520000Y-41020000D01*
X37878858Y-41020000D02*
X38645336Y-41786478D01*
X34370000Y-45220000D02*
X34370000Y-43170000D01*
X50660000Y-32640000D02*
X46630000Y-32640000D01*
X49042639Y-41562639D02*
X49042639Y-45111342D01*
X46630000Y-32640000D02*
X46630000Y-39150000D01*
X46630000Y-39150000D02*
X49042639Y-41562639D01*
X38229095Y-42240794D02*
X38958645Y-42970344D01*
X38180413Y-42240794D02*
X38229095Y-42240794D01*
X38180413Y-42250413D02*
X38180413Y-42240794D01*
X37720794Y-42700413D02*
X37752998Y-42700413D01*
X52130000Y-39440000D02*
X49160000Y-39440000D01*
X52130000Y-42850000D02*
X52130000Y-39440000D01*
X49185815Y-45794185D02*
X52130000Y-42850000D01*
X37752998Y-42700413D02*
X38651288Y-43598703D01*
X49160000Y-39440000D02*
X48140000Y-38420000D01*
X48890885Y-45794185D02*
X49185815Y-45794185D01*
X53200000Y-50100000D02*
X53200000Y-46250000D01*
X53200000Y-46250000D02*
X53080000Y-46370000D01*
X53080000Y-46370000D02*
X48504823Y-46370000D01*
X37261174Y-43160033D02*
X37280033Y-43160033D01*
X37280033Y-43160033D02*
X38020000Y-43900000D01*
X48504823Y-46370000D02*
X48500323Y-46374500D01*
X28200000Y-19035000D02*
X24165000Y-19035000D01*
X27320000Y-20230000D02*
X28200000Y-19350000D01*
X35170000Y-33620000D02*
X27320000Y-25770000D01*
X27320000Y-25770000D02*
X27320000Y-20230000D01*
X35170000Y-35169017D02*
X35170000Y-33620000D01*
X32883043Y-37455974D02*
X35170000Y-35169017D01*
X33439967Y-38468826D02*
X32883043Y-37911902D01*
X28200000Y-19350000D02*
X28200000Y-19035000D01*
X24165000Y-19035000D02*
X24140000Y-19010000D01*
X32883043Y-37911902D02*
X32883043Y-37455974D01*
X33810000Y-40680000D02*
X32520729Y-39390729D01*
X39911903Y-46730000D02*
X40860348Y-47678445D01*
X39860000Y-46730000D02*
X39911903Y-46730000D01*
X32520729Y-39390729D02*
X32520729Y-39388064D01*
X46390000Y-55520000D02*
X46390000Y-50450381D01*
X46390000Y-50450381D02*
X42239206Y-46299587D01*
X48890000Y-55520000D02*
X48890000Y-52031141D01*
X48890000Y-52031141D02*
X42698826Y-45839967D01*
%TA.AperFunction,Conductor*%
G36*
X52014448Y-15270185D02*
G01*
X52060203Y-15322989D01*
X52064574Y-15333901D01*
X52073946Y-15360948D01*
X52122223Y-15500741D01*
X52170335Y-15640533D01*
X52218120Y-15779850D01*
X52265834Y-15919433D01*
X52313285Y-16058720D01*
X52360963Y-16199152D01*
X52408214Y-16338806D01*
X52455643Y-16479472D01*
X52482910Y-16560569D01*
X52486839Y-16572254D01*
X52528326Y-16695982D01*
X52570012Y-16820684D01*
X52611484Y-16945133D01*
X52652630Y-17068982D01*
X52693889Y-17193555D01*
X52735225Y-17318757D01*
X52776224Y-17443327D01*
X52816805Y-17567007D01*
X52857533Y-17691531D01*
X52898456Y-17817044D01*
X52939044Y-17941928D01*
X52979429Y-18066581D01*
X53019842Y-18191719D01*
X53060054Y-18316632D01*
X53100113Y-18441470D01*
X53140001Y-18566177D01*
X53393878Y-19369338D01*
X53639437Y-20162297D01*
X53877055Y-20945592D01*
X54106789Y-21718728D01*
X54328763Y-22481420D01*
X54543147Y-23233549D01*
X54750077Y-23974872D01*
X54949694Y-24705169D01*
X55142124Y-25424166D01*
X55327531Y-26131736D01*
X55505950Y-26827241D01*
X55677659Y-27510992D01*
X55842756Y-28182611D01*
X56001293Y-28841517D01*
X56153513Y-29487904D01*
X56299496Y-30121312D01*
X56439418Y-30741653D01*
X56573400Y-31348651D01*
X56701515Y-31941752D01*
X56823940Y-32520907D01*
X56940913Y-33086362D01*
X57052450Y-33637308D01*
X57158729Y-34173706D01*
X57259912Y-34695446D01*
X57356015Y-35201661D01*
X57447369Y-35693143D01*
X57533960Y-36168848D01*
X57616013Y-36629016D01*
X57693547Y-37072749D01*
X57766872Y-37500802D01*
X57836014Y-37912293D01*
X57901131Y-38307121D01*
X57925286Y-38455551D01*
X57949365Y-38604767D01*
X57973206Y-38753764D01*
X57996869Y-38902925D01*
X58003362Y-38944203D01*
X58020301Y-39051891D01*
X58043496Y-39200620D01*
X58066655Y-39350396D01*
X58089378Y-39498628D01*
X58112073Y-39647962D01*
X58134587Y-39797404D01*
X58156942Y-39947083D01*
X58178990Y-40096004D01*
X58200980Y-40245846D01*
X58222717Y-40395269D01*
X58223762Y-40402517D01*
X58244197Y-40544239D01*
X58265603Y-40694023D01*
X58286746Y-40843290D01*
X58307808Y-40993311D01*
X58328592Y-41142699D01*
X58349205Y-41292195D01*
X58369673Y-41441984D01*
X58389800Y-41590608D01*
X58409881Y-41740264D01*
X58429904Y-41890853D01*
X58449583Y-42040226D01*
X58469122Y-42189909D01*
X58488419Y-42339106D01*
X58507713Y-42489678D01*
X58526634Y-42638731D01*
X58545442Y-42788276D01*
X58564131Y-42938293D01*
X58582659Y-43088424D01*
X58623893Y-43427792D01*
X58664327Y-43767913D01*
X58703843Y-44107718D01*
X58742604Y-44448553D01*
X58780468Y-44789085D01*
X58817481Y-45129625D01*
X58853717Y-45470805D01*
X58889148Y-45812288D01*
X58923740Y-46153666D01*
X58957541Y-46495315D01*
X58990562Y-46837277D01*
X59022754Y-47178945D01*
X59054217Y-47521308D01*
X59084831Y-47862964D01*
X59114720Y-48205200D01*
X59143858Y-48547621D01*
X59172236Y-48890072D01*
X59199847Y-49232327D01*
X59226742Y-49574936D01*
X59252882Y-49917308D01*
X59278255Y-50259156D01*
X59302946Y-50601508D01*
X59326929Y-50943921D01*
X59350193Y-51286161D01*
X59362431Y-51471742D01*
X59372767Y-51628482D01*
X59394641Y-51970664D01*
X59415798Y-52312303D01*
X59436303Y-52654301D01*
X59456133Y-52996165D01*
X59475264Y-53337354D01*
X59493761Y-53678901D01*
X59511592Y-54020036D01*
X59517606Y-54137945D01*
X59523535Y-54255665D01*
X59529446Y-54374564D01*
X59535274Y-54493341D01*
X59540981Y-54611173D01*
X59546584Y-54728432D01*
X59552198Y-54847459D01*
X59557655Y-54964754D01*
X59563162Y-55084780D01*
X59568428Y-55201123D01*
X59573801Y-55321506D01*
X59578931Y-55438119D01*
X59584087Y-55556943D01*
X59589088Y-55673934D01*
X59594092Y-55792691D01*
X59599027Y-55911570D01*
X59603902Y-56030780D01*
X59608643Y-56148501D01*
X59613307Y-56266097D01*
X59617977Y-56385690D01*
X59622468Y-56502507D01*
X59626987Y-56621956D01*
X59631353Y-56739254D01*
X59635706Y-56858169D01*
X59639982Y-56976941D01*
X59644135Y-57094228D01*
X59648217Y-57211491D01*
X59652318Y-57331394D01*
X59656252Y-57448504D01*
X59660191Y-57567860D01*
X59663998Y-57685309D01*
X59667804Y-57804929D01*
X59672698Y-57962197D01*
X59678057Y-58138828D01*
X59683732Y-58331124D01*
X59686660Y-58432594D01*
X59689629Y-58537172D01*
X59692610Y-58643960D01*
X59695666Y-58755471D01*
X59698704Y-58868461D01*
X59701773Y-58984930D01*
X59704762Y-59100949D01*
X59707827Y-59222681D01*
X59710780Y-59343032D01*
X59713737Y-59466863D01*
X59716616Y-59590991D01*
X59719426Y-59716126D01*
X59722156Y-59841993D01*
X59724782Y-59967817D01*
X59727316Y-60094466D01*
X59729723Y-60220543D01*
X59732022Y-60347417D01*
X59734177Y-60473490D01*
X59736171Y-60598252D01*
X59738011Y-60722533D01*
X59739676Y-60845570D01*
X59741159Y-60967420D01*
X59742449Y-61087881D01*
X59743526Y-61206066D01*
X59744387Y-61322382D01*
X59745017Y-61436393D01*
X59745626Y-61621165D01*
X59745787Y-61805906D01*
X59745507Y-61990786D01*
X59744798Y-62175506D01*
X59743671Y-62359696D01*
X59742131Y-62544616D01*
X59740197Y-62728903D01*
X59737867Y-62913770D01*
X59735159Y-63098477D01*
X59732089Y-63282840D01*
X59728661Y-63467267D01*
X59724880Y-63652073D01*
X59720746Y-63837510D01*
X59716307Y-64022074D01*
X59711534Y-64207393D01*
X59706453Y-64392856D01*
X59702175Y-64541113D01*
X59697687Y-64690175D01*
X59693031Y-64838982D01*
X59688262Y-64986266D01*
X59683312Y-65134345D01*
X59678317Y-65279454D01*
X59673229Y-65423401D01*
X59668035Y-65566802D01*
X59662866Y-65706260D01*
X59657642Y-65844289D01*
X59652430Y-65979301D01*
X59647284Y-66110198D01*
X59642103Y-66239726D01*
X59636991Y-66365455D01*
X59631992Y-66486543D01*
X59627147Y-66602250D01*
X59622427Y-66713456D01*
X59621339Y-66738753D01*
X59617837Y-66820205D01*
X59613383Y-66922567D01*
X59605201Y-67107465D01*
X59598158Y-67263404D01*
X59575470Y-67329485D01*
X59520655Y-67372811D01*
X59474285Y-67381807D01*
X52410677Y-67381807D01*
X52343638Y-67362122D01*
X52297883Y-67309318D01*
X52287939Y-67240160D01*
X52316964Y-67176604D01*
X52329462Y-67164104D01*
X52332572Y-67161410D01*
X52336012Y-67158638D01*
X52336588Y-67158207D01*
X52348593Y-67149221D01*
X52359720Y-67138092D01*
X52362925Y-67135109D01*
X52402143Y-67101128D01*
X52404751Y-67097068D01*
X52421381Y-67076431D01*
X53692951Y-65804860D01*
X53754272Y-65771377D01*
X53821186Y-65775362D01*
X53919367Y-65809344D01*
X54127398Y-65839254D01*
X54337330Y-65829254D01*
X54541576Y-65779704D01*
X54627199Y-65740601D01*
X54732743Y-65692401D01*
X54732746Y-65692399D01*
X54732753Y-65692396D01*
X54903952Y-65570486D01*
X54908623Y-65565588D01*
X55048985Y-65418379D01*
X55049576Y-65417460D01*
X55162613Y-65241572D01*
X55240725Y-65046457D01*
X55280500Y-64840085D01*
X55280500Y-64485000D01*
X55579999Y-64485000D01*
X56221650Y-64485000D01*
X56205000Y-64541705D01*
X56205000Y-64678295D01*
X56221650Y-64735000D01*
X55580000Y-64735000D01*
X55580000Y-65382844D01*
X55586401Y-65442372D01*
X55586403Y-65442379D01*
X55636645Y-65577086D01*
X55636649Y-65577093D01*
X55722809Y-65692187D01*
X55722812Y-65692190D01*
X55837906Y-65778350D01*
X55837913Y-65778354D01*
X55972620Y-65828596D01*
X55972627Y-65828598D01*
X56032155Y-65834999D01*
X56032172Y-65835000D01*
X56555000Y-65835000D01*
X56555000Y-65071912D01*
X56646025Y-65085000D01*
X56713975Y-65085000D01*
X56804999Y-65071912D01*
X56804999Y-65834999D01*
X56805000Y-65835000D01*
X57327828Y-65835000D01*
X57327844Y-65834999D01*
X57387372Y-65828598D01*
X57387379Y-65828596D01*
X57522086Y-65778354D01*
X57522093Y-65778350D01*
X57637187Y-65692190D01*
X57637190Y-65692187D01*
X57723350Y-65577093D01*
X57723354Y-65577086D01*
X57773596Y-65442379D01*
X57773598Y-65442372D01*
X57779999Y-65382844D01*
X57780000Y-65382827D01*
X57780000Y-64735000D01*
X57138350Y-64735000D01*
X57155000Y-64678295D01*
X57155000Y-64541705D01*
X57138350Y-64485000D01*
X57780000Y-64485000D01*
X57780000Y-63837172D01*
X57779999Y-63837155D01*
X57773598Y-63777627D01*
X57773596Y-63777620D01*
X57723354Y-63642913D01*
X57723350Y-63642906D01*
X57637190Y-63527812D01*
X57637187Y-63527809D01*
X57522093Y-63441649D01*
X57522086Y-63441645D01*
X57387379Y-63391403D01*
X57387372Y-63391401D01*
X57327844Y-63385000D01*
X56805000Y-63385000D01*
X56804999Y-64148087D01*
X56713975Y-64135000D01*
X56646025Y-64135000D01*
X56555000Y-64148087D01*
X56555000Y-63385000D01*
X56032155Y-63385000D01*
X55972627Y-63391401D01*
X55972620Y-63391403D01*
X55837913Y-63441645D01*
X55837906Y-63441649D01*
X55722812Y-63527809D01*
X55722809Y-63527812D01*
X55636649Y-63642906D01*
X55636645Y-63642913D01*
X55586403Y-63777620D01*
X55586401Y-63777627D01*
X55580000Y-63837155D01*
X55580000Y-63837172D01*
X55579999Y-64485000D01*
X55280500Y-64485000D01*
X55280500Y-64432575D01*
X55265528Y-64275782D01*
X55206316Y-64074125D01*
X55110011Y-63887318D01*
X55110009Y-63887316D01*
X55110008Y-63887313D01*
X54980094Y-63722116D01*
X54980090Y-63722112D01*
X54821253Y-63584478D01*
X54742500Y-63539010D01*
X54694284Y-63488443D01*
X54680500Y-63431623D01*
X54680500Y-56850000D01*
X54954341Y-56850000D01*
X54974936Y-57085403D01*
X54974938Y-57085413D01*
X55036094Y-57313655D01*
X55036096Y-57313659D01*
X55036097Y-57313663D01*
X55080226Y-57408297D01*
X55135964Y-57527828D01*
X55135965Y-57527830D01*
X55271505Y-57721402D01*
X55438597Y-57888494D01*
X55632169Y-58024034D01*
X55632171Y-58024035D01*
X55846337Y-58123903D01*
X56074592Y-58185063D01*
X56251034Y-58200500D01*
X56368966Y-58200500D01*
X56545408Y-58185063D01*
X56773663Y-58123903D01*
X56987829Y-58024035D01*
X57181401Y-57888495D01*
X57348495Y-57721401D01*
X57484035Y-57527830D01*
X57583903Y-57313663D01*
X57645063Y-57085408D01*
X57665659Y-56850000D01*
X57645063Y-56614592D01*
X57583903Y-56386337D01*
X57484035Y-56172171D01*
X57484034Y-56172169D01*
X57348494Y-55978597D01*
X57181402Y-55811505D01*
X56987830Y-55675965D01*
X56987828Y-55675964D01*
X56799821Y-55588295D01*
X56773663Y-55576097D01*
X56773659Y-55576096D01*
X56773655Y-55576094D01*
X56545413Y-55514938D01*
X56545403Y-55514936D01*
X56368966Y-55499500D01*
X56251034Y-55499500D01*
X56074596Y-55514936D01*
X56074586Y-55514938D01*
X55846344Y-55576094D01*
X55846335Y-55576098D01*
X55632171Y-55675964D01*
X55632169Y-55675965D01*
X55438597Y-55811505D01*
X55271506Y-55978597D01*
X55271501Y-55978604D01*
X55135967Y-56172165D01*
X55135965Y-56172169D01*
X55036098Y-56386335D01*
X55036094Y-56386344D01*
X54974938Y-56614586D01*
X54974936Y-56614596D01*
X54954341Y-56849999D01*
X54954341Y-56850000D01*
X54680500Y-56850000D01*
X54680500Y-53168624D01*
X54700185Y-53101585D01*
X54716814Y-53080948D01*
X56556431Y-51241330D01*
X56577068Y-51224700D01*
X56581128Y-51222092D01*
X56585629Y-51216898D01*
X56588489Y-51213597D01*
X56615109Y-51182874D01*
X56618092Y-51179669D01*
X56629221Y-51168542D01*
X56638637Y-51155963D01*
X56641417Y-51152513D01*
X56643717Y-51149859D01*
X56675377Y-51113322D01*
X56677375Y-51108944D01*
X56690907Y-51086138D01*
X56693796Y-51082280D01*
X56698494Y-51069685D01*
X56705835Y-51050000D01*
X56711922Y-51033677D01*
X56713614Y-51029594D01*
X56719021Y-51017755D01*
X56735165Y-50982406D01*
X56735850Y-50977634D01*
X56742409Y-50951941D01*
X56744091Y-50947432D01*
X56747791Y-50895689D01*
X56748265Y-50891289D01*
X56750500Y-50875748D01*
X56750500Y-50860043D01*
X56750658Y-50855618D01*
X56750925Y-50851890D01*
X56754359Y-50803876D01*
X56753332Y-50799155D01*
X56750500Y-50772807D01*
X56750500Y-47246728D01*
X56758318Y-47203394D01*
X56794091Y-47107483D01*
X56800500Y-47047873D01*
X56800499Y-45452128D01*
X56794091Y-45392517D01*
X56792850Y-45389191D01*
X56743797Y-45257671D01*
X56743793Y-45257664D01*
X56657547Y-45142455D01*
X56657544Y-45142452D01*
X56542335Y-45056206D01*
X56542328Y-45056202D01*
X56407482Y-45005908D01*
X56407483Y-45005908D01*
X56347883Y-44999501D01*
X56347881Y-44999500D01*
X56347873Y-44999500D01*
X56347865Y-44999500D01*
X56324500Y-44999500D01*
X56257461Y-44979815D01*
X56211706Y-44927011D01*
X56200500Y-44875500D01*
X56200499Y-40577148D01*
X56203335Y-40550781D01*
X56204359Y-40546075D01*
X56204359Y-40546072D01*
X56200658Y-40494328D01*
X56200500Y-40489904D01*
X56200500Y-40474201D01*
X56198264Y-40458657D01*
X56197791Y-40454254D01*
X56194091Y-40402517D01*
X56192407Y-40398002D01*
X56185850Y-40372312D01*
X56185165Y-40367543D01*
X56163612Y-40320351D01*
X56161932Y-40316295D01*
X56143796Y-40267669D01*
X56140905Y-40263807D01*
X56127379Y-40241010D01*
X56125377Y-40236627D01*
X56117856Y-40227947D01*
X56091411Y-40197427D01*
X56088633Y-40193979D01*
X56079229Y-40181417D01*
X56079224Y-40181412D01*
X56079221Y-40181407D01*
X56068097Y-40170283D01*
X56065103Y-40167067D01*
X56031128Y-40127857D01*
X56031125Y-40127854D01*
X56027066Y-40125246D01*
X56006428Y-40108614D01*
X55766818Y-39869004D01*
X55733333Y-39807681D01*
X55730499Y-39781323D01*
X55730499Y-38642129D01*
X55730498Y-38642123D01*
X55730497Y-38642116D01*
X55724091Y-38582517D01*
X55723799Y-38581735D01*
X55673797Y-38447671D01*
X55673793Y-38447664D01*
X55587547Y-38332455D01*
X55587544Y-38332452D01*
X55472335Y-38246206D01*
X55472328Y-38246202D01*
X55337482Y-38195908D01*
X55337483Y-38195908D01*
X55277883Y-38189501D01*
X55277881Y-38189500D01*
X55277873Y-38189500D01*
X55277865Y-38189500D01*
X55254500Y-38189500D01*
X55187461Y-38169815D01*
X55141706Y-38117011D01*
X55130500Y-38065500D01*
X55130500Y-34177143D01*
X55133334Y-34150785D01*
X55134359Y-34146073D01*
X55130658Y-34094329D01*
X55130500Y-34089904D01*
X55130500Y-34074201D01*
X55128264Y-34058657D01*
X55127791Y-34054254D01*
X55127592Y-34051468D01*
X55124091Y-34002517D01*
X55122407Y-33998002D01*
X55115850Y-33972312D01*
X55115165Y-33967543D01*
X55112309Y-33961290D01*
X55093616Y-33920359D01*
X55091932Y-33916295D01*
X55073796Y-33867669D01*
X55070905Y-33863807D01*
X55057379Y-33841010D01*
X55055377Y-33836627D01*
X55043467Y-33822882D01*
X55021411Y-33797427D01*
X55018633Y-33793979D01*
X55009229Y-33781417D01*
X55009224Y-33781412D01*
X55009221Y-33781407D01*
X54998097Y-33770283D01*
X54995103Y-33767067D01*
X54961128Y-33727857D01*
X54961125Y-33727854D01*
X54957066Y-33725246D01*
X54936428Y-33708614D01*
X54296818Y-33069004D01*
X54263333Y-33007681D01*
X54260499Y-32981323D01*
X54260499Y-31842129D01*
X54260498Y-31842123D01*
X54260497Y-31842116D01*
X54254091Y-31782517D01*
X54239296Y-31742850D01*
X54203797Y-31647671D01*
X54203793Y-31647664D01*
X54117547Y-31532455D01*
X54117544Y-31532452D01*
X54002335Y-31446206D01*
X54002328Y-31446202D01*
X53867482Y-31395908D01*
X53867483Y-31395908D01*
X53807883Y-31389501D01*
X53807881Y-31389500D01*
X53807873Y-31389500D01*
X53807865Y-31389500D01*
X53784500Y-31389500D01*
X53717461Y-31369815D01*
X53671706Y-31317011D01*
X53660500Y-31265500D01*
X53660500Y-31023970D01*
X53663334Y-30997612D01*
X53664359Y-30992900D01*
X53660658Y-30941156D01*
X53660500Y-30936731D01*
X53660500Y-30921028D01*
X53658264Y-30905484D01*
X53657791Y-30901081D01*
X53654091Y-30849344D01*
X53652407Y-30844829D01*
X53645850Y-30819139D01*
X53645165Y-30814370D01*
X53623612Y-30767178D01*
X53621932Y-30763122D01*
X53603796Y-30714496D01*
X53600905Y-30710634D01*
X53587379Y-30687837D01*
X53585377Y-30683454D01*
X53577856Y-30674774D01*
X53551411Y-30644254D01*
X53548633Y-30640806D01*
X53539229Y-30628244D01*
X53539224Y-30628239D01*
X53539221Y-30628234D01*
X53528097Y-30617110D01*
X53525103Y-30613894D01*
X53491128Y-30574684D01*
X53491125Y-30574681D01*
X53487066Y-30572073D01*
X53466428Y-30555441D01*
X49742289Y-26831302D01*
X49708804Y-26769979D01*
X49713788Y-26700287D01*
X49740226Y-26658051D01*
X49758986Y-26638378D01*
X49781822Y-26602844D01*
X50290000Y-26602844D01*
X50296401Y-26662372D01*
X50296403Y-26662379D01*
X50346645Y-26797086D01*
X50346649Y-26797093D01*
X50432809Y-26912187D01*
X50432812Y-26912190D01*
X50547906Y-26998350D01*
X50547913Y-26998354D01*
X50682620Y-27048596D01*
X50682627Y-27048598D01*
X50742155Y-27054999D01*
X50742172Y-27055000D01*
X51265000Y-27055000D01*
X51265000Y-26291912D01*
X51356025Y-26305000D01*
X51423975Y-26305000D01*
X51515000Y-26291912D01*
X51515000Y-27055000D01*
X52037828Y-27055000D01*
X52037844Y-27054999D01*
X52097372Y-27048598D01*
X52097379Y-27048596D01*
X52232086Y-26998354D01*
X52232093Y-26998350D01*
X52347187Y-26912190D01*
X52347190Y-26912187D01*
X52433350Y-26797093D01*
X52433354Y-26797086D01*
X52483596Y-26662379D01*
X52483598Y-26662372D01*
X52489999Y-26602844D01*
X52490000Y-26602827D01*
X52490000Y-25955000D01*
X51848350Y-25955000D01*
X51865000Y-25898295D01*
X51865000Y-25761705D01*
X51848350Y-25705000D01*
X52490000Y-25705000D01*
X52490000Y-25057172D01*
X52489999Y-25057155D01*
X52483598Y-24997627D01*
X52483596Y-24997620D01*
X52433354Y-24862913D01*
X52433350Y-24862906D01*
X52347190Y-24747812D01*
X52347187Y-24747809D01*
X52232093Y-24661649D01*
X52232086Y-24661645D01*
X52097379Y-24611403D01*
X52097372Y-24611401D01*
X52037844Y-24605000D01*
X51515000Y-24605000D01*
X51515000Y-25368087D01*
X51423975Y-25355000D01*
X51356025Y-25355000D01*
X51265000Y-25368087D01*
X51265000Y-24605000D01*
X50742155Y-24605000D01*
X50682627Y-24611401D01*
X50682620Y-24611403D01*
X50547913Y-24661645D01*
X50547906Y-24661649D01*
X50432812Y-24747809D01*
X50432809Y-24747812D01*
X50346649Y-24862906D01*
X50346645Y-24862913D01*
X50296403Y-24997620D01*
X50296401Y-24997627D01*
X50290000Y-25057155D01*
X50290000Y-25705000D01*
X50931650Y-25705000D01*
X50915000Y-25761705D01*
X50915000Y-25898295D01*
X50931650Y-25955000D01*
X50290000Y-25955000D01*
X50290000Y-26602844D01*
X49781822Y-26602844D01*
X49872613Y-26461572D01*
X49950725Y-26266457D01*
X49990500Y-26060085D01*
X49990500Y-25652575D01*
X49975528Y-25495782D01*
X49916316Y-25294125D01*
X49820011Y-25107318D01*
X49820009Y-25107316D01*
X49820008Y-25107313D01*
X49690094Y-24942116D01*
X49690090Y-24942112D01*
X49531253Y-24804478D01*
X49452499Y-24759010D01*
X49404283Y-24708443D01*
X49390500Y-24651627D01*
X49390500Y-23407142D01*
X49393334Y-23380785D01*
X49394359Y-23376073D01*
X49390658Y-23324329D01*
X49390500Y-23319904D01*
X49390500Y-23304201D01*
X49388264Y-23288657D01*
X49387791Y-23284254D01*
X49384091Y-23232517D01*
X49382407Y-23228002D01*
X49375850Y-23202312D01*
X49375165Y-23197543D01*
X49353612Y-23150351D01*
X49351932Y-23146295D01*
X49333796Y-23097669D01*
X49330905Y-23093807D01*
X49317379Y-23071010D01*
X49315377Y-23066627D01*
X49307856Y-23057947D01*
X49281411Y-23027427D01*
X49278633Y-23023979D01*
X49269229Y-23011417D01*
X49269224Y-23011412D01*
X49269221Y-23011407D01*
X49258097Y-23000283D01*
X49255103Y-22997067D01*
X49221128Y-22957857D01*
X49221125Y-22957854D01*
X49217066Y-22955246D01*
X49196428Y-22938614D01*
X47216819Y-20959004D01*
X47183334Y-20897681D01*
X47180500Y-20871323D01*
X47180500Y-20213531D01*
X47200185Y-20146492D01*
X47232573Y-20112523D01*
X47232748Y-20112398D01*
X47232753Y-20112396D01*
X47403952Y-19990486D01*
X47410448Y-19983674D01*
X47548985Y-19838379D01*
X47552524Y-19832873D01*
X47662613Y-19661572D01*
X47740725Y-19466457D01*
X47780500Y-19260085D01*
X47780500Y-18904999D01*
X48079999Y-18904999D01*
X48080000Y-18905000D01*
X48721650Y-18905000D01*
X48705000Y-18961705D01*
X48705000Y-19098295D01*
X48721650Y-19155000D01*
X48080000Y-19155000D01*
X48080000Y-19802844D01*
X48086401Y-19862372D01*
X48086403Y-19862379D01*
X48136645Y-19997086D01*
X48136649Y-19997093D01*
X48222809Y-20112187D01*
X48222812Y-20112190D01*
X48337906Y-20198350D01*
X48337913Y-20198354D01*
X48472620Y-20248596D01*
X48472627Y-20248598D01*
X48532155Y-20254999D01*
X48532172Y-20255000D01*
X49055000Y-20255000D01*
X49055000Y-19491912D01*
X49146025Y-19505000D01*
X49213975Y-19505000D01*
X49305000Y-19491912D01*
X49305000Y-20255000D01*
X49827828Y-20255000D01*
X49827844Y-20254999D01*
X49887372Y-20248598D01*
X49887379Y-20248596D01*
X50022086Y-20198354D01*
X50022093Y-20198350D01*
X50137187Y-20112190D01*
X50137190Y-20112187D01*
X50223350Y-19997093D01*
X50223354Y-19997086D01*
X50273596Y-19862379D01*
X50273598Y-19862372D01*
X50279999Y-19802844D01*
X50280000Y-19802827D01*
X50280000Y-19155000D01*
X49638350Y-19155000D01*
X49655000Y-19098295D01*
X49655000Y-18961705D01*
X49638350Y-18905000D01*
X50280000Y-18905000D01*
X50280000Y-18257172D01*
X50279999Y-18257155D01*
X50273598Y-18197627D01*
X50273596Y-18197620D01*
X50223354Y-18062913D01*
X50223350Y-18062906D01*
X50137190Y-17947812D01*
X50137187Y-17947809D01*
X50022093Y-17861649D01*
X50022086Y-17861645D01*
X49887379Y-17811403D01*
X49887372Y-17811401D01*
X49827844Y-17805000D01*
X49305000Y-17805000D01*
X49305000Y-18568087D01*
X49213975Y-18555000D01*
X49146025Y-18555000D01*
X49055000Y-18568087D01*
X49055000Y-17805000D01*
X48532155Y-17805000D01*
X48472627Y-17811401D01*
X48472620Y-17811403D01*
X48337913Y-17861645D01*
X48337906Y-17861649D01*
X48222812Y-17947809D01*
X48222809Y-17947812D01*
X48136649Y-18062906D01*
X48136645Y-18062913D01*
X48086403Y-18197620D01*
X48086401Y-18197627D01*
X48080000Y-18257155D01*
X48080000Y-18257172D01*
X48079999Y-18904999D01*
X47780500Y-18904999D01*
X47780500Y-18852575D01*
X47765528Y-18695782D01*
X47706316Y-18494125D01*
X47610011Y-18307318D01*
X47610009Y-18307316D01*
X47610008Y-18307313D01*
X47480094Y-18142116D01*
X47480090Y-18142112D01*
X47321253Y-18004478D01*
X47216126Y-17943783D01*
X47167910Y-17893216D01*
X47165333Y-17887910D01*
X47152586Y-17859999D01*
X47143612Y-17840351D01*
X47141932Y-17836295D01*
X47123796Y-17787669D01*
X47120905Y-17783807D01*
X47107379Y-17761010D01*
X47105377Y-17756627D01*
X47076996Y-17723873D01*
X47071411Y-17717427D01*
X47068633Y-17713979D01*
X47059229Y-17701417D01*
X47059224Y-17701412D01*
X47059221Y-17701407D01*
X47048097Y-17690283D01*
X47045103Y-17687067D01*
X47011128Y-17647857D01*
X47011125Y-17647854D01*
X47007066Y-17645246D01*
X46986428Y-17628614D01*
X45621385Y-16263571D01*
X45604750Y-16242928D01*
X45602145Y-16238874D01*
X45602142Y-16238871D01*
X45576491Y-16216645D01*
X45562932Y-16204896D01*
X45559700Y-16201886D01*
X45548596Y-16190782D01*
X45548591Y-16190778D01*
X45536008Y-16181358D01*
X45532583Y-16178598D01*
X45493373Y-16144623D01*
X45493371Y-16144622D01*
X45493367Y-16144619D01*
X45488983Y-16142617D01*
X45466194Y-16129096D01*
X45462331Y-16126204D01*
X45462329Y-16126203D01*
X45413716Y-16108071D01*
X45409642Y-16106383D01*
X45362457Y-16084835D01*
X45362455Y-16084834D01*
X45357682Y-16084148D01*
X45332000Y-16077593D01*
X45327485Y-16075909D01*
X45275740Y-16072207D01*
X45271343Y-16071734D01*
X45255799Y-16069500D01*
X45240094Y-16069500D01*
X45235671Y-16069342D01*
X45218083Y-16068084D01*
X45183929Y-16065641D01*
X45183925Y-16065641D01*
X45179215Y-16066666D01*
X45152857Y-16069500D01*
X32487143Y-16069500D01*
X32460785Y-16066666D01*
X32456074Y-16065641D01*
X32456070Y-16065641D01*
X32417552Y-16068396D01*
X32404328Y-16069342D01*
X32399906Y-16069500D01*
X32384199Y-16069500D01*
X32368656Y-16071734D01*
X32364260Y-16072207D01*
X32312517Y-16075909D01*
X32312513Y-16075910D01*
X32307986Y-16077598D01*
X32282327Y-16084146D01*
X32277550Y-16084833D01*
X32277543Y-16084835D01*
X32230353Y-16106385D01*
X32226264Y-16108078D01*
X32177675Y-16126200D01*
X32177668Y-16126204D01*
X32173800Y-16129100D01*
X32151019Y-16142617D01*
X32146628Y-16144622D01*
X32107428Y-16178587D01*
X32103988Y-16181360D01*
X32091408Y-16190778D01*
X32080298Y-16201886D01*
X32077064Y-16204897D01*
X32037858Y-16238870D01*
X32037856Y-16238873D01*
X32035245Y-16242936D01*
X32018615Y-16263570D01*
X30534003Y-17748181D01*
X30472680Y-17781666D01*
X30446322Y-17784500D01*
X30052129Y-17784500D01*
X30052123Y-17784501D01*
X29992516Y-17790908D01*
X29857671Y-17841202D01*
X29857664Y-17841206D01*
X29742455Y-17927452D01*
X29742452Y-17927455D01*
X29656206Y-18042664D01*
X29656202Y-18042671D01*
X29605908Y-18177517D01*
X29601749Y-18216206D01*
X29599501Y-18237123D01*
X29599500Y-18237135D01*
X29599500Y-19832870D01*
X29599501Y-19832876D01*
X29605908Y-19892483D01*
X29656202Y-20027328D01*
X29656206Y-20027335D01*
X29742452Y-20142544D01*
X29742455Y-20142547D01*
X29857664Y-20228793D01*
X29857671Y-20228797D01*
X29860103Y-20229704D01*
X29992517Y-20279091D01*
X30052127Y-20285500D01*
X30185176Y-20285499D01*
X30252215Y-20305183D01*
X30278888Y-20328296D01*
X30308583Y-20362565D01*
X30311362Y-20366013D01*
X30320775Y-20378588D01*
X30320782Y-20378596D01*
X30331886Y-20389700D01*
X30334896Y-20392932D01*
X30362810Y-20425147D01*
X30368871Y-20432142D01*
X30368874Y-20432145D01*
X30372928Y-20434750D01*
X30393571Y-20451385D01*
X34833181Y-24890994D01*
X34866666Y-24952317D01*
X34869500Y-24978675D01*
X34869500Y-32489100D01*
X34849815Y-32556139D01*
X34797011Y-32601894D01*
X34727853Y-32611838D01*
X34664297Y-32582813D01*
X34657819Y-32576781D01*
X27731818Y-25650781D01*
X27698333Y-25589458D01*
X27695499Y-25563100D01*
X27695499Y-24390000D01*
X29574341Y-24390000D01*
X29594936Y-24625403D01*
X29594938Y-24625413D01*
X29656094Y-24853655D01*
X29656096Y-24853659D01*
X29656097Y-24853663D01*
X29704659Y-24957804D01*
X29755964Y-25067828D01*
X29755965Y-25067830D01*
X29891505Y-25261402D01*
X30058597Y-25428494D01*
X30252169Y-25564034D01*
X30252171Y-25564035D01*
X30466337Y-25663903D01*
X30694592Y-25725063D01*
X30871034Y-25740500D01*
X30988966Y-25740500D01*
X31165408Y-25725063D01*
X31393663Y-25663903D01*
X31607829Y-25564035D01*
X31801401Y-25428495D01*
X31968495Y-25261401D01*
X32104035Y-25067830D01*
X32203903Y-24853663D01*
X32265063Y-24625408D01*
X32285659Y-24390000D01*
X32265063Y-24154592D01*
X32216908Y-23974872D01*
X32203905Y-23926344D01*
X32203904Y-23926343D01*
X32203903Y-23926337D01*
X32104035Y-23712171D01*
X32104034Y-23712169D01*
X31968494Y-23518597D01*
X31801402Y-23351505D01*
X31607830Y-23215965D01*
X31607828Y-23215964D01*
X31500745Y-23166030D01*
X31393663Y-23116097D01*
X31393659Y-23116096D01*
X31393655Y-23116094D01*
X31165413Y-23054938D01*
X31165403Y-23054936D01*
X30988966Y-23039500D01*
X30871034Y-23039500D01*
X30694596Y-23054936D01*
X30694586Y-23054938D01*
X30466344Y-23116094D01*
X30466335Y-23116098D01*
X30252171Y-23215964D01*
X30252169Y-23215965D01*
X30058597Y-23351505D01*
X29891506Y-23518597D01*
X29891501Y-23518604D01*
X29755967Y-23712165D01*
X29755965Y-23712169D01*
X29656098Y-23926335D01*
X29656094Y-23926344D01*
X29594938Y-24154586D01*
X29594936Y-24154596D01*
X29574341Y-24389999D01*
X29574341Y-24390000D01*
X27695499Y-24390000D01*
X27695499Y-23000298D01*
X27695499Y-20436895D01*
X27715184Y-20369860D01*
X27731813Y-20349223D01*
X27797064Y-20283972D01*
X27858385Y-20250489D01*
X27925301Y-20254475D01*
X27939367Y-20259344D01*
X28147398Y-20289254D01*
X28357330Y-20279254D01*
X28561576Y-20229704D01*
X28641191Y-20193345D01*
X28752743Y-20142401D01*
X28752746Y-20142399D01*
X28752753Y-20142396D01*
X28923952Y-20020486D01*
X28928702Y-20015505D01*
X29068985Y-19868379D01*
X29072841Y-19862379D01*
X29182613Y-19691572D01*
X29260725Y-19496457D01*
X29300500Y-19290085D01*
X29300500Y-18832575D01*
X29285528Y-18675782D01*
X29226316Y-18474125D01*
X29130011Y-18287318D01*
X29130009Y-18287316D01*
X29130008Y-18287313D01*
X29000094Y-18122116D01*
X29000090Y-18122112D01*
X28841253Y-17984478D01*
X28659249Y-17879398D01*
X28659245Y-17879396D01*
X28659244Y-17879396D01*
X28460633Y-17810656D01*
X28252602Y-17780746D01*
X28252598Y-17780746D01*
X28042672Y-17790745D01*
X27838421Y-17840296D01*
X27838417Y-17840298D01*
X27647256Y-17927598D01*
X27647251Y-17927601D01*
X27476046Y-18049515D01*
X27476040Y-18049520D01*
X27331014Y-18201620D01*
X27217388Y-18378425D01*
X27201257Y-18418719D01*
X27140065Y-18571571D01*
X27137080Y-18579027D01*
X27135156Y-18578257D01*
X27102427Y-18629202D01*
X27038875Y-18658235D01*
X27021211Y-18659500D01*
X25206977Y-18659500D01*
X25139938Y-18639815D01*
X25094183Y-18587011D01*
X25086733Y-18559865D01*
X25085876Y-18560068D01*
X25084092Y-18552520D01*
X25033797Y-18417671D01*
X25033793Y-18417664D01*
X24947547Y-18302455D01*
X24947544Y-18302452D01*
X24832335Y-18216206D01*
X24832328Y-18216202D01*
X24697482Y-18165908D01*
X24697483Y-18165908D01*
X24637883Y-18159501D01*
X24637881Y-18159500D01*
X24637873Y-18159500D01*
X24637864Y-18159500D01*
X23642129Y-18159500D01*
X23642123Y-18159501D01*
X23582516Y-18165908D01*
X23447671Y-18216202D01*
X23447664Y-18216206D01*
X23332455Y-18302452D01*
X23332452Y-18302455D01*
X23246206Y-18417664D01*
X23246202Y-18417671D01*
X23195908Y-18552517D01*
X23189501Y-18612116D01*
X23189500Y-18612135D01*
X23189500Y-19407870D01*
X23189501Y-19407876D01*
X23195908Y-19467483D01*
X23246202Y-19602328D01*
X23246206Y-19602335D01*
X23332452Y-19717544D01*
X23332455Y-19717547D01*
X23447664Y-19803793D01*
X23447671Y-19803797D01*
X23582517Y-19854091D01*
X23582516Y-19854091D01*
X23589444Y-19854835D01*
X23642127Y-19860500D01*
X24637872Y-19860499D01*
X24697483Y-19854091D01*
X24832331Y-19803796D01*
X24947546Y-19717546D01*
X25033796Y-19602331D01*
X25064565Y-19519836D01*
X25075258Y-19491167D01*
X25117129Y-19435233D01*
X25182593Y-19410816D01*
X25191440Y-19410500D01*
X27026428Y-19410500D01*
X27093467Y-19430185D01*
X27139222Y-19482989D01*
X27145404Y-19499562D01*
X27151923Y-19521763D01*
X27173684Y-19595875D01*
X27217033Y-19679962D01*
X27230255Y-19748569D01*
X27204287Y-19813433D01*
X27194498Y-19824462D01*
X27091108Y-19927852D01*
X27071254Y-19943976D01*
X27062165Y-19949914D01*
X27062164Y-19949915D01*
X27040363Y-19977923D01*
X27035286Y-19983674D01*
X27032484Y-19986477D01*
X27032474Y-19986488D01*
X27018905Y-20005495D01*
X26985192Y-20048808D01*
X26981447Y-20055729D01*
X26977988Y-20062804D01*
X26962329Y-20115403D01*
X26944500Y-20167338D01*
X26943206Y-20175092D01*
X26942231Y-20182911D01*
X26944500Y-20237755D01*
X26944500Y-25718196D01*
X26941861Y-25743641D01*
X26939633Y-25754266D01*
X26939633Y-25754270D01*
X26944023Y-25789493D01*
X26944499Y-25797156D01*
X26944499Y-25801105D01*
X26944500Y-25801114D01*
X26948342Y-25824142D01*
X26955134Y-25878627D01*
X26957373Y-25886147D01*
X26959934Y-25893608D01*
X26959935Y-25893610D01*
X26969275Y-25910869D01*
X26986055Y-25941877D01*
X27010174Y-25991211D01*
X27014742Y-25997609D01*
X27019582Y-26003827D01*
X27059971Y-26041009D01*
X34758181Y-33739218D01*
X34791666Y-33800541D01*
X34794500Y-33826899D01*
X34794500Y-34962116D01*
X34774815Y-35029155D01*
X34758181Y-35049797D01*
X32654151Y-37153826D01*
X32634297Y-37169950D01*
X32625208Y-37175888D01*
X32625207Y-37175889D01*
X32603406Y-37203897D01*
X32598329Y-37209648D01*
X32595527Y-37212451D01*
X32595517Y-37212462D01*
X32581948Y-37231469D01*
X32548235Y-37274782D01*
X32544490Y-37281703D01*
X32541031Y-37288778D01*
X32525372Y-37341377D01*
X32507543Y-37393312D01*
X32506249Y-37401066D01*
X32505274Y-37408885D01*
X32507543Y-37463729D01*
X32507542Y-37860100D01*
X32504904Y-37885541D01*
X32502675Y-37896169D01*
X32507066Y-37931392D01*
X32507543Y-37939069D01*
X32507543Y-37943016D01*
X32508387Y-37948075D01*
X32508976Y-37951605D01*
X32500591Y-38020969D01*
X32456036Y-38074790D01*
X32426931Y-38089290D01*
X32426087Y-38089579D01*
X32370984Y-38130667D01*
X32370971Y-38130679D01*
X32365165Y-38136484D01*
X32365164Y-38136485D01*
X32975044Y-38746364D01*
X33026409Y-38746363D01*
X33026409Y-38749678D01*
X33071015Y-38752852D01*
X33115438Y-38781400D01*
X33116850Y-38782813D01*
X33150314Y-38844148D01*
X33148328Y-38871780D01*
X33151822Y-38871780D01*
X33151822Y-38923142D01*
X33761701Y-39533021D01*
X33761702Y-39533021D01*
X33767505Y-39527216D01*
X33767508Y-39527213D01*
X33808609Y-39472097D01*
X33833446Y-39399746D01*
X33873831Y-39342730D01*
X33910462Y-39322728D01*
X33983860Y-39297530D01*
X34039056Y-39256373D01*
X34227515Y-39067914D01*
X34268672Y-39012718D01*
X34293869Y-38939321D01*
X34334253Y-38882308D01*
X34370888Y-38862304D01*
X34443238Y-38837467D01*
X34498350Y-38796372D01*
X34504162Y-38790559D01*
X33894283Y-38180680D01*
X33842921Y-38180680D01*
X33842921Y-38177374D01*
X33798226Y-38174161D01*
X33753923Y-38145677D01*
X33752508Y-38144262D01*
X33719023Y-38082939D01*
X33724007Y-38013247D01*
X33730012Y-38003903D01*
X34071060Y-38003903D01*
X34680939Y-38613782D01*
X34680940Y-38613782D01*
X34686743Y-38607977D01*
X34686746Y-38607974D01*
X34727847Y-38552858D01*
X34752889Y-38479910D01*
X34793274Y-38422894D01*
X34829910Y-38402889D01*
X34902858Y-38377847D01*
X34957970Y-38336752D01*
X34963782Y-38330939D01*
X34353903Y-37721060D01*
X34071060Y-38003903D01*
X33730012Y-38003903D01*
X33752508Y-37968899D01*
X33894283Y-37827126D01*
X34177126Y-37544283D01*
X34530680Y-37544283D01*
X35140559Y-38154162D01*
X35140560Y-38154162D01*
X35146363Y-38148357D01*
X35146366Y-38148354D01*
X35187467Y-38093238D01*
X35212509Y-38020291D01*
X35252894Y-37963275D01*
X35289530Y-37943270D01*
X35362477Y-37918228D01*
X35417589Y-37877133D01*
X35423401Y-37871320D01*
X34813522Y-37261441D01*
X34813521Y-37261441D01*
X34555869Y-37519094D01*
X34530680Y-37544283D01*
X34177126Y-37544283D01*
X34636745Y-37084664D01*
X34990299Y-37084664D01*
X35600178Y-37694543D01*
X35600179Y-37694543D01*
X35605982Y-37688738D01*
X35605985Y-37688735D01*
X35647086Y-37633619D01*
X35672128Y-37560672D01*
X35712513Y-37503656D01*
X35749149Y-37483651D01*
X35822097Y-37458609D01*
X35877209Y-37417514D01*
X35883021Y-37411701D01*
X35883020Y-37411699D01*
X35273143Y-36801822D01*
X35273142Y-36801822D01*
X34990299Y-37084663D01*
X34990299Y-37084664D01*
X34636745Y-37084664D01*
X34813522Y-36907887D01*
X35071175Y-36650233D01*
X35185460Y-36535948D01*
X35246783Y-36502463D01*
X35316475Y-36507447D01*
X35360823Y-36535948D01*
X36059798Y-37234924D01*
X36059799Y-37234924D01*
X36065602Y-37229119D01*
X36065605Y-37229116D01*
X36106706Y-37174000D01*
X36131543Y-37101649D01*
X36171928Y-37044633D01*
X36208559Y-37024631D01*
X36281957Y-36999433D01*
X36337153Y-36958276D01*
X36525612Y-36769817D01*
X36566769Y-36714621D01*
X36604752Y-36603983D01*
X36604752Y-36487007D01*
X36566769Y-36376369D01*
X36525612Y-36321172D01*
X36492901Y-36288461D01*
X36459416Y-36227138D01*
X36464400Y-36157446D01*
X36492901Y-36113099D01*
X36595558Y-36010442D01*
X36656881Y-35976957D01*
X36683239Y-35974123D01*
X37400405Y-35974123D01*
X37467444Y-35993808D01*
X37488086Y-36010442D01*
X37913545Y-36435900D01*
X37913555Y-36435909D01*
X37960230Y-36473524D01*
X38023598Y-36502463D01*
X38091147Y-36533312D01*
X38091146Y-36533312D01*
X38109053Y-36535886D01*
X38233604Y-36553794D01*
X38376061Y-36533312D01*
X38376065Y-36533310D01*
X38384569Y-36530814D01*
X38385042Y-36532427D01*
X38443913Y-36523959D01*
X38507471Y-36552978D01*
X38513957Y-36559017D01*
X44568611Y-42613671D01*
X44602096Y-42674994D01*
X44597112Y-42744686D01*
X44568612Y-42789033D01*
X44504090Y-42853555D01*
X44466475Y-42900230D01*
X44406687Y-43031147D01*
X44386206Y-43173604D01*
X44406688Y-43316062D01*
X44408118Y-43320932D01*
X44408118Y-43390802D01*
X44376822Y-43443548D01*
X43665086Y-44155284D01*
X43603763Y-44188769D01*
X43534071Y-44183785D01*
X43489724Y-44155284D01*
X43457012Y-44122572D01*
X43401819Y-44081418D01*
X43401820Y-44081418D01*
X43378150Y-44073292D01*
X43291179Y-44043434D01*
X43174203Y-44043434D01*
X43098239Y-44069513D01*
X43063567Y-44081416D01*
X43063561Y-44081419D01*
X43008370Y-44122572D01*
X42819908Y-44311034D01*
X42778755Y-44366225D01*
X42778753Y-44366227D01*
X42778753Y-44366229D01*
X42761679Y-44415962D01*
X42753555Y-44439626D01*
X42713168Y-44496641D01*
X42676537Y-44516642D01*
X42604187Y-44541479D01*
X42549081Y-44582570D01*
X42549068Y-44582582D01*
X42543262Y-44588387D01*
X42543261Y-44588387D01*
X43939798Y-45984924D01*
X43939799Y-45984924D01*
X43945602Y-45979119D01*
X43945605Y-45979116D01*
X43986706Y-45924000D01*
X44011543Y-45851649D01*
X44051928Y-45794633D01*
X44088559Y-45774631D01*
X44161957Y-45749433D01*
X44217153Y-45708276D01*
X44405612Y-45519817D01*
X44446769Y-45464621D01*
X44484752Y-45353983D01*
X44484752Y-45321440D01*
X46332582Y-45321440D01*
X46516663Y-45505521D01*
X46563298Y-45543101D01*
X46694077Y-45602827D01*
X46694082Y-45602828D01*
X46836396Y-45623288D01*
X46978709Y-45602828D01*
X46978714Y-45602827D01*
X47109493Y-45543101D01*
X47156128Y-45505521D01*
X47437436Y-45224213D01*
X47437436Y-45224212D01*
X46933624Y-44720400D01*
X46933623Y-44720400D01*
X46332582Y-45321439D01*
X46332582Y-45321440D01*
X44484752Y-45321440D01*
X44484752Y-45237007D01*
X44446769Y-45126369D01*
X44446767Y-45126366D01*
X44405613Y-45071173D01*
X44372900Y-45038460D01*
X44339415Y-44977137D01*
X44344399Y-44907445D01*
X44372896Y-44863103D01*
X44595149Y-44640850D01*
X45853957Y-44640850D01*
X45874417Y-44783163D01*
X45874418Y-44783168D01*
X45934144Y-44913947D01*
X45971724Y-44960582D01*
X46155805Y-45144663D01*
X46756845Y-44543624D01*
X47110400Y-44543624D01*
X47614212Y-45047436D01*
X47614213Y-45047436D01*
X47895521Y-44766128D01*
X47933101Y-44719493D01*
X47992827Y-44588714D01*
X47992828Y-44588709D01*
X48013288Y-44446396D01*
X47992828Y-44304082D01*
X47992827Y-44304077D01*
X47933101Y-44173298D01*
X47895521Y-44126663D01*
X47711440Y-43942582D01*
X47711439Y-43942582D01*
X47110400Y-44543622D01*
X47110400Y-44543624D01*
X46756845Y-44543624D01*
X46933623Y-44366846D01*
X47534663Y-43765805D01*
X47534663Y-43765804D01*
X47350586Y-43581728D01*
X47350582Y-43581724D01*
X47303947Y-43544144D01*
X47173168Y-43484418D01*
X47173163Y-43484417D01*
X47030850Y-43463957D01*
X46888536Y-43484417D01*
X46888531Y-43484418D01*
X46757752Y-43544144D01*
X46711117Y-43581724D01*
X45971724Y-44321117D01*
X45934144Y-44367752D01*
X45874418Y-44498531D01*
X45874417Y-44498536D01*
X45853957Y-44640850D01*
X44595149Y-44640850D01*
X45078797Y-44157201D01*
X45140118Y-44123718D01*
X45209810Y-44128702D01*
X45217980Y-44132087D01*
X45226693Y-44136066D01*
X45369150Y-44156548D01*
X45511607Y-44136066D01*
X45621649Y-44085810D01*
X45642521Y-44076279D01*
X45642521Y-44076278D01*
X45642523Y-44076278D01*
X45689205Y-44038660D01*
X46428658Y-43299205D01*
X46466278Y-43252523D01*
X46526066Y-43121607D01*
X46546548Y-42979150D01*
X46526066Y-42836693D01*
X46466278Y-42705777D01*
X46466275Y-42705772D01*
X46428662Y-42659096D01*
X46428655Y-42659088D01*
X45883667Y-42114103D01*
X45883660Y-42114096D01*
X45836977Y-42076476D01*
X45757601Y-42040226D01*
X45706059Y-42016687D01*
X45706061Y-42016687D01*
X45563604Y-41996206D01*
X45563603Y-41996206D01*
X45452952Y-42012114D01*
X45383793Y-42002170D01*
X45347625Y-41977057D01*
X39221771Y-35851203D01*
X39188286Y-35789880D01*
X39193270Y-35720188D01*
X39195933Y-35713758D01*
X39196064Y-35713311D01*
X39196066Y-35713307D01*
X39216548Y-35570850D01*
X39196066Y-35428393D01*
X39160621Y-35350780D01*
X39136279Y-35297478D01*
X39117147Y-35273737D01*
X39098660Y-35250795D01*
X39098655Y-35250790D01*
X39098651Y-35250785D01*
X38359208Y-34511345D01*
X38359198Y-34511336D01*
X38312523Y-34473721D01*
X38181605Y-34413933D01*
X38181607Y-34413933D01*
X38039150Y-34393452D01*
X37896693Y-34413933D01*
X37888182Y-34416433D01*
X37887708Y-34414821D01*
X37828820Y-34423283D01*
X37765267Y-34394253D01*
X37758796Y-34388228D01*
X37279718Y-33909150D01*
X38523957Y-33909150D01*
X38544417Y-34051463D01*
X38544418Y-34051468D01*
X38604144Y-34182247D01*
X38641724Y-34228882D01*
X39381117Y-34968275D01*
X39427752Y-35005855D01*
X39558531Y-35065581D01*
X39558536Y-35065582D01*
X39700850Y-35086042D01*
X39843163Y-35065582D01*
X39843168Y-35065581D01*
X39973947Y-35005855D01*
X40020582Y-34968275D01*
X40204663Y-34784194D01*
X40204663Y-34784193D01*
X39603623Y-34183154D01*
X39426846Y-34006377D01*
X39780399Y-34006377D01*
X40381440Y-34607417D01*
X40565521Y-34423336D01*
X40603101Y-34376701D01*
X40662827Y-34245922D01*
X40662828Y-34245917D01*
X40683288Y-34103604D01*
X40662828Y-33961290D01*
X40662827Y-33961285D01*
X40603101Y-33830506D01*
X40565521Y-33783871D01*
X40284213Y-33502563D01*
X39780399Y-34006377D01*
X39426846Y-34006377D01*
X38825805Y-33405336D01*
X38825804Y-33405336D01*
X38641728Y-33589412D01*
X38604144Y-33636052D01*
X38544418Y-33766831D01*
X38544417Y-33766836D01*
X38523957Y-33909150D01*
X37279718Y-33909150D01*
X36599127Y-33228559D01*
X39002582Y-33228559D01*
X39603623Y-33829600D01*
X39603624Y-33829600D01*
X40107436Y-33325786D01*
X40107436Y-33325785D01*
X39826132Y-33044482D01*
X39826128Y-33044478D01*
X39817928Y-33037870D01*
X45679500Y-33037870D01*
X45679501Y-33037876D01*
X45685908Y-33097483D01*
X45736202Y-33232328D01*
X45736206Y-33232335D01*
X45822452Y-33347544D01*
X45822455Y-33347547D01*
X45937664Y-33433793D01*
X45937671Y-33433797D01*
X46072516Y-33484091D01*
X46132113Y-33490499D01*
X46132122Y-33490499D01*
X46132127Y-33490500D01*
X46132131Y-33490499D01*
X46135434Y-33490677D01*
X46135424Y-33490855D01*
X46135431Y-33490856D01*
X46135417Y-33490977D01*
X46135366Y-33491946D01*
X46197478Y-33510144D01*
X46243264Y-33562921D01*
X46254500Y-33614499D01*
X46254500Y-39098196D01*
X46251862Y-39123634D01*
X46249633Y-39134268D01*
X46249633Y-39134269D01*
X46249633Y-39134271D01*
X46254023Y-39169491D01*
X46254500Y-39177167D01*
X46254500Y-39181116D01*
X46258342Y-39204141D01*
X46265134Y-39258627D01*
X46267373Y-39266147D01*
X46269934Y-39273608D01*
X46269935Y-39273610D01*
X46287906Y-39306818D01*
X46296055Y-39321877D01*
X46320174Y-39371211D01*
X46324742Y-39377609D01*
X46329582Y-39383827D01*
X46369970Y-39421008D01*
X48630820Y-41681857D01*
X48664305Y-41743180D01*
X48667139Y-41769538D01*
X48667139Y-44734157D01*
X48647454Y-44801196D01*
X48636854Y-44815358D01*
X48617262Y-44837969D01*
X48617261Y-44837970D01*
X48557473Y-44968885D01*
X48536992Y-45111341D01*
X48557473Y-45253798D01*
X48559239Y-45257664D01*
X48571938Y-45285471D01*
X48572482Y-45286661D01*
X48582426Y-45355819D01*
X48553402Y-45419375D01*
X48465508Y-45520812D01*
X48465507Y-45520813D01*
X48405719Y-45651728D01*
X48383976Y-45802963D01*
X48382615Y-45802767D01*
X48365553Y-45860875D01*
X48312749Y-45906630D01*
X48296175Y-45912813D01*
X48290270Y-45914546D01*
X48169196Y-45992356D01*
X48074946Y-46101126D01*
X48074945Y-46101128D01*
X48015157Y-46232043D01*
X47994676Y-46374500D01*
X48015157Y-46516956D01*
X48071226Y-46639727D01*
X48074946Y-46647873D01*
X48169195Y-46756643D01*
X48290270Y-46834453D01*
X48290273Y-46834454D01*
X48290272Y-46834454D01*
X48397430Y-46865917D01*
X48419701Y-46872457D01*
X48428359Y-46874999D01*
X48428361Y-46875000D01*
X48428362Y-46875000D01*
X48572285Y-46875000D01*
X48572285Y-46874999D01*
X48679444Y-46843535D01*
X48710373Y-46834454D01*
X48710374Y-46834454D01*
X48742082Y-46814077D01*
X48818159Y-46765184D01*
X48885199Y-46745500D01*
X52064399Y-46745500D01*
X52131438Y-46765185D01*
X52174613Y-46812678D01*
X52221250Y-46903141D01*
X52269991Y-46997686D01*
X52399905Y-47162883D01*
X52399909Y-47162887D01*
X52558746Y-47300521D01*
X52740746Y-47405599D01*
X52740749Y-47405600D01*
X52740756Y-47405604D01*
X52741046Y-47405704D01*
X52741173Y-47405795D01*
X52746121Y-47408054D01*
X52745685Y-47409007D01*
X52797962Y-47446224D01*
X52823937Y-47511085D01*
X52824500Y-47522887D01*
X52824500Y-49039235D01*
X52804815Y-49106274D01*
X52752011Y-49152029D01*
X52743834Y-49155417D01*
X52607669Y-49206203D01*
X52607664Y-49206206D01*
X52492455Y-49292452D01*
X52492452Y-49292455D01*
X52406206Y-49407664D01*
X52406202Y-49407671D01*
X52355908Y-49542517D01*
X52352423Y-49574936D01*
X52349501Y-49602123D01*
X52349500Y-49602135D01*
X52349500Y-50597870D01*
X52349501Y-50597876D01*
X52355908Y-50657483D01*
X52406202Y-50792328D01*
X52406206Y-50792335D01*
X52492452Y-50907544D01*
X52492455Y-50907547D01*
X52607664Y-50993793D01*
X52607671Y-50993797D01*
X52742517Y-51044091D01*
X52742516Y-51044091D01*
X52749444Y-51044835D01*
X52802127Y-51050500D01*
X53597872Y-51050499D01*
X53657483Y-51044091D01*
X53792331Y-50993796D01*
X53907546Y-50907546D01*
X53993796Y-50792331D01*
X54044091Y-50657483D01*
X54050500Y-50597873D01*
X54050499Y-49975000D01*
X54350000Y-49975000D01*
X55075000Y-49975000D01*
X55075000Y-49150000D01*
X54802155Y-49150000D01*
X54742627Y-49156401D01*
X54742620Y-49156403D01*
X54607913Y-49206645D01*
X54607906Y-49206649D01*
X54492812Y-49292809D01*
X54492809Y-49292812D01*
X54406649Y-49407906D01*
X54406645Y-49407913D01*
X54356403Y-49542620D01*
X54356401Y-49542627D01*
X54350000Y-49602155D01*
X54350000Y-49975000D01*
X54050499Y-49975000D01*
X54050499Y-49602128D01*
X54044091Y-49542517D01*
X54033143Y-49513165D01*
X53993797Y-49407671D01*
X53993793Y-49407664D01*
X53907547Y-49292455D01*
X53907544Y-49292452D01*
X53792335Y-49206206D01*
X53792330Y-49206203D01*
X53656166Y-49155417D01*
X53600233Y-49113545D01*
X53575816Y-49048081D01*
X53575500Y-49039235D01*
X53575500Y-47518035D01*
X53595185Y-47450996D01*
X53647989Y-47405241D01*
X53752743Y-47357401D01*
X53752746Y-47357399D01*
X53752753Y-47357396D01*
X53923952Y-47235486D01*
X53934565Y-47224356D01*
X54068985Y-47083379D01*
X54091797Y-47047883D01*
X54182613Y-46906572D01*
X54260725Y-46711457D01*
X54300500Y-46505085D01*
X54300500Y-46047575D01*
X54285528Y-45890782D01*
X54226316Y-45689125D01*
X54130011Y-45502318D01*
X54130009Y-45502316D01*
X54130008Y-45502313D01*
X54000094Y-45337116D01*
X54000090Y-45337112D01*
X53841253Y-45199478D01*
X53659249Y-45094398D01*
X53659245Y-45094396D01*
X53659244Y-45094396D01*
X53460633Y-45025656D01*
X53252602Y-44995746D01*
X53252598Y-44995746D01*
X53042672Y-45005745D01*
X52838421Y-45055296D01*
X52838417Y-45055298D01*
X52647256Y-45142598D01*
X52647251Y-45142601D01*
X52476046Y-45264515D01*
X52476040Y-45264520D01*
X52331014Y-45416620D01*
X52217388Y-45593425D01*
X52139275Y-45788543D01*
X52118956Y-45893968D01*
X52086940Y-45956070D01*
X52026431Y-45991005D01*
X51997197Y-45994500D01*
X49815899Y-45994500D01*
X49748860Y-45974815D01*
X49703105Y-45922011D01*
X49693161Y-45852853D01*
X49722186Y-45789297D01*
X49728218Y-45782819D01*
X50384671Y-45126366D01*
X52358889Y-43152146D01*
X52378746Y-43136022D01*
X52387836Y-43130084D01*
X52409638Y-43102071D01*
X52414733Y-43096303D01*
X52417519Y-43093518D01*
X52421156Y-43088424D01*
X52431086Y-43074516D01*
X52464807Y-43031192D01*
X52468547Y-43024278D01*
X52472006Y-43017203D01*
X52472010Y-43017199D01*
X52483338Y-42979150D01*
X52487672Y-42964593D01*
X52505500Y-42912661D01*
X52506791Y-42904924D01*
X52507768Y-42897086D01*
X52505500Y-42842244D01*
X52505500Y-40708035D01*
X52525185Y-40640996D01*
X52577989Y-40595241D01*
X52682743Y-40547401D01*
X52682746Y-40547399D01*
X52682753Y-40547396D01*
X52853952Y-40425486D01*
X52923179Y-40352883D01*
X52998985Y-40273379D01*
X53002655Y-40267669D01*
X53112613Y-40096572D01*
X53190725Y-39901457D01*
X53230500Y-39695085D01*
X53230500Y-39237575D01*
X53215528Y-39080782D01*
X53156316Y-38879125D01*
X53060011Y-38692318D01*
X53060009Y-38692316D01*
X53060008Y-38692313D01*
X52930094Y-38527116D01*
X52930090Y-38527112D01*
X52771253Y-38389478D01*
X52589249Y-38284398D01*
X52589245Y-38284396D01*
X52589244Y-38284396D01*
X52390633Y-38215656D01*
X52182602Y-38185746D01*
X52182598Y-38185746D01*
X51972672Y-38195745D01*
X51768421Y-38245296D01*
X51768417Y-38245298D01*
X51577256Y-38332598D01*
X51577251Y-38332601D01*
X51406046Y-38454515D01*
X51406040Y-38454520D01*
X51261014Y-38606620D01*
X51147388Y-38783425D01*
X51133598Y-38817872D01*
X51070891Y-38974508D01*
X51067080Y-38984027D01*
X51065156Y-38983257D01*
X51032427Y-39034202D01*
X50968875Y-39063235D01*
X50951211Y-39064500D01*
X49366899Y-39064500D01*
X49299860Y-39044815D01*
X49279218Y-39028181D01*
X49225541Y-38974504D01*
X49126817Y-38875779D01*
X49093333Y-38814458D01*
X49090499Y-38788108D01*
X49090499Y-38022128D01*
X49084470Y-37966042D01*
X49084091Y-37962516D01*
X49033797Y-37827671D01*
X49033793Y-37827664D01*
X48947547Y-37712455D01*
X48947544Y-37712452D01*
X48832335Y-37626206D01*
X48832328Y-37626202D01*
X48697482Y-37575908D01*
X48697483Y-37575908D01*
X48637883Y-37569501D01*
X48637881Y-37569500D01*
X48637873Y-37569500D01*
X48637864Y-37569500D01*
X47642129Y-37569500D01*
X47642123Y-37569501D01*
X47582516Y-37575908D01*
X47447671Y-37626202D01*
X47447664Y-37626206D01*
X47332455Y-37712452D01*
X47332452Y-37712455D01*
X47246206Y-37827664D01*
X47246200Y-37827675D01*
X47245678Y-37829076D01*
X47244782Y-37830271D01*
X47241953Y-37835454D01*
X47241207Y-37835046D01*
X47203803Y-37885007D01*
X47138337Y-37909420D01*
X47070065Y-37894563D01*
X47020663Y-37845155D01*
X47005499Y-37785738D01*
X47005499Y-37052831D01*
X47025184Y-36985795D01*
X47077988Y-36940040D01*
X47147146Y-36930096D01*
X47210702Y-36959121D01*
X47242162Y-37004431D01*
X47242396Y-37004304D01*
X47243583Y-37006477D01*
X47245680Y-37009498D01*
X47246645Y-37012085D01*
X47246649Y-37012093D01*
X47332809Y-37127187D01*
X47332812Y-37127190D01*
X47447906Y-37213350D01*
X47447913Y-37213354D01*
X47582620Y-37263596D01*
X47582627Y-37263598D01*
X47642155Y-37269999D01*
X47642172Y-37270000D01*
X48015000Y-37270000D01*
X48015000Y-36545000D01*
X48265000Y-36545000D01*
X48265000Y-37270000D01*
X48637828Y-37270000D01*
X48637844Y-37269999D01*
X48697372Y-37263598D01*
X48697379Y-37263596D01*
X48832086Y-37213354D01*
X48832093Y-37213350D01*
X48947187Y-37127190D01*
X48947190Y-37127187D01*
X49033350Y-37012093D01*
X49033354Y-37012086D01*
X49083596Y-36877379D01*
X49083598Y-36877372D01*
X49089999Y-36817844D01*
X49090000Y-36817827D01*
X49090000Y-36545000D01*
X48265000Y-36545000D01*
X48015000Y-36545000D01*
X48015000Y-35570000D01*
X48265000Y-35570000D01*
X48265000Y-36295000D01*
X49090000Y-36295000D01*
X49090000Y-36022172D01*
X49089999Y-36022155D01*
X49083598Y-35962627D01*
X49083596Y-35962620D01*
X49033354Y-35827913D01*
X49033350Y-35827906D01*
X48947190Y-35712812D01*
X48947187Y-35712809D01*
X48832093Y-35626649D01*
X48832086Y-35626645D01*
X48697379Y-35576403D01*
X48697372Y-35576401D01*
X48637844Y-35570000D01*
X48265000Y-35570000D01*
X48015000Y-35570000D01*
X47642155Y-35570000D01*
X47582627Y-35576401D01*
X47582620Y-35576403D01*
X47447913Y-35626645D01*
X47447906Y-35626649D01*
X47332812Y-35712809D01*
X47332809Y-35712812D01*
X47246649Y-35827906D01*
X47246644Y-35827915D01*
X47245679Y-35830504D01*
X47244024Y-35832714D01*
X47242396Y-35835696D01*
X47241967Y-35835461D01*
X47203804Y-35886436D01*
X47138339Y-35910850D01*
X47070067Y-35895994D01*
X47020664Y-35846586D01*
X47005499Y-35787165D01*
X47005499Y-33614499D01*
X47025184Y-33547460D01*
X47077988Y-33501705D01*
X47124611Y-33491562D01*
X47124576Y-33490900D01*
X47124571Y-33490854D01*
X47124573Y-33490853D01*
X47124564Y-33490676D01*
X47127857Y-33490499D01*
X47127872Y-33490499D01*
X47187483Y-33484091D01*
X47322331Y-33433796D01*
X47437546Y-33347546D01*
X47523796Y-33232331D01*
X47549565Y-33163242D01*
X47574582Y-33096167D01*
X47616453Y-33040233D01*
X47681917Y-33015816D01*
X47690764Y-33015500D01*
X49486428Y-33015500D01*
X49553467Y-33035185D01*
X49599222Y-33087989D01*
X49605404Y-33104562D01*
X49633684Y-33200875D01*
X49647956Y-33228559D01*
X49729991Y-33387686D01*
X49859905Y-33552883D01*
X49859909Y-33552887D01*
X50018746Y-33690521D01*
X50200750Y-33795601D01*
X50200752Y-33795601D01*
X50200756Y-33795604D01*
X50399367Y-33864344D01*
X50607398Y-33894254D01*
X50817330Y-33884254D01*
X51021576Y-33834704D01*
X51110751Y-33793979D01*
X51212743Y-33747401D01*
X51212746Y-33747399D01*
X51212753Y-33747396D01*
X51383952Y-33625486D01*
X51386444Y-33622873D01*
X51528985Y-33473379D01*
X51544750Y-33448849D01*
X51642613Y-33296572D01*
X51720725Y-33101457D01*
X51760500Y-32895085D01*
X51760500Y-32437575D01*
X51745528Y-32280782D01*
X51686316Y-32079125D01*
X51590011Y-31892318D01*
X51590009Y-31892316D01*
X51590008Y-31892313D01*
X51460094Y-31727116D01*
X51460090Y-31727112D01*
X51301253Y-31589478D01*
X51119249Y-31484398D01*
X51119245Y-31484396D01*
X51119244Y-31484396D01*
X50920633Y-31415656D01*
X50712602Y-31385746D01*
X50712598Y-31385746D01*
X50502672Y-31395745D01*
X50298421Y-31445296D01*
X50298417Y-31445298D01*
X50107256Y-31532598D01*
X50107251Y-31532601D01*
X49936046Y-31654515D01*
X49936040Y-31654520D01*
X49791014Y-31806620D01*
X49677388Y-31983425D01*
X49659680Y-32027658D01*
X49599463Y-32178075D01*
X49597080Y-32184027D01*
X49595156Y-32183257D01*
X49562427Y-32234202D01*
X49498875Y-32263235D01*
X49481211Y-32264500D01*
X47690764Y-32264500D01*
X47623725Y-32244815D01*
X47577970Y-32192011D01*
X47574582Y-32183833D01*
X47523797Y-32047671D01*
X47523793Y-32047664D01*
X47437547Y-31932455D01*
X47437544Y-31932452D01*
X47322335Y-31846206D01*
X47322328Y-31846202D01*
X47187482Y-31795908D01*
X47187483Y-31795908D01*
X47127883Y-31789501D01*
X47127881Y-31789500D01*
X47127873Y-31789500D01*
X47127864Y-31789500D01*
X46132129Y-31789500D01*
X46132123Y-31789501D01*
X46072516Y-31795908D01*
X45937671Y-31846202D01*
X45937664Y-31846206D01*
X45822455Y-31932452D01*
X45822452Y-31932455D01*
X45736206Y-32047664D01*
X45736202Y-32047671D01*
X45685908Y-32182517D01*
X45679501Y-32242116D01*
X45679500Y-32242135D01*
X45679500Y-33037870D01*
X39817928Y-33037870D01*
X39779493Y-33006898D01*
X39648714Y-32947172D01*
X39648709Y-32947171D01*
X39506396Y-32926711D01*
X39364082Y-32947171D01*
X39364077Y-32947172D01*
X39233298Y-33006898D01*
X39186658Y-33044482D01*
X39002582Y-33228558D01*
X39002582Y-33228559D01*
X36599127Y-33228559D01*
X35906819Y-32536251D01*
X35873334Y-32474928D01*
X35870500Y-32448570D01*
X35870500Y-30765000D01*
X45680000Y-30765000D01*
X45680000Y-31037844D01*
X45686401Y-31097372D01*
X45686403Y-31097379D01*
X45736645Y-31232086D01*
X45736649Y-31232093D01*
X45822809Y-31347187D01*
X45822812Y-31347190D01*
X45937906Y-31433350D01*
X45937913Y-31433354D01*
X46072620Y-31483596D01*
X46072627Y-31483598D01*
X46132155Y-31489999D01*
X46132172Y-31490000D01*
X46505000Y-31490000D01*
X46505000Y-30765000D01*
X46755000Y-30765000D01*
X46755000Y-31490000D01*
X47127828Y-31490000D01*
X47127844Y-31489999D01*
X47187372Y-31483598D01*
X47187379Y-31483596D01*
X47322086Y-31433354D01*
X47322093Y-31433350D01*
X47437187Y-31347190D01*
X47437190Y-31347187D01*
X47523350Y-31232093D01*
X47523354Y-31232086D01*
X47573596Y-31097379D01*
X47573598Y-31097372D01*
X47579999Y-31037844D01*
X47580000Y-31037827D01*
X47580000Y-30765000D01*
X46755000Y-30765000D01*
X46505000Y-30765000D01*
X45680000Y-30765000D01*
X35870500Y-30765000D01*
X35870500Y-30515000D01*
X45680000Y-30515000D01*
X46505000Y-30515000D01*
X46505000Y-29790000D01*
X46755000Y-29790000D01*
X46755000Y-30515000D01*
X47580000Y-30515000D01*
X47580000Y-30242172D01*
X47579999Y-30242155D01*
X47573598Y-30182627D01*
X47573596Y-30182620D01*
X47523354Y-30047913D01*
X47523350Y-30047906D01*
X47437190Y-29932812D01*
X47437187Y-29932809D01*
X47322093Y-29846649D01*
X47322086Y-29846645D01*
X47187379Y-29796403D01*
X47187372Y-29796401D01*
X47127844Y-29790000D01*
X46755000Y-29790000D01*
X46505000Y-29790000D01*
X46132155Y-29790000D01*
X46072627Y-29796401D01*
X46072620Y-29796403D01*
X45937913Y-29846645D01*
X45937906Y-29846649D01*
X45822812Y-29932809D01*
X45822809Y-29932812D01*
X45736649Y-30047906D01*
X45736645Y-30047913D01*
X45686403Y-30182620D01*
X45686401Y-30182627D01*
X45680000Y-30242155D01*
X45680000Y-30515000D01*
X35870500Y-30515000D01*
X35870500Y-26007425D01*
X40289500Y-26007425D01*
X40304472Y-26164218D01*
X40363684Y-26365875D01*
X40375889Y-26389549D01*
X40459991Y-26552686D01*
X40589905Y-26717883D01*
X40589909Y-26717887D01*
X40748746Y-26855521D01*
X40930750Y-26960601D01*
X40930752Y-26960601D01*
X40930756Y-26960604D01*
X41129367Y-27029344D01*
X41337398Y-27059254D01*
X41547330Y-27049254D01*
X41751576Y-26999704D01*
X41867430Y-26946795D01*
X41942743Y-26912401D01*
X41942746Y-26912399D01*
X41942753Y-26912396D01*
X42113952Y-26790486D01*
X42123050Y-26780945D01*
X42258985Y-26638379D01*
X42258988Y-26638375D01*
X42372613Y-26461572D01*
X42450725Y-26266457D01*
X42490500Y-26060085D01*
X42490500Y-26007425D01*
X42789500Y-26007425D01*
X42804472Y-26164218D01*
X42863684Y-26365875D01*
X42875889Y-26389549D01*
X42959991Y-26552686D01*
X43089905Y-26717883D01*
X43089909Y-26717887D01*
X43248746Y-26855521D01*
X43430750Y-26960601D01*
X43430752Y-26960601D01*
X43430756Y-26960604D01*
X43629367Y-27029344D01*
X43837398Y-27059254D01*
X44047330Y-27049254D01*
X44251576Y-26999704D01*
X44367430Y-26946795D01*
X44442743Y-26912401D01*
X44442746Y-26912399D01*
X44442753Y-26912396D01*
X44613952Y-26790486D01*
X44623050Y-26780945D01*
X44758985Y-26638379D01*
X44758988Y-26638375D01*
X44872613Y-26461572D01*
X44950725Y-26266457D01*
X44990500Y-26060085D01*
X44990500Y-25652575D01*
X44975528Y-25495782D01*
X44916316Y-25294125D01*
X44847812Y-25161246D01*
X44834591Y-25092641D01*
X44860559Y-25027776D01*
X44917473Y-24987248D01*
X44987263Y-24983923D01*
X45045710Y-25016747D01*
X45298412Y-25269450D01*
X45331897Y-25330773D01*
X45329869Y-25387642D01*
X45330393Y-25387743D01*
X45329745Y-25391100D01*
X45329712Y-25392051D01*
X45329277Y-25393532D01*
X45289955Y-25597556D01*
X45289500Y-25599915D01*
X45289500Y-26007425D01*
X45304472Y-26164218D01*
X45363684Y-26365875D01*
X45375889Y-26389549D01*
X45459991Y-26552686D01*
X45589905Y-26717883D01*
X45589909Y-26717887D01*
X45748746Y-26855521D01*
X45930750Y-26960601D01*
X45930752Y-26960601D01*
X45930756Y-26960604D01*
X46129367Y-27029344D01*
X46337398Y-27059254D01*
X46547330Y-27049254D01*
X46751576Y-26999704D01*
X46867430Y-26946795D01*
X46942743Y-26912401D01*
X46942746Y-26912399D01*
X46942753Y-26912396D01*
X47113952Y-26790486D01*
X47123050Y-26780945D01*
X47258985Y-26638379D01*
X47258988Y-26638375D01*
X47372613Y-26461572D01*
X47450725Y-26266457D01*
X47490500Y-26060085D01*
X47490500Y-25652575D01*
X47475528Y-25495782D01*
X47416316Y-25294125D01*
X47320011Y-25107318D01*
X47320009Y-25107316D01*
X47320008Y-25107313D01*
X47190094Y-24942116D01*
X47190090Y-24942112D01*
X47031253Y-24804478D01*
X46849249Y-24699398D01*
X46849245Y-24699396D01*
X46849244Y-24699396D01*
X46650633Y-24630656D01*
X46442602Y-24600746D01*
X46442598Y-24600746D01*
X46232672Y-24610745D01*
X46028427Y-24660295D01*
X46028425Y-24660295D01*
X46014924Y-24666461D01*
X45916516Y-24711402D01*
X45847360Y-24721345D01*
X45783804Y-24692320D01*
X45777326Y-24686288D01*
X44591819Y-23500781D01*
X44558334Y-23439458D01*
X44555500Y-23413100D01*
X44555500Y-20273035D01*
X44575185Y-20205996D01*
X44627989Y-20160241D01*
X44732743Y-20112401D01*
X44732746Y-20112399D01*
X44732753Y-20112396D01*
X44903952Y-19990486D01*
X44910448Y-19983674D01*
X45048985Y-19838379D01*
X45052524Y-19832873D01*
X45162613Y-19661572D01*
X45240725Y-19466457D01*
X45280500Y-19260085D01*
X45280500Y-18852575D01*
X45265528Y-18695782D01*
X45206316Y-18494125D01*
X45110011Y-18307318D01*
X45110009Y-18307316D01*
X45110008Y-18307313D01*
X44980094Y-18142116D01*
X44980090Y-18142112D01*
X44821253Y-18004478D01*
X44639249Y-17899398D01*
X44639245Y-17899396D01*
X44639244Y-17899396D01*
X44440633Y-17830656D01*
X44232602Y-17800746D01*
X44232598Y-17800746D01*
X44022672Y-17810745D01*
X43818421Y-17860296D01*
X43818417Y-17860298D01*
X43627256Y-17947598D01*
X43627251Y-17947601D01*
X43456046Y-18069515D01*
X43456040Y-18069520D01*
X43311014Y-18221620D01*
X43197388Y-18398425D01*
X43119274Y-18593544D01*
X43090328Y-18743733D01*
X43079500Y-18799915D01*
X43079500Y-19207425D01*
X43094472Y-19364218D01*
X43113842Y-19430185D01*
X43140731Y-19521763D01*
X43153684Y-19565875D01*
X43208370Y-19671951D01*
X43249991Y-19752686D01*
X43379905Y-19917883D01*
X43379909Y-19917887D01*
X43538746Y-20055521D01*
X43720746Y-20160599D01*
X43720749Y-20160600D01*
X43720756Y-20160604D01*
X43721046Y-20160704D01*
X43721173Y-20160795D01*
X43726121Y-20163054D01*
X43725685Y-20164007D01*
X43777962Y-20201224D01*
X43803937Y-20266085D01*
X43804500Y-20277887D01*
X43804500Y-23568196D01*
X43801862Y-23593634D01*
X43799633Y-23604268D01*
X43799633Y-23604269D01*
X43799633Y-23604271D01*
X43804023Y-23639491D01*
X43804500Y-23647167D01*
X43804500Y-23651116D01*
X43808342Y-23674141D01*
X43815134Y-23728627D01*
X43817373Y-23736147D01*
X43819934Y-23743608D01*
X43819935Y-23743610D01*
X43846055Y-23791876D01*
X43846055Y-23791877D01*
X43870174Y-23841211D01*
X43874742Y-23847609D01*
X43879582Y-23853827D01*
X43919970Y-23891008D01*
X44580233Y-24551270D01*
X44613718Y-24612593D01*
X44608734Y-24682284D01*
X44566863Y-24738218D01*
X44501398Y-24762635D01*
X44433125Y-24747783D01*
X44430552Y-24746338D01*
X44349249Y-24699398D01*
X44349245Y-24699396D01*
X44349244Y-24699396D01*
X44150633Y-24630656D01*
X43942602Y-24600746D01*
X43942598Y-24600746D01*
X43732672Y-24610745D01*
X43528421Y-24660296D01*
X43528417Y-24660298D01*
X43337256Y-24747598D01*
X43337251Y-24747601D01*
X43166046Y-24869515D01*
X43166040Y-24869520D01*
X43021014Y-25021620D01*
X42907388Y-25198425D01*
X42829274Y-25393544D01*
X42789500Y-25599914D01*
X42789500Y-25599915D01*
X42789500Y-26007425D01*
X42490500Y-26007425D01*
X42490500Y-25652575D01*
X42475528Y-25495782D01*
X42416316Y-25294125D01*
X42320011Y-25107318D01*
X42320009Y-25107316D01*
X42320008Y-25107313D01*
X42190094Y-24942116D01*
X42190090Y-24942112D01*
X42031253Y-24804478D01*
X41849249Y-24699398D01*
X41849245Y-24699396D01*
X41849244Y-24699396D01*
X41650633Y-24630656D01*
X41442602Y-24600746D01*
X41442598Y-24600746D01*
X41232672Y-24610745D01*
X41028421Y-24660296D01*
X41028417Y-24660298D01*
X40837256Y-24747598D01*
X40837251Y-24747601D01*
X40666046Y-24869515D01*
X40666040Y-24869520D01*
X40521014Y-25021620D01*
X40407388Y-25198425D01*
X40329274Y-25393544D01*
X40289500Y-25599914D01*
X40289500Y-25599915D01*
X40289500Y-26007425D01*
X35870500Y-26007425D01*
X35870500Y-24787143D01*
X35873334Y-24760785D01*
X35874359Y-24756073D01*
X35870658Y-24704329D01*
X35870500Y-24699904D01*
X35870500Y-24684201D01*
X35868264Y-24668657D01*
X35867791Y-24664254D01*
X35867605Y-24661649D01*
X35864091Y-24612517D01*
X35862407Y-24608002D01*
X35855850Y-24582312D01*
X35855165Y-24577543D01*
X35852799Y-24572363D01*
X35833616Y-24530359D01*
X35831932Y-24526295D01*
X35813796Y-24477669D01*
X35810905Y-24473807D01*
X35797379Y-24451010D01*
X35795377Y-24446627D01*
X35795375Y-24446625D01*
X35795375Y-24446624D01*
X35795374Y-24446623D01*
X35761403Y-24407418D01*
X35758625Y-24403970D01*
X35749224Y-24391412D01*
X35749222Y-24391410D01*
X35749220Y-24391407D01*
X35738117Y-24380304D01*
X35735100Y-24377063D01*
X35701128Y-24337857D01*
X35697071Y-24335250D01*
X35676427Y-24318614D01*
X31666229Y-20308415D01*
X31632744Y-20247092D01*
X31637728Y-20177400D01*
X31654644Y-20146423D01*
X31743793Y-20027335D01*
X31743792Y-20027335D01*
X31743796Y-20027331D01*
X31794091Y-19892483D01*
X31800500Y-19832873D01*
X31800500Y-19207425D01*
X38079500Y-19207425D01*
X38094472Y-19364218D01*
X38113842Y-19430185D01*
X38140731Y-19521763D01*
X38153684Y-19565875D01*
X38208370Y-19671951D01*
X38249991Y-19752686D01*
X38379905Y-19917883D01*
X38379909Y-19917887D01*
X38538746Y-20055521D01*
X38720750Y-20160601D01*
X38720752Y-20160601D01*
X38720756Y-20160604D01*
X38919367Y-20229344D01*
X39127398Y-20259254D01*
X39337330Y-20249254D01*
X39541576Y-20199704D01*
X39623486Y-20162297D01*
X39732743Y-20112401D01*
X39732746Y-20112399D01*
X39732753Y-20112396D01*
X39903952Y-19990486D01*
X39910448Y-19983674D01*
X40048985Y-19838379D01*
X40052524Y-19832873D01*
X40162613Y-19661572D01*
X40240725Y-19466457D01*
X40280500Y-19260085D01*
X40280500Y-19207425D01*
X40579500Y-19207425D01*
X40594472Y-19364218D01*
X40613842Y-19430185D01*
X40640731Y-19521763D01*
X40653684Y-19565875D01*
X40708370Y-19671951D01*
X40749991Y-19752686D01*
X40879905Y-19917883D01*
X40879909Y-19917887D01*
X41038746Y-20055521D01*
X41220750Y-20160601D01*
X41220752Y-20160601D01*
X41220756Y-20160604D01*
X41419367Y-20229344D01*
X41627398Y-20259254D01*
X41837330Y-20249254D01*
X42041576Y-20199704D01*
X42123486Y-20162297D01*
X42232743Y-20112401D01*
X42232746Y-20112399D01*
X42232753Y-20112396D01*
X42403952Y-19990486D01*
X42410448Y-19983674D01*
X42548985Y-19838379D01*
X42552524Y-19832873D01*
X42662613Y-19661572D01*
X42740725Y-19466457D01*
X42780500Y-19260085D01*
X42780500Y-18852575D01*
X42765528Y-18695782D01*
X42706316Y-18494125D01*
X42610011Y-18307318D01*
X42610009Y-18307316D01*
X42610008Y-18307313D01*
X42480094Y-18142116D01*
X42480090Y-18142112D01*
X42321253Y-18004478D01*
X42139249Y-17899398D01*
X42139245Y-17899396D01*
X42139244Y-17899396D01*
X41940633Y-17830656D01*
X41732602Y-17800746D01*
X41732598Y-17800746D01*
X41522672Y-17810745D01*
X41318421Y-17860296D01*
X41318417Y-17860298D01*
X41127256Y-17947598D01*
X41127251Y-17947601D01*
X40956046Y-18069515D01*
X40956040Y-18069520D01*
X40811014Y-18221620D01*
X40697388Y-18398425D01*
X40619274Y-18593544D01*
X40590328Y-18743733D01*
X40579500Y-18799915D01*
X40579500Y-19207425D01*
X40280500Y-19207425D01*
X40280500Y-18852575D01*
X40265528Y-18695782D01*
X40206316Y-18494125D01*
X40110011Y-18307318D01*
X40110009Y-18307316D01*
X40110008Y-18307313D01*
X39980094Y-18142116D01*
X39980090Y-18142112D01*
X39821253Y-18004478D01*
X39639249Y-17899398D01*
X39639245Y-17899396D01*
X39639244Y-17899396D01*
X39440633Y-17830656D01*
X39232602Y-17800746D01*
X39232598Y-17800746D01*
X39022672Y-17810745D01*
X38818421Y-17860296D01*
X38818417Y-17860298D01*
X38627256Y-17947598D01*
X38627251Y-17947601D01*
X38456046Y-18069515D01*
X38456040Y-18069520D01*
X38311014Y-18221620D01*
X38197388Y-18398425D01*
X38119274Y-18593544D01*
X38090328Y-18743733D01*
X38079500Y-18799915D01*
X38079500Y-19207425D01*
X31800500Y-19207425D01*
X31800499Y-18237128D01*
X31794091Y-18177517D01*
X31791789Y-18171346D01*
X31753809Y-18069515D01*
X31747560Y-18052763D01*
X31742577Y-17983073D01*
X31776060Y-17921752D01*
X32590994Y-17106818D01*
X32652317Y-17073334D01*
X32678675Y-17070500D01*
X44961324Y-17070500D01*
X45028363Y-17090185D01*
X45049005Y-17106819D01*
X45897592Y-17955406D01*
X45931077Y-18016729D01*
X45926093Y-18086421D01*
X45899655Y-18128656D01*
X45811012Y-18221623D01*
X45697388Y-18398425D01*
X45619274Y-18593544D01*
X45590328Y-18743733D01*
X45579500Y-18799915D01*
X45579500Y-19207425D01*
X45594472Y-19364218D01*
X45613842Y-19430185D01*
X45640731Y-19521763D01*
X45653684Y-19565875D01*
X45708370Y-19671951D01*
X45749991Y-19752686D01*
X45879905Y-19917883D01*
X45879909Y-19917887D01*
X46031002Y-20048811D01*
X46038744Y-20055519D01*
X46117500Y-20100989D01*
X46165715Y-20151554D01*
X46179500Y-20208375D01*
X46179500Y-21062858D01*
X46176667Y-21089206D01*
X46175641Y-21093927D01*
X46175641Y-21093929D01*
X46175641Y-21093930D01*
X46179342Y-21145669D01*
X46179500Y-21150094D01*
X46179500Y-21165799D01*
X46181734Y-21181343D01*
X46182207Y-21185740D01*
X46185909Y-21237485D01*
X46187593Y-21242000D01*
X46194148Y-21267682D01*
X46194834Y-21272455D01*
X46194835Y-21272457D01*
X46216383Y-21319642D01*
X46218071Y-21323716D01*
X46236203Y-21372329D01*
X46239096Y-21376194D01*
X46252617Y-21398983D01*
X46254619Y-21403367D01*
X46254622Y-21403371D01*
X46254623Y-21403373D01*
X46288598Y-21442583D01*
X46291362Y-21446013D01*
X46300775Y-21458588D01*
X46300782Y-21458596D01*
X46311886Y-21469700D01*
X46314896Y-21472932D01*
X46317784Y-21476265D01*
X46348871Y-21512142D01*
X46348874Y-21512145D01*
X46352928Y-21514750D01*
X46373571Y-21531385D01*
X48353181Y-23510995D01*
X48386666Y-23572318D01*
X48389500Y-23598676D01*
X48389500Y-24646467D01*
X48369815Y-24713506D01*
X48337427Y-24747474D01*
X48166052Y-24869509D01*
X48166040Y-24869520D01*
X48021014Y-25021620D01*
X47907388Y-25198425D01*
X47829274Y-25393544D01*
X47789500Y-25599914D01*
X47789500Y-25599915D01*
X47789500Y-26007425D01*
X47804472Y-26164218D01*
X47863684Y-26365875D01*
X47875889Y-26389549D01*
X47959991Y-26552686D01*
X48089905Y-26717883D01*
X48089909Y-26717887D01*
X48248746Y-26855521D01*
X48430753Y-26960603D01*
X48430756Y-26960604D01*
X48447448Y-26966381D01*
X48504362Y-27006906D01*
X48506131Y-27009211D01*
X48509308Y-27013455D01*
X48510779Y-27015420D01*
X48521886Y-27026527D01*
X48524896Y-27029759D01*
X48531229Y-27037068D01*
X48558871Y-27068969D01*
X48558874Y-27068972D01*
X48562928Y-27071577D01*
X48583570Y-27088211D01*
X52623182Y-31127823D01*
X52656666Y-31189144D01*
X52659500Y-31215502D01*
X52659500Y-31265500D01*
X52639815Y-31332539D01*
X52587011Y-31378294D01*
X52535505Y-31389500D01*
X52512132Y-31389500D01*
X52512123Y-31389501D01*
X52452516Y-31395908D01*
X52317671Y-31446202D01*
X52317664Y-31446206D01*
X52202455Y-31532452D01*
X52202452Y-31532455D01*
X52116206Y-31647664D01*
X52116202Y-31647671D01*
X52065908Y-31782517D01*
X52059501Y-31842116D01*
X52059501Y-31842123D01*
X52059500Y-31842135D01*
X52059500Y-33437870D01*
X52059501Y-33437876D01*
X52065908Y-33497483D01*
X52116202Y-33632328D01*
X52116206Y-33632335D01*
X52202452Y-33747544D01*
X52202455Y-33747547D01*
X52317664Y-33833793D01*
X52317671Y-33833797D01*
X52452517Y-33884091D01*
X52452516Y-33884091D01*
X52459444Y-33884835D01*
X52512127Y-33890500D01*
X53651323Y-33890499D01*
X53718362Y-33910184D01*
X53739004Y-33926818D01*
X54093181Y-34280995D01*
X54126666Y-34342318D01*
X54129500Y-34368676D01*
X54129500Y-38065500D01*
X54109815Y-38132539D01*
X54057011Y-38178294D01*
X54005505Y-38189500D01*
X53982132Y-38189500D01*
X53982123Y-38189501D01*
X53922516Y-38195908D01*
X53787671Y-38246202D01*
X53787664Y-38246206D01*
X53672455Y-38332452D01*
X53672452Y-38332455D01*
X53586206Y-38447664D01*
X53586202Y-38447671D01*
X53535908Y-38582517D01*
X53529501Y-38642116D01*
X53529501Y-38642123D01*
X53529500Y-38642135D01*
X53529500Y-40237870D01*
X53529501Y-40237876D01*
X53535908Y-40297483D01*
X53586202Y-40432328D01*
X53586206Y-40432335D01*
X53672452Y-40547544D01*
X53672455Y-40547547D01*
X53787664Y-40633793D01*
X53787671Y-40633797D01*
X53922517Y-40684091D01*
X53922516Y-40684091D01*
X53929444Y-40684835D01*
X53982127Y-40690500D01*
X55075500Y-40690499D01*
X55142539Y-40710184D01*
X55188294Y-40762987D01*
X55199500Y-40814499D01*
X55199500Y-44875500D01*
X55179815Y-44942539D01*
X55127011Y-44988294D01*
X55075505Y-44999500D01*
X55052132Y-44999500D01*
X55052123Y-44999501D01*
X54992516Y-45005908D01*
X54857671Y-45056202D01*
X54857664Y-45056206D01*
X54742455Y-45142452D01*
X54742452Y-45142455D01*
X54656206Y-45257664D01*
X54656202Y-45257671D01*
X54605908Y-45392517D01*
X54601311Y-45435283D01*
X54599501Y-45452123D01*
X54599500Y-45452135D01*
X54599500Y-47047870D01*
X54599501Y-47047876D01*
X54605908Y-47107483D01*
X54656202Y-47242328D01*
X54656206Y-47242335D01*
X54742452Y-47357544D01*
X54742455Y-47357547D01*
X54857664Y-47443793D01*
X54857671Y-47443797D01*
X54878193Y-47451451D01*
X54992517Y-47494091D01*
X55052127Y-47500500D01*
X55625500Y-47500499D01*
X55692539Y-47520183D01*
X55738294Y-47572987D01*
X55749500Y-47624499D01*
X55749500Y-49028260D01*
X55729815Y-49095299D01*
X55677011Y-49141054D01*
X55612245Y-49151550D01*
X55597828Y-49150000D01*
X55325000Y-49150000D01*
X55325000Y-50101000D01*
X55305315Y-50168039D01*
X55252511Y-50213794D01*
X55201000Y-50225000D01*
X54350000Y-50225000D01*
X54350000Y-50597844D01*
X54356401Y-50657372D01*
X54356403Y-50657379D01*
X54406645Y-50792086D01*
X54406649Y-50792093D01*
X54492809Y-50907187D01*
X54492812Y-50907190D01*
X54607906Y-50993350D01*
X54607913Y-50993354D01*
X54742620Y-51043596D01*
X54742627Y-51043598D01*
X54802155Y-51049999D01*
X54802172Y-51050000D01*
X55032773Y-51050000D01*
X55099812Y-51069685D01*
X55145567Y-51122489D01*
X55155511Y-51191647D01*
X55126486Y-51255203D01*
X55120454Y-51261681D01*
X53873568Y-52508565D01*
X53852938Y-52525192D01*
X53848876Y-52527803D01*
X53848867Y-52527810D01*
X53814905Y-52567004D01*
X53811892Y-52570240D01*
X53800781Y-52581351D01*
X53791354Y-52593945D01*
X53788587Y-52597377D01*
X53786046Y-52600311D01*
X53754623Y-52636575D01*
X53754617Y-52636585D01*
X53752615Y-52640969D01*
X53739100Y-52663748D01*
X53736206Y-52667613D01*
X53736200Y-52667624D01*
X53718078Y-52716213D01*
X53716385Y-52720302D01*
X53694835Y-52767492D01*
X53694833Y-52767499D01*
X53694146Y-52772276D01*
X53687598Y-52797935D01*
X53685910Y-52802462D01*
X53685909Y-52802466D01*
X53682207Y-52854209D01*
X53681734Y-52858605D01*
X53679500Y-52874148D01*
X53679500Y-52889853D01*
X53679342Y-52894278D01*
X53675641Y-52946018D01*
X53675641Y-52946022D01*
X53676666Y-52950734D01*
X53679500Y-52977092D01*
X53679500Y-63426467D01*
X53659815Y-63493506D01*
X53627427Y-63527474D01*
X53456052Y-63649509D01*
X53456040Y-63649520D01*
X53311014Y-63801620D01*
X53197388Y-63978425D01*
X53119274Y-64173544D01*
X53079500Y-64379914D01*
X53079499Y-64787419D01*
X53092710Y-64925764D01*
X53079486Y-64994371D01*
X53056952Y-65025232D01*
X52956273Y-65125911D01*
X52894950Y-65159396D01*
X52825258Y-65154412D01*
X52769325Y-65112540D01*
X52744908Y-65047076D01*
X52746832Y-65014767D01*
X52780500Y-64840085D01*
X52780500Y-64432575D01*
X52765528Y-64275782D01*
X52706316Y-64074125D01*
X52610011Y-63887318D01*
X52610009Y-63887316D01*
X52610008Y-63887313D01*
X52480094Y-63722116D01*
X52480090Y-63722112D01*
X52321253Y-63584478D01*
X52139249Y-63479398D01*
X52139245Y-63479396D01*
X52139244Y-63479396D01*
X51940633Y-63410656D01*
X51732602Y-63380746D01*
X51732598Y-63380746D01*
X51522672Y-63390745D01*
X51318421Y-63440296D01*
X51318417Y-63440298D01*
X51127256Y-63527598D01*
X51127251Y-63527601D01*
X50956046Y-63649515D01*
X50956040Y-63649520D01*
X50811014Y-63801620D01*
X50697388Y-63978425D01*
X50619274Y-64173544D01*
X50592724Y-64311301D01*
X50579500Y-64379915D01*
X50579500Y-64787425D01*
X50594472Y-64944218D01*
X50613742Y-65009846D01*
X50652365Y-65141385D01*
X50653684Y-65145875D01*
X50710355Y-65255802D01*
X50749991Y-65332686D01*
X50879905Y-65497883D01*
X50879909Y-65497887D01*
X51038746Y-65635521D01*
X51220750Y-65740601D01*
X51220752Y-65740601D01*
X51220756Y-65740604D01*
X51419367Y-65809344D01*
X51627398Y-65839254D01*
X51837330Y-65829254D01*
X51956818Y-65800266D01*
X52026609Y-65803590D01*
X52083523Y-65844118D01*
X52109491Y-65908982D01*
X52096269Y-65977589D01*
X52073734Y-66008451D01*
X51849005Y-66233181D01*
X51787682Y-66266666D01*
X51761324Y-66269500D01*
X38678676Y-66269500D01*
X38611637Y-66249815D01*
X38590995Y-66233181D01*
X37145239Y-64787425D01*
X38079500Y-64787425D01*
X38094472Y-64944218D01*
X38113742Y-65009846D01*
X38152365Y-65141385D01*
X38153684Y-65145875D01*
X38210355Y-65255802D01*
X38249991Y-65332686D01*
X38379905Y-65497883D01*
X38379909Y-65497887D01*
X38538746Y-65635521D01*
X38720750Y-65740601D01*
X38720752Y-65740601D01*
X38720756Y-65740604D01*
X38919367Y-65809344D01*
X39127398Y-65839254D01*
X39337330Y-65829254D01*
X39541576Y-65779704D01*
X39627199Y-65740601D01*
X39732743Y-65692401D01*
X39732746Y-65692399D01*
X39732753Y-65692396D01*
X39903952Y-65570486D01*
X39908623Y-65565588D01*
X40048985Y-65418379D01*
X40049576Y-65417460D01*
X40162613Y-65241572D01*
X40240725Y-65046457D01*
X40280500Y-64840085D01*
X40280500Y-64787425D01*
X40579500Y-64787425D01*
X40594472Y-64944218D01*
X40613742Y-65009846D01*
X40652365Y-65141385D01*
X40653684Y-65145875D01*
X40710355Y-65255802D01*
X40749991Y-65332686D01*
X40879905Y-65497883D01*
X40879909Y-65497887D01*
X41038746Y-65635521D01*
X41220750Y-65740601D01*
X41220752Y-65740601D01*
X41220756Y-65740604D01*
X41419367Y-65809344D01*
X41627398Y-65839254D01*
X41837330Y-65829254D01*
X42041576Y-65779704D01*
X42127199Y-65740601D01*
X42232743Y-65692401D01*
X42232746Y-65692399D01*
X42232753Y-65692396D01*
X42403952Y-65570486D01*
X42408623Y-65565588D01*
X42548985Y-65418379D01*
X42549576Y-65417460D01*
X42662613Y-65241572D01*
X42740725Y-65046457D01*
X42780500Y-64840085D01*
X42780500Y-64432575D01*
X42765528Y-64275782D01*
X42706316Y-64074125D01*
X42610011Y-63887318D01*
X42610009Y-63887316D01*
X42610008Y-63887313D01*
X42480094Y-63722116D01*
X42480090Y-63722112D01*
X42321253Y-63584478D01*
X42139249Y-63479398D01*
X42139245Y-63479396D01*
X42139244Y-63479396D01*
X41940633Y-63410656D01*
X41732602Y-63380746D01*
X41732598Y-63380746D01*
X41522672Y-63390745D01*
X41318421Y-63440296D01*
X41318417Y-63440298D01*
X41127256Y-63527598D01*
X41127251Y-63527601D01*
X40956046Y-63649515D01*
X40956040Y-63649520D01*
X40811014Y-63801620D01*
X40697388Y-63978425D01*
X40619274Y-64173544D01*
X40592724Y-64311301D01*
X40579500Y-64379915D01*
X40579500Y-64787425D01*
X40280500Y-64787425D01*
X40280500Y-64432575D01*
X40265528Y-64275782D01*
X40206316Y-64074125D01*
X40110011Y-63887318D01*
X40110009Y-63887316D01*
X40110008Y-63887313D01*
X39980094Y-63722116D01*
X39980090Y-63722112D01*
X39821253Y-63584478D01*
X39639249Y-63479398D01*
X39639245Y-63479396D01*
X39639244Y-63479396D01*
X39440633Y-63410656D01*
X39232602Y-63380746D01*
X39232598Y-63380746D01*
X39022672Y-63390745D01*
X38818421Y-63440296D01*
X38818417Y-63440298D01*
X38627256Y-63527598D01*
X38627251Y-63527601D01*
X38456046Y-63649515D01*
X38456040Y-63649520D01*
X38311014Y-63801620D01*
X38197388Y-63978425D01*
X38119274Y-64173544D01*
X38092724Y-64311301D01*
X38079500Y-64379915D01*
X38079500Y-64787425D01*
X37145239Y-64787425D01*
X36926819Y-64569005D01*
X36893334Y-64507682D01*
X36890500Y-64481324D01*
X36890500Y-56703531D01*
X36910185Y-56636492D01*
X36942573Y-56602523D01*
X36942748Y-56602398D01*
X36942753Y-56602396D01*
X37113952Y-56480486D01*
X37133515Y-56459967D01*
X37194022Y-56425033D01*
X37263813Y-56428356D01*
X37320728Y-56468883D01*
X37334659Y-56491075D01*
X37339079Y-56500116D01*
X37343647Y-56506514D01*
X37348486Y-56512731D01*
X37388876Y-56549913D01*
X41573708Y-60734746D01*
X42967850Y-62128888D01*
X42983975Y-62148744D01*
X42987009Y-62153387D01*
X42989916Y-62157836D01*
X43012618Y-62175506D01*
X43017925Y-62179636D01*
X43023687Y-62184725D01*
X43026482Y-62187520D01*
X43045495Y-62201094D01*
X43088811Y-62234809D01*
X43088818Y-62234811D01*
X43095720Y-62238547D01*
X43102796Y-62242006D01*
X43102801Y-62242010D01*
X43155402Y-62257670D01*
X43155403Y-62257670D01*
X43207338Y-62275500D01*
X43215072Y-62276790D01*
X43222910Y-62277767D01*
X43222912Y-62277768D01*
X43222913Y-62277767D01*
X43222914Y-62277768D01*
X43277756Y-62275500D01*
X43763101Y-62275500D01*
X43830140Y-62295185D01*
X43850782Y-62311819D01*
X44870232Y-63331270D01*
X44903717Y-63392593D01*
X44898733Y-63462285D01*
X44856861Y-63518218D01*
X44791397Y-63542635D01*
X44723124Y-63527783D01*
X44720551Y-63526338D01*
X44639249Y-63479398D01*
X44639245Y-63479396D01*
X44639244Y-63479396D01*
X44440633Y-63410656D01*
X44232602Y-63380746D01*
X44232598Y-63380746D01*
X44022672Y-63390745D01*
X43818421Y-63440296D01*
X43818417Y-63440298D01*
X43627256Y-63527598D01*
X43627251Y-63527601D01*
X43456046Y-63649515D01*
X43456040Y-63649520D01*
X43311014Y-63801620D01*
X43197388Y-63978425D01*
X43119274Y-64173544D01*
X43092724Y-64311301D01*
X43079500Y-64379915D01*
X43079500Y-64787425D01*
X43094472Y-64944218D01*
X43113742Y-65009846D01*
X43152365Y-65141385D01*
X43153684Y-65145875D01*
X43210355Y-65255802D01*
X43249991Y-65332686D01*
X43379905Y-65497883D01*
X43379909Y-65497887D01*
X43538746Y-65635521D01*
X43720750Y-65740601D01*
X43720752Y-65740601D01*
X43720756Y-65740604D01*
X43919367Y-65809344D01*
X44127398Y-65839254D01*
X44337330Y-65829254D01*
X44541576Y-65779704D01*
X44627199Y-65740601D01*
X44732743Y-65692401D01*
X44732746Y-65692399D01*
X44732753Y-65692396D01*
X44903952Y-65570486D01*
X44908623Y-65565588D01*
X45048985Y-65418379D01*
X45049576Y-65417460D01*
X45162613Y-65241572D01*
X45240725Y-65046457D01*
X45280500Y-64840085D01*
X45280500Y-64432575D01*
X45265528Y-64275782D01*
X45206316Y-64074125D01*
X45137813Y-63941247D01*
X45124592Y-63872643D01*
X45150560Y-63807778D01*
X45207474Y-63767250D01*
X45277264Y-63763925D01*
X45335711Y-63796749D01*
X45588412Y-64049450D01*
X45621897Y-64110773D01*
X45619869Y-64167642D01*
X45620393Y-64167743D01*
X45619745Y-64171100D01*
X45619712Y-64172051D01*
X45619277Y-64173532D01*
X45603280Y-64256535D01*
X45579500Y-64379915D01*
X45579500Y-64787425D01*
X45594472Y-64944218D01*
X45613742Y-65009846D01*
X45652365Y-65141385D01*
X45653684Y-65145875D01*
X45710355Y-65255802D01*
X45749991Y-65332686D01*
X45879905Y-65497883D01*
X45879909Y-65497887D01*
X46038746Y-65635521D01*
X46220750Y-65740601D01*
X46220752Y-65740601D01*
X46220756Y-65740604D01*
X46419367Y-65809344D01*
X46627398Y-65839254D01*
X46837330Y-65829254D01*
X47041576Y-65779704D01*
X47127199Y-65740601D01*
X47232743Y-65692401D01*
X47232746Y-65692399D01*
X47232753Y-65692396D01*
X47403952Y-65570486D01*
X47408623Y-65565588D01*
X47548985Y-65418379D01*
X47549576Y-65417460D01*
X47662613Y-65241572D01*
X47740725Y-65046457D01*
X47780500Y-64840085D01*
X47780500Y-64432575D01*
X47765528Y-64275782D01*
X47706316Y-64074125D01*
X47610011Y-63887318D01*
X47610009Y-63887316D01*
X47610008Y-63887313D01*
X47480094Y-63722116D01*
X47480090Y-63722112D01*
X47321253Y-63584478D01*
X47139249Y-63479398D01*
X47139245Y-63479396D01*
X47139244Y-63479396D01*
X46940633Y-63410656D01*
X46732602Y-63380746D01*
X46732598Y-63380746D01*
X46522672Y-63390745D01*
X46318427Y-63440295D01*
X46318425Y-63440295D01*
X46290910Y-63452861D01*
X46206516Y-63491402D01*
X46137360Y-63501345D01*
X46073804Y-63472320D01*
X46067326Y-63466288D01*
X44272149Y-61671111D01*
X44256022Y-61651252D01*
X44250086Y-61642167D01*
X44250083Y-61642163D01*
X44235123Y-61630519D01*
X44222072Y-61620361D01*
X44216310Y-61615272D01*
X44213515Y-61612477D01*
X44194505Y-61598906D01*
X44151189Y-61565190D01*
X44144274Y-61561448D01*
X44137200Y-61557990D01*
X44084596Y-61542329D01*
X44032658Y-61524499D01*
X44024923Y-61523208D01*
X44017085Y-61522231D01*
X43962244Y-61524500D01*
X43476899Y-61524500D01*
X43409860Y-61504815D01*
X43389218Y-61488181D01*
X38857003Y-56955965D01*
X38823518Y-56894642D01*
X38828502Y-56824950D01*
X38870374Y-56769017D01*
X38935838Y-56744600D01*
X38938744Y-56744426D01*
X39047330Y-56739254D01*
X39251576Y-56689704D01*
X39337199Y-56650601D01*
X39442743Y-56602401D01*
X39442746Y-56602399D01*
X39442753Y-56602396D01*
X39598573Y-56491436D01*
X39664600Y-56468584D01*
X39732500Y-56485057D01*
X39780715Y-56535624D01*
X39794500Y-56592444D01*
X39794500Y-57168196D01*
X39791862Y-57193634D01*
X39789633Y-57204268D01*
X39789633Y-57204269D01*
X39789633Y-57204271D01*
X39794023Y-57239491D01*
X39794500Y-57247167D01*
X39794500Y-57251116D01*
X39798342Y-57274141D01*
X39805134Y-57328627D01*
X39807373Y-57336147D01*
X39809934Y-57343608D01*
X39809935Y-57343610D01*
X39836055Y-57391877D01*
X39860174Y-57441211D01*
X39864742Y-57447609D01*
X39869582Y-57453827D01*
X39909971Y-57491009D01*
X41067849Y-58648886D01*
X41083978Y-58668747D01*
X41088793Y-58676118D01*
X41089916Y-58677836D01*
X41117932Y-58699641D01*
X41123693Y-58704730D01*
X41126482Y-58707519D01*
X41145483Y-58721085D01*
X41171848Y-58741606D01*
X41188811Y-58754809D01*
X41195722Y-58758549D01*
X41202800Y-58762010D01*
X41255405Y-58777670D01*
X41255405Y-58777671D01*
X41307340Y-58795500D01*
X41307342Y-58795500D01*
X41315079Y-58796791D01*
X41322909Y-58797767D01*
X41322911Y-58797768D01*
X41322912Y-58797767D01*
X41322913Y-58797768D01*
X41377755Y-58795500D01*
X46663101Y-58795500D01*
X46730140Y-58815185D01*
X46750782Y-58831819D01*
X48768181Y-60849218D01*
X48801666Y-60910541D01*
X48804500Y-60936899D01*
X48804500Y-63366964D01*
X48784815Y-63434003D01*
X48732013Y-63479758D01*
X48627240Y-63527607D01*
X48456052Y-63649509D01*
X48456040Y-63649520D01*
X48311014Y-63801620D01*
X48197388Y-63978425D01*
X48119274Y-64173544D01*
X48092724Y-64311301D01*
X48079500Y-64379915D01*
X48079500Y-64787425D01*
X48094472Y-64944218D01*
X48113742Y-65009846D01*
X48152365Y-65141385D01*
X48153684Y-65145875D01*
X48210355Y-65255802D01*
X48249991Y-65332686D01*
X48379905Y-65497883D01*
X48379909Y-65497887D01*
X48538746Y-65635521D01*
X48720750Y-65740601D01*
X48720752Y-65740601D01*
X48720756Y-65740604D01*
X48919367Y-65809344D01*
X49127398Y-65839254D01*
X49337330Y-65829254D01*
X49541576Y-65779704D01*
X49627199Y-65740601D01*
X49732743Y-65692401D01*
X49732746Y-65692399D01*
X49732753Y-65692396D01*
X49903952Y-65570486D01*
X49908623Y-65565588D01*
X50048985Y-65418379D01*
X50049576Y-65417460D01*
X50162613Y-65241572D01*
X50240725Y-65046457D01*
X50280500Y-64840085D01*
X50280500Y-64432575D01*
X50265528Y-64275782D01*
X50206316Y-64074125D01*
X50110011Y-63887318D01*
X50110009Y-63887316D01*
X50110008Y-63887313D01*
X49980094Y-63722116D01*
X49980090Y-63722112D01*
X49821253Y-63584478D01*
X49639249Y-63479399D01*
X49639247Y-63479398D01*
X49639244Y-63479396D01*
X49639235Y-63479392D01*
X49639233Y-63479392D01*
X49638933Y-63479288D01*
X49638802Y-63479195D01*
X49633867Y-63476941D01*
X49634301Y-63475989D01*
X49582022Y-63438755D01*
X49556060Y-63373888D01*
X49555499Y-63362111D01*
X49555499Y-62128888D01*
X49555499Y-60781793D01*
X49558138Y-60756359D01*
X49560367Y-60745731D01*
X49558287Y-60729051D01*
X49555977Y-60710508D01*
X49555500Y-60702832D01*
X49555500Y-60698889D01*
X49555499Y-60698883D01*
X49554206Y-60691137D01*
X49551655Y-60675847D01*
X49544865Y-60621374D01*
X49544865Y-60621373D01*
X49542617Y-60613827D01*
X49540065Y-60606390D01*
X49513942Y-60558119D01*
X49513941Y-60558119D01*
X49489826Y-60508788D01*
X49489823Y-60508785D01*
X49489823Y-60508784D01*
X49485267Y-60502402D01*
X49480423Y-60496178D01*
X49480419Y-60496174D01*
X49440041Y-60459003D01*
X47172149Y-58191111D01*
X47156022Y-58171252D01*
X47150086Y-58162167D01*
X47150083Y-58162163D01*
X47122074Y-58140363D01*
X47116310Y-58135272D01*
X47113515Y-58132477D01*
X47094505Y-58118906D01*
X47051189Y-58085190D01*
X47044274Y-58081448D01*
X47037200Y-58077990D01*
X46984596Y-58062329D01*
X46932658Y-58044499D01*
X46924923Y-58043208D01*
X46917085Y-58042231D01*
X46862244Y-58044500D01*
X41576899Y-58044500D01*
X41509860Y-58024815D01*
X41489218Y-58008181D01*
X40581819Y-57100781D01*
X40548334Y-57039458D01*
X40545500Y-57013100D01*
X40545500Y-56640929D01*
X40565185Y-56573890D01*
X40617989Y-56528135D01*
X40687147Y-56518191D01*
X40742844Y-56543626D01*
X40743935Y-56542095D01*
X40748744Y-56545519D01*
X40930750Y-56650601D01*
X40930752Y-56650601D01*
X40930756Y-56650604D01*
X41129367Y-56719344D01*
X41337398Y-56749254D01*
X41547330Y-56739254D01*
X41751576Y-56689704D01*
X41837199Y-56650601D01*
X41942743Y-56602401D01*
X41942746Y-56602399D01*
X41942753Y-56602396D01*
X42113952Y-56480486D01*
X42125016Y-56468883D01*
X42258985Y-56328379D01*
X42258986Y-56328378D01*
X42372613Y-56151572D01*
X42450725Y-55956457D01*
X42490500Y-55750085D01*
X42490500Y-55342575D01*
X42475528Y-55185782D01*
X42416316Y-54984125D01*
X42320011Y-54797318D01*
X42320009Y-54797316D01*
X42320008Y-54797313D01*
X42190094Y-54632116D01*
X42190090Y-54632112D01*
X42031253Y-54494478D01*
X41849249Y-54389399D01*
X41849247Y-54389398D01*
X41849244Y-54389396D01*
X41849240Y-54389394D01*
X41849231Y-54389390D01*
X41848928Y-54389286D01*
X41848796Y-54389192D01*
X41843867Y-54386941D01*
X41844301Y-54385990D01*
X41792019Y-54348750D01*
X41766060Y-54283882D01*
X41765500Y-54272111D01*
X41765500Y-53686898D01*
X41785185Y-53619859D01*
X41801814Y-53599222D01*
X43302819Y-52098218D01*
X43364142Y-52064733D01*
X43433834Y-52069717D01*
X43489767Y-52111589D01*
X43514184Y-52177053D01*
X43514500Y-52185899D01*
X43514500Y-54276964D01*
X43494815Y-54344003D01*
X43442013Y-54389758D01*
X43337240Y-54437607D01*
X43166052Y-54559509D01*
X43166040Y-54559520D01*
X43021014Y-54711620D01*
X42907388Y-54888425D01*
X42829274Y-55083544D01*
X42789500Y-55289914D01*
X42789500Y-55289915D01*
X42789500Y-55697425D01*
X42802566Y-55834258D01*
X42804472Y-55854217D01*
X42804473Y-55854221D01*
X42850213Y-56009999D01*
X42863684Y-56055875D01*
X42923635Y-56172165D01*
X42959991Y-56242686D01*
X43089905Y-56407883D01*
X43089909Y-56407887D01*
X43248746Y-56545521D01*
X43430750Y-56650601D01*
X43430752Y-56650601D01*
X43430756Y-56650604D01*
X43629367Y-56719344D01*
X43837398Y-56749254D01*
X44047330Y-56739254D01*
X44251576Y-56689704D01*
X44337199Y-56650601D01*
X44442743Y-56602401D01*
X44442746Y-56602399D01*
X44442753Y-56602396D01*
X44613952Y-56480486D01*
X44625016Y-56468883D01*
X44758985Y-56328379D01*
X44758986Y-56328378D01*
X44872613Y-56151572D01*
X44950725Y-55956457D01*
X44990500Y-55750085D01*
X44990500Y-55342575D01*
X44975528Y-55185782D01*
X44916316Y-54984125D01*
X44820011Y-54797318D01*
X44820009Y-54797316D01*
X44820008Y-54797313D01*
X44690094Y-54632116D01*
X44690090Y-54632112D01*
X44531253Y-54494478D01*
X44349249Y-54389399D01*
X44349247Y-54389398D01*
X44349244Y-54389396D01*
X44349240Y-54389394D01*
X44349231Y-54389390D01*
X44348928Y-54389286D01*
X44348796Y-54389192D01*
X44343867Y-54386941D01*
X44344301Y-54385990D01*
X44292019Y-54348750D01*
X44266060Y-54283882D01*
X44265500Y-54272111D01*
X44265500Y-49156280D01*
X44285185Y-49089241D01*
X44337989Y-49043486D01*
X44407147Y-49033542D01*
X44470703Y-49062567D01*
X44477181Y-49068599D01*
X45978181Y-50569599D01*
X46011666Y-50630922D01*
X46014500Y-50657280D01*
X46014500Y-54276964D01*
X45994815Y-54344003D01*
X45942013Y-54389758D01*
X45837240Y-54437607D01*
X45666052Y-54559509D01*
X45666040Y-54559520D01*
X45521014Y-54711620D01*
X45407388Y-54888425D01*
X45329274Y-55083544D01*
X45289500Y-55289914D01*
X45289500Y-55289915D01*
X45289500Y-55697425D01*
X45302566Y-55834258D01*
X45304472Y-55854217D01*
X45304473Y-55854221D01*
X45350213Y-56009999D01*
X45363684Y-56055875D01*
X45423635Y-56172165D01*
X45459991Y-56242686D01*
X45589905Y-56407883D01*
X45589909Y-56407887D01*
X45748746Y-56545521D01*
X45930750Y-56650601D01*
X45930752Y-56650601D01*
X45930756Y-56650604D01*
X46129367Y-56719344D01*
X46337398Y-56749254D01*
X46547330Y-56739254D01*
X46751576Y-56689704D01*
X46837199Y-56650601D01*
X46942743Y-56602401D01*
X46942746Y-56602399D01*
X46942753Y-56602396D01*
X47113952Y-56480486D01*
X47125016Y-56468883D01*
X47258985Y-56328379D01*
X47258986Y-56328378D01*
X47372613Y-56151572D01*
X47450725Y-55956457D01*
X47490500Y-55750085D01*
X47490500Y-55342575D01*
X47475528Y-55185782D01*
X47416316Y-54984125D01*
X47320011Y-54797318D01*
X47320009Y-54797316D01*
X47320008Y-54797313D01*
X47190094Y-54632116D01*
X47190090Y-54632112D01*
X47031253Y-54494478D01*
X46849249Y-54389399D01*
X46849247Y-54389398D01*
X46849244Y-54389396D01*
X46849240Y-54389394D01*
X46849231Y-54389390D01*
X46848928Y-54389286D01*
X46848796Y-54389192D01*
X46843867Y-54386941D01*
X46844301Y-54385990D01*
X46792019Y-54348750D01*
X46766060Y-54283882D01*
X46765500Y-54272111D01*
X46765500Y-50737039D01*
X46785185Y-50670000D01*
X46837989Y-50624245D01*
X46907147Y-50614301D01*
X46970703Y-50643326D01*
X46977166Y-50649344D01*
X47799564Y-51471742D01*
X48478181Y-52150359D01*
X48511666Y-52211682D01*
X48514500Y-52238040D01*
X48514500Y-54276964D01*
X48494815Y-54344003D01*
X48442013Y-54389758D01*
X48337240Y-54437607D01*
X48166052Y-54559509D01*
X48166040Y-54559520D01*
X48021014Y-54711620D01*
X47907388Y-54888425D01*
X47829274Y-55083544D01*
X47789500Y-55289914D01*
X47789500Y-55289915D01*
X47789500Y-55697425D01*
X47802566Y-55834258D01*
X47804472Y-55854217D01*
X47804473Y-55854221D01*
X47850213Y-56009999D01*
X47863684Y-56055875D01*
X47923635Y-56172165D01*
X47959991Y-56242686D01*
X48089905Y-56407883D01*
X48089909Y-56407887D01*
X48248746Y-56545521D01*
X48430750Y-56650601D01*
X48430752Y-56650601D01*
X48430756Y-56650604D01*
X48629367Y-56719344D01*
X48837398Y-56749254D01*
X49047330Y-56739254D01*
X49251576Y-56689704D01*
X49337199Y-56650601D01*
X49442743Y-56602401D01*
X49442746Y-56602399D01*
X49442753Y-56602396D01*
X49613952Y-56480486D01*
X49625016Y-56468883D01*
X49758985Y-56328379D01*
X49758986Y-56328378D01*
X49872613Y-56151572D01*
X49950725Y-55956457D01*
X49990500Y-55750085D01*
X49990500Y-55342575D01*
X49975528Y-55185782D01*
X49916316Y-54984125D01*
X49820011Y-54797318D01*
X49820009Y-54797316D01*
X49820008Y-54797313D01*
X49690094Y-54632116D01*
X49690090Y-54632112D01*
X49531253Y-54494478D01*
X49349249Y-54389399D01*
X49349247Y-54389398D01*
X49349244Y-54389396D01*
X49349240Y-54389394D01*
X49349231Y-54389390D01*
X49348928Y-54389286D01*
X49348796Y-54389192D01*
X49343867Y-54386941D01*
X49344301Y-54385990D01*
X49292019Y-54348750D01*
X49266060Y-54283882D01*
X49265500Y-54272111D01*
X49265500Y-52082945D01*
X49268139Y-52057500D01*
X49268785Y-52054416D01*
X49270367Y-52046873D01*
X49268498Y-52031881D01*
X49265977Y-52011647D01*
X49265500Y-52003971D01*
X49265500Y-52000030D01*
X49265498Y-52000017D01*
X49261657Y-51977000D01*
X49254866Y-51922517D01*
X49254866Y-51922515D01*
X49254864Y-51922511D01*
X49252622Y-51914981D01*
X49250065Y-51907533D01*
X49250065Y-51907531D01*
X49223944Y-51859263D01*
X49199826Y-51809930D01*
X49199824Y-51809928D01*
X49199824Y-51809927D01*
X49195267Y-51803545D01*
X49190415Y-51797310D01*
X49150029Y-51760133D01*
X43744136Y-46354239D01*
X43710651Y-46292916D01*
X43715635Y-46223224D01*
X43754524Y-46171274D01*
X43753813Y-46170452D01*
X43757208Y-46167515D01*
X43763021Y-46161701D01*
X42366485Y-44765165D01*
X42360667Y-44770985D01*
X42319579Y-44826086D01*
X42319576Y-44826091D01*
X42294739Y-44898440D01*
X42254353Y-44955456D01*
X42217723Y-44975458D01*
X42205032Y-44979815D01*
X42144326Y-45000656D01*
X42144324Y-45000656D01*
X42144322Y-45000658D01*
X42089131Y-45041811D01*
X41900669Y-45230273D01*
X41859516Y-45285464D01*
X41859514Y-45285467D01*
X41859514Y-45285468D01*
X41836066Y-45353770D01*
X41834522Y-45358266D01*
X41794136Y-45415281D01*
X41757505Y-45435282D01*
X41684707Y-45460275D01*
X41684706Y-45460275D01*
X41684703Y-45460277D01*
X41629512Y-45501430D01*
X41441050Y-45689892D01*
X41399897Y-45745083D01*
X41399895Y-45745087D01*
X41374901Y-45817887D01*
X41334517Y-45874901D01*
X41297888Y-45894901D01*
X41263726Y-45906630D01*
X41225089Y-45919894D01*
X41225083Y-45919897D01*
X41169892Y-45961050D01*
X40981430Y-46149512D01*
X40940277Y-46204703D01*
X40940274Y-46204710D01*
X40915283Y-46277505D01*
X40874897Y-46334520D01*
X40838266Y-46354521D01*
X40765468Y-46379514D01*
X40765467Y-46379514D01*
X40765464Y-46379516D01*
X40710273Y-46420669D01*
X40533598Y-46597344D01*
X40472275Y-46630829D01*
X40402583Y-46625845D01*
X40346650Y-46583973D01*
X40333123Y-46561175D01*
X40324530Y-46542360D01*
X40285377Y-46456627D01*
X40191128Y-46347857D01*
X40070053Y-46270047D01*
X40070051Y-46270046D01*
X40070049Y-46270045D01*
X40070050Y-46270045D01*
X39931963Y-46229500D01*
X39931961Y-46229500D01*
X39788039Y-46229500D01*
X39788036Y-46229500D01*
X39649949Y-46270045D01*
X39528873Y-46347856D01*
X39434623Y-46456626D01*
X39434622Y-46456628D01*
X39374834Y-46587543D01*
X39354353Y-46730000D01*
X39374834Y-46872456D01*
X39408233Y-46945588D01*
X39434623Y-47003373D01*
X39528872Y-47112143D01*
X39649947Y-47189953D01*
X39674403Y-47197134D01*
X39733180Y-47234906D01*
X39762207Y-47298462D01*
X39752264Y-47367620D01*
X39727151Y-47403792D01*
X39602570Y-47528373D01*
X39561419Y-47583561D01*
X39561417Y-47583565D01*
X39523434Y-47694203D01*
X39523434Y-47811179D01*
X39561417Y-47921817D01*
X39561418Y-47921819D01*
X39602572Y-47977012D01*
X40551173Y-48925613D01*
X40606366Y-48966767D01*
X40606367Y-48966768D01*
X40606368Y-48966768D01*
X40606369Y-48966769D01*
X40717007Y-49004752D01*
X40717009Y-49004752D01*
X40719374Y-49005564D01*
X40766792Y-49035164D01*
X40768181Y-49036553D01*
X40801666Y-49097876D01*
X40804500Y-49124234D01*
X40804500Y-49793099D01*
X40784815Y-49860138D01*
X40768181Y-49880780D01*
X39941108Y-50707852D01*
X39921254Y-50723976D01*
X39912165Y-50729914D01*
X39912164Y-50729915D01*
X39890363Y-50757923D01*
X39885286Y-50763674D01*
X39882484Y-50766477D01*
X39882474Y-50766488D01*
X39868905Y-50785495D01*
X39835192Y-50828808D01*
X39831447Y-50835729D01*
X39827988Y-50842804D01*
X39812329Y-50895403D01*
X39794500Y-50947338D01*
X39793206Y-50955092D01*
X39792231Y-50962911D01*
X39794500Y-51017755D01*
X39794500Y-54451061D01*
X39774815Y-54518100D01*
X39722011Y-54563855D01*
X39652853Y-54573799D01*
X39589297Y-54544774D01*
X39531253Y-54494478D01*
X39349249Y-54389399D01*
X39349247Y-54389398D01*
X39349244Y-54389396D01*
X39349240Y-54389394D01*
X39349231Y-54389390D01*
X39348928Y-54389286D01*
X39348796Y-54389192D01*
X39343867Y-54386941D01*
X39344301Y-54385990D01*
X39292019Y-54348750D01*
X39266060Y-54283882D01*
X39265500Y-54272111D01*
X39265500Y-49791803D01*
X39268139Y-49766358D01*
X39268785Y-49763274D01*
X39270367Y-49755731D01*
X39268287Y-49739051D01*
X39265977Y-49720508D01*
X39265500Y-49712832D01*
X39265500Y-49708889D01*
X39265499Y-49708883D01*
X39261655Y-49685846D01*
X39254865Y-49631373D01*
X39252617Y-49623827D01*
X39250066Y-49616393D01*
X39250065Y-49616391D01*
X39250065Y-49616390D01*
X39223939Y-49568114D01*
X39199826Y-49518789D01*
X39199823Y-49518786D01*
X39199823Y-49518785D01*
X39195271Y-49512409D01*
X39190415Y-49506169D01*
X39150029Y-49468992D01*
X34781819Y-45100781D01*
X34748334Y-45039458D01*
X34745500Y-45013100D01*
X34745500Y-44491161D01*
X36117429Y-44491161D01*
X36503307Y-44877039D01*
X36503316Y-44877047D01*
X36558420Y-44918137D01*
X36558421Y-44918138D01*
X36668904Y-44956066D01*
X36785714Y-44956066D01*
X36896195Y-44918138D01*
X36951306Y-44877044D01*
X36957118Y-44871231D01*
X36957117Y-44871229D01*
X36347240Y-44261352D01*
X36117429Y-44491161D01*
X34745500Y-44491161D01*
X34745500Y-43762909D01*
X35475748Y-43762909D01*
X35513675Y-43873390D01*
X35554770Y-43928503D01*
X35940651Y-44314384D01*
X36170461Y-44084574D01*
X35560582Y-43474695D01*
X35554764Y-43480515D01*
X35513676Y-43535616D01*
X35513675Y-43535617D01*
X35475748Y-43646100D01*
X35475748Y-43762909D01*
X34745500Y-43762909D01*
X34745500Y-43376899D01*
X34765185Y-43309860D01*
X34781819Y-43289218D01*
X36639218Y-41431819D01*
X36700541Y-41398334D01*
X36726899Y-41395500D01*
X37339709Y-41395500D01*
X37406748Y-41415185D01*
X37452503Y-41467989D01*
X37462447Y-41537147D01*
X37433422Y-41600703D01*
X37427390Y-41607181D01*
X37392866Y-41641704D01*
X37392864Y-41641706D01*
X37351711Y-41696897D01*
X37351708Y-41696903D01*
X37344405Y-41718176D01*
X37326715Y-41769701D01*
X37286331Y-41826715D01*
X37249702Y-41846715D01*
X37203699Y-41862508D01*
X37176903Y-41871708D01*
X37176897Y-41871711D01*
X37121706Y-41912864D01*
X36933244Y-42101326D01*
X36892091Y-42156517D01*
X36892089Y-42156520D01*
X36892089Y-42156521D01*
X36875151Y-42205860D01*
X36867097Y-42229319D01*
X36826711Y-42286334D01*
X36790080Y-42306335D01*
X36717282Y-42331328D01*
X36717281Y-42331328D01*
X36717278Y-42331330D01*
X36662087Y-42372483D01*
X36473625Y-42560945D01*
X36432472Y-42616136D01*
X36432469Y-42616143D01*
X36407478Y-42688937D01*
X36367091Y-42745952D01*
X36330461Y-42765954D01*
X36257662Y-42790947D01*
X36257660Y-42790947D01*
X36257658Y-42790949D01*
X36202467Y-42832102D01*
X36014005Y-43020564D01*
X35972852Y-43075755D01*
X35972850Y-43075757D01*
X35972850Y-43075759D01*
X35960133Y-43112801D01*
X35947652Y-43149156D01*
X35907265Y-43206171D01*
X35870634Y-43226172D01*
X35798284Y-43251009D01*
X35743178Y-43292100D01*
X35743165Y-43292112D01*
X35737359Y-43297917D01*
X35737358Y-43297917D01*
X37133895Y-44694454D01*
X37133896Y-44694454D01*
X37139699Y-44688649D01*
X37139702Y-44688646D01*
X37180803Y-44633530D01*
X37205640Y-44561179D01*
X37246025Y-44504163D01*
X37282656Y-44484161D01*
X37356054Y-44458963D01*
X37411250Y-44417806D01*
X37531794Y-44297262D01*
X37593117Y-44263777D01*
X37662809Y-44268761D01*
X37686515Y-44280628D01*
X37809948Y-44359954D01*
X37948036Y-44400499D01*
X37948038Y-44400500D01*
X37948039Y-44400500D01*
X38091962Y-44400500D01*
X38091962Y-44400499D01*
X38230053Y-44359953D01*
X38351128Y-44282143D01*
X38445377Y-44173373D01*
X38446853Y-44170140D01*
X38449178Y-44167456D01*
X38450169Y-44165915D01*
X38450390Y-44166057D01*
X38492602Y-44117337D01*
X38559640Y-44097648D01*
X38577303Y-44098911D01*
X38579321Y-44099201D01*
X38579327Y-44099203D01*
X38579333Y-44099203D01*
X38723250Y-44099203D01*
X38723250Y-44099202D01*
X38861341Y-44058656D01*
X38982416Y-43980846D01*
X39076665Y-43872076D01*
X39136453Y-43741160D01*
X39156935Y-43598703D01*
X39147105Y-43530340D01*
X39157050Y-43461181D01*
X39202803Y-43408378D01*
X39289773Y-43352487D01*
X39384022Y-43243717D01*
X39443810Y-43112801D01*
X39464292Y-42970344D01*
X39443810Y-42827887D01*
X39384022Y-42696971D01*
X39342664Y-42649241D01*
X39313640Y-42585687D01*
X39323583Y-42516529D01*
X39348693Y-42480362D01*
X39438187Y-42390870D01*
X39479344Y-42335674D01*
X39504337Y-42262873D01*
X39544722Y-42205860D01*
X39581349Y-42185859D01*
X39654151Y-42160866D01*
X39709347Y-42119709D01*
X39897806Y-41931250D01*
X39938963Y-41876054D01*
X39963955Y-41803254D01*
X40004339Y-41746242D01*
X40040969Y-41726240D01*
X40113771Y-41701247D01*
X40168967Y-41660090D01*
X40357426Y-41471631D01*
X40398583Y-41416435D01*
X40436566Y-41305797D01*
X40436566Y-41188821D01*
X40398583Y-41078183D01*
X40377164Y-41049457D01*
X40357427Y-41022987D01*
X39408826Y-40074386D01*
X39353633Y-40033232D01*
X39353634Y-40033232D01*
X39324916Y-40023373D01*
X39242993Y-39995248D01*
X39242992Y-39995248D01*
X39240624Y-39994435D01*
X39193207Y-39964835D01*
X38519484Y-39291111D01*
X38503357Y-39271252D01*
X38497421Y-39262167D01*
X38497418Y-39262163D01*
X38469409Y-39240363D01*
X38463645Y-39235272D01*
X38460850Y-39232477D01*
X38441840Y-39218906D01*
X38398524Y-39185190D01*
X38391609Y-39181448D01*
X38384535Y-39177990D01*
X38331931Y-39162329D01*
X38279993Y-39144499D01*
X38272258Y-39143208D01*
X38264420Y-39142231D01*
X38209579Y-39144500D01*
X36421804Y-39144500D01*
X36396359Y-39141861D01*
X36385733Y-39139633D01*
X36385730Y-39139633D01*
X36350508Y-39144023D01*
X36342832Y-39144500D01*
X36338886Y-39144500D01*
X36321615Y-39147381D01*
X36315858Y-39148342D01*
X36261370Y-39155134D01*
X36253857Y-39157371D01*
X36246387Y-39159936D01*
X36198122Y-39186055D01*
X36148792Y-39210171D01*
X36142375Y-39214753D01*
X36136175Y-39219579D01*
X36098992Y-39259970D01*
X34518078Y-40840883D01*
X34456755Y-40874368D01*
X34387063Y-40869384D01*
X34331130Y-40827512D01*
X34306713Y-40762048D01*
X34307658Y-40735559D01*
X34315647Y-40680000D01*
X34295165Y-40537543D01*
X34235377Y-40406627D01*
X34141128Y-40297857D01*
X34020053Y-40220047D01*
X34020051Y-40220046D01*
X34020049Y-40220045D01*
X34020050Y-40220045D01*
X33881965Y-40179500D01*
X33874429Y-40178417D01*
X33810874Y-40149391D01*
X33804397Y-40143360D01*
X33564513Y-39903475D01*
X33531028Y-39842152D01*
X33536012Y-39772460D01*
X33576066Y-39718954D01*
X33575716Y-39718549D01*
X33577572Y-39716943D01*
X33577884Y-39716527D01*
X33578075Y-39716384D01*
X33579114Y-39715609D01*
X33584924Y-39709798D01*
X33584923Y-39709796D01*
X32975046Y-39099919D01*
X32923683Y-39099919D01*
X32923683Y-39096614D01*
X32878987Y-39093401D01*
X32834686Y-39064918D01*
X32833267Y-39063499D01*
X32799784Y-39002179D01*
X32801763Y-38974504D01*
X32798268Y-38974504D01*
X32798268Y-38923141D01*
X32188388Y-38313262D01*
X32182570Y-38319082D01*
X32141482Y-38374183D01*
X32141479Y-38374188D01*
X32116642Y-38446537D01*
X32076256Y-38503553D01*
X32039626Y-38523555D01*
X32029254Y-38527116D01*
X31966229Y-38548753D01*
X31966227Y-38548753D01*
X31966225Y-38548755D01*
X31911034Y-38589908D01*
X31722572Y-38778370D01*
X31681419Y-38833561D01*
X31681416Y-38833567D01*
X31676126Y-38848977D01*
X31643434Y-38944203D01*
X31643434Y-39061179D01*
X31681417Y-39171817D01*
X31681418Y-39171819D01*
X31722572Y-39227012D01*
X32671173Y-40175613D01*
X32726366Y-40216767D01*
X32726367Y-40216768D01*
X32726368Y-40216768D01*
X32726369Y-40216769D01*
X32835317Y-40254172D01*
X32882734Y-40283771D01*
X33279432Y-40680469D01*
X33312917Y-40741792D01*
X33314489Y-40750502D01*
X33324834Y-40822454D01*
X33324835Y-40822458D01*
X33384622Y-40953371D01*
X33384623Y-40953373D01*
X33478872Y-41062143D01*
X33599947Y-41139953D01*
X33599950Y-41139954D01*
X33599949Y-41139954D01*
X33738036Y-41180499D01*
X33738038Y-41180500D01*
X33879100Y-41180500D01*
X33946139Y-41200185D01*
X33991894Y-41252989D01*
X34001838Y-41322147D01*
X33972813Y-41385703D01*
X33966781Y-41392181D01*
X33800781Y-41558181D01*
X33739458Y-41591666D01*
X33713100Y-41594500D01*
X33276900Y-41594500D01*
X33209861Y-41574815D01*
X33189219Y-41558181D01*
X31381819Y-39750781D01*
X31348334Y-39689458D01*
X31345500Y-39663100D01*
X31345500Y-37876899D01*
X31365185Y-37809860D01*
X31381819Y-37789218D01*
X32369590Y-36801447D01*
X33398892Y-35772144D01*
X33418741Y-35756025D01*
X33427836Y-35750084D01*
X33449644Y-35722062D01*
X33454721Y-35716316D01*
X33457520Y-35713518D01*
X33471094Y-35694504D01*
X33504809Y-35651189D01*
X33504809Y-35651187D01*
X33508547Y-35644280D01*
X33512003Y-35637207D01*
X33512010Y-35637199D01*
X33527670Y-35584596D01*
X33545500Y-35532660D01*
X33545500Y-35532655D01*
X33546790Y-35524924D01*
X33547768Y-35517085D01*
X33545500Y-35462244D01*
X33545500Y-33654468D01*
X33548139Y-33629023D01*
X33548504Y-33627283D01*
X33550367Y-33618397D01*
X33546897Y-33590559D01*
X33545977Y-33583172D01*
X33545500Y-33575496D01*
X33545500Y-33571554D01*
X33545498Y-33571541D01*
X33541657Y-33548524D01*
X33535295Y-33497483D01*
X33534866Y-33494039D01*
X33534864Y-33494035D01*
X33532622Y-33486505D01*
X33530065Y-33479057D01*
X33530065Y-33479055D01*
X33503944Y-33430787D01*
X33479826Y-33381454D01*
X33479824Y-33381452D01*
X33479824Y-33381451D01*
X33475267Y-33375069D01*
X33470415Y-33368834D01*
X33430029Y-33331657D01*
X32586978Y-32488605D01*
X32557378Y-32441188D01*
X32556566Y-32438822D01*
X32556566Y-32438821D01*
X32518583Y-32328183D01*
X32477426Y-32272986D01*
X31528828Y-31324388D01*
X31528826Y-31324386D01*
X31473633Y-31283232D01*
X31473634Y-31283232D01*
X31360625Y-31244435D01*
X31313208Y-31214835D01*
X30812868Y-30714495D01*
X30306393Y-30208021D01*
X30272909Y-30146699D01*
X30270980Y-30105391D01*
X30275278Y-30070002D01*
X30275278Y-30070000D01*
X30258620Y-29932812D01*
X30256237Y-29913182D01*
X30200220Y-29765477D01*
X30110483Y-29635470D01*
X29992240Y-29530717D01*
X29992238Y-29530716D01*
X29992237Y-29530715D01*
X29852365Y-29457303D01*
X29698986Y-29419500D01*
X29698985Y-29419500D01*
X29541015Y-29419500D01*
X29541014Y-29419500D01*
X29387634Y-29457303D01*
X29247762Y-29530715D01*
X29129516Y-29635471D01*
X29039781Y-29765475D01*
X29039780Y-29765476D01*
X28983762Y-29913181D01*
X28964722Y-30069999D01*
X28964722Y-30070000D01*
X28983762Y-30226818D01*
X29039779Y-30374522D01*
X29039780Y-30374523D01*
X29129517Y-30504530D01*
X29247760Y-30609283D01*
X29247762Y-30609284D01*
X29387634Y-30682696D01*
X29541014Y-30720500D01*
X29705436Y-30720500D01*
X29772475Y-30740185D01*
X29793117Y-30756819D01*
X30633602Y-31597305D01*
X30667087Y-31658628D01*
X30662103Y-31728320D01*
X30623238Y-31780235D01*
X30623960Y-31781069D01*
X30620562Y-31784007D01*
X30432102Y-31972467D01*
X30390949Y-32027658D01*
X30390947Y-32027660D01*
X30390947Y-32027662D01*
X30384078Y-32047671D01*
X30365749Y-32101059D01*
X30325362Y-32158074D01*
X30288731Y-32178075D01*
X30216381Y-32202912D01*
X30161275Y-32244003D01*
X30161262Y-32244015D01*
X30155456Y-32249820D01*
X30155455Y-32249820D01*
X31551992Y-33646357D01*
X31551993Y-33646357D01*
X31557796Y-33640552D01*
X31560731Y-33637160D01*
X31561600Y-33637911D01*
X31613268Y-33599062D01*
X31682949Y-33593929D01*
X31744343Y-33627283D01*
X32061138Y-33944078D01*
X32094623Y-34005401D01*
X32096195Y-34014112D01*
X32110334Y-34112456D01*
X32163505Y-34228882D01*
X32170123Y-34243373D01*
X32264372Y-34352143D01*
X32385447Y-34429953D01*
X32385450Y-34429954D01*
X32385449Y-34429954D01*
X32523536Y-34470499D01*
X32523538Y-34470500D01*
X32670500Y-34470500D01*
X32737539Y-34490185D01*
X32783294Y-34542989D01*
X32794500Y-34594500D01*
X32794500Y-35263099D01*
X32774815Y-35330138D01*
X32758181Y-35350780D01*
X30741108Y-37367852D01*
X30721254Y-37383976D01*
X30712165Y-37389914D01*
X30712164Y-37389915D01*
X30690363Y-37417923D01*
X30685286Y-37423674D01*
X30682484Y-37426477D01*
X30682474Y-37426488D01*
X30668905Y-37445495D01*
X30635192Y-37488808D01*
X30631447Y-37495729D01*
X30627988Y-37502804D01*
X30612329Y-37555403D01*
X30594500Y-37607338D01*
X30593206Y-37615092D01*
X30592231Y-37622911D01*
X30594500Y-37677755D01*
X30594500Y-39818196D01*
X30591862Y-39843634D01*
X30589633Y-39854268D01*
X30589633Y-39854269D01*
X30589633Y-39854271D01*
X30594023Y-39889491D01*
X30594500Y-39897167D01*
X30594500Y-39901116D01*
X30598342Y-39924141D01*
X30605134Y-39978627D01*
X30607373Y-39986147D01*
X30609934Y-39993608D01*
X30609935Y-39993610D01*
X30628468Y-40027857D01*
X30636055Y-40041877D01*
X30660174Y-40091211D01*
X30664742Y-40097609D01*
X30669582Y-40103827D01*
X30709971Y-40141009D01*
X32767849Y-42198886D01*
X32783978Y-42218747D01*
X32788086Y-42225036D01*
X32789916Y-42227836D01*
X32817932Y-42249641D01*
X32823693Y-42254730D01*
X32826482Y-42257519D01*
X32845483Y-42271085D01*
X32882724Y-42300071D01*
X32888811Y-42304809D01*
X32895722Y-42308549D01*
X32902800Y-42312010D01*
X32925722Y-42318834D01*
X32955405Y-42327671D01*
X33007340Y-42345500D01*
X33007342Y-42345500D01*
X33015079Y-42346791D01*
X33022909Y-42347767D01*
X33022911Y-42347768D01*
X33022912Y-42347767D01*
X33022913Y-42347768D01*
X33077755Y-42345500D01*
X33420500Y-42345500D01*
X33487539Y-42365185D01*
X33533294Y-42417989D01*
X33544500Y-42469500D01*
X33544500Y-48568196D01*
X33541862Y-48593634D01*
X33539633Y-48604268D01*
X33539633Y-48604269D01*
X33539633Y-48604271D01*
X33544023Y-48639491D01*
X33544500Y-48647167D01*
X33544500Y-48651116D01*
X33548342Y-48674141D01*
X33555134Y-48728627D01*
X33557373Y-48736147D01*
X33559934Y-48743608D01*
X33559935Y-48743610D01*
X33586055Y-48791877D01*
X33610174Y-48841211D01*
X33614742Y-48847609D01*
X33619582Y-48853827D01*
X33659971Y-48891009D01*
X37237086Y-52468123D01*
X37270571Y-52529446D01*
X37273405Y-52555804D01*
X37273405Y-54432782D01*
X37253720Y-54499821D01*
X37200916Y-54545576D01*
X37131758Y-54555520D01*
X37068202Y-54526495D01*
X37031253Y-54494478D01*
X36849249Y-54389398D01*
X36849245Y-54389396D01*
X36849244Y-54389396D01*
X36650633Y-54320656D01*
X36442602Y-54290746D01*
X36442598Y-54290746D01*
X36232672Y-54300745D01*
X36028421Y-54350296D01*
X36028417Y-54350298D01*
X35837256Y-54437598D01*
X35837251Y-54437601D01*
X35666046Y-54559515D01*
X35666040Y-54559520D01*
X35521014Y-54711620D01*
X35407388Y-54888425D01*
X35329274Y-55083544D01*
X35289500Y-55289914D01*
X35289500Y-55289915D01*
X35289500Y-55697425D01*
X35302566Y-55834258D01*
X35304472Y-55854217D01*
X35304473Y-55854221D01*
X35350213Y-56009999D01*
X35363684Y-56055875D01*
X35423635Y-56172165D01*
X35459991Y-56242686D01*
X35589905Y-56407883D01*
X35589909Y-56407887D01*
X35744792Y-56542095D01*
X35748744Y-56545519D01*
X35827500Y-56590989D01*
X35875715Y-56641554D01*
X35889500Y-56698375D01*
X35889500Y-64672858D01*
X35886667Y-64699206D01*
X35885641Y-64703927D01*
X35885641Y-64703929D01*
X35885641Y-64703930D01*
X35889342Y-64755669D01*
X35889500Y-64760094D01*
X35889500Y-64775799D01*
X35891734Y-64791343D01*
X35892207Y-64795740D01*
X35895909Y-64847485D01*
X35897593Y-64852000D01*
X35904148Y-64877682D01*
X35904834Y-64882455D01*
X35904835Y-64882457D01*
X35926383Y-64929642D01*
X35928071Y-64933716D01*
X35946203Y-64982329D01*
X35949096Y-64986194D01*
X35962617Y-65008983D01*
X35964619Y-65013367D01*
X35964622Y-65013371D01*
X35964623Y-65013373D01*
X35998598Y-65052583D01*
X36001362Y-65056013D01*
X36010775Y-65068588D01*
X36010782Y-65068596D01*
X36021886Y-65079700D01*
X36024896Y-65082932D01*
X36026688Y-65085000D01*
X36058871Y-65122142D01*
X36058874Y-65122145D01*
X36062928Y-65124750D01*
X36083571Y-65141385D01*
X38018614Y-67076428D01*
X38035246Y-67097066D01*
X38037854Y-67101125D01*
X38037857Y-67101128D01*
X38077067Y-67135103D01*
X38080283Y-67138097D01*
X38091407Y-67149221D01*
X38091414Y-67149226D01*
X38091415Y-67149227D01*
X38103979Y-67158632D01*
X38107426Y-67161410D01*
X38110522Y-67164093D01*
X38148298Y-67222870D01*
X38148299Y-67292740D01*
X38110525Y-67351519D01*
X38046970Y-67380545D01*
X38029321Y-67381807D01*
X31651374Y-67381807D01*
X31584335Y-67362122D01*
X31538580Y-67309318D01*
X31527592Y-67265149D01*
X31526923Y-67253875D01*
X31526923Y-67253874D01*
X31525387Y-67227786D01*
X31525386Y-67227785D01*
X31525209Y-67224765D01*
X31525182Y-67224530D01*
X31521354Y-67159963D01*
X31521250Y-67158207D01*
X31521248Y-67157964D01*
X31519573Y-67129928D01*
X31517963Y-67102763D01*
X31517937Y-67102532D01*
X31517853Y-67101130D01*
X31513946Y-67035697D01*
X31513945Y-67035477D01*
X31512302Y-67008152D01*
X31510833Y-66983544D01*
X31510832Y-66983541D01*
X31510648Y-66980456D01*
X31510621Y-66980216D01*
X31506615Y-66913602D01*
X31506614Y-66913379D01*
X31506433Y-66910397D01*
X31506434Y-66910394D01*
X31504917Y-66885349D01*
X31503468Y-66861238D01*
X31503466Y-66861233D01*
X31503305Y-66858544D01*
X31503282Y-66858334D01*
X31499224Y-66791327D01*
X31499223Y-66791095D01*
X31497511Y-66763004D01*
X31495869Y-66735888D01*
X31495844Y-66735670D01*
X31491756Y-66668608D01*
X31491754Y-66668387D01*
X31490027Y-66640226D01*
X31488399Y-66613513D01*
X31488372Y-66613277D01*
X31484230Y-66545792D01*
X31484229Y-66545562D01*
X31482453Y-66516824D01*
X31482453Y-66516823D01*
X31481025Y-66493544D01*
X31481024Y-66493541D01*
X31480854Y-66490767D01*
X31480829Y-66490541D01*
X31480280Y-66481658D01*
X31476660Y-66423081D01*
X31476659Y-66422849D01*
X31474946Y-66395328D01*
X31473241Y-66367720D01*
X31473214Y-66367477D01*
X31472783Y-66360546D01*
X31469011Y-66299924D01*
X31469010Y-66299728D01*
X31468832Y-66296892D01*
X31468833Y-66296889D01*
X31467354Y-66273268D01*
X31465766Y-66247738D01*
X31465765Y-66247735D01*
X31465586Y-66244854D01*
X31465561Y-66244645D01*
X31461324Y-66176952D01*
X31461321Y-66176725D01*
X31459640Y-66150063D01*
X31459640Y-66150062D01*
X31458048Y-66124628D01*
X31458046Y-66124621D01*
X31457868Y-66121777D01*
X31457843Y-66121552D01*
X31453569Y-66053757D01*
X31453568Y-66053534D01*
X31451788Y-66025490D01*
X31451676Y-66023713D01*
X31450269Y-66001373D01*
X31450268Y-66001369D01*
X31450079Y-65998370D01*
X31450053Y-65998151D01*
X31445748Y-65930272D01*
X31445744Y-65930039D01*
X31445557Y-65927118D01*
X31445558Y-65927116D01*
X31443885Y-65900911D01*
X31443885Y-65900910D01*
X31442245Y-65875043D01*
X31442217Y-65874804D01*
X31437874Y-65806799D01*
X31437871Y-65806575D01*
X31437678Y-65803571D01*
X31437679Y-65803566D01*
X31435957Y-65776773D01*
X31434530Y-65754421D01*
X31434340Y-65751438D01*
X31434314Y-65751215D01*
X31429936Y-65683083D01*
X31429933Y-65682864D01*
X31428196Y-65656016D01*
X31426879Y-65635519D01*
X31426571Y-65630720D01*
X31426570Y-65630717D01*
X31426383Y-65627803D01*
X31426357Y-65627576D01*
X31421943Y-65559350D01*
X31421941Y-65559105D01*
X31420069Y-65530363D01*
X31418550Y-65506864D01*
X31418548Y-65506860D01*
X31418374Y-65504155D01*
X31418350Y-65503946D01*
X31413866Y-65435068D01*
X31413863Y-65434841D01*
X31413676Y-65431994D01*
X31413677Y-65431992D01*
X31412718Y-65417350D01*
X31412011Y-65406550D01*
X31410279Y-65379954D01*
X31410254Y-65379737D01*
X31405767Y-65311230D01*
X31405764Y-65311026D01*
X31404057Y-65285123D01*
X31403686Y-65279454D01*
X31402325Y-65258678D01*
X31402324Y-65258675D01*
X31402136Y-65255802D01*
X31402109Y-65255574D01*
X31397556Y-65186479D01*
X31397552Y-65186249D01*
X31395693Y-65158219D01*
X31394880Y-65145875D01*
X31394120Y-65134345D01*
X31394119Y-65134343D01*
X31393927Y-65131420D01*
X31393901Y-65131206D01*
X31389315Y-65062064D01*
X31389313Y-65061849D01*
X31387394Y-65033082D01*
X31386087Y-65013373D01*
X31385853Y-65009846D01*
X31385852Y-65009844D01*
X31385661Y-65006958D01*
X31385634Y-65006734D01*
X31381005Y-64937359D01*
X31381002Y-64937131D01*
X31380137Y-64924258D01*
X31379141Y-64909422D01*
X31377524Y-64885180D01*
X31377523Y-64885179D01*
X31377333Y-64882317D01*
X31377306Y-64882095D01*
X31372651Y-64812772D01*
X31372648Y-64812551D01*
X31372440Y-64809481D01*
X31372441Y-64809479D01*
X31370778Y-64784871D01*
X31369132Y-64760342D01*
X31369131Y-64760339D01*
X31368926Y-64757281D01*
X31368899Y-64757055D01*
X31364219Y-64687769D01*
X31364216Y-64687550D01*
X31364006Y-64684468D01*
X31364007Y-64684466D01*
X31362429Y-64661250D01*
X31360679Y-64635333D01*
X31360678Y-64635332D01*
X31360481Y-64632402D01*
X31360452Y-64632159D01*
X31355704Y-64562289D01*
X31355701Y-64562056D01*
X31353778Y-64533934D01*
X31353618Y-64531578D01*
X31352162Y-64510148D01*
X31352160Y-64510143D01*
X31351959Y-64507176D01*
X31351934Y-64506969D01*
X31347152Y-64437020D01*
X31347149Y-64436811D01*
X31346950Y-64433921D01*
X31346951Y-64433917D01*
X31345217Y-64408715D01*
X31343582Y-64384785D01*
X31343581Y-64384783D01*
X31343389Y-64381967D01*
X31343363Y-64381748D01*
X31338535Y-64311534D01*
X31338530Y-64311301D01*
X31338327Y-64308374D01*
X31338328Y-64308371D01*
X31336556Y-64282755D01*
X31334939Y-64259241D01*
X31334937Y-64259236D01*
X31334752Y-64256535D01*
X31334728Y-64256333D01*
X31329855Y-64185910D01*
X31329853Y-64185708D01*
X31327999Y-64159062D01*
X31326040Y-64130742D01*
X31326012Y-64130505D01*
X31321101Y-64059925D01*
X31321097Y-64059708D01*
X31320888Y-64056729D01*
X31320889Y-64056726D01*
X31319192Y-64032482D01*
X31317461Y-64007598D01*
X31317460Y-64007596D01*
X31317262Y-64004743D01*
X31317235Y-64004519D01*
X31312286Y-63933810D01*
X31312283Y-63933599D01*
X31312073Y-63930624D01*
X31312074Y-63930622D01*
X31310329Y-63905839D01*
X31308626Y-63881495D01*
X31308624Y-63881490D01*
X31308412Y-63878450D01*
X31308386Y-63878240D01*
X31303400Y-63807404D01*
X31303397Y-63807187D01*
X31301370Y-63778553D01*
X31299518Y-63752234D01*
X31299492Y-63752024D01*
X31294464Y-63680991D01*
X31294458Y-63680671D01*
X31292516Y-63653457D01*
X31292237Y-63649514D01*
X31290765Y-63628715D01*
X31290763Y-63628711D01*
X31290565Y-63625901D01*
X31290527Y-63625588D01*
X31276750Y-63432540D01*
X31276743Y-63432175D01*
X31275192Y-63410656D01*
X31274794Y-63405126D01*
X31273025Y-63380328D01*
X31273023Y-63380323D01*
X31272812Y-63377358D01*
X31272766Y-63376989D01*
X31258034Y-63172506D01*
X31258027Y-63172174D01*
X31257817Y-63169287D01*
X31257818Y-63169283D01*
X31256046Y-63144904D01*
X31254268Y-63120218D01*
X31254266Y-63120212D01*
X31254069Y-63117473D01*
X31254029Y-63117147D01*
X31239737Y-62920449D01*
X31238356Y-62901445D01*
X31238349Y-62901148D01*
X31238138Y-62898271D01*
X31238139Y-62898267D01*
X31236333Y-62873607D01*
X31234559Y-62849190D01*
X31234558Y-62849187D01*
X31234362Y-62846486D01*
X31234324Y-62846176D01*
X31227955Y-62759200D01*
X31217768Y-62620087D01*
X31217763Y-62619822D01*
X31215774Y-62592851D01*
X31213955Y-62568007D01*
X31213954Y-62568004D01*
X31213750Y-62565215D01*
X31213716Y-62564947D01*
X31196376Y-62329830D01*
X31196371Y-62329575D01*
X31196144Y-62326523D01*
X31196145Y-62326520D01*
X31194379Y-62302731D01*
X31192513Y-62277426D01*
X31192512Y-62277425D01*
X31192306Y-62274619D01*
X31192272Y-62274347D01*
X31174179Y-62030611D01*
X31174174Y-62030375D01*
X31173945Y-62027314D01*
X31173946Y-62027311D01*
X31172070Y-62002195D01*
X31170290Y-61978212D01*
X31170289Y-61978209D01*
X31170076Y-61975337D01*
X31170047Y-61975099D01*
X31151264Y-61723601D01*
X31151259Y-61723398D01*
X31151021Y-61720232D01*
X31151022Y-61720228D01*
X31149307Y-61697401D01*
X31147345Y-61671125D01*
X31147343Y-61671119D01*
X31147122Y-61668156D01*
X31147093Y-61667920D01*
X31127669Y-61409330D01*
X31127663Y-61409091D01*
X31125538Y-61380972D01*
X31123519Y-61354083D01*
X31123490Y-61353851D01*
X31122732Y-61343817D01*
X31103476Y-61088877D01*
X31103472Y-61088651D01*
X31101274Y-61059700D01*
X31101163Y-61058228D01*
X31099513Y-61036383D01*
X31099511Y-61036379D01*
X31099275Y-61033245D01*
X31099249Y-61033044D01*
X31095726Y-60986645D01*
X31078696Y-60762331D01*
X31078692Y-60762132D01*
X31076602Y-60734746D01*
X31074762Y-60710508D01*
X31074743Y-60710254D01*
X31074742Y-60710250D01*
X31074530Y-60707458D01*
X31074505Y-60707258D01*
X31071630Y-60669591D01*
X31053465Y-60431533D01*
X31053462Y-60431352D01*
X31051465Y-60405314D01*
X31049254Y-60376330D01*
X31049225Y-60376100D01*
X31044458Y-60313935D01*
X31028765Y-60109268D01*
X31027793Y-60096589D01*
X31027788Y-60096399D01*
X31027557Y-60093405D01*
X31027558Y-60093401D01*
X31025617Y-60068209D01*
X31023783Y-60044291D01*
X31023782Y-60044288D01*
X31023545Y-60041195D01*
X31023519Y-60040991D01*
X31001743Y-59758357D01*
X31001737Y-59758145D01*
X30999509Y-59729357D01*
X30997708Y-59705981D01*
X30997707Y-59705979D01*
X30997479Y-59703013D01*
X30997452Y-59702802D01*
X30975364Y-59417495D01*
X30975360Y-59417307D01*
X30975122Y-59414252D01*
X30975123Y-59414249D01*
X30973193Y-59389439D01*
X30971312Y-59365139D01*
X30971310Y-59365135D01*
X30971075Y-59362089D01*
X30971050Y-59361893D01*
X30948725Y-59074864D01*
X30948719Y-59074655D01*
X30946484Y-59046064D01*
X30946484Y-59046063D01*
X30944654Y-59022525D01*
X30944653Y-59022522D01*
X30944434Y-59019703D01*
X30944409Y-59019512D01*
X30921876Y-58731175D01*
X30921870Y-58730956D01*
X30919608Y-58702146D01*
X30917574Y-58676118D01*
X30917549Y-58675920D01*
X30894885Y-58387291D01*
X30894880Y-58387089D01*
X30894647Y-58384142D01*
X30894648Y-58384139D01*
X30892668Y-58359045D01*
X30891237Y-58340818D01*
X30890546Y-58332012D01*
X30890518Y-58331796D01*
X30873721Y-58118906D01*
X30867820Y-58044132D01*
X30867815Y-58043905D01*
X30865476Y-58014402D01*
X30863450Y-57988729D01*
X30863424Y-57988535D01*
X30840699Y-57701912D01*
X30840693Y-57701695D01*
X30840455Y-57698716D01*
X30840456Y-57698714D01*
X30838526Y-57674501D01*
X30836554Y-57649621D01*
X30836553Y-57649619D01*
X30836338Y-57646900D01*
X30836310Y-57646685D01*
X30813612Y-57361843D01*
X30813607Y-57361633D01*
X30811534Y-57335750D01*
X30809799Y-57313980D01*
X30809450Y-57309597D01*
X30809448Y-57309593D01*
X30809220Y-57306722D01*
X30809189Y-57306493D01*
X30786615Y-57024668D01*
X30786610Y-57024445D01*
X30784366Y-56996574D01*
X30782214Y-56969707D01*
X30782183Y-56969477D01*
X30759748Y-56690895D01*
X30759742Y-56690670D01*
X30759510Y-56687809D01*
X30759511Y-56687806D01*
X30757439Y-56662216D01*
X30755548Y-56638731D01*
X30755546Y-56638726D01*
X30755307Y-56635753D01*
X30755274Y-56635508D01*
X30733091Y-56361591D01*
X30733084Y-56361342D01*
X30730953Y-56335195D01*
X30728638Y-56306600D01*
X30728601Y-56306328D01*
X30727503Y-56292844D01*
X32790000Y-56292844D01*
X32796401Y-56352372D01*
X32796403Y-56352379D01*
X32846645Y-56487086D01*
X32846649Y-56487093D01*
X32932809Y-56602187D01*
X32932812Y-56602190D01*
X33047906Y-56688350D01*
X33047913Y-56688354D01*
X33182620Y-56738596D01*
X33182627Y-56738598D01*
X33242155Y-56744999D01*
X33242172Y-56745000D01*
X33765000Y-56745000D01*
X33765000Y-55981912D01*
X33856025Y-55995000D01*
X33923975Y-55995000D01*
X34015000Y-55981912D01*
X34015000Y-56745000D01*
X34537828Y-56745000D01*
X34537844Y-56744999D01*
X34597372Y-56738598D01*
X34597379Y-56738596D01*
X34732086Y-56688354D01*
X34732093Y-56688350D01*
X34847187Y-56602190D01*
X34847190Y-56602187D01*
X34933350Y-56487093D01*
X34933354Y-56487086D01*
X34983596Y-56352379D01*
X34983598Y-56352372D01*
X34989999Y-56292844D01*
X34990000Y-56292827D01*
X34990000Y-55645000D01*
X34348350Y-55645000D01*
X34365000Y-55588295D01*
X34365000Y-55451705D01*
X34348350Y-55395000D01*
X34990000Y-55395000D01*
X34990000Y-54747172D01*
X34989999Y-54747155D01*
X34983598Y-54687627D01*
X34983596Y-54687620D01*
X34933354Y-54552913D01*
X34933350Y-54552906D01*
X34847190Y-54437812D01*
X34847187Y-54437809D01*
X34732093Y-54351649D01*
X34732086Y-54351645D01*
X34597379Y-54301403D01*
X34597372Y-54301401D01*
X34537844Y-54295000D01*
X34015000Y-54295000D01*
X34015000Y-55058087D01*
X33923975Y-55045000D01*
X33856025Y-55045000D01*
X33765000Y-55058087D01*
X33765000Y-54295000D01*
X33242155Y-54295000D01*
X33182627Y-54301401D01*
X33182620Y-54301403D01*
X33047913Y-54351645D01*
X33047906Y-54351649D01*
X32932812Y-54437809D01*
X32932809Y-54437812D01*
X32846649Y-54552906D01*
X32846645Y-54552913D01*
X32796403Y-54687620D01*
X32796401Y-54687627D01*
X32790000Y-54747155D01*
X32790000Y-55395000D01*
X33431650Y-55395000D01*
X33415000Y-55451705D01*
X33415000Y-55588295D01*
X33431650Y-55645000D01*
X32790000Y-55645000D01*
X32790000Y-56292844D01*
X30727503Y-56292844D01*
X30708198Y-56055875D01*
X30706702Y-56037511D01*
X30706694Y-56037248D01*
X30706448Y-56034254D01*
X30706449Y-56034252D01*
X30704460Y-56009999D01*
X30702440Y-55985193D01*
X30702439Y-55985189D01*
X30702212Y-55982402D01*
X30702176Y-55982132D01*
X30680596Y-55718872D01*
X30680587Y-55718577D01*
X30678335Y-55691291D01*
X30677291Y-55678556D01*
X30676330Y-55666829D01*
X30676328Y-55666825D01*
X30676084Y-55663839D01*
X30676043Y-55663530D01*
X30673214Y-55629255D01*
X30654902Y-55407351D01*
X30654892Y-55407040D01*
X30654649Y-55404120D01*
X30654650Y-55404116D01*
X30652619Y-55379690D01*
X30650589Y-55355083D01*
X30650588Y-55355080D01*
X30650353Y-55352230D01*
X30650310Y-55351907D01*
X30629602Y-55102768D01*
X30629591Y-55102435D01*
X30629365Y-55099742D01*
X30629366Y-55099739D01*
X30627318Y-55075293D01*
X30625276Y-55050718D01*
X30625275Y-55050714D01*
X30625048Y-55047983D01*
X30625002Y-55047641D01*
X30604817Y-54806620D01*
X30604804Y-54806241D01*
X30604572Y-54803501D01*
X30604573Y-54803498D01*
X30602509Y-54779063D01*
X30600452Y-54754498D01*
X30600451Y-54754495D01*
X30600221Y-54751745D01*
X30600169Y-54751364D01*
X30580580Y-54519422D01*
X30580566Y-54519012D01*
X30580323Y-54516165D01*
X30580324Y-54516161D01*
X30578297Y-54492379D01*
X30576169Y-54467180D01*
X30576168Y-54467177D01*
X30575938Y-54464452D01*
X30575880Y-54464029D01*
X30556933Y-54241705D01*
X30556917Y-54241245D01*
X30556679Y-54238487D01*
X30556680Y-54238484D01*
X30554597Y-54214296D01*
X30552487Y-54189528D01*
X30552485Y-54189524D01*
X30552250Y-54186756D01*
X30552185Y-54186278D01*
X30533947Y-53974405D01*
X30533928Y-53973887D01*
X30533545Y-53969491D01*
X30531589Y-53947010D01*
X30529462Y-53922300D01*
X30529460Y-53922296D01*
X30529232Y-53919638D01*
X30529160Y-53919108D01*
X30513093Y-53734515D01*
X30511693Y-53718432D01*
X30511669Y-53717771D01*
X30509291Y-53690826D01*
X30508066Y-53676750D01*
X30507153Y-53666259D01*
X30507152Y-53666256D01*
X30506928Y-53663679D01*
X30506836Y-53663007D01*
X30483878Y-53402882D01*
X30483847Y-53402083D01*
X30481415Y-53374975D01*
X30479051Y-53348175D01*
X30478940Y-53347382D01*
X30455689Y-53088178D01*
X30455656Y-53087336D01*
X30453196Y-53060378D01*
X30453196Y-53060377D01*
X30451014Y-53036048D01*
X30451012Y-53036044D01*
X30450791Y-53033571D01*
X30450674Y-53032739D01*
X30427105Y-52774457D01*
X30427067Y-52773540D01*
X30424569Y-52746657D01*
X30424569Y-52746656D01*
X30422348Y-52722314D01*
X30422347Y-52722311D01*
X30422122Y-52719844D01*
X30421994Y-52718949D01*
X30398081Y-52461556D01*
X30398039Y-52460590D01*
X30395500Y-52433771D01*
X30395500Y-52433770D01*
X30393238Y-52409420D01*
X30393237Y-52409417D01*
X30393012Y-52406994D01*
X30392873Y-52406027D01*
X30368585Y-52149454D01*
X30368539Y-52148431D01*
X30365951Y-52121624D01*
X30363418Y-52094862D01*
X30363269Y-52093850D01*
X30338572Y-51837994D01*
X30338523Y-51836928D01*
X30335864Y-51809930D01*
X30333318Y-51783553D01*
X30333159Y-51782474D01*
X30330958Y-51760132D01*
X30314788Y-51595953D01*
X30308027Y-51527309D01*
X30307970Y-51526165D01*
X30307729Y-51523775D01*
X30307730Y-51523772D01*
X30305265Y-51499268D01*
X30302893Y-51475178D01*
X30302892Y-51475176D01*
X30302664Y-51472855D01*
X30302497Y-51471742D01*
X30276893Y-51217138D01*
X30276831Y-51215958D01*
X30276588Y-51213600D01*
X30276589Y-51213597D01*
X30274105Y-51189428D01*
X30271653Y-51165037D01*
X30271652Y-51165033D01*
X30271420Y-51162726D01*
X30271241Y-51161543D01*
X30245139Y-50907475D01*
X30245071Y-50906233D01*
X30243732Y-50893487D01*
X30242301Y-50879857D01*
X30239792Y-50855432D01*
X30239791Y-50855429D01*
X30239556Y-50853141D01*
X30239364Y-50851890D01*
X30220263Y-50670000D01*
X30212738Y-50598345D01*
X30212664Y-50597033D01*
X30211969Y-50590564D01*
X30209795Y-50570315D01*
X30207273Y-50546299D01*
X30207272Y-50546296D01*
X30207035Y-50544039D01*
X30206835Y-50542765D01*
X30179646Y-50289578D01*
X30179568Y-50288247D01*
X30179324Y-50286031D01*
X30179325Y-50286028D01*
X30176663Y-50261798D01*
X30174062Y-50237579D01*
X30174061Y-50237577D01*
X30173824Y-50235367D01*
X30173611Y-50234029D01*
X30145835Y-49981206D01*
X30145748Y-49979802D01*
X30142796Y-49953547D01*
X30142464Y-49950527D01*
X30140122Y-49929207D01*
X30140120Y-49929203D01*
X30139881Y-49927021D01*
X30139655Y-49925623D01*
X30111262Y-49673112D01*
X30111171Y-49671661D01*
X30108139Y-49645328D01*
X30105767Y-49624232D01*
X30105418Y-49621127D01*
X30105417Y-49621124D01*
X30105174Y-49618961D01*
X30104938Y-49617528D01*
X30075895Y-49365236D01*
X30075797Y-49363745D01*
X30075545Y-49361613D01*
X30075546Y-49361610D01*
X30072703Y-49337495D01*
X30069915Y-49313274D01*
X30069914Y-49313271D01*
X30069666Y-49311115D01*
X30069416Y-49309623D01*
X30039697Y-49057517D01*
X30039591Y-49055990D01*
X30039337Y-49053891D01*
X30039338Y-49053886D01*
X30036457Y-49030031D01*
X30033576Y-49005587D01*
X30033574Y-49005583D01*
X30033330Y-49003506D01*
X30033067Y-49001961D01*
X30002632Y-48749898D01*
X30002518Y-48748320D01*
X30002264Y-48746270D01*
X30002265Y-48746265D01*
X29999297Y-48722276D01*
X29996367Y-48698008D01*
X29996365Y-48698004D01*
X29996117Y-48695943D01*
X29995841Y-48694340D01*
X29989528Y-48643313D01*
X29964671Y-48442386D01*
X29964546Y-48440726D01*
X29961217Y-48414465D01*
X29957996Y-48388425D01*
X29957708Y-48386784D01*
X29936863Y-48222338D01*
X29925767Y-48134804D01*
X29925638Y-48133132D01*
X29922269Y-48107198D01*
X29918941Y-48080936D01*
X29918636Y-48079230D01*
X29905358Y-47977012D01*
X29885892Y-47827156D01*
X29885751Y-47825416D01*
X29882310Y-47799574D01*
X29881641Y-47794420D01*
X29879156Y-47775289D01*
X29879155Y-47775286D01*
X29878898Y-47773307D01*
X29878582Y-47771570D01*
X29845004Y-47519342D01*
X29844853Y-47517558D01*
X29841300Y-47491525D01*
X29839179Y-47475589D01*
X29838105Y-47467520D01*
X29838104Y-47467517D01*
X29837843Y-47465556D01*
X29837517Y-47463796D01*
X29803082Y-47211403D01*
X29802921Y-47209582D01*
X29802645Y-47207613D01*
X29802646Y-47207609D01*
X29799294Y-47183644D01*
X29796463Y-47162886D01*
X29795747Y-47157637D01*
X29795404Y-47155821D01*
X29760069Y-46903135D01*
X29759898Y-46901268D01*
X29759622Y-46899346D01*
X29759623Y-46899339D01*
X29756169Y-46875244D01*
X29752825Y-46851324D01*
X29752822Y-46851318D01*
X29752553Y-46849388D01*
X29752200Y-46847548D01*
X29732696Y-46711455D01*
X29715942Y-46594552D01*
X29715759Y-46592628D01*
X29715482Y-46590747D01*
X29715483Y-46590745D01*
X29711934Y-46566585D01*
X29708522Y-46542773D01*
X29708521Y-46542771D01*
X29708252Y-46540891D01*
X29707885Y-46539022D01*
X29670660Y-46285559D01*
X29670470Y-46283634D01*
X29666610Y-46257987D01*
X29662793Y-46231997D01*
X29662406Y-46230054D01*
X29661378Y-46223224D01*
X29624197Y-45976177D01*
X29623994Y-45974190D01*
X29623710Y-45972354D01*
X29623711Y-45972351D01*
X29620013Y-45948376D01*
X29616415Y-45924464D01*
X29616139Y-45922627D01*
X29615739Y-45920664D01*
X29576509Y-45666274D01*
X29576298Y-45664280D01*
X29576006Y-45662435D01*
X29576007Y-45662428D01*
X29572251Y-45638654D01*
X29572251Y-45638652D01*
X29568260Y-45612771D01*
X29567843Y-45610757D01*
X29566590Y-45602828D01*
X29547619Y-45482750D01*
X29527566Y-45355817D01*
X29527342Y-45353770D01*
X29523172Y-45328002D01*
X29519115Y-45302323D01*
X29518688Y-45300301D01*
X29477318Y-45044680D01*
X29477084Y-45042614D01*
X29476787Y-45040827D01*
X29476788Y-45040823D01*
X29472849Y-45017062D01*
X29468966Y-44993066D01*
X29468678Y-44991285D01*
X29468233Y-44989218D01*
X29468080Y-44988294D01*
X29425744Y-44732873D01*
X29425495Y-44730753D01*
X29423737Y-44720400D01*
X29421122Y-44704992D01*
X29417197Y-44681308D01*
X29417195Y-44681304D01*
X29416901Y-44679527D01*
X29416451Y-44677469D01*
X29372811Y-44420360D01*
X29372552Y-44418217D01*
X29368099Y-44392592D01*
X29363763Y-44367046D01*
X29363293Y-44364939D01*
X29348905Y-44282143D01*
X29318475Y-44107028D01*
X29318203Y-44104854D01*
X29313649Y-44079253D01*
X29309219Y-44053753D01*
X29308733Y-44051613D01*
X29277033Y-43873390D01*
X29262693Y-43792768D01*
X29262342Y-43790066D01*
X29262080Y-43788639D01*
X29262081Y-43788635D01*
X29257743Y-43764937D01*
X29253540Y-43741303D01*
X29253538Y-43741299D01*
X29253286Y-43739879D01*
X29252669Y-43737214D01*
X29247547Y-43709231D01*
X29176051Y-43318598D01*
X29175622Y-43315421D01*
X29170952Y-43290729D01*
X29166428Y-43266012D01*
X29165685Y-43262885D01*
X29086511Y-42844259D01*
X29086070Y-42841141D01*
X29085841Y-42839965D01*
X29081236Y-42816365D01*
X29076803Y-42792926D01*
X29076802Y-42792924D01*
X29076575Y-42791722D01*
X29075832Y-42788670D01*
X29000294Y-42401552D01*
X28994159Y-42370110D01*
X28993712Y-42367076D01*
X28993466Y-42365852D01*
X28993466Y-42365849D01*
X28988750Y-42342390D01*
X28984154Y-42318834D01*
X28984152Y-42318830D01*
X28983912Y-42317598D01*
X28983161Y-42314590D01*
X28899052Y-41896163D01*
X28898595Y-41893178D01*
X28898335Y-41891920D01*
X28898335Y-41891917D01*
X28893474Y-41868413D01*
X28888753Y-41844924D01*
X28888499Y-41843660D01*
X28887752Y-41840745D01*
X28801245Y-41422413D01*
X28800784Y-41419498D01*
X28800133Y-41416435D01*
X28795494Y-41394599D01*
X28790661Y-41371225D01*
X28790658Y-41371219D01*
X28790388Y-41369911D01*
X28789643Y-41367063D01*
X28785978Y-41349811D01*
X28700797Y-40948875D01*
X28700329Y-40946024D01*
X28700042Y-40944708D01*
X28700042Y-40944702D01*
X28694903Y-40921132D01*
X28689938Y-40897761D01*
X28689936Y-40897758D01*
X28689657Y-40896441D01*
X28688909Y-40893638D01*
X28677932Y-40843290D01*
X28597772Y-40475614D01*
X28597301Y-40472838D01*
X28596998Y-40471482D01*
X28596998Y-40471478D01*
X28591780Y-40448129D01*
X28586642Y-40424561D01*
X28586641Y-40424559D01*
X28586346Y-40423205D01*
X28585596Y-40420460D01*
X28492232Y-40002662D01*
X28491751Y-39999911D01*
X28486062Y-39975050D01*
X28480526Y-39950275D01*
X28479782Y-39947608D01*
X28384226Y-39529991D01*
X28383748Y-39527335D01*
X28377956Y-39502592D01*
X28372249Y-39477647D01*
X28371499Y-39475004D01*
X28365178Y-39447999D01*
X28273823Y-39057688D01*
X28273342Y-39055087D01*
X28272998Y-39053649D01*
X28272998Y-39053643D01*
X28267377Y-39030145D01*
X28266917Y-39028181D01*
X28263298Y-39012718D01*
X28261915Y-39006807D01*
X28261913Y-39006803D01*
X28261573Y-39005349D01*
X28260834Y-39002793D01*
X28260687Y-39002179D01*
X28161085Y-38585771D01*
X28160602Y-38583227D01*
X28160238Y-38581735D01*
X28154531Y-38558367D01*
X28148924Y-38534926D01*
X28148567Y-38533433D01*
X28147831Y-38530934D01*
X28046060Y-38114222D01*
X28045574Y-38111736D01*
X28045198Y-38110227D01*
X28045198Y-38110224D01*
X28039389Y-38086910D01*
X28033658Y-38063443D01*
X28033655Y-38063437D01*
X28033287Y-38061929D01*
X28032560Y-38059501D01*
X27928817Y-37643118D01*
X27928336Y-37640709D01*
X27922050Y-37615958D01*
X27920838Y-37611096D01*
X27916176Y-37592383D01*
X27916173Y-37592378D01*
X27915797Y-37590866D01*
X27915069Y-37588476D01*
X27809407Y-37172448D01*
X27808923Y-37170077D01*
X27808516Y-37168504D01*
X27808516Y-37168501D01*
X27806163Y-37159408D01*
X27802474Y-37145144D01*
X27797913Y-37127190D01*
X27796538Y-37121774D01*
X27796536Y-37121770D01*
X27796140Y-37120210D01*
X27795424Y-37117899D01*
X27691096Y-36714624D01*
X27687896Y-36702253D01*
X27687415Y-36699951D01*
X27686992Y-36698345D01*
X27686992Y-36698342D01*
X27680847Y-36675007D01*
X27674803Y-36651643D01*
X27674800Y-36651637D01*
X27674392Y-36650059D01*
X27673688Y-36647820D01*
X27564340Y-36232562D01*
X27563860Y-36230305D01*
X27557196Y-36205427D01*
X27554291Y-36194397D01*
X27551031Y-36182015D01*
X27551029Y-36182011D01*
X27550603Y-36180393D01*
X27549899Y-36178184D01*
X27438809Y-35763428D01*
X27438327Y-35761220D01*
X27437877Y-35759567D01*
X27437877Y-35759564D01*
X27431523Y-35736227D01*
X27426184Y-35716295D01*
X27424840Y-35711275D01*
X27424137Y-35709103D01*
X27424099Y-35708965D01*
X27311344Y-35294822D01*
X27310867Y-35292671D01*
X27303977Y-35267765D01*
X27300648Y-35255537D01*
X27297611Y-35244379D01*
X27297608Y-35244373D01*
X27297153Y-35242701D01*
X27296468Y-35240618D01*
X27233488Y-35012909D01*
X27595748Y-35012909D01*
X27633675Y-35123390D01*
X27674770Y-35178503D01*
X27674775Y-35178508D01*
X28623303Y-36127035D01*
X28623307Y-36127038D01*
X28678423Y-36168138D01*
X28788904Y-36206066D01*
X28905714Y-36206066D01*
X29016195Y-36168138D01*
X29071306Y-36127044D01*
X29077118Y-36121231D01*
X27680582Y-34724695D01*
X27674764Y-34730515D01*
X27633676Y-34785616D01*
X27633675Y-34785617D01*
X27595748Y-34896100D01*
X27595748Y-35012909D01*
X27233488Y-35012909D01*
X27182016Y-34826806D01*
X27181544Y-34824720D01*
X27181067Y-34823022D01*
X27181067Y-34823017D01*
X27174514Y-34799682D01*
X27168082Y-34776425D01*
X27168081Y-34776423D01*
X27167605Y-34774701D01*
X27166926Y-34772658D01*
X27103818Y-34547918D01*
X27857358Y-34547918D01*
X28467237Y-35157798D01*
X28518600Y-35157798D01*
X28518600Y-35161108D01*
X28563206Y-35164282D01*
X28607598Y-35192799D01*
X28609013Y-35194214D01*
X28642498Y-35255537D01*
X28640519Y-35283212D01*
X28644015Y-35283212D01*
X28644015Y-35334574D01*
X29253895Y-35944454D01*
X29253896Y-35944454D01*
X29259699Y-35938650D01*
X29259702Y-35938646D01*
X29300803Y-35883530D01*
X29325640Y-35811179D01*
X29366025Y-35754163D01*
X29402656Y-35734161D01*
X29476054Y-35708963D01*
X29531250Y-35667806D01*
X29719709Y-35479347D01*
X29760866Y-35424151D01*
X29786063Y-35350754D01*
X29826447Y-35293741D01*
X29863082Y-35273737D01*
X29935433Y-35248900D01*
X29990545Y-35207805D01*
X29996357Y-35201992D01*
X29386478Y-34592113D01*
X29335117Y-34592111D01*
X29335117Y-34588813D01*
X29290379Y-34585580D01*
X29246119Y-34557112D01*
X29244700Y-34555693D01*
X29211215Y-34494370D01*
X29213194Y-34466696D01*
X29209702Y-34466697D01*
X29209699Y-34415336D01*
X29563254Y-34415336D01*
X30173134Y-35025215D01*
X30173135Y-35025215D01*
X30178938Y-35019411D01*
X30178941Y-35019407D01*
X30220042Y-34964291D01*
X30245084Y-34891344D01*
X30285469Y-34834328D01*
X30322105Y-34814323D01*
X30395052Y-34789281D01*
X30450164Y-34748186D01*
X30455976Y-34742373D01*
X30455975Y-34742371D01*
X29846098Y-34132494D01*
X29846097Y-34132494D01*
X29563254Y-34415335D01*
X29563254Y-34415336D01*
X29209699Y-34415336D01*
X29209699Y-34415335D01*
X28599821Y-33805456D01*
X28594003Y-33811276D01*
X28552915Y-33866377D01*
X28552912Y-33866382D01*
X28528075Y-33938731D01*
X28487689Y-33995747D01*
X28451058Y-34015749D01*
X28377662Y-34040947D01*
X28377660Y-34040947D01*
X28377658Y-34040949D01*
X28322467Y-34082102D01*
X28134005Y-34270564D01*
X28092852Y-34325755D01*
X28092850Y-34325757D01*
X28092850Y-34325759D01*
X28087165Y-34342318D01*
X28067652Y-34399156D01*
X28027265Y-34456171D01*
X27990634Y-34476172D01*
X27918284Y-34501009D01*
X27863178Y-34542100D01*
X27863165Y-34542112D01*
X27857359Y-34547917D01*
X27857358Y-34547918D01*
X27103818Y-34547918D01*
X27081011Y-34466697D01*
X27050888Y-34359426D01*
X27050421Y-34357392D01*
X27043339Y-34332536D01*
X27036267Y-34307353D01*
X27035596Y-34305361D01*
X27025681Y-34270563D01*
X26980634Y-34112456D01*
X26918015Y-33892678D01*
X26917544Y-33890671D01*
X26911583Y-33870042D01*
X26910271Y-33865500D01*
X26903683Y-33842377D01*
X26903185Y-33840629D01*
X26902527Y-33838698D01*
X26898030Y-33823134D01*
X26841844Y-33628679D01*
X28776597Y-33628679D01*
X29386476Y-34238559D01*
X29386477Y-34238559D01*
X29669320Y-33955717D01*
X30022874Y-33955717D01*
X30632753Y-34565596D01*
X30632754Y-34565596D01*
X30638557Y-34559791D01*
X30638560Y-34559788D01*
X30679661Y-34504672D01*
X30704703Y-34431724D01*
X30745088Y-34374708D01*
X30781724Y-34354703D01*
X30854672Y-34329661D01*
X30909784Y-34288566D01*
X30915596Y-34282753D01*
X30915595Y-34282752D01*
X30305716Y-33672874D01*
X30305715Y-33672874D01*
X30022874Y-33955716D01*
X30022874Y-33955717D01*
X29669320Y-33955717D01*
X29059440Y-33345837D01*
X29053622Y-33351657D01*
X29012534Y-33406758D01*
X29012531Y-33406763D01*
X28987489Y-33479710D01*
X28947104Y-33536725D01*
X28910471Y-33556728D01*
X28837523Y-33581770D01*
X28782417Y-33622861D01*
X28782404Y-33622873D01*
X28776598Y-33628678D01*
X28776597Y-33628679D01*
X26841844Y-33628679D01*
X26783439Y-33426541D01*
X26782981Y-33424620D01*
X26775721Y-33399829D01*
X26770410Y-33381451D01*
X26768933Y-33376338D01*
X26768931Y-33376334D01*
X26768412Y-33374538D01*
X26767761Y-33372654D01*
X26708136Y-33169059D01*
X29236216Y-33169059D01*
X29846096Y-33778939D01*
X30121192Y-33503844D01*
X30128937Y-33496097D01*
X30482493Y-33496097D01*
X31092373Y-34105976D01*
X31092374Y-34105976D01*
X31098177Y-34100172D01*
X31098180Y-34100168D01*
X31139281Y-34045052D01*
X31164323Y-33972105D01*
X31204708Y-33915089D01*
X31241344Y-33895084D01*
X31314291Y-33870042D01*
X31369403Y-33828947D01*
X31375215Y-33823134D01*
X31375214Y-33823132D01*
X30765337Y-33213254D01*
X30765336Y-33213254D01*
X30740146Y-33238444D01*
X30482493Y-33496096D01*
X30482493Y-33496097D01*
X30128937Y-33496097D01*
X30128938Y-33496096D01*
X29519060Y-32886217D01*
X29513242Y-32892037D01*
X29472154Y-32947138D01*
X29472150Y-32947145D01*
X29447109Y-33020090D01*
X29406724Y-33077106D01*
X29370090Y-33097109D01*
X29297144Y-33122151D01*
X29297142Y-33122151D01*
X29242036Y-33163242D01*
X29242023Y-33163254D01*
X29236217Y-33169059D01*
X29236216Y-33169059D01*
X26708136Y-33169059D01*
X26647261Y-32961194D01*
X26646809Y-32959323D01*
X26646263Y-32957483D01*
X26646263Y-32957480D01*
X26639356Y-32934201D01*
X26632559Y-32910990D01*
X26632558Y-32910989D01*
X26632026Y-32909170D01*
X26631387Y-32907340D01*
X26597566Y-32793341D01*
X26572674Y-32709440D01*
X29695836Y-32709440D01*
X30305715Y-33319320D01*
X30305716Y-33319320D01*
X30580811Y-33044225D01*
X30588558Y-33036476D01*
X29978679Y-32426598D01*
X29972861Y-32432418D01*
X29931773Y-32487519D01*
X29931770Y-32487524D01*
X29906728Y-32560471D01*
X29866343Y-32617486D01*
X29829710Y-32637489D01*
X29756762Y-32662531D01*
X29701656Y-32703622D01*
X29701643Y-32703634D01*
X29695837Y-32709439D01*
X29695836Y-32709440D01*
X26572674Y-32709440D01*
X26509496Y-32496493D01*
X26509052Y-32494678D01*
X26501578Y-32469804D01*
X26501578Y-32469803D01*
X26494624Y-32446361D01*
X26494621Y-32446355D01*
X26494073Y-32444508D01*
X26493444Y-32442726D01*
X26370219Y-32032528D01*
X26369783Y-32030776D01*
X26368836Y-32027663D01*
X26362227Y-32005925D01*
X26355184Y-31982478D01*
X26355182Y-31982476D01*
X26354626Y-31980622D01*
X26354006Y-31978885D01*
X26229516Y-31569414D01*
X26229083Y-31567700D01*
X26228495Y-31565789D01*
X26228495Y-31565786D01*
X26224912Y-31554139D01*
X26221378Y-31542646D01*
X26213722Y-31517465D01*
X26213118Y-31515791D01*
X26087411Y-31107065D01*
X26086981Y-31105384D01*
X26079160Y-31080233D01*
X26071438Y-31055124D01*
X26070843Y-31053490D01*
X26035222Y-30938947D01*
X25943967Y-30645509D01*
X25943549Y-30643897D01*
X25942937Y-30641951D01*
X25942937Y-30641948D01*
X25935660Y-30618799D01*
X25928438Y-30595573D01*
X25928437Y-30595572D01*
X25927834Y-30593631D01*
X25927255Y-30592058D01*
X25799271Y-30184874D01*
X25798854Y-30183284D01*
X25790829Y-30158012D01*
X25787273Y-30146699D01*
X25783578Y-30134943D01*
X25783575Y-30134938D01*
X25782953Y-30132958D01*
X25782392Y-30131444D01*
X25653342Y-29725047D01*
X25652934Y-29723513D01*
X25644857Y-29698327D01*
X25636871Y-29673176D01*
X25636318Y-29671701D01*
X25506271Y-29266170D01*
X25505877Y-29264703D01*
X25505218Y-29262668D01*
X25505218Y-29262665D01*
X25497689Y-29239407D01*
X25490295Y-29216350D01*
X25489646Y-29214325D01*
X25489110Y-29212904D01*
X25358128Y-28808285D01*
X25357886Y-28807390D01*
X25349599Y-28781938D01*
X25341225Y-28756070D01*
X25340887Y-28755179D01*
X25320641Y-28692995D01*
X25320545Y-28692640D01*
X25311928Y-28666233D01*
X25303488Y-28640311D01*
X25303358Y-28639970D01*
X25282956Y-28577446D01*
X25282862Y-28577098D01*
X25274327Y-28550996D01*
X25265806Y-28524883D01*
X25265674Y-28524541D01*
X25245122Y-28461693D01*
X25245026Y-28461341D01*
X25236634Y-28435736D01*
X25227949Y-28409180D01*
X25227818Y-28408840D01*
X25207137Y-28345738D01*
X25207047Y-28345406D01*
X25206131Y-28342618D01*
X25206131Y-28342614D01*
X25198341Y-28318897D01*
X25190797Y-28295878D01*
X25190795Y-28295875D01*
X25189893Y-28293122D01*
X25189770Y-28292803D01*
X25168988Y-28229531D01*
X25168898Y-28229199D01*
X25167988Y-28226435D01*
X25167988Y-28226432D01*
X25160154Y-28202631D01*
X25160154Y-28202630D01*
X25151756Y-28177060D01*
X25151627Y-28176726D01*
X25130679Y-28113083D01*
X25130592Y-28112763D01*
X25122049Y-28086863D01*
X25114611Y-28064265D01*
X25114311Y-28063353D01*
X25114309Y-28063350D01*
X25113452Y-28060745D01*
X25113329Y-28060426D01*
X25092292Y-27996643D01*
X25092203Y-27996319D01*
X25083792Y-27970872D01*
X25074982Y-27944163D01*
X25074846Y-27943810D01*
X25053765Y-27880032D01*
X25053674Y-27879699D01*
X25052767Y-27876961D01*
X25052767Y-27876959D01*
X25044788Y-27852871D01*
X25037314Y-27830257D01*
X25037313Y-27830255D01*
X25036403Y-27827502D01*
X25036284Y-27827198D01*
X25015146Y-27763376D01*
X25015054Y-27763045D01*
X25006445Y-27737107D01*
X24997794Y-27710987D01*
X24997668Y-27710661D01*
X24976382Y-27646529D01*
X24976298Y-27646223D01*
X24975401Y-27643526D01*
X24975401Y-27643524D01*
X24967665Y-27620264D01*
X24959890Y-27596837D01*
X24959889Y-27596836D01*
X24959018Y-27594210D01*
X24958893Y-27593886D01*
X24937589Y-27529830D01*
X24937502Y-27529516D01*
X24936585Y-27526765D01*
X24936585Y-27526761D01*
X24928834Y-27503504D01*
X24921046Y-27480085D01*
X24921044Y-27480082D01*
X24920187Y-27477504D01*
X24920063Y-27477185D01*
X24898702Y-27413086D01*
X24898612Y-27412766D01*
X24897694Y-27410017D01*
X24897694Y-27410015D01*
X24890021Y-27387037D01*
X24882126Y-27363346D01*
X24882124Y-27363342D01*
X24881179Y-27360507D01*
X24881058Y-27360197D01*
X24859788Y-27296501D01*
X24859693Y-27296159D01*
X24850698Y-27269275D01*
X24842281Y-27244068D01*
X24842159Y-27243755D01*
X24820739Y-27179737D01*
X24820653Y-27179431D01*
X24819733Y-27176687D01*
X24819733Y-27176685D01*
X24811905Y-27153338D01*
X24803185Y-27127272D01*
X24803061Y-27126959D01*
X24786910Y-27078784D01*
X24781716Y-27063289D01*
X24781626Y-27062968D01*
X24780378Y-27059254D01*
X24772925Y-27037068D01*
X24765032Y-27013523D01*
X24765031Y-27013521D01*
X24764163Y-27010932D01*
X24764041Y-27010621D01*
X24742597Y-26946789D01*
X24742510Y-26946477D01*
X24733688Y-26920267D01*
X24725038Y-26894518D01*
X24724916Y-26894208D01*
X24703494Y-26830569D01*
X24703410Y-26830265D01*
X24702501Y-26827570D01*
X24702501Y-26827568D01*
X24694613Y-26804181D01*
X24686792Y-26780945D01*
X24686789Y-26780941D01*
X24685890Y-26778268D01*
X24685769Y-26777960D01*
X24683077Y-26769979D01*
X24664434Y-26714702D01*
X24664342Y-26714376D01*
X24660848Y-26704038D01*
X24655597Y-26688499D01*
X24647653Y-26664944D01*
X24647652Y-26664942D01*
X24646762Y-26662303D01*
X24646635Y-26661980D01*
X24625347Y-26598987D01*
X24625258Y-26598672D01*
X24624278Y-26595778D01*
X24624278Y-26595776D01*
X24616265Y-26572113D01*
X24616265Y-26572112D01*
X24607573Y-26546390D01*
X24607447Y-26546072D01*
X24586143Y-26483157D01*
X24586051Y-26482831D01*
X24577033Y-26456251D01*
X24568452Y-26430909D01*
X24568331Y-26430602D01*
X24547148Y-26368170D01*
X24547058Y-26367852D01*
X24546102Y-26365040D01*
X24546102Y-26365038D01*
X24538236Y-26341900D01*
X24530282Y-26318456D01*
X24530280Y-26318453D01*
X24529368Y-26315764D01*
X24529247Y-26315461D01*
X24508129Y-26253340D01*
X24508036Y-26253014D01*
X24507058Y-26250142D01*
X24499200Y-26227074D01*
X24491210Y-26203570D01*
X24491208Y-26203567D01*
X24490277Y-26200827D01*
X24490149Y-26200503D01*
X24469072Y-26138625D01*
X24468976Y-26138292D01*
X24460276Y-26112801D01*
X24451248Y-26086300D01*
X24451116Y-26085969D01*
X24430115Y-26024437D01*
X24430023Y-26024120D01*
X24423810Y-26005955D01*
X24421227Y-25998401D01*
X24413206Y-25974900D01*
X24413203Y-25974895D01*
X24412299Y-25972246D01*
X24412179Y-25971944D01*
X24391291Y-25910869D01*
X24391193Y-25910528D01*
X24390232Y-25907724D01*
X24390232Y-25907722D01*
X24382153Y-25884148D01*
X24374299Y-25861183D01*
X24374297Y-25861180D01*
X24373401Y-25858559D01*
X24373273Y-25858238D01*
X24352472Y-25797544D01*
X24352375Y-25797203D01*
X24343166Y-25770389D01*
X24343166Y-25770388D01*
X24335464Y-25747912D01*
X24335461Y-25747907D01*
X24334538Y-25745213D01*
X24334415Y-25744904D01*
X24313697Y-25684571D01*
X24313609Y-25684263D01*
X24312709Y-25681648D01*
X24312709Y-25681646D01*
X24304999Y-25659242D01*
X24296719Y-25635127D01*
X24296716Y-25635123D01*
X24295792Y-25632430D01*
X24295656Y-25632088D01*
X24275100Y-25572347D01*
X24274998Y-25571997D01*
X24265969Y-25545809D01*
X24261610Y-25533144D01*
X24258070Y-25522855D01*
X24258068Y-25522852D01*
X24257121Y-25520099D01*
X24256993Y-25519779D01*
X24236650Y-25460781D01*
X24236558Y-25460463D01*
X24227692Y-25434801D01*
X24218604Y-25408448D01*
X24218471Y-25408117D01*
X24198178Y-25349387D01*
X24198083Y-25349058D01*
X24197184Y-25346462D01*
X24197184Y-25346459D01*
X24189113Y-25323150D01*
X24181106Y-25299976D01*
X24180178Y-25297290D01*
X24180040Y-25296949D01*
X24179702Y-25295973D01*
X24159993Y-25239050D01*
X24159894Y-25238709D01*
X24151170Y-25213567D01*
X24141861Y-25186683D01*
X24141712Y-25186313D01*
X24133015Y-25161248D01*
X24121842Y-25129047D01*
X24121702Y-25128566D01*
X24112603Y-25102419D01*
X24109210Y-25092641D01*
X24104661Y-25079529D01*
X24104659Y-25079526D01*
X24103762Y-25076940D01*
X24103580Y-25076487D01*
X24063383Y-24960971D01*
X24063209Y-24960381D01*
X24062310Y-24957808D01*
X24062310Y-24957804D01*
X24054224Y-24934650D01*
X24046157Y-24911466D01*
X24045291Y-24908976D01*
X24045055Y-24908393D01*
X24004362Y-24791865D01*
X24004186Y-24791269D01*
X24003280Y-24788684D01*
X24003280Y-24788682D01*
X23995192Y-24765604D01*
X23987078Y-24742369D01*
X23987076Y-24742366D01*
X23986191Y-24739831D01*
X23985956Y-24739252D01*
X23944774Y-24621745D01*
X23944587Y-24621116D01*
X23941170Y-24611403D01*
X23935557Y-24595447D01*
X23927467Y-24572363D01*
X23927466Y-24572361D01*
X23926588Y-24569856D01*
X23926341Y-24569250D01*
X23884716Y-24450927D01*
X23884528Y-24450292D01*
X23875448Y-24424578D01*
X23866456Y-24399016D01*
X23866199Y-24398389D01*
X23824146Y-24279300D01*
X23823954Y-24278654D01*
X23814828Y-24252909D01*
X23805845Y-24227471D01*
X23805582Y-24226832D01*
X23763110Y-24107027D01*
X23762912Y-24106365D01*
X23753806Y-24080781D01*
X23753806Y-24080780D01*
X23745639Y-24057743D01*
X23745636Y-24057739D01*
X23744768Y-24055289D01*
X23744503Y-24054646D01*
X23701671Y-23934303D01*
X23701464Y-23933620D01*
X23700573Y-23931128D01*
X23700573Y-23931124D01*
X23692235Y-23907796D01*
X23684104Y-23884950D01*
X23684101Y-23884945D01*
X23683216Y-23882458D01*
X23682941Y-23881793D01*
X23639760Y-23760972D01*
X23639549Y-23760273D01*
X23630407Y-23734802D01*
X23622319Y-23712170D01*
X23622141Y-23711672D01*
X23622140Y-23711671D01*
X23621266Y-23709224D01*
X23620973Y-23708516D01*
X23600372Y-23651116D01*
X23577456Y-23587264D01*
X23577234Y-23586534D01*
X23576358Y-23584103D01*
X23568047Y-23561047D01*
X23559773Y-23537993D01*
X23559771Y-23537990D01*
X23558905Y-23535576D01*
X23558609Y-23534866D01*
X23514755Y-23413207D01*
X23514528Y-23412462D01*
X23505206Y-23386714D01*
X23496136Y-23361554D01*
X23495835Y-23360834D01*
X23451736Y-23239038D01*
X23451500Y-23238270D01*
X23450608Y-23235819D01*
X23450608Y-23235815D01*
X23442258Y-23212859D01*
X23436712Y-23197540D01*
X23433043Y-23187405D01*
X23432722Y-23186642D01*
X23388327Y-23064582D01*
X23388078Y-23063776D01*
X23378738Y-23038219D01*
X23369593Y-23013075D01*
X23369269Y-23012306D01*
X23324624Y-22890137D01*
X23324370Y-22889317D01*
X23323494Y-22886932D01*
X23323494Y-22886930D01*
X23314959Y-22863688D01*
X23306654Y-22840959D01*
X23306653Y-22840958D01*
X23305785Y-22838581D01*
X23305448Y-22837784D01*
X23260597Y-22715638D01*
X23260336Y-22714802D01*
X23259479Y-22712481D01*
X23259479Y-22712477D01*
X23253481Y-22696225D01*
X23250897Y-22689220D01*
X23241729Y-22664251D01*
X23241386Y-22663445D01*
X23196346Y-22541387D01*
X23196072Y-22540515D01*
X23186709Y-22515273D01*
X23186709Y-22515272D01*
X23178208Y-22492232D01*
X23178206Y-22492229D01*
X23177355Y-22489922D01*
X23176988Y-22489060D01*
X23174154Y-22481420D01*
X23131793Y-22367203D01*
X23131508Y-22366301D01*
X23122091Y-22341041D01*
X23112732Y-22315809D01*
X23112359Y-22314942D01*
X23067017Y-22193327D01*
X23066724Y-22192404D01*
X23065851Y-22190074D01*
X23057311Y-22167291D01*
X23048726Y-22144264D01*
X23047865Y-22141954D01*
X23047473Y-22141044D01*
X23002033Y-22019818D01*
X23001727Y-22018864D01*
X23000853Y-22016546D01*
X23000853Y-22016543D01*
X22992275Y-21993784D01*
X22983651Y-21970777D01*
X22983650Y-21970775D01*
X22982784Y-21968465D01*
X22982381Y-21967536D01*
X22936837Y-21846702D01*
X22936518Y-21845710D01*
X22935662Y-21843452D01*
X22926941Y-21820446D01*
X22918380Y-21797732D01*
X22918377Y-21797727D01*
X22917521Y-21795456D01*
X22917112Y-21794515D01*
X22908706Y-21772341D01*
X22871477Y-21674127D01*
X22871145Y-21673106D01*
X22870299Y-21670888D01*
X22870299Y-21670885D01*
X22861554Y-21647950D01*
X22852936Y-21625215D01*
X22852934Y-21625213D01*
X22852096Y-21623000D01*
X22851662Y-21622008D01*
X22834606Y-21577276D01*
X22805980Y-21502201D01*
X22805639Y-21501154D01*
X22796092Y-21476266D01*
X22789351Y-21458588D01*
X22787338Y-21453307D01*
X22787335Y-21453302D01*
X22786495Y-21451099D01*
X22786044Y-21450074D01*
X22740342Y-21330935D01*
X22739980Y-21329833D01*
X22730316Y-21304796D01*
X22720760Y-21279887D01*
X22720288Y-21278821D01*
X22674600Y-21160460D01*
X22674232Y-21159347D01*
X22664685Y-21134769D01*
X22654936Y-21109516D01*
X22654439Y-21108399D01*
X22608770Y-20990844D01*
X22608375Y-20989663D01*
X22607549Y-20987552D01*
X22607549Y-20987549D01*
X22598611Y-20964694D01*
X22588987Y-20939921D01*
X22588477Y-20938782D01*
X22544039Y-20825151D01*
X22542893Y-20822223D01*
X22542479Y-20820991D01*
X22532680Y-20796103D01*
X22523009Y-20771376D01*
X22522479Y-20770200D01*
X22476938Y-20654542D01*
X22476513Y-20653288D01*
X22466700Y-20628539D01*
X22456961Y-20603808D01*
X22456404Y-20602579D01*
X22410988Y-20488053D01*
X22410533Y-20486723D01*
X22400578Y-20461801D01*
X22392708Y-20441957D01*
X22391697Y-20439407D01*
X22391694Y-20439403D01*
X22390866Y-20437314D01*
X22390300Y-20436072D01*
X22345017Y-20322711D01*
X22344545Y-20321345D01*
X22338716Y-20306864D01*
X22334660Y-20296786D01*
X22324801Y-20272103D01*
X22324190Y-20270774D01*
X22319589Y-20259343D01*
X22279062Y-20158653D01*
X22278565Y-20157222D01*
X22268522Y-20132465D01*
X22258727Y-20108128D01*
X22258101Y-20106775D01*
X22225876Y-20027335D01*
X22213156Y-19995977D01*
X22212641Y-19994508D01*
X22202642Y-19970058D01*
X22192712Y-19945578D01*
X22192046Y-19944148D01*
X22147320Y-19834779D01*
X22146775Y-19833240D01*
X22136743Y-19808913D01*
X22126733Y-19784436D01*
X22126041Y-19782961D01*
X22081541Y-19675055D01*
X22080989Y-19673507D01*
X22070946Y-19649359D01*
X22066383Y-19638296D01*
X22061595Y-19626685D01*
X22061593Y-19626682D01*
X22060819Y-19624805D01*
X22060109Y-19623304D01*
X22018520Y-19523309D01*
X22017962Y-19521763D01*
X22017154Y-19519836D01*
X22007711Y-19497320D01*
X21998420Y-19474979D01*
X21998419Y-19474977D01*
X21997620Y-19473056D01*
X21996923Y-19471596D01*
X21995198Y-19467483D01*
X21955108Y-19371884D01*
X21954568Y-19370400D01*
X21953742Y-19368446D01*
X21953741Y-19368440D01*
X21947753Y-19354277D01*
X21944253Y-19345996D01*
X21934074Y-19321723D01*
X21933380Y-19320279D01*
X21891325Y-19220803D01*
X21890792Y-19219347D01*
X21880513Y-19195226D01*
X21870142Y-19170694D01*
X21869451Y-19169265D01*
X21827162Y-19070021D01*
X21826627Y-19068575D01*
X21816134Y-19044140D01*
X21805828Y-19019954D01*
X21805154Y-19018572D01*
X21762659Y-18919606D01*
X21762131Y-18918194D01*
X21756423Y-18905000D01*
X21751585Y-18893817D01*
X21742009Y-18871516D01*
X21742006Y-18871512D01*
X21741148Y-18869513D01*
X21740491Y-18868174D01*
X21697781Y-18769453D01*
X21697260Y-18768068D01*
X21686656Y-18743734D01*
X21676148Y-18719447D01*
X21675495Y-18718126D01*
X21632508Y-18619485D01*
X21632003Y-18618154D01*
X21621370Y-18593927D01*
X21610761Y-18569584D01*
X21610116Y-18568287D01*
X21566944Y-18469923D01*
X21566444Y-18468619D01*
X21565538Y-18466570D01*
X21565538Y-18466567D01*
X21555677Y-18444256D01*
X21545905Y-18421991D01*
X21545026Y-18419988D01*
X21544391Y-18418719D01*
X21500983Y-18320502D01*
X21500484Y-18319211D01*
X21499584Y-18317188D01*
X21489754Y-18295097D01*
X21479833Y-18272648D01*
X21479830Y-18272644D01*
X21478946Y-18270643D01*
X21478314Y-18269385D01*
X21434688Y-18171340D01*
X21434196Y-18170070D01*
X21429462Y-18159501D01*
X21423212Y-18145547D01*
X21413416Y-18123530D01*
X21413415Y-18123529D01*
X21412505Y-18121483D01*
X21411897Y-18120285D01*
X21368036Y-18022352D01*
X21367557Y-18021129D01*
X21356687Y-17997012D01*
X21345748Y-17972588D01*
X21345145Y-17971405D01*
X21301051Y-17873578D01*
X21300578Y-17872377D01*
X21299653Y-17870337D01*
X21289519Y-17847992D01*
X21279562Y-17825901D01*
X21279561Y-17825899D01*
X21278617Y-17823805D01*
X21278029Y-17822657D01*
X21250068Y-17761004D01*
X21233744Y-17725012D01*
X21233294Y-17723873D01*
X21230243Y-17717187D01*
X21222295Y-17699766D01*
X21211191Y-17675280D01*
X21210606Y-17674147D01*
X21166094Y-17576584D01*
X21165642Y-17575453D01*
X21164676Y-17573349D01*
X21164676Y-17573346D01*
X21158540Y-17559975D01*
X21154537Y-17551252D01*
X21143403Y-17526849D01*
X21142838Y-17525759D01*
X21114921Y-17464926D01*
X21098112Y-17428296D01*
X21097674Y-17427203D01*
X21086480Y-17402947D01*
X21075312Y-17378610D01*
X21074762Y-17377556D01*
X21029800Y-17280125D01*
X21029366Y-17279052D01*
X21018093Y-17254759D01*
X21018093Y-17254758D01*
X21007878Y-17232621D01*
X21007874Y-17232615D01*
X21006902Y-17230509D01*
X21006375Y-17229503D01*
X20962525Y-17135000D01*
X23190000Y-17135000D01*
X23190000Y-17407844D01*
X23196401Y-17467372D01*
X23196403Y-17467379D01*
X23246645Y-17602086D01*
X23246649Y-17602093D01*
X23332809Y-17717187D01*
X23332812Y-17717190D01*
X23447906Y-17803350D01*
X23447913Y-17803354D01*
X23582620Y-17853596D01*
X23582627Y-17853598D01*
X23642155Y-17859999D01*
X23642172Y-17860000D01*
X24015000Y-17860000D01*
X24015000Y-17135000D01*
X24265000Y-17135000D01*
X24265000Y-17860000D01*
X24637828Y-17860000D01*
X24637844Y-17859999D01*
X24697372Y-17853598D01*
X24697379Y-17853596D01*
X24832086Y-17803354D01*
X24832093Y-17803350D01*
X24947187Y-17717190D01*
X24947190Y-17717187D01*
X25033350Y-17602093D01*
X25033354Y-17602086D01*
X25083596Y-17467379D01*
X25083598Y-17467372D01*
X25089999Y-17407844D01*
X25090000Y-17407827D01*
X25090000Y-17135000D01*
X24265000Y-17135000D01*
X24015000Y-17135000D01*
X23190000Y-17135000D01*
X20962525Y-17135000D01*
X20961166Y-17132071D01*
X20960752Y-17131050D01*
X20949450Y-17106819D01*
X20949323Y-17106546D01*
X20939149Y-17084620D01*
X20938139Y-17082443D01*
X20937620Y-17081460D01*
X20892226Y-16984136D01*
X20891816Y-16983135D01*
X20890805Y-16980979D01*
X20890805Y-16980977D01*
X20885341Y-16969323D01*
X20880426Y-16958837D01*
X20874033Y-16945133D01*
X20870108Y-16936717D01*
X20870105Y-16936713D01*
X20869099Y-16934556D01*
X20868600Y-16933613D01*
X20845810Y-16885000D01*
X23190000Y-16885000D01*
X24015000Y-16885000D01*
X24015000Y-16160000D01*
X24265000Y-16160000D01*
X24265000Y-16885000D01*
X25090000Y-16885000D01*
X25090000Y-16612172D01*
X25089999Y-16612155D01*
X25083598Y-16552627D01*
X25083596Y-16552620D01*
X25033354Y-16417913D01*
X25033350Y-16417906D01*
X24947190Y-16302812D01*
X24947187Y-16302809D01*
X24832093Y-16216649D01*
X24832086Y-16216645D01*
X24697379Y-16166403D01*
X24697372Y-16166401D01*
X24637844Y-16160000D01*
X24265000Y-16160000D01*
X24015000Y-16160000D01*
X23642155Y-16160000D01*
X23582627Y-16166401D01*
X23582620Y-16166403D01*
X23447913Y-16216645D01*
X23447906Y-16216649D01*
X23332812Y-16302809D01*
X23332809Y-16302812D01*
X23246649Y-16417906D01*
X23246645Y-16417913D01*
X23196403Y-16552620D01*
X23196401Y-16552627D01*
X23190000Y-16612155D01*
X23190000Y-16885000D01*
X20845810Y-16885000D01*
X20822985Y-16836314D01*
X20822590Y-16835353D01*
X20821543Y-16833132D01*
X20821543Y-16833129D01*
X20811177Y-16811126D01*
X20800754Y-16788892D01*
X20800751Y-16788889D01*
X20799727Y-16786703D01*
X20799235Y-16785778D01*
X20788648Y-16763305D01*
X20753393Y-16688467D01*
X20753011Y-16687543D01*
X20751972Y-16685348D01*
X20751971Y-16685343D01*
X20741475Y-16663168D01*
X20736786Y-16653216D01*
X20730056Y-16638927D01*
X20729570Y-16638017D01*
X20698443Y-16572254D01*
X20683522Y-16540730D01*
X20683150Y-16539835D01*
X20682092Y-16537611D01*
X20682092Y-16537608D01*
X20675969Y-16524731D01*
X20671599Y-16515538D01*
X20660056Y-16491152D01*
X20659592Y-16490289D01*
X20613344Y-16393019D01*
X20612991Y-16392172D01*
X20611910Y-16389909D01*
X20611910Y-16389907D01*
X20601488Y-16368082D01*
X20590864Y-16345738D01*
X20590863Y-16345736D01*
X20589800Y-16343501D01*
X20589353Y-16342672D01*
X20542857Y-16245305D01*
X20542510Y-16244476D01*
X20541429Y-16242223D01*
X20541429Y-16242220D01*
X20530801Y-16220058D01*
X20520303Y-16198073D01*
X20520301Y-16198070D01*
X20519228Y-16195823D01*
X20518805Y-16195039D01*
X20472101Y-16097648D01*
X20471765Y-16096849D01*
X20460029Y-16072472D01*
X20448355Y-16048128D01*
X20447942Y-16047368D01*
X20401001Y-15949865D01*
X20400686Y-15949121D01*
X20399586Y-15946845D01*
X20399585Y-15946840D01*
X20388898Y-15924728D01*
X20386348Y-15919432D01*
X20377237Y-15900506D01*
X20376838Y-15899773D01*
X20329662Y-15802157D01*
X20329364Y-15801455D01*
X20328230Y-15799118D01*
X20328229Y-15799112D01*
X20317749Y-15777505D01*
X20306880Y-15755015D01*
X20306878Y-15755012D01*
X20305778Y-15752736D01*
X20305391Y-15752028D01*
X20258010Y-15654341D01*
X20257715Y-15653647D01*
X20245995Y-15629568D01*
X20234038Y-15604917D01*
X20233667Y-15604239D01*
X20186100Y-15506509D01*
X20185816Y-15505847D01*
X20183386Y-15500871D01*
X20179653Y-15493226D01*
X20173795Y-15481228D01*
X20162062Y-15457124D01*
X20161721Y-15456505D01*
X20148244Y-15428906D01*
X20136518Y-15360031D01*
X20163891Y-15295746D01*
X20221673Y-15256465D01*
X20259671Y-15250500D01*
X51947409Y-15250500D01*
X52014448Y-15270185D01*
G37*
%TD.AperFunction*%
M02*
