M48
; DRILL file {KiCad 7.0.6} date do 13 jul 2023 14:38:43 CEST
; FORMAT={-:-/ absolute / inch / decimal}
; #@! TF.CreationDate,2023-07-13T14:38:43+02:00
; #@! TF.GenerationSoftware,Kicad,Pcbnew,7.0.6
; #@! TF.FileFunction,Plated,1,2,PTH
FMAT,2
INCH
; #@! TA.AperFunction,Plated,PTH,ViaDrill
T1C0.0079
; #@! TA.AperFunction,Plated,PTH,ViaDrill
T2C0.0157
; #@! TA.AperFunction,Plated,PTH,ComponentDrill
T3C0.0374
; #@! TA.AperFunction,Plated,PTH,ComponentDrill
T4C0.0394
%
G90
G05
T1
X1.0996Y-0.898
X1.2833Y-1.3374
X1.3311Y-1.6016
X1.4969Y-1.7283
X1.5035Y-1.5909
X1.5217Y-1.7165
X1.5338Y-1.6917
X1.5693Y-1.8398
X1.9095Y-1.8258
X1.9248Y-1.8029
X1.9308Y-1.776
X2.1744Y-1.972
T2
X1.1661Y-1.1839
X1.487Y-1.1661
X1.6287Y-1.5992
X1.926Y-1.8906
T3
X1.3343Y-2.1858
X1.4327Y-2.1858
X1.5311Y-2.1858
X1.5425Y-0.7492
X1.5425Y-2.5437
X1.6295Y-1.0169
X1.6295Y-2.1858
X1.6409Y-0.7492
X1.6409Y-2.5437
X1.728Y-1.0169
X1.728Y-2.1858
X1.7394Y-0.7492
X1.7394Y-2.5437
X1.8264Y-1.0169
X1.8264Y-2.1858
X1.8378Y-0.7492
X1.8378Y-2.5437
X1.9248Y-1.0169
X1.9248Y-2.1858
X1.9362Y-0.7492
X1.9362Y-2.5437
X2.0232Y-1.0169
X2.0346Y-2.5437
X2.1331Y-2.5437
X2.2315Y-2.5437
T4
X1.1102Y-0.7494
X1.2087Y-0.7494
X1.9945Y-1.285
X2.0524Y-1.5528
X2.0929Y-1.285
X2.0945Y-1.8209
X2.1508Y-1.5528
X2.1929Y-1.8209
T0
M30
