%TF.GenerationSoftware,KiCad,Pcbnew,7.0.5*%
%TF.CreationDate,2023-06-18T14:52:21+02:00*%
%TF.ProjectId,RH_RKJXM1015004_thumb,52485f52-4b4a-4584-9d31-303135303034,rev?*%
%TF.SameCoordinates,Original*%
%TF.FileFunction,Legend,Bot*%
%TF.FilePolarity,Positive*%
%FSLAX46Y46*%
G04 Gerber Fmt 4.6, Leading zero omitted, Abs format (unit mm)*
G04 Created by KiCad (PCBNEW 7.0.5) date 2023-06-18 14:52:21*
%MOMM*%
%LPD*%
G01*
G04 APERTURE LIST*
%ADD10C,0.100000*%
%ADD11C,2.200000*%
%ADD12C,1.100000*%
%ADD13C,1.600000*%
G04 APERTURE END LIST*
D10*
X65147419Y-32275312D02*
X64671228Y-31941979D01*
X65147419Y-31703884D02*
X64147419Y-31703884D01*
X64147419Y-31703884D02*
X64147419Y-32084836D01*
X64147419Y-32084836D02*
X64195038Y-32180074D01*
X64195038Y-32180074D02*
X64242657Y-32227693D01*
X64242657Y-32227693D02*
X64337895Y-32275312D01*
X64337895Y-32275312D02*
X64480752Y-32275312D01*
X64480752Y-32275312D02*
X64575990Y-32227693D01*
X64575990Y-32227693D02*
X64623609Y-32180074D01*
X64623609Y-32180074D02*
X64671228Y-32084836D01*
X64671228Y-32084836D02*
X64671228Y-31703884D01*
X65147419Y-32703884D02*
X64480752Y-32703884D01*
X64147419Y-32703884D02*
X64195038Y-32656265D01*
X64195038Y-32656265D02*
X64242657Y-32703884D01*
X64242657Y-32703884D02*
X64195038Y-32751503D01*
X64195038Y-32751503D02*
X64147419Y-32703884D01*
X64147419Y-32703884D02*
X64242657Y-32703884D01*
X64480752Y-33608645D02*
X65290276Y-33608645D01*
X65290276Y-33608645D02*
X65385514Y-33561026D01*
X65385514Y-33561026D02*
X65433133Y-33513407D01*
X65433133Y-33513407D02*
X65480752Y-33418169D01*
X65480752Y-33418169D02*
X65480752Y-33275312D01*
X65480752Y-33275312D02*
X65433133Y-33180074D01*
X65099800Y-33608645D02*
X65147419Y-33513407D01*
X65147419Y-33513407D02*
X65147419Y-33322931D01*
X65147419Y-33322931D02*
X65099800Y-33227693D01*
X65099800Y-33227693D02*
X65052180Y-33180074D01*
X65052180Y-33180074D02*
X64956942Y-33132455D01*
X64956942Y-33132455D02*
X64671228Y-33132455D01*
X64671228Y-33132455D02*
X64575990Y-33180074D01*
X64575990Y-33180074D02*
X64528371Y-33227693D01*
X64528371Y-33227693D02*
X64480752Y-33322931D01*
X64480752Y-33322931D02*
X64480752Y-33513407D01*
X64480752Y-33513407D02*
X64528371Y-33608645D01*
X65147419Y-34084836D02*
X64147419Y-34084836D01*
X65147419Y-34513407D02*
X64623609Y-34513407D01*
X64623609Y-34513407D02*
X64528371Y-34465788D01*
X64528371Y-34465788D02*
X64480752Y-34370550D01*
X64480752Y-34370550D02*
X64480752Y-34227693D01*
X64480752Y-34227693D02*
X64528371Y-34132455D01*
X64528371Y-34132455D02*
X64575990Y-34084836D01*
X64480752Y-34846741D02*
X64480752Y-35227693D01*
X64147419Y-34989598D02*
X65004561Y-34989598D01*
X65004561Y-34989598D02*
X65099800Y-35037217D01*
X65099800Y-35037217D02*
X65147419Y-35132455D01*
X65147419Y-35132455D02*
X65147419Y-35227693D01*
X65147419Y-36322932D02*
X64147419Y-36322932D01*
X64623609Y-36322932D02*
X64623609Y-36894360D01*
X65147419Y-36894360D02*
X64147419Y-36894360D01*
X65147419Y-37799122D02*
X64623609Y-37799122D01*
X64623609Y-37799122D02*
X64528371Y-37751503D01*
X64528371Y-37751503D02*
X64480752Y-37656265D01*
X64480752Y-37656265D02*
X64480752Y-37465789D01*
X64480752Y-37465789D02*
X64528371Y-37370551D01*
X65099800Y-37799122D02*
X65147419Y-37703884D01*
X65147419Y-37703884D02*
X65147419Y-37465789D01*
X65147419Y-37465789D02*
X65099800Y-37370551D01*
X65099800Y-37370551D02*
X65004561Y-37322932D01*
X65004561Y-37322932D02*
X64909323Y-37322932D01*
X64909323Y-37322932D02*
X64814085Y-37370551D01*
X64814085Y-37370551D02*
X64766466Y-37465789D01*
X64766466Y-37465789D02*
X64766466Y-37703884D01*
X64766466Y-37703884D02*
X64718847Y-37799122D01*
X64480752Y-38275313D02*
X65147419Y-38275313D01*
X64575990Y-38275313D02*
X64528371Y-38322932D01*
X64528371Y-38322932D02*
X64480752Y-38418170D01*
X64480752Y-38418170D02*
X64480752Y-38561027D01*
X64480752Y-38561027D02*
X64528371Y-38656265D01*
X64528371Y-38656265D02*
X64623609Y-38703884D01*
X64623609Y-38703884D02*
X65147419Y-38703884D01*
X65147419Y-39608646D02*
X64147419Y-39608646D01*
X65099800Y-39608646D02*
X65147419Y-39513408D01*
X65147419Y-39513408D02*
X65147419Y-39322932D01*
X65147419Y-39322932D02*
X65099800Y-39227694D01*
X65099800Y-39227694D02*
X65052180Y-39180075D01*
X65052180Y-39180075D02*
X64956942Y-39132456D01*
X64956942Y-39132456D02*
X64671228Y-39132456D01*
X64671228Y-39132456D02*
X64575990Y-39180075D01*
X64575990Y-39180075D02*
X64528371Y-39227694D01*
X64528371Y-39227694D02*
X64480752Y-39322932D01*
X64480752Y-39322932D02*
X64480752Y-39513408D01*
X64480752Y-39513408D02*
X64528371Y-39608646D01*
X65757419Y-31561027D02*
X65757419Y-32132455D01*
X66757419Y-31846741D02*
X65757419Y-31846741D01*
X66757419Y-32465789D02*
X65757419Y-32465789D01*
X66757419Y-32894360D02*
X66233609Y-32894360D01*
X66233609Y-32894360D02*
X66138371Y-32846741D01*
X66138371Y-32846741D02*
X66090752Y-32751503D01*
X66090752Y-32751503D02*
X66090752Y-32608646D01*
X66090752Y-32608646D02*
X66138371Y-32513408D01*
X66138371Y-32513408D02*
X66185990Y-32465789D01*
X66090752Y-33799122D02*
X66757419Y-33799122D01*
X66090752Y-33370551D02*
X66614561Y-33370551D01*
X66614561Y-33370551D02*
X66709800Y-33418170D01*
X66709800Y-33418170D02*
X66757419Y-33513408D01*
X66757419Y-33513408D02*
X66757419Y-33656265D01*
X66757419Y-33656265D02*
X66709800Y-33751503D01*
X66709800Y-33751503D02*
X66662180Y-33799122D01*
X66757419Y-34275313D02*
X66090752Y-34275313D01*
X66185990Y-34275313D02*
X66138371Y-34322932D01*
X66138371Y-34322932D02*
X66090752Y-34418170D01*
X66090752Y-34418170D02*
X66090752Y-34561027D01*
X66090752Y-34561027D02*
X66138371Y-34656265D01*
X66138371Y-34656265D02*
X66233609Y-34703884D01*
X66233609Y-34703884D02*
X66757419Y-34703884D01*
X66233609Y-34703884D02*
X66138371Y-34751503D01*
X66138371Y-34751503D02*
X66090752Y-34846741D01*
X66090752Y-34846741D02*
X66090752Y-34989598D01*
X66090752Y-34989598D02*
X66138371Y-35084837D01*
X66138371Y-35084837D02*
X66233609Y-35132456D01*
X66233609Y-35132456D02*
X66757419Y-35132456D01*
X66757419Y-35608646D02*
X65757419Y-35608646D01*
X66138371Y-35608646D02*
X66090752Y-35703884D01*
X66090752Y-35703884D02*
X66090752Y-35894360D01*
X66090752Y-35894360D02*
X66138371Y-35989598D01*
X66138371Y-35989598D02*
X66185990Y-36037217D01*
X66185990Y-36037217D02*
X66281228Y-36084836D01*
X66281228Y-36084836D02*
X66566942Y-36084836D01*
X66566942Y-36084836D02*
X66662180Y-36037217D01*
X66662180Y-36037217D02*
X66709800Y-35989598D01*
X66709800Y-35989598D02*
X66757419Y-35894360D01*
X66757419Y-35894360D02*
X66757419Y-35703884D01*
X66757419Y-35703884D02*
X66709800Y-35608646D01*
X66757419Y-37275313D02*
X65757419Y-37275313D01*
X65757419Y-37275313D02*
X66471704Y-37608646D01*
X66471704Y-37608646D02*
X65757419Y-37941979D01*
X65757419Y-37941979D02*
X66757419Y-37941979D01*
X66090752Y-38846741D02*
X66757419Y-38846741D01*
X66090752Y-38418170D02*
X66614561Y-38418170D01*
X66614561Y-38418170D02*
X66709800Y-38465789D01*
X66709800Y-38465789D02*
X66757419Y-38561027D01*
X66757419Y-38561027D02*
X66757419Y-38703884D01*
X66757419Y-38703884D02*
X66709800Y-38799122D01*
X66709800Y-38799122D02*
X66662180Y-38846741D01*
X66757419Y-39465789D02*
X66709800Y-39370551D01*
X66709800Y-39370551D02*
X66614561Y-39322932D01*
X66614561Y-39322932D02*
X65757419Y-39322932D01*
X66090752Y-39703885D02*
X66090752Y-40084837D01*
X65757419Y-39846742D02*
X66614561Y-39846742D01*
X66614561Y-39846742D02*
X66709800Y-39894361D01*
X66709800Y-39894361D02*
X66757419Y-39989599D01*
X66757419Y-39989599D02*
X66757419Y-40084837D01*
X66757419Y-40418171D02*
X66090752Y-40418171D01*
X65757419Y-40418171D02*
X65805038Y-40370552D01*
X65805038Y-40370552D02*
X65852657Y-40418171D01*
X65852657Y-40418171D02*
X65805038Y-40465790D01*
X65805038Y-40465790D02*
X65757419Y-40418171D01*
X65757419Y-40418171D02*
X65852657Y-40418171D01*
X68319800Y-31656265D02*
X68367419Y-31799122D01*
X68367419Y-31799122D02*
X68367419Y-32037217D01*
X68367419Y-32037217D02*
X68319800Y-32132455D01*
X68319800Y-32132455D02*
X68272180Y-32180074D01*
X68272180Y-32180074D02*
X68176942Y-32227693D01*
X68176942Y-32227693D02*
X68081704Y-32227693D01*
X68081704Y-32227693D02*
X67986466Y-32180074D01*
X67986466Y-32180074D02*
X67938847Y-32132455D01*
X67938847Y-32132455D02*
X67891228Y-32037217D01*
X67891228Y-32037217D02*
X67843609Y-31846741D01*
X67843609Y-31846741D02*
X67795990Y-31751503D01*
X67795990Y-31751503D02*
X67748371Y-31703884D01*
X67748371Y-31703884D02*
X67653133Y-31656265D01*
X67653133Y-31656265D02*
X67557895Y-31656265D01*
X67557895Y-31656265D02*
X67462657Y-31703884D01*
X67462657Y-31703884D02*
X67415038Y-31751503D01*
X67415038Y-31751503D02*
X67367419Y-31846741D01*
X67367419Y-31846741D02*
X67367419Y-32084836D01*
X67367419Y-32084836D02*
X67415038Y-32227693D01*
X67700752Y-32561027D02*
X68367419Y-32751503D01*
X68367419Y-32751503D02*
X67891228Y-32941979D01*
X67891228Y-32941979D02*
X68367419Y-33132455D01*
X68367419Y-33132455D02*
X67700752Y-33322931D01*
X68367419Y-33703884D02*
X67700752Y-33703884D01*
X67367419Y-33703884D02*
X67415038Y-33656265D01*
X67415038Y-33656265D02*
X67462657Y-33703884D01*
X67462657Y-33703884D02*
X67415038Y-33751503D01*
X67415038Y-33751503D02*
X67367419Y-33703884D01*
X67367419Y-33703884D02*
X67462657Y-33703884D01*
X67700752Y-34037217D02*
X67700752Y-34418169D01*
X67367419Y-34180074D02*
X68224561Y-34180074D01*
X68224561Y-34180074D02*
X68319800Y-34227693D01*
X68319800Y-34227693D02*
X68367419Y-34322931D01*
X68367419Y-34322931D02*
X68367419Y-34418169D01*
X68319800Y-35180074D02*
X68367419Y-35084836D01*
X68367419Y-35084836D02*
X68367419Y-34894360D01*
X68367419Y-34894360D02*
X68319800Y-34799122D01*
X68319800Y-34799122D02*
X68272180Y-34751503D01*
X68272180Y-34751503D02*
X68176942Y-34703884D01*
X68176942Y-34703884D02*
X67891228Y-34703884D01*
X67891228Y-34703884D02*
X67795990Y-34751503D01*
X67795990Y-34751503D02*
X67748371Y-34799122D01*
X67748371Y-34799122D02*
X67700752Y-34894360D01*
X67700752Y-34894360D02*
X67700752Y-35084836D01*
X67700752Y-35084836D02*
X67748371Y-35180074D01*
X68367419Y-35608646D02*
X67367419Y-35608646D01*
X68367419Y-36037217D02*
X67843609Y-36037217D01*
X67843609Y-36037217D02*
X67748371Y-35989598D01*
X67748371Y-35989598D02*
X67700752Y-35894360D01*
X67700752Y-35894360D02*
X67700752Y-35751503D01*
X67700752Y-35751503D02*
X67748371Y-35656265D01*
X67748371Y-35656265D02*
X67795990Y-35608646D01*
X75611970Y-34451121D02*
X75643710Y-34462361D01*
X75643710Y-34462361D02*
X75718431Y-34453100D01*
X75718431Y-34453100D02*
X75761411Y-34432600D01*
X75761411Y-34432600D02*
X75815631Y-34380359D01*
X75815631Y-34380359D02*
X75838111Y-34316878D01*
X75838111Y-34316878D02*
X75839100Y-34263647D01*
X75839100Y-34263647D02*
X75819589Y-34167437D01*
X75819589Y-34167437D02*
X75788839Y-34102966D01*
X75788839Y-34102966D02*
X75726347Y-34027256D01*
X75726347Y-34027256D02*
X75684357Y-33994526D01*
X75684357Y-33994526D02*
X75620876Y-33972046D01*
X75620876Y-33972046D02*
X75546155Y-33981307D01*
X75546155Y-33981307D02*
X75503175Y-34001808D01*
X75503175Y-34001808D02*
X75448955Y-34054049D01*
X75448955Y-34054049D02*
X75437715Y-34085789D01*
X75137843Y-34176062D02*
X75051883Y-34217063D01*
X75051883Y-34217063D02*
X75019153Y-34259054D01*
X75019153Y-34259054D02*
X74996673Y-34322535D01*
X74996673Y-34322535D02*
X75016184Y-34418745D01*
X75016184Y-34418745D02*
X75087936Y-34569176D01*
X75087936Y-34569176D02*
X75150427Y-34644886D01*
X75150427Y-34644886D02*
X75213908Y-34667366D01*
X75213908Y-34667366D02*
X75267138Y-34668356D01*
X75267138Y-34668356D02*
X75353099Y-34627355D01*
X75353099Y-34627355D02*
X75385829Y-34585364D01*
X75385829Y-34585364D02*
X75408308Y-34521883D01*
X75408308Y-34521883D02*
X75388797Y-34425673D01*
X75388797Y-34425673D02*
X75317045Y-34275242D01*
X75317045Y-34275242D02*
X75254554Y-34199531D01*
X75254554Y-34199531D02*
X75191074Y-34177052D01*
X75191074Y-34177052D02*
X75137843Y-34176062D01*
X74966276Y-34811860D02*
X74751020Y-34360567D01*
X74751020Y-34360567D02*
X74754343Y-34754671D01*
X74754343Y-34754671D02*
X74450159Y-34504071D01*
X74450159Y-34504071D02*
X74665414Y-34955363D01*
X73306484Y-41143182D02*
X73091228Y-40691890D01*
X73091228Y-40691890D02*
X72983778Y-40743141D01*
X72983778Y-40743141D02*
X72929558Y-40795382D01*
X72929558Y-40795382D02*
X72907078Y-40858863D01*
X72907078Y-40858863D02*
X72906088Y-40912093D01*
X72906088Y-40912093D02*
X72925599Y-41008304D01*
X72925599Y-41008304D02*
X72956350Y-41072774D01*
X72956350Y-41072774D02*
X73018841Y-41148484D01*
X73018841Y-41148484D02*
X73060832Y-41181214D01*
X73060832Y-41181214D02*
X73124313Y-41203694D01*
X73124313Y-41203694D02*
X73199033Y-41194433D01*
X73199033Y-41194433D02*
X73306484Y-41143182D01*
X77722681Y-42360550D02*
X77507426Y-41909257D01*
X77507426Y-41909257D02*
X77335505Y-41991259D01*
X77335505Y-41991259D02*
X77302775Y-42033250D01*
X77302775Y-42033250D02*
X77291535Y-42064990D01*
X77291535Y-42064990D02*
X77290545Y-42118221D01*
X77290545Y-42118221D02*
X77321296Y-42182691D01*
X77321296Y-42182691D02*
X77363287Y-42215421D01*
X77363287Y-42215421D02*
X77395027Y-42226661D01*
X77395027Y-42226661D02*
X77448257Y-42227650D01*
X77448257Y-42227650D02*
X77620178Y-42145648D01*
X77056133Y-42124513D02*
X77230387Y-42489845D01*
X77230387Y-42489845D02*
X77229398Y-42543075D01*
X77229398Y-42543075D02*
X77218158Y-42574816D01*
X77218158Y-42574816D02*
X77185428Y-42616806D01*
X77185428Y-42616806D02*
X77099467Y-42657807D01*
X77099467Y-42657807D02*
X77046237Y-42656818D01*
X77046237Y-42656818D02*
X77014497Y-42645578D01*
X77014497Y-42645578D02*
X76972506Y-42612848D01*
X76972506Y-42612848D02*
X76798251Y-42247516D01*
X76809845Y-42769571D02*
X76755625Y-42821812D01*
X76755625Y-42821812D02*
X76648174Y-42873063D01*
X76648174Y-42873063D02*
X76594944Y-42872073D01*
X76594944Y-42872073D02*
X76563203Y-42860834D01*
X76563203Y-42860834D02*
X76521213Y-42828104D01*
X76521213Y-42828104D02*
X76500712Y-42785123D01*
X76500712Y-42785123D02*
X76501702Y-42731893D01*
X76501702Y-42731893D02*
X76512942Y-42700152D01*
X76512942Y-42700152D02*
X76545672Y-42658162D01*
X76545672Y-42658162D02*
X76621382Y-42595671D01*
X76621382Y-42595671D02*
X76654112Y-42553680D01*
X76654112Y-42553680D02*
X76665352Y-42521940D01*
X76665352Y-42521940D02*
X76666341Y-42468709D01*
X76666341Y-42468709D02*
X76645841Y-42425729D01*
X76645841Y-42425729D02*
X76603850Y-42392999D01*
X76603850Y-42392999D02*
X76572110Y-42381759D01*
X76572110Y-42381759D02*
X76518879Y-42380769D01*
X76518879Y-42380769D02*
X76411429Y-42432021D01*
X76411429Y-42432021D02*
X76357209Y-42484262D01*
X76368803Y-43006316D02*
X76153548Y-42555024D01*
X76256050Y-42769925D02*
X75998169Y-42892928D01*
X76110922Y-43129319D02*
X75895666Y-42678027D01*
X73484731Y-35908933D02*
X73516471Y-35920173D01*
X73516471Y-35920173D02*
X73591192Y-35910912D01*
X73591192Y-35910912D02*
X73634172Y-35890412D01*
X73634172Y-35890412D02*
X73688392Y-35838171D01*
X73688392Y-35838171D02*
X73710872Y-35774690D01*
X73710872Y-35774690D02*
X73711862Y-35721460D01*
X73711862Y-35721460D02*
X73692351Y-35625249D01*
X73692351Y-35625249D02*
X73661600Y-35560778D01*
X73661600Y-35560778D02*
X73599109Y-35485068D01*
X73599109Y-35485068D02*
X73557118Y-35452338D01*
X73557118Y-35452338D02*
X73493637Y-35429858D01*
X73493637Y-35429858D02*
X73418917Y-35439119D01*
X73418917Y-35439119D02*
X73375936Y-35459620D01*
X73375936Y-35459620D02*
X73321716Y-35511861D01*
X73321716Y-35511861D02*
X73310476Y-35543601D01*
X80402523Y-37758546D02*
X80187268Y-37307253D01*
X80187268Y-37307253D02*
X80015347Y-37389255D01*
X80015347Y-37389255D02*
X79982617Y-37431246D01*
X79982617Y-37431246D02*
X79971377Y-37462986D01*
X79971377Y-37462986D02*
X79970387Y-37516217D01*
X79970387Y-37516217D02*
X80001138Y-37580687D01*
X80001138Y-37580687D02*
X80043129Y-37613417D01*
X80043129Y-37613417D02*
X80074869Y-37624657D01*
X80074869Y-37624657D02*
X80128099Y-37625646D01*
X80128099Y-37625646D02*
X80300020Y-37543644D01*
X79735975Y-37522509D02*
X79910229Y-37887841D01*
X79910229Y-37887841D02*
X79909240Y-37941071D01*
X79909240Y-37941071D02*
X79898000Y-37972812D01*
X79898000Y-37972812D02*
X79865270Y-38014802D01*
X79865270Y-38014802D02*
X79779309Y-38055803D01*
X79779309Y-38055803D02*
X79726079Y-38054814D01*
X79726079Y-38054814D02*
X79694339Y-38043574D01*
X79694339Y-38043574D02*
X79652348Y-38010844D01*
X79652348Y-38010844D02*
X79478093Y-37645512D01*
X79489687Y-38167567D02*
X79435467Y-38219808D01*
X79435467Y-38219808D02*
X79328016Y-38271059D01*
X79328016Y-38271059D02*
X79274786Y-38270069D01*
X79274786Y-38270069D02*
X79243045Y-38258830D01*
X79243045Y-38258830D02*
X79201055Y-38226100D01*
X79201055Y-38226100D02*
X79180554Y-38183119D01*
X79180554Y-38183119D02*
X79181544Y-38129889D01*
X79181544Y-38129889D02*
X79192784Y-38098148D01*
X79192784Y-38098148D02*
X79225514Y-38056158D01*
X79225514Y-38056158D02*
X79301224Y-37993667D01*
X79301224Y-37993667D02*
X79333954Y-37951676D01*
X79333954Y-37951676D02*
X79345194Y-37919936D01*
X79345194Y-37919936D02*
X79346183Y-37866705D01*
X79346183Y-37866705D02*
X79325683Y-37823725D01*
X79325683Y-37823725D02*
X79283692Y-37790995D01*
X79283692Y-37790995D02*
X79251952Y-37779755D01*
X79251952Y-37779755D02*
X79198721Y-37778765D01*
X79198721Y-37778765D02*
X79091271Y-37830017D01*
X79091271Y-37830017D02*
X79037051Y-37882258D01*
X79048645Y-38404312D02*
X78833390Y-37953020D01*
X78935892Y-38167921D02*
X78678011Y-38290924D01*
X78790764Y-38527315D02*
X78575508Y-38076023D01*
X78595716Y-41342687D02*
X78380814Y-41445190D01*
X78700197Y-41451127D02*
X78334511Y-41071586D01*
X78334511Y-41071586D02*
X78399336Y-41594631D01*
X73403921Y-38880850D02*
X73188666Y-38429557D01*
X73188666Y-38429557D02*
X73016745Y-38511559D01*
X73016745Y-38511559D02*
X72984015Y-38553550D01*
X72984015Y-38553550D02*
X72972775Y-38585290D01*
X72972775Y-38585290D02*
X72971785Y-38638521D01*
X72971785Y-38638521D02*
X73002536Y-38702991D01*
X73002536Y-38702991D02*
X73044527Y-38735721D01*
X73044527Y-38735721D02*
X73076267Y-38746961D01*
X73076267Y-38746961D02*
X73129497Y-38747950D01*
X73129497Y-38747950D02*
X73301418Y-38665948D01*
X72737373Y-38644813D02*
X72911627Y-39010145D01*
X72911627Y-39010145D02*
X72910638Y-39063375D01*
X72910638Y-39063375D02*
X72899398Y-39095116D01*
X72899398Y-39095116D02*
X72866668Y-39137106D01*
X72866668Y-39137106D02*
X72780707Y-39178107D01*
X72780707Y-39178107D02*
X72727477Y-39177118D01*
X72727477Y-39177118D02*
X72695737Y-39165878D01*
X72695737Y-39165878D02*
X72653746Y-39133148D01*
X72653746Y-39133148D02*
X72479491Y-38767816D01*
X72491085Y-39289871D02*
X72436865Y-39342112D01*
X72436865Y-39342112D02*
X72329414Y-39393363D01*
X72329414Y-39393363D02*
X72276184Y-39392373D01*
X72276184Y-39392373D02*
X72244443Y-39381134D01*
X72244443Y-39381134D02*
X72202453Y-39348404D01*
X72202453Y-39348404D02*
X72181952Y-39305423D01*
X72181952Y-39305423D02*
X72182942Y-39252193D01*
X72182942Y-39252193D02*
X72194182Y-39220452D01*
X72194182Y-39220452D02*
X72226912Y-39178462D01*
X72226912Y-39178462D02*
X72302622Y-39115971D01*
X72302622Y-39115971D02*
X72335352Y-39073980D01*
X72335352Y-39073980D02*
X72346592Y-39042240D01*
X72346592Y-39042240D02*
X72347581Y-38989009D01*
X72347581Y-38989009D02*
X72327081Y-38946029D01*
X72327081Y-38946029D02*
X72285090Y-38913299D01*
X72285090Y-38913299D02*
X72253350Y-38902059D01*
X72253350Y-38902059D02*
X72200119Y-38901069D01*
X72200119Y-38901069D02*
X72092669Y-38952321D01*
X72092669Y-38952321D02*
X72038449Y-39004562D01*
X72050043Y-39526616D02*
X71834788Y-39075324D01*
X71937290Y-39290225D02*
X71679409Y-39413228D01*
X71792162Y-39649619D02*
X71576906Y-39198327D01*
X72918283Y-36612790D02*
X72951013Y-36570799D01*
X72951013Y-36570799D02*
X73015483Y-36540048D01*
X73015483Y-36540048D02*
X73090204Y-36530788D01*
X73090204Y-36530788D02*
X73153685Y-36553267D01*
X73153685Y-36553267D02*
X73195676Y-36585997D01*
X73195676Y-36585997D02*
X73258167Y-36661708D01*
X73258167Y-36661708D02*
X73288918Y-36726178D01*
X73288918Y-36726178D02*
X73308428Y-36822389D01*
X73308428Y-36822389D02*
X73307439Y-36875619D01*
X73307439Y-36875619D02*
X73284959Y-36939100D01*
X73284959Y-36939100D02*
X73230739Y-36991341D01*
X73230739Y-36991341D02*
X73187759Y-37011842D01*
X73187759Y-37011842D02*
X73113038Y-37021102D01*
X73113038Y-37021102D02*
X73081298Y-37009862D01*
X73081298Y-37009862D02*
X73009546Y-36859431D01*
X73009546Y-36859431D02*
X73095506Y-36818430D01*
X72908387Y-37145095D02*
X72693132Y-36693802D01*
X72693132Y-36693802D02*
X72650506Y-37268098D01*
X72650506Y-37268098D02*
X72435250Y-36816805D01*
X72435604Y-37370601D02*
X72220348Y-36919308D01*
X72220348Y-36919308D02*
X72112898Y-36970560D01*
X72112898Y-36970560D02*
X72058678Y-37022801D01*
X72058678Y-37022801D02*
X72036198Y-37086281D01*
X72036198Y-37086281D02*
X72035208Y-37139512D01*
X72035208Y-37139512D02*
X72054719Y-37235723D01*
X72054719Y-37235723D02*
X72085470Y-37300193D01*
X72085470Y-37300193D02*
X72147961Y-37375903D01*
X72147961Y-37375903D02*
X72189952Y-37408633D01*
X72189952Y-37408633D02*
X72253433Y-37431113D01*
X72253433Y-37431113D02*
X72328153Y-37421852D01*
X72328153Y-37421852D02*
X72435604Y-37370601D01*
X78861408Y-35987591D02*
X78807188Y-36039832D01*
X78807188Y-36039832D02*
X78795948Y-36071572D01*
X78795948Y-36071572D02*
X78794958Y-36124802D01*
X78794958Y-36124802D02*
X78825709Y-36189273D01*
X78825709Y-36189273D02*
X78867700Y-36222003D01*
X78867700Y-36222003D02*
X78899440Y-36233243D01*
X78899440Y-36233243D02*
X78952671Y-36234232D01*
X78952671Y-36234232D02*
X79124592Y-36152230D01*
X79124592Y-36152230D02*
X78909336Y-35700938D01*
X78909336Y-35700938D02*
X78758905Y-35772689D01*
X78758905Y-35772689D02*
X78726175Y-35814680D01*
X78726175Y-35814680D02*
X78714936Y-35846420D01*
X78714936Y-35846420D02*
X78713946Y-35899651D01*
X78713946Y-35899651D02*
X78734447Y-35942631D01*
X78734447Y-35942631D02*
X78776437Y-35975361D01*
X78776437Y-35975361D02*
X78808178Y-35986601D01*
X78808178Y-35986601D02*
X78861408Y-35987591D01*
X78861408Y-35987591D02*
X79011839Y-35915839D01*
%LPC*%
D11*
X64000000Y-43000000D03*
X64000000Y-28500000D03*
D12*
X75611052Y-35361733D03*
D13*
X71091891Y-37849641D03*
X70740658Y-39900649D03*
X77400649Y-43759342D03*
X81259342Y-37099351D03*
X74599351Y-33240658D03*
X79033615Y-42537286D03*
X80037286Y-35466385D03*
X72966385Y-34462714D03*
X71962714Y-41533615D03*
%LPD*%
M02*
